<?xml version="1.0" encoding="utf-8"?>
<!-- Generator: Adobe Illustrator 23.0.4, SVG Export Plug-In . SVG Version: 6.00 Build 0)  -->
<svg version="1.1" id="Layer_1" xmlns="http://www.w3.org/2000/svg" xmlns:xlink="http://www.w3.org/1999/xlink" x="0px" y="0px"
	 viewBox="0 0 1025.94 313.19" style="enable-background:new 0 0 1025.94 313.19;" xml:space="preserve">
<path d="M1009.79,232.43c0,1.87-0.94,5.27-2.81,10.18c-1.87,4.92-3.28,8.08-4.21,9.48c-10.3-5.16-17.33-8.19-21.07-9.13
	c1.87-6.09,4.21-12.88,7.02-20.37C997.15,224.94,1004.17,228.22,1009.79,232.43z M617.95,162.91c0.46,4.21,0.7,9.83,0.7,16.85
	c0,30.9-5.39,49.16-16.15,54.77c-10.78,5.62-21.31,10.99-31.6,16.15c-11.24,6.08-22.47,14.51-33.71,25.28
	c-23.42,23.4-41.43,35.11-54.07,35.11c-6.56,0-11.71-2.81-15.45-8.42c-3.75-5.62-5.62-12.41-5.62-20.37
	c0-12.18,3.27-26.68,9.83-43.54c5.15-12.18,10.76-22.71,16.85-31.6c-14.52,7.48-32.77,20.12-54.77,37.92
	c-28.56,24.34-45.64,38.38-51.26,42.13c-18.26,13.1-33.95,19.66-47.05,19.66c-9.83,0-17.45-3.86-22.82-11.59
	c-5.39-7.72-8.08-16.97-8.08-27.74c0-11.24,2.81-22.71,8.43-34.41c-7.97,4.68-15.69,9.13-23.17,13.34
	c-12.64,7.48-23.88,15.21-33.71,23.17c-10.3,8.89-20.84,17.79-31.6,26.68c-12.64,10.29-22.71,15.45-30.2,15.45
	c-6.56,0-12.18-2.58-16.85-7.72c-5.16-6.09-7.72-14.04-7.72-23.88c0-15.92,5.85-35.58,17.56-58.99
	c6.08-11.24,12.4-22.47,18.96-33.71c-8.43,4.68-15.92,7.02-22.47,7.02c-7.02,0-12.99-3.75-17.91-11.23
	c-4.92-7.5-9.25-11.24-12.99-11.24c-4.21,0-8.55,2.57-12.99,7.72c-4.45,5.15-6.67,9.13-6.67,11.94c0,6.08,4.68,12.4,14.04,18.96
	c7.95,5.15,15.91,10.29,23.88,15.45c0,5.15-1.17,11.94-3.51,20.37c-4.21-1.88-8.43-4.21-12.64-7.02
	c-7.49-3.28-13.58-4.92-18.26-4.92c-13.11,0-27.16,5.38-42.13,16.15c-12.18,10.29-24.35,20.59-36.52,30.9
	c-13.58,10.76-25.52,16.15-35.81,16.15c-6.09,0-11.36-2.35-15.8-7.02C2.22,286.03,0,279.01,0,269.65c0-10.3,3.74-21.54,11.24-33.7
	c1.87-2.35,8.43-10.53,19.66-24.58l2.11,2.1C16.61,233.6,8.43,249.04,8.43,259.82c0,12.17,5.15,18.26,15.45,18.26
	c10.29,0,26.68-10.07,49.16-30.2c21.07-18.26,40.03-28.09,56.88-29.49c-1.88-8.43-2.81-15.45-2.81-21.07
	c0-9.37,2.11-19.43,6.32-30.2c5.15-13.1,11.7-19.66,19.66-19.66c3.74,0,8.43,4.68,14.04,14.04c5.62,9.36,11.47,14.04,17.56,14.04
	c5.62,0,15.45-2.81,29.49-8.43c7.95-3.27,16.15-6.78,24.58-10.53l-19.66-5.62c-8.9-2.81-15.22-4.21-18.96-4.21
	c-2.35,0-4.21,0.7-5.62,2.11h-28.09v-2.81c0-6.55,2.81-11.94,8.43-16.15c4.21-3.74,9.36-5.62,15.45-5.62
	c7.48,0,16.38,2.11,26.68,6.32c15.45,5.16,25.28,8.43,29.49,9.83c19.19,4.68,39.32,7.02,60.39,7.02c0,0.94-1.4,4.46-4.21,10.53
	c-2.81,6.09-4.68,9.13-5.62,9.13c-9.83-1.87-18.96-2.81-27.39-2.81c-6.56,0-16.15,2.46-28.79,7.37s-21.77,9.48-27.39,13.69
	c-3.75,3.74-10.07,14.75-18.96,33.01c-11.24,23.4-16.85,42.36-16.85,56.88c0,5.15,1.63,9.24,4.92,12.29
	c3.27,3.04,7.25,4.57,11.94,4.57c5.15,0,13.57-4.92,25.28-14.75c8.43-7.5,16.85-14.99,25.28-22.47
	c10.29-7.49,26.91-18.03,49.86-31.6c15.45-8.9,24.11-15.69,25.98-20.36c-0.47-6.09-1.17-12.64-2.11-19.66L296.34,40.03
	c-0.47-1.87-1.4-4.56-2.81-8.08s-2.11-6.2-2.11-8.08L297.74,0l21.77,43.54v7.02l-10.53-9.83l18.96,122.19
	c0.93,5.62,1.4,12.17,1.4,19.66c0,21.07-3.28,36.27-9.83,45.64c-6.56,9.36-9.83,19.89-9.83,31.6c0,7.48,2.22,13.92,6.67,19.31
	c4.44,5.38,10.18,8.08,17.2,8.08c14.04,0,37.45-13.81,70.22-41.43c37.92-31.84,64.6-50.8,80.05-56.88
	c-0.94-0.94-7.72-6.09-20.36-15.45c-9.37-6.55-14.04-13.57-14.04-21.07c0-9.83,3.27-16.61,9.83-20.36
	c4.68-2.34,12.17-3.51,22.47-3.51c8.43,0,25.28,2.35,50.56,7.02c28.55,5.62,47.51,8.67,56.88,9.13c0,1.4-1.05,4.92-3.16,10.53
	c-2.11,5.62-3.63,8.67-4.56,9.13c-20.6,7.95-43.31,17.79-68.12,29.49c4.67,7.02,7.02,13.57,7.02,19.66c0,2.34-0.7,5.27-2.11,8.78
	c-1.4,3.51-2.81,5.27-4.21,5.27c-0.94,0-4.1-2.23-9.48-6.67c-5.39-4.46-9.48-8.32-12.29-11.59c-3.28,3.27-7.49,11-12.64,23.17
	c-6.09,14.98-9.13,28.79-9.13,41.43c0,11.24,5.15,16.85,15.45,16.85c7.95,0,22.7-10.77,44.24-32.3c9.83-9.83,26.68-20.83,50.56-33
	c19.19-8.9,29.25-16.39,30.2-22.47c-0.47-6.09-1.4-12.64-2.81-19.66L586.35,40.03c-0.47-1.87-1.4-4.56-2.81-8.08
	c-1.41-3.51-2.11-6.2-2.11-8.08L587.05,0l22.47,43.54v7.02l-10.53-9.83L617.95,162.91z M50.56,154.49
	C38.85,167.13,33,177.42,33,185.39c0,6.08,1.87,9.13,5.62,9.13c0.93,0,1.87-0.35,2.81-1.06c0.93-0.7,1.63-1.29,2.11-1.76l1.4,1.41
	c-4.69,12.17-9.37,18.26-14.04,18.26c-5.62,0-8.43-3.51-8.43-10.53c0-8.43,3.16-17.68,9.48-27.74c6.32-10.06,12.29-16.5,17.91-19.31
	L50.56,154.49z M115.16,193.81c0,5.62-1.17,8.42-3.51,8.42c-3.28,0-7.49-2.1-12.64-6.32c-2.35,5.62-6.32,12.17-11.94,19.66
	c-13.58,17.31-34.18,27.85-61.8,31.6v-1.4c22.93-8.43,42.13-20.36,57.58-35.81c5.15-5.16,10.53-11.94,16.15-20.36
	c3.74-6.56,6.32-9.83,7.72-9.83c2.34,0,4.44,2.1,6.32,6.32C114.46,189.83,115.16,192.41,115.16,193.81z M116.57,113.76
	c0,3.75-1.4,7.49-4.21,11.24c-1.88-2.81-3.75-4.21-5.62-4.21c-3.75,0-6.56,5.16-8.43,15.45c-1.4,7.49-2.81,14.75-4.21,21.77
	c-1.4-5.15-4.92-12.87-10.53-23.17c-0.94,4.21-3.05,6.32-6.32,6.32c-2.35,0-4.56-1.05-6.67-3.16c-2.11-2.11-3.16-4.56-3.16-7.37
	c0-7.48,2.81-11.24,8.43-11.24c6.55,0,12.4,7.49,17.56,22.47c4.21-26.21,10.06-39.32,17.56-39.32
	C114.69,102.52,116.57,106.28,116.57,113.76z M147.47,268.25c0,1.4-0.82,4.68-2.46,9.83c-1.65,5.15-3.16,8.42-4.56,9.83
	c-7.97-4.21-14.52-7.26-19.66-9.13c-1.87,7.02-3.98,12.17-6.32,15.45c-9.83-5.62-16.85-8.9-21.07-9.83
	c2.34-5.62,4.67-12.18,7.02-19.66c7.48,1.87,14.5,4.92,21.07,9.13c1.87-4.69,3.74-9.83,5.62-15.45
	C135.53,260.75,142.31,264.03,147.47,268.25z M112.35,194.51c-1.4-2.81-3.28-4.92-5.62-6.32c-1.4,0-2.58,0.7-3.51,2.11
	C105.09,192.17,108.14,193.57,112.35,194.51z M167.83,58.99c-1.4,3.75-5.16,9.13-11.24,16.15c-1.4,1.4-5.62,3.63-12.64,6.67
	c-7.02,3.05-12.41,4.56-16.15,4.56c-1.87,0-3.98-0.7-6.32-2.11c14.04-4.21,23.4-8.66,28.09-13.34c-4.69-1.87-9.83-2.81-15.45-2.81
	c-0.94,0-1.88,0.24-2.81,0.7c-0.94,0.47-1.87,0.7-2.81,0.7c0-13.1,6.08-18.72,18.26-16.85C153.31,53.14,160.34,55.25,167.83,58.99z
	 M276.67,41.43l-2.11,9.13c-46.35,8.9-84.27,28.79-113.76,59.69l0.7-11.24C192.41,67.66,230.79,48.45,276.67,41.43z M264.74,214.88
	c-1.4,5.62-4.45,10.76-9.13,15.45c-4.69,4.68-9.6,7.02-14.75,7.02c-9.37,0-14.04-4.45-14.04-13.34c0-3.75,4.44-11.24,13.34-22.47
	c-1.4,0-2.81,0-4.21,0c-4.68,0-8.9,1.63-12.64,4.92l2.81-8.43c4.68-4.21,8.89-6.32,12.64-6.32c4.68,0,9.13,0.46,13.34,1.41
	l-4.21,8.43c-2.81,1.87-6.09,4.79-9.83,8.78c-3.75,3.97-5.62,7.37-5.62,10.18c0,3.74,3.51,5.62,10.53,5.62
	C251.39,226.11,258.65,222.36,264.74,214.88z M270.35,92.69c0,9.83-3.51,14.75-10.53,14.75c-3.28,0-6.56-1.63-9.83-4.92
	c-2.35,6.56-6.32,9.83-11.94,9.83c-4.69,0-7.49-3.51-8.43-10.53c-0.47-5.62-0.7-11.24-0.7-16.85c-1.4,2.35-2.81,5.16-4.21,8.43
	v-4.92c0.93-2.81,2.11-5.38,3.51-7.72c1.87-3.74,4.44-6.55,7.72-8.43c-2.35,17.8-0.7,26.68,4.92,26.68c4.21,0,6.32-3.04,6.32-9.13
	c0-2.34-0.94-7.48-2.81-15.45l4.21-7.02c2.34,3.75,3.97,9.6,4.92,17.56c0.46,6.09,2.57,9.13,6.32,9.13c2.81,0,4.21-1.87,4.21-5.62
	l-3.51-16.15l4.21-9.13C268.48,74.44,270.35,84.27,270.35,92.69z M300.55,251.39c-12.18,12.64-18.26,23.17-18.26,31.6
	c0,5.62,1.87,8.43,5.62,8.43c0.93,0,1.87-0.35,2.81-1.05c0.93-0.7,1.63-1.06,2.11-1.06l1.4,0.7c-4.69,12.64-9.37,18.96-14.04,18.96
	c-5.62,0-8.43-3.75-8.43-11.24c0-7.96,3.16-17.09,9.48-27.39c6.32-10.3,12.52-16.85,18.61-19.66L300.55,251.39z M355.32,202.24
	c-12.18,12.17-18.26,22.47-18.26,30.9c0,5.62,1.87,8.43,5.62,8.43c1.4,0,2.46-0.35,3.16-1.05s1.28-1.05,1.76-1.05l1.4,1.4
	c-4.68,12.17-9.37,18.26-14.04,18.26c-5.62,0-8.43-3.75-8.43-11.24c0-7.96,3.16-17.09,9.48-27.39c6.32-10.3,12.52-16.85,18.61-19.66
	L355.32,202.24z M377.79,198.73c0,9.83-2.35,20.12-7.02,30.9h-3.51c0.93-12.64,0-28.09-2.81-46.34L341.98,40.03
	c-0.47-1.87-1.4-4.56-2.81-8.08c-1.4-3.51-2.11-6.2-2.11-8.08L343.38,0l21.77,43.54v7.02l-10.53-9.83l22.47,141.85
	C377.55,185.85,377.79,191.23,377.79,198.73z M433.97,124.99c0,5.16-1.53,10.07-4.56,14.75c-3.05,4.68-6.91,7.02-11.59,7.02
	c-7.49,0-11.24-4.21-11.24-12.64c0-1.87,1.51-7.6,4.56-17.2c3.04-9.59,4.56-17.67,4.56-24.23c0-11.7-4.68-21.07-14.04-28.09
	c0-0.46-0.7-7.48-2.11-21.07c6.55,4.21,11.94,10.3,16.15,18.26c4.21,7.97,6.32,15.45,6.32,22.47c0,7.97-0.94,14.52-2.81,19.66
	C429.05,107.21,433.97,114.23,433.97,124.99z M427.65,181.17c0,1.41-0.94,4.57-2.81,9.48c-1.88,4.92-3.28,8.31-4.21,10.18
	c-10.3-5.62-17.33-8.9-21.07-9.83c1.87-6.09,4.21-12.64,7.02-19.66C415.01,173.68,422.03,176.96,427.65,181.17z M431.16,127.1
	c-2.81-5.15-7.72-8.89-14.75-11.24c-3.28,3.75-4.92,7.49-4.92,11.24c0,5.16,2.34,7.72,7.02,7.72
	C422.73,134.83,426.95,132.26,431.16,127.1z M455.74,246.48c-12.18,12.64-18.26,22.93-18.26,30.9c0,6.08,2.11,9.13,6.32,9.13
	c0.46,0,1.28-0.35,2.46-1.05c1.16-0.7,1.76-1.29,1.76-1.76l1.4,1.41c-4.21,12.64-8.9,18.96-14.04,18.96
	c-5.62,0-8.43-3.75-8.43-11.23c0-7.97,3.27-17.32,9.83-28.09c6.55-9.83,12.64-16.39,18.26-19.66L455.74,246.48z M575.12,33
	l-7.72,12.64c-22.94,4.68-45.54,12.64-67.76,23.88c-22.24,11.24-40.62,24.35-55.12,39.32l6.32-15.45
	c14.04-14.04,32.76-26.91,56.18-38.62C530.4,43.08,553.11,35.81,575.12,33z M496.47,21.07c-1.4,3.75-5.16,8.9-11.24,15.45
	c-1.4,1.4-5.62,3.51-12.64,6.32c-7.02,2.81-12.41,4.21-16.15,4.21c-1.4,0-3.28-0.46-5.62-1.4c13.57-4.21,22.7-8.66,27.39-13.34
	c-4.68-1.4-9.83-2.11-15.45-2.11c-0.47,0-1.3,0.12-2.46,0.35c-1.17,0.24-2,0.35-2.46,0.35c0-12.64,5.85-18.26,17.56-16.85
	C481.95,14.99,488.97,17.33,496.47,21.07z M549.13,159.4c-28.56-6.55-51.96-9.83-70.22-9.83c-9.37,0-16.62,0.7-21.77,2.11
	c12.64,7.49,21.53,13.11,26.68,16.85c3.27,3.27,7.95,7.48,14.04,12.64L549.13,159.4z M558.26,99.01c0,9.83-3.51,14.75-10.53,14.75
	c-2.81,0-6.09-1.87-9.83-5.62c-1.88,6.56-5.62,9.83-11.24,9.83c-5.16,0-8.2-3.51-9.13-10.53c0-5.15,0-10.53,0-16.15
	c-1.4,2.35-3.05,5.16-4.92,8.43V94.8c0.93-2.81,2.11-5.38,3.51-7.72c2.34-3.74,4.92-6.55,7.72-8.43c-1.88,17.33,0,25.98,5.62,25.98
	c4.21,0,6.32-2.81,6.32-8.43c0-2.81-0.94-7.95-2.81-15.45l4.21-7.02c2.34,3.28,3.97,9.13,4.92,17.56c0,6.09,2.11,9.13,6.32,9.13
	c2.81,0,4.21-1.87,4.21-5.62c0-0.46-1.4-5.85-4.21-16.15l4.92-9.13C556.62,80.75,558.26,90.59,558.26,99.01z M573.01,213.47
	c-1.41,5.62-4.46,10.64-9.13,15.1c-4.69,4.44-9.6,6.67-14.75,6.67c-8.9,0-13.34-4.21-13.34-12.64c0-4.21,4.21-11.71,12.64-22.47
	c-1.41,0-2.81,0-4.21,0c-5.16,0-9.37,1.4-12.64,4.21l2.81-7.72c4.67-4.69,8.89-7.02,12.64-7.02c4.67,0,9.36,0.7,14.04,2.1
	l-4.92,8.43c-2.81,1.4-6.09,4.21-9.83,8.43c-3.75,4.21-5.62,7.72-5.62,10.53c0,3.74,3.51,5.62,10.53,5.62
	C559.67,224.71,566.92,220.96,573.01,213.47z M631.29,245.78c-11.71,12.17-17.56,22.47-17.56,30.9c0,6.08,2.11,9.13,6.32,9.13
	c0.46,0,1.87-0.94,4.21-2.81l1.41,0.7c-4.69,12.64-9.37,18.96-14.04,18.96c-5.62,0-8.43-3.76-8.43-11.24
	c0-7.96,3.27-17.1,9.83-27.39c6.55-10.3,12.64-16.85,18.26-19.66V245.78z M664.3,198.73c0,9.83-2.35,20.12-7.02,30.9h-2.81
	c0.46-12.64-0.94-28.09-4.21-46.34L628.48,40.03c-0.47-1.87-1.4-4.56-2.81-8.08c-1.41-3.51-2.11-6.2-2.11-8.08L629.89,0l21.77,43.54
	v7.02l-9.83-9.83l21.07,141.85C663.83,185.85,664.3,191.23,664.3,198.73z M1018.92,176.26c0,7.95-1.41,15.21-4.21,21.77
	c-4.21,8.43-9.6,12.64-16.15,12.64c-3.28,0-7.37-1.53-12.29-4.56c-4.92-3.05-8.08-6.21-9.48-9.48c-0.94,2.34-2.81,5.38-5.62,9.13
	c-4.69,5.15-10.07,7.72-16.15,7.72c-4.69,0-7.72-1.17-9.13-3.51c-1.87-3.75-3.98-7.02-6.32-9.83
	c-10.3,10.29-18.96,15.45-25.98,15.45c-7.5,0-13.34-2.58-17.56-7.72c-1.88-1.41-4.46-5.62-7.72-12.64
	c-1.87-4.68-4.45-7.02-7.72-7.02c-4.68,0-8.67,3.04-11.94,9.13c-2.81,4.67-4.21,8.18-4.21,10.53c0,8.42,12.17,18.72,36.52,30.9
	c0.93,0.46,0.93,3.97,0,10.53c-1.4,6.08-2.58,9.36-3.51,9.83c-4.69-1.87-9.13-3.75-13.34-5.62c-5.16-2.35-9.6-3.51-13.34-3.51
	c-13.11,0-27.39,5.15-42.84,15.45c-12.18,9.36-24.58,18.96-37.22,28.79c-13.58,10.29-24.82,15.45-33.71,15.45
	c-5.62,0-11.01-2.81-16.15-8.43c-6.09-6.09-9.13-13.34-9.13-21.77c0-15.45,7.95-32.07,23.88-49.86c0-0.47-0.94-1.88-2.81-4.21
	c-1.87-2.35-2.81-4.69-2.81-7.02h-1.4c-4.21,12.64-8.2,21.3-11.94,25.98c-5.16,6.08-11.94,9.13-20.36,9.13
	c-19.66,0-29.49-15.92-29.49-47.75c0-5.16,0.23-11.23,0.7-18.26l0.7-8.43c-3.28,4.67-5.62,13.1-7.02,25.28
	c-0.94,9.83-2.11,19.42-3.51,28.79c-2.81,15.91-7.72,23.88-14.75,23.88c-9.37,0-16.62-8.2-21.77-24.58
	c-3.75-12.18-5.62-23.65-5.62-34.41c0-9.83,0.7-16.15,2.11-18.96c0,0.46,0.46,1.4,1.4,2.81c-0.47,8.43,0.46,18.72,2.81,30.9
	c3.27,18.26,8.89,27.39,16.85,27.39c3.74,0,7.02-3.05,9.83-9.13c1.87-5.16,2.81-9.83,2.81-14.04c0.93-6.56,2.1-15.92,3.51-28.09
	c0.46-5.16,2.81-12.29,7.02-21.42c4.21-9.13,8.18-15.56,11.94-19.31c1.87,0,3.51,2,4.92,5.97c1.4,3.98,2.11,7.14,2.11,9.48
	c-4.21,18.72-6.32,32.3-6.32,40.73c0,6.55,1.41,12.64,4.21,18.26c3.74,7.02,9.13,10.53,16.15,10.53c7.95,0,14.86-2.7,20.72-8.08
	c5.85-5.39,8.78-11.83,8.78-19.31c0-6.56-2.23-16.85-6.67-30.9c-4.46-14.04-6.67-22.47-6.67-25.28c0,0.47,1.16-4.44,3.51-14.75
	c0.46,0,1.63,0.24,3.51,0.7c7.02,9.37,13.57,31.37,19.66,66.01c1.41,5.62,4.67,10.53,9.83,14.74c5.15,4.21,10.29,6.32,15.45,6.32
	c6.08,0,10.76-1.88,14.04-5.62c-2.35-8.43-7.72-23.42-16.15-44.94c-7.49-20.12-11.23-30.43-11.23-30.9c0-0.46,1.16-6.08,3.51-16.85
	c2.34,2.35,9.36,10.3,21.07,23.88v3.51c-1.41,0-4.46-1.16-9.13-3.51c13.57,31.83,20.36,51.72,20.36,59.69
	c0,8.42-1.87,15.91-5.62,22.47c-4.21,7.95-10.53,11.94-18.96,11.94c-8.9,0-15.92-3.05-21.07-9.13c-4.69,4.21-9.13,10.29-13.34,18.26
	c-6.09,9.83-9.13,18.02-9.13,24.58c0,4.21,1.28,8.19,3.86,11.94c2.57,3.74,6.43,5.62,11.59,5.62c6.55,0,19.66-7.49,39.32-22.47
	c26.21-19.2,40.03-29.26,41.43-30.2c4.67-2.35,8.43-4.21,11.24-5.62c4.67-1.87,9.36-2.81,14.04-2.81c0-2.35-0.35-5.97-1.06-10.89
	c-0.7-4.91-1.05-7.61-1.05-8.08c0-8.43,2.81-17.8,8.43-28.09c6.08-11.24,12.64-16.85,19.66-16.85c2.34,0,6.2,4.44,11.59,13.34
	c5.38,8.89,12.29,13.34,20.72,13.34c8.43,0,14.74-2.35,18.96-7.02c8.43-8.9,13.34-14.04,14.74-15.45c0.46,0.46,0.35,2.22-0.35,5.27
	c-0.7,3.04-1.06,5.27-1.06,6.67c0,6.55,3.04,9.83,9.13,9.83c6.08,0,10.53-2.81,13.34-8.43c4.68-9.37,7.95-14.99,9.83-16.85
	c0.93,6.55,3.27,11.81,7.02,15.8c3.74,3.97,7.72,5.97,11.94,5.97c2.34,0,5.15-1.17,8.43-3.51v-2.81
	c-5.16-11.71-12.18-29.02-21.07-51.96c-0.94-3.27-2.35-6.78-4.21-10.53c-0.47-1.4-1.17-3.16-2.11-5.27c-0.94-2.11-1.4-3.62-1.4-4.56
	c0-0.93,0.93-3.86,2.81-8.78c1.87-4.92,3.04-7.83,3.51-8.78c2.34,2.35,9.13,11.48,20.36,27.39c-0.94,1.4-1.17,2.35-0.7,2.81
	l-8.43-3.51c-0.47,0.47-0.7,0.94-0.7,1.4C1011.65,149.11,1018.92,166.9,1018.92,176.26z M709.24,277.38c-9.37,22-21.31,33-35.81,33
	c-7.49,0-11.23-4.92-11.23-14.74c0-2.35,3.74-5.74,11.23-10.18c7.48-4.45,11.47-8.32,11.94-11.59c-5.16-0.94-7.97-2.58-8.43-4.92
	c-0.47-2.35,0.11-5.39,1.76-9.13c1.64-3.75,3.16-5.86,4.57-6.32l-2.11-3.51l0.7-2.11c1.87,0,4.92,0.93,9.13,2.81v1.4
	c3.74,2.34,7.72,6.55,11.94,12.64c1.4,7.02,0,10.76-4.21,11.23c-2.81,0.46-6.09,0.23-9.83-0.7c-0.47,5.62-3.05,10.29-7.72,14.04
	c-4.69,2.34-9.83,5.85-15.45,10.53c1.4,1.4,4.67,2.11,9.83,2.11c6.08,0,12.87-3.51,20.37-10.53c5.15-5.16,9.13-10.07,11.94-14.75
	L709.24,277.38z M697.3,54.77c-13.58,14.04-20.37,25.75-20.37,35.11c0,6.56,2.34,9.83,7.02,9.83c0.93,0,1.87-0.46,2.81-1.4
	c0.93-0.93,1.63-1.4,2.11-1.4l1.4,1.4c-5.16,14.04-10.3,21.07-15.45,21.07c-6.56,0-9.83-4.21-9.83-12.64
	c0-8.89,3.51-19.42,10.53-31.6c7.48-11.24,14.51-18.72,21.07-22.47L697.3,54.77z M689.58,261.22c-0.47-1.88-1.65-2.58-3.51-2.11
	c-2.81,0.46-4.69,1.87-5.62,4.21c2.34,2.34,4.67,3.51,7.02,3.51C688.88,264.49,689.58,262.63,689.58,261.22z M700.11,268.25
	c-1.87-1.4-4.45-3.51-7.72-6.32l-0.7,6.32c1.4,0.93,3.27,1.16,5.62,0.7C698.23,268.95,699.17,268.71,700.11,268.25z M749.27,103.93
	c0,10.3-3.51,15.45-10.53,15.45c-2.81,0-6.09-1.87-9.83-5.62c-1.88,6.56-5.62,9.83-11.24,9.83c-5.16,0-8.2-3.51-9.13-10.53
	c0-5.15,0-10.53,0-16.15c-1.4,2.35-3.05,5.16-4.92,8.43v-5.62c0.93-2.34,2.11-4.92,3.51-7.72c2.34-3.74,4.92-6.55,7.72-8.43
	c-1.88,17.33-0.24,25.98,4.92,25.98c4.21,0,6.32-2.81,6.32-8.43c0-2.34-0.7-7.48-2.1-15.45l4.21-7.02
	c2.34,3.75,3.74,9.83,4.21,18.26c0.46,5.62,2.57,8.43,6.32,8.43c3.27,0,4.92-1.63,4.92-4.92c0-0.46-1.4-5.85-4.21-16.15l4.21-9.83
	C747.39,85.67,749.27,95.5,749.27,103.93z M728.9,49.16c0,10.3-2.11,21.54-6.32,33.71c0.93-7.02,1.41-14.27,1.41-21.77
	c0-15.45-4.69-27.39-14.04-35.81l1.4-16.15c5.62,4.21,10.06,10.78,13.34,19.66C727.5,36.28,728.9,43.08,728.9,49.16z M804.04,75.14
	c-1.4,3.75-4.92,8.67-10.53,14.75c-1.4,1.88-5.62,4.1-12.64,6.67c-7.02,2.58-12.18,3.86-15.45,3.86c-1.87,0-3.98-0.23-6.32-0.7
	c13.57-4.21,22.7-8.66,27.39-13.34c-4.69-1.87-9.6-2.81-14.75-2.81c-0.94,0-2,0.24-3.16,0.7c-1.17,0.47-2,0.7-2.46,0.7
	c0-12.64,5.85-18.26,17.56-16.85C790.22,69.06,797.02,71.39,804.04,75.14z M837.75,198.73c0,12.17-1.65,22.47-4.92,30.9h-5.62
	c0.93-12.64,0-28.09-2.81-46.34L801.93,40.03c-0.47-1.87-1.4-4.56-2.81-8.08s-2.11-6.2-2.11-8.08L803.34,0l21.77,43.54v7.02
	l-10.53-9.83l22.47,141.85C837.5,185.85,837.75,191.23,837.75,198.73z M863.73,255.61c-12.18,12.17-18.26,22.47-18.26,30.9
	c0,6.08,2.11,9.13,6.32,9.13c0.46,0,1.28-0.47,2.46-1.41c1.16-0.94,1.99-1.4,2.46-1.4l0.7,1.4c-4.21,12.64-8.67,18.96-13.34,18.96
	c-6.09,0-9.13-3.99-9.13-11.94c0-7.96,3.27-17.09,9.83-27.39c6.55-10.3,12.64-16.85,18.26-19.66L863.73,255.61z M880.58,60.39
	C867,74.44,860.22,86.37,860.22,96.2c0,6.56,2.11,9.83,6.32,9.83c0.93,0,1.99-0.46,3.16-1.4c1.16-0.93,1.99-1.4,2.46-1.4l1.4,0.7
	c-5.16,14.52-10.3,21.77-15.45,21.77c-6.56,0-9.83-4.44-9.83-13.34c0-8.89,3.62-19.19,10.88-30.9c7.25-11.7,14.15-19.19,20.72-22.47
	L880.58,60.39z M964.85,244.37c0.46,3.74,0,7.25-1.4,10.53c-1.4,3.27-3.28,4.92-5.62,4.92c-2.81,0-4.92-1.17-6.32-3.51
	c-3.28,4.67-6.09,7.02-8.43,7.02c-1.4,0-3.4-0.59-5.97-1.76c-2.58-1.17-4.56-1.76-5.97-1.76c-0.94,0-4.21,3.04-9.83,9.13
	c-6.56,7.95-14.29,14.28-23.17,18.96c-7.49,4.21-17.56,7.02-30.19,8.43v-0.7c18.72-7.97,35.11-18.03,49.16-30.2
	c11.7-9.83,18.26-14.74,19.66-14.74c1.41,0,2.92,0.58,4.57,1.76c1.63,1.16,2.92,1.76,3.86,1.76c2.81,0,6.08-2.81,9.83-8.43l0.7,1.4
	c-1.41,2.81-0.7,4.21,2.1,4.21c2.81,0,4.68-2.1,5.62-6.32L964.85,244.37z M950.1,56.88c0,3.28-1.17,6.79-3.51,10.53
	c-2.35-2.34-4.46-3.51-6.32-3.51c-3.28,0-5.86,4.69-7.72,14.04c-1.4,7.02-2.58,14.29-3.51,21.77c-1.88-5.62-5.39-13.1-10.53-22.47
	c-0.94,4.21-3.05,6.32-6.32,6.32c-1.87,0-3.86-1.05-5.97-3.16c-2.11-2.11-3.16-4.56-3.16-7.37c0-7.48,2.57-11.24,7.72-11.24
	c6.55,0,12.17,7.49,16.85,22.47c4.21-25.74,9.83-38.62,16.85-38.62C948.22,45.64,950.1,49.4,950.1,56.88z M961.34,118.67
	c-1.4,3.75-4.92,8.9-10.53,15.45c-1.4,0.94-5.62,2.93-12.64,5.97c-7.02,3.05-12.18,4.56-15.45,4.56c-1.4,0-3.28-0.46-5.62-1.4
	c13.1-4.21,22-8.66,26.68-13.34c-4.21-1.4-9.13-2.11-14.74-2.11c-0.94,0-1.88,0.12-2.81,0.35c-0.94,0.24-1.87,0.35-2.81,0.35
	c0-12.64,5.85-18.02,17.56-16.15C947.52,112.83,954.31,114.93,961.34,118.67z M1025.94,254.9l-3.51,11.24
	c-29.97,6.08-54.31,18.96-73.03,38.62l2.81-12.64C971.87,271.52,996.45,259.12,1025.94,254.9z"/>
</svg>
