<?xml version="1.0" encoding="utf-8"?>
<!-- Generator: Adobe Illustrator 24.0.0, SVG Export Plug-In . SVG Version: 6.00 Build 0)  -->
<svg version="1.1" id="Layer_1" xmlns="http://www.w3.org/2000/svg" xmlns:xlink="http://www.w3.org/1999/xlink" x="0px" y="0px"
	 viewBox="0 0 512 512" style="enable-background:new 0 0 512 512;" xml:space="preserve">
<path d="M426.2,80.4l-170.2,32l-170.2-32C64,77,48,97.3,48,118v244.5c0,20.7,16,32.6,37.8,37.6L256,432l170.2-32
	c21.8-5,37.8-16.9,37.8-37.6V118C464,97.3,448,77,426.2,80.4z M426.2,362.4l-151.2,32V149.9l151.2-32V362.4z M237,394.4l-151.2-32
	V118L237,150L237,394.4L237,394.4z"/>
<polygon points="350.6,189.7 332.1,210.3 312.8,197 311.5,138.9 349.3,131.7 "/>
</svg>
