<?xml version="1.0" encoding="utf-8"?>
<!-- Generator: Adobe Illustrator 24.0.0, SVG Export Plug-In . SVG Version: 6.00 Build 0)  -->
<svg version="1.1" id="Layer_1" xmlns="http://www.w3.org/2000/svg" xmlns:xlink="http://www.w3.org/1999/xlink" x="0px" y="0px"
	 viewBox="0 0 512 512" style="enable-background:new 0 0 512 512;" xml:space="preserve">
<g>
	<path d="M122.2,469.3c0.7-0.9,0.9-2,0.9-3.1c0.1-6.7,0.1-13.4,0.3-20c0.2-5,0-10,0.3-15c0.1-1,0.4-1.5,1.4-1.7
		c11.9-3.3,23.9-6.6,35.8-9.9c6.2-1.7,12.3-3.4,18.5-5.1c0.3-0.1,0.8-0.1,0.9-0.4c0.1-0.5-0.4-0.6-0.7-0.8
		c-9.2-8-18.4-16.1-27.8-23.9c-1.7-1.4-3.5-2.7-5.1-4.4c-2.5-2.6-3.9-5.7-4-9.3c-0.3-9.3,0-18.5,0-27.8c-0.1-33.5,0-67,0-100.6
		c0-14.4,0-28.8,0-43.2c0-4,1.1-7.4,3.8-10.4c10.1-11.6,20.1-23.2,30.2-34.8c7.1-8.2,14-16.5,21.1-24.8c0.1-0.1,0.1-0.1,0.1-0.2
		c3-3.6,5.2-3.8,8.7-0.8c12.1,10.6,24.3,21.2,36.6,31.6c3.7,3.1,7.4,6.3,11.2,9.4c3.1,2.6,4.6,5.8,4.6,9.8c0,12.9,0.1,25.8-0.1,38.8
		c-0.2,18.4,0,36.9-0.2,55.3c0,1.1,0,2.2,0.3,3.3c0.4,1.6,1.4,2.4,3.1,2.5c0.9,0,1.8-0.1,2.7-0.4c5.5-1.6,11.2-2.1,16.9-3
		c1.3-0.2,2.5-0.4,3.8-0.6c2.7-0.4,4.2,0.6,4.7,3.2c0.7,4.1,1.2,8.2,1.9,12.3c1.1,7.1,2.3,14.3,3.5,21.4c0.5,2.9-0.3,4.3-3.1,5.4
		c-7,2.7-14,5.4-20.9,8.1c-11,4.3-22,8.6-32.9,13c-2.6,1-4.8,0.7-6.9-1.1c-8.2-7.2-16.4-14.4-24.9-21.2c-1.7-1.3-2.5-3.2-2.6-5.3
		c0-0.7,0-1.4,0-2c0-29,0-58,0-87c0-0.8,0-1.5-0.1-2.3c-0.4-2.3-1.2-3.1-3.4-3.5c-1.5-0.3-2.9-0.3-4.4,0.1c-2,0.5-2.8,1.5-2.9,3.6
		c0,1.2,0,2.5,0,3.7c0,29.2,0,58.5,0,87.7c0,1.8-0.1,3.7,0.2,5.5c0.4,2,1.3,3.6,2.8,4.9c10.1,8.4,20.1,17,30,25.7c1,0.9,2,1.8,3,2.6
		c2.3,1.9,4.9,2.4,7.7,1.1c5-2.3,10.2-4.1,15.4-6.1c3.1-1.2,6.3-2.3,9.3-3.8c4-1.9,7.5-1.3,10.8,1.5c3.6,3.1,7.3,6.2,10.9,9.2
		c12.1,10.2,24.1,20.4,36.2,30.6c13.1,11.1,26.3,22.1,39.5,33.2c0.6,0.5,0.7,1.1,0.9,1.7c0,16.2,0,32.5,0,48.7
		c-1.3,0-2.6,0.1-3.8,0.1c-25.6,0-51.1,0-76.7,0c-0.6,0-1.2-0.1-1.8,0.2c-51.8,0-103.7,0-155.5,0
		C122.2,470.2,122.2,469.8,122.2,469.3z"/>
	<path d="M275.3,41.8c3,0.4,6,0.8,8.9,1.6c10.3,2.8,18.9,8.3,26.1,16.1c5.2,5.6,9,12,11,19.4c0.7,2.4,1.1,4.9,1.1,7.4
		c0,1.5-0.4,1.8-1.9,1.3c-2.7-0.9-5.3-1.8-8-2.7c-20.5-6.9-40.9-13.9-61.4-20.8c-5.5-1.9-11-3.8-16.6-5.6c-1.5-0.5-1.6-0.6-0.5-1.7
		c7.3-7.7,16.3-12.1,26.5-14.1c2-0.4,4-0.6,6-0.9C269.5,41.8,272.4,41.8,275.3,41.8z"/>
	<path d="M323.1,104.4c-0.3,3.2-1.3,7-2.8,10.6c-7.1,17.1-20.1,27.5-37.8,32c-4.1,1.1-8.3,1.4-12.6,1.6c-1.4,0.1-2.6-0.5-3.9-0.7
		c-2.4-0.4-4.1,0.5-5.4,2.5c-1.2,2-1.6,4.2-2.1,6.5c-0.1,0.7-0.3,1.3-0.5,2c-0.6,1.7-1.7,2.1-3.3,1.2c-0.6-0.3-1.1-0.7-1.5-1.1
		c-14.4-12.5-29-25-43.5-37.4c-0.2-0.2-0.5-0.4-0.7-0.6c-1.7-1.4-2-3.1-1.3-5.2c2.7-7.8,5.2-15.6,7.9-23.4
		c2.2-6.6,4.4-13.2,6.6-19.8c0.1-0.2,0.1-0.4,0.2-0.6c1.3-3.7,3.3-4.8,7-3.7c3.7,1.1,7.4,2.5,11,3.7c14.1,4.9,28.3,9.8,42.4,14.5
		c11.8,4,23.7,7.9,35.5,11.8c0.6,0.2,1.3,0.5,1.9,0.7C322.5,100.2,323.1,101.3,323.1,104.4z"/>
	<path d="M301.1,280.2c0-1.8,0.8-3,3.4-3.5c3.8-0.7,7.6-1.2,11.5-1.8c10.8-1.8,21.7-3.6,32.5-5.4c2.7-0.4,5.4-0.9,8-1.3
		c0.4-0.1,1-0.4,1.2,0c0.3,0.5-0.2,0.9-0.5,1.3c-2.7,4.6-5.4,9.2-8.2,13.9c-3.7,6.3-7.5,12.7-11.2,19c-1,1.7-2.3,2.9-4.2,3.6
		c-8.7,3.4-17.3,6.8-26,10.2c-1.3,0.5-1.4,0.5-1.6-0.9c-1.5-9.5-2.9-19-4.4-28.5C301.6,284.7,301.1,282.9,301.1,280.2z"/>
</g>
</svg>
