<?xml version="1.0" encoding="utf-8"?>
<!-- Generator: Adobe Illustrator 24.0.0, SVG Export Plug-In . SVG Version: 6.00 Build 0)  -->
<svg version="1.1" id="Layer_1" xmlns="http://www.w3.org/2000/svg" xmlns:xlink="http://www.w3.org/1999/xlink" x="0px" y="0px"
	 viewBox="0 0 554.6 204.2" style="enable-background:new 0 0 554.6 204.2;" xml:space="preserve">
<style type="text/css">
	.st0{fill:#C4692C;}
</style>
<g>
	<path class="st0" d="M312.9,84.6c2.4,33.8,3.6,53,3.6,57.8c0,5-0.2,9.6-0.7,13.7c-0.2,2.6-0.5,4.6-0.2,5.5c0.2,0.7,0.5,0.7,1.2-0.5
		c0.5-1,1-2.2,1.9-3.8c3.4-8.6,5-18.7,5-30c0-3.8-1-20.4-3.1-49.9c-2.2-29.8-3.4-44.6-3.4-45.1c0-1.2,0.2-1.7,0.7-1
		c4.3,4.8,6.2,6,6.2,3.8c0-0.5,0-1.7-0.5-2.9c-0.5-1.9-2.2-6.7-5.3-14.6c-2.9-7.4-4.6-12-5.3-13.7c-0.5-0.7-0.7-1.2-1.2-1.2
		c-0.2,0-0.5,0.5-0.7,1.2c-2.9,6.2-4.1,10.3-4.1,12c1.4,3.1,2.2,7,2.2,11.8C309.3,31.8,310.5,50.7,312.9,84.6z"/>
	<path class="st0" d="M274.3,157.3c5.8,0,10.8-3.6,15.1-10.3c5-8.2,7.7-19.2,7.7-33.4c0-5-1-20.2-2.9-45.4
		c-1.9-25.4-2.9-38.4-2.9-38.6c0-1.2,0.2-1.4,0.7-1c4.1,4.8,6.2,6,6.2,3.8c0-0.5-0.2-1.7-0.5-3.1c-0.7-1.7-2.4-6.5-5.3-14.4
		c-2.9-7.4-4.8-12-5.5-13.7c-0.5-1-0.7-1.2-1-1.2c-0.5,0-0.7,0.2-1,1c-2.6,6.5-4.1,10.6-4.1,12.2c1.4,3.1,2.2,7,2.2,11.5
		c0,5.3,1,22.3,3.1,51.1c2.2,28.8,3.4,45.4,3.4,49.4c0,6.7-0.7,10.8-1.9,11.8c-4.3,3.6-8.9,5.5-13.4,5.5l0,0c-7.2,0-12.2-0.2-14.9-1
		c4.1-5.3,6.2-12.7,6.2-22.1c0-3.8-0.7-7.7-1.9-11.3c-1.7-4.6-4.3-7-7.4-7c-3.4,0-7.2,3.4-12,9.6c-5,6.7-7.7,13.7-7.7,20.4
		c0,4.8,0.7,8.6,2.4,11.5c-3.4,1.4-6.7,2.4-10.3,2.4c-3.6,0-6.2-0.7-8.2-1.7c-3.1-2.2-5.5-6.7-6.7-13.4c-0.2-2.4-1-16.3-1.4-41.5
		c-0.7-26.9-1.7-44.9-2.6-54c-1.7-14.4-3.8-24.7-7-30.7c-0.5-1-1-1.7-1.2-1.7c-0.5,0-0.7,0.7-1.2,1.9c-1.9,4.8-2.9,8.2-2.9,10.6
		c2.6,9.1,4.6,18.5,5.8,28.6c0.5,6.2,1.2,23,2.2,50.4c0.7,25.4,1.7,40.6,2.6,45.8c1.4,8.4,4.1,13.9,8.4,17c2.9,2.2,7,3.4,12.2,3.4
		c5.3,0,11.5-2.6,18.5-7.7C252.7,155.6,261.8,157.3,274.3,157.3L274.3,157.3z M249.3,137.8c-1.9-0.7-3.8-1.9-5.5-3.8
		c-1.7-1.7-2.9-3.4-3.4-4.8c1.2-2.6,3.1-5.5,6.2-8.9s5.5-5,7-5c1.2,0,2.6,1.9,4.3,5.8c1.4,3.4,2.2,6.2,2.2,8.2
		C258.2,132.3,254.6,135.2,249.3,137.8z"/>
	<path class="st0" d="M190.3,131.1c1.9,0,3.4-0.7,3.8-2.2l3.6-10.1c0.7-1.4-0.7-2.2-3.6-2.2c-8.4,0-20.2-1-35.3-3.1
		c-13.4-1.9-24.5-3.6-32.9-5.5h-0.6c3.6-2.9,7.1-6.1,10.4-9.8c3.6-3.8,8.4-11.5,14.4-22.6c4.6-8.4,8.2-12.5,10.8-12.7
		c1.4,0.2,3.1,1.4,4.6,4.1c1.7,2.6,2.4,6,2.4,9.6c0,3.1,0.5,4.6,1.4,4.6c0.7,0,1.4-1.2,1.9-3.8c0.7-3.8,1.2-7.7,1.2-11.3
		c0-5.8-1.2-10.1-3.1-13.7c-1.9-2.6-3.6-4.1-5.5-4.1c-2.6,0-6.5,4.3-12,13c-7,11.3-12,18.5-15.4,21.8c-5.8,5.8-11.5,10.3-17.5,14.2
		c-2.9,1.9-7,4.1-12,6.5c-3.4,1.7-5.5,3.1-6.2,4.3c-1.9,4.1-3.1,7.4-3.6,9.6c-0.7,1.4,0.2,2.2,2.6,2.2c1.7,0,8.6,1,20.6,2.4
		c17.5,2.4,27.1,3.8,28.6,4.1c-7.7,3.8-15.6,7.7-23.5,11.3c-11.9,5.2-22.6,7.9-32.4,7.9v-0.2c-4.6,0-8.2-0.7-11-1.9
		c-2.9-1.4-5.5-4.1-8.2-7.7c-1.9-3.1-3.6-6.2-5.5-9.4c-2.2-3.1-4.8-4.8-7.4-4.8c-3.4,0-7.4,1.9-11.5,6.2c-4.3,4.3-7.9,9.4-10.8,15.1
		c-3.4,7.2-6.7,14.4-9.8,21.6c-3.4,6-6.7,9.1-10.6,9.1C8.6,173.6,4,163.3,4,142.9c0-4.3,0.2-9.6,1-15.8c0-0.1,0-0.2,0-0.3
		c2.8-0.4,4.8-4,6-10.8c0.2-0.2,0.2-0.5,0-0.7c0-0.2,0-0.2-0.2,0c0,0-0.2,0.2-0.2,0.5c-1.7,2.9-3.1,4.6-4.6,4.6
		c-2.2,0-3.1-2.2-3.1-6c0-3.1,1.2-8.2,3.6-15.6c0.5-1.7,0.7-2.6,0.7-2.9c-0.2,0-0.7,1-1.7,2.6c-3.8,7-5.5,13.9-5.5,20.4
		c0,4.3,1,6.9,3.1,7.7c-1.9,5.7-2.8,13.6-2.8,23.1c0,7.9,1.4,15.6,4.8,23c3.8,8.4,8.4,12.7,13.7,12.7c3.6,0,7.2-2.4,10.3-7.2
		c2.2-3.4,4.6-8.4,7.2-15.4c2.9-7,4.8-11.3,5.8-13c6.2-9.4,12-13.9,17.5-13.9c1.7,0,3.4,1.2,5.3,4.1c1.9,3.4,3.8,6.7,5.8,9.8
		c3.1,4.8,7,7.9,11.8,9.4c2.1,0.5,5.6,0.9,10.6,1l0,0c0,0,0,0,0.1,0s0.1,0,0.2,0l0,0c7.1,0,15.2-1.9,24.2-5.3c4.8-1.9,13-5.5,24-11
		c10.1-5,18-8.6,23.5-10.3C169.7,131.8,178.1,131.1,190.3,131.1z"/>
	<path class="st0" d="M248.9,74.2c-0.2,0-0.7,0.2-1,0.7l-4.6,9.6c-0.2,0.5-0.2,0.7,0,1c3.8,2.4,7.7,5,11.3,7.9
		c0.5,0.2,0.7,0,1.2-0.7c3.4-5.3,5-8.6,5-10.3c0-0.5-1.9-1.9-5.8-4.6C251.5,75.4,249.3,74.2,248.9,74.2z"/>
	<path class="st0" d="M153.6,34.1c0.5,0.2,1,0,1.2-0.7c1.4-2.2,2.6-4.8,4.1-7.7c4.1,2.6,7.7,5,10.8,7.4c0.5,0.2,1,0.2,1.4-0.5
		c3.1-5.3,4.8-8.9,4.8-10.6c0-0.5-1.9-1.9-5.5-4.3c-3.8-2.6-5.8-3.8-6.2-3.8c-0.5,0-0.7,0.2-1,0.7l-3.8,7.9c-1-1-3.1-2.6-6.2-4.6
		c-3.1-2.2-4.8-3.4-5.3-3.4c-0.2,0-0.7,0.5-1,1l-4.6,9.6c-0.2,0.5-0.2,0.7,0,1C146.1,28.6,150,31.3,153.6,34.1z"/>
	<path class="st0" d="M43.4,89.1l-4.6,9.6c-0.2,0.5-0.2,0.7,0,1c3.8,2.4,7.7,5,11.3,7.9c0.5,0.2,1,0,1.2-0.7
		c1.4-2.2,2.6-4.8,4.1-7.7c4.1,2.6,7.7,5,10.8,7.4c0.5,0.2,1,0.2,1.4-0.5c3.1-5.3,4.8-8.9,4.8-10.6c0-0.5-1.9-1.9-5.5-4.3
		c-3.8-2.6-5.8-3.8-6.2-3.8c-0.5,0-0.7,0.2-1,0.7L55.9,96c-1-1-3.1-2.6-6.2-4.6c-3.1-2.2-4.8-3.4-5.3-3.4
		C44.1,88.1,43.7,88.6,43.4,89.1z"/>
	<path class="st0" d="M243.3,32.5c3.4,0,6-1.7,8.4-4.6c0.7-1,1.2-3.6,1.7-7.7c0.2-3.6-2.2-7.4-7.2-11c0.7-2.4,1.7-4.8,2.6-7
		c0-0.2,0.2-0.5,0.2-0.5c0-0.5-0.5-0.7-1-0.7c-0.7,0-1.7,0.5-2.4,1.7c-3.4,6.5-5.8,13.4-7,21.1c-0.2,1-0.2,1.9-0.2,2.6
		C238.5,30.3,240,32.5,243.3,32.5z M243.6,15.7c5,2.9,7.4,5,7.4,6.2c-0.5,1-1.7,1.9-3.4,2.6c-1.7,1-3.1,1.4-4.3,1.4
		c-1.4,0-2.2-1-2.2-2.4C241.2,21.2,241.9,18.6,243.6,15.7z"/>
	<path class="st0" d="M188.9,147.2c0.5-0.7,0.5-1.2,0.2-1.2c-0.2-0.2-0.5,0-1.4,0.2c-15.1,5.5-29.5,10.8-43.2,15.6
		c-1.2,2.4-1.9,4.6-2.4,6.7c17-7.2,31.9-13,44.9-17.5C187.4,150.6,188.1,149.3,188.9,147.2z"/>
	<path class="st0" d="M123.6,43.3c0.2-0.7,0.2-1.2,0.2-1.2c-0.2-0.2-0.7,0-1.4,0.2C102.2,49.7,83,56.9,64.6,63.7
		c-1.2,2.4-1.9,4.6-2.4,6.7c22.6-9.4,42.5-17,59.3-23.3C121.9,46.6,122.6,45.4,123.6,43.3z"/>
	<path class="st0" d="M289.7,171.9c-2.2,0-4.1,2.2-6,6.5c-1.7,6.2-2.9,11-3.4,14.2c0,0.5-0.2,0.7-0.2,1h-0.2c0-0.2,0-0.5-0.2-1
		c-0.7-5.3-2.4-9.6-4.6-12.7c-2.2-3.4-4.6-4.8-7.4-4.8c-0.2,0-1,0.7-1.9,2.6c-1.2,1.9-1.7,3.1-1.7,3.4c0,0.7,0.5,1.7,1.9,2.9
		c1.4,1.2,2.4,1.9,3.4,1.9c0.7,0,1-0.2,1.2-0.5c0.2-0.5,0.5-0.5,1-0.5c1,0,2.2,2.2,4.1,7c1.9,4.6,2.9,7.7,2.6,9.4
		c0.2,1,0.2,1.7,0.7,1.7s1-0.7,1.7-1.7c0.7-1.7,1.7-4.6,2.4-8.6c1.7-9.1,3.4-13.7,5.3-13.7c1,0,1.9,0.5,2.6,1.4c1,1,1.4,1.7,1.7,1.7
		c0.5,0,1-0.7,1.4-2.2c0.5-1,0.5-1.9,0.5-2.4c0-1-0.5-1.9-1.4-3.4C292.1,172.6,290.9,171.9,289.7,171.9z"/>
	<path class="st0" d="M79.9,181.5c-0.2-0.2-0.5,0-1.4,0.2c-15.1,5.5-29.5,10.8-43.2,15.6c-1.2,2.4-1.9,4.6-2.4,6.7
		c17-7.2,31.9-13,44.9-17.5c0.5-0.5,1.2-1.7,1.9-3.8C80.1,182,80.1,181.5,79.9,181.5z"/>
	<path class="st0" d="M130.3,195.9c-5.8,1.7-10.8,2.6-15.8,2.6s-7.7-1.2-7.7-3.6c0-1,0.5-2.4,1.4-3.8c2.6-2.6,5.3-5.3,7.9-7.9
		c3.6-4.1,5.3-7,5.3-9.1c0-2.9-2.6-4.1-8.4-4.1c-2.6,0-4.6,0.5-5.8,1.4c-1,0.7-1.9,2.4-2.9,4.8c-0.2,0.5-0.2,0.7-0.2,0.7
		c0.2,0.2,0.5,0,0.7,0c1.7-1,3.1-1.2,4.3-1.2c2.4,0,4.8,0.2,6.7,1c1,0.5,1.2,1,0.5,1.4c-2.6,3.1-5.5,6-8.4,9.1
		c-2.9,3.4-4.1,6.7-4.1,10.1c0,1.9,0.7,3.6,2.2,4.8c1.4,1.2,3.6,1.9,5.8,1.9c7.7,0,14.2-2.4,19-6.7c1.2-1,1.7-1.7,1.7-1.7
		C132.5,195.4,131.7,195.4,130.3,195.9z"/>
	<path class="st0" d="M240.9,189.9c0,0-0.2,0.2-0.2,0.5c-1.7,2.9-3.1,4.6-4.6,4.6c-2.2,0-3.1-2.2-3.1-6c0-3.1,1.2-8.2,3.6-15.6
		c0.5-1.7,0.7-2.6,0.7-2.9c-0.2,0-0.7,1-1.7,2.6c-3.8,7-5.5,13.9-5.5,20.4c0,5.3,1.4,7.9,4.6,7.9c3.1,0,5.3-3.6,6.5-10.8
		c0.2-0.2,0.2-0.5,0-0.7C241.2,189.7,241.2,189.7,240.9,189.9z"/>
	<path class="st0" d="M19.9,60.1c1.4,1.2,2.4,1.9,3.4,1.9c0.7,0,1-0.2,1.2-0.5c0.2-0.5,0.5-0.5,1-0.5c1,0,2.2,2.2,4.1,7
		c1.9,4.6,2.9,7.7,2.6,9.4c0.2,1,0.2,1.7,0.7,1.7s1-0.7,1.7-1.7c0.7-1.7,1.7-4.6,2.4-8.6c1.7-9.1,3.4-13.7,5.3-13.7
		c1,0,1.9,0.5,2.6,1.4c1,1,1.4,1.7,1.7,1.7c0.5,0,1-0.7,1.4-2.2c0.5-1,0.5-1.9,0.5-2.4c0-1-0.5-1.9-1.4-3.4c-1-1.4-2.2-2.2-3.4-2.2
		c-2.2,0-4.1,2.2-6,6.5c-1.7,6.2-2.9,11-3.4,14.2c0,0.5-0.2,0.7-0.2,1h-0.2c0-0.2,0-0.5-0.2-1c-0.7-5.3-2.4-9.6-4.6-12.7
		c-2.2-3.4-4.6-4.8-7.4-4.8c-0.2,0-1,0.7-1.9,2.6c-1.2,1.9-1.7,3.1-1.7,3.4C18,57.9,18.5,58.9,19.9,60.1z"/>
	<path class="st0" d="M99.6,41.1c3.1,0,5.3-3.6,6.5-10.8c0.2-0.2,0.2-0.5,0-0.7c0-0.2,0-0.2-0.2,0c0,0-0.2,0.2-0.2,0.5
		c-1.7,2.9-3.1,4.6-4.6,4.6c-2.2,0-3.1-2.2-3.1-6c0-3.1,1.2-8.2,3.6-15.6c0.5-1.7,0.7-2.6,0.7-2.9c-0.2,0-0.7,1-1.7,2.6
		c-3.8,7-5.5,13.9-5.5,20.4C95,38.5,96.5,41.1,99.6,41.1z"/>
	<path class="st0" d="M100.3,89.3v0.2c0.2,0,1-0.5,2.4-1.4c3.4-2.4,6-5.3,8.2-8.4c1.9-3.1,3.1-6,3.1-8.6c0-3.1-1.4-4.8-4.1-4.8
		c-3.4,0-5.3,1.9-6.2,6c-0.2,1-0.2,1.4-0.2,1.4c0,0.2,0.2,0.2,0.2,0.2c0.2,0,0.5-0.2,1.2-0.5c0.7-0.5,1.7-0.7,2.6-0.7
		c1.7,0,2.6,1,2.6,2.6c0,2.2-2.9,6-8.4,12C100.8,88.6,100.3,89.1,100.3,89.3z"/>
	<path class="st0" d="M189.6,93.2c1.9-3.1,3.1-6,3.1-8.6c0-3.1-1.4-4.8-4.1-4.8c-3.4,0-5.3,1.9-6.2,6c-0.2,1-0.2,1.4-0.2,1.4
		c0,0.2,0.2,0.2,0.2,0.2c0.2,0,0.5-0.2,1.2-0.5c0.7-0.5,1.7-0.7,2.6-0.7c1.7,0,2.6,1,2.6,2.6c0,2.2-2.9,6-8.4,12
		c-1,1.2-1.4,1.7-1.4,1.9v0.2c0.2,0,1-0.5,2.4-1.4C184.8,99.2,187.4,96.3,189.6,93.2z"/>
	<path class="st0" d="M197.3,171.7c-2.2,0-4.1,2.2-6,6.5c-1.7,6.2-2.9,11-3.4,14.2c0,0.5-0.2,0.7-0.2,1h-0.2c0-0.2,0-0.5-0.2-1
		c-0.7-5.3-2.4-9.6-4.6-12.7c-2.2-3.4-4.6-4.8-7.4-4.8c-0.2,0-1,0.7-1.9,2.6c-1.2,1.9-1.7,3.1-1.7,3.4c0,0.7,0.5,1.7,1.9,2.9
		c1.4,1.2,2.4,1.9,3.4,1.9c0.7,0,1-0.2,1.2-0.5c0.2-0.5,0.5-0.5,1-0.5c1,0,2.2,2.2,4.1,7c1.9,4.6,2.9,7.7,2.6,9.4
		c0.2,1,0.2,1.7,0.7,1.7s1-0.7,1.7-1.7c0.7-1.7,1.7-4.6,2.4-8.6c1.7-9.1,3.4-13.7,5.3-13.7c1,0,1.9,0.5,2.6,1.4c1,1,1.4,1.7,1.7,1.7
		c0.5,0,1-0.7,1.4-2.2c0.5-1,0.5-1.9,0.5-2.4c0-1-0.5-1.9-1.4-3.4C199.7,172.4,198.5,171.7,197.3,171.7z"/>
	<path class="st0" d="M551.5,108.1c-0.7-1-1.2-1.2-1.7-1.2s-1,0.7-1.2,2.2c-1.4,4.6-2.4,7.9-2.6,9.8c2.2,3.6,3.1,5.5,3.1,5.8
		c-1,1.7-3.1,2.6-6.5,2.6c-2.6,0-5-1-6.7-2.4c-1.9-1.4-2.9-3.1-2.9-4.8c0,0.5,0.7-1.4,1.7-5.5c0.5-2.2,0.2-3.1-0.7-3.1
		c-0.7,0-1.4,0.5-2.4,1.4c-2.4,3.8-5,7.7-7.4,11.8c-3.8,5-8.9,7.7-14.9,7.7c-7.4,0-11.3-2.9-11.3-8.2c0-1.2,0.2-2.6,0.7-4.6
		c0.5-1.9,0.7-3.4,0.7-4.1c0-1-0.2-1.4-0.7-1.4c-0.7,0-1.7,0.5-2.9,1.4c-3.8,3.4-7.7,6.2-11.5,8.2c-1.2,0.7-5.3,2.6-11.5,5.8v-0.3
		c-1,0.5-1.4,0.5-1.7,0.5c-2.4-5-5.3-9.1-8.4-12.7c-3.6-3.6-6.7-5.5-9.8-5.5c-4.1,0-7.9,2.2-11.5,6.2c-3.8,4.8-5.5,10.1-5.5,16.1
		c0,7.9,5.8,12,17.3,12c5.3,0,9.6-0.7,12.5-1.7c0.5,1.7,1,3.4,1,4.8c0,2.2-3.6,6.5-10.3,13.2c-7.7,7.2-15.6,13.2-23.8,18.2
		c-10.3,6.2-19,9.4-26.2,9.4c-8.4,0-14.4-2.6-18.2-7.7c-1.5-2.3-2.6-4.9-3.1-7.7c12.1-7.4,21-14.4,26.6-20.8
		c1.9-2.2,3.4-5.3,4.6-9.4c1-3.6,1.4-6.5,1.4-8.9c0-5-1.4-10.6-4.1-17.3c-1.7-3.8-3.6-7.9-5.3-12c2.9,0.7,4.8,1.2,5.5,1.2
		c0.5,0,0.7-0.2,0.7-0.5c0-0.5-0.7-1.4-2.4-3.1c-4.1-4.1-7.7-7.9-11-11.8c-0.5-0.5-0.7-0.7-1-0.7c-0.5,0-0.7,0.5-1,1.7
		c-0.5,1.2-0.7,3.4-1.2,6.5c-0.5,3.4-0.5,5-0.5,5.5c0.2,0.5,0.7,1.2,1.4,2.6c1,1.2,1.7,2.9,2.2,5c1.2,4.1,3.6,9.8,6.7,16.8
		c2.9,6.2,4.3,9.6,4.3,10.1c0,1.9-2.9,5-8.4,9.4c-4.8,3.5-10.9,7.6-18.4,12c0.7-4.4,2-9.5,3.8-15.6c0.2-1.4,0.5-2.6,0.5-3.4
		c0-0.5,0-0.7-0.2-0.7c-0.5,0-1,1-2.2,3.4c-2.3,6.2-4,12.3-5.1,18.2c-3.3,1.9-6.9,3.9-10.8,6c-9.4,5-21.1,10.6-35.3,16.6
		c-20.4,8.6-31.4,13.4-33.4,14.4c-5.3,2.4-7.9,3.8-7.9,4.1c0,0.2,0,0.2,0.5,0.2c1,0,3.4-0.2,7.2-1c3.6-0.5,12.7-2.6,27.1-6
		c13.7-3.4,20.9-5,21.4-5c2.6,0,11-4.1,25.4-12.5c1.6-0.9,3.1-1.8,4.6-2.7c0.2,7.4,2.1,13.7,5.7,18.5c4.3,6,10.6,9.1,18.7,9.1
		c9.6,0,20.6-5,33.6-14.6c8.6-6.5,16.6-13.9,23.8-22.6c3.1-3.6,5.8-8.2,7.4-13.7c1.4-4.3,2.2-7.7,2.2-10.6l0.5-0.5v0.2
		c8.4-3.8,14.9-7.9,18.7-12.5c0,11,4.8,16.8,14.9,16.8c8.4,0,15.4-4.8,20.6-14.4c3.1,5.8,6.7,8.9,10.6,8.9c5.8,0,10.1-2.6,13-7.9
		c2.6-4.3,4.1-9.4,4.1-15.4C554.6,114.3,553.4,111,551.5,108.1z M451.9,132.3c-5.8,0-8.6-1.4-8.6-4.3c0-2.4,1.9-3.4,6.2-3.4
		c2.9,0,6,2.2,9.6,6.7C456.5,131.8,454.1,132.3,451.9,132.3z"/>
	<path class="st0" d="M360.5,107.3c-4.1-2.9-7.9-6.5-11.8-11.3c-1-1.2-1.4-1.7-1.4-1.9c0-0.2,1.7-0.5,4.8-0.5c1.7,0,2.4-0.2,2.4-0.5
		v-0.2c0,0-0.5-0.7-1.7-1.4c-1.9-1.7-5-3.6-8.9-6.2c-4.1-2.6-6.2-3.8-7-3.8c-0.2,0-0.7,1.2-1.4,4.1c-0.5,2.9-0.7,5.3-0.7,7.4
		c0,1.4,0.5,2.6,1.4,3.6c1.9,1.9,3.1,3.1,3.6,3.8c5,7.2,9.6,13,13.9,17c-5,7.9-8.2,13.9-10.1,18.5c-1.9,5.3-2.9,11-2.9,16.8
		c0,8.6,2.9,13,8.6,13c3.6,0,7.9-1.7,13-5c4.8-2.9,7.9-5.8,9.8-8.6c1-1.4,1.9-3.6,2.6-6.5c1-3.1,1.4-5.5,1.4-7.4
		c0-4.6-0.7-8.6-1.7-11.8c-1.7-4.3-5-9.4-9.8-14.9c4.8-7.2,8.4-12.7,10.8-16.8c3.8-6.5,5.8-11.8,5.8-15.6c0-3.4-0.2-4.8-0.5-4.8
		c-0.5,0-1.2,1.2-2.4,4.1c-1.2,2.9-3.8,7.7-8.4,14.6C364.8,101.1,361.4,105.9,360.5,107.3z M372,138.1c0.2,0.7-0.2,1.7-1.7,3.1
		c-3.4,3.4-7.4,6-11.8,7.9c-3.1,1.2-5.5,1.9-7.4,1.9c-4.3,0-6.2-1.4-6.2-4.3c0-2.2,1.7-6.2,5.5-12.7c3.4-5.8,6-9.8,8.2-12
		C364.8,127.3,369.3,132.8,372,138.1z"/>
	<path class="st0" d="M354,71.8c1.4-2.2,2.6-4.8,4.1-7.7c4.1,2.6,7.7,5,10.8,7.4c0.5,0.2,1,0.2,1.4-0.5c3.1-5.3,4.8-8.9,4.8-10.6
		c0-0.5-1.9-1.9-5.5-4.3c-3.8-2.6-5.8-3.8-6.2-3.8c-0.5,0-0.7,0.2-1,0.7l-3.8,7.9c-1-1-3.1-2.6-6.2-4.6c-3.1-2.2-4.8-3.4-5.3-3.4
		c-0.2,0-0.7,0.5-1,1l-4.6,9.6c-0.2,0.5-0.2,0.7,0,1c3.8,2.4,7.7,5,11.3,7.9C353.3,72.8,353.7,72.6,354,71.8z"/>
	<path class="st0" d="M541.7,158.5c-0.2-0.2-0.7,0.5-1.7,2.2c-0.7,1-1,1.7-0.7,2.2c0.5,1.7,0.7,2.6,0.7,2.6c0,0.2-0.2,0.2-0.7,0.2
		c-3.6,0-5.5-0.2-5-1c0.5-1.4,0.7-2.6,0.7-3.1s0-0.7-0.2-0.7c-0.5,0-1.2,0.5-1.7,1.4c-1,1.4-1.9,2.6-2.6,4.1
		c-1.2,1.4-2.6,2.2-4.6,2.2c-1,0-2.2-0.2-3.4-0.7c-1.4-0.5-2.6-0.7-3.4-0.7c-3.6,0-7,1.2-10.6,3.8c-2.9,1.9-5.5,4.6-7.9,7.4
		c-3.6,4.3-6.5,7.4-8.4,9.4c-4.1,3.1-7,5-8.9,6.2s-2.9,1.9-2.9,1.9v0.2c0.5,0,1.9-0.5,4.6-1.2c2.4-0.7,4.6-1.9,6.7-3.6
		c3.6-3.6,7.2-7.2,10.8-10.8c5-4.8,10.1-7,14.9-7c0.7,0,1.7,0.2,2.9,0.7s2.4,0.7,3.1,0.7c2.9,0,5.8-1.7,8.6-4.6
		c3.6,1.7,6.2,1.9,7.9,1c0.5-0.5,1.2-1.7,1.9-3.8c0.7-1.9,1.2-3.6,1.2-5.3S542.6,159.2,541.7,158.5z"/>
	<path class="st0" d="M444.9,93.2c0.5,0,1-0.7,1.7-1.7c0.7-1.7,1.7-4.6,2.4-8.6c1.7-9.1,3.4-13.7,5.3-13.7c1,0,1.9,0.5,2.6,1.4
		c1,1,1.4,1.7,1.7,1.7c0.5,0,1-0.7,1.4-2.2c0.5-1,0.5-1.9,0.5-2.4c0-1-0.5-1.9-1.4-3.4c-1-1.4-2.2-2.2-3.4-2.2c-2.2,0-4.1,2.2-6,6.5
		c-1.7,6.2-2.9,11-3.4,14.2c0,0.5-0.2,0.7-0.2,1h-0.2c0-0.2,0-0.5-0.2-1c-0.7-5.3-2.4-9.6-4.6-12.7c-2.2-3.4-4.6-4.8-7.4-4.8
		c-0.2,0-1,0.7-1.9,2.6c-1.2,1.9-1.7,3.1-1.7,3.4c0,0.7,0.5,1.7,1.9,2.9c1.4,1.2,2.4,1.9,3.4,1.9c0.7,0,1-0.2,1.2-0.5
		c0.2-0.5,0.5-0.5,1-0.5c1,0,2.2,2.2,4.1,7c1.9,4.6,2.9,7.7,2.6,9.4C444.5,92.5,444.5,93.2,444.9,93.2z"/>
	<path class="st0" d="M467.3,39.2c0.5-0.5,1.2-1.7,2.2-3.8c0.2-0.7,0.2-1.2,0-1.2c0-0.2-0.5,0-1.2,0.2
		c-25.9,9.6-51.1,18.7-75.4,27.8c-1.2,2.4-1.9,4.6-2.4,6.7c2.6-1.7,16.3-7.2,40.6-16.1C454.8,44,467,39.4,467.3,39.2z"/>
	<path class="st0" d="M331.9,48.6c0.2,0,1.2-0.2,2.4-0.7c7.7-2.9,12-4.6,13-5c3.6-1.4,7.7-4.1,12.2-7.2c3.8-2.9,7-6,9.6-9.6
		c2.2,1.2,3.6,2.4,4.1,3.4c2.2-2.9,3.1-5,3.1-6.2c-0.5-1-1.9-2.2-4.3-3.4c1.2-3.4,1.7-6.2,1.7-8.9c0-2.9-0.7-4.6-2.4-5
		c-1.9-0.7-4.3,0.2-7.2,2.9c-2.9,2.4-4.3,5.3-4.3,8.4c0,2.6,2.2,5,6.7,7.4c-3.4,3.6-8.4,7.4-15.4,11.8c-6,3.4-11.8,6.7-17.5,10.3
		c-1.4,0.7-1.9,1.4-1.9,1.7C331.7,48.3,331.7,48.6,331.9,48.6z M363.8,14c0-0.5,0.5-1,1.4-1.4c1-0.5,1.7-0.7,2.2-0.7
		c1.2,0,1.9,0.7,2.2,2.2c0.2,1.4,0.2,2.9-0.2,4.3C365.7,16.6,363.8,15.2,363.8,14z"/>
	<path class="st0" d="M470.4,90.1c0.5,0,1.2-0.2,2.4-0.7c1.2-0.7,6.5-2.6,15.4-6.2c4.8-1.9,9.4-4.3,13.9-7c6.7-4.1,12-8.9,15.8-13.9
		c2.2,1.2,3.1,2.2,3.1,2.6c0,0.2-0.7,2.4-2.2,6.7c-1.4,4.3-1.9,7.7-1.9,10.3c0,5.3,1.4,7.9,4.6,7.9c2.9,0,5-3.6,6.5-10.8
		c0-0.5,0-0.7,0-0.7c0-0.2-0.2-0.2-0.2-0.2c-0.2,0.2-0.2,0.5-0.5,0.7c-1.7,2.9-3.1,4.6-4.3,4.6c-2.2,0-3.1-2.2-3.1-6.2
		c0-3.4,1.2-7.9,3.6-13.7c0.5-1.4,0.7-2.6,0.7-3.4c0-1.4-1-2.9-3.4-4.3c1.2-3.1,1.7-6,1.7-8.6c0-2.9-1-4.6-2.4-5
		c-1.9-0.7-4.3,0.2-7.2,2.6c-2.9,2.6-4.3,5.5-4.3,8.6c0,2.6,2.2,5,6.7,7.4c-3.4,3.6-10.3,8.4-20.4,14.2c-7.7,4.3-15.1,8.6-22.8,13
		c-1.4,1-1.9,1.4-1.9,1.9C470.1,89.8,470.1,90.1,470.4,90.1z M512.6,50.2c0-0.5,0.5-1,1.4-1.4c1-0.5,1.7-0.7,2.2-0.7
		c1.2,0,1.9,0.7,2.2,2.2c0.2,1.4,0.2,2.9-0.2,4.3C514.5,52.9,512.6,51.4,512.6,50.2z"/>
	<path class="st0" d="M405.1,42.8c3.1,0,5.3-3.6,6.5-10.8c0.2-0.2,0.2-0.5,0-0.7c0-0.2,0-0.2-0.2,0c0,0-0.2,0.2-0.2,0.5
		c-1.7,2.9-3.1,4.6-4.6,4.6c-2.2,0-3.1-2.2-3.1-6c0-3.1,1.2-8.2,3.6-15.6c0.5-1.7,0.7-2.6,0.7-2.9c-0.2,0-0.7,1-1.7,2.6
		c-3.8,7-5.5,13.9-5.5,20.4C400.5,40.1,402,42.8,405.1,42.8z"/>
	<path class="st0" d="M270.5,52.1c0.5-0.7,0.5-1.2,0.2-1.2c-0.2-0.2-0.5,0-1.4,0.2c-15.1,5.5-29.5,10.8-43.2,15.6
		c-1.2,2.4-1.9,4.6-2.4,6.7c17-7.2,31.9-13,44.9-17.5C269,55.5,269.7,54.3,270.5,52.1z"/>
</g>
</svg>
