<?xml version="1.0" encoding="utf-8"?>
<!-- Generator: Adobe Illustrator 24.0.0, SVG Export Plug-In . SVG Version: 6.00 Build 0)  -->
<svg version="1.1" id="Layer_1" xmlns="http://www.w3.org/2000/svg" xmlns:xlink="http://www.w3.org/1999/xlink" x="0px" y="0px"
	 viewBox="0 0 639.9 205.7" style="enable-background:new 0 0 639.9 205.7;" xml:space="preserve">
<style type="text/css">
	.st0{fill:#C4692C;}
</style>
<g>
	<path class="st0" d="M395.8,28.8c0-4.8-0.7-8.6-2.2-11.8c0-1.7,1.2-5.8,4.1-12c0.2-0.7,0.5-1.2,0.7-1.2c0.5,0,0.7,0.5,1.2,1.2
		c0.7,1.7,2.4,6.2,5.3,13.7c3.1,7.9,4.8,12.7,5.3,14.6c0.5,1.2,0.5,2.4,0.5,2.9c0,2.2-1.9,1-6.2-3.8c-0.5-0.7-0.7-0.2-0.7,1
		c0,0.5,1.2,15.4,3.4,45.1c2.2,29.5,3.1,46.1,3.1,49.9c0,11.3-1.7,21.4-5,30c-1,1.7-1.4,2.9-1.9,3.8l0,0c-0.7,1.2-1,1.2-1.2,0.5
		c-0.2-1,0-2.9,0.2-5.5c0.5-4.1,0.7-8.6,0.7-13.7c0-4.8-1.2-24-3.6-57.8C397,51.8,395.8,32.9,395.8,28.8L395.8,28.8L395.8,28.8
		L395.8,28.8z"/>
	<path class="st0" d="M385.9,117.6c0,14.2-2.6,25.2-7.7,33.4c-4.3,6.7-9.4,10.3-15.1,10.3v-14.6c4.6,0,9.1-1.9,13.4-5.5
		c1.2-1,1.9-5,1.9-11.8c0-4.1-1.2-20.6-3.4-49.4c-2.2-28.8-3.1-45.8-3.1-51.1c0-4.6-0.7-8.4-2.2-11.5c0-1.7,1.4-5.8,4.1-12.2
		c0.2-0.7,0.5-1,1-1c0.2,0,0.5,0.2,1,1.2c0.7,1.7,2.6,6.2,5.5,13.7c2.9,7.9,4.6,12.7,5.3,14.4c0.2,1.4,0.5,2.6,0.5,3.1
		c0,2.2-2.2,1-6.2-3.8c-0.5-0.5-0.7-0.2-0.7,1c0,0.2,1,13.2,2.9,38.6C385,97.4,385.9,112.5,385.9,117.6L385.9,117.6L385.9,117.6
		L385.9,117.6z"/>
	<path class="st0" d="M346.3,126.2c-2.6-1.9-7.9-2.9-15.4-3.1c-2.6,0.2-5.3,0.2-7.4,0.7c4.8,3.1,8.2,6,10.3,8.4
		C337.7,130.1,342,127.9,346.3,126.2L346.3,126.2L346.3,126.2L346.3,126.2z M330.3,146.6c-9.4,6.2-14.9,9.8-17,10.8
		c-4.6,2.6-9.4,3.8-14.2,3.8v-14.6c6.7,0,14.4-2.6,22.8-7.9c-2.6-2.9-6-5.3-9.8-7.4c-3.4-1.9-6-2.9-7.7-2.9c-3.6,0-6.2,0.5-7.9,1.7
		c-0.7,0.2-1.2,0.5-1.7,0.5s-0.7-0.2-0.7-1c0-0.5,0-1,0.5-1.7l4.3-10.1c0.7-1.9,5-3.6,13-5.5c7.4-1.7,14.6-2.4,21.4-2.4
		c13.2,0,23.8,2.9,31.4,8.6c1.9,1.4,2.9,2.4,2.9,3.1c0,0.2-0.2,1.2-0.7,2.2l-4.6,8.4c-4.6,1.7-10.8,4.3-19,7.7
		c4.6,4.6,11.3,6.7,19.7,6.7v14.6c-6.5,0-11.5-0.7-15.1-2.4C343.5,157.2,337.7,153.1,330.3,146.6L330.3,146.6L330.3,146.6
		L330.3,146.6z"/>
	<path class="st0" d="M284.2,131.5c1.2,6.7,3.6,11.3,6.7,13.4c1.9,1,4.6,1.7,8.2,1.7v14.6c-5.3,0-9.4-1.2-12.2-3.4
		c-4.3-3.1-7-8.6-8.4-17c-1-5.3-1.9-20.4-2.6-45.8c-1-27.4-1.7-44.2-2.2-50.4c-1.2-10.1-3.1-19.4-5.8-28.6c0-2.4,1-5.8,2.9-10.6
		c0.5-1.2,0.7-1.9,1.2-1.9c0.2,0,0.7,0.7,1.2,1.7c3.1,6,5.3,16.3,7,30.7c1,9.1,1.9,27.1,2.6,54C283.2,115.2,283.9,129.1,284.2,131.5
		L284.2,131.5L284.2,131.5L284.2,131.5z"/>
	<path class="st0" d="M202.1,205.4c-10.1,0-15.1-6.7-15.1-20.2c0-10.3,2.2-20.6,6.2-31.2c1-2.4,1.7-3.6,2.2-3.6
		c0.2,0,0.2,0.2,0.2,0.7c0,0.7-0.2,1.9-0.7,3.4c-2.9,10.6-4.3,18.5-4.3,24c0,4.1,1.2,7.2,3.6,9.4c2.2,1.9,4.6,2.9,7.7,2.9
		c6.5,0,19-6,37.4-18c16.8-10.8,26.4-17.5,29-20.2c1-1,1.7-1.9,1.7-2.9c0-1.2-1.4-2.9-3.8-4.8c-3.1-2.4-8.2-5.3-15.4-8.6
		c-7.4-3.4-13.2-6.5-17-9.1c-6.5-4.3-12.2-10.1-17.3-16.8c-0.7-0.7-1.9-1.9-3.8-3.1c-1.2-0.5-1.9-1.9-1.9-4.3v-8.9
		c0-0.7,0.2-1.2,0.5-1.7c0.2-0.2,1,0,2.2,0.5l15.1,7.4c0.7,0.2,1.2,0.5,1.7,0.7l0,0c2.4,1.4,3.4,2.4,2.9,3.1c-1,1-3.6,1.2-8.6,1
		c5.8,5.5,13,10.3,22.1,14.6c11,5.3,17.5,8.4,19.7,10.1c4.8,3.4,7.2,9.1,7.2,17.3c0,1.7-0.2,3.4-0.5,5c-0.7,4.6-1.7,7.7-2.6,9.6
		c-0.7,1.4-2.2,3.1-4.6,5.3c-4.6,4.1-13.9,10.8-28.3,20.4C219.4,199.4,207.6,205.4,202.1,205.4L202.1,205.4L202.1,205.4L202.1,205.4
		z"/>
	<path class="st0" d="M212.7,132.2c0-8.4-3.4-16.3-9.8-23.5c-1.2-1.4-2.2-2.2-2.6-2.2c-0.5,0-1.2,1-1.9,2.6c0,0.5-0.7,3.1-1.9,8.4
		c-0.5,1.7,0,3.4,1,4.8c6.2,7.4,9.1,12.2,9.1,14.4c-2.4,2.2-9.6,5-21.4,8.6c-14.9,4.8-28.8,7.2-41.3,7.2c-14.9,0-24.5-1-29-3.1V164
		c5.5,2.2,14.9,3.1,28.6,3.1c10.8,0,22.8-2.2,36-6.5c8.9-2.9,17.3-6.2,24.5-10.3c2.2-1,4.1-3.1,5.8-6.5
		C211.7,140.4,212.7,136.3,212.7,132.2L212.7,132.2L212.7,132.2L212.7,132.2z"/>
	<path class="st0" d="M102.7,140.9c3.8,3.6,7.7,6.5,12,8.6v14.6c-5.8-2.4-10.1-4.8-13.2-7c-4.3-3.4-7.7-7.4-10.1-12.7
		c-2.6-5.8-4.6-20.6-5.3-44.6c-1.2-32.4-1.9-50.2-2.4-53.8c-1.2-11.8-3.1-20.4-5.5-26.2c0-2.2,1-6,3.4-11.5c0.5-1.2,1-1.9,1.2-1.9
		s0.7,0.7,1.2,1.7c2.9,5.5,5,15.4,6.5,29.3c0.7,5,1.2,15.6,1.7,31.2c0.2,10.1,0.5,20.2,1,30C94.1,121.4,97.2,135.6,102.7,140.9
		L102.7,140.9L102.7,140.9L102.7,140.9z"/>
	<path class="st0" d="M46.1,132.9c15.8,0,33.6-3.4,54-9.6c16.3-5.3,26.9-9.6,31.7-13.2c0.5-0.2,0.5-0.7,0.5-1.4
		c0-1.9-2.9-7-9.1-14.6c-1.2-1.4-1.7-3.1-1.2-4.8c0.7-3.4,1.7-6.2,2.9-8.6c0.7-1.7,1.4-2.6,1.9-2.6c0.2,0,1.2,0.7,2.4,2.2
		c1.7,1.7,3.4,4.3,5,8.2c2.6,4.6,3.8,8.6,3.8,12c0,11.3-3.6,19.7-11,24.7c-4.8,3.6-15.6,7.9-32.2,13c-20.9,6.5-38.9,9.6-54.7,9.6
		c-15.4,0-26.2-4.1-33.1-12.2c-4.8-5.5-7-12.7-7-21.4c0-9.1,2.2-17.5,6.5-25.4C7.9,86.4,8.9,85,9.4,85c0,0,0.2,0.2,0.2,0.7
		c0,0.7-0.5,2.2-1.2,4.3c-1,2.9-2.2,5.5-3.1,8.4c-1.2,3.6-1.7,7.4-1.7,11.5c0,5.3,2.4,9.8,7.7,13.9
		C18.7,129.8,30.3,132.9,46.1,132.9L46.1,132.9L46.1,132.9L46.1,132.9z"/>
	<path class="st0" d="M61.7,80.4l3.8-7.9c0.2-0.5,0.5-0.7,1-0.7s2.4,1.2,6.2,3.8c3.6,2.4,5.5,3.8,5.5,4.3c0,1.7-1.7,5.3-4.8,10.6
		c-0.5,0.7-1,0.7-1.4,0.5c-3.1-2.4-6.7-4.8-10.8-7.4c-1.4,2.9-2.6,5.5-4.1,7.7c-0.2,0.7-0.7,1-1.2,0.7c-3.6-2.9-7.4-5.5-11.3-7.9
		c-0.2-0.2-0.2-0.5,0-1l4.6-9.6c0.2-0.5,0.7-1,1-1c0.5,0,2.2,1.2,5.3,3.4C58.6,77.7,60.7,79.4,61.7,80.4L61.7,80.4L61.7,80.4
		L61.7,80.4z"/>
	<path class="st0" d="M152.7,189.6l3.8-7.9c0.2-0.5,0.5-0.7,1-0.7s2.4,1.2,6.2,3.8c3.6,2.4,5.5,3.8,5.5,4.3c0,1.7-1.7,5.3-4.8,10.6
		c-0.5,0.7-1,0.7-1.4,0.5c-3.1-2.4-6.7-4.8-10.8-7.4c-1.4,2.9-2.6,5.5-4.1,7.7c-0.2,0.7-0.7,1-1.2,0.7c-3.6-2.9-7.4-5.5-11.3-7.9
		c-0.2-0.2-0.2-0.5,0-1l4.6-9.6c0.2-0.5,0.7-1,1-1c0.5,0,2.2,1.2,5.3,3.4C149.5,186.9,151.7,188.6,152.7,189.6L152.7,189.6
		L152.7,189.6L152.7,189.6z"/>
	<path class="st0" d="M347.5,22.8c0-1.2-2.4-3.4-7.4-6.2c-1.7,2.9-2.4,5.5-2.4,7.9c0,1.4,0.7,2.4,2.2,2.4c1.2,0,2.6-0.5,4.3-1.4
		C345.9,24.7,347.1,23.7,347.5,22.8L347.5,22.8L347.5,22.8L347.5,22.8z M342.3,3.6c0.7-1.2,1.7-1.7,2.4-1.7c0.5,0,1,0.2,1,0.7
		c0,0-0.2,0.2-0.2,0.5c-1,2.2-1.9,4.6-2.6,7c5,3.6,7.4,7.4,7.2,11c-0.5,4.1-1,6.7-1.7,7.7c-2.4,2.9-5,4.6-8.4,4.6s-4.8-2.2-4.8-6
		c0-0.7,0-1.7,0.2-2.6C336.5,17,338.9,10.1,342.3,3.6L342.3,3.6L342.3,3.6L342.3,3.6z"/>
	<path class="st0" d="M300.7,84c18.5-6.7,37.7-13.9,57.8-21.4c0.7-0.2,1.2-0.5,1.4-0.2c0,0,0,0.5-0.2,1.2c-1,2.2-1.7,3.4-2.2,3.8
		c-16.8,6.2-36.7,13.9-59.3,23.3C298.8,88.5,299.5,86.4,300.7,84L300.7,84L300.7,84L300.7,84z"/>
	<path class="st0" d="M304.8,51.1c0.5-3.4,1.7-7.2,3.6-12c1.4-3.6,2.2-7.2,2.2-10.8c0-7-3.4-13.4-9.8-19.9c-0.5-0.5-0.5-1,0-1.4
		l2.2-3.8c0.2-0.5,0.5-0.5,1,0c6.2,5,9.6,12.5,9.6,22.3c0,4.6-1.2,9.6-3.1,14.6c-2.2,5.3-3.1,8.9-3.1,10.8c0,4.1,1,6.2,3.1,6.2
		c1.4,0,2.9-1.7,4.6-4.6c0-0.2,0.2-0.5,0.2-0.5c0.2-0.2,0.2-0.2,0.2,0c0,0,0,0.5,0,0.7c-1.2,7.2-3.4,10.8-6.5,10.8
		c-2.9,0-4.6-3.1-4.6-8.9C304.3,53.5,304.6,52.3,304.8,51.1L304.8,51.1L304.8,51.1L304.8,51.1z"/>
	<path class="st0" d="M246,198.9c9.6-3.4,19.9-7.2,31-11c1-0.2,1.2-0.5,1.4-0.2c0.2,0,0.2,0.5-0.2,1.2c-0.7,2.2-1.4,3.4-1.9,3.8
		c-9.6,3.4-20.4,7.4-32.6,13C244.1,203.5,244.8,201.3,246,198.9L246,198.9L246,198.9L246,198.9z"/>
	<path class="st0" d="M112.1,51.3c40.6-15.4,81.8-30.7,124.1-46.6c0.7-0.2,1.2-0.5,1.2-0.2c0.2,0,0.2,0.5,0,1.2
		c-1,2.2-1.7,3.4-2.2,3.8C196.6,23.9,154.6,40,109.7,58C110.2,55.9,110.9,53.7,112.1,51.3L112.1,51.3L112.1,51.3L112.1,51.3z"/>
	<path class="st0" d="M44.2,168c9.6-3.4,19.9-7.2,31-11c1-0.2,1.2-0.5,1.4-0.2c0.2,0,0.2,0.5-0.2,1.2c-0.7,2.2-1.4,3.4-1.9,3.8
		c-9.6,3.4-20.4,7.4-32.6,13C42.3,172.5,43,170.4,44.2,168L44.2,168L44.2,168L44.2,168z"/>
	<path class="st0" d="M18,78.5c0-0.2,0.2-0.5,0.2-0.5c0.2-0.2,0.2-0.2,0.2,0c0.2,0.2,0.2,0.5,0,0.7c-1.2,7.2-3.4,10.8-6.5,10.8
		s-4.6-2.6-4.6-7.9c0-6.5,1.7-13.4,5.5-20.4c1-1.7,1.4-2.6,1.7-2.6l0,0c0,0.2-0.2,1.2-0.7,2.9c-2.4,7.4-3.6,12.5-3.6,15.6
		c0,3.8,1,6,3.1,6C14.9,83,16.3,81.3,18,78.5L18,78.5L18,78.5L18,78.5z"/>
	<path class="st0" d="M123.9,19.9c0-0.2,0.2-0.5,0.2-0.5c0.2-0.2,0.2-0.2,0.2,0c0.2,0.2,0.2,0.5,0,0.7c-1.2,7.2-3.4,10.8-6.5,10.8
		s-4.6-2.6-4.6-7.9c0-6.5,1.7-13.4,5.5-20.4c1-1.7,1.4-2.6,1.7-2.6l0,0c0,0.2-0.2,1.2-0.7,2.9c-2.4,7.4-3.6,12.5-3.6,15.6
		c0,3.8,1,6,3.1,6C120.7,24.5,122.2,22.8,123.9,19.9L123.9,19.9L123.9,19.9L123.9,19.9z"/>
	<path class="st0" d="M58.1,31.4c0,2.6-1.2,5.5-3.1,8.6c-2.2,3.1-4.8,6-8.2,8.4c-1.4,1-2.2,1.4-2.4,1.4v-0.2c0-0.2,0.5-0.7,1.4-1.9
		c5.5-6,8.4-9.8,8.4-12c0-1.7-1-2.6-2.6-2.6c-1,0-1.9,0.2-2.6,0.7c-0.7,0.2-1,0.5-1.2,0.5c0,0-0.2,0-0.2-0.2c0,0,0-0.5,0.2-1.4
		c1-4.1,2.9-6,6.2-6C56.7,26.6,58.1,28.3,58.1,31.4L58.1,31.4L58.1,31.4L58.1,31.4z"/>
	<path class="st0" d="M241.5,59.3c4.8,0,9.8-1,15.6-2.6c1.4-0.5,2.2-0.5,2.2-0.2c0,0.2-0.5,0.7-1.7,1.7c-4.8,4.3-11.3,6.7-19,6.7
		c-2.2,0-4.3-0.7-5.8-1.9c-1.4-1.2-2.2-2.9-2.2-4.8c0-5,2.2-10.3,6.5-15.8c-3.8-1.2-5.8-3.1-5.8-6c0-2.6,1.4-5.5,4.6-8.9
		c3.1-3.4,5.5-5,7.4-5c0.5,0,1,0.2,1.4,1.2c0.5,0.7,0.7,1.4,0.7,2.4c0,0.5-0.5,1.4-1.4,2.9c-1,1.4-1.7,1.9-1.7,1.7
		c-0.5-1.4-1.2-2.2-2.6-2.2c-0.7,0-1.4,0.5-2.4,1.7c-1.2,1.2-1.7,2.2-1.7,2.9c1.2,1.9,3.4,3.1,6.2,3.1c1,0,2.6-1,4.6-2.9
		c1.4-1,2.6-2.2,3.8-3.4c0.5-0.2,0.7,0,0.7,1c0,2.4-1,4.6-2.4,7c-6.5,4.3-11.3,9.4-14.4,14.9c-0.5,1.2-0.7,2.2-0.7,2.9
		C233.5,57.8,236.2,59.3,241.5,59.3L241.5,59.3L241.5,59.3L241.5,59.3z"/>
	<path class="st0" d="M310.8,175.2c2.9,0,5.3,1.4,7.4,4.8c2.2,3.1,3.8,7.4,4.6,12.7c0.2,0.5,0.2,0.7,0.2,1h0.2c0-0.2,0.2-0.5,0.2-1
		c0.5-3.1,1.7-7.9,3.4-14.2c1.9-4.3,3.8-6.5,6-6.5c1.2,0,2.4,0.7,3.4,2.2c1,1.4,1.4,2.4,1.4,3.4c0,0.5,0,1.4-0.5,2.4
		c-0.5,1.4-1,2.2-1.4,2.2c-0.2,0-0.7-0.7-1.7-1.7c-0.7-1-1.7-1.4-2.6-1.4c-1.9,0-3.6,4.6-5.3,13.7c-0.7,4.1-1.7,7-2.4,8.6
		c-0.7,1-1.2,1.7-1.7,1.7s-0.5-0.7-0.7-1.7c0.2-1.7-0.7-4.8-2.6-9.4c-1.9-4.8-3.1-7-4.1-7c-0.5,0-0.7,0-1,0.5
		c-0.2,0.2-0.5,0.5-1.2,0.5c-1,0-1.9-0.7-3.4-1.9c-1.4-1.2-1.9-2.2-1.9-2.9c0-0.2,0.5-1.4,1.7-3.4
		C309.9,175.9,310.6,175.2,310.8,175.2L310.8,175.2L310.8,175.2L310.8,175.2z"/>
	<path class="st0" d="M376.3,181.2c0,2.6-1.2,5.5-3.1,8.6c-2.2,3.1-4.8,6-8.2,8.4c-1.4,1-2.2,1.4-2.4,1.4v-0.2
		c0-0.2,0.5-0.7,1.4-1.9c5.5-6,8.4-9.8,8.4-12c0-1.7-1-2.6-2.6-2.6c-1,0-1.9,0.2-2.6,0.7c-0.7,0.2-1,0.5-1.2,0.5c0,0-0.2,0-0.2-0.2
		c0,0,0-0.5,0.2-1.4c1-4.1,2.9-6,6.2-6C374.9,176.4,376.3,178.1,376.3,181.2L376.3,181.2L376.3,181.2L376.3,181.2z"/>
	<path class="st0" d="M195.4,80.4c0,0.5-0.2,1.4-0.7,2.4c-0.2,1.4-0.7,2.2-1.4,2.2c-0.2,0-0.7-0.7-1.7-1.7c-0.7-1-1.7-1.4-2.4-1.4
		c-1.9,0-3.8,4.6-5.5,13.7c-0.7,4.1-1.4,7-2.4,8.6c-0.7,1-1.2,1.7-1.7,1.7c-0.2,0-0.5-0.7-0.5-1.7c0-1.7-1-4.8-2.9-9.4
		c-1.9-4.8-3.1-7-3.8-7c-0.7,0-1,0-1.2,0.5c0,0.2-0.5,0.5-1.2,0.5c-1,0-1.9-0.7-3.4-1.9c-1.2-1.2-1.9-2.2-1.9-2.9
		c0-0.2,0.5-1.4,1.7-3.4c1.2-1.9,1.9-2.6,2.2-2.6c2.6,0,5,1.4,7.2,4.8c2.4,3.4,3.8,7.4,4.8,12.7c0,0.5,0,0.7,0,1
		c0.2,0.2,0.2,0.2,0.2,0s0.2-0.5,0.5-1c0.2-3.1,1.4-7.9,3.1-14.2c1.9-4.3,3.8-6.5,6-6.5c1.2,0,2.4,0.7,3.6,2.2
		C194.9,78.5,195.4,79.4,195.4,80.4L195.4,80.4L195.4,80.4L195.4,80.4z M179.5,108c-1.7,3.8-5,7.7-10.1,11.3
		c-4.6,3.4-8.6,5.8-12.2,7.4c-0.7,0.5-5,2.2-13,5c-1.2,0.5-1.9,0.7-2.4,0.7c-0.2,0-0.2-0.2-0.2-0.2c0-0.2,0.7-1,1.9-1.7
		c6.5-3.8,15.6-9.4,27.6-17.3c2.9-2.2,5-4.3,6.7-6.2c1.9-2.2,2.9-3.4,3.1-3.4c0,0,0,0,0,0.2C181,104.1,180.5,105.6,179.5,108
		L179.5,108L179.5,108L179.5,108z"/>
	<path class="st0" d="M209.5,39.8c0,2.6-1.2,5.5-3.1,8.6c-2.2,3.1-4.8,6-8.2,8.4c-1.4,1-2.2,1.4-2.4,1.4V58c0-0.2,0.5-0.7,1.4-1.9
		c5.5-6,8.4-9.8,8.4-12c0-1.7-1-2.6-2.6-2.6c-1,0-1.9,0.2-2.6,0.7c-0.7,0.2-1,0.5-1.2,0.5c0,0-0.2,0-0.2-0.2c0,0,0-0.5,0.2-1.4
		c1-4.1,2.9-6,6.2-6C208.1,35,209.5,36.7,209.5,39.8L209.5,39.8L209.5,39.8L209.5,39.8z"/>
	<path class="st0" d="M232.1,149.3c0,2.6-1.2,5.5-3.1,8.6c-2.2,3.1-4.8,6-8.2,8.4c-1.4,1-2.2,1.4-2.4,1.4v-0.2
		c0-0.2,0.5-0.7,1.4-1.9c5.5-6,8.4-9.8,8.4-12c0-1.7-1-2.6-2.6-2.6c-1,0-1.9,0.2-2.6,0.7c-0.7,0.2-1,0.5-1.2,0.5c0,0-0.2,0-0.2-0.2
		c0,0,0-0.5,0.2-1.4c1-4.1,2.9-6,6.2-6C230.7,144.5,232.1,146.1,232.1,149.3L232.1,149.3L232.1,149.3L232.1,149.3z"/>
	<path class="st0" d="M175.9,5.3c0,2.6-1.2,5.5-3.1,8.6c-2.2,3.1-4.8,6-8.2,8.4c-1.4,1-2.2,1.4-2.4,1.4v-0.2c0-0.2,0.5-0.7,1.4-1.9
		c5.5-6,8.4-9.8,8.4-12c0-1.7-1-2.6-2.6-2.6c-1,0-1.9,0.2-2.6,0.7c-0.7,0.2-1,0.5-1.2,0.5c0,0-0.2,0-0.2-0.2c0,0,0-0.5,0.2-1.4
		c1-4.1,2.9-6,6.2-6C174.5,0.5,175.9,2.1,175.9,5.3L175.9,5.3L175.9,5.3L175.9,5.3z"/>
	<path class="st0" d="M85.2,171.8c2.9,0,5.3,1.4,7.4,4.8c2.2,3.1,3.8,7.4,4.6,12.7c0.2,0.5,0.2,0.7,0.2,1h0.2c0-0.2,0.2-0.5,0.2-1
		c0.5-3.1,1.7-7.9,3.4-14.2c1.9-4.3,3.8-6.5,6-6.5c1.2,0,2.4,0.7,3.4,2.2c1,1.4,1.4,2.4,1.4,3.4c0,0.5,0,1.4-0.5,2.4
		c-0.5,1.4-1,2.2-1.4,2.2c-0.2,0-0.7-0.7-1.7-1.7c-0.7-1-1.7-1.4-2.6-1.4c-1.9,0-3.6,4.6-5.3,13.7c-0.7,4.1-1.7,7-2.4,8.6
		c-0.7,1-1.2,1.7-1.7,1.7s-0.5-0.7-0.7-1.7c0.2-1.7-0.7-4.8-2.6-9.4c-1.9-4.8-3.1-7-4.1-7c-0.5,0-0.7,0-1,0.5
		c-0.2,0.2-0.5,0.5-1.2,0.5c-1,0-1.9-0.7-3.4-1.9c-1.4-1.2-1.9-2.2-1.9-2.9c0-0.2,0.5-1.4,1.7-3.4C84.3,172.5,85,171.8,85.2,171.8
		L85.2,171.8L85.2,171.8L85.2,171.8z"/>
	<path class="st0" d="M161.5,56.9c0,2.6-1.2,5.5-3.1,8.6c-2.2,3.1-4.8,6-8.2,8.4c-1.4,1-2.2,1.4-2.4,1.4v-0.2c0-0.2,0.5-0.7,1.4-1.9
		c5.5-6,8.4-9.8,8.4-12c0-1.7-1-2.6-2.6-2.6c-1,0-1.9,0.2-2.6,0.7c-0.7,0.2-1,0.5-1.2,0.5c0,0-0.2,0-0.2-0.2c0,0,0-0.5,0.2-1.4
		c1-4.1,2.9-6,6.2-6C160.1,52.1,161.5,53.7,161.5,56.9L161.5,56.9L161.5,56.9L161.5,56.9z"/>
	<path class="st0" d="M261.4,89.3c0,2.6-1.2,5.5-3.1,8.6c-2.2,3.1-4.8,6-8.2,8.4c-1.4,1-2.2,1.4-2.4,1.4v-0.2c0-0.2,0.5-0.7,1.4-1.9
		c5.5-6,8.4-9.8,8.4-12c0-1.7-1-2.6-2.6-2.6c-1,0-1.9,0.2-2.6,0.7c-0.7,0.2-1,0.5-1.2,0.5c0,0-0.2,0-0.2-0.2c0,0,0-0.5,0.2-1.4
		c1-4.1,2.9-6,6.2-6C259.9,84.5,261.4,86.1,261.4,89.3L261.4,89.3L261.4,89.3L261.4,89.3z"/>
	<path class="st0" d="M581.1,114.2c1.2-1,2.2-1.4,2.9-1.4c0.5,0,0.7,0.5,0.7,1.4c0,0.7-0.2,2.2-0.7,4.1s-0.7,3.4-0.7,4.6
		c0,5.3,3.8,8.2,11.3,8.2c6,0,11-2.6,14.9-7.7c2.4-4.1,5-7.9,7.4-11.8c1-1,1.7-1.4,2.4-1.4c1,0,1.2,1,0.7,3.1c-1,4.1-1.7,6-1.7,5.5
		c0,1.7,1,3.4,2.9,4.8c1.7,1.4,4.1,2.4,6.7,2.4c3.4,0,5.5-1,6.5-2.6c0-0.2-1-2.2-3.1-5.8c0.2-1.9,1.2-5.3,2.6-9.8
		c0.2-1.4,0.7-2.2,1.2-2.2s1,0.2,1.7,1.2c1.9,2.9,3.1,6.2,3.1,10.1c0,6-1.4,11-4.1,15.4c-2.9,5.3-7.2,7.9-13,7.9
		c-3.8,0-7.4-3.1-10.6-8.9c-5.3,9.6-12.2,14.4-20.6,14.4c-10.1,0-14.9-5.8-14.9-16.8c-3.8,4.6-10.3,8.6-18.7,12.5v-13.2
		c6.2-3.1,10.3-5,11.5-5.8C573.4,120.5,577.2,117.6,581.1,114.2L581.1,114.2L581.1,114.2L581.1,114.2z"/>
	<path class="st0" d="M544.3,130.1c-3.6-4.6-6.7-6.7-9.6-6.7c-4.3,0-6.2,1-6.2,3.4c0,2.9,2.9,4.3,8.6,4.3
		C539.3,131,541.7,130.5,544.3,130.1L544.3,130.1L544.3,130.1L544.3,130.1z M551.8,147.6c0-1.4-0.5-3.1-1-4.8
		c-2.9,1-7.2,1.7-12.5,1.7c-11.5,0-17.3-4.1-17.3-12c0-6,1.7-11.3,5.5-16.1c3.6-4.1,7.4-6.2,11.5-6.2c3.1,0,6.2,1.9,9.8,5.5
		c3.1,3.6,6,7.7,8.4,12.7c0.2,0,0.7,0,1.7-0.5v13.2l-0.5,0.5c0,2.9-0.7,6.2-2.2,10.6c-1.7,5.5-4.3,10.1-7.4,13.7
		c-7.2,8.6-15.1,16.1-23.8,22.6c-13,9.6-24,14.6-33.6,14.6c-8.2,0-14.4-3.1-18.7-9.1c-3.8-5-5.8-11.8-5.8-19.7
		c0-10.1,2.2-20.4,6.2-31.2c1.2-2.4,1.7-3.4,2.2-3.4c0.2,0,0.2,0.2,0.2,0.7c0,0.7-0.2,1.9-0.5,3.4c-3.1,10.6-4.6,18.5-4.6,24
		c0,5,1.2,9.4,3.6,13c3.8,5,9.8,7.7,18.2,7.7c7.2,0,15.8-3.1,26.2-9.4c8.2-5,16.1-11,23.8-18.2C548.2,154.1,551.8,149.7,551.8,147.6
		L551.8,147.6L551.8,147.6L551.8,147.6z"/>
	<path class="st0" d="M486.3,111.3c-0.5-2.2-1.2-3.8-2.2-5c-0.7-1.4-1.2-2.2-1.4-2.6c0-0.5,0-2.2,0.5-5.5c0.5-3.1,0.7-5.3,1.2-6.5
		c0.2-1.2,0.5-1.7,1-1.7c0.2,0,0.5,0.2,1,0.7c3.4,3.8,7,7.7,11,11.8c1.7,1.7,2.4,2.6,2.4,3.1c0,0.2-0.2,0.5-0.7,0.5
		c-0.7,0-2.6-0.5-5.5-1.2c1.7,4.1,3.6,8.2,5.3,12c2.6,6.7,4.1,12.2,4.1,17.3c0,2.4-0.5,5.3-1.4,8.9c-1.2,4.1-2.6,7.2-4.6,9.4
		c-7,7.9-18.7,16.6-35.3,25.9c-14.4,8.4-22.8,12.5-25.4,12.5c-0.5,0-7.7,1.7-21.4,5c-14.4,3.4-23.5,5.5-27.1,6c-3.8,0.7-6.2,1-7.2,1
		c-0.5,0-0.5,0-0.5-0.2s2.6-1.7,7.9-4.1c1.9-1,13-5.8,33.4-14.4c14.2-6,25.9-11.5,35.3-16.6c14.2-7.7,25-14.4,32.4-19.9
		c5.5-4.3,8.4-7.4,8.4-9.4c0-0.5-1.4-3.8-4.3-10.1C489.9,121.2,487.5,115.4,486.3,111.3L486.3,111.3L486.3,111.3L486.3,111.3z"/>
	<path class="st0" d="M466.6,78c0,3.8-1.9,9.1-5.8,15.6c-2.4,4.1-6,9.6-10.8,16.8c4.8,5.5,8.2,10.6,9.8,14.9c1,3.1,1.7,7.2,1.7,11.8
		c0,1.9-0.5,4.3-1.4,7.4c-0.7,2.9-1.7,5-2.6,6.5c-1.9,2.9-5,5.8-9.8,8.6c-5,3.4-9.4,5-13,5c-5.8,0-8.6-4.3-8.6-13
		c0-5.8,1-11.5,2.9-16.8c1.9-4.6,5-10.6,10.1-18.5c-4.3-4.1-8.9-9.8-13.9-17c-0.5-0.7-1.7-1.9-3.6-3.8c-1-1-1.4-2.2-1.4-3.6
		c0-2.2,0.2-4.6,0.7-7.4c0.7-2.9,1.2-4.1,1.4-4.1c0.7,0,2.9,1.2,7,3.8c3.8,2.6,7,4.6,8.9,6.2c1.2,0.7,1.7,1.4,1.7,1.4V92
		c0,0.2-0.7,0.5-2.4,0.5c-3.1,0-4.8,0.2-4.8,0.5c0,0.2,0.5,0.7,1.4,1.9c3.8,4.8,7.7,8.4,11.8,11.3c1-1.4,4.3-6.2,9.6-14.4
		c4.6-7,7.2-11.8,8.4-14.6c1.2-2.9,1.9-4.1,2.4-4.1C466.3,73.2,466.6,74.6,466.6,78L466.6,78L466.6,78L466.6,78z M457.2,137
		c-2.6-5.3-7.2-10.8-13.4-16.1c-2.2,2.2-4.8,6.2-8.2,12c-3.8,6.5-5.5,10.6-5.5,12.7c0,2.9,1.9,4.3,6.2,4.3c1.9,0,4.3-0.7,7.4-1.9
		c4.3-1.9,8.4-4.6,11.8-7.9C457,138.7,457.5,137.7,457.2,137L457.2,137L457.2,137L457.2,137z"/>
	<path class="st0" d="M443.8,60l3.8-7.9c0.2-0.5,0.5-0.7,1-0.7s2.4,1.2,6.2,3.8c3.6,2.4,5.5,3.8,5.5,4.3c0,1.7-1.7,5.3-4.8,10.6
		c-0.5,0.7-1,0.7-1.4,0.5c-3.1-2.4-6.7-4.8-10.8-7.4c-1.4,2.9-2.6,5.5-4.1,7.7c-0.2,0.7-0.7,1-1.2,0.7c-3.6-2.9-7.4-5.5-11.3-7.9
		c-0.2-0.2-0.2-0.5,0-1l4.6-9.6c0.2-0.5,0.7-1,1-1c0.5,0,2.2,1.2,5.3,3.4C440.7,57.3,442.8,59,443.8,60L443.8,60L443.8,60L443.8,60z
		"/>
	<path class="st0" d="M570.3,193.9c-2.6,0.7-4.1,1.2-4.6,1.2v-0.2c0,0,1-0.7,2.9-1.9c1.9-1.2,4.8-3.1,8.9-6.2c1.9-1.9,4.8-5,8.4-9.4
		c2.4-2.9,5-5.5,7.9-7.4c3.6-2.6,7-3.8,10.6-3.8c0.7,0,1.9,0.2,3.4,0.7c1.2,0.5,2.4,0.7,3.4,0.7c1.9,0,3.4-0.7,4.6-2.2
		c0.7-1.4,1.7-2.6,2.6-4.1c0.5-1,1.2-1.4,1.7-1.4c0.2,0,0.2,0.2,0.2,0.7s-0.2,1.7-0.7,3.1c-0.5,0.7,1.4,1,5,1c0.5,0,0.7,0,0.7-0.2
		c0,0-0.2-1-0.7-2.6c-0.2-0.5,0-1.2,0.7-2.2c1-1.7,1.4-2.4,1.7-2.2c1,0.7,1.4,2.2,1.4,3.8c0,1.7-0.5,3.4-1.2,5.3
		c-0.7,2.2-1.4,3.4-1.9,3.8c-1.7,1-4.3,0.7-7.9-1c-2.9,2.9-5.8,4.6-8.6,4.6c-0.7,0-1.9-0.2-3.1-0.7c-1.2-0.5-2.2-0.7-2.9-0.7
		c-4.8,0-9.8,2.2-14.9,7c-3.6,3.6-7.2,7.2-10.8,10.8C574.8,192,572.7,193.2,570.3,193.9L570.3,193.9L570.3,193.9L570.3,193.9z"/>
	<path class="st0" d="M518.9,64.1c2.9,0,5.3,1.4,7.4,4.8c2.2,3.1,3.8,7.4,4.6,12.7c0.2,0.5,0.2,0.7,0.2,1h0.2c0-0.2,0.2-0.5,0.2-1
		c0.5-3.1,1.7-7.9,3.4-14.2c1.9-4.3,3.8-6.5,6-6.5c1.2,0,2.4,0.7,3.4,2.2s1.4,2.4,1.4,3.4c0,0.5,0,1.4-0.5,2.4
		c-0.5,1.4-1,2.2-1.4,2.2c-0.2,0-0.7-0.7-1.7-1.7c-0.7-1-1.7-1.4-2.6-1.4c-1.9,0-3.6,4.6-5.3,13.7c-0.7,4.1-1.7,7-2.4,8.6
		c-0.7,1-1.2,1.7-1.7,1.7s-0.5-0.7-0.7-1.7c0.2-1.7-0.7-4.8-2.6-9.4c-1.9-4.8-3.1-7-4.1-7c-0.5,0-0.7,0-1,0.5
		c-0.2,0.2-0.5,0.5-1.2,0.5c-1,0-1.9-0.7-3.4-1.9c-1.4-1.2-1.9-2.2-1.9-2.9c0-0.2,0.5-1.4,1.7-3.4C517.9,64.8,518.7,64.1,518.9,64.1
		L518.9,64.1L518.9,64.1L518.9,64.1z"/>
	<path class="st0" d="M478.1,61.2c24.2-9.1,49.4-18.2,75.4-27.8c0.7-0.2,1.2-0.5,1.2-0.2c0.2,0,0.2,0.5,0,1.2
		c-1,2.2-1.7,3.4-2.2,3.8c-0.2,0.2-12.5,4.8-36.2,13.7c-24.2,8.9-37.9,14.4-40.6,16.1C476.2,65.7,476.9,63.6,478.1,61.2L478.1,61.2
		L478.1,61.2L478.1,61.2z"/>
	<path class="st0" d="M454.6,17.3c0.5-1.4,0.5-2.9,0.2-4.3c-0.2-1.4-1-2.2-2.2-2.2c-0.5,0-1.2,0.2-2.2,0.7s-1.4,1-1.4,1.4
		C449.1,14.1,451,15.6,454.6,17.3L454.6,17.3L454.6,17.3L454.6,17.3z M451.7,23.5c-4.6-2.4-6.7-4.8-6.7-7.4c0-3.1,1.4-6,4.3-8.4
		c2.9-2.6,5.3-3.6,7.2-2.9c1.7,0.5,2.4,2.2,2.4,5c0,2.6-0.5,5.5-1.7,8.9c2.4,1.2,3.8,2.4,4.3,3.4c0,1.2-1,3.4-3.1,6.2
		c-0.5-1-1.9-2.2-4.1-3.4c-2.6,3.6-5.8,6.7-9.6,9.6c-4.6,3.1-8.6,5.8-12.2,7.2c-1,0.5-5.3,2.2-13,5c-1.2,0.5-2.2,0.7-2.4,0.7
		c-0.2,0-0.2-0.2-0.2-0.2c0-0.2,0.5-1,1.9-1.7c5.8-3.6,11.5-7,17.5-10.3C443.3,30.9,448.3,27.1,451.7,23.5L451.7,23.5L451.7,23.5
		L451.7,23.5z"/>
	<path class="st0" d="M603.4,53.5c0.5-1.4,0.5-2.9,0.2-4.3c-0.2-1.4-1-2.2-2.2-2.2c-0.5,0-1.2,0.2-2.2,0.7s-1.4,1-1.4,1.4
		C597.9,50.4,599.8,51.8,603.4,53.5L603.4,53.5L603.4,53.5L603.4,53.5z M608.7,62.4c-2.4,5.8-3.6,10.3-3.6,13.7c0,4.1,1,6.2,3.1,6.2
		c1.2,0,2.6-1.7,4.3-4.6c0.2-0.2,0.2-0.5,0.5-0.7c0,0,0.2,0,0.2,0.2c0,0,0,0.2,0,0.7c-1.4,7.2-3.6,10.8-6.5,10.8
		c-3.1,0-4.6-2.6-4.6-7.9c0-2.6,0.5-6,1.9-10.3s2.2-6.5,2.2-6.7c0-0.5-1-1.4-3.1-2.6c-3.8,5-9.1,9.8-15.8,13.9
		c-4.6,2.6-9.1,5-13.9,7c-8.9,3.6-14.2,5.5-15.4,6.2c-1.2,0.5-1.9,0.7-2.4,0.7c-0.2,0-0.2-0.2-0.2-0.2c0-0.5,0.5-1,1.9-1.9
		c7.7-4.3,15.1-8.6,22.8-13c10.1-5.8,17-10.6,20.4-14.2c-4.6-2.4-6.7-4.8-6.7-7.4c0-3.1,1.4-6,4.3-8.6c2.9-2.4,5.3-3.4,7.2-2.6
		c1.4,0.5,2.4,2.2,2.4,5c0,2.6-0.5,5.5-1.7,8.6c2.4,1.4,3.4,2.9,3.4,4.3C609.4,59.7,609.1,60.9,608.7,62.4L608.7,62.4L608.7,62.4
		L608.7,62.4z"/>
	<path class="st0" d="M499.5,27.3c0-0.2,0.2-0.5,0.2-0.5c0.2-0.2,0.2-0.2,0.2,0c0.2,0.2,0.2,0.5,0,0.7c-1.2,7.2-3.4,10.8-6.5,10.8
		s-4.6-2.6-4.6-7.9c0-6.5,1.7-13.4,5.5-20.4c1-1.7,1.4-2.6,1.7-2.6l0,0c0,0.2-0.2,1.2-0.7,2.9c-2.4,7.4-3.6,12.5-3.6,15.6
		c0,3.8,1,6,3.1,6C496.3,31.9,497.8,30.2,499.5,27.3L499.5,27.3L499.5,27.3L499.5,27.3z"/>
</g>
</svg>
