<?xml version="1.0" encoding="utf-8"?>
<!-- Generator: Adobe Illustrator 24.0.0, SVG Export Plug-In . SVG Version: 6.00 Build 0)  -->
<svg version="1.1" id="Layer_1" xmlns="http://www.w3.org/2000/svg" xmlns:xlink="http://www.w3.org/1999/xlink" x="0px" y="0px"
	 viewBox="0 0 594.2 204.4" style="enable-background:new 0 0 594.2 204.4;" xml:space="preserve">
<style type="text/css">
	.st0{fill:#C4692C;}
</style>
<g>
	<path class="st0" d="M349.8,25.1c0-4.8-0.7-8.6-2.2-11.8c0-1.7,1.2-5.8,4.1-12c0.2-0.7,0.5-1.2,0.7-1.2c0.5,0,0.7,0.5,1.2,1.2
		c0.7,1.7,2.4,6.2,5.3,13.7c3.1,7.9,4.8,12.7,5.3,14.6c0.5,1.2,0.5,2.4,0.5,2.9c0,2.2-1.9,1-6.2-3.8c-0.5-0.7-0.7-0.2-0.7,1
		c0,0.5,1.2,15.4,3.4,45.1c2.2,29.5,3.1,46.1,3.1,49.9c0,11.3-1.7,21.4-5,30c-1,1.7-1.4,2.9-1.9,3.8l0,0c-0.7,1.2-1,1.2-1.2,0.5
		c-0.2-1,0-2.9,0.2-5.5c0.5-4.1,0.7-8.6,0.7-13.7c0-4.8-1.2-24-3.6-57.8C351,48.1,349.8,29.2,349.8,25.1L349.8,25.1L349.8,25.1
		L349.8,25.1z"/>
	<path class="st0" d="M342.9,113.4c0,14.2-2.6,25.2-7.7,33.4c-4.3,6.7-9.4,10.3-15.1,10.3v-14.6c4.6,0,9.1-1.9,13.4-5.5
		c1.2-1,1.9-5,1.9-11.8c0-4.1-1.2-20.6-3.4-49.4c-2.2-28.8-3.1-45.8-3.1-51.1c0-4.6-0.7-8.4-2.2-11.5c0-1.7,1.4-5.8,4.1-12.2
		c0.2-0.7,0.5-1,1-1c0.2,0,0.5,0.2,1,1.2c0.7,1.7,2.6,6.2,5.5,13.7c2.9,7.9,4.6,12.7,5.3,14.4c0.2,1.4,0.5,2.6,0.5,3.1
		c0,2.2-2.2,1-6.2-3.8c-0.5-0.5-0.7-0.2-0.7,1c0,0.2,1,13.2,2.9,38.6C341.9,93.2,342.9,108.4,342.9,113.4L342.9,113.4L342.9,113.4
		L342.9,113.4z"/>
	<path class="st0" d="M320.1,156.8c0.7,2.2,1.2,5,1.2,8.2c0,3.8-0.7,7.2-1.9,10.1c-0.7,1.4-1.2,2.4-1.9,2.4c-1,0-2.2-0.7-4.1-1.7
		c-5.8-3.4-9.8-7.4-12-12.2c-1.2-2.6-2.2-7.2-2.6-13c-0.2-1-0.2-1.7-0.5-1.7c-0.5,0-1,0.7-1.4,1.7c-2.4,2.6-4.8,5.5-7.2,8.6
		c-4.3,3.8-9.1,6-14.6,6v-14.9c7,0,12.5-1.7,17-5c1-0.7,3.4-3.4,7-7.4c1.4-1.9,2.6-2.6,3.6-2.6c0.5,0,1.2,0.2,2.2,1
		c2.9,2.4,4.8,3.8,5.8,4.3c2.4,1.2,5.5,1.7,9.6,1.7v14.5H320.1L320.1,156.8z"/>
	<path class="st0" d="M260.1,135.5c1.2,6.7,3.6,11.3,6.7,13.4c1.9,1,4.6,1.7,8.2,1.7v14.6c-5.3,0-9.4-1.2-12.2-3.4
		c-4.3-3.1-7-8.6-8.4-17c-1-5.3-1.9-20.4-2.6-45.8c-1-27.4-1.7-44.2-2.2-50.4c-1.2-10.1-3.1-19.4-5.8-28.6c0-2.4,1-5.8,2.9-10.6
		c0.5-1.2,0.7-1.9,1.2-1.9c0.2,0,0.7,0.7,1.2,1.7c3.1,6,5.3,16.3,7,30.7c1,9.1,1.9,27.1,2.6,54C259.1,119.2,259.8,133.1,260.1,135.5
		L260.1,135.5L260.1,135.5L260.1,135.5z"/>
	<path class="st0" d="M244,97.1c1.4-0.5,2.4-0.7,2.6-0.2c0.5,0.2,0.5,1.2-0.2,2.4l-5,8.9c-0.7,1-1.4,1.7-2.6,2.2
		c-22.8,10.1-47.5,20.9-73.9,32.4v-13.2c1-0.5,7.4-3.1,19.7-7.9c-6-3.1-10.8-7.4-14.9-12.5c-5-6.7-7.4-14.2-7.4-22.3
		s2.9-14.9,8.6-20.2c6.5-6,14.6-8.9,23.8-8.9c5.8,0,11.8,1,18,3.4c4.8,1.9,8.6,4.1,11.8,6.2c2.4,2.2,3.6,3.4,3.6,3.8
		c0,0-0.2,0-0.5,0c-0.5,0-1.7-0.2-3.1-0.7c-5-1.4-10.8-1.9-17.3-1.9c-8.9,0-17.5,1.2-25.9,3.6c-7.9,2.4-12.2,4.8-12.7,7.2
		c0.7,6.5,4.6,13,10.8,19.7c7.7,7.9,16.1,12,25,12c3.8,0,9.1-1.4,16.1-3.8C228.2,103.8,236.1,100.4,244,97.1L244,97.1L244,97.1
		L244,97.1z"/>
	<path class="st0" d="M150.9,131.4c-3.6-4.6-6.7-6.7-9.6-6.7c-4.3,0-6.2,1-6.2,3.4c0,2.9,2.9,4.3,8.6,4.3
		C145.8,132.4,148.2,131.9,150.9,131.4L150.9,131.4L150.9,131.4L150.9,131.4z M158.3,148.9c0-1.4-0.5-3.1-1-4.8
		c-2.9,1-7.2,1.7-12.5,1.7c-11.5,0-17.3-4.1-17.3-12c0-6,1.7-11.3,5.5-16.1c3.6-4.1,7.4-6.2,11.5-6.2c3.1,0,6.2,1.9,9.8,5.5
		c3.1,3.6,6,7.7,8.4,12.7c0.2,0,0.7,0,1.7-0.5v13.2l-0.5,0.5c0,2.9-0.7,6.2-2.2,10.6c-1.7,5.5-4.3,10.1-7.4,13.7
		c-7.2,8.6-15.1,16.1-23.8,22.6c-13,9.6-24,14.6-33.6,14.6c-8.2,0-14.4-3.1-18.7-9.1c-3.8-5-5.8-11.8-5.8-19.7
		c0-10.1,2.2-20.4,6.2-31.2c1.2-2.4,1.7-3.4,2.2-3.4c0.2,0,0.2,0.2,0.2,0.7c0,0.7-0.2,1.9-0.5,3.4c-3.1,10.6-4.6,18.5-4.6,24
		c0,5,1.2,9.4,3.6,13c3.8,5,9.8,7.7,18.2,7.7c7.2,0,15.8-3.1,26.2-9.4c8.2-5,16.1-11,23.8-18.2C154.7,155.4,158.3,151.1,158.3,148.9
		L158.3,148.9L158.3,148.9L158.3,148.9z"/>
	<path class="st0" d="M119,97.1c0,9.1-2.2,16.1-6.2,20.9c-6.5,7.4-16.1,14.6-28.6,21.8C68.4,148.4,53.7,153,39.8,153
		c-18.2,0-31-9.1-37.9-27.1C0.5,122.3,0,118,0,112.5c0-3.6,0.2-7.2,0.7-11c1-5.5,2.2-10.3,3.6-14.4C5,85.9,5.5,85.2,6,85.2
		s0.5,1,0.2,2.6c-0.7,2.4-1.2,5-1.7,7.4c-1,4.6-1.4,7.9-1.4,10.1c0,7.4,2.4,14.2,7.4,20.6c6.7,8.2,16.6,12.5,29.3,12.5
		c11.3,0,23.3-2.6,35.8-7.9c10.3-4.3,19.4-9.6,27.6-15.8c7.2-5.8,11-9.8,11-12.2c0-0.5-1.7-3.6-4.8-9.6c-3.6-7-6.2-13.9-7.9-20.6
		c-0.7-2.2-1.7-3.6-2.4-4.3c-1-1-1.4-1.7-1.4-2.6c0-0.7,0.7-4.3,1.9-10.8c0.2-1.2,0.5-1.7,1-1.7s1,0.2,1.4,0.7
		c1.9,2.2,6,6.2,12,12.2c1,1,1.4,1.7,1.4,2.4s-0.5,1-1.7,1s-3.1-0.5-5.8-1.2c0.2,0.7,2.4,5,6.2,13C117.3,87,119,92.5,119,97.1
		L119,97.1L119,97.1L119,97.1z"/>
	<path class="st0" d="M40.2,57.2c-0.2-0.2-0.2-0.5,0-1l4.6-9.6c0.2-0.5,0.7-0.7,1-0.7c0.5,0,2.6,1.2,6.2,3.6
		c3.8,2.6,5.8,4.1,5.8,4.6c0,1.7-1.7,5-5,10.3c-0.5,0.7-0.7,1-1.2,0.7C47.9,62.3,44.1,59.6,40.2,57.2L40.2,57.2L40.2,57.2L40.2,57.2
		z"/>
	<path class="st0" d="M266.3,124.4c18.5-6.7,37.7-13.9,57.8-21.4c0.7-0.2,1.2-0.5,1.4-0.2c0,0,0,0.5-0.2,1.2c-1,2.2-1.7,3.4-2.2,3.8
		c-16.8,6.2-36.7,13.9-59.3,23.3C264.4,129,265.1,126.8,266.3,124.4L266.3,124.4L266.3,124.4L266.3,124.4z"/>
	<path class="st0" d="M298.7,21.7c0-1.2-2.4-3.4-7.4-6.2c-1.7,2.9-2.4,5.5-2.4,7.9c0,1.4,0.7,2.4,2.2,2.4c1.2,0,2.6-0.5,4.3-1.4
		C297,23.6,298.2,22.7,298.7,21.7L298.7,21.7L298.7,21.7L298.7,21.7z M293.4,2.5c0.7-1.2,1.7-1.7,2.4-1.7c0.5,0,1,0.2,1,0.7
		c0,0-0.2,0.2-0.2,0.5c-1,2.2-1.9,4.6-2.6,7c5,3.6,7.4,7.4,7.2,11c-0.5,4.1-1,6.7-1.7,7.7c-2.4,2.9-5,4.6-8.4,4.6
		c-3.4,0-4.8-2.2-4.8-6c0-0.7,0-1.7,0.2-2.6C287.7,16,290.1,9,293.4,2.5L293.4,2.5L293.4,2.5L293.4,2.5z"/>
	<path class="st0" d="M293.4,46.7c1.7,0,3.6,1,6.2,3.1c2.6,1.9,4.1,3.8,4.3,5.3c0.2,0.5-0.2,1.4-1,3.1c-0.7,1.7-1.2,2.4-1.4,2.4
		c-2.4,0.7-4.8,1.4-7.2,2.2c-3.1,1-5,2.2-6.2,3.4c3.4,10.1,5,19.9,5,29.8c0,2.9-0.5,5.8-1,8.9c-0.2,1-0.5,1.4-0.7,1.7
		c-0.2,0-0.2-1.9-0.2-5.3c0-5.5-1-12.5-2.6-20.4c-1.7-7.9-2.4-12.7-2.4-13.7c0-4.1,1-7,3.4-8.9c1-0.7,3.1-1.7,6-2.6
		c-1.2-1.2-2.4-1.7-3.6-1.7c-0.5,0-1.2,0.5-2.2,1.7c-1,1.4-1.7,1.9-1.7,1.9c-0.2,0-0.5-0.5-0.2-1.4
		C288.6,49.8,290.6,46.7,293.4,46.7L293.4,46.7L293.4,46.7L293.4,46.7z"/>
	<path class="st0" d="M221.4,15.7c0.5-1.4,0.5-2.9,0.2-4.3c-0.2-1.4-1-2.2-2.2-2.2c-0.5,0-1.2,0.2-2.2,0.7s-1.4,1-1.4,1.4
		C215.9,12.6,217.8,14,221.4,15.7L221.4,15.7L221.4,15.7L221.4,15.7z M226.7,24.6c-2.4,5.8-3.6,10.3-3.6,13.7c0,4.1,1,6.2,3.1,6.2
		c1.4,0,2.9-1.7,4.3-4.6c0.2-0.2,0.2-0.5,0.5-0.7c0.2,0,0.2,0,0.2,0.2c0,0,0,0.2,0,0.7c-1.2,7.2-3.4,10.8-6.5,10.8s-4.6-2.6-4.6-7.9
		c0-2.6,0.7-6,1.9-10.3c1.4-4.3,2.2-6.5,2.2-6.7c0-0.5-1-1.4-3.1-2.6c-2.6,3.6-5.8,6.7-9.6,9.6c-4.6,3.4-8.6,5.8-12.2,7.4
		c-1,0.2-5.3,1.9-13,4.8c-1.2,0.5-2.2,0.7-2.4,0.7c-0.2,0-0.2,0-0.2-0.2s0.5-0.7,1.9-1.7c5.8-3.4,11.5-7,17.5-10.3
		c7-4.3,12-8.2,15.4-11.8c-4.6-2.4-6.7-4.8-6.7-7.4c0-3.1,1.4-6,4.3-8.6c2.9-2.4,5.3-3.4,7.2-2.6c1.7,0.5,2.4,2.2,2.4,5
		c0,2.6-0.5,5.5-1.7,8.6c2.4,1.4,3.6,2.9,3.6,4.3C227.7,22,227.2,23.2,226.7,24.6L226.7,24.6L226.7,24.6L226.7,24.6z"/>
	<path class="st0" d="M184,197.2c4.8,0,9.8-1,15.6-2.6c1.4-0.5,2.2-0.5,2.2-0.2c0,0.2-0.5,0.7-1.7,1.7c-4.8,4.3-11.3,6.7-19,6.7
		c-2.2,0-4.3-0.7-5.8-1.9c-1.4-1.2-2.2-2.9-2.2-4.8c0-5,2.2-10.3,6.5-15.8c-3.8-1.2-5.8-3.1-5.8-6c0-2.6,1.4-5.5,4.6-8.9
		c3.1-3.4,5.5-5,7.4-5c0.5,0,1,0.2,1.4,1.2c0.5,0.7,0.7,1.4,0.7,2.4c0,0.5-0.5,1.4-1.4,2.9c-1,1.4-1.7,1.9-1.7,1.7
		c-0.5-1.4-1.2-2.2-2.6-2.2c-0.7,0-1.4,0.5-2.4,1.7c-1.2,1.2-1.7,2.2-1.7,2.9c1.2,1.9,3.4,3.1,6.2,3.1c1,0,2.6-1,4.6-2.9
		c1.4-1,2.6-2.2,3.8-3.4c0.5-0.2,0.7,0,0.7,1c0,2.4-1,4.6-2.4,7c-6.5,4.3-11.3,9.4-14.4,14.9c-0.5,1.2-0.7,2.2-0.7,2.9
		C176.1,195.7,178.7,197.2,184,197.2L184,197.2L184,197.2L184,197.2z"/>
	<path class="st0" d="M177,24.8c0-0.2,0.2-0.5,0.2-0.5c0.2-0.2,0.2-0.2,0.2,0c0.2,0.2,0.2,0.5,0,0.7c-1.2,7.2-3.4,10.8-6.5,10.8
		s-4.6-2.6-4.6-7.9c0-6.5,1.7-13.4,5.5-20.4c1-1.7,1.4-2.6,1.7-2.6l0,0c0,0.2-0.2,1.2-0.7,2.9c-2.4,7.4-3.6,12.5-3.6,15.6
		c0,3.8,1,6,3.1,6C173.9,29.4,175.4,27.7,177,24.8L177,24.8L177,24.8L177,24.8z"/>
	<path class="st0" d="M13.6,77.2c0-0.2,0.2-0.5,0.2-0.5c0.2-0.2,0.2-0.2,0.2,0c0.2,0.2,0.2,0.5,0,0.7c-1.2,7.2-3.4,10.8-6.5,10.8
		s-4.6-2.6-4.6-7.9c0-6.5,1.7-13.4,5.5-20.4c1-1.7,1.4-2.6,1.7-2.6l0,0c0,0.2-0.2,1.2-0.7,2.9C7,67.6,5.8,72.7,5.8,75.8
		c0,3.8,1,6,3.1,6C10.5,81.7,11.9,80,13.6,77.2L13.6,77.2L13.6,77.2L13.6,77.2z"/>
	<path class="st0" d="M90.9,159.7c9.6-3.4,19.9-7.2,31-11c1-0.2,1.2-0.5,1.4-0.2c0.2,0,0.2,0.5-0.2,1.2c-0.7,2.2-1.4,3.4-1.9,3.8
		c-9.6,3.4-20.4,7.4-32.6,13C89,164.3,89.7,162.1,90.9,159.7L90.9,159.7L90.9,159.7L90.9,159.7z"/>
	<path class="st0" d="M231.8,188c0.5-3.4,1.7-7.2,3.6-12c1.4-3.6,2.2-7.2,2.2-10.8c0-7-3.4-13.4-9.8-19.9c-0.5-0.5-0.5-1,0-1.4
		l2.2-3.8c0.2-0.5,0.5-0.5,1,0c6.2,5,9.6,12.5,9.6,22.3c0,4.6-1.2,9.6-3.1,14.6c-2.2,5.3-3.1,8.9-3.1,10.8c0,4.1,1,6.2,3.1,6.2
		c1.4,0,2.9-1.7,4.6-4.6c0-0.2,0.2-0.5,0.2-0.5c0.2-0.2,0.2-0.2,0.2,0c0,0,0,0.5,0,0.7c-1.2,7.2-3.4,10.8-6.5,10.8
		c-2.9,0-4.6-3.1-4.6-8.9C231.3,190.4,231.5,189.2,231.8,188L231.8,188L231.8,188L231.8,188z"/>
	<path class="st0" d="M290.6,182.5c0,2.6-1.2,5.5-3.1,8.6c-2.2,3.1-4.8,6-8.2,8.4c-1.4,1-2.2,1.4-2.4,1.4v-0.2
		c0-0.2,0.5-0.7,1.4-1.9c5.5-6,8.4-9.8,8.4-12c0-1.7-1-2.6-2.6-2.6c-1,0-1.9,0.2-2.6,0.7c-0.7,0.2-1,0.5-1.2,0.5c0,0-0.2,0-0.2-0.2
		c0,0,0-0.5,0.2-1.4c1-4.1,2.9-6,6.2-6C289.1,177.7,290.6,179.4,290.6,182.5L290.6,182.5L290.6,182.5L290.6,182.5z"/>
	<path class="st0" d="M43.4,86.8c2.9,0,5.3,1.4,7.4,4.8c2.2,3.1,3.8,7.4,4.6,12.7c0.2,0.5,0.2,0.7,0.2,1h0.2c0-0.2,0.2-0.5,0.2-1
		c0.5-3.1,1.7-7.9,3.4-14.2c1.9-4.3,3.8-6.5,6-6.5c1.2,0,2.4,0.7,3.4,2.2c1,1.4,1.4,2.4,1.4,3.4c0,0.5,0,1.4-0.5,2.4
		c-0.5,1.4-1,2.2-1.4,2.2c-0.2,0-0.7-0.7-1.7-1.7c-0.7-1-1.7-1.4-2.6-1.4c-1.9,0-3.6,4.6-5.3,13.7c-0.7,4.1-1.7,7-2.4,8.6
		c-0.7,1-1.2,1.7-1.7,1.7s-0.5-0.7-0.7-1.7c0.2-1.7-0.7-4.8-2.6-9.4c-1.9-4.8-3.1-7-4.1-7c-0.5,0-0.7,0-1,0.5
		c-0.2,0.2-0.5,0.5-1.2,0.5c-1,0-1.9-0.7-3.4-1.9c-1.4-1.2-1.9-2.2-1.9-2.9c0-0.2,0.5-1.4,1.7-3.4C42.4,87.5,43.1,86.8,43.4,86.8
		L43.4,86.8L43.4,86.8L43.4,86.8z"/>
	<path class="st0" d="M142.2,17.2c0,0.5-0.2,1.4-0.5,2.4c-0.5,1.4-1,2.2-1.7,2.2c-0.2,0-0.7-0.7-1.7-1.7c-0.7-1-1.7-1.4-2.4-1.4
		c-1.9,0-3.8,4.6-5.5,13.7c-0.7,4.1-1.4,6.7-2.4,8.4c-0.7,1.2-1.2,1.7-1.7,1.7c-0.2,0-0.5-0.5-0.5-1.4c0-1.7-1-4.8-2.9-9.4
		c-1.7-4.8-3.1-7-3.8-7c-0.5,0-1,0-1,0.5c-0.2,0.2-0.7,0.5-1.4,0.5c-1,0-2.2-0.7-3.6-1.9c-1.4-1.4-1.9-2.4-1.7-2.9
		c2.2-4.1,3.4-6,3.8-6c2.6,0,5.3,1.4,7.4,4.8c2.2,3.1,3.6,7.4,4.6,12.5c0,0.7,0,1,0,1c0.2,0.2,0.2,0.2,0.2,0c0,0,0.2-0.2,0.5-1
		c0.5-2.9,1.4-7.7,3.1-13.9c1.9-4.3,3.8-6.5,6.2-6.5c1,0,2.2,0.7,3.4,2.2C141.8,15.2,142.2,16.2,142.2,17.2L142.2,17.2L142.2,17.2
		L142.2,17.2z M111.5,20.8c0.5-1,1-1.4,1.2-1.4c0,0,0.2,0.2,0,0.2c0.2,0.7-0.5,2.4-1.9,5c-2.4,4.6-5.8,8.2-10.1,11.3
		c-4.6,3.4-8.6,5.8-12.2,7.4c-0.7,0.5-5,2.2-13,5c-1.2,0.5-1.9,0.7-2.4,0.7c-0.2,0-0.2-0.2-0.2-0.2c0-0.2,0.7-1,1.9-1.7
		c6.7-3.6,15.8-9.4,27.6-17.3C107.2,26.3,110.1,23.2,111.5,20.8L111.5,20.8L111.5,20.8L111.5,20.8z"/>
	<path class="st0" d="M151.1,50c0,2.6-1.2,5.5-3.1,8.6c-2.2,3.1-4.8,6-8.2,8.4c-1.4,1-2.2,1.4-2.4,1.4v-0.2c0-0.2,0.5-0.7,1.4-1.9
		c5.5-6,8.4-9.8,8.4-12c0-1.7-1-2.6-2.6-2.6c-1,0-1.9,0.2-2.6,0.7c-0.7,0.2-1,0.5-1.2,0.5c0,0-0.2,0-0.2-0.2c0,0,0-0.5,0.2-1.4
		c1-4.1,2.9-6,6.2-6C149.7,45.2,151.1,46.9,151.1,50L151.1,50L151.1,50L151.1,50z"/>
	<path class="st0" d="M347,168.8c0,2.6-1.2,5.5-3.1,8.6c-2.2,3.1-4.8,6-8.2,8.4c-1.4,1-2.2,1.4-2.4,1.4V187c0-0.2,0.5-0.7,1.4-1.9
		c5.5-6,8.4-9.8,8.4-12c0-1.7-1-2.6-2.6-2.6c-1,0-1.9,0.2-2.6,0.7c-0.7,0.2-1,0.5-1.2,0.5c0,0-0.2,0-0.2-0.2c0,0,0-0.5,0.2-1.4
		c1-4.1,2.9-6,6.2-6C345.5,164,347,165.7,347,168.8L347,168.8L347,168.8L347,168.8z"/>
	<path class="st0" d="M535.4,110.5c1.2-1,2.2-1.4,2.9-1.4c0.5,0,0.7,0.5,0.7,1.4c0,0.7-0.2,2.2-0.7,4.1s-0.7,3.4-0.7,4.6
		c0,5.3,3.8,8.2,11.3,8.2c6,0,11-2.6,14.9-7.7c2.4-4.1,5-7.9,7.4-11.8c1-1,1.7-1.4,2.4-1.4c1,0,1.2,1,0.7,3.1c-1,4.1-1.7,6-1.7,5.5
		c0,1.7,1,3.4,2.9,4.8c1.7,1.4,4.1,2.4,6.7,2.4c3.4,0,5.5-1,6.5-2.6c0-0.2-1-2.2-3.1-5.8c0.2-1.9,1.2-5.3,2.6-9.8
		c0.2-1.4,0.7-2.2,1.2-2.2s1,0.2,1.7,1.2c1.9,2.9,3.1,6.2,3.1,10.1c0,6-1.4,11-4.1,15.4c-2.9,5.3-7.2,7.9-13,7.9
		c-3.8,0-7.4-3.1-10.6-8.9c-5.3,9.6-12.2,14.4-20.6,14.4c-10.1,0-14.9-5.8-14.9-16.8c-3.8,4.6-10.3,8.6-18.7,12.5v-13.2
		c6.2-3.1,10.3-5,11.5-5.8C527.7,116.8,531.5,113.9,535.4,110.5L535.4,110.5L535.4,110.5L535.4,110.5z"/>
	<path class="st0" d="M498.6,126.4c-3.6-4.6-6.7-6.7-9.6-6.7c-4.3,0-6.2,1-6.2,3.4c0,2.9,2.9,4.3,8.6,4.3
		C493.6,127.3,496,126.8,498.6,126.4L498.6,126.4L498.6,126.4L498.6,126.4z M506.1,143.9c0-1.4-0.5-3.1-1-4.8
		c-2.9,1-7.2,1.7-12.5,1.7c-11.5,0-17.3-4.1-17.3-12c0-6,1.7-11.3,5.5-16.1c3.6-4.1,7.4-6.2,11.5-6.2c3.1,0,6.2,1.9,9.8,5.5
		c3.1,3.6,6,7.7,8.4,12.7c0.2,0,0.7,0,1.7-0.5v13.2l-0.5,0.5c0,2.9-0.7,6.2-2.2,10.6c-1.7,5.5-4.3,10.1-7.4,13.7
		c-7.2,8.6-15.1,16.1-23.8,22.6c-13,9.6-24,14.6-33.6,14.6c-8.2,0-14.4-3.1-18.7-9.1c-3.8-5-5.8-11.8-5.8-19.7
		c0-10.1,2.2-20.4,6.2-31.2c1.2-2.4,1.7-3.4,2.2-3.4c0.2,0,0.2,0.2,0.2,0.7c0,0.7-0.2,1.9-0.5,3.4c-3.1,10.6-4.6,18.5-4.6,24
		c0,5,1.2,9.4,3.6,13c3.8,5,9.8,7.7,18.2,7.7c7.2,0,15.8-3.1,26.2-9.4c8.2-5,16.1-11,23.8-18.2C502.5,150.4,506.1,146,506.1,143.9
		L506.1,143.9L506.1,143.9L506.1,143.9z"/>
	<path class="st0" d="M440.6,107.6c-0.5-2.2-1.2-3.8-2.2-5c-0.7-1.4-1.2-2.2-1.4-2.6c0-0.5,0-2.2,0.5-5.5c0.5-3.1,0.7-5.3,1.2-6.5
		c0.2-1.2,0.5-1.7,1-1.7c0.2,0,0.5,0.2,1,0.7c3.4,3.8,7,7.7,11,11.8c1.7,1.7,2.4,2.6,2.4,3.1c0,0.2-0.2,0.5-0.7,0.5
		c-0.7,0-2.6-0.5-5.5-1.2c1.7,4.1,3.6,8.2,5.3,12c2.6,6.7,4.1,12.2,4.1,17.3c0,2.4-0.5,5.3-1.4,8.9c-1.2,4.1-2.6,7.2-4.6,9.4
		c-7,7.9-18.7,16.6-35.3,25.9c-14.4,8.4-22.8,12.5-25.4,12.5c-0.5,0-7.7,1.7-21.4,5c-14.4,3.4-23.5,5.5-27.1,6c-3.8,0.7-6.2,1-7.2,1
		c-0.5,0-0.5,0-0.5-0.2s2.6-1.7,7.9-4.1c1.9-1,13-5.8,33.4-14.4c14.2-6,25.9-11.5,35.3-16.6c14.2-7.7,25-14.4,32.4-19.9
		c5.5-4.3,8.4-7.4,8.4-9.4c0-0.5-1.4-3.8-4.3-10.1C444.2,117.5,441.8,111.7,440.6,107.6L440.6,107.6L440.6,107.6L440.6,107.6z"/>
	<path class="st0" d="M420.9,74.3c0,3.8-1.9,9.1-5.8,15.6c-2.4,4.1-6,9.6-10.8,16.8c4.8,5.5,8.2,10.6,9.8,14.9
		c1,3.1,1.7,7.2,1.7,11.8c0,1.9-0.5,4.3-1.4,7.4c-0.7,2.9-1.7,5-2.6,6.5c-1.9,2.9-5,5.8-9.8,8.6c-5,3.4-9.4,5-13,5
		c-5.8,0-8.6-4.3-8.6-13c0-5.8,1-11.5,2.9-16.8c1.9-4.6,5-10.6,10.1-18.5c-4.3-4.1-8.9-9.8-13.9-17c-0.5-0.7-1.7-1.9-3.6-3.8
		c-1-1-1.4-2.2-1.4-3.6c0-2.2,0.2-4.6,0.7-7.4c0.7-2.9,1.2-4.1,1.4-4.1c0.7,0,2.9,1.2,7,3.8c3.8,2.6,7,4.6,8.9,6.2
		c1.2,0.7,1.7,1.4,1.7,1.4v0.2c0,0.2-0.7,0.5-2.4,0.5c-3.1,0-4.8,0.2-4.8,0.5c0,0.2,0.5,0.7,1.4,1.9c3.8,4.8,7.7,8.4,11.8,11.3
		c1-1.4,4.3-6.2,9.6-14.4c4.6-7,7.2-11.8,8.4-14.6c1.2-2.9,1.9-4.1,2.4-4.1C420.6,69.5,420.9,70.9,420.9,74.3L420.9,74.3L420.9,74.3
		L420.9,74.3z M411.5,133.3c-2.6-5.3-7.2-10.8-13.4-16.1c-2.2,2.2-4.8,6.2-8.2,12c-3.8,6.5-5.5,10.6-5.5,12.7c0,2.9,1.9,4.3,6.2,4.3
		c1.9,0,4.3-0.7,7.4-1.9c4.3-1.9,8.4-4.6,11.8-7.9C411.3,135,411.8,134,411.5,133.3L411.5,133.3L411.5,133.3L411.5,133.3z"/>
	<path class="st0" d="M398.1,56.3l3.8-7.9c0.2-0.5,0.5-0.7,1-0.7s2.4,1.2,6.2,3.8c3.6,2.4,5.5,3.8,5.5,4.3c0,1.7-1.7,5.3-4.8,10.6
		c-0.5,0.7-1,0.7-1.4,0.5c-3.1-2.4-6.7-4.8-10.8-7.4c-1.4,2.9-2.6,5.5-4.1,7.7c-0.2,0.7-0.7,1-1.2,0.7c-3.6-2.9-7.4-5.5-11.3-7.9
		c-0.2-0.2-0.2-0.5,0-1l4.6-9.6c0.2-0.5,0.7-1,1-1c0.5,0,2.2,1.2,5.3,3.4C395,53.6,397.1,55.3,398.1,56.3L398.1,56.3L398.1,56.3
		L398.1,56.3z"/>
	<path class="st0" d="M524.6,190c-2.6,0.7-4.1,1.2-4.6,1.2V191c0,0,1-0.7,2.9-1.9c1.9-1.2,4.8-3.1,8.9-6.2c1.9-1.9,4.8-5,8.4-9.4
		c2.4-2.9,5-5.5,7.9-7.4c3.6-2.6,7-3.8,10.6-3.8c0.7,0,1.9,0.2,3.4,0.7c1.2,0.5,2.4,0.7,3.4,0.7c1.9,0,3.4-0.7,4.6-2.2
		c0.7-1.4,1.7-2.6,2.6-4.1c0.5-1,1.2-1.4,1.7-1.4c0.2,0,0.2,0.2,0.2,0.7s-0.2,1.7-0.7,3.1c-0.5,0.7,1.4,1,5,1c0.5,0,0.7,0,0.7-0.2
		c0,0-0.2-1-0.7-2.6c-0.2-0.5,0-1.2,0.7-2.2c1-1.7,1.4-2.4,1.7-2.2c1,0.7,1.4,2.2,1.4,3.8c0,1.7-0.5,3.4-1.2,5.3
		c-0.7,2.2-1.4,3.4-1.9,3.8c-1.7,1-4.3,0.7-7.9-1c-2.9,2.9-5.8,4.6-8.6,4.6c-0.7,0-1.9-0.2-3.1-0.7c-1.2-0.5-2.2-0.7-2.9-0.7
		c-4.8,0-9.8,2.2-14.9,7c-3.6,3.6-7.2,7.2-10.8,10.8C529.1,188,527,189.2,524.6,190L524.6,190L524.6,190L524.6,190z"/>
	<path class="st0" d="M473,60.4c2.9,0,5.3,1.4,7.4,4.8c2.2,3.1,3.8,7.4,4.6,12.7c0.2,0.5,0.2,0.7,0.2,1h0.2c0-0.2,0.2-0.5,0.2-1
		c0.5-3.1,1.7-7.9,3.4-14.2c1.9-4.3,3.8-6.5,6-6.5c1.2,0,2.4,0.7,3.4,2.2c1,1.4,1.4,2.4,1.4,3.4c0,0.5,0,1.4-0.5,2.4
		c-0.5,1.4-1,2.2-1.4,2.2c-0.2,0-0.7-0.7-1.7-1.7c-0.7-1-1.7-1.4-2.6-1.4c-1.9,0-3.6,4.6-5.3,13.7c-0.7,4.1-1.7,7-2.4,8.6
		c-0.7,1-1.2,1.7-1.7,1.7s-0.5-0.7-0.7-1.7c0.2-1.7-0.7-4.8-2.6-9.4c-1.9-4.8-3.1-7-4.1-7c-0.5,0-0.7,0-1,0.5
		c-0.2,0.2-0.5,0.5-1.2,0.5c-1,0-1.9-0.7-3.4-1.9c-1.4-1.2-1.9-2.2-1.9-2.9c0-0.2,0.5-1.4,1.7-3.4C472,61.1,472.7,60.4,473,60.4
		L473,60.4L473,60.4L473,60.4z"/>
	<path class="st0" d="M432.4,57.5c24.2-9.1,49.4-18.2,75.4-27.8c0.7-0.2,1.2-0.5,1.2-0.2c0.2,0,0.2,0.5,0,1.2
		c-1,2.2-1.7,3.4-2.2,3.8c-0.2,0.2-12.5,4.8-36.2,13.7c-24.2,8.9-37.9,14.4-40.6,16.1C430.5,62,431.2,59.9,432.4,57.5L432.4,57.5
		L432.4,57.5L432.4,57.5z"/>
	<path class="st0" d="M408.9,13.6c0.5-1.4,0.5-2.9,0.2-4.3c-0.2-1.4-1-2.2-2.2-2.2c-0.5,0-1.2,0.2-2.2,0.7s-1.4,1-1.4,1.4
		C403.4,10.4,405.3,11.9,408.9,13.6L408.9,13.6L408.9,13.6L408.9,13.6z M406,19.8c-4.6-2.4-6.7-4.8-6.7-7.4c0-3.1,1.4-6,4.3-8.4
		c2.9-2.6,5.3-3.6,7.2-2.9c1.7,0.5,2.4,2.2,2.4,5c0,2.6-0.5,5.5-1.7,8.9c2.4,1.2,3.8,2.4,4.3,3.4c0,1.2-1,3.4-3.1,6.2
		c-0.5-1-1.9-2.2-4.1-3.4c-2.6,3.6-5.8,6.7-9.6,9.6c-4.6,3.1-8.6,5.8-12.2,7.2c-1,0.5-5.3,2.2-13,5c-1.2,0.5-2.2,0.7-2.4,0.7
		s-0.2-0.2-0.2-0.2c0-0.2,0.5-1,1.9-1.7c5.8-3.6,11.5-7,17.5-10.3C397.6,27.2,402.6,23.4,406,19.8L406,19.8L406,19.8L406,19.8z"/>
	<path class="st0" d="M557.7,49.8c0.5-1.4,0.5-2.9,0.2-4.3c-0.2-1.4-1-2.2-2.2-2.2c-0.5,0-1.2,0.2-2.2,0.7s-1.4,1-1.4,1.4
		C552.2,46.7,554.1,48.1,557.7,49.8L557.7,49.8L557.7,49.8L557.7,49.8z M563,58.7c-2.4,5.8-3.6,10.3-3.6,13.7c0,4.1,1,6.2,3.1,6.2
		c1.2,0,2.6-1.7,4.3-4.6c0.2-0.2,0.2-0.5,0.5-0.7c0,0,0.2,0,0.2,0.2c0,0,0,0.2,0,0.7c-1.4,7.2-3.6,10.8-6.5,10.8
		c-3.1,0-4.6-2.6-4.6-7.9c0-2.6,0.5-6,1.9-10.3s2.2-6.5,2.2-6.7c0-0.5-1-1.4-3.1-2.6c-3.8,5-9.1,9.8-15.8,13.9
		c-4.6,2.6-9.1,5-13.9,7c-8.9,3.6-14.2,5.5-15.4,6.2c-1.2,0.5-1.9,0.7-2.4,0.7c-0.2,0-0.2-0.2-0.2-0.2c0-0.5,0.5-1,1.9-1.9
		c7.7-4.3,15.1-8.6,22.8-13c10.1-5.8,17-10.6,20.4-14.2c-4.6-2.4-6.7-4.8-6.7-7.4c0-3.1,1.4-6,4.3-8.6c2.9-2.4,5.3-3.4,7.2-2.6
		c1.4,0.5,2.4,2.2,2.4,5c0,2.6-0.5,5.5-1.7,8.6c2.4,1.4,3.4,2.9,3.4,4.3C563.7,56,563.4,57.2,563,58.7L563,58.7L563,58.7L563,58.7z"
		/>
	<path class="st0" d="M453.8,23.6c0-0.2,0.2-0.5,0.2-0.5c0.2-0.2,0.2-0.2,0.2,0c0.2,0.2,0.2,0.5,0,0.7c-1.2,7.2-3.4,10.8-6.5,10.8
		s-4.6-2.6-4.6-7.9c0-6.5,1.7-13.4,5.5-20.4c1-1.7,1.4-2.6,1.7-2.6l0,0c0,0.2-0.2,1.2-0.7,2.9c-2.4,7.4-3.6,12.5-3.6,15.6
		c0,3.8,1,6,3.1,6C450.6,28.2,452.1,26.5,453.8,23.6L453.8,23.6L453.8,23.6L453.8,23.6z"/>
</g>
</svg>
