<?xml version="1.0" encoding="utf-8"?>
<!-- Generator: Adobe Illustrator 24.0.0, SVG Export Plug-In . SVG Version: 6.00 Build 0)  -->
<svg version="1.1" id="Layer_1" xmlns="http://www.w3.org/2000/svg" xmlns:xlink="http://www.w3.org/1999/xlink" x="0px" y="0px"
	 viewBox="0 0 435.4 201.9" style="enable-background:new 0 0 435.4 201.9;" xml:space="preserve">
<style type="text/css">
	.st0{fill:#C4692C;}
</style>
<g>
	<path class="st0" d="M209.8,109.9c0,5.8-1.2,10.3-3.1,13.9c-1.4,2.4-3.1,4.1-4.6,5c-2.4,1.2-5.8,1.9-10.6,1.9
		c-7.4,0-15.4-1.2-23.3-3.6c-8.6,4.6-17.8,8.9-27.4,13v-13.2c2.9-1.4,8.2-3.6,15.6-6.5c-1.9-3.6-2.6-7-2.6-10.6
		c0-7,1.4-13.7,4.6-19.4c2.2-4.3,4.8-7.9,8.2-10.8c-0.5-2.6-0.2-6.2,0.7-10.8c0.2-1.4,0.5-1.9,1-1.9s1.4,0.2,2.6,1l13.9,7
		c1.7,1.2,2.4,1.9,2.4,2.6c0,1-1.2,1.2-3.4,1.2c-1.2,0-2.4,0-3.6-0.2c4.8,4.3,9.1,7.4,13,9.6c5.3,2.9,8.6,5.3,10.3,6.7
		C207.6,98.9,209.8,103.9,209.8,109.9L209.8,109.9L209.8,109.9L209.8,109.9z M203.5,109.9c-1-1.4-3.8-3.4-8.4-6.2
		c-5.3-2.9-8.9-5.3-10.6-7.2c0,5.3-1.4,11.5-4.3,19c6,1.7,11.3,2.4,15.8,2.4c6.2,0,9.4-1.2,9.4-3.1
		C205.5,113.5,205,112.1,203.5,109.9L203.5,109.9L203.5,109.9L203.5,109.9z M179.5,102c0-3.1-1.2-6.2-3.4-9.8
		c-1.9-3.1-3.6-4.8-5-4.8c-2.4,0-5,1.9-8.4,5.8c-3.4,3.8-4.8,7.4-4.8,10.6c0,2.6,1.4,4.8,4.6,6.7c2.4,1.4,5,2.4,8.2,2.9
		C176.4,109.9,179.5,106.1,179.5,102L179.5,102L179.5,102L179.5,102z"/>
	<path class="st0" d="M127.2,128.9c-3.6-4.6-6.7-6.7-9.6-6.7c-4.3,0-6.2,1-6.2,3.4c0,2.9,2.9,4.3,8.6,4.3
		C122.2,129.8,124.6,129.3,127.2,128.9L127.2,128.9L127.2,128.9L127.2,128.9z M134.7,146.4c0-1.4-0.5-3.1-1-4.8
		c-2.9,1-7.2,1.7-12.5,1.7c-11.5,0-17.3-4.1-17.3-12c0-6,1.7-11.3,5.5-16.1c3.6-4.1,7.4-6.2,11.5-6.2c3.1,0,6.2,1.9,9.8,5.5
		c3.1,3.6,6,7.7,8.4,12.7c0.2,0,0.7,0,1.7-0.5v13.2l-0.5,0.5c0,2.9-0.7,6.2-2.2,10.6c-1.7,5.5-4.3,10.1-7.4,13.7
		c-7.2,8.6-15.1,16.1-23.8,22.6c-13,9.6-24,14.6-33.6,14.6c-8.2,0-14.4-3.1-18.7-9.1c-3.8-5-5.8-11.8-5.8-19.7
		c0-10.1,2.2-20.4,6.2-31.2c1.2-2.4,1.7-3.4,2.2-3.4c0.2,0,0.2,0.2,0.2,0.7c0,0.7-0.2,1.9-0.5,3.4c-3.1,10.6-4.6,18.5-4.6,24
		c0,5,1.2,9.4,3.6,13c3.8,5,9.8,7.7,18.2,7.7c7.2,0,15.8-3.1,26.2-9.4c8.2-5,16.1-11,23.8-18.2C131.1,152.9,134.7,148.5,134.7,146.4
		L134.7,146.4L134.7,146.4L134.7,146.4z"/>
	<path class="st0" d="M15.1,162.2C5,162.2,0,155.5,0,142c0-10.3,2.2-20.6,6.2-31.2c1-2.4,1.7-3.6,2.2-3.6c0.2,0,0.2,0.2,0.2,0.7
		c0,0.7-0.2,1.9-0.7,3.4c-2.9,10.6-4.3,18.5-4.3,24c0,4.1,1.2,7.2,3.6,9.4c2.2,1.9,4.6,2.9,7.7,2.9c6.5,0,19-6,37.4-18
		c16.8-10.8,26.4-17.5,29-20.2c1-1,1.7-1.9,1.7-2.9c0-1.2-1.4-2.9-3.8-4.8c-3.1-2.4-8.2-5.3-15.4-8.6c-7.4-3.4-13.2-6.5-17-9.1
		c-6.5-4.3-12.2-10.1-17.3-16.8c-0.7-0.7-1.9-1.9-3.8-3.1c-1.2-0.5-1.9-1.9-1.9-4.3v-8.9c0-0.7,0.2-1.2,0.5-1.7c0.2-0.2,1,0,2.2,0.5
		l15.1,7.4c0.7,0.2,1.2,0.5,1.7,0.7l0,0c2.4,1.4,3.4,2.4,2.9,3.1c-1,1-3.6,1.2-8.6,1c5.8,5.5,13,10.3,22.1,14.6
		c11,5.3,17.5,8.4,19.7,10.1c4.8,3.4,7.2,9.1,7.2,17.3c0,1.7-0.2,3.4-0.5,5c-0.7,4.6-1.7,7.7-2.6,9.6c-0.7,1.4-2.2,3.1-4.6,5.3
		c-4.6,4.1-13.9,10.8-28.3,20.4C32.4,156.2,20.7,162.2,15.1,162.2L15.1,162.2L15.1,162.2L15.1,162.2z"/>
	<path class="st0" d="M185.5,12.7c0.5-1.4,0.5-2.9,0.2-4.3c-0.2-1.4-1-2.2-2.2-2.2c-0.5,0-1.2,0.2-2.2,0.7s-1.4,1-1.4,1.4
		C180,9.6,181.9,11,185.5,12.7L185.5,12.7L185.5,12.7L185.5,12.7z M190.8,21.6c-2.4,5.8-3.6,10.3-3.6,13.7c0,4.1,1,6.2,3.1,6.2
		c1.4,0,2.9-1.7,4.3-4.6c0.2-0.2,0.2-0.5,0.5-0.7c0.2,0,0.2,0,0.2,0.2c0,0,0,0.2,0,0.7c-1.2,7.2-3.4,10.8-6.5,10.8s-4.6-2.6-4.6-7.9
		c0-2.6,0.7-6,1.9-10.3c1.4-4.3,2.2-6.5,2.2-6.7c0-0.5-1-1.4-3.1-2.6c-2.6,3.6-5.8,6.7-9.6,9.6c-4.6,3.4-8.6,5.8-12.2,7.4
		c-1,0.2-5.3,1.9-13,4.8c-1.2,0.5-2.2,0.7-2.4,0.7c-0.2,0-0.2,0-0.2-0.2s0.5-0.7,1.9-1.7c5.8-3.4,11.5-7,17.5-10.3
		c7-4.3,12-8.2,15.4-11.8c-4.6-2.4-6.7-4.8-6.7-7.4c0-3.1,1.4-6,4.3-8.6c2.9-2.4,5.3-3.4,7.2-2.6c1.7,0.5,2.4,2.2,2.4,5
		c0,2.6-0.5,5.5-1.7,8.6c2.4,1.4,3.6,2.9,3.6,4.3C191.8,18.9,191.3,20.1,190.8,21.6L190.8,21.6L190.8,21.6L190.8,21.6z"/>
	<path class="st0" d="M14.9,96.5c0-0.2,0.2-0.5,0.2-0.5c0.2-0.2,0.2-0.2,0.2,0c0.2,0.2,0.2,0.5,0,0.7c-1.2,7.2-3.4,10.8-6.5,10.8
		s-4.6-2.6-4.6-7.9c0-6.5,1.7-13.4,5.5-20.4c1-1.7,1.4-2.6,1.7-2.6l0,0c0,0.2-0.2,1.2-0.7,2.9C8.3,86.9,7.1,92,7.1,95.1
		c0,3.8,1,6,3.1,6C11.8,101,13.2,99.3,14.9,96.5L14.9,96.5L14.9,96.5L14.9,96.5z"/>
	<path class="st0" d="M181.7,171.3c-1.2-2.9-3.4-4.8-6.5-6c0,2.6-0.2,4.8-1,6.5c0.5,0,2.9,0.5,7.2,1c0.2,0,0.5,0,0.5,0
		C182.2,172.5,182.2,172.1,181.7,171.3L181.7,171.3L181.7,171.3L181.7,171.3z M172.1,171.3c0.5-1.4,0.5-2.9,0-4.6s-1.2-2.4-2.4-2.4
		c-0.5,0-1.4,0.5-2.6,1.4c-1,1.2-1.7,2.2-1.7,2.6C165.4,169.9,167.5,170.9,172.1,171.3L172.1,171.3L172.1,171.3L172.1,171.3z
		 M165.1,163.7c-1-3.1-0.7-5.3,0.5-6.5c1-1,2.2-1.4,3.4-1.4c1.4,0,2.9,0.2,4.6,1.2c5.8,3.1,9.6,7,11.5,11.5c0,0.2,0.2,0.7,0.2,1.2
		c0,1.7-0.5,3.4-1.7,5.5c-1,1.9-1.9,2.9-2.9,2.9c-0.2,0-2.9-0.2-7.9-0.7c-2.6,3.6-5.8,6.7-9.6,9.4c-4.3,3.4-8.4,5.8-12.2,7.4
		c-0.7,0.5-5,2.2-13,5c-1.2,0.5-1.9,0.7-2.4,0.7c-0.2,0-0.2-0.2-0.2-0.2c0-0.2,0.7-1,1.9-1.7c5.8-3.4,11.5-6.7,17.3-10.1
		c6.5-4.1,11.5-7.7,15.1-11c-4.3-1-6.5-3.1-6.5-6.2C163.2,168.2,163.7,165.8,165.1,163.7L165.1,163.7L165.1,163.7L165.1,163.7z"/>
	<path class="st0" d="M61.7,29c2.9,0,5.3,1.4,7.4,4.8c2.2,3.1,3.8,7.4,4.6,12.7c0.2,0.5,0.2,0.7,0.2,1h0.2c0-0.2,0.2-0.5,0.2-1
		c0.5-3.1,1.7-7.9,3.4-14.2c1.9-4.3,3.8-6.5,6-6.5c1.2,0,2.4,0.7,3.4,2.2c1,1.4,1.4,2.4,1.4,3.4c0,0.5,0,1.4-0.5,2.4
		c-0.5,1.4-1,2.2-1.4,2.2c-0.2,0-0.7-0.7-1.7-1.7c-0.7-1-1.7-1.4-2.6-1.4c-1.9,0-3.6,4.6-5.3,13.7c-0.7,4.1-1.7,7-2.4,8.6
		c-0.7,1-1.2,1.7-1.7,1.7s-0.5-0.7-0.7-1.7c0.2-1.7-0.7-4.8-2.6-9.4c-1.9-4.8-3.1-7-4.1-7c-0.5,0-0.7,0-1,0.5
		c-0.2,0.2-0.5,0.5-1.2,0.5c-1,0-1.9-0.7-3.4-1.9C58.5,36.7,58,35.7,58,35c0-0.2,0.5-1.4,1.7-3.4C60.7,29.7,61.5,29,61.7,29L61.7,29
		L61.7,29L61.7,29z"/>
	<path class="st0" d="M130.3,29.5c0-0.2,0.2-0.5,0.2-0.5c0.2-0.2,0.2-0.2,0.2,0c0.2,0.2,0.2,0.5,0,0.7c-1.2,7.2-3.4,10.8-6.5,10.8
		s-4.6-2.6-4.6-7.9c0-6.5,1.7-13.4,5.5-20.4c1-1.7,1.4-2.6,1.7-2.6l0,0c0,0.2-0.2,1.2-0.7,2.9c-2.4,7.4-3.6,12.5-3.6,15.6
		c0,3.8,1,6,3.1,6C127.2,34.1,128.7,32.4,130.3,29.5L130.3,29.5L130.3,29.5L130.3,29.5z"/>
	<path class="st0" d="M109.7,61.4c2.9,0,5.3,1.4,7.4,4.8c2.2,3.1,3.8,7.4,4.6,12.7c0.2,0.5,0.2,0.7,0.2,1h0.2c0-0.2,0.2-0.5,0.2-1
		c0.5-3.1,1.7-7.9,3.4-14.2c1.9-4.3,3.8-6.5,6-6.5c1.2,0,2.4,0.7,3.4,2.2c1,1.4,1.4,2.4,1.4,3.4c0,0.5,0,1.4-0.5,2.4
		c-0.5,1.4-1,2.2-1.4,2.2c-0.2,0-0.7-0.7-1.7-1.7c-0.7-1-1.7-1.4-2.6-1.4c-1.9,0-3.6,4.6-5.3,13.7c-0.7,4.1-1.7,7-2.4,8.6
		c-0.7,1-1.2,1.7-1.7,1.7s-0.5-0.7-0.7-1.7c0.2-1.7-0.7-4.8-2.6-9.4c-1.9-4.8-3.1-7-4.1-7c-0.5,0-0.7,0-1,0.5
		c-0.2,0.2-0.5,0.5-1.2,0.5c-1,0-1.9-0.7-3.4-1.9c-1.4-1.2-1.9-2.2-1.9-2.9c0-0.2,0.5-1.4,1.7-3.4C108.7,62.1,109.5,61.4,109.7,61.4
		L109.7,61.4L109.7,61.4L109.7,61.4z"/>
	<path class="st0" d="M65.8,146.9c8.2-4.1,16.3-7.7,24.7-10.8c1-0.2,1.4-0.5,1.7-0.2c0.2,0,0.2,0.5-0.2,1.2
		c-0.7,2.2-1.2,3.4-1.9,4.1c-3.8,1.7-9.8,4.3-18.5,7.9c-2.2,1-4.8,2.4-7.9,4.1C64.1,151.2,64.8,149,65.8,146.9L65.8,146.9
		L65.8,146.9L65.8,146.9z M64.1,155.7c8.2-4.1,16.3-7.7,24.7-10.8c1-0.2,1.4-0.5,1.7-0.5c0.2,0.2,0.2,0.7-0.2,1.4
		c-0.7,2.2-1.2,3.4-1.9,4.1c-3.8,1.4-9.8,4.1-18.5,7.9c-2.2,1-4.8,2.4-7.9,4.1C62.4,160.1,63.1,157.9,64.1,155.7L64.1,155.7
		L64.1,155.7L64.1,155.7z"/>
	<path class="st0" d="M45.6,101.7c0,2.6-1.2,5.5-3.1,8.6c-2.2,3.1-4.8,6-8.2,8.4c-1.4,1-2.2,1.4-2.4,1.4v-0.2c0-0.2,0.5-0.7,1.4-1.9
		c5.5-6,8.4-9.8,8.4-12c0-1.7-1-2.6-2.6-2.6c-1,0-1.9,0.2-2.6,0.7c-0.7,0.2-1,0.5-1.2,0.5c0,0-0.2,0-0.2-0.2c0,0,0-0.5,0.2-1.4
		c1-4.1,2.9-6,6.2-6C44.2,96.9,45.6,98.6,45.6,101.7L45.6,101.7L45.6,101.7L45.6,101.7z"/>
	<path class="st0" d="M376.6,111.6c1.2-1,2.2-1.4,2.9-1.4c0.5,0,0.7,0.5,0.7,1.4c0,0.7-0.2,2.2-0.7,4.1s-0.7,3.4-0.7,4.6
		c0,5.3,3.8,8.2,11.3,8.2c6,0,11-2.6,14.9-7.7c2.4-4.1,5-7.9,7.4-11.8c1-1,1.7-1.4,2.4-1.4c1,0,1.2,1,0.7,3.1c-1,4.1-1.7,6-1.7,5.5
		c0,1.7,1,3.4,2.9,4.8c1.7,1.4,4.1,2.4,6.7,2.4c3.4,0,5.5-1,6.5-2.6c0-0.2-1-2.2-3.1-5.8c0.2-1.9,1.2-5.3,2.6-9.8
		c0.2-1.4,0.7-2.2,1.2-2.2s1,0.2,1.7,1.2c1.9,2.9,3.1,6.2,3.1,10.1c0,6-1.4,11-4.1,15.4c-2.9,5.3-7.2,7.9-13,7.9
		c-3.8,0-7.4-3.1-10.6-8.9c-5.3,9.6-12.2,14.4-20.6,14.4c-10.1,0-14.9-5.8-14.9-16.8c-3.8,4.6-10.3,8.6-18.7,12.5v-13.2
		c6.2-3.1,10.3-5,11.5-5.8C368.9,117.8,372.7,114.9,376.6,111.6L376.6,111.6L376.6,111.6L376.6,111.6z"/>
	<path class="st0" d="M339.6,127.4c-3.6-4.6-6.7-6.7-9.6-6.7c-4.3,0-6.2,1-6.2,3.4c0,2.9,2.9,4.3,8.6,4.3
		C334.6,128.4,337,127.9,339.6,127.4L339.6,127.4L339.6,127.4L339.6,127.4z M347.1,144.9c0-1.4-0.5-3.1-1-4.8
		c-2.9,1-7.2,1.7-12.5,1.7c-11.5,0-17.3-4.1-17.3-12c0-6,1.7-11.3,5.5-16.1c3.6-4.1,7.4-6.2,11.5-6.2c3.1,0,6.2,1.9,9.8,5.5
		c3.1,3.6,6,7.7,8.4,12.7c0.2,0,0.7,0,1.7-0.5v13.2l-0.5,0.5c0,2.9-0.7,6.2-2.2,10.6c-1.7,5.5-4.3,10.1-7.4,13.7
		c-7.2,8.6-15.1,16.1-23.8,22.6c-13,9.6-24,14.6-33.6,14.6c-8.2,0-14.4-3.1-18.7-9.1c-3.8-5-5.8-11.8-5.8-19.7
		c0-10.1,2.2-20.4,6.2-31.2c1.2-2.4,1.7-3.4,2.2-3.4c0.2,0,0.2,0.2,0.2,0.7c0,0.7-0.2,1.9-0.5,3.4c-3.1,10.6-4.6,18.5-4.6,24
		c0,5,1.2,9.4,3.6,13c3.8,5,9.8,7.7,18.2,7.7c7.2,0,15.8-3.1,26.2-9.4c8.2-5,16.1-11,23.8-18.2C343.5,151.4,347.1,147.1,347.1,144.9
		L347.1,144.9L347.1,144.9L347.1,144.9z"/>
	<path class="st0" d="M281.8,108.5c-0.5-2.2-1.2-3.8-2.2-5c-0.7-1.4-1.2-2.2-1.4-2.6c0-0.5,0-2.2,0.5-5.5c0.5-3.1,0.7-5.3,1.2-6.5
		c0.2-1.2,0.5-1.7,1-1.7c0.2,0,0.5,0.2,1,0.7c3.4,3.8,7,7.7,11,11.8c1.7,1.7,2.4,2.6,2.4,3.1c0,0.2-0.2,0.5-0.7,0.5
		c-0.7,0-2.6-0.5-5.5-1.2c1.7,4.1,3.6,8.2,5.3,12c2.6,6.7,4.1,12.2,4.1,17.3c0,2.4-0.5,5.3-1.4,8.9c-1.2,4.1-2.6,7.2-4.6,9.4
		c-7,7.9-18.7,16.6-35.3,25.9c-14.4,8.4-22.8,12.5-25.4,12.5c-0.5,0-7.7,1.7-21.4,5c-14.4,3.4-23.5,5.5-27.1,6c-3.8,0.7-6.2,1-7.2,1
		c-0.5,0-0.5,0-0.5-0.2s2.6-1.7,7.9-4.1c1.9-1,13-5.8,33.4-14.4c14.2-6,25.9-11.5,35.3-16.6c14.2-7.7,25-14.4,32.4-19.9
		c5.5-4.3,8.4-7.4,8.4-9.4c0-0.5-1.4-3.8-4.3-10.1C285.4,118.3,283,112.5,281.8,108.5L281.8,108.5L281.8,108.5L281.8,108.5z"/>
	<path class="st0" d="M262.1,75.1c0,3.8-1.9,9.1-5.8,15.6c-2.4,4.1-6,9.6-10.8,16.8c4.8,5.5,8.2,10.6,9.8,14.9
		c1,3.1,1.7,7.2,1.7,11.8c0,1.9-0.5,4.3-1.4,7.4c-0.7,2.9-1.7,5-2.6,6.5c-1.9,2.9-5,5.8-9.8,8.6c-5,3.4-9.4,5-13,5
		c-5.8,0-8.6-4.3-8.6-13c0-5.8,1-11.5,2.9-16.8c1.9-4.6,5-10.6,10.1-18.5c-4.3-4.1-8.9-9.8-13.9-17c-0.5-0.7-1.7-1.9-3.6-3.8
		c-1-1-1.4-2.2-1.4-3.6c0-2.2,0.2-4.6,0.7-7.4c0.7-2.9,1.2-4.1,1.4-4.1c0.7,0,2.9,1.2,7,3.8c3.8,2.6,7,4.6,8.9,6.2
		c1.2,0.7,1.7,1.4,1.7,1.4v0.2c0,0.2-0.7,0.5-2.4,0.5c-3.1,0-4.8,0.2-4.8,0.5c0,0.2,0.5,0.7,1.4,1.9c3.8,4.8,7.7,8.4,11.8,11.3
		c1-1.4,4.3-6.2,9.6-14.4c4.6-7,7.2-11.8,8.4-14.6c1.2-2.9,1.9-4.1,2.4-4.1C261.9,70.3,262.1,71.7,262.1,75.1L262.1,75.1L262.1,75.1
		L262.1,75.1z M252.7,134.1c-2.6-5.3-7.2-10.8-13.4-16.1c-2.2,2.2-4.8,6.2-8.2,12c-3.8,6.5-5.5,10.6-5.5,12.7c0,2.9,1.9,4.3,6.2,4.3
		c1.9,0,4.3-0.7,7.4-1.9c4.3-1.9,8.4-4.6,11.8-7.9C252.5,135.8,253,134.9,252.7,134.1L252.7,134.1L252.7,134.1L252.7,134.1z"/>
	<path class="st0" d="M239.3,57.1l3.8-7.9c0.2-0.5,0.5-0.7,1-0.7s2.4,1.2,6.2,3.8c3.6,2.4,5.5,3.8,5.5,4.3c0,1.7-1.7,5.3-4.8,10.6
		c-0.5,0.7-1,0.7-1.4,0.5c-3.1-2.4-6.7-4.8-10.8-7.4c-1.4,2.9-2.6,5.5-4.1,7.7c-0.2,0.7-0.7,1-1.2,0.7c-3.6-2.9-7.4-5.5-11.3-7.9
		c-0.2-0.2-0.2-0.5,0-1l4.6-9.6c0.2-0.5,0.7-1,1-1c0.5,0,2.2,1.2,5.3,3.4C236.2,54.5,238.3,56.1,239.3,57.1L239.3,57.1L239.3,57.1
		L239.3,57.1z"/>
	<path class="st0" d="M365.8,191c-2.6,0.7-4.1,1.2-4.6,1.2V192c0,0,1-0.7,2.9-1.9c1.9-1.2,4.8-3.1,8.9-6.2c1.9-1.9,4.8-5,8.4-9.4
		c2.4-2.9,5-5.5,7.9-7.4c3.6-2.6,7-3.8,10.6-3.8c0.7,0,1.9,0.2,3.4,0.7c1.2,0.5,2.4,0.7,3.4,0.7c1.9,0,3.4-0.7,4.6-2.2
		c0.7-1.4,1.7-2.6,2.6-4.1c0.5-1,1.2-1.4,1.7-1.4c0.2,0,0.2,0.2,0.2,0.7s-0.2,1.7-0.7,3.1c-0.5,0.7,1.4,1,5,1c0.5,0,0.7,0,0.7-0.2
		c0,0-0.2-1-0.7-2.6c-0.2-0.5,0-1.2,0.7-2.2c1-1.7,1.4-2.4,1.7-2.2c1,0.7,1.4,2.2,1.4,3.8c0,1.7-0.5,3.4-1.2,5.3
		c-0.7,2.2-1.4,3.4-1.9,3.8c-1.7,1-4.3,0.7-7.9-1c-2.9,2.9-5.8,4.6-8.6,4.6c-0.7,0-1.9-0.2-3.1-0.7c-1.2-0.5-2.2-0.7-2.9-0.7
		c-4.8,0-9.8,2.2-14.9,7c-3.6,3.6-7.2,7.2-10.8,10.8C370.3,189.1,368.2,190.3,365.8,191L365.8,191L365.8,191L365.8,191z"/>
	<path class="st0" d="M314.2,61.4c2.9,0,5.3,1.4,7.4,4.8c2.2,3.1,3.8,7.4,4.6,12.7c0.2,0.5,0.2,0.7,0.2,1h0.2c0-0.2,0.2-0.5,0.2-1
		c0.5-3.1,1.7-7.9,3.4-14.2c1.9-4.3,3.8-6.5,6-6.5c1.2,0,2.4,0.7,3.4,2.2c1,1.4,1.4,2.4,1.4,3.4c0,0.5,0,1.4-0.5,2.4
		c-0.5,1.4-1,2.2-1.4,2.2c-0.2,0-0.7-0.7-1.7-1.7c-0.7-1-1.7-1.4-2.6-1.4c-1.9,0-3.6,4.6-5.3,13.7c-0.7,4.1-1.7,7-2.4,8.6
		c-0.7,1-1.2,1.7-1.7,1.7s-0.5-0.7-0.7-1.7c0.2-1.7-0.7-4.8-2.6-9.4c-1.9-4.8-3.1-7-4.1-7c-0.5,0-0.7,0-1,0.5
		c-0.2,0.2-0.5,0.5-1.2,0.5c-1,0-1.9-0.7-3.4-1.9c-1.4-1.2-1.9-2.2-1.9-2.9c0-0.2,0.5-1.4,1.7-3.4C313.2,62.1,313.9,61.4,314.2,61.4
		L314.2,61.4L314.2,61.4L314.2,61.4z"/>
	<path class="st0" d="M273.4,58.3c24.2-9.1,49.4-18.2,75.4-27.8c0.7-0.2,1.2-0.5,1.2-0.2c0.2,0,0.2,0.5,0,1.2
		c-1,2.2-1.7,3.4-2.2,3.8c-0.2,0.2-12.5,4.8-36.2,13.7c-24.2,8.9-37.9,14.4-40.6,16.1C271.5,62.9,272.2,60.7,273.4,58.3L273.4,58.3
		L273.4,58.3L273.4,58.3z"/>
	<path class="st0" d="M250.1,14.4c0.5-1.4,0.5-2.9,0.2-4.3c-0.2-1.4-1-2.2-2.2-2.2c-0.5,0-1.2,0.2-2.2,0.7s-1.4,1-1.4,1.4
		C244.6,11.3,246.5,12.7,250.1,14.4L250.1,14.4L250.1,14.4L250.1,14.4z M247.2,20.6c-4.6-2.4-6.7-4.8-6.7-7.4c0-3.1,1.4-6,4.3-8.4
		c2.9-2.6,5.3-3.6,7.2-2.9c1.7,0.5,2.4,2.2,2.4,5c0,2.6-0.5,5.5-1.7,8.9c2.4,1.2,3.8,2.4,4.3,3.4c0,1.2-1,3.4-3.1,6.2
		c-0.5-1-1.9-2.2-4.1-3.4c-2.6,3.6-5.8,6.7-9.6,9.6c-4.6,3.1-8.6,5.8-12.2,7.2c-1,0.5-5.3,2.2-13,5c-1.2,0.5-2.2,0.7-2.4,0.7
		c-0.2,0-0.2-0.2-0.2-0.2c0-0.2,0.5-1,1.9-1.7c5.8-3.6,11.5-7,17.5-10.3C238.8,28.1,243.9,24.2,247.2,20.6L247.2,20.6L247.2,20.6
		L247.2,20.6z"/>
	<path class="st0" d="M398.9,50.6c0.5-1.4,0.5-2.9,0.2-4.3c-0.2-1.4-1-2.2-2.2-2.2c-0.5,0-1.2,0.2-2.2,0.7s-1.4,1-1.4,1.4
		C393.4,47.5,395.3,48.9,398.9,50.6L398.9,50.6L398.9,50.6L398.9,50.6z M404.2,59.5c-2.4,5.8-3.6,10.3-3.6,13.7c0,4.1,1,6.2,3.1,6.2
		c1.2,0,2.6-1.7,4.3-4.6c0.2-0.2,0.2-0.5,0.5-0.7c0,0,0.2,0,0.2,0.2c0,0,0,0.2,0,0.7c-1.4,7.2-3.6,10.8-6.5,10.8
		c-3.1,0-4.6-2.6-4.6-7.9c0-2.6,0.5-6,1.9-10.3s2.2-6.5,2.2-6.7c0-0.5-1-1.4-3.1-2.6c-3.8,5-9.1,9.8-15.8,13.9
		c-4.6,2.6-9.1,5-13.9,7c-8.9,3.6-14.2,5.5-15.4,6.2c-1.2,0.5-1.9,0.7-2.4,0.7c-0.2,0-0.2-0.2-0.2-0.2c0-0.5,0.5-1,1.9-1.9
		c7.7-4.3,15.1-8.6,22.8-13c10.1-5.8,17-10.6,20.4-14.2c-4.6-2.4-6.7-4.8-6.7-7.4c0-3.1,1.4-6,4.3-8.6c2.9-2.4,5.3-3.4,7.2-2.6
		c1.4,0.5,2.4,2.2,2.4,5c0,2.6-0.5,5.5-1.7,8.6c2.4,1.4,3.4,2.9,3.4,4.3C404.9,56.9,404.7,58.1,404.2,59.5L404.2,59.5L404.2,59.5
		L404.2,59.5z"/>
	<path class="st0" d="M291.6,27.8c0-0.2,0.2-0.5,0.2-0.5c0.2-0.2,0.2-0.2,0.2,0c0.2,0.2,0.2,0.5,0,0.7c-1.2,7.2-3.4,10.8-6.5,10.8
		s-4.6-2.6-4.6-7.9c0-6.5,1.7-13.4,5.5-20.4c1-1.7,1.4-2.6,1.7-2.6l0,0c0,0.2-0.2,1.2-0.7,2.9c-2.4,7.4-3.6,12.5-3.6,15.6
		c0,3.8,1,6,3.1,6C288.5,32.4,289.9,30.7,291.6,27.8L291.6,27.8L291.6,27.8L291.6,27.8z"/>
</g>
</svg>
