<?xml version="1.0" encoding="utf-8"?>
<!-- Generator: Adobe Illustrator 24.0.0, SVG Export Plug-In . SVG Version: 6.00 Build 0)  -->
<svg version="1.1" id="Layer_1" xmlns="http://www.w3.org/2000/svg" xmlns:xlink="http://www.w3.org/1999/xlink" x="0px" y="0px"
	 viewBox="0 0 645 201" style="enable-background:new 0 0 645 201;" xml:space="preserve">
<style type="text/css">
	.st0{fill:#C4692C;}
</style>
<g>
	<path class="st0" d="M400.7,26.6c0-4.8-0.7-8.6-2.2-11.8c0-1.7,1.2-5.8,4.1-12c0.2-0.7,0.5-1.2,0.7-1.2c0.5,0,0.7,0.5,1.2,1.2
		c0.7,1.7,2.4,6.2,5.3,13.7c3.1,7.9,4.8,12.7,5.3,14.6c0.5,1.2,0.5,2.4,0.5,2.9c0,2.2-1.9,1-6.2-3.8c-0.5-0.7-0.7-0.2-0.7,1
		c0,0.5,1.2,15.4,3.4,45.1c2.2,29.5,3.1,46.1,3.1,49.9c0,11.3-1.7,21.4-5,30c-1,1.7-1.4,2.9-1.9,3.8l0,0c-0.7,1.2-1,1.2-1.2,0.5
		c-0.2-1,0-2.9,0.2-5.5c0.5-4.1,0.7-8.6,0.7-13.7c0-4.8-1.2-24-3.6-57.8C401.9,49.7,400.7,30.7,400.7,26.6L400.7,26.6L400.7,26.6
		L400.7,26.6z"/>
	<path class="st0" d="M380.7,129.4c-1,8.9-1.7,13.2-2.2,13.2s-1.2-3.6-2.2-11c-1.9-12-10.8-25.4-26.6-40.8c-7-6.5-13.9-13-20.9-19.7
		c-7.4-7.2-13.2-13.2-17-18c-2.6-3.4-5.5-7.2-8.6-12c-1.7-3.1-3.4-6-5-8.6c-1.2-1.9-2.6-3.4-4.1-4.3c-0.7-0.2-1-1-1-2.2v-9.8
		c0-1.9,0.2-2.9,1-2.9c0.5,0,1.4,0.5,2.6,1.4l18.5,14.2c1.4,1.2,2.2,1.9,2.2,2.6c0,0.5-0.5,0.5-1.7,0.5c-1.4,0-4.1-0.2-7.7-1.2
		c2.4,4.6,9.4,12.7,20.9,24.2c8.6,8.6,17.3,17.3,26.2,25.9C372.4,98.2,381,113.3,381,126C381,127,381,128.2,380.7,129.4L380.7,129.4
		L380.7,129.4L380.7,129.4z M378.3,26.2c0-1.9-0.5-4.3-1.4-7c-1-2.6-1.4-4.1-1.4-4.3c0-0.5,0.5-2.4,1.4-5.8c1-3.4,1.4-5.3,1.7-5.8
		c0.5-1,0.7-1.2,1-1.2c0.2,0,0.7,0.2,1.2,1c1,2.2,3.1,6.2,6.2,12.7c3.4,7.2,5.5,12,6.2,14.2c0.5,1.7,0.7,2.6,0.7,3.4
		c0,1.9-2.2,0.7-6.2-4.1c-0.5-0.5-0.7,0-0.7,1.2c0,3.8,1.2,16.8,3.8,38.6c2.6,22.1,4.1,37,4.1,44.6c0,16.1-3.8,29.5-11.5,39.8
		c-5.8,8.4-12.5,14.2-19.9,17.5c-2.9,1.4-7.9,2.9-14.9,4.8c-7.2,1.9-12.5,2.9-15.8,3.4c-1.2,0-1.9,0-1.9-0.5c0-0.2,0.5-1,1.9-1.9
		c6.5-3.6,17-9.8,31.7-19c4.8-2.9,9.4-7,14.2-12.2c6.2-6.7,9.6-12.5,9.6-17c0-9.6-1.7-28.3-5-55.7C379.8,45.4,378.3,29.8,378.3,26.2
		L378.3,26.2L378.3,26.2L378.3,26.2z"/>
	<path class="st0" d="M368.5,123.4l-3.8,9.4c-0.2,1.2-1,1.7-1.9,1.7c-5,0-9.6,0.7-13.7,2.2c-4.8,1.9-13.7,6.2-26.4,13
		c-16.8,8.9-29.3,13.4-37.2,13.4c-1,3.6-1.7,5.5-2.4,5.5s-1.2-1.7-1.7-5.3c0,0,0.2-0.2,0.5-0.2c-0.2-2.2-1.7-7-3.8-14.6
		c-2.2-7-3.1-12.2-3.1-16.1c0-7.4,1-13,3.1-16.1c4.1-6.7,10.3-10.1,18.5-10.1c3.8,0,12,1.9,25,5.5c14.6,4.1,23.3,6.2,26.4,6.7
		c10.1,1.4,16.3,2.4,19,2.2c1.4,0.2,2.2,0.5,1.9,1.4C368.7,122.2,368.7,122.6,368.5,123.4L368.5,123.4L368.5,123.4L368.5,123.4z
		 M337.8,130.3c-23-7.2-38.2-10.8-45.4-10.8c-3.8,0-7.2,1.2-10.1,3.8c-2.6,2.2-3.8,4.3-3.8,6.2c1.7,3.8,3.8,10.1,6.7,18.5
		c1.2,0,2.6,0.2,3.8,0.2c6,0,15.4-2.9,28.1-8.6L337.8,130.3L337.8,130.3L337.8,130.3z"/>
	<path class="st0" d="M263.6,127.9c2.4,8.9,8.6,15.6,18.2,20.2V163c-5.8-2.4-10.1-4.8-13.2-7c-4.3-3.4-7.7-7.4-10.1-12.7
		c-0.5-1.2-1.7-5-3.6-11.5c-2.6,15.6-5.5,25.7-8.6,30c-5.8,8.2-12.5,14.2-19.9,17.5c-3.1,1.4-8.2,2.9-15.1,4.8
		c-7.2,1.9-12.5,2.9-15.8,3.4c-1.4,0-2.2,0-2.2-0.5c0-0.2,0.7-1,2.2-1.9c6.5-3.6,17.3-10.1,31.7-19c16.1-10.6,24.2-25.7,24.2-45.8
		c0-3.8-1.4-15.1-4.1-33.8c-2.2-16.1-4.1-29-5.8-39.1c-1.4-7.9-2.9-17.3-4.6-27.6c0-3.4,1-7.7,2.4-12.7c0.5-1.2,1-1.7,1.2-1.7
		s0.7,0.5,1,1.7c3.1,11,6,24.2,8.4,39.6c0.5,2.4,2.9,17.5,7,45.4C259.3,107.5,261.5,119.5,263.6,127.9L263.6,127.9L263.6,127.9
		L263.6,127.9z M242.7,137.8c-1,9.4-1.7,13.9-2.2,13.9s-1.2-3.8-2.2-11.3c-1.2-7.2-5.3-16.1-12.5-26.9c-4.6-6.7-13.2-18-25.7-33.8
		c-14.2-17.5-24.7-31.2-31.9-41.3c-1.7-2.6-3.4-5.3-4.8-8.2s-2.6-5-3.4-6c-1.2-1.9-2.6-3.1-4.1-4.1c-0.7-0.5-1-1.2-1-2.4V8.1
		c0-1.9,0.2-2.9,1-2.9c0.5,0,1.2,0.5,2.4,1.2L177,20.8c2.2,1.4,3.1,2.6,3.1,3.6c0,0.5-0.7,0.7-1.9,0.7c-1.7,0-4.3-0.5-8.2-1.7
		c2.6,4.6,11,15.6,25.2,33.4c15.4,18.7,26.4,33.4,32.9,43.4C238.9,116.9,243.7,129.4,242.7,137.8L242.7,137.8L242.7,137.8
		L242.7,137.8z"/>
	<path class="st0" d="M192.1,96.5c0-1.7-2.6-4.6-7.9-8.6c-6.5-5-12.7-7.4-19-7.4c-12,0-24.5,10.8-36.7,31.9
		c4.3,1.4,8.9,2.2,13.4,2.2c7.7,0,15.6-1.4,24.2-4.1c6.7-2.2,13-5,18.5-8.2C189.7,99.4,192.1,97.4,192.1,96.5L192.1,96.5L192.1,96.5
		L192.1,96.5z M39.9,190.3c-14.6,0-25.4-5-32.2-14.9c-5.3-7.7-7.7-17.3-7.7-29c0-3.6,0.2-7,0.7-10.6c1-5.5,2.2-10.3,3.6-14.2
		c0.5-1.4,1.2-2.2,1.7-2.2s0.5,1,0.2,2.4C3.8,134,2.8,141,2.8,142.4c0,7.4,2.4,14.4,7.4,20.6c6.7,8.2,16.6,12.5,29.3,12.5
		c11.5,0,23.5-2.6,36-7.9c10.3-4.3,19.7-9.6,28.1-15.8c7.4-5.8,11-9.8,11-12.2c0-8.2-2.4-16.8-7-26.2c-1-1.7-1.4-3.1-1.4-4.1
		c0-0.7,1-4.1,2.9-10.3c0.5-1.2,0.7-1.7,1.2-1.7s1.2,0.7,1.9,2.4c2.2,4.8,6,8.4,11,10.6c9.4-14.9,15.6-24.2,18.5-27.6
		c8.9-11,18-16.6,27.1-16.6c7.4,0,14.4,2.6,20.6,8.2c5.3,4.8,7.9,9.1,7.9,13c0,2.9-0.7,6.7-2.2,10.8c-1.4,4.3-2.9,7.4-4.8,9.6
		c-3.1,3.8-8.9,7.9-16.8,12c-11.3,6-23.3,9.1-35.3,9.1c-6.2,0-12.5-1.4-19.2-4.3c0,15.4-2.2,25.7-6.7,30.7
		c-6.2,7.4-15.8,14.6-28.3,21.6C68.5,185.8,53.6,190.3,39.9,190.3L39.9,190.3L39.9,190.3L39.9,190.3z"/>
	<path class="st0" d="M294.6,84.7c-0.2-0.2-0.2-0.5,0-1l4.6-9.6c0.2-0.5,0.7-0.7,1-0.7c0.5,0,2.6,1.2,6.2,3.6
		c3.8,2.6,5.8,4.1,5.8,4.6c0,1.7-1.7,5-5,10.3c-0.5,0.7-0.7,1-1.2,0.7C302.3,89.8,298.4,87.1,294.6,84.7L294.6,84.7L294.6,84.7
		L294.6,84.7z"/>
	<path class="st0" d="M350.5,22.1c0-1.2-2.4-3.4-7.4-6.2c-1.7,2.9-2.4,5.5-2.4,7.9c0,1.4,0.7,2.4,2.2,2.4c1.2,0,2.6-0.5,4.3-1.4
		C348.8,24,350,23,350.5,22.1L350.5,22.1L350.5,22.1L350.5,22.1z M345.2,2.9c0.7-1.2,1.7-1.7,2.4-1.7c0.5,0,1,0.2,1,0.7
		c0,0-0.2,0.2-0.2,0.5c-1,2.2-1.9,4.6-2.6,7c5,3.6,7.4,7.4,7.2,11c-0.5,4.1-1,6.7-1.7,7.7c-2.4,2.9-5,4.6-8.4,4.6
		c-3.4,0-4.8-2.2-4.8-6c0-0.7,0-1.7,0.2-2.6C339.5,16.3,341.9,9.4,345.2,2.9L345.2,2.9L345.2,2.9L345.2,2.9z"/>
	<path class="st0" d="M391.1,180c-0.5,2.2-1,3.4-1.7,4.1c-2.6,1.7-8.6,5.5-17.8,11.8c-0.2,0.2-0.7,0.5-1.2,1
		c-0.2-0.2-0.2-0.2-0.2-0.7l0.5-3.1c0.2-0.7,1.7-2.2,4.6-4.3c-3.6-1.2-5.3-2.9-5.3-4.8c0-2.2,0.7-4.3,2.6-6.5
		c3.6-4.3,6.7-6.5,9.1-6.5c2.2,0,3.1,1.2,3.1,3.6c0,1.4-0.5,2.9-1.7,4.8c-0.2,0.5-0.5,0.5-1-0.2c-0.5-1.2-1.4-1.7-2.6-1.7
		c-0.7,0-1.7,0.2-2.9,1.2c-1.2,0.7-1.9,1.4-1.9,1.9c0,0.7,0.7,1.4,2.2,2.2c1.4,1,2.6,1.2,3.6,1.2c0.7,0,2.2-0.5,4.3-1.7
		c1.4-1,2.6-1.9,4.1-2.9c1.2-0.5,1.9-1,2.2-0.7C391.3,178.6,391.3,179,391.1,180L391.1,180L391.1,180L391.1,180z"/>
	<path class="st0" d="M282.3,64.8c0-1.2-2.4-3.4-7.4-6.2c-1.7,2.9-2.4,5.5-2.4,7.9c0,1.4,0.7,2.4,2.2,2.4c1.2,0,2.6-0.5,4.3-1.4
		C280.7,66.7,281.9,65.8,282.3,64.8L282.3,64.8L282.3,64.8L282.3,64.8z M277.1,45.6c0.7-1.2,1.7-1.7,2.4-1.7c0.5,0,1,0.2,1,0.7
		c0,0-0.2,0.2-0.2,0.5c-1,2.2-1.9,4.6-2.6,7c5,3.6,7.4,7.4,7.2,11c-0.5,4.1-1,6.7-1.7,7.7c-2.4,2.9-5,4.6-8.4,4.6
		c-3.4,0-4.8-2.2-4.8-6c0-0.7,0-1.7,0.2-2.6C271.3,59,273.7,52.1,277.1,45.6L277.1,45.6L277.1,45.6L277.1,45.6z"/>
	<path class="st0" d="M319.3,189.4c0-0.2,0.2-0.5,0.2-0.5c0.2-0.2,0.2-0.2,0.2,0c0.2,0.2,0.2,0.5,0,0.7c-1.2,7.2-3.4,10.8-6.5,10.8
		c-3.1,0-4.6-2.6-4.6-7.9c0-6.5,1.7-13.4,5.5-20.4c1-1.7,1.4-2.6,1.7-2.6l0,0c0,0.2-0.2,1.2-0.7,2.9c-2.4,7.4-3.6,12.5-3.6,15.6
		c0,3.8,1,6,3.1,6C316.2,193.9,317.6,192.2,319.3,189.4L319.3,189.4L319.3,189.4L319.3,189.4z"/>
	<path class="st0" d="M193.8,19.2c9.6-3.4,19.9-7.2,31-11c1-0.2,1.2-0.5,1.4-0.2c0.2,0,0.2,0.5-0.2,1.2c-0.7,2.2-1.4,3.4-1.9,3.8
		c-9.6,3.4-20.4,7.4-32.6,13C191.9,23.8,192.6,21.6,193.8,19.2L193.8,19.2L193.8,19.2L193.8,19.2z"/>
	<path class="st0" d="M122,60.2c0.5-3.4,1.7-7.2,3.6-12c1.4-3.6,2.2-7.2,2.2-10.8c0-7-3.4-13.4-9.8-19.9c-0.5-0.5-0.5-1,0-1.4
		l2.2-3.8c0.2-0.5,0.5-0.5,1,0c6.2,5,9.6,12.5,9.6,22.3c0,4.6-1.2,9.6-3.1,14.6c-2.2,5.3-3.1,8.9-3.1,10.8c0,4.1,1,6.2,3.1,6.2
		c1.4,0,2.9-1.7,4.6-4.6c0-0.2,0.2-0.5,0.2-0.5c0.2-0.2,0.2-0.2,0.2,0c0,0,0,0.5,0,0.7c-1.2,7.2-3.4,10.8-6.5,10.8
		c-2.9,0-4.6-3.1-4.6-8.9C121.5,62.6,121.8,61.4,122,60.2L122,60.2L122,60.2L122,60.2z"/>
	<path class="st0" d="M94.9,187.4c18.5-6.7,37.7-13.9,57.8-21.4c0.7-0.2,1.2-0.5,1.4-0.2c0,0,0,0.5-0.2,1.2c-1,2.2-1.7,3.4-2.2,3.8
		c-16.8,6.2-36.7,13.9-59.3,23.3C93,192,93.7,189.8,94.9,187.4L94.9,187.4L94.9,187.4L94.9,187.4z"/>
	<path class="st0" d="M216.3,127.2c0,0.5-0.2,1.4-0.5,2.4c-0.5,1.4-1,2.2-1.7,2.2c-0.2,0-0.7-0.7-1.7-1.7c-0.7-1-1.7-1.4-2.4-1.4
		c-1.9,0-3.8,4.6-5.5,13.7c-0.7,4.1-1.4,6.7-2.4,8.4c-0.7,1.2-1.2,1.7-1.7,1.7c-0.2,0-0.5-0.5-0.5-1.4c0-1.7-1-4.8-2.9-9.4
		c-1.7-4.8-3.1-7-3.8-7c-0.5,0-1,0-1,0.5c-0.2,0.2-0.7,0.5-1.4,0.5c-1,0-2.2-0.7-3.6-1.9c-1.4-1.4-1.9-2.4-1.7-2.9
		c2.2-4.1,3.4-6,3.8-6c2.6,0,5.3,1.4,7.4,4.8c2.2,3.1,3.6,7.4,4.6,12.5c0,0.7,0,1,0,1c0.2,0.2,0.2,0.2,0.2,0c0,0,0.2-0.2,0.5-1
		c0.5-2.9,1.4-7.7,3.1-13.9c1.9-4.3,3.8-6.5,6.2-6.5c1,0,2.2,0.7,3.4,2.2C215.9,125.3,216.3,126.2,216.3,127.2L216.3,127.2
		L216.3,127.2L216.3,127.2z M185.6,130.8c0.5-1,1-1.4,1.2-1.4c0,0,0.2,0.2,0,0.2c0.2,0.7-0.5,2.4-1.9,5c-2.4,4.6-5.8,8.2-10.1,11.3
		c-4.6,3.4-8.6,5.8-12.2,7.4c-0.7,0.5-5,2.2-13,5c-1.2,0.5-1.9,0.7-2.4,0.7c-0.2,0-0.2-0.2-0.2-0.2c0-0.2,0.7-1,1.9-1.7
		c6.7-3.6,15.8-9.4,27.6-17.3C181.3,136.3,184.2,133.2,185.6,130.8L185.6,130.8L185.6,130.8L185.6,130.8z"/>
	<path class="st0" d="M181.1,179.8c0,2.6-1.2,5.5-3.1,8.6c-2.2,3.1-4.8,6-8.2,8.4c-1.4,1-2.2,1.4-2.4,1.4V198c0-0.2,0.5-0.7,1.4-1.9
		c5.5-6,8.4-9.8,8.4-12c0-1.7-1-2.6-2.6-2.6c-1,0-1.9,0.2-2.6,0.7c-0.7,0.2-1,0.5-1.2,0.5c0,0-0.2,0-0.2-0.2c0,0,0-0.5,0.2-1.4
		c1-4.1,2.9-6,6.2-6C179.6,175,181.1,176.6,181.1,179.8L181.1,179.8L181.1,179.8L181.1,179.8z"/>
	<path class="st0" d="M268.4,188.6c0-0.2,0.2-0.5,0.2-0.5c0.2-0.2,0.2-0.2,0.2,0c0.2,0.2,0.2,0.5,0,0.7c-1.2,7.2-3.4,10.8-6.5,10.8
		c-3.1,0-4.6-2.6-4.6-7.9c0-6.5,1.7-13.4,5.5-20.4c1-1.7,1.4-2.6,1.7-2.6l0,0c0,0.2-0.2,1.2-0.7,2.9c-2.4,7.4-3.6,12.5-3.6,15.6
		c0,3.8,1,6,3.1,6C265.3,193.2,266.7,191.5,268.4,188.6L268.4,188.6L268.4,188.6L268.4,188.6z"/>
	<path class="st0" d="M275.1,19.9c0-0.2,0.2-0.5,0.2-0.5c0.2-0.2,0.2-0.2,0.2,0c0.2,0.2,0.2,0.5,0,0.7c-1.2,7.2-3.4,10.8-6.5,10.8
		c-3.1,0-4.6-2.6-4.6-7.9c0-6.5,1.7-13.4,5.5-20.4c1-1.7,1.4-2.6,1.7-2.6l0,0c0,0.2-0.2,1.2-0.7,2.9c-2.4,7.4-3.6,12.5-3.6,15.6
		c0,3.8,1,6,3.1,6C272,24.5,273.5,22.8,275.1,19.9L275.1,19.9L275.1,19.9L275.1,19.9z"/>
	<path class="st0" d="M225.2,43.7c0,2.6-1.2,5.5-3.1,8.6c-2.2,3.1-4.8,6-8.2,8.4c-1.4,1-2.2,1.4-2.4,1.4v-0.2c0-0.2,0.5-0.7,1.4-1.9
		c5.5-6,8.4-9.8,8.4-12c0-1.7-1-2.6-2.6-2.6c-1,0-1.9,0.2-2.6,0.7c-0.7,0.2-1,0.5-1.2,0.5c0,0-0.2,0-0.2-0.2c0,0,0-0.5,0.2-1.4
		c1-4.1,2.9-6,6.2-6C223.8,38.9,225.2,40.6,225.2,43.7L225.2,43.7L225.2,43.7L225.2,43.7z"/>
	<path class="st0" d="M11.9,112.8c0-0.2,0.2-0.5,0.2-0.5c0.2-0.2,0.2-0.2,0.2,0c0.2,0.2,0.2,0.5,0,0.7c-1.2,7.2-3.4,10.8-6.5,10.8
		s-4.6-2.6-4.6-7.9c0-6.5,1.7-13.4,5.5-20.4c1-1.7,1.4-2.6,1.7-2.6l0,0c0,0.2-0.2,1.2-0.7,2.9c-2.4,7.4-3.6,12.5-3.6,15.6
		c0,3.8,1,6,3.1,6C8.7,117.4,10.2,115.7,11.9,112.8L11.9,112.8L11.9,112.8L11.9,112.8z"/>
	<path class="st0" d="M85.8,105.4c0,0.5-0.2,1.4-0.7,2.4c-0.2,1.4-0.7,2.2-1.4,2.2c-0.2,0-0.7-0.7-1.7-1.7c-0.7-1-1.7-1.4-2.4-1.4
		c-1.9,0-3.8,4.6-5.5,13.7c-0.7,4.1-1.4,7-2.4,8.6c-0.7,1-1.2,1.7-1.7,1.7c-0.2,0-0.5-0.7-0.5-1.7c0-1.7-1-4.8-2.9-9.4
		c-1.9-4.8-3.1-7-3.8-7s-1,0-1.2,0.5c0,0.2-0.5,0.5-1.2,0.5c-1,0-1.9-0.7-3.4-1.9c-1.2-1.2-1.9-2.2-1.9-2.9c0-0.2,0.5-1.4,1.7-3.4
		c1.2-1.9,1.9-2.6,2.2-2.6c2.6,0,5,1.4,7.2,4.8c2.4,3.4,3.8,7.4,4.8,12.7c0,0.5,0,0.7,0,1c0.2,0.2,0.2,0.2,0.2,0s0.2-0.5,0.5-1
		c0.2-3.1,1.4-7.9,3.1-14.2c1.9-4.3,3.8-6.5,6-6.5c1.2,0,2.4,0.7,3.6,2.2C85.3,103.4,85.8,104.4,85.8,105.4L85.8,105.4L85.8,105.4
		L85.8,105.4z M69.9,133c-1.7,3.8-5,7.7-10.1,11.3c-4.6,3.4-8.6,5.8-12.2,7.4c-0.7,0.5-5,2.2-13,5c-1.2,0.5-1.9,0.7-2.4,0.7
		c-0.2,0-0.2-0.2-0.2-0.2c0-0.2,0.7-1,1.9-1.7c6.5-3.8,15.6-9.4,27.6-17.3c2.9-2.2,5-4.3,6.7-6.2c1.9-2.2,2.9-3.4,3.1-3.4
		c0,0,0,0,0,0.2C71.4,129.1,70.9,130.6,69.9,133L69.9,133L69.9,133L69.9,133z"/>
	<path class="st0" d="M17.6,50.6c2.9,0,5.3,1.4,7.4,4.8c2.2,3.1,3.8,7.4,4.6,12.7c0.2,0.5,0.2,0.7,0.2,1H30c0-0.2,0.2-0.5,0.2-1
		c0.5-3.1,1.7-7.9,3.4-14.2c1.9-4.3,3.8-6.5,6-6.5c1.2,0,2.4,0.7,3.4,2.2c1,1.4,1.4,2.4,1.4,3.4c0,0.5,0,1.4-0.5,2.4
		c-0.5,1.4-1,2.2-1.4,2.2c-0.2,0-0.7-0.7-1.7-1.7c-0.7-1-1.7-1.4-2.6-1.4c-1.9,0-3.6,4.6-5.3,13.7c-0.7,4.1-1.7,7-2.4,8.6
		c-0.7,1-1.2,1.7-1.7,1.7s-0.5-0.7-0.7-1.7c0.2-1.7-0.7-4.8-2.6-9.4c-1.9-4.8-3.1-7-4.1-7c-0.5,0-0.7,0-1,0.5
		c-0.2,0.2-0.5,0.5-1.2,0.5c-1,0-1.9-0.7-3.4-1.9c-1.4-1.2-1.9-2.2-1.9-2.9c0-0.2,0.5-1.4,1.7-3.4C16.7,51.4,17.4,50.6,17.6,50.6
		L17.6,50.6L17.6,50.6L17.6,50.6z"/>
	<path class="st0" d="M102.8,58.8c0,3.6-1.9,6.7-5.5,9.6c-3.6,2.6-7.7,4.1-12.2,4.1c-0.7,0-1.9-0.2-3.1-0.7
		c-1.2-0.2-2.2-0.5-2.9-0.5c-4.8,0-9.8,2.4-14.9,7.2c-3.6,3.6-7.2,7.2-10.8,10.8c-2.2,1.7-4.3,2.9-6.7,3.6c-2.6,0.7-4.1,1.2-4.6,1.2
		v-0.2c0,0,1-0.7,2.9-1.9c1.9-1.2,4.8-3.1,8.9-6.2c1.9-1.9,4.8-5,8.4-9.1c2.4-3.1,5-5.5,7.9-7.7c3.4-2.4,6.2-3.8,9.1-4.3
		c-0.5,0.2,1.4,0.2,5,0.2c2.2-2.2,4.6-4.3,6.7-6.5c2.9-2.6,5.3-3.8,7.2-3.8C101.4,54.5,102.8,55.9,102.8,58.8L102.8,58.8L102.8,58.8
		L102.8,58.8z M100.4,61c-0.5-1.4-1.9-1.9-4.3-1.9c-2.2,0-5.5,2.2-9.8,6.5c0.5,0,1,0.2,1.4,0.2c2.4,0,5-0.7,7.7-1.9
		C98,62.9,99.7,61.9,100.4,61L100.4,61L100.4,61L100.4,61z"/>
	<path class="st0" d="M81.2,36.5c0-0.2,0.2-0.5,0.2-0.5c0.2-0.2,0.2-0.2,0.2,0c0.2,0.2,0.2,0.5,0,0.7c-1.2,7.2-3.4,10.8-6.5,10.8
		s-4.6-2.6-4.6-7.9c0-6.5,1.7-13.4,5.5-20.4c1-1.7,1.4-2.6,1.7-2.6l0,0c0,0.2-0.2,1.2-0.7,2.9c-2.4,7.4-3.6,12.5-3.6,15.6
		c0,3.8,1,6,3.1,6C78.1,41,79.5,39.4,81.2,36.5L81.2,36.5L81.2,36.5L81.2,36.5z"/>
	<path class="st0" d="M586.2,112.1c1.2-1,2.2-1.4,2.9-1.4c0.5,0,0.7,0.5,0.7,1.4c0,0.7-0.2,2.2-0.7,4.1s-0.7,3.4-0.7,4.6
		c0,5.3,3.8,8.2,11.3,8.2c6,0,11-2.6,14.9-7.7c2.4-4.1,5-7.9,7.4-11.8c1-1,1.7-1.4,2.4-1.4c1,0,1.2,1,0.7,3.1c-1,4.1-1.7,6-1.7,5.5
		c0,1.7,1,3.4,2.9,4.8c1.7,1.4,4.1,2.4,6.7,2.4c3.4,0,5.5-1,6.5-2.6c0-0.2-1-2.2-3.1-5.8c0.2-1.9,1.2-5.3,2.6-9.8
		c0.2-1.4,0.7-2.2,1.2-2.2s1,0.2,1.7,1.2c1.9,2.9,3.1,6.2,3.1,10.1c0,6-1.4,11-4.1,15.4c-2.9,5.3-7.2,7.9-13,7.9
		c-3.8,0-7.4-3.1-10.6-8.9c-5.3,9.6-12.2,14.4-20.6,14.4c-10.1,0-14.9-5.8-14.9-16.8c-3.8,4.6-10.3,8.6-18.7,12.5V126
		c6.2-3.1,10.3-5,11.5-5.8C578.5,118.3,582.3,115.4,586.2,112.1L586.2,112.1L586.2,112.1L586.2,112.1z"/>
	<path class="st0" d="M549.5,127.9c-3.6-4.6-6.7-6.7-9.6-6.7c-4.3,0-6.2,1-6.2,3.4c0,2.9,2.9,4.3,8.6,4.3
		C544.4,128.9,546.8,128.4,549.5,127.9L549.5,127.9L549.5,127.9L549.5,127.9z M556.9,145.4c0-1.4-0.5-3.1-1-4.8
		c-2.9,1-7.2,1.7-12.5,1.7c-11.5,0-17.3-4.1-17.3-12c0-6,1.7-11.3,5.5-16.1c3.6-4.1,7.4-6.2,11.5-6.2c3.1,0,6.2,1.9,9.8,5.5
		c3.1,3.6,6,7.7,8.4,12.7c0.2,0,0.7,0,1.7-0.5V139l-0.5,0.5c0,2.9-0.7,6.2-2.2,10.6c-1.7,5.5-4.3,10.1-7.4,13.7
		c-7.2,8.6-15.1,16.1-23.8,22.6c-13,9.6-24,14.6-33.6,14.6c-8.2,0-14.4-3.1-18.7-9.1c-3.8-5-5.8-11.8-5.8-19.7
		c0-10.1,2.2-20.4,6.2-31.2c1.2-2.4,1.7-3.4,2.2-3.4c0.2,0,0.2,0.2,0.2,0.7c0,0.7-0.2,1.9-0.5,3.4c-3.1,10.6-4.6,18.5-4.6,24
		c0,5,1.2,9.4,3.6,13c3.8,5,9.8,7.7,18.2,7.7c7.2,0,15.8-3.1,26.2-9.4c8.2-5,16.1-11,23.8-18.2C553.3,151.9,556.9,147.6,556.9,145.4
		L556.9,145.4L556.9,145.4L556.9,145.4z"/>
	<path class="st0" d="M491.4,109.2c-0.5-2.2-1.2-3.8-2.2-5c-0.7-1.4-1.2-2.2-1.4-2.6c0-0.5,0-2.2,0.5-5.5c0.5-3.1,0.7-5.3,1.2-6.5
		c0.2-1.2,0.5-1.7,1-1.7c0.2,0,0.5,0.2,1,0.7c3.4,3.8,7,7.7,11,11.8c1.7,1.7,2.4,2.6,2.4,3.1c0,0.2-0.2,0.5-0.7,0.5
		c-0.7,0-2.6-0.5-5.5-1.2c1.7,4.1,3.6,8.2,5.3,12c2.6,6.7,4.1,12.2,4.1,17.3c0,2.4-0.5,5.3-1.4,8.9c-1.2,4.1-2.6,7.2-4.6,9.4
		c-7,7.9-18.7,16.6-35.3,25.9c-14.4,8.4-22.8,12.5-25.4,12.5c-0.5,0-7.7,1.7-21.4,5c-14.4,3.4-23.5,5.5-27.1,6c-3.8,0.7-6.2,1-7.2,1
		c-0.5,0-0.5,0-0.5-0.2s2.6-1.7,7.9-4.1c1.9-1,13-5.8,33.4-14.4c14.2-6,25.9-11.5,35.3-16.6c14.2-7.7,25-14.4,32.4-19.9
		c5.5-4.3,8.4-7.4,8.4-9.4c0-0.5-1.4-3.8-4.3-10.1C495,119,492.6,113.3,491.4,109.2L491.4,109.2L491.4,109.2L491.4,109.2z"/>
	<path class="st0" d="M471.7,75.8c0,3.8-1.9,9.1-5.8,15.6c-2.4,4.1-6,9.6-10.8,16.8c4.8,5.5,8.2,10.6,9.8,14.9
		c1,3.1,1.7,7.2,1.7,11.8c0,1.9-0.5,4.3-1.4,7.4c-0.7,2.9-1.7,5-2.6,6.5c-1.9,2.9-5,5.8-9.8,8.6c-5,3.4-9.4,5-13,5
		c-5.8,0-8.6-4.3-8.6-13c0-5.8,1-11.5,2.9-16.8c1.9-4.6,5-10.6,10.1-18.5c-4.3-4.1-8.9-9.8-13.9-17c-0.5-0.7-1.7-1.9-3.6-3.8
		c-1-1-1.4-2.2-1.4-3.6c0-2.2,0.2-4.6,0.7-7.4c0.7-2.9,1.2-4.1,1.4-4.1c0.7,0,2.9,1.2,7,3.8c3.8,2.6,7,4.6,8.9,6.2
		c1.2,0.7,1.7,1.4,1.7,1.4v0.2c0,0.2-0.7,0.5-2.4,0.5c-3.1,0-4.8,0.2-4.8,0.5c0,0.2,0.5,0.7,1.4,1.9c3.8,4.8,7.7,8.4,11.8,11.3
		c1-1.4,4.3-6.2,9.6-14.4c4.6-7,7.2-11.8,8.4-14.6c1.2-2.9,1.9-4.1,2.4-4.1C471.5,71,471.7,72.5,471.7,75.8L471.7,75.8L471.7,75.8
		L471.7,75.8z M462.3,134.9c-2.6-5.3-7.2-10.8-13.4-16.1c-2.2,2.2-4.8,6.2-8.2,12c-3.8,6.5-5.5,10.6-5.5,12.7c0,2.9,1.9,4.3,6.2,4.3
		c1.9,0,4.3-0.7,7.4-1.9c4.3-1.9,8.4-4.6,11.8-7.9C462.1,136.6,462.6,135.6,462.3,134.9L462.3,134.9L462.3,134.9L462.3,134.9z"/>
	<path class="st0" d="M448.9,57.8l3.8-7.9c0.2-0.5,0.5-0.7,1-0.7s2.4,1.2,6.2,3.8c3.6,2.4,5.5,3.8,5.5,4.3c0,1.7-1.7,5.3-4.8,10.6
		c-0.5,0.7-1,0.7-1.4,0.5c-3.1-2.4-6.7-4.8-10.8-7.4c-1.4,2.9-2.6,5.5-4.1,7.7c-0.2,0.7-0.7,1-1.2,0.7c-3.6-2.9-7.4-5.5-11.3-7.9
		c-0.2-0.2-0.2-0.5,0-1l4.6-9.6c0.2-0.5,0.7-1,1-1c0.5,0,2.2,1.2,5.3,3.4C445.8,55.2,447.9,56.9,448.9,57.8L448.9,57.8L448.9,57.8
		L448.9,57.8z"/>
	<path class="st0" d="M575.4,191.5c-2.6,0.7-4.1,1.2-4.6,1.2v-0.2c0,0,1-0.7,2.9-1.9c1.9-1.2,4.8-3.1,8.9-6.2c1.9-1.9,4.8-5,8.4-9.4
		c2.4-2.9,5-5.5,7.9-7.4c3.6-2.6,7-3.8,10.6-3.8c0.7,0,1.9,0.2,3.4,0.7c1.2,0.5,2.4,0.7,3.4,0.7c1.9,0,3.4-0.7,4.6-2.2
		c0.7-1.4,1.7-2.6,2.6-4.1c0.5-1,1.2-1.4,1.7-1.4c0.2,0,0.2,0.2,0.2,0.7s-0.2,1.7-0.7,3.1c-0.5,0.7,1.4,1,5,1c0.5,0,0.7,0,0.7-0.2
		c0,0-0.2-1-0.7-2.6c-0.2-0.5,0-1.2,0.7-2.2c1-1.7,1.4-2.4,1.7-2.2c1,0.7,1.4,2.2,1.4,3.8c0,1.7-0.5,3.4-1.2,5.3
		c-0.7,2.2-1.4,3.4-1.9,3.8c-1.7,1-4.3,0.7-7.9-1c-2.9,2.9-5.8,4.6-8.6,4.6c-0.7,0-1.9-0.2-3.1-0.7c-1.2-0.5-2.2-0.7-2.9-0.7
		c-4.8,0-9.8,2.2-14.9,7c-3.6,3.6-7.2,7.2-10.8,10.8C579.9,189.6,577.8,190.8,575.4,191.5L575.4,191.5L575.4,191.5L575.4,191.5z"/>
	<path class="st0" d="M523.8,61.9c2.9,0,5.3,1.4,7.4,4.8c2.2,3.1,3.8,7.4,4.6,12.7c0.2,0.5,0.2,0.7,0.2,1h0.2c0-0.2,0.2-0.5,0.2-1
		c0.5-3.1,1.7-7.9,3.4-14.2c1.9-4.3,3.8-6.5,6-6.5c1.2,0,2.4,0.7,3.4,2.2c1,1.4,1.4,2.4,1.4,3.4c0,0.5,0,1.4-0.5,2.4
		c-0.5,1.4-1,2.2-1.4,2.2c-0.2,0-0.7-0.7-1.7-1.7c-0.7-1-1.7-1.4-2.6-1.4c-1.9,0-3.6,4.6-5.3,13.7c-0.7,4.1-1.7,7-2.4,8.6
		c-0.7,1-1.2,1.7-1.7,1.7s-0.5-0.7-0.7-1.7c0.2-1.7-0.7-4.8-2.6-9.4c-1.9-4.8-3.1-7-4.1-7c-0.5,0-0.7,0-1,0.5
		c-0.2,0.2-0.5,0.5-1.2,0.5c-1,0-1.9-0.7-3.4-1.9c-1.4-1.2-1.9-2.2-1.9-2.9c0-0.2,0.5-1.4,1.7-3.4C522.8,62.6,523.5,61.9,523.8,61.9
		L523.8,61.9L523.8,61.9L523.8,61.9z"/>
	<path class="st0" d="M483.2,59c24.2-9.1,49.4-18.2,75.4-27.8c0.7-0.2,1.2-0.5,1.2-0.2c0.2,0,0.2,0.5,0,1.2c-1,2.2-1.7,3.4-2.2,3.8
		c-0.2,0.2-12.5,4.8-36.2,13.7c-24.2,8.9-37.9,14.4-40.6,16.1C481.3,63.6,482,61.4,483.2,59L483.2,59L483.2,59L483.2,59z"/>
	<path class="st0" d="M459.7,15.1c0.5-1.4,0.5-2.9,0.2-4.3c-0.2-1.4-1-2.2-2.2-2.2c-0.5,0-1.2,0.2-2.2,0.7s-1.4,1-1.4,1.4
		C454.2,12,456.1,13.4,459.7,15.1L459.7,15.1L459.7,15.1L459.7,15.1z M456.8,21.4c-4.6-2.4-6.7-4.8-6.7-7.4c0-3.1,1.4-6,4.3-8.4
		c2.9-2.6,5.3-3.6,7.2-2.9c1.7,0.5,2.4,2.2,2.4,5c0,2.6-0.5,5.5-1.7,8.9c2.4,1.2,3.8,2.4,4.3,3.4c0,1.2-1,3.4-3.1,6.2
		c-0.5-1-1.9-2.2-4.1-3.4c-2.6,3.6-5.8,6.7-9.6,9.6c-4.6,3.1-8.6,5.8-12.2,7.2c-1,0.5-5.3,2.2-13,5c-1.2,0.5-2.2,0.7-2.4,0.7
		c-0.2,0-0.2-0.2-0.2-0.2c0-0.2,0.5-1,1.9-1.7c5.8-3.6,11.5-7,17.5-10.3C448.4,28.8,453.5,25,456.8,21.4L456.8,21.4L456.8,21.4
		L456.8,21.4z"/>
	<path class="st0" d="M608.5,51.4c0.5-1.4,0.5-2.9,0.2-4.3c-0.2-1.4-1-2.2-2.2-2.2c-0.5,0-1.2,0.2-2.2,0.7s-1.4,1-1.4,1.4
		C603,48.2,604.9,49.7,608.5,51.4L608.5,51.4L608.5,51.4L608.5,51.4z M613.8,60.2c-2.4,5.8-3.6,10.3-3.6,13.7c0,4.1,1,6.2,3.1,6.2
		c1.2,0,2.6-1.7,4.3-4.6c0.2-0.2,0.2-0.5,0.5-0.7c0,0,0.2,0,0.2,0.2c0,0,0,0.2,0,0.7c-1.4,7.2-3.6,10.8-6.5,10.8
		c-3.1,0-4.6-2.6-4.6-7.9c0-2.6,0.5-6,1.9-10.3s2.2-6.5,2.2-6.7c0-0.5-1-1.4-3.1-2.6c-3.8,5-9.1,9.8-15.8,13.9
		c-4.6,2.6-9.1,5-13.9,7c-8.9,3.6-14.2,5.5-15.4,6.2c-1.2,0.5-1.9,0.7-2.4,0.7c-0.2,0-0.2-0.2-0.2-0.2c0-0.5,0.5-1,1.9-1.9
		c7.7-4.3,15.1-8.6,22.8-13c10.1-5.8,17-10.6,20.4-14.2c-4.6-2.4-6.7-4.8-6.7-7.4c0-3.1,1.4-6,4.3-8.6c2.9-2.4,5.3-3.4,7.2-2.6
		c1.4,0.5,2.4,2.2,2.4,5c0,2.6-0.5,5.5-1.7,8.6c2.4,1.4,3.4,2.9,3.4,4.3C614.5,57.6,614.3,58.8,613.8,60.2L613.8,60.2L613.8,60.2
		L613.8,60.2z"/>
	<path class="st0" d="M504.6,25.2c0-0.2,0.2-0.5,0.2-0.5c0.2-0.2,0.2-0.2,0.2,0c0.2,0.2,0.2,0.5,0,0.7c-1.2,7.2-3.4,10.8-6.5,10.8
		s-4.6-2.6-4.6-7.9c0-6.5,1.7-13.4,5.5-20.4c1-1.7,1.4-2.6,1.7-2.6l0,0c0,0.2-0.2,1.2-0.7,2.9c-2.4,7.4-3.6,12.5-3.6,15.6
		c0,3.8,1,6,3.1,6C501.5,29.8,502.9,28.1,504.6,25.2L504.6,25.2L504.6,25.2L504.6,25.2z"/>
</g>
</svg>
