<?xml version="1.0" encoding="utf-8"?>
<!-- Generator: Adobe Illustrator 24.0.0, SVG Export Plug-In . SVG Version: 6.00 Build 0)  -->
<svg version="1.1" id="Layer_1" xmlns="http://www.w3.org/2000/svg" xmlns:xlink="http://www.w3.org/1999/xlink" x="0px" y="0px"
	 viewBox="0 0 552.2 212.2" style="enable-background:new 0 0 552.2 212.2;" xml:space="preserve">
<style type="text/css">
	.st0{fill:#C4692C;}
</style>
<g>
	<path class="st0" d="M306.9,28.7c0-4.8-0.7-8.6-2.2-11.8c0-1.7,1.2-5.8,4.1-12c0.2-0.7,0.5-1.2,0.7-1.2c0.5,0,0.7,0.5,1.2,1.2
		c0.7,1.7,2.4,6.2,5.3,13.7c3.1,7.9,4.8,12.7,5.3,14.6c0.5,1.2,0.5,2.4,0.5,2.9c0,2.2-1.9,1-6.2-3.8c-0.5-0.7-0.7-0.2-0.7,1
		c0,0.5,1.2,15.4,3.4,45.1c2.2,29.5,3.1,46.1,3.1,49.9c0,11.3-1.7,21.4-5,30c-1,1.7-1.4,2.9-1.9,3.8l0,0c-0.7,1.2-1,1.2-1.2,0.5
		c-0.2-1,0-2.9,0.2-5.5c0.5-4.1,0.7-8.6,0.7-13.7c0-4.8-1.2-24-3.6-57.8C308.1,51.7,306.9,32.8,306.9,28.7L306.9,28.7L306.9,28.7
		L306.9,28.7z"/>
	<path class="st0" d="M298.5,113.4c0,14.2-2.6,25.2-7.7,33.4c-4.3,6.7-9.4,10.3-15.1,10.3v-14.6c4.6,0,9.1-1.9,13.4-5.5
		c1.2-1,1.9-5,1.9-11.8c0-4.1-1.2-20.6-3.4-49.4c-2.2-28.8-3.1-45.8-3.1-51.1c0-4.6-0.7-8.4-2.2-11.5c0-1.7,1.4-5.8,4.1-12.2
		c0.2-0.7,0.5-1,1-1c0.2,0,0.5,0.2,1,1.2c0.7,1.7,2.6,6.2,5.5,13.7c2.9,7.9,4.6,12.7,5.3,14.4c0.2,1.4,0.5,2.6,0.5,3.1
		c0,2.2-2.2,1-6.2-3.8c-0.5-0.5-0.7-0.2-0.7,1c0,0.2,1,13.2,2.9,38.6C297.6,93.3,298.5,108.4,298.5,113.4L298.5,113.4L298.5,113.4
		L298.5,113.4z"/>
	<path class="st0" d="M180.2,85.6c7,3.1,13.7,6.7,20.4,10.6c16.1,9.1,30.2,18.5,42.5,28.6c7.7,6.5,12.7,10.3,15.1,11.8
		c6,4.1,11.8,6,17.3,6v14.5c-5.5,0-10.6-1.2-14.9-3.8c-2.6-1.4-6.5-4.6-11.5-9.1c-5.8-5.3-10.6-9.1-14.4-11.8c-1-0.7-1.4-1-1.7-1
		c-0.2,0,0,0.7,0.7,1.9c2.2,5,3.1,8.6,3.1,11c0,8.4-2.4,14.6-7.2,19c-3.4,2.9-11,7-23,12.2v-13.2c6.7-3.1,11.3-4.8,13-5.8
		c5.8-2.6,9.8-5,12.2-7c1.2-1,1.4-2.2,1-3.4c-2.2-6.5-8.6-13.9-19.7-22.6c-12.2-9.6-24.7-19.4-37.2-29c-0.2-0.2-0.5-1.2-0.5-2.9
		c0-3.1,0.5-6.7,1.7-11c1.2-4.6,2.4-7.7,3.8-8.9c8.4-7.4,26.2-17.3,53.5-29.5c27.6-12.5,45.8-18.5,54.7-18.5c2.6,0,4.6,0.5,5.5,1.4
		c1,1.2,1.4,2.9,1.4,5.5c0,5.8-3.4,13-10.3,21.6c-2.6,2.9-5.3,5.8-7.9,8.9c-4.1,4.8-7,8.6-8.4,11.8c-1,2.2-1.7,3.1-1.9,3.1
		s0-1.4,0.5-4.1c0.2-1.7,1.4-4.3,3.4-7.9c1.9-3.4,3.4-5.5,4.3-6.7c7.7-8.9,12.5-14.6,13.9-17.5c0.2-0.2,0.2-0.5,0.2-0.7
		c0-1.7-2.2-2.6-6.5-2.6c-7.2,0-23.8,6-49.7,17.8c-26.2,12.2-44.2,22.1-53.8,29.8C179.5,84.6,179.5,85.1,180.2,85.6L180.2,85.6
		L180.2,85.6L180.2,85.6z"/>
	<path class="st0" d="M188.4,147c0-3.1-1.4-8.2-4.3-15.1c-5.3,13.7-8.4,22.8-8.9,27.4C184.1,155.9,188.4,151.8,188.4,147L188.4,147
		L188.4,147L188.4,147z M206.4,195c-1.9-2.9-5.3-5.5-10.6-8.2c-4.8-2.4-8.9-3.6-12-4.1c1.7,4.3,4.1,8.2,7.4,11
		c3.8,3.4,7.4,5.3,11.3,5.3c3.4,0,5-0.7,5-1.7C207.6,196.7,207.1,196,206.4,195L206.4,195L206.4,195L206.4,195z M186.9,166.9
		c10.3-1.7,16.8-3.4,19.7-4.6v13.2c-1.7,0.7-3.1,1-4.1,1.2c2.9,1.2,5.5,3.4,7.4,6.5s3.1,6.2,3.1,9.6c0,13-4.8,19.4-14.2,19.4
		c-5.8,0-11.5-2.9-16.8-8.6c-5.8-6.2-9.4-14.2-10.6-23.5c0-0.7-0.5-1.2-1.4-1c-1,0-1.4,0-1.7-0.2c-0.2-0.2-0.2-0.5-0.2-1.2
		c0-1,0.2-1.4,0.2-1.2c0-0.5-0.2-0.5-1-0.2c-5,1.4-10.8,2.4-17,2.4v-14.6c6.2,0,13.2-1.2,21.1-3.6c2.2-8.4,5.3-18.7,9.1-30.7
		c0.7-1.9,2.4-6.5,5-13.9c0.7-1.2,1.2-1.7,1.7-1.7c0.7,0,1.2,0.7,1.2,2.6c0.2,1.7,0.7,6,1.9,13c1.2,6.2,1.7,10.3,1.7,12.2
		C192.2,153.5,190.3,161.9,186.9,166.9L186.9,166.9L186.9,166.9L186.9,166.9z"/>
	<path class="st0" d="M133.2,136.5c0-1.9-1.2-4.6-3.4-8.2c-2.2-4.1-4.3-6-6.2-6c-1.7,0-3.1,1-4.6,2.9c-1.4,1.7-2.2,3.8-2.2,6
		c0,1.4,0.7,3.8,1.9,7c1,3.4,2.2,5.8,3.4,7.4c1.9-1,4.1-2.6,6.7-4.6C131.7,138.9,133.2,137.4,133.2,136.5L133.2,136.5L133.2,136.5
		L133.2,136.5z M127.7,153.7c5,6.7,12.7,10.3,23,10.3v14.6c-6.7,0-12.2-1.2-16.8-3.8c-5.5-2.9-10.3-8.4-14.4-16.1
		c-7,4.3-16.8,9.1-29.3,13.9c-19.9,7.9-37.7,11.8-53.5,11.8C12.2,184.4,0,172.2,0,147.7c0-9.4,1.4-17.3,4.3-23.5
		c1.2-2.6,2.2-3.8,2.6-3.8c0,0,0.2,0.2,0.2,0.7c0,0.7-0.2,1.9-0.7,3.6c-1.9,7.9-3.1,13.2-3.1,15.8c0,10.3,4.3,18.2,12.7,23.5
		c6.5,3.8,14.2,5.8,23.3,5.8c15.6,0,32.4-3.4,50.4-9.8c10.6-3.8,19.2-7.7,26.2-11.8c-2.6-6.5-3.8-11.5-3.8-14.9c0-7,1.7-13,4.6-18.2
		c2.6-4.8,5.8-7.2,8.9-7.4c3.1,0.2,6.2,2.6,9.1,7.9c2.6,4.8,3.8,9.6,3.8,14.2C138.5,141,134.9,148.9,127.7,153.7L127.7,153.7
		L127.7,153.7L127.7,153.7z"/>
	<path class="st0" d="M108.7,90.1c-0.2-0.2-0.2-0.5,0-1l4.6-9.6c0.2-0.5,0.7-0.7,1-0.7c0.5,0,2.6,1.2,6.2,3.6
		c3.8,2.6,5.8,4.1,5.8,4.6c0,1.7-1.7,5-5,10.3c-0.5,0.7-0.7,1-1.2,0.7C116.4,95.2,112.5,92.5,108.7,90.1L108.7,90.1L108.7,90.1
		L108.7,90.1z"/>
	<path class="st0" d="M199.4,25.8c18.5-6.7,37.7-13.9,57.8-21.4c0.7-0.2,1.2-0.5,1.4-0.2c0,0,0,0.5-0.2,1.2c-1,2.2-1.7,3.4-2.2,3.8
		c-16.8,6.2-36.7,13.9-59.3,23.3C197.5,30.4,198.2,28.2,199.4,25.8L199.4,25.8L199.4,25.8L199.4,25.8z"/>
	<path class="st0" d="M276.9,106.2c0-1.2-2.4-3.4-7.4-6.2c-1.7,2.9-2.4,5.5-2.4,7.9c0,1.4,0.7,2.4,2.2,2.4c1.2,0,2.6-0.5,4.3-1.4
		C275.3,108.1,276.5,107.2,276.9,106.2L276.9,106.2L276.9,106.2L276.9,106.2z M271.7,87c0.7-1.2,1.7-1.7,2.4-1.7c0.5,0,1,0.2,1,0.7
		c0,0-0.2,0.2-0.2,0.5c-1,2.2-1.9,4.6-2.6,7c5,3.6,7.4,7.4,7.2,11c-0.5,4.1-1,6.7-1.7,7.7c-2.4,2.9-5,4.6-8.4,4.6
		c-3.4,0-4.8-2.2-4.8-6c0-0.7,0-1.7,0.2-2.6C265.9,100.5,268.3,93.5,271.7,87L271.7,87L271.7,87L271.7,87z"/>
	<path class="st0" d="M162.2,110.8c0-1.2-2.4-3.4-7.4-6.2c-1.7,2.9-2.4,5.5-2.4,7.9c0,1.4,0.7,2.4,2.2,2.4c1.2,0,2.6-0.5,4.3-1.4
		C160.5,112.7,161.7,111.7,162.2,110.8L162.2,110.8L162.2,110.8L162.2,110.8z M156.9,91.6c0.7-1.2,1.7-1.7,2.4-1.7
		c0.5,0,1,0.2,1,0.7c0,0-0.2,0.2-0.2,0.5c-1,2.2-1.9,4.6-2.6,7c5,3.6,7.4,7.4,7.2,11c-0.5,4.1-1,6.7-1.7,7.7c-2.4,2.9-5,4.6-8.4,4.6
		s-4.8-2.2-4.8-6c0-0.7,0-1.7,0.2-2.6C151.2,105,153.6,98.1,156.9,91.6L156.9,91.6L156.9,91.6L156.9,91.6z"/>
	<path class="st0" d="M61.7,198.1c18.5-6.7,37.7-13.9,57.8-21.4c0.7-0.2,1.2-0.5,1.4-0.2c0,0,0,0.5-0.2,1.2c-1,2.2-1.7,3.4-2.2,3.8
		c-16.8,6.2-36.7,13.9-59.3,23.3C59.7,202.7,60.5,200.5,61.7,198.1L61.7,198.1L61.7,198.1L61.7,198.1z"/>
	<path class="st0" d="M182.4,43.3c-1.2-2.9-3.4-4.8-6.5-6c0,2.6-0.2,4.8-1,6.5c0.5,0,2.9,0.5,7.2,1c0.2,0,0.5,0,0.5,0
		C182.9,44.5,182.9,44.1,182.4,43.3L182.4,43.3L182.4,43.3L182.4,43.3z M172.8,43.3c0.5-1.4,0.5-2.9,0-4.6c-0.5-1.7-1.2-2.4-2.4-2.4
		c-0.5,0-1.4,0.5-2.6,1.4c-1,1.2-1.7,2.2-1.7,2.6C166.1,41.9,168.2,42.9,172.8,43.3L172.8,43.3L172.8,43.3L172.8,43.3z M165.8,35.7
		c-1-3.1-0.7-5.3,0.5-6.5c1-1,2.2-1.4,3.4-1.4c1.4,0,2.9,0.2,4.6,1.2c5.8,3.1,9.6,7,11.5,11.5c0,0.2,0.2,0.7,0.2,1.2
		c0,1.7-0.5,3.4-1.7,5.5c-1,1.9-1.9,2.9-2.9,2.9c-0.2,0-2.9-0.2-7.9-0.7c-2.6,3.6-5.8,6.7-9.6,9.4c-4.3,3.4-8.4,5.8-12.2,7.4
		c-0.7,0.5-5,2.2-13,5c-1.2,0.5-1.9,0.7-2.4,0.7c-0.2,0-0.2-0.2-0.2-0.2c0-0.2,0.7-1,1.9-1.7c5.8-3.4,11.5-6.7,17.3-10.1
		c6.5-4.1,11.5-7.7,15.1-11c-4.3-1-6.5-3.1-6.5-6.2C163.9,40.2,164.4,37.8,165.8,35.7L165.8,35.7L165.8,35.7L165.8,35.7z"/>
	<path class="st0" d="M278.4,178.7c0,0.5,0.2,0.7,0.2,1.2c0,1.7-0.5,3.4-1.7,5.5c-1,2.2-1.9,3.1-2.6,3.1c0.7,0-2.2-0.5-8.2-1.4
		c-2.2,3.8-4.6,6.7-7,8.9c-1.9,1.7-5,3.6-9.1,5.5c-1,0.5-1.7,1.2-1.7,1.7s0.5,0.7,1.2,1c2.6,0.7,6.2,1,11.3,0.2
		c2.2-0.2,7.2-1.2,15.4-3.1c1-0.2,1.4-0.2,1.4-0.2c0,0.2-1.4,1.2-4.6,3.4c-1.4,1-3.8,2.2-7.2,3.4c-4.8,1.7-9.1,2.6-13,2.6
		c-4.6,0-6.7-1.7-6.7-4.6c0-3.1,1.2-5.8,3.8-7.9c2.2-1.4,4.3-3.1,6.7-4.6c3.1-2.2,5.5-4.6,7-6.7c-4.8-1-7.2-2.6-7.2-5.8
		c0-1.9,0.5-4.3,1.9-7c-1-3.1-0.7-5.3,0.5-6.5c1-1,2.2-1.4,3.4-1.4c1.4,0,2.9,0.2,4.6,1.2C272.6,170.3,276.5,174.4,278.4,178.7
		L278.4,178.7L278.4,178.7L278.4,178.7z M275.3,181.6c-1.2-2.6-3.4-4.6-6.5-5.8c0,2.6-0.2,4.8-0.7,6.2c0.5,0.2,2.9,0.5,7,1
		c0.2,0.2,0.2,0.2,0.5,0C275.7,182.8,275.5,182.3,275.3,181.6L275.3,181.6L275.3,181.6L275.3,181.6z M265.7,181.6
		c0.2-1.4,0.2-2.9-0.2-4.3c-0.5-1.9-1.2-2.6-2.2-2.6c-0.7,0-1.4,0.5-2.6,1.7c-1.2,1-1.7,1.9-1.7,2.4
		C258.9,180.1,261.1,181.1,265.7,181.6L265.7,181.6L265.7,181.6L265.7,181.6z"/>
	<path class="st0" d="M132.2,13.1c2.9,0,5.3,1.4,7.4,4.8c2.2,3.1,3.8,7.4,4.6,12.7c0.2,0.5,0.2,0.7,0.2,1h0.2c0-0.2,0.2-0.5,0.2-1
		c0.5-3.1,1.7-7.9,3.4-14.2c1.9-4.3,3.8-6.5,6-6.5c1.2,0,2.4,0.7,3.4,2.2c1,1.4,1.4,2.4,1.4,3.4c0,0.5,0,1.4-0.5,2.4
		c-0.5,1.4-1,2.2-1.4,2.2c-0.2,0-0.7-0.7-1.7-1.7c-0.7-1-1.7-1.4-2.6-1.4c-1.9,0-3.6,4.6-5.3,13.7c-0.7,4.1-1.7,7-2.4,8.6
		c-0.7,1-1.2,1.7-1.7,1.7s-0.5-0.7-0.7-1.7c0.2-1.7-0.7-4.8-2.6-9.4c-1.9-4.8-3.1-7-4.1-7c-0.5,0-0.7,0-1,0.5
		c-0.2,0.2-0.5,0.5-1.2,0.5c-1,0-1.9-0.7-3.4-1.9c-1.4-1.2-1.9-2.2-1.9-2.9c0-0.2,0.5-1.4,1.7-3.4C131.3,13.8,132,13.1,132.2,13.1
		L132.2,13.1L132.2,13.1L132.2,13.1z"/>
	<path class="st0" d="M35.5,52c2.9,0,5.3,1.4,7.4,4.8c2.2,3.1,3.8,7.4,4.6,12.7c0.2,0.5,0.2,0.7,0.2,1h0.2c0-0.2,0.2-0.5,0.2-1
		c0.5-3.1,1.7-7.9,3.4-14.2c1.9-4.3,3.8-6.5,6-6.5c1.2,0,2.4,0.7,3.4,2.2c1,1.4,1.4,2.4,1.4,3.4c0,0.5,0,1.4-0.5,2.4
		c-0.5,1.4-1,2.2-1.4,2.2c-0.2,0-0.7-0.7-1.7-1.7c-0.7-1-1.7-1.4-2.6-1.4c-1.9,0-3.6,4.6-5.3,13.7c-0.7,4.1-1.7,7-2.4,8.6
		c-0.7,1-1.2,1.7-1.7,1.7s-0.5-0.7-0.7-1.7c0.2-1.7-0.7-4.8-2.6-9.4c-1.9-4.8-3.1-7-4.1-7c-0.5,0-0.7,0-1,0.5
		c-0.2,0.2-0.5,0.5-1.2,0.5c-1,0-1.9-0.7-3.4-1.9c-1.4-1.2-1.9-2.2-1.9-2.9c0-0.2,0.5-1.4,1.7-3.4C34.5,52.7,35.3,52,35.5,52
		L35.5,52L35.5,52L35.5,52z"/>
	<path class="st0" d="M90.5,95.2c0,0.5-0.2,1.4-0.7,2.4c-0.2,1.4-0.7,2.2-1.4,2.2c-0.2,0-0.7-0.7-1.7-1.7c-0.7-1-1.7-1.4-2.4-1.4
		c-1.9,0-3.8,4.6-5.5,13.7c-0.7,4.1-1.4,7-2.4,8.6c-0.7,1-1.2,1.7-1.7,1.7c-0.2,0-0.5-0.7-0.5-1.7c0-1.7-1-4.8-2.9-9.4
		c-1.9-4.8-3.1-7-3.8-7s-1,0-1.2,0.5c0,0.2-0.5,0.5-1.2,0.5c-1,0-1.9-0.7-3.4-1.9c-1.2-1.2-1.9-2.2-1.9-2.9c0-0.2,0.5-1.4,1.7-3.4
		c1.2-1.9,1.9-2.6,2.2-2.6c2.6,0,5,1.4,7.2,4.8c2.4,3.4,3.8,7.4,4.8,12.7c0,0.5,0,0.7,0,1c0.2,0.2,0.2,0.2,0.2,0s0.2-0.5,0.5-1
		c0.2-3.1,1.4-7.9,3.1-14.2c1.9-4.3,3.8-6.5,6-6.5c1.2,0,2.4,0.7,3.6,2.2C90,93.3,90.5,94.2,90.5,95.2L90.5,95.2L90.5,95.2
		L90.5,95.2z M74.6,122.8c-1.7,3.8-5,7.7-10.1,11.3c-4.6,3.4-8.6,5.8-12.2,7.4c-0.7,0.5-5,2.2-13,5c-1.2,0.5-1.9,0.7-2.4,0.7
		c-0.2,0-0.2-0.2-0.2-0.2c0-0.2,0.7-1,1.9-1.7c6.5-3.8,15.6-9.4,27.6-17.3c2.9-2.2,5-4.3,6.7-6.2c1.9-2.2,2.9-3.4,3.1-3.4
		c0,0,0,0,0,0.2C76.1,118.9,75.6,120.4,74.6,122.8L74.6,122.8L74.6,122.8L74.6,122.8z"/>
	<path class="st0" d="M13.9,110.1c0-0.2,0.2-0.5,0.2-0.5c0.2-0.2,0.2-0.2,0.2,0c0.2,0.2,0.2,0.5,0,0.7c-1.2,7.2-3.4,10.8-6.5,10.8
		c-3.1,0-4.6-2.6-4.6-7.9c0-6.5,1.7-13.4,5.5-20.4c1-1.7,1.4-2.6,1.7-2.6l0,0c0,0.2-0.2,1.2-0.7,2.9c-2.4,7.4-3.6,12.5-3.6,15.6
		c0,3.8,1,6,3.1,6C10.8,114.6,12.2,112.9,13.9,110.1L13.9,110.1L13.9,110.1L13.9,110.1z"/>
	<path class="st0" d="M102.5,39.7c0-0.2,0.2-0.5,0.2-0.5c0.2-0.2,0.2-0.2,0.2,0c0.2,0.2,0.2,0.5,0,0.7c-1.2,7.2-3.4,10.8-6.5,10.8
		s-4.6-2.6-4.6-7.9c0-6.5,1.7-13.4,5.5-20.4c1-1.7,1.4-2.6,1.7-2.6l0,0c0,0.2-0.2,1.2-0.7,2.9c-2.4,7.4-3.6,12.5-3.6,15.6
		c0,3.8,1,6,3.1,6C99.3,44.3,100.8,42.6,102.5,39.7L102.5,39.7L102.5,39.7L102.5,39.7z"/>
	<path class="st0" d="M238.3,66.1c2.4,0,3.1,1,2.6,2.9c-0.7,2.2-1.2,3.1-1.7,3.1c0,0-0.2,0-0.7-0.5s-1-0.7-1.9-0.7
		c-0.7,0-2.6,0.7-5.3,2.6c-2.9,1.9-5.3,3.6-6.7,5.5c-0.2,0.2-0.5,0.7-0.5,1c0,0.7,1.7,1.2,4.6,1.2c2.2,0,4.6-0.5,7.4-1
		c2.9-0.5,4.6-0.7,5.3-0.7c4.1,0,6.5,1.2,7.7,3.6c0.2,0.5,0.5,1.2,0.5,2.2c0,1.2-0.5,2.6-1.2,4.1c-0.5,1.7-1.2,2.4-1.7,2.6
		c-9.6,2.9-16.6,4.3-21.6,4.3c-2.4,0-4.6-1-6.5-2.4c-1.4-1.2-2.4-2.4-2.6-4.1c1.7,1,4.6,1.7,8.6,1.7c1.9,0,6-0.7,12.5-1.9
		c5.8-1.2,9.4-1.9,10.6-2.2c-0.5-1.9-3.1-2.6-7.7-2.6c-1,0-2.9,0.2-6,0.7c-2.9,0.5-4.8,0.7-6,0.7c-4.6,0-6.7-1.2-6.7-3.1
		c0-1,0.2-2.2,1-3.6c2.2-4.1,5-7.4,8.6-10.1C233.7,67.1,236.1,66.1,238.3,66.1L238.3,66.1L238.3,66.1L238.3,66.1z"/>
	<path class="st0" d="M493.4,116.5c1.2-1,2.2-1.4,2.9-1.4c0.5,0,0.7,0.5,0.7,1.4c0,0.7-0.2,2.2-0.7,4.1s-0.7,3.4-0.7,4.6
		c0,5.3,3.8,8.2,11.3,8.2c6,0,11-2.6,14.9-7.7c2.4-4.1,5-7.9,7.4-11.8c1-1,1.7-1.4,2.4-1.4c1,0,1.2,1,0.7,3.1c-1,4.1-1.7,6-1.7,5.5
		c0,1.7,1,3.4,2.9,4.8c1.7,1.4,4.1,2.4,6.7,2.4c3.4,0,5.5-1,6.5-2.6c0-0.2-1-2.2-3.1-5.8c0.2-1.9,1.2-5.3,2.6-9.8
		c0.2-1.4,0.7-2.2,1.2-2.2s1,0.2,1.7,1.2c1.9,2.9,3.1,6.2,3.1,10.1c0,6-1.4,11-4.1,15.4c-2.9,5.3-7.2,7.9-13,7.9
		c-3.8,0-7.4-3.1-10.6-8.9c-5.3,9.6-12.2,14.4-20.6,14.4c-10.1,0-14.9-5.8-14.9-16.8c-3.8,4.6-10.3,8.6-18.7,12.5v-13.2
		c6.2-3.1,10.3-5,11.5-5.8C485.7,122.8,489.6,119.9,493.4,116.5L493.4,116.5L493.4,116.5L493.4,116.5z"/>
	<path class="st0" d="M456.7,132.4c-3.6-4.6-6.7-6.7-9.6-6.7c-4.3,0-6.2,1-6.2,3.4c0,2.9,2.9,4.3,8.6,4.3
		C451.7,133.3,454.1,132.9,456.7,132.4L456.7,132.4L456.7,132.4L456.7,132.4z M464.1,149.9c0-1.4-0.5-3.1-1-4.8
		c-2.9,1-7.2,1.7-12.5,1.7c-11.5,0-17.3-4.1-17.3-12c0-6,1.7-11.3,5.5-16.1c3.6-4.1,7.4-6.2,11.5-6.2c3.1,0,6.2,1.9,9.8,5.5
		c3.1,3.6,6,7.7,8.4,12.7c0.2,0,0.7,0,1.7-0.5v13.2l-0.5,0.5c0,2.9-0.7,6.2-2.2,10.6c-1.7,5.5-4.3,10.1-7.4,13.7
		c-7.2,8.6-15.1,16.1-23.8,22.6c-13,9.6-24,14.6-33.6,14.6c-8.2,0-14.4-3.1-18.7-9.1c-3.8-5-5.8-11.8-5.8-19.7
		c0-10.1,2.2-20.4,6.2-31.2c1.2-2.4,1.7-3.4,2.2-3.4c0.2,0,0.2,0.2,0.2,0.7c0,0.7-0.2,1.9-0.5,3.4c-3.1,10.6-4.6,18.5-4.6,24
		c0,5,1.2,9.4,3.6,13c3.8,5,9.8,7.7,18.2,7.7c7.2,0,15.8-3.1,26.2-9.4c8.2-5,16.1-11,23.8-18.2C460.5,156.4,464.1,152.1,464.1,149.9
		L464.1,149.9L464.1,149.9L464.1,149.9z"/>
	<path class="st0" d="M398.6,113.4c-0.5-2.2-1.2-3.8-2.2-5c-0.7-1.4-1.2-2.2-1.4-2.6c0-0.5,0-2.2,0.5-5.5c0.5-3.1,0.7-5.3,1.2-6.5
		c0.2-1.2,0.5-1.7,1-1.7c0.2,0,0.5,0.2,1,0.7c3.4,3.8,7,7.7,11,11.8c1.7,1.7,2.4,2.6,2.4,3.1c0,0.2-0.2,0.5-0.7,0.5
		c-0.7,0-2.6-0.5-5.5-1.2c1.7,4.1,3.6,8.2,5.3,12c2.6,6.7,4.1,12.2,4.1,17.3c0,2.4-0.5,5.3-1.4,8.9c-1.2,4.1-2.6,7.2-4.6,9.4
		c-7,7.9-18.7,16.6-35.3,25.9c-14.4,8.4-22.8,12.5-25.4,12.5c-0.5,0-7.7,1.7-21.4,5c-14.4,3.4-23.5,5.5-27.1,6c-3.8,0.7-6.2,1-7.2,1
		c-0.5,0-0.5,0-0.5-0.2s2.6-1.7,7.9-4.1c1.9-1,13-5.8,33.4-14.4c14.2-6,25.9-11.5,35.3-16.6c14.2-7.7,25-14.4,32.4-19.9
		c5.5-4.3,8.4-7.4,8.4-9.4c0-0.5-1.4-3.8-4.3-10.1C402.2,123.3,399.8,117.5,398.6,113.4L398.6,113.4L398.6,113.4L398.6,113.4z"/>
	<path class="st0" d="M378.9,80.1c0,3.8-1.9,9.1-5.8,15.6c-2.4,4.1-6,9.6-10.8,16.8c4.8,5.5,8.2,10.6,9.8,14.9
		c1,3.1,1.7,7.2,1.7,11.8c0,1.9-0.5,4.3-1.4,7.4c-0.7,2.9-1.7,5-2.6,6.5c-1.9,2.9-5,5.8-9.8,8.6c-5,3.4-9.4,5-13,5
		c-5.8,0-8.6-4.3-8.6-13c0-5.8,1-11.5,2.9-16.8c1.9-4.6,5-10.6,10.1-18.5c-4.3-4.1-8.9-9.8-13.9-17c-0.5-0.7-1.7-1.9-3.6-3.8
		c-1-1-1.4-2.2-1.4-3.6c0-2.2,0.2-4.6,0.7-7.4c0.7-2.9,1.2-4.1,1.4-4.1c0.7,0,2.9,1.2,7,3.8c3.8,2.6,7,4.6,8.9,6.2
		c1.2,0.7,1.7,1.4,1.7,1.4v0.2c0,0.2-0.7,0.5-2.4,0.5c-3.1,0-4.8,0.2-4.8,0.5c0,0.2,0.5,0.7,1.4,1.9c3.8,4.8,7.7,8.4,11.8,11.3
		c1-1.4,4.3-6.2,9.6-14.4c4.6-7,7.2-11.8,8.4-14.6c1.2-2.9,1.9-4.1,2.4-4.1C378.7,75.3,378.9,76.7,378.9,80.1L378.9,80.1L378.9,80.1
		L378.9,80.1z M369.6,139.1c-2.6-5.3-7.2-10.8-13.4-16.1c-2.2,2.2-4.8,6.2-8.2,12c-3.8,6.5-5.5,10.6-5.5,12.7c0,2.9,1.9,4.3,6.2,4.3
		c1.9,0,4.3-0.7,7.4-1.9c4.3-1.9,8.4-4.6,11.8-7.9C369.3,140.8,369.8,139.8,369.6,139.1L369.6,139.1L369.6,139.1L369.6,139.1z"/>
	<path class="st0" d="M356.1,62.1l3.8-7.9c0.2-0.5,0.5-0.7,1-0.7s2.4,1.2,6.2,3.8c3.6,2.4,5.5,3.8,5.5,4.3c0,1.7-1.7,5.3-4.8,10.6
		c-0.5,0.7-1,0.7-1.4,0.5c-3.1-2.4-6.7-4.8-10.8-7.4c-1.4,2.9-2.6,5.5-4.1,7.7c-0.2,0.7-0.7,1-1.2,0.7c-3.6-2.9-7.4-5.5-11.3-7.9
		c-0.2-0.2-0.2-0.5,0-1l4.6-9.6c0.2-0.5,0.7-1,1-1c0.5,0,2.2,1.2,5.3,3.4C353,59.4,355.2,61.1,356.1,62.1L356.1,62.1L356.1,62.1
		L356.1,62.1z"/>
	<path class="st0" d="M482.6,196c-2.6,0.7-4.1,1.2-4.6,1.2V197c0,0,1-0.7,2.9-1.9c1.9-1.2,4.8-3.1,8.9-6.2c1.9-1.9,4.8-5,8.4-9.4
		c2.4-2.9,5-5.5,7.9-7.4c3.6-2.6,7-3.8,10.6-3.8c0.7,0,1.9,0.2,3.4,0.7c1.2,0.5,2.4,0.7,3.4,0.7c1.9,0,3.4-0.7,4.6-2.2
		c0.7-1.4,1.7-2.6,2.6-4.1c0.5-1,1.2-1.4,1.7-1.4c0.2,0,0.2,0.2,0.2,0.7s-0.2,1.7-0.7,3.1c-0.5,0.7,1.4,1,5,1c0.5,0,0.7,0,0.7-0.2
		c0,0-0.2-1-0.7-2.6c-0.2-0.5,0-1.2,0.7-2.2c1-1.7,1.4-2.4,1.7-2.2c1,0.7,1.4,2.2,1.4,3.8c0,1.7-0.5,3.4-1.2,5.3
		c-0.7,2.2-1.4,3.4-1.9,3.8c-1.7,1-4.3,0.7-7.9-1c-2.9,2.9-5.8,4.6-8.6,4.6c-0.7,0-1.9-0.2-3.1-0.7c-1.2-0.5-2.2-0.7-2.9-0.7
		c-4.8,0-9.8,2.2-14.9,7c-3.6,3.6-7.2,7.2-10.8,10.8C487.2,194.1,485,195.3,482.6,196L482.6,196L482.6,196L482.6,196z"/>
	<path class="st0" d="M431,66.4c2.9,0,5.3,1.4,7.4,4.8c2.2,3.1,3.8,7.4,4.6,12.7c0.2,0.5,0.2,0.7,0.2,1h0.2c0-0.2,0.2-0.5,0.2-1
		c0.5-3.1,1.7-7.9,3.4-14.2c1.9-4.3,3.8-6.5,6-6.5c1.2,0,2.4,0.7,3.4,2.2c1,1.4,1.4,2.4,1.4,3.4c0,0.5,0,1.4-0.5,2.4
		c-0.5,1.4-1,2.2-1.4,2.2c-0.2,0-0.7-0.7-1.7-1.7c-0.7-1-1.7-1.4-2.6-1.4c-1.9,0-3.6,4.6-5.3,13.7c-0.7,4.1-1.7,7-2.4,8.6
		c-0.7,1-1.2,1.7-1.7,1.7s-0.5-0.7-0.7-1.7c0.2-1.7-0.7-4.8-2.6-9.4c-1.9-4.8-3.1-7-4.1-7c-0.5,0-0.7,0-1,0.5
		c-0.2,0.2-0.5,0.5-1.2,0.5c-1,0-1.9-0.7-3.4-1.9c-1.4-1.2-1.9-2.2-1.9-2.9c0-0.2,0.5-1.4,1.7-3.4C430.1,67.1,430.8,66.4,431,66.4
		L431,66.4L431,66.4L431,66.4z"/>
	<path class="st0" d="M390.5,63.3c24.2-9.1,49.4-18.2,75.4-27.8c0.7-0.2,1.2-0.5,1.2-0.2c0.2,0,0.2,0.5,0,1.2
		c-1,2.2-1.7,3.4-2.2,3.8c-0.2,0.2-12.5,4.8-36.2,13.7c-24.2,8.9-37.9,14.4-40.6,16.1C388.5,67.8,389.3,65.7,390.5,63.3L390.5,63.3
		L390.5,63.3L390.5,63.3z"/>
	<path class="st0" d="M366.9,19.3c0.5-1.4,0.5-2.9,0.2-4.3c-0.2-1.4-1-2.2-2.2-2.2c-0.5,0-1.2,0.2-2.2,0.7s-1.4,1-1.4,1.4
		C361.4,16.2,363.3,17.7,366.9,19.3L366.9,19.3L366.9,19.3L366.9,19.3z M364.1,25.6c-4.6-2.4-6.7-4.8-6.7-7.4c0-3.1,1.4-6,4.3-8.4
		c2.9-2.6,5.3-3.6,7.2-2.9c1.7,0.5,2.4,2.2,2.4,5c0,2.6-0.5,5.5-1.7,8.9c2.4,1.2,3.8,2.4,4.3,3.4c0,1.2-1,3.4-3.1,6.2
		c-0.5-1-1.9-2.2-4.1-3.4c-2.6,3.6-5.8,6.7-9.6,9.6c-4.6,3.1-8.6,5.8-12.2,7.2c-1,0.5-5.3,2.2-13,5c-1.2,0.5-2.2,0.7-2.4,0.7
		c-0.2,0-0.2-0.2-0.2-0.2c0-0.2,0.5-1,1.9-1.7c5.8-3.6,11.5-7,17.5-10.3C355.7,33,360.7,29.2,364.1,25.6L364.1,25.6L364.1,25.6
		L364.1,25.6z"/>
	<path class="st0" d="M515.7,55.6c0.5-1.4,0.5-2.9,0.2-4.3c-0.2-1.4-1-2.2-2.2-2.2c-0.5,0-1.2,0.2-2.2,0.7s-1.4,1-1.4,1.4
		C510.2,52.5,512.1,53.9,515.7,55.6L515.7,55.6L515.7,55.6L515.7,55.6z M521,64.5c-2.4,5.8-3.6,10.3-3.6,13.7c0,4.1,1,6.2,3.1,6.2
		c1.2,0,2.6-1.7,4.3-4.6c0.2-0.2,0.2-0.5,0.5-0.7c0,0,0.2,0,0.2,0.2c0,0,0,0.2,0,0.7c-1.4,7.2-3.6,10.8-6.5,10.8
		c-3.1,0-4.6-2.6-4.6-7.9c0-2.6,0.5-6,1.9-10.3s2.2-6.5,2.2-6.7c0-0.5-1-1.4-3.1-2.6c-3.8,5-9.1,9.8-15.8,13.9
		c-4.6,2.6-9.1,5-13.9,7c-8.9,3.6-14.2,5.5-15.4,6.2c-1.2,0.5-1.9,0.7-2.4,0.7c-0.2,0-0.2-0.2-0.2-0.2c0-0.5,0.5-1,1.9-1.9
		c7.7-4.3,15.1-8.6,22.8-13c10.1-5.8,17-10.6,20.4-14.2c-4.6-2.4-6.7-4.8-6.7-7.4c0-3.1,1.4-6,4.3-8.6c2.9-2.4,5.3-3.4,7.2-2.6
		c1.4,0.5,2.4,2.2,2.4,5c0,2.6-0.5,5.5-1.7,8.6c2.4,1.4,3.4,2.9,3.4,4.3C521.7,61.8,521.5,63,521,64.5L521,64.5L521,64.5L521,64.5z"
		/>
	<path class="st0" d="M408.5,32.8c0-0.2,0.2-0.5,0.2-0.5c0.2-0.2,0.2-0.2,0.2,0c0.2,0.2,0.2,0.5,0,0.7c-1.2,7.2-3.4,10.8-6.5,10.8
		s-4.6-2.6-4.6-7.9c0-6.5,1.7-13.4,5.5-20.4c1-1.7,1.4-2.6,1.7-2.6l0,0c0,0.2-0.2,1.2-0.7,2.9c-2.4,7.4-3.6,12.5-3.6,15.6
		c0,3.8,1,6,3.1,6C405.3,37.3,406.8,35.7,408.5,32.8L408.5,32.8L408.5,32.8L408.5,32.8z"/>
</g>
</svg>
