<?xml version="1.0" encoding="utf-8"?>
<!-- Generator: Adobe Illustrator 24.0.0, SVG Export Plug-In . SVG Version: 6.00 Build 0)  -->
<svg version="1.1" id="Layer_1" xmlns="http://www.w3.org/2000/svg" xmlns:xlink="http://www.w3.org/1999/xlink" x="0px" y="0px"
	 viewBox="0 0 446.8 202.6" style="enable-background:new 0 0 446.8 202.6;" xml:space="preserve">
<style type="text/css">
	.st0{fill:#C4692C;}
</style>
<g>
	<path class="st0" d="M181.6,25.9c0-4.8-0.7-8.6-2.2-11.8c0-1.7,1.2-5.8,4.1-12c0.2-0.7,0.5-1.2,0.7-1.2c0.5,0,0.7,0.5,1.2,1.2
		c0.7,1.7,2.4,6.2,5.3,13.7c3.1,7.9,4.8,12.7,5.3,14.6c0.5,1.2,0.5,2.4,0.5,2.9c0,2.2-1.9,1-6.2-3.8c-0.5-0.7-0.7-0.2-0.7,1
		c0,0.5,1.2,15.4,3.4,45.1c2.2,29.5,3.1,46.1,3.1,49.9c0,11.3-1.7,21.4-5,30c-1,1.7-1.4,2.9-1.9,3.8l0,0c-0.7,1.2-1,1.2-1.2,0.5
		c-0.2-1,0-2.9,0.2-5.5c0.5-4.1,0.7-8.6,0.7-13.7c0-4.8-1.2-24-3.6-57.8C182.8,49,181.6,30,181.6,25.9L181.6,25.9L181.6,25.9
		L181.6,25.9z"/>
	<path class="st0" d="M144.2,108.3l-25.9-6.5c0.2-0.5,3.6-1.7,9.8-3.4c8.4-2.4,15.4-4.6,20.6-6.7c2.6-1,4.1-2.4,4.6-4.1
		c0.2-1.2,0.5-7,0.5-17.5c0-5.5-0.5-13.7-1.2-24.5c-1-10.8-1.2-17.3-1.2-19.4c0-4.6-0.7-8.4-2.2-11.5c0-1.7,1.4-5.8,4.1-12.2
		c0.5-0.7,0.7-1,1-1c0.2,0,0.7,0.2,1,1c0.7,1.9,2.6,6.5,5.5,13.9c2.9,7.7,4.6,12.5,5.3,14.4c0.2,1.4,0.5,2.4,0.5,3.1
		c0,2.2-2.2,0.7-6.2-4.1c-0.5-0.7-0.7-0.2-0.7,1c0,0.5,0.2,4.3,0.7,12s1,13,1,15.6c0,13.7-1,23.8-2.9,30
		C155.9,96.7,151.1,103.2,144.2,108.3L144.2,108.3L144.2,108.3L144.2,108.3z"/>
	<path class="st0" d="M234.2,120.5l-5,10.1c-0.5,1-1.2,1.7-1.9,1.4c0,0.2-1.9,0-5.3-0.2c-3.6,0-7-0.2-10.1-0.2
		c-13.2,0-24.5,1.4-33.6,4.3c-10.6,3.6-21.4,7-32.2,10.6c-18.5,5.5-33.6,8.4-45.6,8.4c-15.1,0-27.4-1.9-36.5-5.5v-14.6
		c7.7,3.6,20.2,5.5,37,5.5c19.4,0,43.7-5.3,73-15.6c-1.2,0-10.1-2.2-26.9-6.2c-14.6-3.4-23.8-5.3-27.4-5.3c-4.6,0-6.7-0.2-6.7-1
		c0-0.2,0.2-0.7,0.7-1.2c0.7-1.9,2.4-5,4.3-8.9h25.2c33.1,9.1,62.2,14.4,87.4,16.3c2.6,0.2,4.1,0.5,4.1,1.2
		C234.7,119.8,234.4,120,234.2,120.5L234.2,120.5L234.2,120.5L234.2,120.5z"/>
	<path class="st0" d="M64,134.4v14.9c-17-7.2-25.4-17.8-25.4-31.9c0-1.9,0.2-4.3,0.7-7.4c0.5-4.3,1.4-6.2,2.4-6.2c0.5,0,1,0.7,1,2.6
		C42.7,118.6,49.6,127.9,64,134.4L64,134.4L64,134.4L64,134.4z"/>
	<path class="st0" d="M25.1,144c0,12.5,3.8,22.3,11.5,29.8c9.6,9.4,25,13.9,46.1,13.9c6,0,14.6-0.2,25.7-1
		c13.7-0.7,23.8-1.7,30.2-2.6c1.7-0.2,2.9-0.2,3.8-0.2c1.2,0,1.7,0,1.7,0.5c0,0.7-1.4,1.4-4.8,2.6c-4.3,1.7-18.2,6.5-41.5,13.9
		c-5.3,1.2-10.1,1.7-14.4,1.7c-42.2,0-63.4-16.1-63.4-48c0-20.2,5.5-37.4,16.3-52.1C44,91.7,54.1,83.3,66.1,76.8
		c-12.7-1.2-19.9-1.9-21.4-1.9c-4.6,0-7.2,0.7-7.9,1.9c-0.5,1-0.7,1.4-1,1.7c-0.2,0-1.2,0.2-2.6,0.5c-7.4,1-13.4,1.2-18.2,1.2
		c-2.2,0-3.4-0.5-3.4-1.4c0-0.5,0-1.2,0.5-2.2l2.4-7.2c0.5-1.7,1.4-2.9,2.4-3.4c5-2.2,10.3-3.8,15.8-5c3.8-0.7,8.9-0.7,15.1,0
		c10.3,1.2,31.2,1.9,62.2,1.9c1.4,0,2.2,0.2,2.4,0.5c0,0.5,0,1.2-0.2,1.9l-2.6,7.2c-0.7,1.9-1.4,2.9-2.6,3.1
		c-18.5,4.1-34.6,10.3-48.5,18.5C36.4,107.5,25.1,124.1,25.1,144L25.1,144L25.1,144L25.1,144z"/>
	<path class="st0" d="M63.8,115.7c-0.2-0.2-0.2-0.5,0-1l4.6-9.6c0.2-0.5,0.7-0.7,1-0.7c0.5,0,2.6,1.2,6.2,3.6
		c3.8,2.6,5.8,4.1,5.8,4.6c0,1.7-1.7,5-5,10.3c-0.5,0.7-0.7,1-1.2,0.7C71.5,120.7,67.6,118.1,63.8,115.7L63.8,115.7L63.8,115.7
		L63.8,115.7z"/>
	<path class="st0" d="M81.3,39.6c18.5-6.7,37.7-13.9,57.8-21.4c0.7-0.2,1.2-0.5,1.4-0.2c0,0,0,0.5-0.2,1.2c-1,2.2-1.7,3.4-2.2,3.8
		c-16.8,6.2-36.7,13.9-59.3,23.3C79.4,44.2,80.1,42,81.3,39.6L81.3,39.6L81.3,39.6L81.3,39.6z"/>
	<path class="st0" d="M136.5,61.2c0-1.2-2.4-3.4-7.4-6.2c-1.7,2.9-2.4,5.5-2.4,7.9c0,1.4,0.7,2.4,2.2,2.4c1.2,0,2.6-0.5,4.3-1.4
		C134.8,63.1,136,62.2,136.5,61.2L136.5,61.2L136.5,61.2L136.5,61.2z M131.2,42c0.7-1.2,1.7-1.7,2.4-1.7c0.5,0,1,0.2,1,0.7
		c0,0-0.2,0.2-0.2,0.5c-1,2.2-1.9,4.6-2.6,7c5,3.6,7.4,7.4,7.2,11c-0.5,4.1-1,6.7-1.7,7.7c-2.4,2.9-5,4.6-8.4,4.6s-4.8-2.2-4.8-6
		c0-0.7,0-1.7,0.2-2.6C125.5,55.5,127.9,48.5,131.2,42L131.2,42L131.2,42L131.2,42z"/>
	<path class="st0" d="M67.6,40.3c0,1.9-0.5,4.1-1.4,6c-1.2,2.6-2.6,4.1-4.3,4.1c-2.9,0-4.8-1.9-6-5.8c-1.4,4.8-3.8,7.4-7.4,7.4
		c-1.2,0-2.4-0.7-3.4-2.2c-1.2-1.4-1.7-3.6-1.7-6v-6.2c0-0.5-0.5-0.7-1-1c-0.7-0.2-1-0.7-1-1.4c0-1.4,0.5-2.6,1.4-3.8
		c1-1.2,1.7-1.7,2.2-1.7c0.7,0,1.2,1.2,1.2,3.8c0,1.4-0.2,2.6-0.2,3.6c-0.2,1-0.2,1.7-0.2,2.4c0,1.4,0.2,2.9,0.7,4.1
		c0.7,1.4,1.7,2.4,2.6,2.4c1.4,0,2.6-0.7,3.8-1.9s1.9-2.6,1.9-4.3c0-1-0.5-2.4-1-4.8c-0.7-2.2-1-3.6-1-4.1s0.2-1.2,0.7-2.4
		c0.5-1,1-1.4,1.2-1.4c0.5,0,1,1.4,1.7,4.3c0.7,3.1,1.2,5.3,1.2,6.7c0,4.1,1.4,6.2,4.6,6.2c1.4,0,2.4-0.7,2.6-2.2
		c-2.6-4.8-4.1-8.4-4.1-11c0-1.4,0.2-2.6,1.2-3.8c0.5-0.7,0.7-1.2,1-1.2s0.5,0.5,0.5,1.4c0.2,1.2,0.5,2.4,0.7,3.4c0,0,0.7,1.7,1.9,5
		C67.1,37.9,67.6,39.4,67.6,40.3L67.6,40.3L67.6,40.3L67.6,40.3z"/>
	<path class="st0" d="M63.8,172.8c9.6-3.4,19.9-7.2,31-11c1-0.2,1.2-0.5,1.4-0.2c0.2,0,0.2,0.5-0.2,1.2c-0.7,2.2-1.4,3.4-1.9,3.8
		c-9.6,3.4-20.4,7.4-32.6,13C61.9,177.4,62.6,175.2,63.8,172.8L63.8,172.8L63.8,172.8L63.8,172.8z"/>
	<path class="st0" d="M182.3,195.9c-4.8,4.3-11.3,6.7-19,6.7c-2.2,0-4.3-0.7-5.8-1.9c-1.4-1.2-2.2-2.9-2.2-4.8
		c0-3.4,1.2-6.7,4.1-10.1c2.9-3.1,5.8-6,8.4-9.1c0.7-0.5,0.5-1-0.5-1.4c-1.9-0.7-4.3-1-6.7-1c-1.2,0-2.6,0.2-4.3,1.2
		c-0.2,0-0.5,0.2-0.7,0c0,0,0-0.2,0.2-0.7c1-2.4,1.9-4.1,2.9-4.8c1.2-1,3.1-1.4,5.8-1.4c5.8,0,8.4,1.2,8.4,4.1c0,2.2-1.7,5-5.3,9.1
		c-2.6,2.6-5.3,5.3-7.9,7.9c-1,1.4-1.4,2.9-1.4,3.8c0,2.4,2.6,3.6,7.7,3.6c5,0,10.1-1,15.8-2.6c1.4-0.5,2.2-0.5,2.2-0.2
		C184,194.2,183.5,194.9,182.3,195.9L182.3,195.9L182.3,195.9L182.3,195.9z"/>
	<path class="st0" d="M221.7,19.9c0-0.2,0.2-0.5,0.2-0.5c0.2-0.2,0.2-0.2,0.2,0c0.2,0.2,0.2,0.5,0,0.7c-1.2,7.2-3.4,10.8-6.5,10.8
		S211,28.3,211,23c0-6.5,1.7-13.4,5.5-20.4c1-1.7,1.4-2.6,1.7-2.6l0,0c0,0.2-0.2,1.2-0.7,2.9c-2.4,7.4-3.6,12.5-3.6,15.6
		c0,3.8,1,6,3.1,6C218.6,24.5,220,22.8,221.7,19.9L221.7,19.9L221.7,19.9L221.7,19.9z"/>
	<path class="st0" d="M217.9,67.5c0,2.6-1.2,5.5-3.1,8.6c-2.2,3.1-4.8,6-8.2,8.4c-1.4,1-2.2,1.4-2.4,1.4v-0.2c0-0.2,0.5-0.7,1.4-1.9
		c5.5-6,8.4-9.8,8.4-12c0-1.7-1-2.6-2.6-2.6c-1,0-1.9,0.2-2.6,0.7c-0.7,0.2-1,0.5-1.2,0.5c0,0-0.2,0-0.2-0.2c0,0,0-0.5,0.2-1.4
		c1-4.1,2.9-6,6.2-6C216.4,62.7,217.9,64.3,217.9,67.5L217.9,67.5L217.9,67.5L217.9,67.5z"/>
	<path class="st0" d="M218.6,159.6c0,2.6-1.2,5.5-3.1,8.6c-2.2,3.1-4.8,6-8.2,8.4c-1.4,1-2.2,1.4-2.4,1.4v-0.2
		c0-0.2,0.5-0.7,1.4-1.9c5.5-6,8.4-9.8,8.4-12c0-1.7-1-2.6-2.6-2.6c-1,0-1.9,0.2-2.6,0.7c-0.7,0.2-1,0.5-1.2,0.5c0,0-0.2,0-0.2-0.2
		c0,0,0-0.5,0.2-1.4c1-4.1,2.9-6,6.2-6C217.1,154.8,218.6,156.5,218.6,159.6L218.6,159.6L218.6,159.6L218.6,159.6z"/>
	<path class="st0" d="M10.7,111.4c0-0.2,0.2-0.5,0.2-0.5c0.2-0.2,0.2-0.2,0.2,0c0.2,0.2,0.2,0.5,0,0.7c-1.2,7.2-3.4,10.8-6.5,10.8
		S0,119.8,0,114.5c0-6.5,1.7-13.4,5.5-20.4c1-1.7,1.4-2.6,1.7-2.6l0,0c0,0.2-0.2,1.2-0.7,2.9c-2.4,7.4-3.6,12.5-3.6,15.6
		c0,3.8,1,6,3.1,6C7.6,115.9,9.1,114.3,10.7,111.4L10.7,111.4L10.7,111.4L10.7,111.4z"/>
	<path class="st0" d="M388,113.8c1.2-1,2.2-1.4,2.9-1.4c0.5,0,0.7,0.5,0.7,1.4c0,0.7-0.2,2.2-0.7,4.1s-0.7,3.4-0.7,4.6
		c0,5.3,3.8,8.2,11.3,8.2c6,0,11-2.6,14.9-7.7c2.4-4.1,5-7.9,7.4-11.8c1-1,1.7-1.4,2.4-1.4c1,0,1.2,1,0.7,3.1c-1,4.1-1.7,6-1.7,5.5
		c0,1.7,1,3.4,2.9,4.8c1.7,1.4,4.1,2.4,6.7,2.4c3.4,0,5.5-1,6.5-2.6c0-0.2-1-2.2-3.1-5.8c0.2-1.9,1.2-5.3,2.6-9.8
		c0.2-1.4,0.7-2.2,1.2-2.2s1,0.2,1.7,1.2c1.9,2.9,3.1,6.2,3.1,10.1c0,6-1.4,11-4.1,15.4c-2.9,5.3-7.2,7.9-13,7.9
		c-3.8,0-7.4-3.1-10.6-8.9c-5.3,9.6-12.2,14.4-20.6,14.4c-10.1,0-14.9-5.8-14.9-16.8c-3.8,4.6-10.3,8.6-18.7,12.5v-13.2
		c6.2-3.1,10.3-5,11.5-5.8C380.3,120,384.2,117.1,388,113.8L388,113.8L388,113.8L388,113.8z"/>
	<path class="st0" d="M351.3,129.6c-3.6-4.6-6.7-6.7-9.6-6.7c-4.3,0-6.2,1-6.2,3.4c0,2.9,2.9,4.3,8.6,4.3
		C346.3,130.6,348.7,130.1,351.3,129.6L351.3,129.6L351.3,129.6L351.3,129.6z M358.7,147.1c0-1.4-0.5-3.1-1-4.8
		c-2.9,1-7.2,1.7-12.5,1.7c-11.5,0-17.3-4.1-17.3-12c0-6,1.7-11.3,5.5-16.1c3.6-4.1,7.4-6.2,11.5-6.2c3.1,0,6.2,1.9,9.8,5.5
		c3.1,3.6,6,7.7,8.4,12.7c0.2,0,0.7,0,1.7-0.5v13.2l-0.5,0.5c0,2.9-0.7,6.2-2.2,10.6c-1.7,5.5-4.3,10.1-7.4,13.7
		c-7.2,8.6-15.1,16.1-23.8,22.6c-13,9.6-24,14.6-33.6,14.6c-8.2,0-14.4-3.1-18.7-9.1c-3.8-5-5.8-11.8-5.8-19.7
		c0-10.1,2.2-20.4,6.2-31.2c1.2-2.4,1.7-3.4,2.2-3.4c0.2,0,0.2,0.2,0.2,0.7c0,0.7-0.2,1.9-0.5,3.4c-3.1,10.6-4.6,18.5-4.6,24
		c0,5,1.2,9.4,3.6,13c3.8,5,9.8,7.7,18.2,7.7c7.2,0,15.8-3.1,26.2-9.4c8.2-5,16.1-11,23.8-18.2C355.1,153.6,358.7,149.3,358.7,147.1
		L358.7,147.1L358.7,147.1L358.7,147.1z"/>
	<path class="st0" d="M293.2,110.7c-0.5-2.2-1.2-3.8-2.2-5c-0.7-1.4-1.2-2.2-1.4-2.6c0-0.5,0-2.2,0.5-5.5c0.5-3.1,0.7-5.3,1.2-6.5
		c0.2-1.2,0.5-1.7,1-1.7c0.2,0,0.5,0.2,1,0.7c3.4,3.8,7,7.7,11,11.8c1.7,1.7,2.4,2.6,2.4,3.1c0,0.2-0.2,0.5-0.7,0.5
		c-0.7,0-2.6-0.5-5.5-1.2c1.7,4.1,3.6,8.2,5.3,12c2.6,6.7,4.1,12.2,4.1,17.3c0,2.4-0.5,5.3-1.4,8.9c-1.2,4.1-2.6,7.2-4.6,9.4
		c-7,7.9-18.7,16.6-35.3,25.9c-14.4,8.4-22.8,12.5-25.4,12.5c-0.5,0-7.7,1.7-21.4,5c-14.4,3.4-23.5,5.5-27.1,6c-3.8,0.7-6.2,1-7.2,1
		c-0.5,0-0.5,0-0.5-0.2s2.6-1.7,7.9-4.1c1.9-1,13-5.8,33.4-14.4c14.2-6,25.9-11.5,35.3-16.6c14.2-7.7,25-14.4,32.4-19.9
		c5.5-4.3,8.4-7.4,8.4-9.4c0-0.5-1.4-3.8-4.3-10.1C296.8,120.5,294.4,114.7,293.2,110.7L293.2,110.7L293.2,110.7L293.2,110.7z"/>
	<path class="st0" d="M273.5,77.3c0,3.8-1.9,9.1-5.8,15.6c-2.4,4.1-6,9.6-10.8,16.8c4.8,5.5,8.2,10.6,9.8,14.9
		c1,3.1,1.7,7.2,1.7,11.8c0,1.9-0.5,4.3-1.4,7.4c-0.7,2.9-1.7,5-2.6,6.5c-1.9,2.9-5,5.8-9.8,8.6c-5,3.4-9.4,5-13,5
		c-5.8,0-8.6-4.3-8.6-13c0-5.8,1-11.5,2.9-16.8c1.9-4.6,5-10.6,10.1-18.5c-4.3-4.1-8.9-9.8-13.9-17c-0.5-0.7-1.7-1.9-3.6-3.8
		c-1-1-1.4-2.2-1.4-3.6c0-2.2,0.2-4.6,0.7-7.4c0.7-2.9,1.2-4.1,1.4-4.1c0.7,0,2.9,1.2,7,3.8c3.8,2.6,7,4.6,8.9,6.2
		c1.2,0.7,1.7,1.4,1.7,1.4v0.2c0,0.2-0.7,0.5-2.4,0.5c-3.1,0-4.8,0.2-4.8,0.5c0,0.2,0.5,0.7,1.4,1.9c3.8,4.8,7.7,8.4,11.8,11.3
		c1-1.4,4.3-6.2,9.6-14.4c4.6-7,7.2-11.8,8.4-14.6c1.2-2.9,1.9-4.1,2.4-4.1C273.3,72.5,273.5,73.9,273.5,77.3L273.5,77.3L273.5,77.3
		L273.5,77.3z M264.2,136.3c-2.6-5.3-7.2-10.8-13.4-16.1c-2.2,2.2-4.8,6.2-8.2,12c-3.8,6.5-5.5,10.6-5.5,12.7c0,2.9,1.9,4.3,6.2,4.3
		c1.9,0,4.3-0.7,7.4-1.9c4.3-1.9,8.4-4.6,11.8-7.9C263.9,138,264.4,137.1,264.2,136.3L264.2,136.3L264.2,136.3L264.2,136.3z"/>
	<path class="st0" d="M250.7,59.3l3.8-7.9c0.2-0.5,0.5-0.7,1-0.7c0.5,0,2.4,1.2,6.2,3.8c3.6,2.4,5.5,3.8,5.5,4.3
		c0,1.7-1.7,5.3-4.8,10.6c-0.5,0.7-1,0.7-1.4,0.5c-3.1-2.4-6.7-4.8-10.8-7.4c-1.4,2.9-2.6,5.5-4.1,7.7c-0.2,0.7-0.7,1-1.2,0.7
		c-3.6-2.9-7.4-5.5-11.3-7.9c-0.2-0.2-0.2-0.5,0-1l4.6-9.6c0.2-0.5,0.7-1,1-1c0.5,0,2.2,1.2,5.3,3.4
		C247.6,56.7,249.8,58.3,250.7,59.3L250.7,59.3L250.7,59.3L250.7,59.3z"/>
	<path class="st0" d="M377.2,193.2c-2.6,0.7-4.1,1.2-4.6,1.2v-0.2c0,0,1-0.7,2.9-1.9c1.9-1.2,4.8-3.1,8.9-6.2c1.9-1.9,4.8-5,8.4-9.4
		c2.4-2.9,5-5.5,7.9-7.4c3.6-2.6,7-3.8,10.6-3.8c0.7,0,1.9,0.2,3.4,0.7c1.2,0.5,2.4,0.7,3.4,0.7c1.9,0,3.4-0.7,4.6-2.2
		c0.7-1.4,1.7-2.6,2.6-4.1c0.5-1,1.2-1.4,1.7-1.4c0.2,0,0.2,0.2,0.2,0.7s-0.2,1.7-0.7,3.1c-0.5,0.7,1.4,1,5,1c0.5,0,0.7,0,0.7-0.2
		c0,0-0.2-1-0.7-2.6c-0.2-0.5,0-1.2,0.7-2.2c1-1.7,1.4-2.4,1.7-2.2c1,0.7,1.4,2.2,1.4,3.8c0,1.7-0.5,3.4-1.2,5.3
		c-0.7,2.2-1.4,3.4-1.9,3.8c-1.7,1-4.3,0.7-7.9-1c-2.9,2.9-5.8,4.6-8.6,4.6c-0.7,0-1.9-0.2-3.1-0.7c-1.2-0.5-2.2-0.7-2.9-0.7
		c-4.8,0-9.8,2.2-14.9,7c-3.6,3.6-7.2,7.2-10.8,10.8C381.8,191.3,379.6,192.5,377.2,193.2L377.2,193.2L377.2,193.2L377.2,193.2z"/>
	<path class="st0" d="M325.9,63.6c2.9,0,5.3,1.4,7.4,4.8c2.2,3.1,3.8,7.4,4.6,12.7c0.2,0.5,0.2,0.7,0.2,1h0.2c0-0.2,0.2-0.5,0.2-1
		c0.5-3.1,1.7-7.9,3.4-14.2c1.9-4.3,3.8-6.5,6-6.5c1.2,0,2.4,0.7,3.4,2.2c1,1.4,1.4,2.4,1.4,3.4c0,0.5,0,1.4-0.5,2.4
		c-0.5,1.4-1,2.2-1.4,2.2c-0.2,0-0.7-0.7-1.7-1.7c-0.7-1-1.7-1.4-2.6-1.4c-1.9,0-3.6,4.6-5.3,13.7c-0.7,4.1-1.7,7-2.4,8.6
		c-0.7,1-1.2,1.7-1.7,1.7s-0.5-0.7-0.7-1.7c0.2-1.7-0.7-4.8-2.6-9.4c-1.9-4.8-3.1-7-4.1-7c-0.5,0-0.7,0-1,0.5
		c-0.2,0.2-0.5,0.5-1.2,0.5c-1,0-1.9-0.7-3.4-1.9c-1.4-1.2-1.9-2.2-1.9-2.9c0-0.2,0.5-1.4,1.7-3.4C324.9,64.3,325.6,63.6,325.9,63.6
		L325.9,63.6L325.9,63.6L325.9,63.6z"/>
	<path class="st0" d="M285.1,60.5c24.2-9.1,49.4-18.2,75.4-27.8c0.7-0.2,1.2-0.5,1.2-0.2c0.2,0,0.2,0.5,0,1.2
		c-1,2.2-1.7,3.4-2.2,3.8c-0.2,0.2-12.5,4.8-36.2,13.7c-24.2,8.9-37.9,14.4-40.6,16.1C283.1,65.1,283.9,62.9,285.1,60.5L285.1,60.5
		L285.1,60.5L285.1,60.5z"/>
	<path class="st0" d="M261.5,16.6c0.5-1.4,0.5-2.9,0.2-4.3c-0.2-1.4-1-2.2-2.2-2.2c-0.5,0-1.2,0.2-2.2,0.7s-1.4,1-1.4,1.4
		C256,13.5,257.9,14.9,261.5,16.6L261.5,16.6L261.5,16.6L261.5,16.6z M258.7,22.8c-4.6-2.4-6.7-4.8-6.7-7.4c0-3.1,1.4-6,4.3-8.4
		c2.9-2.6,5.3-3.6,7.2-2.9c1.7,0.5,2.4,2.2,2.4,5c0,2.6-0.5,5.5-1.7,8.9c2.4,1.2,3.8,2.4,4.3,3.4c0,1.2-1,3.4-3.1,6.2
		c-0.5-1-1.9-2.2-4.1-3.4c-2.6,3.6-5.8,6.7-9.6,9.6c-4.6,3.1-8.6,5.8-12.2,7.2c-1,0.5-5.3,2.2-13,5c-1.2,0.5-2.2,0.7-2.4,0.7
		c-0.2,0-0.2-0.2-0.2-0.2c0-0.2,0.5-1,1.9-1.7c5.8-3.6,11.5-7,17.5-10.3C250.3,30.3,255.3,26.4,258.7,22.8L258.7,22.8L258.7,22.8
		L258.7,22.8z"/>
	<path class="st0" d="M410.3,52.8c0.5-1.4,0.5-2.9,0.2-4.3c-0.2-1.4-1-2.2-2.2-2.2c-0.5,0-1.2,0.2-2.2,0.7s-1.4,1-1.4,1.4
		C404.8,49.7,406.7,51.1,410.3,52.8L410.3,52.8L410.3,52.8L410.3,52.8z M415.6,61.7c-2.4,5.8-3.6,10.3-3.6,13.7c0,4.1,1,6.2,3.1,6.2
		c1.2,0,2.6-1.7,4.3-4.6c0.2-0.2,0.2-0.5,0.5-0.7c0,0,0.2,0,0.2,0.2c0,0,0,0.2,0,0.7c-1.4,7.2-3.6,10.8-6.5,10.8
		c-3.1,0-4.6-2.6-4.6-7.9c0-2.6,0.5-6,1.9-10.3s2.2-6.5,2.2-6.7c0-0.5-1-1.4-3.1-2.6c-3.8,5-9.1,9.8-15.8,13.9
		c-4.6,2.6-9.1,5-13.9,7c-8.9,3.6-14.2,5.5-15.4,6.2c-1.2,0.5-1.9,0.7-2.4,0.7c-0.2,0-0.2-0.2-0.2-0.2c0-0.5,0.5-1,1.9-1.9
		c7.7-4.3,15.1-8.6,22.8-13c10.1-5.8,17-10.6,20.4-14.2c-4.6-2.4-6.7-4.8-6.7-7.4c0-3.1,1.4-6,4.3-8.6c2.9-2.4,5.3-3.4,7.2-2.6
		c1.4,0.5,2.4,2.2,2.4,5c0,2.6-0.5,5.5-1.7,8.6c2.4,1.4,3.4,2.9,3.4,4.3C416.3,59.1,416.1,60.3,415.6,61.7L415.6,61.7L415.6,61.7
		L415.6,61.7z"/>
	<path class="st0" d="M303.1,30.3c0-0.2,0.2-0.5,0.2-0.5c0.2-0.2,0.2-0.2,0.2,0c0.2,0.2,0.2,0.5,0,0.7c-1.2,7.2-3.4,10.8-6.5,10.8
		c-3.1,0-4.6-2.6-4.6-7.9c0-6.5,1.7-13.4,5.5-20.4c1-1.7,1.4-2.6,1.7-2.6l0,0c0,0.2-0.2,1.2-0.7,2.9c-2.4,7.4-3.6,12.5-3.6,15.6
		c0,3.8,1,6,3.1,6C299.9,34.8,301.4,33.1,303.1,30.3L303.1,30.3L303.1,30.3L303.1,30.3z"/>
</g>
</svg>
