<?xml version="1.0" encoding="utf-8"?>
<!-- Generator: Adobe Illustrator 24.0.0, SVG Export Plug-In . SVG Version: 6.00 Build 0)  -->
<svg version="1.1" id="Layer_1" xmlns="http://www.w3.org/2000/svg" xmlns:xlink="http://www.w3.org/1999/xlink" x="0px" y="0px"
	 viewBox="0 0 576.3 203.1" style="enable-background:new 0 0 576.3 203.1;" xml:space="preserve">
<style type="text/css">
	.st0{fill:#C4692C;}
</style>
<g>
	<path class="st0" d="M331.1,26.4c0-4.8-0.7-8.6-2.2-11.8c0-1.7,1.2-5.8,4.1-12c0.2-0.7,0.5-1.2,0.7-1.2c0.5,0,0.7,0.5,1.2,1.2
		c0.7,1.7,2.4,6.2,5.3,13.7c3.1,7.9,4.8,12.7,5.3,14.6c0.5,1.2,0.5,2.4,0.5,2.9c0,2.2-1.9,1-6.2-3.8c-0.5-0.7-0.7-0.2-0.7,1
		c0,0.5,1.2,15.4,3.4,45.1c2.2,29.5,3.1,46.1,3.1,49.9c0,11.3-1.7,21.4-5,30c-1,1.7-1.4,2.9-1.9,3.8l0,0c-0.7,1.2-1,1.2-1.2,0.5
		c-0.2-1,0-2.9,0.2-5.5c0.5-4.1,0.7-8.6,0.7-13.7c0-4.8-1.2-24-3.6-57.8C332.3,49.4,331.1,30.5,331.1,26.4L331.1,26.4L331.1,26.4
		L331.1,26.4z"/>
	<path class="st0" d="M325.1,115.2c0,14.2-2.6,25.2-7.7,33.4c-4.3,6.7-9.4,10.3-15.1,10.3v-14.6c4.6,0,9.1-1.9,13.4-5.5
		c1.2-1,1.9-5,1.9-11.8c0-4.1-1.2-20.6-3.4-49.4s-3.1-45.8-3.1-51.1c0-4.6-0.7-8.4-2.2-11.5c0-1.7,1.4-5.8,4.1-12.2
		c0.2-0.7,0.5-1,1-1c0.2,0,0.5,0.2,1,1.2c0.7,1.7,2.6,6.2,5.5,13.7c2.9,7.9,4.6,12.7,5.3,14.4c0.2,1.4,0.5,2.6,0.5,3.1
		c0,2.2-2.2,1-6.2-3.8c-0.5-0.5-0.7-0.2-0.7,1c0,0.2,1,13.2,2.9,38.6C324.1,95,325.1,110.2,325.1,115.2L325.1,115.2L325.1,115.2
		L325.1,115.2z"/>
	<path class="st0" d="M302,158.9c-5.5,0-11-2.4-16.8-7.2c-2.9-2.4-5.3-5.3-7-8.2l-16.1,7v-13.2l11.8-5c-1.7-4.8-2.4-9.6-2.4-14.4
		c0-7.2,1-13.2,3.1-17.5c2.2-4.6,5-6.7,8.6-6.7c3.1,0,6.2,2.6,8.9,7.9c2.6,4.6,3.8,8.9,3.8,12.7c0,9.6-2.9,17.5-8.4,23.8
		c3.8,4.1,8.6,6.2,14.4,6.2v14.6H302L302,158.9z M292.2,120.5c0-1.7-1.2-4.1-3.6-7.4c-2.6-3.6-5-5.5-7.2-5.5c-1.4,0-2.9,1-4.3,2.9
		c-1.7,1.9-2.4,3.6-2.4,5.3c0,1.4,1,3.8,2.4,7.4c1.4,3.1,2.6,5,3.4,6.2c2.2-1,4.3-2.4,7-4.3C290.7,122.9,292.2,121.4,292.2,120.5
		L292.2,120.5L292.2,120.5L292.2,120.5z"/>
	<path class="st0" d="M259.1,99.6c0-1.7-2.6-4.8-8.2-8.9c-6.2-4.8-12.7-7.2-18.7-7.2c-12.7,0-25.4,10.6-37.7,31.7
		c5,1.4,9.8,2.4,14.2,2.4c7.7,0,15.8-1.4,24.5-4.3c6.7-2.2,12.7-4.8,18.5-8.2C256.7,102.2,259.1,100.3,259.1,99.6L259.1,99.6
		L259.1,99.6L259.1,99.6z M188.7,128.2c-1.2,2.9-1.7,5.5-1.7,8.2c0,9.8,8.6,14.9,25.7,14.9c8.6,0,17-1.7,25.9-4.6
		c7.9-3.1,15.6-6.5,23.5-9.6v13.2c-11,4.8-19,7.9-23.5,9.6c-11.3,4.1-20.4,6-27.6,6c-19,0-28.6-8.2-28.6-24.5
		c0-4.8,0.7-9.6,2.6-14.4c-7.4-4.1-11.5-10.1-12.7-18.2c-4.1,6.2-7.7,10.8-10.6,13.4c-5,4.6-10.6,7-16.3,7v-14.6
		c6.2,0,12.7-2.6,19-7.9c3.4-3.6,7-7,10.3-10.3c0.7-0.7,1.2-1,1.7-1c0.7,0,1.2,1.4,1.2,4.3c0,2.2,0.7,4.3,2.6,6.7
		c2.2,2.9,5.5,5.5,9.8,7.4c9.4-14.6,15.6-24,18.7-27.8c9.1-11,18.2-16.8,26.9-16.8c7.7,0,14.6,3.1,20.9,9.6
		c5.3,5.3,7.7,9.8,7.7,13.7c0,1.4-0.7,4.3-2.2,8.6c-1.7,4.8-3.1,7.9-4.6,9.6c-3.4,3.8-8.9,7.9-16.8,12.2c-11.5,6-23.3,8.9-35.3,8.9
		C201,131.8,195.5,130.6,188.7,128.2L188.7,128.2L188.7,128.2L188.7,128.2z"/>
	<path class="st0" d="M145.5,114.5v14.6c-7.9,0-13-3.1-15.4-9.4c-1-2.2-1.2-4.8-1.2-8.2c0-2.2,0.2-4.6,0.7-7.4c0.5-4.1,1.2-6,2.4-6
		c0.5,0,0.7,1,1,3.1c0,1.2,0,2.6,0,3.8c0.5,3.4,1.4,5.8,3.4,7.2C138.1,113.8,141.2,114.5,145.5,114.5L145.5,114.5L145.5,114.5
		L145.5,114.5z"/>
	<path class="st0" d="M192.1,68.6c0-1.7-2.6-4.6-7.9-8.6c-6.5-5-12.7-7.4-19-7.4c-12,0-24.5,10.8-36.7,31.9
		c4.3,1.4,8.9,2.2,13.4,2.2c7.7,0,15.6-1.4,24.2-4.1c6.7-2.2,13-5,18.5-8.2C189.7,71.5,192.1,69.6,192.1,68.6L192.1,68.6L192.1,68.6
		L192.1,68.6z M39.9,162.5c-14.6,0-25.4-5-32.2-14.9c-5.3-7.7-7.7-17.3-7.7-29c0-3.6,0.2-7,0.7-10.6c1-5.5,2.2-10.3,3.6-14.2
		c0.5-1.4,1.2-2.2,1.7-2.2s0.5,1,0.2,2.4c-2.4,12.2-3.4,19.2-3.4,20.6c0,7.4,2.4,14.4,7.4,20.6c6.7,8.2,16.6,12.5,29.3,12.5
		c11.5,0,23.5-2.6,36-7.9c10.3-4.3,19.7-9.6,28.1-15.8c7.4-5.8,11-9.8,11-12.2c0-8.2-2.4-16.8-7-26.2c-1-1.7-1.4-3.1-1.4-4.1
		c0-0.7,1-4.1,2.9-10.3c0.5-1.2,0.7-1.7,1.2-1.7s1.2,0.7,1.9,2.4c2.2,4.8,6,8.4,11,10.6c9.4-14.9,15.6-24.2,18.5-27.6
		c8.9-11,18-16.6,27.1-16.6c7.4,0,14.4,2.6,20.6,8.2c5.3,4.8,7.9,9.1,7.9,13c0,2.9-0.7,6.7-2.2,10.8c-1.4,4.3-2.9,7.4-4.8,9.6
		c-3.1,3.8-8.9,7.9-16.8,12c-11.3,6-23.3,9.1-35.3,9.1c-6.2,0-12.5-1.4-19.2-4.3c0,15.4-2.2,25.7-6.7,30.7
		C106.1,134.8,96.5,142,84,149C68.5,157.9,53.6,162.5,39.9,162.5L39.9,162.5L39.9,162.5L39.9,162.5z"/>
	<path class="st0" d="M283.3,77l3.8-7.9c0.2-0.5,0.5-0.7,1-0.7s2.4,1.2,6.2,3.8c3.6,2.4,5.5,3.8,5.5,4.3c0,1.7-1.7,5.3-4.8,10.6
		c-0.5,0.7-1,0.7-1.4,0.5c-3.1-2.4-6.7-4.8-10.8-7.4c-1.4,2.9-2.6,5.5-4.1,7.7c-0.2,0.7-0.7,1-1.2,0.7c-3.6-2.9-7.4-5.5-11.3-7.9
		c-0.2-0.2-0.2-0.5,0-1l4.6-9.6c0.2-0.5,0.7-1,1-1c0.5,0,2.2,1.2,5.3,3.4C280.2,74.4,282.3,76.1,283.3,77L283.3,77L283.3,77
		L283.3,77z"/>
	<path class="st0" d="M296,20.9c0-1.2-2.4-3.4-7.4-6.2c-1.7,2.9-2.4,5.5-2.4,7.9c0,1.4,0.7,2.4,2.2,2.4c1.2,0,2.6-0.5,4.3-1.4
		C294.3,22.8,295.5,21.8,296,20.9L296,20.9L296,20.9L296,20.9z M290.7,1.7c0.7-1.2,1.7-1.7,2.4-1.7c0.5,0,1,0.2,1,0.7
		c0,0-0.2,0.2-0.2,0.5c-1,2.2-1.9,4.6-2.6,7c5,3.6,7.4,7.4,7.2,11c-0.5,4.1-1,6.7-1.7,7.7c-2.4,2.9-5,4.6-8.4,4.6
		c-3.4,0-4.8-2.2-4.8-6c0-0.7,0-1.7,0.2-2.6C285,15.1,287.4,8.2,290.7,1.7L290.7,1.7L290.7,1.7L290.7,1.7z"/>
	<path class="st0" d="M212.3,50.4c18.5-6.7,37.7-13.9,57.8-21.4c0.7-0.2,1.2-0.5,1.4-0.2c0,0,0,0.5-0.2,1.2c-1,2.2-1.7,3.4-2.2,3.8
		c-16.8,6.2-36.7,13.9-59.3,23.3C210.3,55,211.1,52.8,212.3,50.4L212.3,50.4L212.3,50.4L212.3,50.4z"/>
	<path class="st0" d="M195.5,30c24.2-9.1,49.4-18.2,75.4-27.8c0.7-0.2,1.2-0.5,1.2-0.2c0.2,0,0.2,0.5,0,1.2c-1,2.2-1.7,3.4-2.2,3.8
		c-0.2,0.2-12.5,4.8-36.2,13.7c-24.2,8.9-37.9,14.4-40.6,16.1C193.5,34.6,194.3,32.4,195.5,30L195.5,30L195.5,30L195.5,30z"/>
	<path class="st0" d="M57.5,180.7c18.5-6.7,37.7-13.9,57.8-21.4c0.7-0.2,1.2-0.5,1.4-0.2c0,0,0,0.5-0.2,1.2c-1,2.2-1.7,3.4-2.2,3.8
		C97.5,170.3,77.6,178,55,187.4C55.5,185.3,56.3,183.1,57.5,180.7L57.5,180.7L57.5,180.7L57.5,180.7z"/>
	<path class="st0" d="M12.8,81.4c0-0.2,0.2-0.5,0.2-0.5c0.2-0.2,0.2-0.2,0.2,0c0.2,0.2,0.2,0.5,0,0.7C12,88.8,9.8,92.4,6.7,92.4
		s-4.6-2.6-4.6-7.9c0-6.5,1.7-13.4,5.5-20.4c1-1.7,1.4-2.6,1.7-2.6l0,0c0,0.2-0.2,1.2-0.7,2.9C6.2,71.8,5,76.9,5,80c0,3.8,1,6,3.1,6
		C9.7,85.9,11.1,84.2,12.8,81.4L12.8,81.4L12.8,81.4L12.8,81.4z"/>
	<path class="st0" d="M83.4,74.6c0,0.5-0.2,1.4-0.7,2.4c-0.2,1.4-0.7,2.2-1.4,2.2c-0.2,0-0.7-0.7-1.7-1.7c-0.7-1-1.7-1.4-2.4-1.4
		c-1.9,0-3.8,4.6-5.5,13.7c-0.7,4.1-1.4,7-2.4,8.6c-0.7,1-1.2,1.7-1.7,1.7c-0.2,0-0.5-0.7-0.5-1.7c0-1.7-1-4.8-2.9-9.4
		c-1.9-4.8-3.1-7-3.8-7s-1,0-1.2,0.5c0,0.2-0.5,0.5-1.2,0.5c-1,0-1.9-0.7-3.4-1.9c-1.2-1.2-1.9-2.2-1.9-2.9c0-0.2,0.5-1.4,1.7-3.4
		c1.2-1.9,1.9-2.6,2.2-2.6c2.6,0,5,1.4,7.2,4.8c2.4,3.4,3.8,7.4,4.8,12.7c0,0.5,0,0.7,0,1c0.2,0.2,0.2,0.2,0.2,0s0.2-0.5,0.5-1
		c0.2-3.1,1.4-7.9,3.1-14.2c1.9-4.3,3.8-6.5,6-6.5c1.2,0,2.4,0.7,3.6,2.2C82.9,72.7,83.4,73.7,83.4,74.6L83.4,74.6L83.4,74.6
		L83.4,74.6z M67.5,102.2c-1.7,3.8-5,7.7-10.1,11.3c-4.6,3.4-8.6,5.8-12.2,7.4c-0.7,0.5-5,2.2-13,5c-1.2,0.5-1.9,0.7-2.4,0.7
		c-0.2,0-0.2-0.2-0.2-0.2c0-0.2,0.7-1,1.9-1.7c6.5-3.8,15.6-9.4,27.6-17.3c2.9-2.2,5-4.3,6.7-6.2c1.9-2.2,2.9-3.4,3.1-3.4
		c0,0,0,0,0,0.2C69,98.4,68.5,99.8,67.5,102.2L67.5,102.2L67.5,102.2L67.5,102.2z"/>
	<path class="st0" d="M103.3,18.5c2.9,0,5.3,1.4,7.4,4.8c2.2,3.1,3.8,7.4,4.6,12.7c0.2,0.5,0.2,0.7,0.2,1h0.2c0-0.2,0.2-0.5,0.2-1
		c0.5-3.1,1.7-7.9,3.4-14.2c1.9-4.3,3.8-6.5,6-6.5c1.2,0,2.4,0.7,3.4,2.2c1,1.4,1.4,2.4,1.4,3.4c0,0.5,0,1.4-0.5,2.4
		c-0.5,1.4-1,2.2-1.4,2.2c-0.2,0-0.7-0.7-1.7-1.7c-0.7-1-1.7-1.4-2.6-1.4c-1.9,0-3.6,4.6-5.3,13.7c-0.7,4.1-1.7,7-2.4,8.6
		c-0.7,1-1.2,1.7-1.7,1.7s-0.5-0.7-0.7-1.7c0.2-1.7-0.7-4.8-2.6-9.4c-1.9-4.8-3.1-7-4.1-7c-0.5,0-0.7,0-1,0.5
		c-0.2,0.2-0.5,0.5-1.2,0.5c-1,0-1.9-0.7-3.4-1.9c-1.4-1.2-1.9-2.2-1.9-2.9c0-0.2,0.5-1.4,1.7-3.4C102.3,19.2,103.1,18.5,103.3,18.5
		L103.3,18.5L103.3,18.5L103.3,18.5z"/>
	<path class="st0" d="M57,49.9c0-0.2,0.2-0.5,0.2-0.5c0.2-0.2,0.2-0.2,0.2,0c0.2,0.2,0.2,0.5,0,0.7c-1.2,7.2-3.4,10.8-6.5,10.8
		s-4.6-2.6-4.6-7.9c0-6.5,1.7-13.4,5.5-20.4c1-1.7,1.4-2.6,1.7-2.6l0,0c0,0.2-0.2,1.2-0.7,2.9c-2.4,7.4-3.6,12.5-3.6,15.6
		c0,3.8,1,6,3.1,6C53.9,54.5,55.3,52.8,57,49.9L57,49.9L57,49.9L57,49.9z"/>
	<path class="st0" d="M180.8,7.9c0,2.6-1.2,5.5-3.1,8.6c-2.2,3.1-4.8,6-8.2,8.4c-1.4,1-2.2,1.4-2.4,1.4v-0.2c0-0.2,0.5-0.7,1.4-1.9
		c5.5-6,8.4-9.8,8.4-12c0-1.7-1-2.6-2.6-2.6c-1,0-1.9,0.2-2.6,0.7c-0.7,0.2-1,0.5-1.2,0.5c0,0-0.2,0-0.2-0.2c0,0,0-0.5,0.2-1.4
		c1-4.1,2.9-6,6.2-6C179.4,3.1,180.8,4.8,180.8,7.9L180.8,7.9L180.8,7.9L180.8,7.9z"/>
	<path class="st0" d="M158.3,167.5c0,3.6-1.9,6.7-5.5,9.6c-3.6,2.6-7.7,4.1-12.2,4.1c-0.7,0-1.9-0.2-3.1-0.7
		c-1.2-0.2-2.2-0.5-2.9-0.5c-4.8,0-9.8,2.4-14.9,7.2c-3.6,3.6-7.2,7.2-10.8,10.8c-2.2,1.7-4.3,2.9-6.7,3.6c-2.6,0.7-4.1,1.2-4.6,1.2
		v-0.2c0,0,1-0.7,2.9-1.9c1.9-1.2,4.8-3.1,8.9-6.2c1.9-1.9,4.8-5,8.4-9.1c2.4-3.1,5-5.5,7.9-7.7c3.4-2.4,6.2-3.8,9.1-4.3
		c-0.5,0.2,1.4,0.2,5,0.2c2.2-2.2,4.6-4.3,6.7-6.5c2.9-2.6,5.3-3.8,7.2-3.8C156.8,163.2,158.3,164.6,158.3,167.5L158.3,167.5
		L158.3,167.5L158.3,167.5z M155.9,169.7c-0.5-1.4-1.9-1.9-4.3-1.9c-2.2,0-5.5,2.2-9.8,6.5c0.5,0,1,0.2,1.4,0.2c2.4,0,5-0.7,7.7-1.9
		C153.5,171.6,155.1,170.6,155.9,169.7L155.9,169.7L155.9,169.7L155.9,169.7z"/>
	<path class="st0" d="M265.1,167c0,3.6-1.9,6.7-5.5,9.6c-3.6,2.6-7.7,4.1-12.2,4.1c-0.7,0-1.9-0.2-3.1-0.7c-1.2-0.2-2.2-0.5-2.9-0.5
		c-4.8,0-9.8,2.4-14.9,7.2c-3.6,3.6-7.2,7.2-10.8,10.8c-2.2,1.7-4.3,2.9-6.7,3.6c-2.6,0.7-4.1,1.2-4.6,1.2v-0.2c0,0,1-0.7,2.9-1.9
		c1.9-1.2,4.8-3.1,8.9-6.2c1.9-1.9,4.8-5,8.4-9.1c2.4-3.1,5-5.5,7.9-7.7c3.4-2.4,6.2-3.8,9.1-4.3c-0.5,0.2,1.4,0.2,5,0.2
		c2.2-2.2,4.6-4.3,6.7-6.5c2.9-2.6,5.3-3.8,7.2-3.8C263.6,162.7,265.1,164.2,265.1,167L265.1,167L265.1,167L265.1,167z M262.7,169.2
		c-0.5-1.4-1.9-1.9-4.3-1.9c-2.2,0-5.5,2.2-9.8,6.5c0.5,0,1,0.2,1.4,0.2c2.4,0,5-0.7,7.7-1.9C260.3,171.1,261.9,170.2,262.7,169.2
		L262.7,169.2L262.7,169.2L262.7,169.2z"/>
	<path class="st0" d="M285.9,175.2c2.9,0,5.3,1.4,7.4,4.8c2.2,3.1,3.8,7.4,4.6,12.7c0.2,0.5,0.2,0.7,0.2,1h0.2c0-0.2,0.2-0.5,0.2-1
		c0.5-3.1,1.7-7.9,3.4-14.2c1.9-4.3,3.8-6.5,6-6.5c1.2,0,2.4,0.7,3.4,2.2c1,1.4,1.4,2.4,1.4,3.4c0,0.5,0,1.4-0.5,2.4
		c-0.5,1.4-1,2.2-1.4,2.2c-0.2,0-0.7-0.7-1.7-1.7c-0.7-1-1.7-1.4-2.6-1.4c-1.9,0-3.6,4.6-5.3,13.7c-0.7,4.1-1.7,7-2.4,8.6
		c-0.7,1-1.2,1.7-1.7,1.7s-0.5-0.7-0.7-1.7c0.2-1.7-0.7-4.8-2.6-9.4c-1.9-4.8-3.1-7-4.1-7c-0.5,0-0.7,0-1,0.5
		c-0.2,0.2-0.5,0.5-1.2,0.5c-1,0-1.9-0.7-3.4-1.9c-1.4-1.2-1.9-2.2-1.9-2.9c0-0.2,0.5-1.4,1.7-3.4
		C285,175.9,285.7,175.2,285.9,175.2L285.9,175.2L285.9,175.2L285.9,175.2z"/>
	<path class="st0" d="M186.3,192c0-0.2,0.2-0.5,0.2-0.5c0.2-0.2,0.2-0.2,0.2,0c0.2,0.2,0.2,0.5,0,0.7c-1.2,7.2-3.4,10.8-6.5,10.8
		s-4.6-2.6-4.6-7.9c0-6.5,1.7-13.4,5.5-20.4c1-1.7,1.4-2.6,1.7-2.6l0,0c0,0.2-0.2,1.2-0.7,2.9c-2.4,7.4-3.6,12.5-3.6,15.6
		c0,3.8,1,6,3.1,6C183.2,196.6,184.7,194.9,186.3,192L186.3,192L186.3,192L186.3,192z"/>
	<path class="st0" d="M517.5,114c1.2-1,2.2-1.4,2.9-1.4c0.5,0,0.7,0.5,0.7,1.4c0,0.7-0.2,2.2-0.7,4.1s-0.7,3.4-0.7,4.6
		c0,5.3,3.8,8.2,11.3,8.2c6,0,11-2.6,14.9-7.7c2.4-4.1,5-7.9,7.4-11.8c1-1,1.7-1.4,2.4-1.4c1,0,1.2,1,0.7,3.1c-1,4.1-1.7,6-1.7,5.5
		c0,1.7,1,3.4,2.9,4.8c1.7,1.4,4.1,2.4,6.7,2.4c3.4,0,5.5-1,6.5-2.6c0-0.2-1-2.2-3.1-5.8c0.2-1.9,1.2-5.3,2.6-9.8
		c0.2-1.4,0.7-2.2,1.2-2.2s1,0.2,1.7,1.2c1.9,2.9,3.1,6.2,3.1,10.1c0,6-1.4,11-4.1,15.4c-2.9,5.3-7.2,7.9-13,7.9
		c-3.8,0-7.4-3.1-10.6-8.9c-5.3,9.6-12.2,14.4-20.6,14.4c-10.1,0-14.9-5.8-14.9-16.8c-3.8,4.6-10.3,8.6-18.7,12.5V128
		c6.2-3.1,10.3-5,11.5-5.8C509.9,120.2,513.7,117.4,517.5,114L517.5,114L517.5,114L517.5,114z"/>
	<path class="st0" d="M480.8,129.8c-3.6-4.6-6.7-6.7-9.6-6.7c-4.3,0-6.2,1-6.2,3.4c0,2.9,2.9,4.3,8.6,4.3
		C475.8,130.8,478.2,130.3,480.8,129.8L480.8,129.8L480.8,129.8L480.8,129.8z M488.3,147.4c0-1.4-0.5-3.1-1-4.8
		c-2.9,1-7.2,1.7-12.5,1.7c-11.5,0-17.3-4.1-17.3-12c0-6,1.7-11.3,5.5-16.1c3.6-4.1,7.4-6.2,11.5-6.2c3.1,0,6.2,1.9,9.8,5.5
		c3.1,3.6,6,7.7,8.4,12.7c0.2,0,0.7,0,1.7-0.5v13.2l-0.5,0.5c0,2.9-0.7,6.2-2.2,10.6c-1.7,5.5-4.3,10.1-7.4,13.7
		c-7.2,8.6-15.1,16.1-23.8,22.6c-13,9.6-24,14.6-33.6,14.6c-8.2,0-14.4-3.1-18.7-9.1c-3.8-5-5.8-11.8-5.8-19.7
		c0-10.1,2.2-20.4,6.2-31.2c1.2-2.4,1.7-3.4,2.2-3.4c0.2,0,0.2,0.2,0.2,0.7c0,0.7-0.2,1.9-0.5,3.4c-3.1,10.6-4.6,18.5-4.6,24
		c0,5,1.2,9.4,3.6,13c3.8,5,9.8,7.7,18.2,7.7c7.2,0,15.8-3.1,26.2-9.4c8.2-5,16.1-11,23.8-18.2C484.7,153.8,488.3,149.5,488.3,147.4
		L488.3,147.4L488.3,147.4L488.3,147.4z"/>
	<path class="st0" d="M422.7,111.1c-0.5-2.2-1.2-3.8-2.2-5c-0.7-1.4-1.2-2.2-1.4-2.6c0-0.5,0-2.2,0.5-5.5c0.5-3.1,0.7-5.3,1.2-6.5
		c0.2-1.2,0.5-1.7,1-1.7c0.2,0,0.5,0.2,1,0.7c3.4,3.8,7,7.7,11,11.8c1.7,1.7,2.4,2.6,2.4,3.1c0,0.2-0.2,0.5-0.7,0.5
		c-0.7,0-2.6-0.5-5.5-1.2c1.7,4.1,3.6,8.2,5.3,12c2.6,6.7,4.1,12.2,4.1,17.3c0,2.4-0.5,5.3-1.4,8.9c-1.2,4.1-2.6,7.2-4.6,9.4
		c-7,7.9-18.7,16.6-35.3,25.9c-14.4,8.4-22.8,12.5-25.4,12.5c-0.5,0-7.7,1.7-21.4,5c-14.4,3.4-23.5,5.5-27.1,6c-3.8,0.7-6.2,1-7.2,1
		c-0.5,0-0.5,0-0.5-0.2s2.6-1.7,7.9-4.1c1.9-1,13-5.8,33.4-14.4c14.2-6,25.9-11.5,35.3-16.6c14.2-7.7,25-14.4,32.4-19.9
		c5.5-4.3,8.4-7.4,8.4-9.4c0-0.5-1.4-3.8-4.3-10.1C426.3,121,423.9,115.2,422.7,111.1L422.7,111.1L422.7,111.1L422.7,111.1z"/>
	<path class="st0" d="M403.1,77.8c0,3.8-1.9,9.1-5.8,15.6c-2.4,4.1-6,9.6-10.8,16.8c4.8,5.5,8.2,10.6,9.8,14.9
		c1,3.1,1.7,7.2,1.7,11.8c0,1.9-0.5,4.3-1.4,7.4c-0.7,2.9-1.7,5-2.6,6.5c-1.9,2.9-5,5.8-9.8,8.6c-5,3.4-9.4,5-13,5
		c-5.8,0-8.6-4.3-8.6-13c0-5.8,1-11.5,2.9-16.8c1.9-4.6,5-10.6,10.1-18.5c-4.3-4.1-8.9-9.8-13.9-17c-0.5-0.7-1.7-1.9-3.6-3.8
		c-1-1-1.4-2.2-1.4-3.6c0-2.2,0.2-4.6,0.7-7.4c0.7-2.9,1.2-4.1,1.4-4.1c0.7,0,2.9,1.2,7,3.8c3.8,2.6,7,4.6,8.9,6.2
		c1.2,0.7,1.7,1.4,1.7,1.4v0.2c0,0.2-0.7,0.5-2.4,0.5c-3.1,0-4.8,0.2-4.8,0.5c0,0.2,0.5,0.7,1.4,1.9c3.8,4.8,7.7,8.4,11.8,11.3
		c1-1.4,4.3-6.2,9.6-14.4c4.6-7,7.2-11.8,8.4-14.6c1.2-2.9,1.9-4.1,2.4-4.1C402.8,73,403.1,74.4,403.1,77.8L403.1,77.8L403.1,77.8
		L403.1,77.8z M393.7,136.8c-2.6-5.3-7.2-10.8-13.4-16.1c-2.2,2.2-4.8,6.2-8.2,12c-3.8,6.5-5.5,10.6-5.5,12.7c0,2.9,1.9,4.3,6.2,4.3
		c1.9,0,4.3-0.7,7.4-1.9c4.3-1.9,8.4-4.6,11.8-7.9C393.5,138.5,393.9,137.5,393.7,136.8L393.7,136.8L393.7,136.8L393.7,136.8z"/>
	<path class="st0" d="M380.3,59.8l3.8-7.9c0.2-0.5,0.5-0.7,1-0.7s2.4,1.2,6.2,3.8c3.6,2.4,5.5,3.8,5.5,4.3c0,1.7-1.7,5.3-4.8,10.6
		c-0.5,0.7-1,0.7-1.4,0.5c-3.1-2.4-6.7-4.8-10.8-7.4c-1.4,2.9-2.6,5.5-4.1,7.7c-0.2,0.7-0.7,1-1.2,0.7c-3.6-2.9-7.4-5.5-11.3-7.9
		c-0.2-0.2-0.2-0.5,0-1l4.6-9.6c0.2-0.5,0.7-1,1-1c0.5,0,2.2,1.2,5.3,3.4C377.1,57.1,379.3,58.8,380.3,59.8L380.3,59.8L380.3,59.8
		L380.3,59.8z"/>
	<path class="st0" d="M506.7,193.4c-2.6,0.7-4.1,1.2-4.6,1.2v-0.2c0,0,1-0.7,2.9-1.9c1.9-1.2,4.8-3.1,8.9-6.2c1.9-1.9,4.8-5,8.4-9.4
		c2.4-2.9,5-5.5,7.9-7.4c3.6-2.6,7-3.8,10.6-3.8c0.7,0,1.9,0.2,3.4,0.7c1.2,0.5,2.4,0.7,3.4,0.7c1.9,0,3.4-0.7,4.6-2.2
		c0.7-1.4,1.7-2.6,2.6-4.1c0.5-1,1.2-1.4,1.7-1.4c0.2,0,0.2,0.2,0.2,0.7s-0.2,1.7-0.7,3.1c-0.5,0.7,1.4,1,5,1c0.5,0,0.7,0,0.7-0.2
		c0,0-0.2-1-0.7-2.6c-0.2-0.5,0-1.2,0.7-2.2c1-1.7,1.4-2.4,1.7-2.2c1,0.7,1.4,2.2,1.4,3.8c0,1.7-0.5,3.4-1.2,5.3
		c-0.7,2.2-1.4,3.4-1.9,3.8c-1.7,1-4.3,0.7-7.9-1c-2.9,2.9-5.8,4.6-8.6,4.6c-0.7,0-1.9-0.2-3.1-0.7c-1.2-0.5-2.2-0.7-2.9-0.7
		c-4.8,0-9.8,2.2-14.9,7c-3.6,3.6-7.2,7.2-10.8,10.8C511.3,191.5,509.1,192.7,506.7,193.4L506.7,193.4L506.7,193.4L506.7,193.4z"/>
	<path class="st0" d="M455.1,63.8c2.9,0,5.3,1.4,7.4,4.8c2.2,3.1,3.8,7.4,4.6,12.7c0.2,0.5,0.2,0.7,0.2,1h0.2c0-0.2,0.2-0.5,0.2-1
		c0.5-3.1,1.7-7.9,3.4-14.2c1.9-4.3,3.8-6.5,6-6.5c1.2,0,2.4,0.7,3.4,2.2c1,1.4,1.4,2.4,1.4,3.4c0,0.5,0,1.4-0.5,2.4
		c-0.5,1.4-1,2.2-1.4,2.2c-0.2,0-0.7-0.7-1.7-1.7c-0.7-1-1.7-1.4-2.6-1.4c-1.9,0-3.6,4.6-5.3,13.7c-0.7,4.1-1.7,7-2.4,8.6
		c-0.7,1-1.2,1.7-1.7,1.7s-0.5-0.7-0.7-1.7c0.2-1.7-0.7-4.8-2.6-9.4c-1.9-4.8-3.1-7-4.1-7c-0.5,0-0.7,0-1,0.5
		c-0.2,0.2-0.5,0.5-1.2,0.5c-1,0-1.9-0.7-3.4-1.9c-1.4-1.2-1.9-2.2-1.9-2.9c0-0.2,0.5-1.4,1.7-3.4C454.2,64.6,454.9,63.8,455.1,63.8
		L455.1,63.8L455.1,63.8L455.1,63.8z"/>
	<path class="st0" d="M414.6,61c24.2-9.1,49.4-18.2,75.4-27.8c0.7-0.2,1.2-0.5,1.2-0.2c0.2,0,0.2,0.5,0,1.2c-1,2.2-1.7,3.4-2.2,3.8
		c-0.2,0.2-12.5,4.8-36.2,13.7c-24.2,8.9-37.9,14.4-40.6,16.1C412.7,65.5,413.4,63.4,414.6,61L414.6,61L414.6,61L414.6,61z"/>
	<path class="st0" d="M391.1,17c0.5-1.4,0.5-2.9,0.2-4.3s-1-2.2-2.2-2.2c-0.5,0-1.2,0.2-2.2,0.7s-1.4,1-1.4,1.4
		C385.5,13.9,387.5,15.4,391.1,17L391.1,17L391.1,17L391.1,17z M388.2,23.3c-4.6-2.4-6.7-4.8-6.7-7.4c0-3.1,1.4-6,4.3-8.4
		c2.9-2.6,5.3-3.6,7.2-2.9c1.7,0.5,2.4,2.2,2.4,5c0,2.6-0.5,5.5-1.7,8.9c2.4,1.2,3.8,2.4,4.3,3.4c0,1.2-1,3.4-3.1,6.2
		c-0.5-1-1.9-2.2-4.1-3.4c-2.6,3.6-5.8,6.7-9.6,9.6c-4.6,3.1-8.6,5.8-12.2,7.2c-1,0.5-5.3,2.2-13,5c-1.2,0.5-2.2,0.7-2.4,0.7
		c-0.2,0-0.2-0.2-0.2-0.2c0-0.2,0.5-1,1.9-1.7c5.8-3.6,11.5-7,17.5-10.3C379.8,30.7,384.8,26.9,388.2,23.3L388.2,23.3L388.2,23.3
		L388.2,23.3z"/>
	<path class="st0" d="M539.9,53c0.5-1.4,0.5-2.9,0.2-4.3c-0.2-1.4-1-2.2-2.2-2.2c-0.5,0-1.2,0.2-2.2,0.7s-1.4,1-1.4,1.4
		C534.3,49.9,536.3,51.4,539.9,53L539.9,53L539.9,53L539.9,53z M545.1,61.9c-2.4,5.8-3.6,10.3-3.6,13.7c0,4.1,1,6.2,3.1,6.2
		c1.2,0,2.6-1.7,4.3-4.6c0.2-0.2,0.2-0.5,0.5-0.7c0,0,0.2,0,0.2,0.2c0,0,0,0.2,0,0.7c-1.4,7.2-3.6,10.8-6.5,10.8
		c-3.1,0-4.6-2.6-4.6-7.9c0-2.6,0.5-6,1.9-10.3s2.2-6.5,2.2-6.7c0-0.5-1-1.4-3.1-2.6c-3.8,5-9.1,9.8-15.8,13.9
		c-4.6,2.6-9.1,5-13.9,7c-8.9,3.6-14.2,5.5-15.4,6.2c-1.2,0.5-1.9,0.7-2.4,0.7c-0.2,0-0.2-0.2-0.2-0.2c0-0.5,0.5-1,1.9-1.9
		c7.7-4.3,15.1-8.6,22.8-13c10.1-5.8,17-10.6,20.4-14.2c-4.6-2.4-6.7-4.8-6.7-7.4c0-3.1,1.4-6,4.3-8.6c2.9-2.4,5.3-3.4,7.2-2.6
		c1.4,0.5,2.4,2.2,2.4,5c0,2.6-0.5,5.5-1.7,8.6c2.4,1.4,3.4,2.9,3.4,4.3C545.9,59.3,545.6,60.5,545.1,61.9L545.1,61.9L545.1,61.9
		L545.1,61.9z"/>
	<path class="st0" d="M432.6,30.5c0-0.2,0.2-0.5,0.2-0.5c0.2-0.2,0.2-0.2,0.2,0c0.2,0.2,0.2,0.5,0,0.7c-1.2,7.2-3.4,10.8-6.5,10.8
		s-4.6-2.6-4.6-7.9c0-6.5,1.7-13.4,5.5-20.4c1-1.7,1.4-2.6,1.7-2.6l0,0c0,0.2-0.2,1.2-0.7,2.9c-2.4,7.4-3.6,12.5-3.6,15.6
		c0,3.8,1,6,3.1,6C429.5,35,430.9,33.4,432.6,30.5L432.6,30.5L432.6,30.5L432.6,30.5z"/>
</g>
</svg>
