<?xml version="1.0" encoding="utf-8"?>
<!-- Generator: Adobe Illustrator 24.0.0, SVG Export Plug-In . SVG Version: 6.00 Build 0)  -->
<svg version="1.1" id="Layer_1" xmlns="http://www.w3.org/2000/svg" xmlns:xlink="http://www.w3.org/1999/xlink" x="0px" y="0px"
	 viewBox="0 0 488.6 203.6" style="enable-background:new 0 0 488.6 203.6;" xml:space="preserve">
<style type="text/css">
	.st0{fill:#C4692C;}
</style>
<g>
	<path class="st0" d="M245.7,141.7c-3.6-5.3-7.4-7.9-12-7.9c-3.1,0-4.6,1-4.6,3.1c0,2.2,1.9,3.6,5.8,4.1
		C237.3,140.9,240.9,141.2,245.7,141.7L245.7,141.7L245.7,141.7L245.7,141.7z M256.5,164.9c0.5,0,1-0.5,1-1.2c0-1.7-1.7-3.6-4.6-5.5
		c-3.4-2.2-7.2-3.1-11.5-3.1h-9.9c-3.6,0-6.5-1.2-8.6-3.6c-1.9-2.4-3.1-5.3-3.1-9.1c0-4.8,1.9-9.8,5.3-15.1c3.6-5,7-7.4,10.8-7.4
		c6,0,11.5,3.4,16.8,10.1c5.8,7.4,8.4,16.1,8.4,26.4c0,10.6-2.6,18-8.4,22.3c-1.9,1.4-7.2,3.8-16.3,7.2c-12,4.8-24.5,8.4-37.4,11.3
		c-17.3,4.1-33.6,6-49.4,6c-5,0-10.6-0.7-17-1.7c-5-1-8.6-1.9-10.6-2.6v-14.6c6.2,2.9,17.5,4.3,33.6,4.3
		C189.8,188.5,223.4,180.5,256.5,164.9L256.5,164.9L256.5,164.9L256.5,164.9z"/>
	<path class="st0" d="M109.6,175.5c3.8,3.6,7.9,6.5,12,8.6v14.6c-5.8-2.4-10.1-4.8-13-7c-4.3-3.4-7.7-7.4-10.3-12.7
		c-2.6-5.8-4.6-20.6-5.3-44.6c-1.4-42.5-2.6-66.7-3.1-72.7c-1.2-11.3-3.1-19.9-5.5-26.2c0-1.9,1-5.8,3.4-11.5c0.5-1.2,1-1.7,1.2-1.7
		s0.7,0.5,1.2,1.4c2.9,5.8,5,15.4,6.5,29.5c0.7,6.2,1.4,20.4,2.2,42.5c0.5,12.5,0.7,25,1.2,37.4
		C101.2,156.3,104.3,170.2,109.6,175.5L109.6,175.5L109.6,175.5L109.6,175.5z"/>
	<path class="st0" d="M129.8,90.3c0-1.9-0.5-11.5-1.7-28.8s-1.9-27.4-1.9-29.8c0-4.8-0.7-8.6-2.2-11.8c0-1.7,1.4-5.5,4.1-12
		c0.2-0.7,0.7-1.2,1-1.2s0.5,0.5,1,1.2c0.7,1.7,2.6,6.2,5.3,13.7c3.1,7.9,4.8,12.7,5.3,14.6c0.5,1.2,0.7,2.4,0.7,2.9
		c0,2.4-2.2,1-6.2-3.8c-0.5-0.5-0.7-0.2-0.7,1c0,0,0.5,6,1.2,17.5c1,11.5,1.4,18.5,1.4,21.1c0,7.4-1,18-2.9,31.2
		c8.6-10.6,14.2-17,16.3-19.4c7.4-6.7,14.6-10.3,22.1-10.3c5.8,0,11.5,2.9,16.8,8.4c4.3,4.6,6.5,8.2,6.5,10.8
		c0,4.3-1.2,8.6-3.6,12.7c-2.6,4.3-6,7.7-9.8,10.1c-6.2,3.6-18.7,9.1-37.2,16.6c-7.4,2.9-17.8,6.7-31,11.5v-13.2
		c3.1-5.3,7.7-12.2,13.9-20.9c1-1.4,1.7-3.4,1.7-6.2C129.8,105.7,129.8,100.4,129.8,90.3L129.8,90.3L129.8,90.3L129.8,90.3z
		 M187.6,102.8c0.7-0.7,0.7-1.4,0-2.6c-5-6.2-11.5-9.6-19.4-9.6c-5.5,0-12,2.9-18.7,8.2c-5,3.8-10.8,9.6-17,17
		c-4.3,5.3-8.4,10.3-12.7,15.6c7.7-2.6,19.4-7.2,35.3-13.9C173,110,183.8,105.2,187.6,102.8L187.6,102.8L187.6,102.8L187.6,102.8z"
		/>
	<path class="st0" d="M68.8,159.9c5-5.8,11.8-10.8,20.2-15.4c4.8-2.6,13.2-6.5,25.2-11.5v13.2c-7.7,3.4-13.2,5.8-16.8,7.4
		c-7.4,3.6-12.5,6.2-15.1,8.4c-5,3.8-12.5,11.3-22.1,22.3c-5.8,6.7-11.5,10.1-17.3,10.1c-4.8,0-9.1-2.2-12.7-6.7
		c-3.8-4.3-5.5-10.1-5.5-16.6c0-8.9,3.6-20.6,11-35.3c0.7-1.4,1.4-2.2,1.9-2.2c0,0,0.2,0.2,0.2,0.5c0,1.4-1.7,6.5-4.8,15.1
		c-3.4,8.9-5,15.6-5,20.6c0,3.8,1,7,2.9,9.1c1.9,2.6,4.6,3.8,7.9,3.8c6,0,12.2-3.1,18.2-9.1C61.1,169.3,65,164.5,68.8,159.9
		L68.8,159.9L68.8,159.9L68.8,159.9z"/>
	<path class="st0" d="M224.3,96.3c-0.2-0.2-0.2-0.5,0-1l4.6-9.6c0.2-0.5,0.7-0.7,1-0.7c0.5,0,2.6,1.2,6.2,3.6
		c3.8,2.6,5.8,4.1,5.8,4.6c0,1.7-1.7,5-5,10.3c-0.5,0.7-0.7,1-1.2,0.7C232,101.3,228.2,98.7,224.3,96.3L224.3,96.3L224.3,96.3
		L224.3,96.3z"/>
	<path class="st0" d="M157.9,51.2C198.5,35.8,239.7,20.5,282,4.6c0.7-0.2,1.2-0.5,1.2-0.2c0.2,0,0.2,0.5,0,1.2
		c-1,2.2-1.7,3.4-2.2,3.8c-38.6,14.4-80.6,30.5-125.5,48.5C155.9,55.7,156.7,53.6,157.9,51.2L157.9,51.2L157.9,51.2L157.9,51.2z"/>
	<path class="st0" d="M132.7,153.9c18.5-6.7,37.7-13.9,57.8-21.4c0.7-0.2,1.2-0.5,1.4-0.2c0,0,0,0.5-0.2,1.2c-1,2.2-1.7,3.4-2.2,3.8
		c-16.8,6.2-36.7,13.9-59.3,23.3C130.7,158.5,131.5,156.3,132.7,153.9L132.7,153.9L132.7,153.9L132.7,153.9z"/>
	<path class="st0" d="M58.3,195.9c9.6-3.4,19.9-7.2,31-11c1-0.2,1.2-0.5,1.4-0.2c0.2,0,0.2,0.5-0.2,1.2c-0.7,2.2-1.4,3.4-1.9,3.8
		c-9.6,3.4-20.4,7.4-32.6,13C56.3,200.5,57.1,198.3,58.3,195.9L58.3,195.9L58.3,195.9L58.3,195.9z"/>
	<path class="st0" d="M246.7,55.7c0,1-0.5,2.2-1.4,4.1c-1,2.2-1.9,3.6-2.9,4.1c-7.2,5-14.9,7.7-23.5,7.7c-1.4,0-3.6-0.7-6.5-1.7
		c-2.6-1-4.3-1.9-5.3-2.6c-0.2-0.2-0.5-0.5-1-1s-0.5-0.5-0.2-0.7c0,0,0.7,0,1.9,0.2c4.3,0.5,9.1,0.2,13.9-0.7c1.7-1,3.4-2.6,5-4.8
		c2.4-7.4,3.8-11.5,3.8-11.8c0-1.4-0.5-2.6-1.2-3.8c-0.5-1-1.2-1.4-1.9-1.4c-1.7,0-2.9,0.5-4.3,1.9c-0.7,0.7-1,1-1.2,1
		c0,0,0-0.5,0-1.7c0-2.2,0.7-3.8,2.2-5.5c1.7-1.4,3.1-2.2,4.6-2.2c3.4,0,5.3,2.4,5.3,7.4c0,3.4-1.7,8.2-4.8,13.9
		c4.8-4.3,8.9-6.5,11.8-6.5c1,0,1.9,0.2,3.4,1C245.9,53.6,246.7,54.8,246.7,55.7L246.7,55.7L246.7,55.7L246.7,55.7z M241.1,59.1
		c0-0.5-0.2-0.7-1-1.2c-0.7-0.5-1.4-0.5-2.2-0.5c-1.2,0-2.9,0.7-5.5,2.4c-2.6,1.9-4.6,3.4-5.5,4.8c2.4-0.2,5.5-1.2,9.1-2.9
		C239.5,60.3,241.1,59.3,241.1,59.1L241.1,59.1L241.1,59.1L241.1,59.1z"/>
	<path class="st0" d="M188.3,3.2c2.9,0,5.3,1.4,7.4,4.8c2.2,3.1,3.8,7.4,4.6,12.7c0.2,0.5,0.2,0.7,0.2,1h0.2c0-0.2,0.2-0.5,0.2-1
		c0.5-3.1,1.7-7.9,3.4-14.2c1.9-4.3,3.8-6.5,6-6.5c1.2,0,2.4,0.7,3.4,2.2c1,1.4,1.4,2.4,1.4,3.4c0,0.5,0,1.4-0.5,2.4
		c-0.5,1.4-1,2.2-1.4,2.2c-0.2,0-0.7-0.7-1.7-1.7c-0.7-1-1.7-1.4-2.6-1.4c-1.9,0-3.6,4.6-5.3,13.7c-0.7,4.1-1.7,7-2.4,8.6
		c-0.7,1-1.2,1.7-1.7,1.7s-0.5-0.7-0.7-1.7c0.2-1.7-0.7-4.8-2.6-9.4c-1.9-4.8-3.1-7-4.1-7c-0.5,0-0.7,0-1,0.5
		c-0.2,0.2-0.5,0.5-1.2,0.5c-1,0-1.9-0.7-3.4-1.9c-1.4-1.2-1.9-2.2-1.9-2.9c0-0.2,0.5-1.4,1.7-3.4C187.4,3.9,188.1,3.2,188.3,3.2
		L188.3,3.2L188.3,3.2L188.3,3.2z"/>
	<path class="st0" d="M42.9,123.4c0-0.2,0.2-0.5,0.2-0.5c0.2-0.2,0.2-0.2,0.2,0c0.2,0.2,0.2,0.5,0,0.7c-1.2,7.2-3.4,10.8-6.5,10.8
		s-4.6-2.6-4.6-7.9c0-6.5,1.7-13.4,5.5-20.4c1-1.7,1.4-2.6,1.7-2.6l0,0c0,0.2-0.2,1.2-0.7,2.9c-2.4,7.4-3.6,12.5-3.6,15.6
		c0,3.8,1,6,3.1,6C39.8,128,41.2,126.3,42.9,123.4L42.9,123.4L42.9,123.4L42.9,123.4z"/>
	<path class="st0" d="M69.3,68c0,0.5-0.2,1.4-0.5,2.4c-0.5,1.4-1,2.2-1.7,2.2c-0.2,0-0.7-0.7-1.7-1.7c-0.7-1-1.7-1.4-2.4-1.4
		c-1.9,0-3.8,4.6-5.5,13.7c-0.7,4.1-1.4,6.7-2.4,8.4c-0.7,1.2-1.2,1.7-1.7,1.7c-0.2,0-0.5-0.5-0.5-1.4c0-1.7-1-4.8-2.9-9.4
		c-1.7-4.8-3.1-7-3.8-7c-0.5,0-1,0-1,0.5c-0.2,0.2-0.7,0.5-1.4,0.5c-1,0-2.2-0.7-3.6-1.9c-1.4-1.4-1.9-2.4-1.7-2.9
		c2.2-4.1,3.4-6,3.8-6c2.6,0,5.3,1.4,7.4,4.8c2.2,3.1,3.6,7.4,4.6,12.5c0,0.7,0,1,0,1c0.2,0.2,0.2,0.2,0.2,0c0,0,0.2-0.2,0.5-1
		c0.5-2.9,1.4-7.7,3.1-13.9c1.9-4.3,3.8-6.5,6.2-6.5c1,0,2.2,0.7,3.4,2.2C68.8,66.1,69.3,67,69.3,68L69.3,68L69.3,68L69.3,68z
		 M38.6,71.6c0.5-1,1-1.4,1.2-1.4c0,0,0.2,0.2,0,0.2c0.2,0.7-0.5,2.4-1.9,5c-2.4,4.6-5.8,8.2-10.1,11.3c-4.6,3.4-8.6,5.8-12.2,7.4
		c-0.7,0.5-5,2.2-13,5c-1.2,0.5-1.9,0.7-2.4,0.7C0,99.8,0,99.6,0,99.6c0-0.2,0.7-1,1.9-1.7c6.7-3.6,15.8-9.4,27.6-17.3
		C34.3,77.1,37.1,74,38.6,71.6L38.6,71.6L38.6,71.6L38.6,71.6z"/>
	<path class="st0" d="M72.4,124.4c0-0.2,0.2-0.5,0.2-0.5c0.2-0.2,0.2-0.2,0.2,0c0.2,0.2,0.2,0.5,0,0.7c-1.2,7.2-3.4,10.8-6.5,10.8
		s-4.6-2.6-4.6-7.9c0-6.5,1.7-13.4,5.5-20.4c1-1.7,1.4-2.6,1.7-2.6l0,0c0,0.2-0.2,1.2-0.7,2.9c-2.4,7.4-3.6,12.5-3.6,15.6
		c0,3.8,1,6,3.1,6C69.3,128.9,70.7,127.3,72.4,124.4L72.4,124.4L72.4,124.4L72.4,124.4z"/>
	<path class="st0" d="M194.1,156.3c0,2.6-1.2,5.5-3.1,8.6c-2.2,3.1-4.8,6-8.2,8.4c-1.4,1-2.2,1.4-2.4,1.4v-0.2
		c0-0.2,0.5-0.7,1.4-1.9c5.5-6,8.4-9.8,8.4-12c0-1.7-1-2.6-2.6-2.6c-1,0-1.9,0.2-2.6,0.7c-0.7,0.2-1,0.5-1.2,0.5c0,0-0.2,0-0.2-0.2
		c0,0,0-0.5,0.2-1.4c1-4.1,2.9-6,6.2-6C192.7,151.5,194.1,153.2,194.1,156.3L194.1,156.3L194.1,156.3L194.1,156.3z"/>
	<path class="st0" d="M429.8,114.8c1.2-1,2.2-1.4,2.9-1.4c0.5,0,0.7,0.5,0.7,1.4c0,0.7-0.2,2.2-0.7,4.1s-0.7,3.4-0.7,4.6
		c0,5.3,3.8,8.2,11.3,8.2c6,0,11-2.6,14.9-7.7c2.4-4.1,5-7.9,7.4-11.8c1-1,1.7-1.4,2.4-1.4c1,0,1.2,1,0.7,3.1c-1,4.1-1.7,6-1.7,5.5
		c0,1.7,1,3.4,2.9,4.8c1.7,1.4,4.1,2.4,6.7,2.4c3.4,0,5.5-1,6.5-2.6c0-0.2-1-2.2-3.1-5.8c0.2-1.9,1.2-5.3,2.6-9.8
		c0.2-1.4,0.7-2.2,1.2-2.2s1,0.2,1.7,1.2c1.9,2.9,3.1,6.2,3.1,10.1c0,6-1.4,11-4.1,15.4c-2.9,5.3-7.2,7.9-13,7.9
		c-3.8,0-7.4-3.1-10.6-8.9c-5.3,9.6-12.2,14.4-20.6,14.4c-10.1,0-14.9-5.8-14.9-16.8c-3.8,4.6-10.3,8.6-18.7,12.5v-13.2
		c6.2-3.1,10.3-5,11.5-5.8C422.1,121,425.9,118.1,429.8,114.8L429.8,114.8L429.8,114.8L429.8,114.8z"/>
	<path class="st0" d="M393.1,130.6c-3.6-4.6-6.7-6.7-9.6-6.7c-4.3,0-6.2,1-6.2,3.4c0,2.9,2.9,4.3,8.6,4.3
		C388,131.6,390.4,131.1,393.1,130.6L393.1,130.6L393.1,130.6L393.1,130.6z M400.5,148.1c0-1.4-0.5-3.1-1-4.8
		c-2.9,1-7.2,1.7-12.5,1.7c-11.5,0-17.3-4.1-17.3-12c0-6,1.7-11.3,5.5-16.1c3.6-4.1,7.4-6.2,11.5-6.2c3.1,0,6.2,1.9,9.8,5.5
		c3.1,3.6,6,7.7,8.4,12.7c0.2,0,0.7,0,1.7-0.5v13.2l-0.5,0.5c0,2.9-0.7,6.2-2.2,10.6c-1.7,5.5-4.3,10.1-7.4,13.7
		c-7.2,8.6-15.1,16.1-23.8,22.6c-13,9.6-24,14.6-33.6,14.6c-8.2,0-14.4-3.1-18.7-9.1c-3.8-5-5.8-11.8-5.8-19.7
		c0-10.1,2.2-20.4,6.2-31.2c1.2-2.4,1.7-3.4,2.2-3.4c0.2,0,0.2,0.2,0.2,0.7c0,0.7-0.2,1.9-0.5,3.4c-3.1,10.6-4.6,18.5-4.6,24
		c0,5,1.2,9.4,3.6,13c3.8,5,9.8,7.7,18.2,7.7c7.2,0,15.8-3.1,26.2-9.4c8.2-5,16.1-11,23.8-18.2C396.9,154.6,400.5,150.3,400.5,148.1
		L400.5,148.1L400.5,148.1L400.5,148.1z"/>
	<path class="st0" d="M335,111.9c-0.5-2.2-1.2-3.8-2.2-5c-0.7-1.4-1.2-2.2-1.4-2.6c0-0.5,0-2.2,0.5-5.5c0.5-3.1,0.7-5.3,1.2-6.5
		c0.2-1.2,0.5-1.7,1-1.7c0.2,0,0.5,0.2,1,0.7c3.4,3.8,7,7.7,11,11.8c1.7,1.7,2.4,2.6,2.4,3.1c0,0.2-0.2,0.5-0.7,0.5
		c-0.7,0-2.6-0.5-5.5-1.2c1.7,4.1,3.6,8.2,5.3,12c2.6,6.7,4.1,12.2,4.1,17.3c0,2.4-0.5,5.3-1.4,8.9c-1.2,4.1-2.6,7.2-4.6,9.4
		c-7,7.9-18.7,16.6-35.3,25.9c-14.4,8.4-22.8,12.5-25.4,12.5c-0.5,0-7.7,1.7-21.4,5c-14.4,3.4-23.5,5.5-27.1,6c-3.8,0.7-6.2,1-7.2,1
		c-0.5,0-0.5,0-0.5-0.2s2.6-1.7,7.9-4.1c1.9-1,13-5.8,33.4-14.4c14.2-6,25.9-11.5,35.3-16.6c14.2-7.7,25-14.4,32.4-19.9
		c5.5-4.3,8.4-7.4,8.4-9.4c0-0.5-1.4-3.8-4.3-10.1C338.6,121.7,336.2,116,335,111.9L335,111.9L335,111.9L335,111.9z"/>
	<path class="st0" d="M315.3,78.5c0,3.8-1.9,9.1-5.8,15.6c-2.4,4.1-6,9.6-10.8,16.8c4.8,5.5,8.2,10.6,9.8,14.9
		c1,3.1,1.7,7.2,1.7,11.8c0,1.9-0.5,4.3-1.4,7.4c-0.7,2.9-1.7,5-2.6,6.5c-1.9,2.9-5,5.8-9.8,8.6c-5,3.4-9.4,5-13,5
		c-5.8,0-8.6-4.3-8.6-13c0-5.8,1-11.5,2.9-16.8c1.9-4.6,5-10.6,10.1-18.5c-4.3-4.1-8.9-9.8-13.9-17c-0.5-0.7-1.7-1.9-3.6-3.8
		c-1-1-1.4-2.2-1.4-3.6c0-2.2,0.2-4.6,0.7-7.4c0.7-2.9,1.2-4.1,1.4-4.1c0.7,0,2.9,1.2,7,3.8c3.8,2.6,7,4.6,8.9,6.2
		c1.2,0.7,1.7,1.4,1.7,1.4v0.2c0,0.2-0.7,0.5-2.4,0.5c-3.1,0-4.8,0.2-4.8,0.5c0,0.2,0.5,0.7,1.4,1.9c3.8,4.8,7.7,8.4,11.8,11.3
		c1-1.4,4.3-6.2,9.6-14.4c4.6-7,7.2-11.8,8.4-14.6c1.2-2.9,1.9-4.1,2.4-4.1C315.1,73.7,315.3,75.2,315.3,78.5L315.3,78.5L315.3,78.5
		L315.3,78.5z M305.9,137.6c-2.6-5.3-7.2-10.8-13.4-16.1c-2.2,2.2-4.8,6.2-8.2,12c-3.8,6.5-5.5,10.6-5.5,12.7c0,2.9,1.9,4.3,6.2,4.3
		c1.9,0,4.3-0.7,7.4-1.9c4.3-1.9,8.4-4.6,11.8-7.9C305.7,139.3,306.2,138.3,305.9,137.6L305.9,137.6L305.9,137.6L305.9,137.6z"/>
	<path class="st0" d="M292.5,60.5l3.8-7.9c0.2-0.5,0.5-0.7,1-0.7s2.4,1.2,6.2,3.8c3.6,2.4,5.5,3.8,5.5,4.3c0,1.7-1.7,5.3-4.8,10.6
		c-0.5,0.7-1,0.7-1.4,0.5c-3.1-2.4-6.7-4.8-10.8-7.4c-1.4,2.9-2.6,5.5-4.1,7.7c-0.2,0.7-0.7,1-1.2,0.7c-3.6-2.9-7.4-5.5-11.3-7.9
		c-0.2-0.2-0.2-0.5,0-1l4.6-9.6c0.2-0.5,0.7-1,1-1c0.5,0,2.2,1.2,5.3,3.4C289.4,57.9,291.5,59.6,292.5,60.5L292.5,60.5L292.5,60.5
		L292.5,60.5z"/>
	<path class="st0" d="M419,194.5c-2.6,0.7-4.1,1.2-4.6,1.2v-0.2c0,0,1-0.7,2.9-1.9c1.9-1.2,4.8-3.1,8.9-6.2c1.9-1.9,4.8-5,8.4-9.4
		c2.4-2.9,5-5.5,7.9-7.4c3.6-2.6,7-3.8,10.6-3.8c0.7,0,1.9,0.2,3.4,0.7c1.2,0.5,2.4,0.7,3.4,0.7c1.9,0,3.4-0.7,4.6-2.2
		c0.7-1.4,1.7-2.6,2.6-4.1c0.5-1,1.2-1.4,1.7-1.4c0.2,0,0.2,0.2,0.2,0.7s-0.2,1.7-0.7,3.1c-0.5,0.7,1.4,1,5,1c0.5,0,0.7,0,0.7-0.2
		c0,0-0.2-1-0.7-2.6c-0.2-0.5,0-1.2,0.7-2.2c1-1.7,1.4-2.4,1.7-2.2c1,0.7,1.4,2.2,1.4,3.8c0,1.7-0.5,3.4-1.2,5.3
		c-0.7,2.2-1.4,3.4-1.9,3.8c-1.7,1-4.3,0.7-7.9-1c-2.9,2.9-5.8,4.6-8.6,4.6c-0.7,0-1.9-0.2-3.1-0.7c-1.2-0.5-2.2-0.7-2.9-0.7
		c-4.8,0-9.8,2.2-14.9,7c-3.6,3.6-7.2,7.2-10.8,10.8C423.5,192.5,421.4,193.7,419,194.5L419,194.5L419,194.5L419,194.5z"/>
	<path class="st0" d="M367.4,64.9c2.9,0,5.3,1.4,7.4,4.8c2.2,3.1,3.8,7.4,4.6,12.7c0.2,0.5,0.2,0.7,0.2,1h0.2c0-0.2,0.2-0.5,0.2-1
		c0.5-3.1,1.7-7.9,3.4-14.2c1.9-4.3,3.8-6.5,6-6.5c1.2,0,2.4,0.7,3.4,2.2c1,1.4,1.4,2.4,1.4,3.4c0,0.5,0,1.4-0.5,2.4
		c-0.5,1.4-1,2.2-1.4,2.2c-0.2,0-0.7-0.7-1.7-1.7c-0.7-1-1.7-1.4-2.6-1.4c-1.9,0-3.6,4.6-5.3,13.7c-0.7,4.1-1.7,7-2.4,8.6
		c-0.7,1-1.2,1.7-1.7,1.7s-0.5-0.7-0.7-1.7c0.2-1.7-0.7-4.8-2.6-9.4c-1.9-4.8-3.1-7-4.1-7c-0.5,0-0.7,0-1,0.5
		c-0.2,0.2-0.5,0.5-1.2,0.5c-1,0-1.9-0.7-3.4-1.9c-1.4-1.2-1.9-2.2-1.9-2.9c0-0.2,0.5-1.4,1.7-3.4C366.4,65.6,367.1,64.9,367.4,64.9
		L367.4,64.9L367.4,64.9L367.4,64.9z"/>
	<path class="st0" d="M326.8,61.7c24.2-9.1,49.4-18.2,75.4-27.8c0.7-0.2,1.2-0.5,1.2-0.2c0.2,0,0.2,0.5,0,1.2
		c-1,2.2-1.7,3.4-2.2,3.8c-0.2,0.2-12.5,4.8-36.2,13.7c-24.2,8.9-37.9,14.4-40.6,16.1C324.9,66.3,325.6,64.1,326.8,61.7L326.8,61.7
		L326.8,61.7L326.8,61.7z"/>
	<path class="st0" d="M303.3,17.8c0.5-1.4,0.5-2.9,0.2-4.3c-0.2-1.4-1-2.2-2.2-2.2c-0.5,0-1.2,0.2-2.2,0.7s-1.4,1-1.4,1.4
		C297.8,14.7,299.7,16.1,303.3,17.8L303.3,17.8L303.3,17.8L303.3,17.8z M300.4,24.1c-4.6-2.4-6.7-4.8-6.7-7.4c0-3.1,1.4-6,4.3-8.4
		c2.9-2.6,5.3-3.6,7.2-2.9c1.7,0.5,2.4,2.2,2.4,5c0,2.6-0.5,5.5-1.7,8.9c2.4,1.2,3.8,2.4,4.3,3.4c0,1.2-1,3.4-3.1,6.2
		c-0.5-1-1.9-2.2-4.1-3.4c-2.6,3.6-5.8,6.7-9.6,9.6c-4.6,3.1-8.6,5.8-12.2,7.2c-1,0.5-5.3,2.2-13,5c-1.2,0.5-2.2,0.7-2.4,0.7
		c-0.2,0-0.2-0.2-0.2-0.2c0-0.2,0.5-1,1.9-1.7c5.8-3.6,11.5-7,17.5-10.3C292,31.5,297.1,27.7,300.4,24.1L300.4,24.1L300.4,24.1
		L300.4,24.1z"/>
	<path class="st0" d="M452.1,54.1c0.5-1.4,0.5-2.9,0.2-4.3c-0.2-1.4-1-2.2-2.2-2.2c-0.5,0-1.2,0.2-2.2,0.7s-1.4,1-1.4,1.4
		C446.6,50.9,448.5,52.4,452.1,54.1L452.1,54.1L452.1,54.1L452.1,54.1z M457.4,62.9c-2.4,5.8-3.6,10.3-3.6,13.7c0,4.1,1,6.2,3.1,6.2
		c1.2,0,2.6-1.7,4.3-4.6c0.2-0.2,0.2-0.5,0.5-0.7c0,0,0.2,0,0.2,0.2c0,0,0,0.2,0,0.7c-1.4,7.2-3.6,10.8-6.5,10.8
		c-3.1,0-4.6-2.6-4.6-7.9c0-2.6,0.5-6,1.9-10.3s2.2-6.5,2.2-6.7c0-0.5-1-1.4-3.1-2.6c-3.8,5-9.1,9.8-15.8,13.9
		c-4.6,2.6-9.1,5-13.9,7c-8.9,3.6-14.2,5.5-15.4,6.2c-1.2,0.5-1.9,0.7-2.4,0.7c-0.2,0-0.2-0.2-0.2-0.2c0-0.5,0.5-1,1.9-1.9
		c7.7-4.3,15.1-8.6,22.8-13c10.1-5.8,17-10.6,20.4-14.2c-4.6-2.4-6.7-4.8-6.7-7.4c0-3.1,1.4-6,4.3-8.6c2.9-2.4,5.3-3.4,7.2-2.6
		c1.4,0.5,2.4,2.2,2.4,5c0,2.6-0.5,5.5-1.7,8.6c2.4,1.4,3.4,2.9,3.4,4.3C458.1,60.3,457.9,61.5,457.4,62.9L457.4,62.9L457.4,62.9
		L457.4,62.9z"/>
	<path class="st0" d="M344.8,31.3c0-0.2,0.2-0.5,0.2-0.5c0.2-0.2,0.2-0.2,0.2,0c0.2,0.2,0.2,0.5,0,0.7c-1.2,7.2-3.4,10.8-6.5,10.8
		c-3.1,0-4.6-2.6-4.6-7.9c0-6.5,1.7-13.4,5.5-20.4c1-1.7,1.4-2.6,1.7-2.6l0,0c0,0.2-0.2,1.2-0.7,2.9c-2.4,7.4-3.6,12.5-3.6,15.6
		c0,3.8,1,6,3.1,6C341.7,35.8,343.1,34.1,344.8,31.3L344.8,31.3L344.8,31.3L344.8,31.3z"/>
</g>
</svg>
