<?xml version="1.0" encoding="utf-8"?>
<!-- Generator: Adobe Illustrator 24.0.0, SVG Export Plug-In . SVG Version: 6.00 Build 0)  -->
<svg version="1.1" id="Layer_1" xmlns="http://www.w3.org/2000/svg" xmlns:xlink="http://www.w3.org/1999/xlink" x="0px" y="0px"
	 viewBox="0 0 498.2 202.9" style="enable-background:new 0 0 498.2 202.9;" xml:space="preserve">
<style type="text/css">
	.st0{fill:#C4692C;}
</style>
<g>
	<path class="st0" d="M248.6,28.8c0-4.8-0.7-8.6-2.2-11.8c0-1.9,1.2-6,4.1-12c0.5-1.4,1.2-1.4,1.9,0c0.7,1.7,2.4,6.2,5.3,13.7
		c3.1,7.9,4.8,12.7,5.3,14.6c0.5,1.2,0.7,2.4,0.7,2.9c0,2.2-2.2,1-6.2-3.8c-0.5-0.7-0.7-0.2-0.7,1c0,0.5,1.2,17,3.8,49.7
		c2.6,32.6,4.1,50.9,4.1,54.7c0,11.3-1.9,21.4-5.5,30c-0.7,1.7-1.2,2.9-1.7,3.8l0,0c-0.7,1-1.2,1.2-1.2,0.5c-0.2-1-0.2-2.6,0.2-5.5
		c0.5-4.1,0.7-8.4,0.7-13.7c0-4.6-1.4-25.4-4.3-62.4C250,53.3,248.6,32.9,248.6,28.8L248.6,28.8L248.6,28.8L248.6,28.8z"/>
	<path class="st0" d="M211.4,125.8l-25.9-6.5c0.2-0.5,3.6-1.7,9.8-3.4c8.4-2.4,15.4-4.6,20.6-6.7c2.6-1,4.1-2.4,4.6-4.1
		c0.2-1.2,0.5-7,0.5-17.5c0-5.3-0.7-15.8-1.9-32.4c-1.4-16.3-1.9-26.4-1.9-30.5c0-4.6-0.7-8.4-2.2-11.5c0-1.7,1.4-5.8,4.1-12.2
		c0.2-0.7,0.7-1,1-1c0.2,0,0.5,0.2,1,1.2c0.7,1.7,2.6,6.2,5.5,13.7c2.9,7.9,4.6,12.7,5.3,14.4c0.2,1.4,0.5,2.6,0.5,3.1
		c0,2.2-2.2,1-6.2-3.8c-0.5-0.7-0.7-0.2-0.7,1c0,0.2,0.5,6.7,1.4,19.7c1,12.7,1.4,21.6,1.4,26.6c0,13.7-1,23.8-2.9,30
		C223.1,114.2,218.3,120.7,211.4,125.8L211.4,125.8L211.4,125.8L211.4,125.8z"/>
	<g>
		<path class="st0" d="M282.9,128.6l-5,10.1c-0.7,1.2-1.2,1.7-2.2,1.7c-16.3,0-30.5,2.4-42.5,7.4c-2.9,1.2-10.3,4.8-22.8,11.3
			c-8.4,4.3-14.2,6.5-17.5,6.5V151c7.2,0,19.4-4.8,36.5-14.4c-15.4-2.4-30.5-4.1-45.4-5.3c-2.9-0.2-4.3-0.7-4.3-1.2
			c0-0.2,0-0.5,0.2-0.7c1.2-2.4,2.9-5.8,5-10.1h25.2c3.4,0.7,12,1.9,26.2,3.8c17.8,2.4,32.2,3.4,43,3.4c2.6,0,4.1,0.2,4.1,1
			C283.4,127.7,283.4,128.2,282.9,128.6L282.9,128.6L282.9,128.6L282.9,128.6z"/>
	</g>
	<path class="st0" d="M178,135.8c1.2,6.7,3.6,11.3,6.7,13.4c1.9,1,4.6,1.7,8.2,1.7v14.6c-5.3,0-9.4-1.2-12.2-3.4
		c-4.3-3.1-7-8.6-8.4-17c-1-5.3-1.9-20.4-2.6-45.8c-1-27.4-1.7-44.2-2.2-50.4c-1.2-10.1-3.1-19.4-5.8-28.6c0-2.4,1-5.8,2.9-10.6
		c0.5-1.2,0.7-1.9,1.2-1.9c0.2,0,0.7,0.7,1.2,1.7c3.1,6,5.3,16.3,7,30.7c1,9.1,1.9,27.1,2.6,54C177,119.5,177.8,133.4,178,135.8
		L178,135.8L178,135.8L178,135.8z"/>
	<path class="st0" d="M157.1,129.6c0,8.4-1.9,14.9-5.5,19.7c-3.1,4.1-6.7,6.2-10.8,6.2v-14.6c5.5,0,9.4-1.4,11-4.3
		c0-1.4-1-3.8-2.9-7c-1-1.4-1.2-2.9-1.2-4.3c0-0.7,1-4.1,2.6-10.3c0.5-1,1-1.7,1.2-1.7c0.5,0,1.2,1,1.9,2.4
		C155.9,120.7,157.1,125.3,157.1,129.6L157.1,129.6L157.1,129.6L157.1,129.6z"/>
	<path class="st0" d="M140.6,155.3c-3.8,0-7.4-1-10.3-2.9c-3.8-2.6-6-7-6.7-12.5c-1.7,3.1-4.3,6.5-8.4,10.1c-6,5-12.2,7.7-18.7,7.7
		v-14.6c8.2,0,15.1-2.4,20.6-6.7c0.5-0.5,2.6-2.6,6.5-7c3.6-4.1,5.5-6,6-6s1,0.5,1,1.4c0,0.5-0.2,1.2-0.5,1.7
		c-0.5,1.9-0.7,3.6-0.7,5.3c0,6,3.8,8.9,11.3,8.9v14.6H140.6L140.6,155.3z"/>
	<path class="st0" d="M96.6,157.7c-5,0-8.6-0.5-10.8-1c-4.8-1.4-8.6-4.6-11.8-9.4c-1.9-3.1-3.8-6.5-5.8-9.8
		c-1.9-2.9-3.6-4.1-5.3-4.1c-5.5,0-11.3,4.6-17.5,13.9c-1,1.7-2.9,6-5.8,13c-2.6,7-5,12-7.2,15.4c-3.1,4.8-6.7,7.2-10.3,7.2
		c-5.3,0-9.8-4.3-13.7-12.7c-3.4-7.4-4.8-15.1-4.8-23c0-9.6,1-17.5,2.9-23.3c0.5-1.9,1-2.9,1.4-2.9c0.7,0,1,1.2,0.5,3.6
		c-0.7,6.2-1,11.5-1,15.8c0,20.4,4.6,30.7,14.2,30.7c3.8,0,7.2-3.1,10.6-9.1c3.1-7.2,6.5-14.4,9.8-21.6c2.9-5.8,6.5-10.8,10.8-15.1
		c4.1-4.3,8.2-6.2,11.5-6.2c2.6,0,5.3,1.7,7.4,4.8c1.9,3.1,3.6,6.2,5.5,9.4c2.6,3.6,5.3,6.2,8.2,7.7c2.9,1.2,6.5,1.9,11,1.9v14.8
		H96.6L96.6,157.7z"/>
	<path class="st0" d="M144.9,86.9l3.8-7.7c0.2-0.7,0.5-1,1-1s2.4,1.2,6.2,3.8c3.6,2.6,5.5,4.1,5.5,4.6c0,1.7-1.7,5-4.8,10.3
		c-0.5,0.7-1,0.7-1.4,0.5c-3.1-2.4-6.7-4.8-10.8-7.4c-1.4,2.9-2.6,5.5-4.1,7.7c-0.2,0.7-0.7,1-1.2,0.7c-3.6-2.9-7.4-5.5-11.3-7.9
		c-0.2-0.2-0.2-0.5,0-1l4.6-9.6c0.2-0.5,0.7-1,1-1c0.5,0,2.2,1.2,5.3,3.4C141.8,84.2,143.9,85.9,144.9,86.9L144.9,86.9L144.9,86.9
		L144.9,86.9z M131.7,72c-0.2-0.2-0.2-0.5,0-1l4.8-9.6c0.2-0.5,0.5-0.7,1-0.7s2.4,1.2,6.2,3.6c3.6,2.6,5.5,4.1,5.5,4.6
		c0,1.7-1.7,5-4.8,10.3c-0.5,0.7-1,1-1.4,0.5C139.4,77,135.5,74.4,131.7,72L131.7,72L131.7,72L131.7,72z"/>
	<path class="st0" d="M120.6,181l3.8-7.9c0.2-0.5,0.5-0.7,1-0.7s2.4,1.2,6.2,3.8c3.6,2.4,5.5,3.8,5.5,4.3c0,1.7-1.7,5.3-4.8,10.6
		c-0.5,0.7-1,0.7-1.4,0.5c-3.1-2.4-6.7-4.8-10.8-7.4c-1.4,2.9-2.6,5.5-4.1,7.7c-0.2,0.7-0.7,1-1.2,0.7c-3.6-2.9-7.4-5.5-11.3-7.9
		c-0.2-0.2-0.2-0.5,0-1l4.6-9.6c0.2-0.5,0.7-1,1-1c0.5,0,2.2,1.2,5.3,3.4C117.5,178.3,119.7,180,120.6,181L120.6,181L120.6,181
		L120.6,181z"/>
	<path class="st0" d="M58.7,89.5l3.8-7.9c0.2-0.5,0.5-0.7,1-0.7s2.4,1.2,6.2,3.8c3.6,2.4,5.5,3.8,5.5,4.3c0,1.7-1.7,5.3-4.8,10.6
		c-0.5,0.7-1,0.7-1.4,0.5c-3.1-2.4-6.7-4.8-10.8-7.4c-1.4,2.9-2.6,5.5-4.1,7.7c-0.2,0.7-0.7,1-1.2,0.7c-3.6-2.9-7.4-5.5-11.3-7.9
		c-0.2-0.2-0.2-0.5,0-1l4.6-9.6c0.2-0.5,0.7-1,1-1c0.5,0,2.2,1.2,5.3,3.4C55.6,86.9,57.8,88.6,58.7,89.5L58.7,89.5L58.7,89.5
		L58.7,89.5z"/>
	<path class="st0" d="M224.6,179.3c-0.2-0.2-0.2-0.5,0-1l4.6-9.6c0.2-0.5,0.7-0.7,1-0.7c0.5,0,2.6,1.2,6.2,3.6
		c3.8,2.6,5.8,4.1,5.8,4.6c0,1.7-1.7,5-5,10.3c-0.5,0.7-0.7,1-1.2,0.7C232.2,184.3,228.4,181.7,224.6,179.3L224.6,179.3L224.6,179.3
		L224.6,179.3z"/>
	<path class="st0" d="M183,92.9c9.6-3.4,19.9-7.2,31-11c1-0.2,1.2-0.5,1.4-0.2c0.2,0,0.2,0.5-0.2,1.2c-0.7,2.2-1.4,3.4-1.9,3.8
		c-9.6,3.4-20.4,7.4-32.6,13C181.1,97.4,181.8,95.3,183,92.9L183,92.9L183,92.9L183,92.9z"/>
	<path class="st0" d="M145.8,196.1c9.6-3.4,19.9-7.2,31-11c1-0.2,1.2-0.5,1.4-0.2c0.2,0,0.2,0.5-0.2,1.2c-0.7,2.2-1.4,3.4-1.9,3.8
		c-9.6,3.4-20.4,7.4-32.6,13C143.9,200.6,144.6,198.5,145.8,196.1L145.8,196.1L145.8,196.1L145.8,196.1z"/>
	<path class="st0" d="M33,195.8c13.7-4.8,28.1-10.1,43.2-15.6c1-0.2,1.2-0.5,1.4-0.2c0.2,0,0.2,0.5-0.2,1.2
		c-0.7,2.2-1.4,3.4-1.9,3.8c-13,4.6-27.8,10.3-44.9,17.5C31.1,200.4,31.8,198.2,33,195.8L33,195.8L33,195.8L33,195.8z"/>
	<path class="st0" d="M148.5,20.2c-1,2.4-1.7,3.8-2.2,4.1c0,0.2-21.8,8.4-65.3,24.7C47.4,61.5,28.7,68.7,24.8,70.8
		c-3.6,1.7-5.3,3.1-5.3,3.6s0.5,1,1.7,1.7c1.2,0.5,3.1,1.2,5.5,2.2c0.5,0.2,0.7,1.2,0.7,2.9c0,1.4,0,2.4-0.2,2.6
		c0,0.2-0.7,0.2-1.4,0.2c-6-1.2-8.9-3.4-8.9-6.2c0-1.9,0.7-4.1,2.4-6.7s3.4-4.6,5-5.8c2.4-1.4,21.4-8.9,56.6-21.8
		c21.6-7.9,43.7-16.1,66.2-24.2c0.7-0.2,1.2-0.5,1.4-0.2C148.7,19,148.7,19.4,148.5,20.2L148.5,20.2L148.5,20.2L148.5,20.2z"/>
	<path class="st0" d="M10.7,110.9c0-0.2,0.2-0.5,0.2-0.5c0.2-0.2,0.2-0.2,0.2,0c0.2,0.2,0.2,0.5,0,0.7c-1.2,7.2-3.4,10.8-6.5,10.8
		S0,119.3,0,114c0-6.5,1.7-13.4,5.5-20.4c1-1.7,1.4-2.6,1.7-2.6l0,0c0,0.2-0.2,1.2-0.7,2.9c-2.4,7.4-3.6,12.5-3.6,15.6
		c0,3.8,1,6,3.1,6C7.6,115.4,9,113.8,10.7,110.9L10.7,110.9L10.7,110.9L10.7,110.9z"/>
	<path class="st0" d="M212.3,183.4c0,2.6-1.2,5.5-3.1,8.6c-2.2,3.1-4.8,6-8.2,8.4c-1.4,1-2.2,1.4-2.4,1.4v-0.2
		c0-0.2,0.5-0.7,1.4-1.9c5.5-6,8.4-9.8,8.4-12c0-1.7-1-2.6-2.6-2.6c-1,0-1.9,0.2-2.6,0.7c-0.7,0.2-1,0.5-1.2,0.5c0,0-0.2,0-0.2-0.2
		c0,0,0-0.5,0.2-1.4c1-4.1,2.9-6,6.2-6C210.9,178.6,212.3,180.2,212.3,183.4L212.3,183.4L212.3,183.4L212.3,183.4z"/>
	<path class="st0" d="M110.1,108.5c0,2.6-1.2,5.5-3.1,8.6c-2.2,3.1-4.8,6-8.2,8.4c-1.4,1-2.2,1.4-2.4,1.4v-0.2
		c0-0.2,0.5-0.7,1.4-1.9c5.5-6,8.4-9.8,8.4-12c0-1.7-1-2.6-2.6-2.6c-1,0-1.9,0.2-2.6,0.7c-0.7,0.2-1,0.5-1.2,0.5c0,0-0.2,0-0.2-0.2
		c0,0,0-0.5,0.2-1.4c1-4.1,2.9-6,6.2-6C108.6,103.7,110.1,105.4,110.1,108.5L110.1,108.5L110.1,108.5L110.1,108.5z"/>
	<path class="st0" d="M84.6,5.8c2.9,0,5.3,1.4,7.4,4.8c2.2,3.1,3.8,7.4,4.6,12.7c0.2,0.5,0.2,0.7,0.2,1H97c0-0.2,0.2-0.5,0.2-1
		c0.5-3.1,1.7-7.9,3.4-14.2c1.9-4.3,3.8-6.5,6-6.5c1.2,0,2.4,0.7,3.4,2.2c1,1.4,1.4,2.4,1.4,3.4c0,0.5,0,1.4-0.5,2.4
		c-0.5,1.4-1,2.2-1.4,2.2c-0.2,0-0.7-0.7-1.7-1.7c-0.7-1-1.7-1.4-2.6-1.4c-1.9,0-3.6,4.6-5.3,13.7c-0.7,4.1-1.7,7-2.4,8.6
		c-0.7,1-1.2,1.7-1.7,1.7S95.3,33,95.1,32c0.2-1.7-0.7-4.8-2.6-9.4c-1.9-4.8-3.1-7-4.1-7c-0.5,0-0.7,0-1,0.5
		c-0.2,0.2-0.5,0.5-1.2,0.5c-1,0-1.9-0.7-3.4-1.9c-1.4-1.2-1.9-2.2-1.9-2.9c0-0.2,0.5-1.4,1.7-3.4C83.7,6.5,84.4,5.8,84.6,5.8
		L84.6,5.8L84.6,5.8L84.6,5.8z"/>
	<path class="st0" d="M198.4,23.5c0-1.2-2.4-3.4-7.4-6.2c-1.7,2.9-2.4,5.5-2.4,7.9c0,1.4,0.7,2.4,2.2,2.4c1.2,0,2.6-0.5,4.3-1.4
		C196.7,25.4,197.9,24.5,198.4,23.5L198.4,23.5L198.4,23.5L198.4,23.5z M193.1,4.3c0.7-1.2,1.7-1.7,2.4-1.7c0.5,0,1,0.2,1,0.7
		c0,0-0.2,0.2-0.2,0.5c-1,2.2-1.9,4.6-2.6,7c5,3.6,7.4,7.4,7.2,11c-0.5,4.1-1,6.7-1.7,7.7c-2.4,2.9-5,4.6-8.4,4.6s-4.8-2.2-4.8-6
		c0-0.7,0-1.7,0.2-2.6C187.4,17.8,189.8,10.8,193.1,4.3L193.1,4.3L193.1,4.3L193.1,4.3z"/>
	<path class="st0" d="M201.5,65.8c0-0.2,0.2-0.5,0.2-0.5c0.2-0.2,0.2-0.2,0.2,0c0.2,0.2,0.2,0.5,0,0.7c-1.2,7.2-3.4,10.8-6.5,10.8
		s-4.6-2.6-4.6-7.9c0-6.5,1.7-13.4,5.5-20.4c1-1.7,1.4-2.6,1.7-2.6l0,0c0,0.2-0.2,1.2-0.7,2.9c-2.4,7.4-3.6,12.5-3.6,15.6
		c0,3.8,1,6,3.1,6C198.4,70.3,199.8,68.6,201.5,65.8L201.5,65.8L201.5,65.8L201.5,65.8z"/>
	<path class="st0" d="M89.9,60.7c2.9,0,5.3,1.4,7.4,4.8c2.2,3.1,3.8,7.4,4.6,12.7c0.2,0.5,0.2,0.7,0.2,1h0.2c0-0.2,0.2-0.5,0.2-1
		c0.5-3.1,1.7-7.9,3.4-14.2c1.9-4.3,3.8-6.5,6-6.5c1.2,0,2.4,0.7,3.4,2.2c1,1.4,1.4,2.4,1.4,3.4c0,0.5,0,1.4-0.5,2.4
		c-0.5,1.4-1,2.2-1.4,2.2c-0.2,0-0.7-0.7-1.7-1.7c-0.7-1-1.7-1.4-2.6-1.4c-1.9,0-3.6,4.6-5.3,13.7c-0.7,4.1-1.7,7-2.4,8.6
		c-0.7,1-1.2,1.7-1.7,1.7s-0.5-0.7-0.7-1.7c0.2-1.7-0.7-4.8-2.6-9.4c-1.9-4.8-3.1-7-4.1-7c-0.5,0-0.7,0-1,0.5
		c-0.2,0.2-0.5,0.5-1.2,0.5c-1,0-1.9-0.7-3.4-1.9c-1.4-1.2-1.9-2.2-1.9-2.9c0-0.2,0.5-1.4,1.7-3.4C89,61.4,89.7,60.7,89.9,60.7
		L89.9,60.7L89.9,60.7L89.9,60.7z"/>
	<path class="st0" d="M439.4,112.3c1.2-1,2.2-1.4,2.9-1.4c0.5,0,0.7,0.5,0.7,1.4c0,0.7-0.2,2.2-0.7,4.1s-0.7,3.4-0.7,4.6
		c0,5.3,3.8,8.2,11.3,8.2c6,0,11-2.6,14.9-7.7c2.4-4.1,5-7.9,7.4-11.8c1-1,1.7-1.4,2.4-1.4c1,0,1.2,1,0.7,3.1c-1,4.1-1.7,6-1.7,5.5
		c0,1.7,1,3.4,2.9,4.8c1.7,1.4,4.1,2.4,6.7,2.4c3.4,0,5.5-1,6.5-2.6c0-0.2-1-2.2-3.1-5.8c0.2-1.9,1.2-5.3,2.6-9.8
		c0.2-1.4,0.7-2.2,1.2-2.2s1,0.2,1.7,1.2c1.9,2.9,3.1,6.2,3.1,10.1c0,6-1.4,11-4.1,15.4c-2.9,5.3-7.2,7.9-13,7.9
		c-3.8,0-7.4-3.1-10.6-8.9c-5.3,9.6-12.2,14.4-20.6,14.4c-10.1,0-14.9-5.8-14.9-16.8c-3.8,4.6-10.3,8.6-18.7,12.5v-13.2
		c6.2-3.1,10.3-5,11.5-5.8C431.7,118.6,435.5,115.7,439.4,112.3L439.4,112.3L439.4,112.3L439.4,112.3z"/>
	<path class="st0" d="M402.6,128.2c-3.6-4.6-6.7-6.7-9.6-6.7c-4.3,0-6.2,1-6.2,3.4c0,2.9,2.9,4.3,8.6,4.3
		C397.6,129.1,400,128.6,402.6,128.2L402.6,128.2L402.6,128.2L402.6,128.2z M410.1,145.7c0-1.4-0.5-3.1-1-4.8
		c-2.9,1-7.2,1.7-12.5,1.7c-11.5,0-17.3-4.1-17.3-12c0-6,1.7-11.3,5.5-16.1c3.6-4.1,7.4-6.2,11.5-6.2c3.1,0,6.2,1.9,9.8,5.5
		c3.1,3.6,6,7.7,8.4,12.7c0.2,0,0.7,0,1.7-0.5v13.2l-0.5,0.5c0,2.9-0.7,6.2-2.2,10.6c-1.7,5.5-4.3,10.1-7.4,13.7
		c-7.2,8.6-15.1,16.1-23.8,22.6c-13,9.6-24,14.6-33.6,14.6c-8.2,0-14.4-3.1-18.7-9.1c-3.8-5-5.8-11.8-5.8-19.7
		c0-10.1,2.2-20.4,6.2-31.2c1.2-2.4,1.7-3.4,2.2-3.4c0.2,0,0.2,0.2,0.2,0.7c0,0.7-0.2,1.9-0.5,3.4c-3.1,10.6-4.6,18.5-4.6,24
		c0,5,1.2,9.4,3.6,13c3.8,5,9.8,7.7,18.2,7.7c7.2,0,15.8-3.1,26.2-9.4c8.2-5,16.1-11,23.8-18.2C406.5,152.2,410.1,147.8,410.1,145.7
		L410.1,145.7L410.1,145.7L410.1,145.7z"/>
	<path class="st0" d="M344.6,109.2c-0.5-2.2-1.2-3.8-2.2-5c-0.7-1.4-1.2-2.2-1.4-2.6c0-0.5,0-2.2,0.5-5.5c0.5-3.1,0.7-5.3,1.2-6.5
		c0.2-1.2,0.5-1.7,1-1.7c0.2,0,0.5,0.2,1,0.7c3.4,3.8,7,7.7,11,11.8c1.7,1.7,2.4,2.6,2.4,3.1c0,0.2-0.2,0.5-0.7,0.5
		c-0.7,0-2.6-0.5-5.5-1.2c1.7,4.1,3.6,8.2,5.3,12c2.6,6.7,4.1,12.2,4.1,17.3c0,2.4-0.5,5.3-1.4,8.9c-1.2,4.1-2.6,7.2-4.6,9.4
		c-7,7.9-18.7,16.6-35.3,25.9c-14.4,8.4-22.8,12.5-25.4,12.5c-0.5,0-7.7,1.7-21.4,5c-14.4,3.4-23.5,5.5-27.1,6c-3.8,0.7-6.2,1-7.2,1
		c-0.5,0-0.5,0-0.5-0.2s2.6-1.7,7.9-4.1c1.9-1,13-5.8,33.4-14.4c14.2-6,25.9-11.5,35.3-16.6c14.2-7.7,25-14.4,32.4-19.9
		c5.5-4.3,8.4-7.4,8.4-9.4c0-0.5-1.4-3.8-4.3-10.1C348.2,119,345.8,113.3,344.6,109.2L344.6,109.2L344.6,109.2L344.6,109.2z"/>
	<path class="st0" d="M324.9,75.8c0,3.8-1.9,9.1-5.8,15.6c-2.4,4.1-6,9.6-10.8,16.8c4.8,5.5,8.2,10.6,9.8,14.9
		c1,3.1,1.7,7.2,1.7,11.8c0,1.9-0.5,4.3-1.4,7.4c-0.7,2.9-1.7,5-2.6,6.5c-1.9,2.9-5,5.8-9.8,8.6c-5,3.4-9.4,5-13,5
		c-5.8,0-8.6-4.3-8.6-13c0-5.8,1-11.5,2.9-16.8c1.9-4.6,5-10.6,10.1-18.5c-4.3-4.1-8.9-9.8-13.9-17c-0.5-0.7-1.7-1.9-3.6-3.8
		c-1-1-1.4-2.2-1.4-3.6c0-2.2,0.2-4.6,0.7-7.4c0.7-2.9,1.2-4.1,1.4-4.1c0.7,0,2.9,1.2,7,3.8c3.8,2.6,7,4.6,8.9,6.2
		c1.2,0.7,1.7,1.4,1.7,1.4v0.2c0,0.2-0.7,0.5-2.4,0.5c-3.1,0-4.8,0.2-4.8,0.5c0,0.2,0.5,0.7,1.4,1.9c3.8,4.8,7.7,8.4,11.8,11.3
		c1-1.4,4.3-6.2,9.6-14.4c4.6-7,7.2-11.8,8.4-14.6c1.2-2.9,1.9-4.1,2.4-4.1C324.6,71,324.9,72.5,324.9,75.8L324.9,75.8L324.9,75.8
		L324.9,75.8z M315.5,134.9c-2.6-5.3-7.2-10.8-13.4-16.1c-2.2,2.2-4.8,6.2-8.2,12c-3.8,6.5-5.5,10.6-5.5,12.7c0,2.9,1.9,4.3,6.2,4.3
		c1.9,0,4.3-0.7,7.4-1.9c4.3-1.9,8.4-4.6,11.8-7.9C315.3,136.6,315.8,135.6,315.5,134.9L315.5,134.9L315.5,134.9L315.5,134.9z"/>
	<path class="st0" d="M302.1,57.8l3.8-7.9c0.2-0.5,0.5-0.7,1-0.7s2.4,1.2,6.2,3.8c3.6,2.4,5.5,3.8,5.5,4.3c0,1.7-1.7,5.3-4.8,10.6
		c-0.5,0.7-1,0.7-1.4,0.5c-3.1-2.4-6.7-4.8-10.8-7.4c-1.4,2.9-2.6,5.5-4.1,7.7c-0.2,0.7-0.7,1-1.2,0.7c-3.6-2.9-7.4-5.5-11.3-7.9
		c-0.2-0.2-0.2-0.5,0-1l4.6-9.6c0.2-0.5,0.7-1,1-1c0.5,0,2.2,1.2,5.3,3.4C299,55.2,301.1,56.9,302.1,57.8L302.1,57.8L302.1,57.8
		L302.1,57.8z"/>
	<path class="st0" d="M428.6,191.8c-2.6,0.7-4.1,1.2-4.6,1.2v-0.2c0,0,1-0.7,2.9-1.9c1.9-1.2,4.8-3.1,8.9-6.2c1.9-1.9,4.8-5,8.4-9.4
		c2.4-2.9,5-5.5,7.9-7.4c3.6-2.6,7-3.8,10.6-3.8c0.7,0,1.9,0.2,3.4,0.7c1.2,0.5,2.4,0.7,3.4,0.7c1.9,0,3.4-0.7,4.6-2.2
		c0.7-1.4,1.7-2.6,2.6-4.1c0.5-1,1.2-1.4,1.7-1.4c0.2,0,0.2,0.2,0.2,0.7s-0.2,1.7-0.7,3.1c-0.5,0.7,1.4,1,5,1c0.5,0,0.7,0,0.7-0.2
		c0,0-0.2-1-0.7-2.6c-0.2-0.5,0-1.2,0.7-2.2c1-1.7,1.4-2.4,1.7-2.2c1,0.7,1.4,2.2,1.4,3.8c0,1.7-0.5,3.4-1.2,5.3
		c-0.7,2.2-1.4,3.4-1.9,3.8c-1.7,1-4.3,0.7-7.9-1c-2.9,2.9-5.8,4.6-8.6,4.6c-0.7,0-1.9-0.2-3.1-0.7c-1.2-0.5-2.2-0.7-2.9-0.7
		c-4.8,0-9.8,2.2-14.9,7c-3.6,3.6-7.2,7.2-10.8,10.8C433.1,189.8,431,191,428.6,191.8L428.6,191.8L428.6,191.8L428.6,191.8z"/>
	<path class="st0" d="M377,62.2c2.9,0,5.3,1.4,7.4,4.8c2.2,3.1,3.8,7.4,4.6,12.7c0.2,0.5,0.2,0.7,0.2,1h0.2c0-0.2,0.2-0.5,0.2-1
		c0.5-3.1,1.7-7.9,3.4-14.2c1.9-4.3,3.8-6.5,6-6.5c1.2,0,2.4,0.7,3.4,2.2c1,1.4,1.4,2.4,1.4,3.4c0,0.5,0,1.4-0.5,2.4
		c-0.5,1.4-1,2.2-1.4,2.2c-0.2,0-0.7-0.7-1.7-1.7c-0.7-1-1.7-1.4-2.6-1.4c-1.9,0-3.6,4.6-5.3,13.7c-0.7,4.1-1.7,7-2.4,8.6
		c-0.7,1-1.2,1.7-1.7,1.7s-0.5-0.7-0.7-1.7c0.2-1.7-0.7-4.8-2.6-9.4c-1.9-4.8-3.1-7-4.1-7c-0.5,0-0.7,0-1,0.5
		c-0.2,0.2-0.5,0.5-1.2,0.5c-1,0-1.9-0.7-3.4-1.9c-1.4-1.2-1.9-2.2-1.9-2.9c0-0.2,0.5-1.4,1.7-3.4C376,62.9,376.7,62.2,377,62.2
		L377,62.2L377,62.2L377,62.2z"/>
	<path class="st0" d="M336.4,59c24.2-9.1,49.4-18.2,75.4-27.8c0.7-0.2,1.2-0.5,1.2-0.2c0.2,0,0.2,0.5,0,1.2c-1,2.2-1.7,3.4-2.2,3.8
		c-0.2,0.2-12.5,4.8-36.2,13.7c-24.2,8.9-37.9,14.4-40.6,16.1C334.5,63.6,335.2,61.4,336.4,59L336.4,59L336.4,59L336.4,59z"/>
	<path class="st0" d="M312.9,15.1c0.5-1.4,0.5-2.9,0.2-4.3c-0.2-1.4-1-2.2-2.2-2.2c-0.5,0-1.2,0.2-2.2,0.7s-1.4,1-1.4,1.4
		C307.4,12,309.3,13.4,312.9,15.1L312.9,15.1L312.9,15.1L312.9,15.1z M310,21.4c-4.6-2.4-6.7-4.8-6.7-7.4c0-3.1,1.4-6,4.3-8.4
		c2.9-2.6,5.3-3.6,7.2-2.9c1.7,0.5,2.4,2.2,2.4,5c0,2.6-0.5,5.5-1.7,8.9c2.4,1.2,3.8,2.4,4.3,3.4c0,1.2-1,3.4-3.1,6.2
		c-0.5-1-1.9-2.2-4.1-3.4c-2.6,3.6-5.8,6.7-9.6,9.6c-4.6,3.1-8.6,5.8-12.2,7.2c-1,0.5-5.3,2.2-13,5c-1.2,0.5-2.2,0.7-2.4,0.7
		c-0.2,0-0.2-0.2-0.2-0.2c0-0.2,0.5-1,1.9-1.7c5.8-3.6,11.5-7,17.5-10.3C301.6,28.8,306.6,25,310,21.4L310,21.4L310,21.4L310,21.4z"
		/>
	<path class="st0" d="M461.7,51.4c0.5-1.4,0.5-2.9,0.2-4.3c-0.2-1.4-1-2.2-2.2-2.2c-0.5,0-1.2,0.2-2.2,0.7s-1.4,1-1.4,1.4
		C456.2,48.2,458.1,49.7,461.7,51.4L461.7,51.4L461.7,51.4L461.7,51.4z M467,60.2c-2.4,5.8-3.6,10.3-3.6,13.7c0,4.1,1,6.2,3.1,6.2
		c1.2,0,2.6-1.7,4.3-4.6c0.2-0.2,0.2-0.5,0.5-0.7c0,0,0.2,0,0.2,0.2c0,0,0,0.2,0,0.7c-1.4,7.2-3.6,10.8-6.5,10.8
		c-3.1,0-4.6-2.6-4.6-7.9c0-2.6,0.5-6,1.9-10.3s2.2-6.5,2.2-6.7c0-0.5-1-1.4-3.1-2.6c-3.8,5-9.1,9.8-15.8,13.9
		c-4.6,2.6-9.1,5-13.9,7c-8.9,3.6-14.2,5.5-15.4,6.2c-1.2,0.5-1.9,0.7-2.4,0.7c-0.2,0-0.2-0.2-0.2-0.2c0-0.5,0.5-1,1.9-1.9
		c7.7-4.3,15.1-8.6,22.8-13c10.1-5.8,17-10.6,20.4-14.2c-4.6-2.4-6.7-4.8-6.7-7.4c0-3.1,1.4-6,4.3-8.6c2.9-2.4,5.3-3.4,7.2-2.6
		c1.4,0.5,2.4,2.2,2.4,5c0,2.6-0.5,5.5-1.7,8.6c2.4,1.4,3.4,2.9,3.4,4.3C467.7,57.6,467.4,58.8,467,60.2L467,60.2L467,60.2L467,60.2
		z"/>
	<path class="st0" d="M357.8,25.4c0-0.2,0.2-0.5,0.2-0.5c0.2-0.2,0.2-0.2,0.2,0c0.2,0.2,0.2,0.5,0,0.7c-1.2,7.2-3.4,10.8-6.5,10.8
		s-4.6-2.6-4.6-7.9c0-6.5,1.7-13.4,5.5-20.4c1-1.7,1.4-2.6,1.7-2.6l0,0c0,0.2-0.2,1.2-0.7,2.9c-2.4,7.4-3.6,12.5-3.6,15.6
		c0,3.8,1,6,3.1,6C354.6,30,356.1,28.3,357.8,25.4L357.8,25.4L357.8,25.4L357.8,25.4z"/>
</g>
</svg>
