<?xml version="1.0" encoding="utf-8"?>
<!-- Generator: Adobe Illustrator 24.0.0, SVG Export Plug-In . SVG Version: 6.00 Build 0)  -->
<svg version="1.1" id="Layer_1" xmlns="http://www.w3.org/2000/svg" xmlns:xlink="http://www.w3.org/1999/xlink" x="0px" y="0px"
	 viewBox="0 0 510.9 216.8" style="enable-background:new 0 0 510.9 216.8;" xml:space="preserve">
<style type="text/css">
	.st0{fill:#C4692C;}
</style>
<g>
	<path class="st0" d="M265.6,28.8c0-4.8-0.7-8.6-2.2-11.8c0-1.7,1.2-5.8,4.1-12c0.2-0.7,0.5-1.2,0.7-1.2c0.5,0,0.7,0.5,1.2,1.2
		c0.7,1.7,2.4,6.2,5.3,13.7c3.1,7.9,4.8,12.7,5.3,14.6c0.5,1.2,0.5,2.4,0.5,2.9c0,2.2-1.9,1-6.2-3.8c-0.5-0.7-0.7-0.2-0.7,1
		c0,0.5,1.2,15.4,3.4,45.1c2.2,29.5,3.1,46.1,3.1,49.9c0,11.3-1.7,21.4-5,30c-1,1.7-1.4,2.9-1.9,3.8l0,0c-0.7,1.2-1,1.2-1.2,0.5
		c-0.2-1,0-2.9,0.2-5.5c0.5-4.1,0.7-8.6,0.7-13.7c0-4.8-1.2-24-3.6-57.8C266.8,51.8,265.6,32.9,265.6,28.8L265.6,28.8L265.6,28.8
		L265.6,28.8z"/>
	<path class="st0" d="M234,138.2V125c9.6-4.1,14.4-10.3,14.4-18.7c0-4.3-1-18-2.6-40.8c-1.7-23-2.4-36.7-2.4-40.8
		c0-4.6-0.7-8.4-2.2-11.5c0-1.7,1.4-5.8,4.1-12.2c0.2-0.7,0.7-1,1-1c0.2,0,0.5,0.2,1,1c0.7,1.9,2.6,6.5,5.5,13.9
		c2.9,7.7,4.6,12.5,5.3,14.4c0.2,1.4,0.5,2.4,0.5,3.1c0,2.2-2.2,0.7-6.2-4.1c-0.5-0.5-0.7-0.2-0.7,1c0,0.2,0.7,10.1,2.2,29.3
		c1.4,19,2.2,31,2.2,36c0,7.9-1.4,15.6-4.3,23C247.6,127.9,241.6,134.9,234,138.2L234,138.2L234,138.2L234,138.2z"/>
	<path class="st0" d="M218.4,113.8c1-0.5,1-1.4,0-2.6c-5-6.2-11.5-9.4-19.4-9.4c-8.2,0-18,4.6-29.8,14.2c-7.7,6.2-15.4,13.7-23,22.6
		c16.6-4.6,28.6-8.2,36.5-10.6C198.2,122.9,210.2,118.1,218.4,113.8L218.4,113.8L218.4,113.8L218.4,113.8z M141.3,139.4
		c3.6-4.6,7.9-10.6,13.2-17.5c1-1.4,1.7-3.4,1.9-6.2c0,0,0-5.3,0-15.8c0-1.9-0.7-11.8-1.9-29c-1.2-17.3-1.7-27.1-1.7-29.8
		c0-4.6-1-8.4-2.4-11.5c0-1.7,1.4-5.8,4.1-12.2c0.2-0.7,0.7-1,1-1c0.2,0,0.5,0.2,1,1.2c0.7,1.7,2.4,6.2,5.3,13.7
		c3.1,7.9,4.8,12.7,5.3,14.4c0.5,1.4,0.7,2.4,0.7,3.1c0,2.2-2.2,1-6.2-3.8c-0.5-0.5-0.7-0.2-0.7,1c0,0,0.5,6,1.4,17.3
		c1,11.5,1.4,18.7,1.4,21.4c0,7.4-1.2,17.8-3.1,31.2c10.8-10.6,17.3-16.8,19.4-18.7c8.2-6.2,15.8-9.4,23.3-9.4c6,0,11.8,2.4,17.5,7
		c5,4.3,7.4,7.4,7.4,9.8c0,6-2.4,12-7.2,18c-2.4,2.9-7.2,6-14.4,9.4c12-1.9,21.1-4.3,27.4-7v13c-3.6,1.7-10.1,3.1-19.7,5
		c-16.1,2.6-33.6,4.1-53,4.1l-26.4,7.9v-13.2C136.3,141.4,138.4,140.6,141.3,139.4L141.3,139.4L141.3,139.4L141.3,139.4z"/>
	<path class="st0" d="M121.2,143.8c-3.6-4.6-6.7-6.7-9.6-6.7c-4.3,0-6.2,1-6.2,3.4c0,2.9,2.9,4.3,8.6,4.3
		C116.1,144.7,118.5,144.2,121.2,143.8L121.2,143.8L121.2,143.8L121.2,143.8z M128.6,161.3c0-1.4-0.5-3.1-1-4.8
		c-2.9,1-7.2,1.7-12.5,1.7c-11.5,0-17.3-4.1-17.3-12c0-6,1.7-11.3,5.5-16.1c3.6-4.1,7.4-6.2,11.5-6.2c3.1,0,6.2,1.9,9.8,5.5
		c3.1,3.6,6,7.7,8.4,12.7c0.2,0,0.7,0,1.7-0.5v13.2l-0.5,0.5c0,2.9-0.7,6.2-2.2,10.6c-1.7,5.5-4.3,10.1-7.4,13.7
		c-7.2,8.6-15.1,16.1-23.8,22.6c-13,9.6-24,14.6-33.6,14.6c-8.2,0-14.4-3.1-18.7-9.1c-3.8-5-5.8-11.8-5.8-19.7
		c0-10.1,2.2-20.4,6.2-31.2c1.2-2.4,1.7-3.4,2.2-3.4c0.2,0,0.2,0.2,0.2,0.7c0,0.7-0.2,1.9-0.5,3.4c-3.1,10.6-4.6,18.5-4.6,24
		c0,5,1.2,9.4,3.6,13c3.8,5,9.8,7.7,18.2,7.7c7.2,0,15.8-3.1,26.2-9.4c8.2-5,16.1-11,23.8-18.2C125,167.8,128.6,163.4,128.6,161.3
		L128.6,161.3L128.6,161.3L128.6,161.3z"/>
	<path class="st0" d="M22.3,150.2c10.1,0,22.6-4.8,37.4-14.4c9.4-6.2,16.6-11.8,21.8-16.6c1-1.2,1.7-2.2,1.7-3.1s-0.7-2.6-2.2-5
		c-2.9-4.8-7-11.8-12-21.1c-1.2-1.9-2.6-4.6-4.1-7.7c-0.2-0.5,0-2.2,0.5-5.5c0.5-3.1,0.7-5.3,1-6.5c0.2-1.2,0.7-1.7,1-1.7
		c0.5,0,0.7,0.2,1.2,0.7c3.1,3.8,6.7,7.7,10.8,11.8c1.7,1.7,2.6,2.6,2.6,3.1s-0.2,0.5-1,0.5c-0.5,0-2.4-0.2-5.3-1.2
		c2.2,3.8,5.5,9.8,9.8,18.2c1.2,2.6,1.7,5.8,1.7,9.1c0,4.3-1,8.9-2.9,13.7c-1.7,4.1-3.4,7-5,8.6c-5,5.3-12.5,11.3-22.1,17.5
		c-13.9,9.1-25.4,13.7-34.6,13.7c-8.4,0-14.6-3.8-18.5-11.3C1.2,148,0,142.2,0,135.5c0-10.1,2.2-20.6,6.2-31.2
		c1-2.4,1.7-3.4,2.2-3.4c0.2,0,0.2,0.2,0.2,0.7c0,0.7-0.2,1.7-0.7,3.4c-2.9,10.3-4.3,18.5-4.3,23.8c0,4.8,1.4,9.4,4.6,13.7
		C12,147.6,16.8,150.2,22.3,150.2L22.3,150.2L22.3,150.2L22.3,150.2z"/>
	<path class="st0" d="M221,62.9c0,1.9-0.5,4.1-1.4,6c-1.2,2.6-2.6,4.1-4.3,4.1c-2.9,0-4.8-1.9-6-5.8c-1.4,4.8-3.8,7.4-7.4,7.4
		c-1.2,0-2.4-0.7-3.4-2.2c-1.2-1.4-1.7-3.6-1.7-6v-6.2c0-0.5-0.5-0.7-1-1c-0.7-0.2-1-0.7-1-1.4c0-1.4,0.5-2.6,1.4-3.8
		c1-1.2,1.7-1.7,2.2-1.7c0.7,0,1.2,1.2,1.2,3.8c0,1.4-0.2,2.6-0.2,3.6c-0.2,1-0.2,1.7-0.2,2.4c0,1.4,0.2,2.9,0.7,4.1
		c0.7,1.4,1.7,2.4,2.6,2.4c1.4,0,2.6-0.7,3.8-1.9c1.2-1.2,1.9-2.6,1.9-4.3c0-1-0.5-2.4-1-4.8c-0.7-2.2-1-3.6-1-4.1s0.2-1.2,0.7-2.4
		c0.5-1,1-1.4,1.2-1.4c0.5,0,1,1.4,1.7,4.3c0.7,3.1,1.2,5.3,1.2,6.7c0,4.1,1.4,6.2,4.6,6.2c1.4,0,2.4-0.7,2.6-2.2
		c-2.6-4.8-4.1-8.4-4.1-11c0-1.4,0.2-2.6,1.2-3.8c0.5-0.7,0.7-1.2,1-1.2c0.2,0,0.5,0.5,0.5,1.4c0.2,1.2,0.5,2.4,0.7,3.4
		c0,0,0.7,1.7,1.9,5C220.5,60.5,221,61.9,221,62.9L221,62.9L221,62.9L221,62.9z"/>
	<path class="st0" d="M212.8,19.9c0.5-1.4,0.5-2.9,0.2-4.3c-0.2-1.4-1-2.2-2.2-2.2c-0.5,0-1.2,0.2-2.2,0.7s-1.4,1-1.4,1.4
		C207.3,16.8,209.2,18.2,212.8,19.9L212.8,19.9L212.8,19.9L212.8,19.9z M210,26.2c-4.6-2.4-6.7-4.8-6.7-7.4c0-3.1,1.4-6,4.3-8.4
		c2.9-2.6,5.3-3.6,7.2-2.9c1.7,0.5,2.4,2.2,2.4,5c0,2.6-0.5,5.5-1.7,8.9c2.4,1.2,3.8,2.4,4.3,3.4c0,1.2-1,3.4-3.1,6.2
		c-0.5-1-1.9-2.2-4.1-3.4c-2.6,3.6-5.8,6.7-9.6,9.6c-4.6,3.1-8.6,5.8-12.2,7.2c-1,0.5-5.3,2.2-13,5c-1.2,0.5-2.2,0.7-2.4,0.7
		c-0.2,0-0.2-0.2-0.2-0.2c0-0.2,0.5-1,1.9-1.7c5.8-3.6,11.5-7,17.5-10.3C201.6,33.6,206.6,29.8,210,26.2L210,26.2L210,26.2L210,26.2
		z"/>
	<path class="st0" d="M178.8,193c0,1-0.5,2.2-1.4,4.1c-1,2.2-1.9,3.6-2.9,4.1c-7.2,5-14.9,7.7-23.5,7.7c-1.4,0-3.6-0.7-6.5-1.7
		c-2.6-1-4.3-1.9-5.3-2.6c-0.2-0.2-0.5-0.5-1-1s-0.5-0.5-0.2-0.7c0,0,0.7,0,1.9,0.2c4.3,0.5,9.1,0.2,13.9-0.7c1.7-1,3.4-2.6,5-4.8
		c2.4-7.4,3.8-11.5,3.8-11.8c0-1.4-0.5-2.6-1.2-3.8c-0.5-1-1.2-1.4-1.9-1.4c-1.7,0-2.9,0.5-4.3,1.9c-0.7,0.7-1,1-1.2,1
		c0,0,0-0.5,0-1.7c0-2.2,0.7-3.8,2.2-5.5c1.7-1.4,3.1-2.2,4.6-2.2c3.4,0,5.3,2.4,5.3,7.4c0,3.4-1.7,8.2-4.8,13.9
		c4.8-4.3,8.9-6.5,11.8-6.5c1,0,1.9,0.2,3.4,1C178,190.8,178.8,192,178.8,193L178.8,193L178.8,193L178.8,193z M173.2,196.3
		c0-0.5-0.2-0.7-1-1.2c-0.7-0.5-1.4-0.5-2.2-0.5c-1.2,0-2.9,0.7-5.5,2.4c-2.6,1.9-4.6,3.4-5.5,4.8c2.4-0.2,5.5-1.2,9.1-2.9
		C171.6,197.5,173.2,196.6,173.2,196.3L173.2,196.3L173.2,196.3L173.2,196.3z"/>
	<path class="st0" d="M258.4,158.2c0,0.5-0.2,1.4-0.7,2.4c-0.2,1.4-0.7,2.2-1.4,2.2c-0.2,0-0.7-0.7-1.7-1.7c-0.7-1-1.7-1.4-2.4-1.4
		c-1.9,0-3.8,4.6-5.5,13.7c-0.7,4.1-1.4,7-2.4,8.6c-0.7,1-1.2,1.7-1.7,1.7c-0.2,0-0.5-0.7-0.5-1.7c0-1.7-1-4.8-2.9-9.4
		c-1.9-4.8-3.1-7-3.8-7c-0.7,0-1,0-1.2,0.5c0,0.2-0.5,0.5-1.2,0.5c-1,0-1.9-0.7-3.4-1.9c-1.2-1.2-1.9-2.2-1.9-2.9
		c0-0.2,0.5-1.4,1.7-3.4c1.2-1.9,1.9-2.6,2.2-2.6c2.6,0,5,1.4,7.2,4.8c2.4,3.4,3.8,7.4,4.8,12.7c0,0.5,0,0.7,0,1
		c0.2,0.2,0.2,0.2,0.2,0s0.2-0.5,0.5-1c0.2-3.1,1.4-7.9,3.1-14.2c1.9-4.3,3.8-6.5,6-6.5c1.2,0,2.4,0.7,3.6,2.2
		C258,156.2,258.4,157.2,258.4,158.2L258.4,158.2L258.4,158.2L258.4,158.2z M242.6,185.8c-1.7,3.8-5,7.7-10.1,11.3
		c-4.6,3.4-8.6,5.8-12.2,7.4c-0.7,0.5-5,2.2-13,5c-1.2,0.5-1.9,0.7-2.4,0.7c-0.2,0-0.2-0.2-0.2-0.2c0-0.2,0.7-1,1.9-1.7
		c6.5-3.8,15.6-9.4,27.6-17.3c2.9-2.2,5-4.3,6.7-6.2c1.9-2.2,2.9-3.4,3.1-3.4c0,0,0,0,0,0.2C244,181.9,243.6,183.4,242.6,185.8
		L242.6,185.8L242.6,185.8L242.6,185.8z"/>
	<path class="st0" d="M206.6,163.2c0,2.6-1.2,5.5-3.1,8.6c-2.2,3.1-4.8,6-8.2,8.4c-1.4,1-2.2,1.4-2.4,1.4v-0.2
		c0-0.2,0.5-0.7,1.4-1.9c5.5-6,8.4-9.8,8.4-12c0-1.7-1-2.6-2.6-2.6c-1,0-1.9,0.2-2.6,0.7c-0.7,0.2-1,0.5-1.2,0.5c0,0-0.2,0-0.2-0.2
		c0,0,0-0.5,0.2-1.4c1-4.1,2.9-6,6.2-6C205.2,158.4,206.6,160.1,206.6,163.2L206.6,163.2L206.6,163.2L206.6,163.2z"/>
	<path class="st0" d="M14.8,92.6c0-0.2,0.2-0.5,0.2-0.5c0.2-0.2,0.2-0.2,0.2,0c0.2,0.2,0.2,0.5,0,0.7c-1.2,7.2-3.4,10.8-6.5,10.8
		s-4.6-2.6-4.6-7.9c0-6.5,1.7-13.4,5.5-20.4c1-1.7,1.4-2.6,1.7-2.6l0,0c0,0.2-0.2,1.2-0.7,2.9C8.2,83,7,88.1,7,91.2c0,3.8,1,6,3.1,6
		C11.7,97.2,13.2,95.5,14.8,92.6L14.8,92.6L14.8,92.6L14.8,92.6z"/>
	<path class="st0" d="M57.1,171.8c9.6-3.4,19.9-7.2,31-11c1-0.2,1.2-0.5,1.4-0.2c0.2,0,0.2,0.5-0.2,1.2c-0.7,2.2-1.4,3.4-1.9,3.8
		c-9.6,3.4-20.4,7.4-32.6,13C55.2,176.4,55.9,174.2,57.1,171.8L57.1,171.8L57.1,171.8L57.1,171.8z"/>
	<path class="st0" d="M131.7,21.1c0,0.5-0.2,1.4-0.5,2.4c-0.5,1.4-1,2.2-1.7,2.2c-0.2,0-0.7-0.7-1.7-1.7c-0.7-1-1.7-1.4-2.4-1.4
		c-1.9,0-3.8,4.6-5.5,13.7c-0.7,4.1-1.4,6.7-2.4,8.4c-0.7,1.2-1.2,1.7-1.7,1.7c-0.2,0-0.5-0.5-0.5-1.4c0-1.7-1-4.8-2.9-9.4
		c-1.7-4.8-3.1-7-3.8-7c-0.5,0-1,0-1,0.5c-0.2,0.2-0.7,0.5-1.4,0.5c-1,0-2.2-0.7-3.6-1.9c-1.4-1.4-1.9-2.4-1.7-2.9
		c2.2-4.1,3.4-6,3.8-6c2.6,0,5.3,1.4,7.4,4.8c2.2,3.1,3.6,7.4,4.6,12.5c0,0.7,0,1,0,1c0.2,0.2,0.2,0.2,0.2,0c0,0,0.2-0.2,0.5-1
		c0.5-2.9,1.4-7.7,3.1-13.9c1.9-4.3,3.8-6.5,6.2-6.5c1,0,2.2,0.7,3.4,2.2C131.2,19.2,131.7,20.2,131.7,21.1L131.7,21.1L131.7,21.1
		L131.7,21.1z M101,24.7c0.5-1,1-1.4,1.2-1.4c0,0,0.2,0.2,0,0.2c0.2,0.7-0.5,2.4-1.9,5c-2.4,4.6-5.8,8.2-10.1,11.3
		c-4.6,3.4-8.6,5.8-12.2,7.4c-0.7,0.5-5,2.2-13,5c-1.2,0.5-1.9,0.7-2.4,0.7c-0.2,0-0.2-0.2-0.2-0.2c0-0.2,0.7-1,1.9-1.7
		c6.7-3.6,15.8-9.4,27.6-17.3C96.7,30.2,99.6,27.1,101,24.7L101,24.7L101,24.7L101,24.7z"/>
	<path class="st0" d="M135.1,97c0-0.2,0.2-0.5,0.2-0.5c0.2-0.2,0.2-0.2,0.2,0c0.2,0.2,0.2,0.5,0,0.7c-1.2,7.2-3.4,10.8-6.5,10.8
		s-4.6-2.6-4.6-7.9c0-6.5,1.7-13.4,5.5-20.4c1-1.7,1.4-2.6,1.7-2.6l0,0c0,0.2-0.2,1.2-0.7,2.9c-2.4,7.4-3.6,12.5-3.6,15.6
		c0,3.8,1,6,3.1,6C132,101.5,133.4,99.8,135.1,97L135.1,97L135.1,97L135.1,97z"/>
	<path class="st0" d="M114.9,65.5c0,2.6-1.2,5.5-3.1,8.6c-2.2,3.1-4.8,6-8.2,8.4c-1.4,1-2.2,1.4-2.4,1.4v-0.2c0-0.2,0.5-0.7,1.4-1.9
		c5.5-6,8.4-9.8,8.4-12c0-1.7-1-2.6-2.6-2.6c-1,0-1.9,0.2-2.6,0.7c-0.7,0.2-1,0.5-1.2,0.5c0,0-0.2,0-0.2-0.2c0,0,0-0.5,0.2-1.4
		c1-4.1,2.9-6,6.2-6C113.5,60.7,114.9,62.4,114.9,65.5L114.9,65.5L114.9,65.5L114.9,65.5z"/>
	<path class="st0" d="M43.2,65c0-0.2,0.2-0.5,0.2-0.5c0.2-0.2,0.2-0.2,0.2,0c0.2,0.2,0.2,0.5,0,0.7C42.4,72.4,40.2,76,37.1,76
		s-4.6-2.6-4.6-7.9c0-6.5,1.7-13.4,5.5-20.4c1-1.7,1.4-2.6,1.7-2.6l0,0c0,0.2-0.2,1.2-0.7,2.9c-2.4,7.4-3.6,12.5-3.6,15.6
		c0,3.8,1,6,3.1,6C40,69.6,41.5,67.9,43.2,65L43.2,65L43.2,65L43.2,65z"/>
	<path class="st0" d="M49.4,103.2c0,2.6-1.2,5.5-3.1,8.6c-2.2,3.1-4.8,6-8.2,8.4c-1.4,1-2.2,1.4-2.4,1.4v-0.2c0-0.2,0.5-0.7,1.4-1.9
		c5.5-6,8.4-9.8,8.4-12c0-1.7-1-2.6-2.6-2.6c-1,0-1.9,0.2-2.6,0.7c-0.7,0.2-1,0.5-1.2,0.5c0,0-0.2,0-0.2-0.2c0,0,0-0.5,0.2-1.4
		c1-4.1,2.9-6,6.2-6C48,98.4,49.4,100.1,49.4,103.2L49.4,103.2L49.4,103.2L49.4,103.2z"/>
	<path class="st0" d="M452.1,116.4c1.2-1,2.2-1.4,2.9-1.4c0.5,0,0.7,0.5,0.7,1.4c0,0.7-0.2,2.2-0.7,4.1s-0.7,3.4-0.7,4.6
		c0,5.3,3.8,8.2,11.3,8.2c6,0,11-2.6,14.9-7.7c2.4-4.1,5-7.9,7.4-11.8c1-1,1.7-1.4,2.4-1.4c1,0,1.2,1,0.7,3.1c-1,4.1-1.7,6-1.7,5.5
		c0,1.7,1,3.4,2.9,4.8c1.7,1.4,4.1,2.4,6.7,2.4c3.4,0,5.5-1,6.5-2.6c0-0.2-1-2.2-3.1-5.8c0.2-1.9,1.2-5.3,2.6-9.8
		c0.2-1.4,0.7-2.2,1.2-2.2s1,0.2,1.7,1.2c1.9,2.9,3.1,6.2,3.1,10.1c0,6-1.4,11-4.1,15.4c-2.9,5.3-7.2,7.9-13,7.9
		c-3.8,0-7.4-3.1-10.6-8.9c-5.3,9.6-12.2,14.4-20.6,14.4c-10.1,0-14.9-5.8-14.9-16.8c-3.8,4.6-10.3,8.6-18.7,12.5v-13.2
		c6.2-3.1,10.3-5,11.5-5.8C444.4,122.6,448.3,119.8,452.1,116.4L452.1,116.4L452.1,116.4L452.1,116.4z"/>
	<path class="st0" d="M415.4,132.2c-3.6-4.6-6.7-6.7-9.6-6.7c-4.3,0-6.2,1-6.2,3.4c0,2.9,2.9,4.3,8.6,4.3
		C410.4,133.2,412.8,132.7,415.4,132.2L415.4,132.2L415.4,132.2L415.4,132.2z M422.8,149.8c0-1.4-0.5-3.1-1-4.8
		c-2.9,1-7.2,1.7-12.5,1.7c-11.5,0-17.3-4.1-17.3-12c0-6,1.7-11.3,5.5-16.1c3.6-4.1,7.4-6.2,11.5-6.2c3.1,0,6.2,1.9,9.8,5.5
		c3.1,3.6,6,7.7,8.4,12.7c0.2,0,0.7,0,1.7-0.5v13.2l-0.5,0.5c0,2.9-0.7,6.2-2.2,10.6c-1.7,5.5-4.3,10.1-7.4,13.7
		c-7.2,8.6-15.1,16.1-23.8,22.6c-13,9.6-24,14.6-33.6,14.6c-8.2,0-14.4-3.1-18.7-9.1c-3.8-5-5.8-11.8-5.8-19.7
		c0-10.1,2.2-20.4,6.2-31.2c1.2-2.4,1.7-3.4,2.2-3.4c0.2,0,0.2,0.2,0.2,0.7c0,0.7-0.2,1.9-0.5,3.4c-3.1,10.6-4.6,18.5-4.6,24
		c0,5,1.2,9.4,3.6,13c3.8,5,9.8,7.7,18.2,7.7c7.2,0,15.8-3.1,26.2-9.4c8.2-5,16.1-11,23.8-18.2C419.2,156.2,422.8,151.9,422.8,149.8
		L422.8,149.8L422.8,149.8L422.8,149.8z"/>
	<path class="st0" d="M357.3,113.5c-0.5-2.2-1.2-3.8-2.2-5c-0.7-1.4-1.2-2.2-1.4-2.6c0-0.5,0-2.2,0.5-5.5c0.5-3.1,0.7-5.3,1.2-6.5
		c0.2-1.2,0.5-1.7,1-1.7c0.2,0,0.5,0.2,1,0.7c3.4,3.8,7,7.7,11,11.8c1.7,1.7,2.4,2.6,2.4,3.1c0,0.2-0.2,0.5-0.7,0.5
		c-0.7,0-2.6-0.5-5.5-1.2c1.7,4.1,3.6,8.2,5.3,12c2.6,6.7,4.1,12.2,4.1,17.3c0,2.4-0.5,5.3-1.4,8.9c-1.2,4.1-2.6,7.2-4.6,9.4
		c-7,7.9-18.7,16.6-35.3,25.9c-14.5,8.3-22.9,12.4-25.5,12.4c-0.5,0-7.7,1.7-21.4,5c-14.4,3.4-23.5,5.5-27.1,6c-3.8,0.7-6.2,1-7.2,1
		c-0.5,0-0.5,0-0.5-0.2s2.6-1.7,7.9-4.1c1.9-1,13-5.8,33.4-14.4c14.2-6,25.9-11.5,35.3-16.6c14.2-7.7,25-14.4,32.4-19.9
		c5.5-4.3,8.4-7.4,8.4-9.4c0-0.5-1.4-3.8-4.3-10.1C360.9,123.4,358.5,117.6,357.3,113.5L357.3,113.5L357.3,113.5L357.3,113.5z"/>
	<path class="st0" d="M337.6,80.2c0,3.8-1.9,9.1-5.8,15.6c-2.4,4.1-6,9.6-10.8,16.8c4.8,5.5,8.2,10.6,9.8,14.9
		c1,3.1,1.7,7.2,1.7,11.8c0,1.9-0.5,4.3-1.4,7.4c-0.7,2.9-1.7,5-2.6,6.5c-1.9,2.9-5,5.8-9.8,8.6c-5,3.4-9.4,5-13,5
		c-5.8,0-8.6-4.3-8.6-13c0-5.8,1-11.5,2.9-16.8c1.9-4.6,5-10.6,10.1-18.5c-4.3-4.1-8.9-9.8-13.9-17c-0.5-0.7-1.7-1.9-3.6-3.8
		c-1-1-1.4-2.2-1.4-3.6c0-2.2,0.2-4.6,0.7-7.4c0.7-2.9,1.2-4.1,1.4-4.1c0.7,0,2.9,1.2,7,3.8c3.8,2.6,7,4.6,8.9,6.2
		c1.2,0.7,1.7,1.4,1.7,1.4v0.2c0,0.2-0.7,0.5-2.4,0.5c-3.1,0-4.8,0.2-4.8,0.5c0,0.2,0.5,0.7,1.4,1.9c3.8,4.8,7.7,8.4,11.8,11.3
		c1-1.4,4.3-6.2,9.6-14.4c4.6-7,7.2-11.8,8.4-14.6c1.2-2.9,1.9-4.1,2.4-4.1C337.4,75.4,337.6,76.8,337.6,80.2L337.6,80.2L337.6,80.2
		L337.6,80.2z M328.3,139.2c-2.6-5.3-7.2-10.8-13.4-16.1c-2.2,2.2-4.8,6.2-8.2,12c-3.8,6.5-5.5,10.6-5.5,12.7c0,2.9,1.9,4.3,6.2,4.3
		c1.9,0,4.3-0.7,7.4-1.9c4.3-1.9,8.4-4.6,11.8-7.9C328,140.9,328.5,139.9,328.3,139.2L328.3,139.2L328.3,139.2L328.3,139.2z"/>
	<path class="st0" d="M314.8,62.2l3.8-7.9c0.2-0.5,0.5-0.7,1-0.7s2.4,1.2,6.2,3.8c3.6,2.4,5.5,3.8,5.5,4.3c0,1.7-1.7,5.3-4.8,10.6
		c-0.5,0.7-1,0.7-1.4,0.5c-3.1-2.4-6.7-4.8-10.8-7.4c-1.4,2.9-2.6,5.5-4.1,7.7c-0.2,0.7-0.7,1-1.2,0.7c-3.6-2.9-7.4-5.5-11.3-7.9
		c-0.2-0.2-0.2-0.5,0-1l4.6-9.6c0.2-0.5,0.7-1,1-1c0.5,0,2.2,1.2,5.3,3.4C311.7,59.5,313.9,61.2,314.8,62.2L314.8,62.2L314.8,62.2
		L314.8,62.2z"/>
	<path class="st0" d="M441.3,196.1c-2.6,0.7-4.1,1.2-4.6,1.2V197c0,0,1-0.7,2.9-1.9c1.9-1.2,4.8-3.1,8.9-6.2c1.9-1.9,4.8-5,8.4-9.4
		c2.4-2.9,5-5.5,7.9-7.4c3.6-2.6,7-3.8,10.6-3.8c0.7,0,1.9,0.2,3.4,0.7c1.2,0.5,2.4,0.7,3.4,0.7c1.9,0,3.4-0.7,4.6-2.2
		c0.7-1.4,1.7-2.6,2.6-4.1c0.5-1,1.2-1.4,1.7-1.4c0.2,0,0.2,0.2,0.2,0.7s-0.2,1.7-0.7,3.1c-0.5,0.7,1.4,1,5,1c0.5,0,0.7,0,0.7-0.2
		c0,0-0.2-1-0.7-2.6c-0.2-0.5,0-1.2,0.7-2.2c1-1.7,1.4-2.4,1.7-2.2c1,0.7,1.4,2.2,1.4,3.8c0,1.7-0.5,3.4-1.2,5.3
		c-0.7,2.2-1.4,3.4-1.9,3.8c-1.7,1-4.3,0.7-7.9-1c-2.9,2.9-5.8,4.6-8.6,4.6c-0.7,0-1.9-0.2-3.1-0.7c-1.2-0.5-2.2-0.7-2.9-0.7
		c-4.8,0-9.8,2.2-14.9,7c-3.6,3.6-7.2,7.2-10.8,10.8C445.9,194.2,443.7,195.4,441.3,196.1L441.3,196.1L441.3,196.1L441.3,196.1z"/>
	<path class="st0" d="M389.7,66.2c2.9,0,5.3,1.4,7.4,4.8c2.2,3.1,3.8,7.4,4.6,12.7c0.2,0.5,0.2,0.7,0.2,1h0.2c0-0.2,0.2-0.5,0.2-1
		c0.5-3.1,1.7-7.9,3.4-14.2c1.9-4.3,3.8-6.5,6-6.5c1.2,0,2.4,0.7,3.4,2.2c1,1.4,1.4,2.4,1.4,3.4c0,0.5,0,1.4-0.5,2.4
		c-0.5,1.4-1,2.2-1.4,2.2c-0.2,0-0.7-0.7-1.7-1.7c-0.7-1-1.7-1.4-2.6-1.4c-1.9,0-3.6,4.6-5.3,13.7c-0.7,4.1-1.7,7-2.4,8.6
		c-0.7,1-1.2,1.7-1.7,1.7s-0.5-0.7-0.7-1.7c0.2-1.7-0.7-4.8-2.6-9.4c-1.9-4.8-3.1-7-4.1-7c-0.5,0-0.7,0-1,0.5
		c-0.2,0.2-0.5,0.5-1.2,0.5c-1,0-1.9-0.7-3.4-1.9c-1.4-1.2-1.9-2.2-1.9-2.9c0-0.2,0.5-1.4,1.7-3.4C388.8,67,389.5,66.2,389.7,66.2
		L389.7,66.2L389.7,66.2L389.7,66.2z"/>
	<path class="st0" d="M349.2,63.4c24.2-9.1,49.4-18.2,75.4-27.8c0.7-0.2,1.2-0.5,1.2-0.2c0.2,0,0.2,0.5,0,1.2
		c-1,2.2-1.7,3.4-2.2,3.8c-0.2,0.2-12.5,4.8-36.2,13.7c-24.2,8.9-37.9,14.4-40.6,16.1C347.2,67.9,348,65.8,349.2,63.4L349.2,63.4
		L349.2,63.4L349.2,63.4z"/>
	<path class="st0" d="M325.6,19.4c0.5-1.4,0.5-2.9,0.2-4.3c-0.2-1.4-1-2.2-2.2-2.2c-0.5,0-1.2,0.2-2.2,0.7s-1.4,1-1.4,1.4
		C320.1,16.3,322,17.8,325.6,19.4L325.6,19.4L325.6,19.4L325.6,19.4z M322.8,25.7c-4.6-2.4-6.7-4.8-6.7-7.4c0-3.1,1.4-6,4.3-8.4
		c2.9-2.6,5.3-3.6,7.2-2.9c1.7,0.5,2.4,2.2,2.4,5c0,2.6-0.5,5.5-1.7,8.9c2.4,1.2,3.8,2.4,4.3,3.4c0,1.2-1,3.4-3.1,6.2
		c-0.5-1-1.9-2.2-4.1-3.4c-2.6,3.6-5.8,6.7-9.6,9.6c-4.6,3.1-8.6,5.8-12.2,7.2c-1,0.5-5.3,2.2-13,5c-1.2,0.5-2.2,0.7-2.4,0.7
		c-0.2,0-0.2-0.2-0.2-0.2c0-0.2,0.5-1,1.9-1.7c5.8-3.6,11.5-7,17.5-10.3C314.4,33.1,319.4,29.3,322.8,25.7L322.8,25.7L322.8,25.7
		L322.8,25.7z"/>
	<path class="st0" d="M474.4,55.7c0.5-1.4,0.5-2.9,0.2-4.3c-0.2-1.4-1-2.2-2.2-2.2c-0.5,0-1.2,0.2-2.2,0.7s-1.4,1-1.4,1.4
		C468.9,52.6,470.8,54,474.4,55.7L474.4,55.7L474.4,55.7L474.4,55.7z M479.7,64.6c-2.4,5.8-3.6,10.3-3.6,13.7c0,4.1,1,6.2,3.1,6.2
		c1.2,0,2.6-1.7,4.3-4.6c0.2-0.2,0.2-0.5,0.5-0.7c0,0,0.2,0,0.2,0.2c0,0,0,0.2,0,0.7c-1.4,7.2-3.6,10.8-6.5,10.8
		c-3.1,0-4.6-2.6-4.6-7.9c0-2.6,0.5-6,1.9-10.3s2.2-6.5,2.2-6.7c0-0.5-1-1.4-3.1-2.6c-3.8,5-9.1,9.8-15.8,13.9
		c-4.6,2.6-9.1,5-13.9,7c-8.9,3.6-14.2,5.5-15.4,6.2c-1.2,0.5-1.9,0.7-2.4,0.7c-0.2,0-0.2-0.2-0.2-0.2c0-0.5,0.5-1,1.9-1.9
		c7.7-4.3,15.1-8.6,22.8-13c10.1-5.8,17-10.6,20.4-14.2c-4.6-2.4-6.7-4.8-6.7-7.4c0-3.1,1.4-6,4.3-8.6c2.9-2.4,5.3-3.4,7.2-2.6
		c1.4,0.5,2.4,2.2,2.4,5c0,2.6-0.5,5.5-1.7,8.6c2.4,1.4,3.4,2.9,3.4,4.3C480.4,61.9,480.2,63.1,479.7,64.6L479.7,64.6L479.7,64.6
		L479.7,64.6z"/>
	<path class="st0" d="M370.5,29.5c0-0.2,0.2-0.5,0.2-0.5c0.2-0.2,0.2-0.2,0.2,0c0.2,0.2,0.2,0.5,0,0.7c-1.2,7.2-3.4,10.8-6.5,10.8
		s-4.6-2.6-4.6-7.9c0-6.5,1.7-13.4,5.5-20.4c1-1.7,1.4-2.6,1.7-2.6l0,0c0,0.2-0.2,1.2-0.7,2.9c-2.4,7.4-3.6,12.5-3.6,15.6
		c0,3.8,1,6,3.1,6C367.4,34.1,368.8,32.4,370.5,29.5L370.5,29.5L370.5,29.5L370.5,29.5z"/>
</g>
</svg>
