<?xml version="1.0" encoding="utf-8"?>
<!-- Generator: Adobe Illustrator 24.0.0, SVG Export Plug-In . SVG Version: 6.00 Build 0)  -->
<svg version="1.1" id="Layer_1" xmlns="http://www.w3.org/2000/svg" xmlns:xlink="http://www.w3.org/1999/xlink" x="0px" y="0px"
	 viewBox="0 0 498 203.7" style="enable-background:new 0 0 498 203.7;" xml:space="preserve">
<style type="text/css">
	.st0{fill:#C4692C;}
</style>
<g>
	<path class="st0" d="M257.7,28.1c0-4.8-0.7-8.6-2.2-11.8c0-1.7,1.2-5.8,4.1-12c0.2-0.7,0.5-1.2,0.7-1.2c0.5,0,0.7,0.5,1.2,1.2
		c0.7,1.7,2.4,6.2,5.3,13.7c3.1,7.9,4.8,12.7,5.3,14.6c0.5,1.2,0.5,2.4,0.5,2.9c0,2.2-1.9,1-6.2-3.8c-0.5-0.7-0.7-0.2-0.7,1
		c0,0.5,1.2,15.4,3.4,45.1c2.2,29.5,3.1,46.1,3.1,49.9c0,11.3-1.7,21.4-5,30c-1,1.7-1.4,2.9-1.9,3.8l0,0c-0.7,1.2-1,1.2-1.2,0.5
		c-0.2-1,0-2.9,0.2-5.5c0.5-4.1,0.7-8.6,0.7-13.7c0-4.8-1.2-24-3.6-57.8C258.9,51.1,257.7,32.2,257.7,28.1L257.7,28.1L257.7,28.1
		L257.7,28.1z"/>
	<path class="st0" d="M247.4,116.4c0,14.2-2.6,25.2-7.7,33.4c-4.3,6.7-9.4,10.3-15.1,10.3v-14.6c4.6,0,9.1-1.9,13.4-5.5
		c1.2-1,1.9-5,1.9-11.8c0-4.1-1.2-20.6-3.4-49.4c-2.2-28.8-3.1-45.8-3.1-51.1c0-4.6-0.7-8.4-2.2-11.5c0-1.7,1.4-5.8,4.1-12.2
		c0.2-0.7,0.5-1,1-1c0.2,0,0.5,0.2,1,1.2c0.7,1.7,2.6,6.2,5.5,13.7c2.9,7.9,4.6,12.7,5.3,14.4c0.2,1.4,0.5,2.6,0.5,3.1
		c0,2.2-2.2,1-6.2-3.8c-0.5-0.5-0.7-0.2-0.7,1c0,0.2,1,13.2,2.9,38.6C246.5,96.3,247.4,111.4,247.4,116.4L247.4,116.4L247.4,116.4
		L247.4,116.4z"/>
	<path class="st0" d="M224.6,159.9c0.7,2.2,1.2,5,1.2,8.2c0,3.8-0.7,7.2-1.9,10.1c-0.7,1.4-1.2,2.4-1.9,2.4c-1,0-2.2-0.7-4.1-1.7
		c-5.8-3.4-9.8-7.4-12-12.2c-1.2-2.6-2.2-7.2-2.6-13c-0.2-1-0.2-1.7-0.5-1.7c-0.5,0-1,0.7-1.4,1.7c-2.4,2.6-4.8,5.5-7.2,8.6
		c-4.3,3.8-9.1,6-14.6,6v-14.9c7,0,12.5-1.7,17-5c1-0.7,3.4-3.4,7-7.4c1.4-1.9,2.6-2.6,3.6-2.6c0.5,0,1.2,0.2,2.2,1
		c2.9,2.4,4.8,3.8,5.8,4.3c2.4,1.2,5.5,1.7,9.6,1.7v14.5H224.6L224.6,159.9z"/>
	<path class="st0" d="M179.5,168c-7.4,0-12.7-2.9-15.8-8.4c-1.9-3.6-3.4-9.4-4.3-17.3c-0.7,10.6-4.6,18.5-11.5,23.3
		c-4.6,3.4-9.8,5-15.4,5V156c9.4,0,16.1-2.9,20.2-8.6c2.6-4.3,4.1-11.5,4.1-21.6c0-28.3-1.2-52.6-3.6-72.2
		c-0.2-2.6-1.9-12.2-4.6-28.3c1.2-6,1.9-10.3,2.9-12.7c0.5-1,0.7-1.4,1-1.4c0.5,0,0.7,0.5,1.2,1.4c3.1,10.6,5.8,23.8,7.7,39.6
		c1.4,10.8,2.4,27.4,3.1,50.2c0.5,20.2,1.2,32.6,2.2,37.7c1.2,5.5,3.1,9.4,5.5,11.5c1.7,1.2,4.1,1.9,7.4,1.9V168H179.5L179.5,168z"
		/>
	<path class="st0" d="M35.3,179.8c-13.4,0-23.3-4.1-29.3-12c-4.1-5.3-6-12-6-19.9c0-8.9,2.2-17.5,6.5-25.4c1.4-2.4,2.4-3.6,2.9-3.6
		c0,0,0.2,0.2,0.2,0.7c0,0.7-0.5,2.2-1,4.1c-1.2,2.9-2.4,5.8-3.4,8.4c-1.2,3.6-1.7,7.4-1.7,11.5c0,4.6,2.2,8.9,6.7,13
		c6,5.5,15.1,8.4,27.1,8.4c10.1,0,21.6-2.9,34.1-8.4c11-4.8,20.6-10.6,28.6-17c6.5-5.3,9.6-11.3,9.6-18c0-24.5-1.2-46.6-3.6-65.8
		c-0.7-6.7-2.2-16.1-4.1-28.3c1-7,1.9-11.3,2.4-12.7c0.5-1,0.7-1.4,1-1.4c0.5,0,0.7,0.5,1,1.4c3.4,10.6,6,23.8,7.9,39.8
		c1.4,10.6,2.4,27.4,2.9,49.9c0.7,20.4,1.4,33.1,2.4,37.9c1.2,5.8,3.1,9.4,5.5,11.5c1.7,1.4,4.1,2.2,7.4,2.2v14.6
		c-7.4,0-12.7-2.9-15.8-8.6c-3.1-5.3-4.8-15.1-5.5-29c-1.9,7.2-4.3,12.5-7.2,15.4c-6.5,7-16.1,13.4-28.6,19.9
		C60.5,175.9,47,179.8,35.3,179.8L35.3,179.8L35.3,179.8L35.3,179.8z"/>
	<path class="st0" d="M73.2,107.3c0,1.9-1.7,5.3-4.8,10.3c-3.4,4.8-5.5,7.4-7,7.4c-0.2,0-2.2,0.5-6.5,1.4c-4.3,1-7.7,1.7-10.1,1.7
		c-1.7,0-2.4-0.2-2.4-0.7s4.1-2.6,12.5-6.5c6.5-2.9,9.6-5,9.6-6.2c0-0.2-1.4-0.2-3.8-0.5c-3.4,0-5.8-0.5-7.4-1.2
		c-2.6-1-3.8-2.9-3.8-5.8c0-5,2.4-10.8,7.4-17.3c4.8-5.8,8.6-8.6,11.3-8.6c2.2,0,3.4,1.2,3.4,3.6c0,1.9-0.5,3.8-1.2,6
		c-1.2,2.4-2.2,3.8-3.6,3.8c-0.7,0-1.2-0.5-1.4-1.2c0-0.7-0.5-1-1.4-1c-0.7,0-2.2,1-4.6,2.9c-2.2,1.9-3.1,3.1-3.1,4.1
		c0,1.7,2.6,2.6,8.4,3.1C70.3,103,73.2,104.7,73.2,107.3L73.2,107.3L73.2,107.3L73.2,107.3z"/>
	<path class="st0" d="M15.3,110.2c0-0.2,0.2-0.5,0.2-0.5c0.2-0.2,0.2-0.2,0.2,0c0.2,0.2,0.2,0.5,0,0.7c-1.2,7.2-3.4,10.8-6.5,10.8
		s-4.6-2.6-4.6-7.9c0-6.5,1.7-13.4,5.5-20.4c1-1.7,1.4-2.6,1.7-2.6l0,0c0,0.2-0.2,1.2-0.7,2.9c-2.4,7.4-3.6,12.5-3.6,15.6
		c0,3.8,1,6,3.1,6C12.2,114.7,13.7,113.1,15.3,110.2L15.3,110.2L15.3,110.2L15.3,110.2z"/>
	<path class="st0" d="M215.3,20.9c0-1.2-2.4-3.4-7.4-6.2c-1.7,2.9-2.4,5.5-2.4,7.9c0,1.4,0.7,2.4,2.2,2.4c1.2,0,2.6-0.5,4.3-1.4
		C213.6,22.8,214.8,21.9,215.3,20.9L215.3,20.9L215.3,20.9L215.3,20.9z M210,1.7c0.7-1.2,1.7-1.7,2.4-1.7c0.5,0,1,0.2,1,0.7
		c0,0-0.2,0.2-0.2,0.5c-1,2.2-1.9,4.6-2.6,7c5,3.6,7.4,7.4,7.2,11c-0.5,4.1-1,6.7-1.7,7.7c-2.4,2.9-5,4.6-8.4,4.6s-4.8-2.2-4.8-6
		c0-0.7,0-1.7,0.2-2.6C204.2,15.1,206.6,8.2,210,1.7L210,1.7L210,1.7L210,1.7z"/>
	<path class="st0" d="M219.6,100.6c0.5-1.4,0.5-2.9,0.2-4.3c-0.2-1.4-1-2.2-2.2-2.2c-0.5,0-1.2,0.2-2.2,0.7s-1.4,1-1.4,1.4
		C214.1,97.5,216,98.9,219.6,100.6L219.6,100.6L219.6,100.6L219.6,100.6z M216.7,106.8c-4.6-2.4-6.7-4.8-6.7-7.4
		c0-3.1,1.4-6,4.3-8.4c2.9-2.6,5.3-3.6,7.2-2.9c1.7,0.5,2.4,2.2,2.4,5c0,2.6-0.5,5.5-1.7,8.9c2.4,1.2,3.8,2.4,4.3,3.4
		c0,1.2-1,3.4-3.1,6.2c-0.5-1-1.9-2.2-4.1-3.4c-2.6,3.6-5.8,6.7-9.6,9.6c-4.6,3.1-8.6,5.8-12.2,7.2c-1,0.5-5.3,2.2-13,5
		c-1.2,0.5-2.2,0.7-2.4,0.7s-0.2-0.2-0.2-0.2c0-0.2,0.5-1,1.9-1.7c5.8-3.6,11.5-7,17.5-10.3C208.3,114.3,213.3,110.4,216.7,106.8
		L216.7,106.8L216.7,106.8L216.7,106.8z"/>
	<path class="st0" d="M158.9,192.7c0-0.2,0.2-0.5,0.2-0.5c0.2-0.2,0.2-0.2,0.2,0c0.2,0.2,0.2,0.5,0,0.7c-1.2,7.2-3.4,10.8-6.5,10.8
		s-4.6-2.6-4.6-7.9c0-6.5,1.7-13.4,5.5-20.4c1-1.7,1.4-2.6,1.7-2.6l0,0c0,0.2-0.2,1.2-0.7,2.9c-2.4,7.4-3.6,12.5-3.6,15.6
		c0,3.8,1,6,3.1,6C155.7,197.3,157.2,195.6,158.9,192.7L158.9,192.7L158.9,192.7L158.9,192.7z"/>
	<path class="st0" d="M201.8,184.1c0,2.6-1.2,5.5-3.1,8.6c-2.2,3.1-4.8,6-8.2,8.4c-1.4,1-2.2,1.4-2.4,1.4v-0.2
		c0-0.2,0.5-0.7,1.4-1.9c5.5-6,8.4-9.8,8.4-12c0-1.7-1-2.6-2.6-2.6c-1,0-1.9,0.2-2.6,0.7c-0.7,0.2-1,0.5-1.2,0.5c0,0-0.2,0-0.2-0.2
		c0,0,0-0.5,0.2-1.4c1-4.1,2.9-6,6.2-6C200.4,179.3,201.8,181,201.8,184.1L201.8,184.1L201.8,184.1L201.8,184.1z"/>
	<path class="st0" d="M80.1,35.8c0-0.2,0.2-0.5,0.2-0.5c0.2-0.2,0.2-0.2,0.2,0c0.2,0.2,0.2,0.5,0,0.7c-1.2,7.2-3.4,10.8-6.5,10.8
		s-4.6-2.6-4.6-7.9c0-6.5,1.7-13.4,5.5-20.4c1-1.7,1.4-2.6,1.7-2.6l0,0c0,0.2-0.2,1.2-0.7,2.9c-2.4,7.4-3.6,12.5-3.6,15.6
		c0,3.8,1,6,3.1,6C77,40.3,78.5,38.7,80.1,35.8L80.1,35.8L80.1,35.8L80.1,35.8z"/>
	<path class="st0" d="M135.6,27.6c0-1.2-2.4-3.4-7.4-6.2c-1.7,2.9-2.4,5.5-2.4,7.9c0,1.4,0.7,2.4,2.2,2.4c1.2,0,2.6-0.5,4.3-1.4
		C133.9,29.5,135.1,28.6,135.6,27.6L135.6,27.6L135.6,27.6L135.6,27.6z M130.3,8.4c0.7-1.2,1.7-1.7,2.4-1.7c0.5,0,1,0.2,1,0.7
		c0,0-0.2,0.2-0.2,0.5c-1,2.2-1.9,4.6-2.6,7c5,3.6,7.4,7.4,7.2,11c-0.5,4.1-1,6.7-1.7,7.7c-2.4,2.9-5,4.6-8.4,4.6s-4.8-2.2-4.8-6
		c0-0.7,0-1.7,0.2-2.6C124.5,21.9,126.9,14.9,130.3,8.4L130.3,8.4L130.3,8.4L130.3,8.4z"/>
	<path class="st0" d="M140.4,108.5c0-0.2,0.2-0.5,0.2-0.5c0.2-0.2,0.2-0.2,0.2,0c0.2,0.2,0.2,0.5,0,0.7c-1.2,7.2-3.4,10.8-6.5,10.8
		s-4.6-2.6-4.6-7.9c0-6.5,1.7-13.4,5.5-20.4c1-1.7,1.4-2.6,1.7-2.6l0,0c0,0.2-0.2,1.2-0.7,2.9c-2.4,7.4-3.6,12.5-3.6,15.6
		c0,3.8,1,6,3.1,6C137.3,113.1,138.7,111.4,140.4,108.5L140.4,108.5L140.4,108.5L140.4,108.5z"/>
	<path class="st0" d="M140.4,56.2c0,2.6-1.2,5.5-3.1,8.6c-2.2,3.1-4.8,6-8.2,8.4c-1.4,1-2.2,1.4-2.4,1.4v-0.2c0-0.2,0.5-0.7,1.4-1.9
		c5.5-6,8.4-9.8,8.4-12c0-1.7-1-2.6-2.6-2.6c-1,0-1.9,0.2-2.6,0.7c-0.7,0.2-1,0.5-1.2,0.5c0,0-0.2,0-0.2-0.2c0,0,0-0.5,0.2-1.4
		c1-4.1,2.9-6,6.2-6C138.9,51.4,140.4,53.1,140.4,56.2L140.4,56.2L140.4,56.2L140.4,56.2z"/>
	<path class="st0" d="M20.6,50.2c2.9,0,5.3,1.4,7.4,4.8c2.2,3.1,3.8,7.4,4.6,12.7c0.2,0.5,0.2,0.7,0.2,1H33c0-0.2,0.2-0.5,0.2-1
		c0.5-3.1,1.7-7.9,3.4-14.2c1.9-4.3,3.8-6.5,6-6.5c1.2,0,2.4,0.7,3.4,2.2c1,1.4,1.4,2.4,1.4,3.4c0,0.5,0,1.4-0.5,2.4
		c-0.5,1.4-1,2.2-1.4,2.2c-0.2,0-0.7-0.7-1.7-1.7c-0.7-1-1.7-1.4-2.6-1.4c-1.9,0-3.6,4.6-5.3,13.7c-0.7,4.1-1.7,7-2.4,8.6
		c-0.7,1-1.2,1.7-1.7,1.7s-0.5-0.7-0.7-1.7c0.2-1.7-0.7-4.8-2.6-9.4c-1.9-4.8-3.1-7-4.1-7c-0.5,0-0.7,0-1,0.5
		c-0.2,0.2-0.5,0.5-1.2,0.5c-1,0-1.9-0.7-3.4-1.9c-1.4-1.2-1.9-2.2-1.9-2.9c0-0.2,0.5-1.4,1.7-3.4C19.7,50.9,20.4,50.2,20.6,50.2
		L20.6,50.2L20.6,50.2L20.6,50.2z"/>
	<path class="st0" d="M186.2,47.8c1.7,0,3.6,1,6.2,3.1c2.6,1.9,4.1,3.8,4.3,5.3c0.2,0.5-0.2,1.4-1,3.1c-0.7,1.7-1.2,2.4-1.4,2.4
		c-2.4,0.7-4.8,1.4-7.2,2.2c-3.1,1-5,2.2-6.2,3.4c3.4,10.1,5,19.9,5,29.8c0,2.9-0.5,5.8-1,8.9c-0.2,1-0.5,1.4-0.7,1.7
		c-0.2,0-0.2-1.9-0.2-5.3c0-5.5-1-12.5-2.6-20.4c-1.7-7.9-2.4-12.7-2.4-13.7c0-4.1,1-7,3.4-8.9c1-0.7,3.1-1.7,6-2.6
		c-1.2-1.2-2.4-1.7-3.6-1.7c-0.5,0-1.2,0.5-2.2,1.7c-1,1.4-1.7,1.9-1.7,1.9c-0.2,0-0.5-0.5-0.2-1.4
		C181.4,50.9,183.3,47.8,186.2,47.8L186.2,47.8L186.2,47.8L186.2,47.8z"/>
	<path class="st0" d="M183.8,7.5c0,2.6-1.2,5.5-3.1,8.6c-2.2,3.1-4.8,6-8.2,8.4c-1.4,1-2.2,1.4-2.4,1.4v-0.2c0-0.2,0.5-0.7,1.4-1.9
		c5.5-6,8.4-9.8,8.4-12c0-1.7-1-2.6-2.6-2.6c-1,0-1.9,0.2-2.6,0.7c-0.7,0.2-1,0.5-1.2,0.5c0,0-0.2,0-0.2-0.2c0,0,0-0.5,0.2-1.4
		c1-4.1,2.9-6,6.2-6C182.4,2.7,183.8,4.3,183.8,7.5L183.8,7.5L183.8,7.5L183.8,7.5z"/>
	<path class="st0" d="M66.9,196.8c13.7-4.8,28.1-10.1,43.2-15.6c1-0.2,1.2-0.5,1.4-0.2c0.2,0,0.2,0.5-0.2,1.2
		c-0.7,2.2-1.4,3.4-1.9,3.8c-13,4.6-27.8,10.3-44.9,17.5C65,201.4,65.7,199.2,66.9,196.8L66.9,196.8L66.9,196.8L66.9,196.8z"/>
	<path class="st0" d="M439.2,114.3c1.2-1,2.2-1.4,2.9-1.4c0.5,0,0.7,0.5,0.7,1.4c0,0.7-0.2,2.2-0.7,4.1s-0.7,3.4-0.7,4.6
		c0,5.3,3.8,8.2,11.3,8.2c6,0,11-2.6,14.9-7.7c2.4-4.1,5-7.9,7.4-11.8c1-1,1.7-1.4,2.4-1.4c1,0,1.2,1,0.7,3.1c-1,4.1-1.7,6-1.7,5.5
		c0,1.7,1,3.4,2.9,4.8c1.7,1.4,4.1,2.4,6.7,2.4c3.4,0,5.5-1,6.5-2.6c0-0.2-1-2.2-3.1-5.8c0.2-1.9,1.2-5.3,2.6-9.8
		c0.2-1.4,0.7-2.2,1.2-2.2s1,0.2,1.7,1.2c1.9,2.9,3.1,6.2,3.1,10.1c0,6-1.4,11-4.1,15.4c-2.9,5.3-7.2,7.9-13,7.9
		c-3.8,0-7.4-3.1-10.6-8.9c-5.3,9.6-12.2,14.4-20.6,14.4c-10.1,0-14.9-5.8-14.9-16.8c-3.8,4.6-10.3,8.6-18.7,12.5v-13.2
		c6.2-3.1,10.3-5,11.5-5.8C431.5,120.5,435.3,117.6,439.2,114.3L439.2,114.3L439.2,114.3L439.2,114.3z"/>
	<path class="st0" d="M402.5,130.1c-3.6-4.6-6.7-6.7-9.6-6.7c-4.3,0-6.2,1-6.2,3.4c0,2.9,2.9,4.3,8.6,4.3
		C397.4,131.1,399.8,130.6,402.5,130.1L402.5,130.1L402.5,130.1L402.5,130.1z M409.9,147.6c0-1.4-0.5-3.1-1-4.8
		c-2.9,1-7.2,1.7-12.5,1.7c-11.5,0-17.3-4.1-17.3-12c0-6,1.7-11.3,5.5-16.1c3.6-4.1,7.4-6.2,11.5-6.2c3.1,0,6.2,1.9,9.8,5.5
		c3.1,3.6,6,7.7,8.4,12.7c0.2,0,0.7,0,1.7-0.5v13.2l-0.5,0.5c0,2.9-0.7,6.2-2.2,10.6c-1.7,5.5-4.3,10.1-7.4,13.7
		c-7.2,8.6-15.1,16.1-23.8,22.6c-13,9.6-24,14.6-33.6,14.6c-8.2,0-14.4-3.1-18.7-9.1c-3.8-5-5.8-11.8-5.8-19.7
		c0-10.1,2.2-20.4,6.2-31.2c1.2-2.4,1.7-3.4,2.2-3.4c0.2,0,0.2,0.2,0.2,0.7c0,0.7-0.2,1.9-0.5,3.4c-3.1,10.6-4.6,18.5-4.6,24
		c0,5,1.2,9.4,3.6,13c3.8,5,9.8,7.7,18.2,7.7c7.2,0,15.8-3.1,26.2-9.4c8.2-5,16.1-11,23.8-18.2C406.3,154.1,409.9,149.8,409.9,147.6
		L409.9,147.6L409.9,147.6L409.9,147.6z"/>
	<path class="st0" d="M344.4,111.1c-0.5-2.2-1.2-3.8-2.2-5c-0.7-1.4-1.2-2.2-1.4-2.6c0-0.5,0-2.2,0.5-5.5c0.5-3.1,0.7-5.3,1.2-6.5
		c0.2-1.2,0.5-1.7,1-1.7c0.2,0,0.5,0.2,1,0.7c3.4,3.8,7,7.7,11,11.8c1.7,1.7,2.4,2.6,2.4,3.1c0,0.2-0.2,0.5-0.7,0.5
		c-0.7,0-2.6-0.5-5.5-1.2c1.7,4.1,3.6,8.2,5.3,12c2.6,6.7,4.1,12.2,4.1,17.3c0,2.4-0.5,5.3-1.4,8.9c-1.2,4.1-2.6,7.2-4.6,9.4
		c-7,7.9-18.7,16.6-35.3,25.9c-14.4,8.4-22.8,12.5-25.4,12.5c-0.5,0-7.7,1.7-21.4,5c-14.4,3.4-23.5,5.5-27.1,6c-3.8,0.7-6.2,1-7.2,1
		c-0.5,0-0.5,0-0.5-0.2s2.6-1.7,7.9-4.1c1.9-1,13-5.8,33.4-14.4c14.2-6,25.9-11.5,35.3-16.6c14.2-7.7,25-14.4,32.4-19.9
		c5.5-4.3,8.4-7.4,8.4-9.4c0-0.5-1.4-3.8-4.3-10.1C348,121,345.6,115.2,344.4,111.1L344.4,111.1L344.4,111.1L344.4,111.1z"/>
	<path class="st0" d="M324.7,77.8c0,3.8-1.9,9.1-5.8,15.6c-2.4,4.1-6,9.6-10.8,16.8c4.8,5.5,8.2,10.6,9.8,14.9
		c1,3.1,1.7,7.2,1.7,11.8c0,1.9-0.5,4.3-1.4,7.4c-0.7,2.9-1.7,5-2.6,6.5c-1.9,2.9-5,5.8-9.8,8.6c-5,3.4-9.4,5-13,5
		c-5.8,0-8.6-4.3-8.6-13c0-5.8,1-11.5,2.9-16.8c1.9-4.6,5-10.6,10.1-18.5c-4.3-4.1-8.9-9.8-13.9-17c-0.5-0.7-1.7-1.9-3.6-3.8
		c-1-1-1.4-2.2-1.4-3.6c0-2.2,0.2-4.6,0.7-7.4c0.7-2.9,1.2-4.1,1.4-4.1c0.7,0,2.9,1.2,7,3.8c3.8,2.6,7,4.6,8.9,6.2
		c1.2,0.7,1.7,1.4,1.7,1.4v0.2c0,0.2-0.7,0.5-2.4,0.5c-3.1,0-4.8,0.2-4.8,0.5c0,0.2,0.5,0.7,1.4,1.9c3.8,4.8,7.7,8.4,11.8,11.3
		c1-1.4,4.3-6.2,9.6-14.4c4.6-7,7.2-11.8,8.4-14.6c1.2-2.9,1.9-4.1,2.4-4.1C324.5,73,324.7,74.4,324.7,77.8L324.7,77.8L324.7,77.8
		L324.7,77.8z M315.3,136.8c-2.6-5.3-7.2-10.8-13.4-16.1c-2.2,2.2-4.8,6.2-8.2,12c-3.8,6.5-5.5,10.6-5.5,12.7c0,2.9,1.9,4.3,6.2,4.3
		c1.9,0,4.3-0.7,7.4-1.9c4.3-1.9,8.4-4.6,11.8-7.9C315.1,138.5,315.6,137.5,315.3,136.8L315.3,136.8L315.3,136.8L315.3,136.8z"/>
	<path class="st0" d="M301.9,59.8l3.8-7.9c0.2-0.5,0.5-0.7,1-0.7s2.4,1.2,6.2,3.8c3.6,2.4,5.5,3.8,5.5,4.3c0,1.7-1.7,5.3-4.8,10.6
		c-0.5,0.7-1,0.7-1.4,0.5c-3.1-2.4-6.7-4.8-10.8-7.4c-1.4,2.9-2.6,5.5-4.1,7.7c-0.2,0.7-0.7,1-1.2,0.7c-3.6-2.9-7.4-5.5-11.3-7.9
		c-0.2-0.2-0.2-0.5,0-1l4.6-9.6c0.2-0.5,0.7-1,1-1c0.5,0,2.2,1.2,5.3,3.4C298.8,57.1,300.9,58.8,301.9,59.8L301.9,59.8L301.9,59.8
		L301.9,59.8z"/>
	<path class="st0" d="M428.4,193.7c-2.6,0.7-4.1,1.2-4.6,1.2v-0.2c0,0,1-0.7,2.9-1.9c1.9-1.2,4.8-3.1,8.9-6.2c1.9-1.9,4.8-5,8.4-9.4
		c2.4-2.9,5-5.5,7.9-7.4c3.6-2.6,7-3.8,10.6-3.8c0.7,0,1.9,0.2,3.4,0.7c1.2,0.5,2.4,0.7,3.4,0.7c1.9,0,3.4-0.7,4.6-2.2
		c0.7-1.4,1.7-2.6,2.6-4.1c0.5-1,1.2-1.4,1.7-1.4c0.2,0,0.2,0.2,0.2,0.7s-0.2,1.7-0.7,3.1c-0.5,0.7,1.4,1,5,1c0.5,0,0.7,0,0.7-0.2
		c0,0-0.2-1-0.7-2.6c-0.2-0.5,0-1.2,0.7-2.2c1-1.7,1.4-2.4,1.7-2.2c1,0.7,1.4,2.2,1.4,3.8s-0.5,3.4-1.2,5.3
		c-0.7,2.2-1.4,3.4-1.9,3.8c-1.7,1-4.3,0.7-7.9-1c-2.9,2.9-5.8,4.6-8.6,4.6c-0.7,0-1.9-0.2-3.1-0.7c-1.2-0.5-2.2-0.7-2.9-0.7
		c-4.8,0-9.8,2.2-14.9,7c-3.6,3.6-7.2,7.2-10.8,10.8C432.9,191.8,430.8,193,428.4,193.7L428.4,193.7L428.4,193.7L428.4,193.7z"/>
	<path class="st0" d="M376.8,64.1c2.9,0,5.3,1.4,7.4,4.8c2.2,3.1,3.8,7.4,4.6,12.7c0.2,0.5,0.2,0.7,0.2,1h0.2c0-0.2,0.2-0.5,0.2-1
		c0.5-3.1,1.7-7.9,3.4-14.2c1.9-4.3,3.8-6.5,6-6.5c1.2,0,2.4,0.7,3.4,2.2c1,1.4,1.4,2.4,1.4,3.4c0,0.5,0,1.4-0.5,2.4
		c-0.5,1.4-1,2.2-1.4,2.2c-0.2,0-0.7-0.7-1.7-1.7c-0.7-1-1.7-1.4-2.6-1.4c-1.9,0-3.6,4.6-5.3,13.7c-0.7,4.1-1.7,7-2.4,8.6
		c-0.7,1-1.2,1.7-1.7,1.7s-0.5-0.7-0.7-1.7c0.2-1.7-0.7-4.8-2.6-9.4c-1.9-4.8-3.1-7-4.1-7c-0.5,0-0.7,0-1,0.5
		c-0.2,0.2-0.5,0.5-1.2,0.5c-1,0-1.9-0.7-3.4-1.9c-1.4-1.2-1.9-2.2-1.9-2.9c0-0.2,0.5-1.4,1.7-3.4C375.8,64.8,376.5,64.1,376.8,64.1
		L376.8,64.1L376.8,64.1L376.8,64.1z"/>
	<path class="st0" d="M336.2,61c24.2-9.1,49.4-18.2,75.4-27.8c0.7-0.2,1.2-0.5,1.2-0.2c0.2,0,0.2,0.5,0,1.2c-1,2.2-1.7,3.4-2.2,3.8
		c-0.2,0.2-12.5,4.8-36.2,13.7c-24.2,8.9-37.9,14.4-40.6,16.1C334.3,65.5,335,63.4,336.2,61L336.2,61L336.2,61L336.2,61z"/>
	<path class="st0" d="M312.7,17.1c0.5-1.4,0.5-2.9,0.2-4.3c-0.2-1.4-1-2.2-2.2-2.2c-0.5,0-1.2,0.2-2.2,0.7s-1.4,1-1.4,1.4
		C307.2,13.9,309.1,15.4,312.7,17.1L312.7,17.1L312.7,17.1L312.7,17.1z M309.8,23.3c-4.6-2.4-6.7-4.8-6.7-7.4c0-3.1,1.4-6,4.3-8.4
		c2.9-2.6,5.3-3.6,7.2-2.9c1.7,0.5,2.4,2.2,2.4,5c0,2.6-0.5,5.5-1.7,8.9c2.4,1.2,3.8,2.4,4.3,3.4c0,1.2-1,3.4-3.1,6.2
		c-0.5-1-1.9-2.2-4.1-3.4c-2.6,3.6-5.8,6.7-9.6,9.6c-4.6,3.1-8.6,5.8-12.2,7.2c-1,0.5-5.3,2.2-13,5c-1.2,0.5-2.2,0.7-2.4,0.7
		c-0.2,0-0.2-0.2-0.2-0.2c0-0.2,0.5-1,1.9-1.7c5.8-3.6,11.5-7,17.5-10.3C301.4,30.7,306.5,26.9,309.8,23.3L309.8,23.3L309.8,23.3
		L309.8,23.3z"/>
	<path class="st0" d="M461.5,53.3c0.5-1.4,0.5-2.9,0.2-4.3c-0.2-1.4-1-2.2-2.2-2.2c-0.5,0-1.2,0.2-2.2,0.7s-1.4,1-1.4,1.4
		C456,50.2,457.9,51.6,461.5,53.3L461.5,53.3L461.5,53.3L461.5,53.3z M466.8,62.2c-2.4,5.8-3.6,10.3-3.6,13.7c0,4.1,1,6.2,3.1,6.2
		c1.2,0,2.6-1.7,4.3-4.6c0.2-0.2,0.2-0.5,0.5-0.7c0,0,0.2,0,0.2,0.2c0,0,0,0.2,0,0.7c-1.4,7.2-3.6,10.8-6.5,10.8
		c-3.1,0-4.6-2.6-4.6-7.9c0-2.6,0.5-6,1.9-10.3s2.2-6.5,2.2-6.7c0-0.5-1-1.4-3.1-2.6c-3.8,5-9.1,9.8-15.8,13.9
		c-4.6,2.6-9.1,5-13.9,7c-8.9,3.6-14.2,5.5-15.4,6.2c-1.2,0.5-1.9,0.7-2.4,0.7c-0.2,0-0.2-0.2-0.2-0.2c0-0.5,0.5-1,1.9-1.9
		c7.7-4.3,15.1-8.6,22.8-13c10.1-5.8,17-10.6,20.4-14.2c-4.6-2.4-6.7-4.8-6.7-7.4c0-3.1,1.4-6,4.3-8.6c2.9-2.4,5.3-3.4,7.2-2.6
		c1.4,0.5,2.4,2.2,2.4,5c0,2.6-0.5,5.5-1.7,8.6c2.4,1.4,3.4,2.9,3.4,4.3C467.5,59.5,467.3,60.7,466.8,62.2L466.8,62.2L466.8,62.2
		L466.8,62.2z"/>
	<path class="st0" d="M357.6,27.4c0-0.2,0.2-0.5,0.2-0.5c0.2-0.2,0.2-0.2,0.2,0c0.2,0.2,0.2,0.5,0,0.7c-1.2,7.2-3.4,10.8-6.5,10.8
		s-4.6-2.6-4.6-7.9c0-6.5,1.7-13.4,5.5-20.4c1-1.7,1.4-2.6,1.7-2.6l0,0c0,0.2-0.2,1.2-0.7,2.9c-2.4,7.4-3.6,12.5-3.6,15.6
		c0,3.8,1,6,3.1,6C354.5,31.9,355.9,30.3,357.6,27.4L357.6,27.4L357.6,27.4L357.6,27.4z"/>
</g>
</svg>
