<?xml version="1.0" encoding="utf-8"?>
<!-- Generator: Adobe Illustrator 24.0.0, SVG Export Plug-In . SVG Version: 6.00 Build 0)  -->
<svg version="1.1" id="Layer_1" xmlns="http://www.w3.org/2000/svg" xmlns:xlink="http://www.w3.org/1999/xlink" x="0px" y="0px"
	 viewBox="0 0 455.3 200.4" style="enable-background:new 0 0 455.3 200.4;" xml:space="preserve">
<style type="text/css">
	.st0{fill:#C4692C;}
</style>
<g>
	<path class="st0" d="M207.9,115.2c5-2.4,8.4-4.6,9.8-7c0-1.4-1.9-5.3-6-11.8c-4.1-7-6.7-12.5-7.4-16.1c-0.2-1-1-1.7-2.2-2.2
		c-1-0.2-1.2-1-1.2-1.9l1.4-11.5c0.2-1.2,0.5-1.9,1-1.9s1,0.5,1.7,1l11.5,10.1c1.2,1.4,1.9,2.2,1.9,2.9c0,1.2-2.4,1.4-7,0.2
		c7.2,11.5,10.8,19.2,10.8,23.5c0,14.4-4.8,23.8-14.4,27.8v-13.1H207.9L207.9,115.2z"/>
	<path class="st0" d="M208.1,128.2l-0.5,0.2c0,2.9-0.7,6.5-1.9,10.6c-1.9,5.8-4.3,10.3-7.4,13.7c-6.2,7.2-17,15.1-32.9,24
		c-13.7,7.7-21.8,11.5-24.2,11.5c-0.7,0-7.7,1.7-21.4,5c-14.6,3.6-23.5,5.5-27.1,6.2c-4.1,0.5-6.5,1-7.2,1c-0.5,0-0.7-0.2-0.7-0.2
		c0-0.5,2.6-1.7,7.9-4.1c1.9-1,13-5.8,33.6-14.4c13.9-6,25.7-11.5,35.3-16.6c26.9-14.4,40.1-24.5,40.1-30.5c0-1.7-0.2-3.4-1-5
		c-2.9,1.2-7,1.7-12.5,1.7c-11.3,0-17-4.1-17-11.8c0-6,1.9-11.3,5.8-16.1c3.6-4.1,7.4-6.2,11.3-6.2c3.1,0,6.5,1.7,9.8,5.5
		c3.1,3.4,6,7.7,8.4,12.7c0.2,0,0.7,0,1.7-0.5L208.1,128.2L208.1,128.2L208.1,128.2z M194.5,116.9c-3.6-4.6-6.7-6.7-9.6-6.7
		c-4.1,0-6.2,1.2-6.2,3.4c0,2.9,2.9,4.3,8.9,4.3C189.7,117.9,191.8,117.6,194.5,116.9L194.5,116.9L194.5,116.9L194.5,116.9z"/>
	<path class="st0" d="M110,32.9c1.2-0.5,1.9-0.7,1.9-1c0-0.2-1-0.5-3.1-0.7c-13.2-1.9-28.3-2.9-45.4-2.9c-8.6,0-13.9,0.5-16.3,1.2
		c-1,0.2-1.4,0.5-1.4,0.7s0.7,1,2.2,2.2c3.8,3.1,7.9,6.2,12,9.4c7,5.8,11.5,9.6,13,11.5C85.7,44.4,98,37.7,110,32.9L110,32.9
		L110,32.9L110,32.9z M142.1,112.4c0-4.1-1.2-7.7-4.1-11.3c-3.1-3.8-7.4-6.7-12.7-8.2c-4.6-1.2-12.2-2.2-23-2.4
		c-11.3-0.2-19-1-23-1.9C71.6,86.9,64.2,84,56.7,80c-2.6,3.6-5,7.9-7.2,13.4c-2.9,7.7-4.6,15.1-4.6,22.3c0,23.8,13.4,35.8,40.1,35.8
		c9.1,0,18.2-2.4,27.4-7.2c8.4-4.1,15.6-9.4,21.4-15.6C139.3,122.4,142.1,116.9,142.1,112.4L142.1,112.4L142.1,112.4L142.1,112.4z
		 M131.3,34.8c-22.6,9.6-41,18.7-55.4,27.1c0,5.5-0.5,8.2-1.7,8.2c-0.7,0-2.2-1.4-3.8-4.8c-3.4,2.9-6.5,6-9.6,9.4
		c8.6,1.2,23,2.2,43.2,2.9c14.4,0.5,23.8,1.7,27.8,3.4c4.1,1.9,7.4,4.6,9.8,8.6c2.9,4.6,4.3,9.6,4.3,15.6c0,15.6-6.5,29.8-19.9,42.5
		c-13,12.2-27.4,18.5-43.2,18.5c-28.6,0-42.7-15.6-42.7-47.3c0-14.4,3.6-28.3,11-41.8c-2.4-1.4-3.6-2.4-3.6-3.1
		c0-0.5,0.7-0.7,1.9-0.7c1,0,2.2,0.2,3.8,0.5c2.2-3.6,5.8-8.2,11.3-13.9c-3.4-3.1-8.2-7.2-14.6-12.2c-4.8-3.4-7.9-6.5-9.6-9.4
		c-1-1.7-1.4-3.8-1.4-6.2c0-4.3,1.7-8.2,5-11.3C48,17,53.7,15,61.4,15c8.6,0,22.6,0.7,41.8,2.4c17.3,1.2,27.8,2.4,31.9,2.9
		c1.7,0.2,2.2,1.2,1.9,2.4l-3.1,9.4C133.5,33.4,132.5,34.4,131.3,34.8L131.3,34.8L131.3,34.8L131.3,34.8z"/>
	<path class="st0" d="M189.7,42.5c-0.2-0.2-0.2-0.5,0-1l4.6-9.6c0.2-0.5,0.7-0.7,1-0.7c0.5,0,2.6,1.2,6.2,3.6
		c3.8,2.6,5.8,4.1,5.8,4.6c0,1.7-1.7,5-5,10.3c-0.5,0.7-0.7,1-1.2,0.7C197.3,47.6,193.5,44.9,189.7,42.5L189.7,42.5L189.7,42.5
		L189.7,42.5z"/>
	<path class="st0" d="M126.8,158.4c8.2-4.1,16.3-7.7,24.7-10.8c1-0.2,1.4-0.5,1.7-0.2c0.2,0,0.2,0.5-0.2,1.2
		c-0.7,2.2-1.2,3.4-1.9,4.1c-3.8,1.7-9.8,4.3-18.5,7.9c-2.2,1-4.8,2.4-7.9,4.1C125.1,162.8,125.8,160.6,126.8,158.4L126.8,158.4
		L126.8,158.4L126.8,158.4z M125.1,167.3c8.2-4.1,16.3-7.7,24.7-10.8c1-0.2,1.4-0.5,1.7-0.5c0.2,0.2,0.2,0.7-0.2,1.4
		c-0.7,2.2-1.2,3.4-1.9,4.1c-3.8,1.4-9.8,4.1-18.5,7.9c-2.2,1-4.8,2.4-7.9,4.1C123.4,171.6,124.1,169.5,125.1,167.3L125.1,167.3
		L125.1,167.3L125.1,167.3z"/>
	<path class="st0" d="M182,14.7c0.5-1.4,0.5-2.9,0.2-4.3c-0.2-1.4-1-2.2-2.2-2.2c-0.5,0-1.2,0.2-2.2,0.7s-1.4,1-1.4,1.4
		C176.5,11.6,178.1,13,182,14.7L182,14.7L182,14.7L182,14.7z M179.1,21.2c-4.6-2.4-6.7-4.8-6.7-7.4c0-2.4,1-5,3.4-7.7
		c2.2-2.6,4.6-3.8,7-3.8s3.6,1.7,3.6,5.3c0,2.6-0.7,5.5-1.7,8.6c2.2,1.2,3.6,2.4,4.3,3.4c0,1.4-1,3.4-3.1,6.2
		c-0.5-1-1.9-2.2-4.1-3.4c-7.7,11-23.5,20.2-47.3,27.8c-1.4,0.5-2.2,0.7-2.4,0.7c-0.2,0-0.2-0.2-0.2-0.2c0-0.2,0.5-1,1.9-1.7
		c7.9-4.3,16.1-8.6,24-13C167.8,30.5,175,25.5,179.1,21.2L179.1,21.2L179.1,21.2L179.1,21.2z"/>
	<path class="st0" d="M215.8,3.2c2.9,0,5.3,1.4,7.4,4.8c2.2,3.1,3.8,7.4,4.6,12.7c0.2,0.5,0.2,0.7,0.2,1h0.2c0-0.2,0.2-0.5,0.2-1
		c0.5-3.1,1.7-7.9,3.4-14.2c1.9-4.3,3.8-6.5,6-6.5c1.2,0,2.4,0.7,3.4,2.2c1,1.4,1.4,2.4,1.4,3.4c0,0.5,0,1.4-0.5,2.4
		c-0.5,1.4-1,2.2-1.4,2.2c-0.2,0-0.7-0.7-1.7-1.7c-0.7-1-1.7-1.4-2.6-1.4c-1.9,0-3.6,4.6-5.3,13.7c-0.7,4.1-1.7,7-2.4,8.6
		c-0.7,1-1.2,1.7-1.7,1.7s-0.5-0.7-0.7-1.7c0.2-1.7-0.7-4.8-2.6-9.4c-1.9-4.8-3.1-7-4.1-7c-0.5,0-0.7,0-1,0.5
		c-0.2,0.2-0.5,0.5-1.2,0.5c-1,0-1.9-0.7-3.4-1.9c-1.4-1.2-1.9-2.2-1.9-2.9c0-0.2,0.5-1.4,1.7-3.4C214.9,3.9,215.6,3.2,215.8,3.2
		L215.8,3.2L215.8,3.2L215.8,3.2z"/>
	<path class="st0" d="M223.7,158.4c0,2.6-1.2,5.5-3.1,8.6c-2.2,3.1-4.8,6-8.2,8.4c-1.4,1-2.2,1.4-2.4,1.4v-0.2
		c0-0.2,0.5-0.7,1.4-1.9c5.5-6,8.4-9.8,8.4-12c0-1.7-1-2.6-2.6-2.6c-1,0-1.9,0.2-2.6,0.7c-0.7,0.2-1,0.5-1.2,0.5c0,0-0.2,0-0.2-0.2
		c0,0,0-0.5,0.2-1.4c1-4.1,2.9-6,6.2-6C222.3,153.6,223.7,155.3,223.7,158.4L223.7,158.4L223.7,158.4L223.7,158.4z"/>
	<path class="st0" d="M179.1,80.4c-4.8,4.3-11.3,6.7-19,6.7c-2.2,0-4.3-0.7-5.8-1.9c-1.4-1.2-2.2-2.9-2.2-4.8
		c0-3.4,1.2-6.7,4.1-10.1c2.9-3.1,5.8-6,8.4-9.1c0.7-0.5,0.5-1-0.5-1.4c-1.9-0.7-4.3-1-6.7-1c-1.2,0-2.6,0.2-4.3,1.2
		c-0.2,0-0.5,0.2-0.7,0c0,0,0-0.2,0.2-0.7c1-2.4,1.9-4.1,2.9-4.8c1.2-1,3.1-1.4,5.8-1.4c5.8,0,8.4,1.2,8.4,4.1c0,2.2-1.7,5-5.3,9.1
		c-2.6,2.6-5.3,5.3-7.9,7.9c-1,1.4-1.4,2.9-1.4,3.8c0,2.4,2.6,3.6,7.7,3.6c5,0,10.1-1,15.8-2.6c1.4-0.5,2.2-0.5,2.2-0.2
		C180.8,78.8,180.3,79.5,179.1,80.4L179.1,80.4L179.1,80.4L179.1,80.4z"/>
	<path class="st0" d="M25.3,135.6c0-0.2,0.2-0.5,0.2-0.5c0.2-0.2,0.2-0.2,0.2,0c0.2,0.2,0.2,0.5,0,0.7c-1.2,7.2-3.4,10.8-6.5,10.8
		s-4.6-2.6-4.6-7.9c0-6.5,1.7-13.4,5.5-20.4c1-1.7,1.4-2.6,1.7-2.6l0,0c0,0.2-0.2,1.2-0.7,2.9c-2.4,7.4-3.6,12.5-3.6,15.6
		c0,3.8,1,6,3.1,6C22.1,140.2,23.6,138.5,25.3,135.6L25.3,135.6L25.3,135.6L25.3,135.6z"/>
	<path class="st0" d="M79.5,109.2c2.9,0,5.3,1.4,7.4,4.8c2.2,3.1,3.8,7.4,4.6,12.7c0.2,0.5,0.2,0.7,0.2,1h0.2c0-0.2,0.2-0.5,0.2-1
		c0.5-3.1,1.7-7.9,3.4-14.2c1.9-4.3,3.8-6.5,6-6.5c1.2,0,2.4,0.7,3.4,2.2c1,1.4,1.4,2.4,1.4,3.4c0,0.5,0,1.4-0.5,2.4
		c-0.5,1.4-1,2.2-1.4,2.2c-0.2,0-0.7-0.7-1.7-1.7c-0.7-1-1.7-1.4-2.6-1.4c-1.9,0-3.6,4.6-5.3,13.7c-0.7,4.1-1.7,7-2.4,8.6
		c-0.7,1-1.2,1.7-1.7,1.7s-0.5-0.7-0.7-1.7c0.2-1.7-0.7-4.8-2.6-9.4c-1.9-4.8-3.1-7-4.1-7c-0.5,0-0.7,0-1,0.5
		c-0.2,0.2-0.5,0.5-1.2,0.5c-1,0-1.9-0.7-3.4-1.9c-1.4-1.2-1.9-2.2-1.9-2.9c0-0.2,0.5-1.4,1.7-3.4C78.5,110,79.3,109.2,79.5,109.2
		L79.5,109.2L79.5,109.2L79.5,109.2z"/>
	<path class="st0" d="M3.7,67.5c2.9,0,5.3,1.4,7.4,4.8c2.2,3.1,3.8,7.4,4.6,12.7c0.2,0.5,0.2,0.7,0.2,1h0.2c0-0.2,0.2-0.5,0.2-1
		c0.5-3.1,1.7-7.9,3.4-14.2c1.9-4.3,3.8-6.5,6-6.5c1.2,0,2.4,0.7,3.4,2.2c1,1.4,1.4,2.4,1.4,3.4c0,0.5,0,1.4-0.5,2.4
		c-0.5,1.4-1,2.2-1.4,2.2c-0.2,0-0.7-0.7-1.7-1.7c-0.7-1-1.7-1.4-2.6-1.4c-1.9,0-3.6,4.6-5.3,13.7c-0.7,4.1-1.7,7-2.4,8.6
		c-0.7,1-1.2,1.7-1.7,1.7s-0.5-0.7-0.7-1.7c0.2-1.7-0.7-4.8-2.6-9.4c-1.9-4.8-3.1-7-4.1-7c-0.5,0-0.7,0-1,0.5
		C6.3,78,6,78.3,5.3,78.3c-1,0-1.9-0.7-3.4-1.9C0.5,75.2,0,74.2,0,73.5c0-0.2,0.5-1.4,1.7-3.4C2.7,68.2,3.4,67.5,3.7,67.5L3.7,67.5
		L3.7,67.5L3.7,67.5z"/>
	<path class="st0" d="M396.5,110.2c1.2-1,2.2-1.4,2.9-1.4c0.5,0,0.7,0.5,0.7,1.4c0,0.7-0.2,2.2-0.7,4.1s-0.7,3.4-0.7,4.6
		c0,5.3,3.8,8.2,11.3,8.2c6,0,11-2.6,14.9-7.7c2.4-4.1,5-7.9,7.4-11.8c1-1,1.7-1.4,2.4-1.4c1,0,1.2,1,0.7,3.1c-1,4.1-1.7,6-1.7,5.5
		c0,1.7,1,3.4,2.9,4.8c1.7,1.4,4.1,2.4,6.7,2.4c3.4,0,5.5-1,6.5-2.6c0-0.2-1-2.2-3.1-5.8c0.2-1.9,1.2-5.3,2.6-9.8
		c0.2-1.4,0.7-2.2,1.2-2.2s1,0.2,1.7,1.2c1.9,2.9,3.1,6.2,3.1,10.1c0,6-1.4,11-4.1,15.4c-2.9,5.3-7.2,7.9-13,7.9
		c-3.8,0-7.4-3.1-10.6-8.9c-5.1,9.5-12.1,14.3-20.5,14.3c-10.1,0-14.9-5.8-14.9-16.8c-3.8,4.6-10.3,8.6-18.7,12.5v-13.2
		c6.2-3.1,10.3-5,11.5-5.8C388.9,116.4,392.7,113.6,396.5,110.2L396.5,110.2L396.5,110.2L396.5,110.2z"/>
	<path class="st0" d="M359.8,126c-3.6-4.6-6.7-6.7-9.6-6.7c-4.3,0-6.2,1-6.2,3.4c0,2.9,2.9,4.3,8.6,4.3
		C354.8,127,357.2,126.5,359.8,126L359.8,126L359.8,126L359.8,126z M367.3,143.6c0-1.4-0.5-3.1-1-4.8c-2.9,1-7.2,1.7-12.5,1.7
		c-11.5,0-17.3-4.1-17.3-12c0-6,1.7-11.3,5.5-16.1c3.6-4.1,7.4-6.2,11.5-6.2c3.1,0,6.2,1.9,9.8,5.5c3.1,3.6,6,7.7,8.4,12.7
		c0.2,0,0.7,0,1.7-0.5v13.2l-0.5,0.5c0,2.9-0.7,6.2-2.2,10.6c-1.7,5.5-4.3,10.1-7.4,13.7c-7.2,8.6-15.1,16.1-23.8,22.6
		c-13,9.6-24,14.6-33.6,14.6c-8.2,0-14.4-3.1-18.7-9.1c-3.8-5-5.8-11.8-5.8-19.7c0-10.1,2.2-20.4,6.2-31.2c1.2-2.4,1.7-3.4,2.2-3.4
		c0.2,0,0.2,0.2,0.2,0.7c0,0.7-0.2,1.9-0.5,3.4c-3.1,10.6-4.6,18.5-4.6,24c0,5,1.2,9.4,3.6,13c3.8,5,9.8,7.7,18.2,7.7
		c7.2,0,15.8-3.1,26.2-9.4c8.2-5,16.1-11,23.8-18.2C363.7,150,367.3,145.7,367.3,143.6L367.3,143.6L367.3,143.6L367.3,143.6z"/>
	<path class="st0" d="M301.7,107.3c-0.5-2.2-1.2-3.8-2.2-5c-0.7-1.4-1.2-2.2-1.4-2.6c0-0.5,0-2.2,0.5-5.5c0.5-3.1,0.7-5.3,1.2-6.5
		c0.2-1.2,0.5-1.7,1-1.7c0.2,0,0.5,0.2,1,0.7c3.4,3.8,7,7.7,11,11.8c1.7,1.7,2.4,2.6,2.4,3.1c0,0.2-0.2,0.5-0.7,0.5
		c-0.7,0-2.6-0.5-5.5-1.2c1.7,4.1,3.6,8.2,5.3,12c2.6,6.7,4.1,12.2,4.1,17.3c0,2.4-0.5,5.3-1.4,8.9c-1.2,4.1-2.6,7.2-4.6,9.4
		c-7,7.9-18.7,16.6-35.3,25.9c-14.4,8.4-22.8,12.5-25.4,12.5c-0.5,0-7.7,1.7-21.4,5c-14.4,3.4-23.5,5.5-27.1,6c-3.8,0.7-6.2,1-7.2,1
		c-0.5,0-0.5,0-0.5-0.2s2.6-1.7,7.9-4.1c1.9-1,13-5.8,33.4-14.4c14.2-6,25.9-11.5,35.3-16.6c14.2-7.7,25-14.4,32.4-19.9
		c5.5-4.3,8.4-7.4,8.4-9.4c0-0.5-1.4-3.8-4.3-10.1C305.3,117.2,302.9,111.4,301.7,107.3L301.7,107.3L301.7,107.3L301.7,107.3z"/>
	<path class="st0" d="M282.1,74c0,3.8-1.9,9.1-5.8,15.6c-2.4,4.1-6,9.6-10.8,16.8c4.8,5.5,8.2,10.6,9.8,14.9c1,3.1,1.7,7.2,1.7,11.8
		c0,1.9-0.5,4.3-1.4,7.4c-0.7,2.9-1.7,5-2.6,6.5c-1.9,2.9-5,5.8-9.8,8.6c-5,3.4-9.4,5-13,5c-5.8,0-8.6-4.3-8.6-13
		c0-5.8,1-11.5,2.9-16.8c1.9-4.6,5-10.6,10.1-18.5c-4.3-4.1-8.9-9.8-13.9-17c-0.5-0.7-1.7-1.9-3.6-3.8c-1-1-1.4-2.2-1.4-3.6
		c0-2.2,0.2-4.6,0.7-7.4c0.7-2.9,1.2-4.1,1.4-4.1c0.7,0,2.9,1.2,7,3.8c3.8,2.6,7,4.6,8.9,6.2c1.2,0.7,1.7,1.4,1.7,1.4V88
		c0,0.2-0.7,0.5-2.4,0.5c-3.1,0-4.8,0.2-4.8,0.5c0,0.2,0.5,0.7,1.4,1.9c3.8,4.8,7.7,8.4,11.8,11.3c1-1.4,4.3-6.2,9.6-14.4
		c4.6-7,7.2-11.8,8.4-14.6c1.2-2.9,1.9-4.1,2.4-4.1C281.8,69.2,282.1,70.6,282.1,74L282.1,74L282.1,74L282.1,74z M272.7,133
		c-2.6-5.3-7.2-10.8-13.4-16.1c-2.2,2.2-4.8,6.2-8.2,12c-3.8,6.5-5.5,10.6-5.5,12.7c0,2.9,1.9,4.3,6.2,4.3c1.9,0,4.3-0.7,7.4-1.9
		c4.3-1.9,8.4-4.6,11.8-7.9C272.5,134.7,272.9,133.7,272.7,133L272.7,133L272.7,133L272.7,133z"/>
	<path class="st0" d="M259.3,55.7l3.8-7.9c0.2-0.5,0.5-0.7,1-0.7s2.4,1.2,6.2,3.8c3.6,2.4,5.5,3.8,5.5,4.3c0,1.7-1.7,5.3-4.8,10.6
		c-0.5,0.7-1,0.7-1.4,0.5c-3.1-2.4-6.7-4.8-10.8-7.4c-1.4,2.9-2.6,5.5-4.1,7.7c-0.2,0.7-0.7,1-1.2,0.7c-3.6-2.9-7.4-5.5-11.3-7.9
		c-0.2-0.2-0.2-0.5,0-1l4.6-9.6c0.2-0.5,0.7-1,1-1c0.5,0,2.2,1.2,5.3,3.4C256.1,53.1,258.3,54.8,259.3,55.7L259.3,55.7L259.3,55.7
		L259.3,55.7z"/>
	<path class="st0" d="M385.7,189.6c-2.6,0.7-4.1,1.2-4.6,1.2v-0.2c0,0,1-0.7,2.9-1.9c1.9-1.2,4.8-3.1,8.9-6.2c1.9-1.9,4.8-5,8.4-9.4
		c2.4-2.9,5-5.5,7.9-7.4c3.6-2.6,7-3.8,10.6-3.8c0.7,0,1.9,0.2,3.4,0.7c1.2,0.5,2.4,0.7,3.4,0.7c1.9,0,3.4-0.7,4.6-2.2
		c0.7-1.4,1.7-2.6,2.6-4.1c0.5-1,1.2-1.4,1.7-1.4c0.2,0,0.2,0.2,0.2,0.7s-0.2,1.7-0.7,3.1c-0.5,0.7,1.4,1,5,1c0.5,0,0.7,0,0.7-0.2
		c0,0-0.2-1-0.7-2.6c-0.2-0.5,0-1.2,0.7-2.2c1-1.7,1.4-2.4,1.7-2.2c1,0.7,1.4,2.2,1.4,3.8c0,1.7-0.5,3.4-1.2,5.3
		c-0.7,2.2-1.4,3.4-1.9,3.8c-1.7,1-4.3,0.7-7.9-1c-2.9,2.9-5.8,4.6-8.6,4.6c-0.7,0-1.9-0.2-3.1-0.7c-1.2-0.5-2.2-0.7-2.9-0.7
		c-4.8,0-9.8,2.2-14.9,7c-3.6,3.6-7.2,7.2-10.8,10.8C390.3,187.7,388.1,188.9,385.7,189.6L385.7,189.6L385.7,189.6L385.7,189.6z"/>
	<path class="st0" d="M334.1,60c2.9,0,5.3,1.4,7.4,4.8c2.2,3.1,3.8,7.4,4.6,12.7c0.2,0.5,0.2,0.7,0.2,1h0.2c0-0.2,0.2-0.5,0.2-1
		c0.5-3.1,1.7-7.9,3.4-14.2c1.9-4.3,3.8-6.5,6-6.5c1.2,0,2.4,0.7,3.4,2.2c1,1.4,1.4,2.4,1.4,3.4c0,0.5,0,1.4-0.5,2.4
		c-0.5,1.4-1,2.2-1.4,2.2c-0.2,0-0.7-0.7-1.7-1.7c-0.7-1-1.7-1.4-2.6-1.4c-1.9,0-3.6,4.6-5.3,13.7c-0.7,4.1-1.7,7-2.4,8.6
		c-0.7,1-1.2,1.7-1.7,1.7s-0.5-0.7-0.7-1.7c0.2-1.7-0.7-4.8-2.6-9.4c-1.9-4.8-3.1-7-4.1-7c-0.5,0-0.7,0-1,0.5
		c-0.2,0.2-0.5,0.5-1.2,0.5c-1,0-1.9-0.7-3.4-1.9c-1.4-1.2-1.9-2.2-1.9-2.9c0-0.2,0.5-1.4,1.7-3.4C333.2,60.8,333.9,60,334.1,60
		L334.1,60L334.1,60L334.1,60z"/>
	<path class="st0" d="M293.6,56.9c24.2-9.1,49.4-18.2,75.4-27.8c0.7-0.2,1.2-0.5,1.2-0.2c0.2,0,0.2,0.5,0,1.2
		c-1,2.2-1.7,3.4-2.2,3.8c-0.2,0.2-12.5,4.8-36.2,13.7c-24.2,8.9-37.9,14.4-40.6,16.1C291.7,61.5,292.4,59.3,293.6,56.9L293.6,56.9
		L293.6,56.9L293.6,56.9z"/>
	<path class="st0" d="M270.1,13c0.5-1.4,0.5-2.9,0.2-4.3c-0.2-1.4-1-2.2-2.2-2.2c-0.5,0-1.2,0.2-2.2,0.7s-1.4,1-1.4,1.4
		C264.5,9.9,266.5,11.3,270.1,13L270.1,13L270.1,13L270.1,13z M267.2,19.2c-4.6-2.4-6.7-4.8-6.7-7.4c0-3.1,1.4-6,4.3-8.4
		c2.9-2.6,5.3-3.6,7.2-2.9c1.7,0.5,2.4,2.2,2.4,5c0,2.6-0.5,5.5-1.7,8.9c2.4,1.2,3.8,2.4,4.3,3.4c0,1.2-1,3.4-3.1,6.2
		c-0.5-1-1.9-2.2-4.1-3.4c-2.6,3.6-5.8,6.7-9.6,9.6c-4.6,3.1-8.6,5.8-12.2,7.2c-1,0.5-5.3,2.2-13,5c-1.2,0.5-2.2,0.7-2.4,0.7
		s-0.2-0.2-0.2-0.2c0-0.2,0.5-1,1.9-1.7c5.8-3.6,11.5-7,17.5-10.3C258.8,26.7,263.8,22.8,267.2,19.2L267.2,19.2L267.2,19.2
		L267.2,19.2z"/>
	<path class="st0" d="M418.9,49.2c0.5-1.4,0.5-2.9,0.2-4.3c-0.2-1.4-1-2.2-2.2-2.2c-0.5,0-1.2,0.2-2.2,0.7s-1.4,1-1.4,1.4
		C413.3,46.1,415.3,47.6,418.9,49.2L418.9,49.2L418.9,49.2L418.9,49.2z M424.1,58.1c-2.4,5.8-3.6,10.3-3.6,13.7c0,4.1,1,6.2,3.1,6.2
		c1.2,0,2.6-1.7,4.3-4.6c0.2-0.2,0.2-0.5,0.5-0.7c0,0,0.2,0,0.2,0.2c0,0,0,0.2,0,0.7c-1.4,7.2-3.6,10.8-6.5,10.8
		c-3.1,0-4.6-2.6-4.6-7.9c0-2.6,0.5-6,1.9-10.3s2.2-6.5,2.2-6.7c0-0.5-1-1.4-3.1-2.6c-3.8,5-9.1,9.8-15.8,13.9
		c-4.6,2.6-9.1,5-13.9,7c-8.9,3.6-14.2,5.5-15.4,6.2c-1.2,0.5-1.9,0.7-2.4,0.7c-0.2,0-0.2-0.2-0.2-0.2c0-0.5,0.5-1,1.9-1.9
		c7.7-4.3,15.1-8.6,22.8-13c10.1-5.8,17-10.6,20.4-14.2c-4.6-2.4-6.7-4.8-6.7-7.4c0-3.1,1.4-6,4.3-8.6c2.9-2.4,5.3-3.4,7.2-2.6
		c1.4,0.5,2.4,2.2,2.4,5c0,2.6-0.5,5.5-1.7,8.6c2.4,1.4,3.4,2.9,3.4,4.3C424.9,55.5,424.6,56.7,424.1,58.1L424.1,58.1L424.1,58.1
		L424.1,58.1z"/>
	<path class="st0" d="M314.9,23.3c0-0.2,0.2-0.5,0.2-0.5c0.2-0.2,0.2-0.2,0.2,0c0.2,0.2,0.2,0.5,0,0.7c-1.2,7.2-3.4,10.8-6.5,10.8
		c-3.1,0-4.6-2.6-4.6-7.9c0-6.5,1.7-13.4,5.5-20.4c1-1.7,1.4-2.6,1.7-2.6l0,0c0,0.2-0.2,1.2-0.7,2.9c-2.4,7.4-3.6,12.5-3.6,15.6
		c0,3.8,1,6,3.1,6C311.8,27.9,313.3,26.2,314.9,23.3L314.9,23.3L314.9,23.3L314.9,23.3z"/>
</g>
</svg>
