<?xml version="1.0" encoding="utf-8"?>
<!-- Generator: Adobe Illustrator 24.0.0, SVG Export Plug-In . SVG Version: 6.00 Build 0)  -->
<svg version="1.1" id="Layer_1" xmlns="http://www.w3.org/2000/svg" xmlns:xlink="http://www.w3.org/1999/xlink" x="0px" y="0px"
	 viewBox="0 0 557.6 224.2" style="enable-background:new 0 0 557.6 224.2;" xml:space="preserve">
<style type="text/css">
	.st0{fill:#C4692C;}
</style>
<g>
	<path class="st0" d="M313.6,36.5c0-4.8-0.7-8.6-2.2-11.8c0-1.7,1.2-5.8,4.1-12c0.2-0.7,0.5-1.2,0.7-1.2c0.5,0,0.7,0.5,1.2,1.2
		c0.7,1.7,2.4,6.2,5.3,13.7c3.1,7.9,4.8,12.7,5.3,14.6c0.5,1.2,0.5,2.4,0.5,2.9c0,2.2-1.9,1-6.2-3.8c-0.5-0.7-0.7-0.2-0.7,1
		c0,0.5,1.2,15.4,3.4,45.1c2.2,29.5,3.1,46.1,3.1,49.9c0,11.3-1.7,21.4-5,30c-1,1.7-1.4,2.9-1.9,3.8l0,0c-0.7,1.2-1,1.2-1.2,0.5
		c-0.2-1,0-2.9,0.2-5.5c0.5-4.1,0.7-8.6,0.7-13.7c0-4.8-1.2-24-3.6-57.8C314.8,59.5,313.6,40.5,313.6,36.5L313.6,36.5L313.6,36.5
		L313.6,36.5z"/>
	<path class="st0" d="M306.1,94.5c0,14.2-2.6,25.2-7.7,33.4c-4.3,6.7-9.4,10.3-15.1,10.3v-14.6c4.6,0,9.1-1.9,13.4-5.5
		c1.2-1,1.9-5,1.9-11.8c0-4.3-1-18-2.6-40.8c-1.7-23-2.4-36.7-2.4-40.8c0-4.6-1-8.4-2.4-11.5c0-1.7,1.4-5.8,4.3-12.2
		c0.2-0.7,0.5-1,0.7-1c0.5,0,0.7,0.2,1.2,1c0.7,1.9,2.6,6.5,5.3,13.9c3.1,7.7,4.8,12.5,5.5,14.4c0.2,1.4,0.5,2.4,0.5,3.1
		c0,2.2-2.2,0.7-6.2-4.1c-0.5-0.5-0.7-0.2-0.7,1c0,0.2,0.7,10.1,2.2,29.3C305.4,77.5,306.1,89.5,306.1,94.5L306.1,94.5L306.1,94.5
		L306.1,94.5z"/>
	<path class="st0" d="M233.2,128.1c-5.3,9.4-12,14.2-20.6,14.2c-3.4,0-6.2-1.2-8.4-3.4c-1.4-1.4-2.6-3.6-3.8-6.2
		c-0.7-2.2-1.4-3.4-1.7-3.4c-1,0-3.8,1-8.9,3.1c-5,1.9-8.9,3.8-11.5,5.3v-13.2l25.7-11c0.7-0.2,1.2-0.2,1.7-0.2c0.7,0,1,0.5,1,1.4
		c0,0.7-0.2,1.7-0.5,3.1c-0.5,1.4-0.7,2.6-0.7,3.6c0,4.6,3.1,6.7,9.4,6.7c6,0,11-2.6,15.4-7.9c2.6-3.8,5.3-7.9,7.9-11.8
		c0.7-1,1.4-1.4,2.2-1.4c0.7,0,1,0.5,1,1.4c0,0.5,0,1-0.2,1.7c-1,4.1-1.4,6-1.4,5.5c0,1.7,0.7,3.6,2.2,5.8c1.9,2.9,4.3,4.3,7.4,4.3
		c7.4,0,14.2-5.8,19.9-17.5c0.7-1.4,1.7-2.2,2.4-2.2c1,0,1.2,0.5,1.2,1.7c0,0.5,0,1.2-0.2,2.2c0,1-0.2,1.7-0.2,2.2
		c0,3.4,1.2,6.2,3.1,8.2c2.2,2.2,4.8,3.1,8.2,3.1V138c-7.4,0-12.7-4.6-15.8-13.9c-0.5-1.2-1-1.2-1.4,0
		c-4.1,10.8-10.1,16.3-17.8,16.3C240.8,140.4,235.8,136.3,233.2,128.1L233.2,128.1L233.2,128.1L233.2,128.1z"/>
	<path class="st0" d="M180.1,161.7c0,1.2-3.1,3.8-8.9,8.2c-7.9,5.8-18.2,12-31,19c-9.6,5-21.4,10.6-35.5,16.6
		c-20.4,8.6-31.4,13.4-33.4,14.4c-4.6,1.9-7,3.4-7.7,3.8l0,0c-0.5,0.2-0.5,0.5,0,0.5s1.2,0,2.4-0.2c1.2,0,2.9-0.2,5-0.7
		c3.8-0.5,12.7-2.6,27.4-6c13.7-3.4,20.6-5,21.1-5c2.6,0,11-4.1,25.4-12.5c16.6-9.4,28.3-18,35.3-25.9c1.9-2.2,3.4-5.3,4.6-9.4
		c1-3.6,1.4-6.5,1.4-8.9c0-1.9-1.4-5.3-4.1-10.3c-2.6-4.8-3.8-7.4-3.8-7.7v-13.3c-3.1,1.4-5.5,4.1-7,8.2c-1.4,3.1-1.9,6-1.9,8.9
		c0,0.7,0.2,1.7,1.2,3.1c1.7,2.9,3.4,6,5.3,8.9C178.7,157.9,180.1,160.8,180.1,161.7L180.1,161.7L180.1,161.7L180.1,161.7z"/>
	<path class="st0" d="M94.2,65.5c1.2-0.5,1.9-0.7,1.9-1c0-0.2-1-0.5-3.1-0.7c-13.2-1.9-28.3-2.9-45.4-2.9c-8.6,0-13.9,0.5-16.3,1.2
		c-1,0.2-1.4,0.5-1.4,0.7s0.7,1,2.2,2.2c3.8,3.1,7.9,6.2,12,9.4c7,5.8,11.5,9.6,13,11.5C70,77,82.2,70.3,94.2,65.5L94.2,65.5
		L94.2,65.5L94.2,65.5z M126.4,144.9c0-4.1-1.2-7.7-4.1-11.3c-3.1-3.8-7.4-6.7-12.7-8.2c-4.6-1.2-12.2-2.2-23-2.4
		c-11.3-0.2-19-1-23-1.9c-7.7-1.7-15.1-4.6-22.6-8.6c-2.6,3.6-5,7.9-7.2,13.4c-2.9,7.7-4.6,15.1-4.6,22.3
		c0,23.8,13.4,35.8,40.1,35.8c9.1,0,18.2-2.4,27.4-7.2c8.4-4.1,15.6-9.4,21.4-15.6C123.5,155,126.4,149.5,126.4,144.9L126.4,144.9
		L126.4,144.9L126.4,144.9z M115.6,67.4C93,77,74.6,86.1,60.2,94.5c0,5.5-0.5,8.2-1.7,8.2c-0.7,0-2.2-1.4-3.8-4.8
		c-3.4,2.9-6.5,6-9.6,9.4c8.6,1.2,23,2.2,43.2,2.9c14.4,0.5,23.8,1.7,27.8,3.4c4.1,1.9,7.4,4.6,9.8,8.6c2.9,4.6,4.3,9.6,4.3,15.6
		c0,15.6-6.5,29.8-19.9,42.5c-13,12.2-27.4,18.5-43.2,18.5c-28.6,0-42.7-15.6-42.7-47.3c0-14.4,3.6-28.3,11-41.8
		c-2.4-1.4-3.6-2.4-3.6-3.1c0-0.5,0.7-0.7,1.9-0.7c1,0,2.2,0.2,3.8,0.5c2.2-3.6,5.8-8.2,11.3-13.9c-3.4-3.1-8.2-7.2-14.6-12.2
		c-4.8-3.4-7.9-6.5-9.6-9.4c-1-1.7-1.4-3.8-1.4-6.2c0-4.3,1.7-8.2,5-11.3c4.1-3.8,9.8-5.8,17.5-5.8c8.6,0,22.6,0.7,41.8,2.4
		c17.3,1.2,27.8,2.4,31.9,2.9c1.7,0.2,2.2,1.2,1.9,2.4l-3.1,9.4C117.7,66,116.8,66.9,115.6,67.4L115.6,67.4L115.6,67.4L115.6,67.4z"
		/>
	<path class="st0" d="M233.9,85.7l3.8-7.7c0.2-0.7,0.5-1,1-1s2.4,1.2,6.2,3.8c3.6,2.6,5.5,4.1,5.5,4.6c0,1.7-1.7,5-4.8,10.3
		c-0.5,0.7-1,0.7-1.4,0.5c-3.1-2.4-6.7-4.8-10.8-7.4c-1.4,2.9-2.6,5.5-4.1,7.7c-0.2,0.7-0.7,1-1.2,0.7c-3.6-2.9-7.4-5.5-11.3-7.9
		c-0.2-0.2-0.2-0.5,0-1l4.6-9.6c0.2-0.5,0.7-1,1-1c0.5,0,2.2,1.2,5.3,3.4C230.8,83,232.9,84.7,233.9,85.7L233.9,85.7L233.9,85.7
		L233.9,85.7z M220.7,70.8c-0.2-0.2-0.2-0.5,0-1l4.8-9.6c0.2-0.5,0.5-0.7,1-0.7s2.4,1.2,6.2,3.6c3.6,2.6,5.5,4.1,5.5,4.6
		c0,1.7-1.7,5-4.8,10.3c-0.5,0.7-1,1-1.4,0.5C228.4,75.8,224.5,73.2,220.7,70.8L220.7,70.8L220.7,70.8L220.7,70.8z"/>
	<path class="st0" d="M232.9,38.9c0,1.9-0.5,4.1-1.4,6c-1.2,2.6-2.6,4.1-4.3,4.1c-2.9,0-4.8-1.9-6-5.8c-1.4,4.8-3.8,7.4-7.4,7.4
		c-1.2,0-2.4-0.7-3.4-2.2c-1.2-1.4-1.7-3.6-1.7-6v-6.2c0-0.5-0.5-0.7-1-1c-0.7-0.2-1-0.7-1-1.4c0-1.4,0.5-2.6,1.4-3.8
		c1-1.2,1.7-1.7,2.2-1.7c0.7,0,1.2,1.2,1.2,3.8c0,1.4-0.2,2.6-0.2,3.6c-0.2,1-0.2,1.7-0.2,2.4c0,1.4,0.2,2.9,0.7,4.1
		c0.7,1.4,1.7,2.4,2.6,2.4c1.4,0,2.6-0.7,3.8-1.9c1.2-1.2,1.9-2.6,1.9-4.3c0-1-0.5-2.4-1-4.8c-0.7-2.2-1-3.6-1-4.1s0.2-1.2,0.7-2.4
		c0.5-1,1-1.4,1.2-1.4c0.5,0,1,1.4,1.7,4.3c0.7,3.1,1.2,5.3,1.2,6.7c0,4.1,1.4,6.2,4.6,6.2c1.4,0,2.4-0.7,2.6-2.2
		c-2.6-4.8-4.1-8.4-4.1-11c0-1.4,0.2-2.6,1.2-3.8c0.5-0.7,0.7-1.2,1-1.2c0.2,0,0.5,0.5,0.5,1.4c0.2,1.2,0.5,2.4,0.7,3.4
		c0,0,0.7,1.7,1.9,5C232.4,36.5,232.9,37.9,232.9,38.9L232.9,38.9L232.9,38.9L232.9,38.9z"/>
	<path class="st0" d="M154,35.3c24.2-9.1,49.4-18.2,75.4-27.8c0.7-0.2,1.2-0.5,1.2-0.2c0.2,0,0.2,0.5,0,1.2c-1,2.2-1.7,3.4-2.2,3.8
		c-0.2,0.2-12.5,4.8-36.2,13.7c-24.2,8.9-37.9,14.4-40.6,16.1C152,39.8,152.8,37.7,154,35.3L154,35.3L154,35.3L154,35.3z"/>
	<path class="st0" d="M271.1,46.5c0-0.2,0.2-0.5,0.2-0.5c0.2-0.2,0.2-0.2,0.2,0c0.2,0.2,0.2,0.5,0,0.7c-1.2,7.2-3.4,10.8-6.5,10.8
		s-4.6-2.6-4.6-7.9c0-6.5,1.7-13.4,5.5-20.4c1-1.7,1.4-2.6,1.7-2.6l0,0c0,0.2-0.2,1.2-0.7,2.9c-2.4,7.4-3.6,12.5-3.6,15.6
		c0,3.8,1,6,3.1,6C268,51.1,269.4,49.4,271.1,46.5L271.1,46.5L271.1,46.5L271.1,46.5z"/>
	<path class="st0" d="M185.2,82.1c0-1.2-2.4-3.4-7.4-6.2c-1.7,2.9-2.4,5.5-2.4,7.9c0,1.4,0.7,2.4,2.2,2.4c1.2,0,2.6-0.5,4.3-1.4
		C183.5,84,184.7,83,185.2,82.1L185.2,82.1L185.2,82.1L185.2,82.1z M179.9,62.9c0.7-1.2,1.7-1.7,2.4-1.7c0.5,0,1,0.2,1,0.7
		c0,0-0.2,0.2-0.2,0.5c-1,2.2-1.9,4.6-2.6,7c5,3.6,7.4,7.4,7.2,11c-0.5,4.1-1,6.7-1.7,7.7c-2.4,2.9-5,4.6-8.4,4.6s-4.8-2.2-4.8-6
		c0-0.7,0-1.7,0.2-2.6C174.1,76.3,176.5,69.3,179.9,62.9L179.9,62.9L179.9,62.9L179.9,62.9z"/>
	<path class="st0" d="M52.2,152.4c13.7-4.8,28.1-10.1,43.2-15.6c1-0.2,1.2-0.5,1.4-0.2c0.2,0,0.2,0.5-0.2,1.2
		c-0.7,2.2-1.4,3.4-1.9,3.8c-13,4.6-27.8,10.3-44.9,17.5C50.3,156.9,51,154.8,52.2,152.4L52.2,152.4L52.2,152.4L52.2,152.4z"/>
	<path class="st0" d="M10.7,118.5c0-0.2,0.2-0.5,0.2-0.5c0.2-0.2,0.2-0.2,0.2,0c0.2,0.2,0.2,0.5,0,0.7c-1.2,7.2-3.4,10.8-6.5,10.8
		S0,126.9,0,121.6c0-6.5,1.7-13.4,5.5-20.4c1-1.7,1.4-2.6,1.7-2.6l0,0c0,0.2-0.2,1.2-0.7,2.9c-2.4,7.4-3.6,12.5-3.6,15.6
		c0,3.8,1,6,3.1,6C7.6,123.1,9,121.4,10.7,118.5L10.7,118.5L10.7,118.5L10.7,118.5z"/>
	<path class="st0" d="M125.6,85.2c2.9,0,5.3,1.4,7.4,4.8c2.2,3.1,3.8,7.4,4.6,12.7c0.2,0.5,0.2,0.7,0.2,1h0.2c0-0.2,0.2-0.5,0.2-1
		c0.5-3.1,1.7-7.9,3.4-14.2c1.9-4.3,3.8-6.5,6-6.5c1.2,0,2.4,0.7,3.4,2.2c1,1.4,1.4,2.4,1.4,3.4c0,0.5,0,1.4-0.5,2.4
		c-0.5,1.4-1,2.2-1.4,2.2c-0.2,0-0.7-0.7-1.7-1.7c-0.7-1-1.7-1.4-2.6-1.4c-1.9,0-3.6,4.6-5.3,13.7c-0.7,4.1-1.7,7-2.4,8.6
		c-0.7,1-1.2,1.7-1.7,1.7s-0.5-0.7-0.7-1.7c0.2-1.7-0.7-4.8-2.6-9.4c-1.9-4.8-3.1-7-4.1-7c-0.5,0-0.7,0-1,0.5
		c-0.2,0.2-0.5,0.5-1.2,0.5c-1,0-1.9-0.7-3.4-1.9c-1.4-1.2-1.9-2.2-1.9-2.9c0-0.2,0.5-1.4,1.7-3.4C124.7,85.9,125.4,85.2,125.6,85.2
		L125.6,85.2L125.6,85.2L125.6,85.2z"/>
	<path class="st0" d="M243,182.4c0,0.5-0.2,1.4-0.5,2.4c-0.5,1.4-1,2.2-1.7,2.2c-0.2,0-0.7-0.7-1.7-1.7c-0.7-1-1.7-1.4-2.4-1.4
		c-1.9,0-3.8,4.6-5.5,13.7c-0.7,4.1-1.4,6.7-2.4,8.4c-0.7,1.2-1.2,1.7-1.7,1.7c-0.2,0-0.5-0.5-0.5-1.4c0-1.7-1-4.8-2.9-9.4
		c-1.7-4.8-3.1-7-3.8-7c-0.5,0-1,0-1,0.5c-0.2,0.2-0.7,0.5-1.4,0.5c-1,0-2.2-0.7-3.6-1.9c-1.4-1.4-1.9-2.4-1.7-2.9
		c2.2-4.1,3.4-6,3.8-6c2.6,0,5.3,1.4,7.4,4.8c2.2,3.1,3.6,7.4,4.6,12.5c0,0.7,0,1,0,1c0.2,0.2,0.2,0.2,0.2,0c0,0,0.2-0.2,0.5-1
		c0.5-2.9,1.4-7.7,3.1-13.9c1.9-4.3,3.8-6.5,6.2-6.5c1,0,2.2,0.7,3.4,2.2C242.5,180.5,243,181.4,243,182.4L243,182.4L243,182.4
		L243,182.4z M212.3,186c0.5-1,1-1.4,1.2-1.4c0,0,0.2,0.2,0,0.2c0.2,0.7-0.5,2.4-1.9,5c-2.4,4.6-5.8,8.2-10.1,11.3
		c-4.6,3.4-8.6,5.8-12.2,7.4c-0.7,0.5-5,2.2-13,5c-1.2,0.5-1.9,0.7-2.4,0.7c-0.2,0-0.2-0.2-0.2-0.2c0-0.2,0.7-1,1.9-1.7
		c6.7-3.6,15.8-9.4,27.6-17.3C208,191.5,210.8,188.4,212.3,186L212.3,186L212.3,186L212.3,186z"/>
	<path class="st0" d="M268.2,170.9c0-0.2,0.2-0.5,0.2-0.5c0.2-0.2,0.2-0.2,0.2,0c0.2,0.2,0.2,0.5,0,0.7c-1.2,7.2-3.4,10.8-6.5,10.8
		s-4.6-2.6-4.6-7.9c0-6.5,1.7-13.4,5.5-20.4c1-1.7,1.4-2.6,1.7-2.6l0,0c0,0.2-0.2,1.2-0.7,2.9c-2.4,7.4-3.6,12.5-3.6,15.6
		c0,3.8,1,6,3.1,6C265.1,175.4,266.5,173.7,268.2,170.9L268.2,170.9L268.2,170.9L268.2,170.9z"/>
	<path class="st0" d="M302,184.1c0,2.6-1.2,5.5-3.1,8.6c-2.2,3.1-4.8,6-8.2,8.4c-1.4,1-2.2,1.4-2.4,1.4v-0.2c0-0.2,0.5-0.7,1.4-1.9
		c5.5-6,8.4-9.8,8.4-12c0-1.7-1-2.6-2.6-2.6c-1,0-1.9,0.2-2.6,0.7c-0.7,0.2-1,0.5-1.2,0.5c0,0-0.2,0-0.2-0.2c0,0,0-0.5,0.2-1.4
		c1-4.1,2.9-6,6.2-6C300.6,179.3,302,180.9,302,184.1L302,184.1L302,184.1L302,184.1z"/>
	<path class="st0" d="M152.8,150.9c0,2.6-1.2,5.5-3.1,8.6c-2.2,3.1-4.8,6-8.2,8.4c-1.4,1-2.2,1.4-2.4,1.4v-0.2
		c0-0.2,0.5-0.7,1.4-1.9c5.5-6,8.4-9.8,8.4-12c0-1.7-1-2.6-2.6-2.6c-1,0-1.9,0.2-2.6,0.7c-0.7,0.2-1,0.5-1.2,0.5c0,0-0.2,0-0.2-0.2
		c0,0,0-0.5,0.2-1.4c1-4.1,2.9-6,6.2-6C151.3,146.1,152.8,147.8,152.8,150.9L152.8,150.9L152.8,150.9L152.8,150.9z"/>
	<path class="st0" d="M132.4,30.2c0-0.2,0.2-0.5,0.2-0.5c0.2-0.2,0.2-0.2,0.2,0c0.2,0.2,0.2,0.5,0,0.7c-1.2,7.2-3.4,10.8-6.5,10.8
		c-3.1,0-4.6-2.6-4.6-7.9c0-6.5,1.7-13.4,5.5-20.4c1-1.7,1.4-2.6,1.7-2.6l0,0c0,0.2-0.2,1.2-0.7,2.9c-2.4,7.4-3.6,12.5-3.6,15.6
		c0,3.8,1,6,3.1,6C129.2,34.8,130.7,33.1,132.4,30.2L132.4,30.2L132.4,30.2L132.4,30.2z"/>
	<path class="st0" d="M498.8,121.9c1.2-1,2.2-1.4,2.9-1.4c0.5,0,0.7,0.5,0.7,1.4c0,0.7-0.2,2.2-0.7,4.1s-0.7,3.4-0.7,4.6
		c0,5.3,3.8,8.2,11.3,8.2c6,0,11-2.6,14.9-7.7c2.4-4.1,5-7.9,7.4-11.8c1-1,1.7-1.4,2.4-1.4c1,0,1.2,1,0.7,3.1c-1,4.1-1.7,6-1.7,5.5
		c0,1.7,1,3.4,2.9,4.8c1.7,1.4,4.1,2.4,6.7,2.4c3.4,0,5.5-1,6.5-2.6c0-0.2-1-2.2-3.1-5.8c0.2-1.9,1.2-5.3,2.6-9.8
		c0.2-1.4,0.7-2.2,1.2-2.2s1,0.2,1.7,1.2c1.9,2.9,3.1,6.2,3.1,10.1c0,6-1.4,11-4.1,15.4c-2.9,5.3-7.2,7.9-13,7.9
		c-3.8,0-7.4-3.1-10.6-8.9c-5.1,9.5-12.1,14.3-20.5,14.3c-10.1,0-14.9-5.8-14.9-16.8c-3.8,4.6-10.3,8.6-18.7,12.5v-13.2
		c6.2-3.1,10.3-5,11.5-5.8C491.2,128.1,495,125.3,498.8,121.9L498.8,121.9L498.8,121.9L498.8,121.9z"/>
	<path class="st0" d="M462.1,137.7c-3.6-4.6-6.7-6.7-9.6-6.7c-4.3,0-6.2,1-6.2,3.4c0,2.9,2.9,4.3,8.6,4.3
		C457.1,138.7,459.5,138.2,462.1,137.7L462.1,137.7L462.1,137.7L462.1,137.7z M469.6,155.3c0-1.4-0.5-3.1-1-4.8
		c-2.9,1-7.2,1.7-12.5,1.7c-11.5,0-17.3-4.1-17.3-12c0-6,1.7-11.3,5.5-16.1c3.6-4.1,7.4-6.2,11.5-6.2c3.1,0,6.2,1.9,9.8,5.5
		c3.1,3.6,6,7.7,8.4,12.7c0.2,0,0.7,0,1.7-0.5v13.2l-0.5,0.5c0,2.9-0.7,6.2-2.2,10.6c-1.7,5.5-4.3,10.1-7.4,13.7
		c-7.2,8.6-15.1,16.1-23.8,22.6c-13,9.6-24,14.6-33.6,14.6c-8.2,0-14.4-3.1-18.7-9.1c-3.8-5-5.8-11.8-5.8-19.7
		c0-10.1,2.2-20.4,6.2-31.2c1.2-2.4,1.7-3.4,2.2-3.4c0.2,0,0.2,0.2,0.2,0.7c0,0.7-0.2,1.9-0.5,3.4c-3.1,10.6-4.6,18.5-4.6,24
		c0,5,1.2,9.4,3.6,13c3.8,5,9.8,7.7,18.2,7.7c7.2,0,15.8-3.1,26.2-9.4c8.2-5,16.1-11,23.8-18.2C466,161.7,469.6,157.4,469.6,155.3
		L469.6,155.3L469.6,155.3L469.6,155.3z"/>
	<path class="st0" d="M404,119c-0.5-2.2-1.2-3.8-2.2-5c-0.7-1.4-1.2-2.2-1.4-2.6c0-0.5,0-2.2,0.5-5.5c0.5-3.1,0.7-5.3,1.2-6.5
		c0.2-1.2,0.5-1.7,1-1.7c0.2,0,0.5,0.2,1,0.7c3.4,3.8,7,7.7,11,11.8c1.7,1.7,2.4,2.6,2.4,3.1c0,0.2-0.2,0.5-0.7,0.5
		c-0.7,0-2.6-0.5-5.5-1.2c1.7,4.1,3.6,8.2,5.3,12c2.6,6.7,4.1,12.2,4.1,17.3c0,2.4-0.5,5.3-1.4,8.9c-1.2,4.1-2.6,7.2-4.6,9.4
		c-7,7.9-18.7,16.6-35.3,25.9c-14.4,8.4-22.8,12.5-25.4,12.5c-0.5,0-7.7,1.7-21.4,5c-14.4,3.4-23.5,5.5-27.1,6c-3.8,0.7-6.2,1-7.2,1
		c-0.5,0-0.5,0-0.5-0.2s2.6-1.7,7.9-4.1c1.9-1,13-5.8,33.4-14.4c14.2-6,25.9-11.5,35.3-16.6c14.2-7.7,25-14.4,32.4-19.9
		c5.5-4.3,8.4-7.4,8.4-9.4c0-0.5-1.4-3.8-4.3-10.1C407.6,128.9,405.2,123.1,404,119L404,119L404,119L404,119z"/>
	<path class="st0" d="M384.4,85.7c0,3.8-1.9,9.1-5.8,15.6c-2.4,4.1-6,9.6-10.8,16.8c4.8,5.5,8.2,10.6,9.8,14.9
		c1,3.1,1.7,7.2,1.7,11.8c0,1.9-0.5,4.3-1.4,7.4c-0.7,2.9-1.7,5-2.6,6.5c-1.9,2.9-5,5.8-9.8,8.6c-5,3.4-9.4,5-13,5
		c-5.8,0-8.6-4.3-8.6-13c0-5.8,1-11.5,2.9-16.8c1.9-4.6,5-10.6,10.1-18.5c-4.3-4.1-8.9-9.8-13.9-17c-0.5-0.7-1.7-1.9-3.6-3.8
		c-1-1-1.4-2.2-1.4-3.6c0-2.2,0.2-4.6,0.7-7.4c0.7-2.9,1.2-4.1,1.4-4.1c0.7,0,2.9,1.2,7,3.8c3.8,2.6,7,4.6,8.9,6.2
		c1.2,0.7,1.7,1.4,1.7,1.4v0.2c0,0.2-0.7,0.5-2.4,0.5c-3.1,0-4.8,0.2-4.8,0.5s0.5,0.7,1.4,1.9c3.8,4.8,7.7,8.4,11.8,11.3
		c1-1.4,4.3-6.2,9.6-14.4c4.6-7,7.2-11.8,8.4-14.6c1.2-2.9,1.9-4.1,2.4-4.1C384.1,80.9,384.4,82.3,384.4,85.7L384.4,85.7L384.4,85.7
		L384.4,85.7z M375,144.7c-2.6-5.3-7.2-10.8-13.4-16.1c-2.2,2.2-4.8,6.2-8.2,12c-3.8,6.5-5.5,10.6-5.5,12.7c0,2.9,1.9,4.3,6.2,4.3
		c1.9,0,4.3-0.7,7.4-1.9c4.3-1.9,8.4-4.6,11.8-7.9C374.8,146.4,375.2,145.4,375,144.7L375,144.7L375,144.7L375,144.7z"/>
	<path class="st0" d="M361.6,67.7l3.8-7.9c0.2-0.5,0.5-0.7,1-0.7s2.4,1.2,6.2,3.8c3.6,2.4,5.5,3.8,5.5,4.3c0,1.7-1.7,5.3-4.8,10.6
		c-0.5,0.7-1,0.7-1.4,0.5c-3.1-2.4-6.7-4.8-10.8-7.4c-1.4,2.9-2.6,5.5-4.1,7.7c-0.2,0.7-0.7,1-1.2,0.7c-3.6-2.9-7.4-5.5-11.3-7.9
		c-0.2-0.2-0.2-0.5,0-1l4.6-9.6c0.2-0.5,0.7-1,1-1c0.5,0,2.2,1.2,5.3,3.4C358.4,65,360.6,66.7,361.6,67.7L361.6,67.7L361.6,67.7
		L361.6,67.7z"/>
	<path class="st0" d="M488,201.6c-2.6,0.7-4.1,1.2-4.6,1.2v-0.2c0,0,1-0.7,2.9-1.9c1.9-1.2,4.8-3.1,8.9-6.2c1.9-1.9,4.8-5,8.4-9.4
		c2.4-2.9,5-5.5,7.9-7.4c3.6-2.6,7-3.8,10.6-3.8c0.7,0,1.9,0.2,3.4,0.7c1.2,0.5,2.4,0.7,3.4,0.7c1.9,0,3.4-0.7,4.6-2.2
		c0.7-1.4,1.7-2.6,2.6-4.1c0.5-1,1.2-1.4,1.7-1.4c0.2,0,0.2,0.2,0.2,0.7s-0.2,1.7-0.7,3.1c-0.5,0.7,1.4,1,5,1c0.5,0,0.7,0,0.7-0.2
		c0,0-0.2-1-0.7-2.6c-0.2-0.5,0-1.2,0.7-2.2c1-1.7,1.4-2.4,1.7-2.2c1,0.7,1.4,2.2,1.4,3.8c0,1.7-0.5,3.4-1.2,5.3
		c-0.7,2.2-1.4,3.4-1.9,3.8c-1.7,1-4.3,0.7-7.9-1c-2.9,2.9-5.8,4.6-8.6,4.6c-0.7,0-1.9-0.2-3.1-0.7c-1.2-0.5-2.2-0.7-2.9-0.7
		c-4.8,0-9.8,2.2-14.9,7c-3.6,3.6-7.2,7.2-10.8,10.8C492.6,199.7,490.4,200.9,488,201.6L488,201.6L488,201.6L488,201.6z"/>
	<path class="st0" d="M436.7,72c2.9,0,5.3,1.4,7.4,4.8c2.2,3.1,3.8,7.4,4.6,12.7c0.2,0.5,0.2,0.7,0.2,1h0.2c0-0.2,0.2-0.5,0.2-1
		c0.5-3.1,1.7-7.9,3.4-14.2c1.9-4.3,3.8-6.5,6-6.5c1.2,0,2.4,0.7,3.4,2.2c1,1.4,1.4,2.4,1.4,3.4c0,0.5,0,1.4-0.5,2.4
		c-0.5,1.4-1,2.2-1.4,2.2c-0.2,0-0.7-0.7-1.7-1.7c-0.7-1-1.7-1.4-2.6-1.4c-1.9,0-3.6,4.6-5.3,13.7c-0.7,4.1-1.7,7-2.4,8.6
		c-0.7,1-1.2,1.7-1.7,1.7s-0.5-0.7-0.7-1.7c0.2-1.7-0.7-4.8-2.6-9.4c-1.9-4.8-3.1-7-4.1-7c-0.5,0-0.7,0-1,0.5
		c-0.2,0.2-0.5,0.5-1.2,0.5c-1,0-1.9-0.7-3.4-1.9c-1.4-1.2-1.9-2.2-1.9-2.9c0-0.2,0.5-1.4,1.7-3.4C435.7,72.7,436.4,72,436.7,72
		L436.7,72L436.7,72L436.7,72z"/>
	<path class="st0" d="M395.9,68.9c24.2-9.1,49.4-18.2,75.4-27.8c0.7-0.2,1.2-0.5,1.2-0.2c0.2,0,0.2,0.5,0,1.2
		c-1,2.2-1.7,3.4-2.2,3.8c-0.2,0.2-12.5,4.8-36.2,13.7c-24.2,8.9-37.9,14.4-40.6,16.1C394,73.4,394.7,71.3,395.9,68.9L395.9,68.9
		L395.9,68.9L395.9,68.9z"/>
	<path class="st0" d="M372.4,24.9c0.5-1.4,0.5-2.9,0.2-4.3c-0.2-1.4-1-2.2-2.2-2.2c-0.5,0-1.2,0.2-2.2,0.7s-1.4,1-1.4,1.4
		C366.8,21.8,368.8,23.3,372.4,24.9L372.4,24.9L372.4,24.9L372.4,24.9z M369.5,31.2c-4.6-2.4-6.7-4.8-6.7-7.4c0-3.1,1.4-6,4.3-8.4
		c2.9-2.6,5.3-3.6,7.2-2.9c1.7,0.5,2.4,2.2,2.4,5c0,2.6-0.5,5.5-1.7,8.9c2.4,1.2,3.8,2.4,4.3,3.4c0,1.2-1,3.4-3.1,6.2
		c-0.5-1-1.9-2.2-4.1-3.4c-2.6,3.6-5.8,6.7-9.6,9.6c-4.6,3.1-8.6,5.8-12.2,7.2c-1,0.5-5.3,2.2-13,5c-1.2,0.5-2.2,0.7-2.4,0.7
		c-0.2,0-0.2-0.2-0.2-0.2c0-0.2,0.5-1,1.9-1.7c5.8-3.6,11.5-7,17.5-10.3C361.1,38.6,366.1,34.8,369.5,31.2L369.5,31.2L369.5,31.2
		L369.5,31.2z"/>
	<path class="st0" d="M521.2,61.2c0.5-1.4,0.5-2.9,0.2-4.3c-0.2-1.4-1-2.2-2.2-2.2c-0.5,0-1.2,0.2-2.2,0.7s-1.4,1-1.4,1.4
		C515.6,58.1,517.6,59.5,521.2,61.2L521.2,61.2L521.2,61.2L521.2,61.2z M526.4,70.1c-2.4,5.8-3.6,10.3-3.6,13.7c0,4.1,1,6.2,3.1,6.2
		c1.2,0,2.6-1.7,4.3-4.6c0.2-0.2,0.2-0.5,0.5-0.7c0,0,0.2,0,0.2,0.2c0,0,0,0.2,0,0.7c-1.4,7.2-3.6,10.8-6.5,10.8
		c-3.1,0-4.6-2.6-4.6-7.9c0-2.6,0.5-6,1.9-10.3s2.2-6.5,2.2-6.7c0-0.5-1-1.4-3.1-2.6c-3.8,5-9.1,9.8-15.8,13.9
		c-4.6,2.6-9.1,5-13.9,7c-8.9,3.6-14.2,5.5-15.4,6.2c-1.2,0.5-1.9,0.7-2.4,0.7c-0.2,0-0.2-0.2-0.2-0.2c0-0.5,0.5-1,1.9-1.9
		c7.7-4.3,15.1-8.6,22.8-13c10.1-5.8,17-10.6,20.4-14.2c-4.6-2.4-6.7-4.8-6.7-7.4c0-3.1,1.4-6,4.3-8.6c2.9-2.4,5.3-3.4,7.2-2.6
		c1.4,0.5,2.4,2.2,2.4,5c0,2.6-0.5,5.5-1.7,8.6c2.4,1.4,3.4,2.9,3.4,4.3C527.2,67.4,526.9,68.6,526.4,70.1L526.4,70.1L526.4,70.1
		L526.4,70.1z"/>
	<path class="st0" d="M417.2,35c0-0.2,0.2-0.5,0.2-0.5c0.2-0.2,0.2-0.2,0.2,0c0.2,0.2,0.2,0.5,0,0.7c-1.2,7.2-3.4,10.8-6.5,10.8
		s-4.6-2.6-4.6-7.9c0-6.5,1.7-13.4,5.5-20.4c1-1.7,1.4-2.6,1.7-2.6l0,0c0,0.2-0.2,1.2-0.7,2.9c-2.4,7.4-3.6,12.5-3.6,15.6
		c0,3.8,1,6,3.1,6C414.1,39.6,415.6,37.9,417.2,35L417.2,35L417.2,35L417.2,35z"/>
</g>
</svg>
