<?xml version="1.0" encoding="utf-8"?>
<!-- Generator: Adobe Illustrator 24.0.0, SVG Export Plug-In . SVG Version: 6.00 Build 0)  -->
<svg version="1.1" id="Layer_1" xmlns="http://www.w3.org/2000/svg" xmlns:xlink="http://www.w3.org/1999/xlink" x="0px" y="0px"
	 viewBox="0 0 514.2 205.6" style="enable-background:new 0 0 514.2 205.6;" xml:space="preserve">
<style type="text/css">
	.st0{fill:#C4692C;}
</style>
<g>
	<path class="st0" d="M270.1,25c0-4.8-0.7-8.6-2.2-11.8c0-1.7,1.2-5.8,4.1-12c0.2-0.7,0.5-1.2,0.7-1.2c0.5,0,0.7,0.5,1.2,1.2
		c0.7,1.7,2.4,6.2,5.3,13.7c3.1,7.9,4.8,12.7,5.3,14.6c0.5,1.2,0.5,2.4,0.5,2.9c0,2.2-1.9,1-6.2-3.8c-0.5-0.7-0.7-0.2-0.7,1
		c0,0.5,1.2,15.4,3.4,45.1c2.2,29.5,3.1,46.1,3.1,49.9c0,11.3-1.7,21.4-5,30c-1,1.7-1.4,2.9-1.9,3.8l0,0c-0.7,1.2-1,1.2-1.2,0.5
		c-0.2-1,0-2.9,0.2-5.5c0.5-4.1,0.7-8.6,0.7-13.7c0-4.8-1.2-24-3.6-57.8C271.3,48,270.1,29,270.1,25L270.1,25L270.1,25L270.1,25z"/>
	<path class="st0" d="M246.8,25.2c0-4.6-0.7-8.4-2.2-11.5c0-1.7,1.2-5.8,4.1-12.2c0.2-0.7,0.5-1,0.7-1c0.5,0,0.7,0.2,1.2,1.2
		c0.7,1.7,2.6,6.2,5.5,13.7c2.9,7.9,4.6,12.7,5.3,14.4c0.2,1.4,0.5,2.6,0.5,3.1c0,2.2-2.2,1-6.2-3.8c-0.5-0.5-0.7-0.2-0.7,1
		c0,0.2,1,13.2,2.9,38.6c1.9,25.2,2.9,40.3,2.9,45.4c0,7.9-1.4,15.6-4.3,23c-4.1,10.3-10.1,17.3-17.8,20.6v-13.2
		c9.6-4.1,14.6-10.3,14.6-18.7c0-4.1-1.2-20.6-3.4-49.4C247.8,47.5,246.8,30.5,246.8,25.2L246.8,25.2L246.8,25.2L246.8,25.2z"/>
	<path class="st0" d="M193.3,171.1c5-5.8,11.8-10.8,20.2-15.4c4.8-2.6,13.2-6.5,25.2-11.5v13.2c-7.7,3.4-13.2,5.8-16.8,7.4
		c-7.4,3.6-12.5,6.2-15.1,8.4c-5,3.8-12.5,11.3-22.1,22.3c-5.8,6.7-11.5,10.1-17.3,10.1c-4.8,0-9.1-2.2-12.7-6.7
		c-3.8-4.3-5.5-10.1-5.5-16.6c0-8.9,3.6-20.6,11-35.3c0.7-1.4,1.4-2.2,1.9-2.2c0,0,0.2,0.2,0.2,0.5c0,1.4-1.7,6.5-4.8,15.1
		c-3.4,8.9-5,15.6-5,20.6c0,3.8,1,7,2.9,9.1c1.9,2.6,4.6,3.8,7.9,3.8c6,0,12.2-3.1,18.2-9.1C185.6,180.5,189.5,175.7,193.3,171.1
		L193.3,171.1L193.3,171.1L193.3,171.1z"/>
	<path class="st0" d="M152.7,154.1v-13.2c9.6-4.1,14.4-10.3,14.4-18.7c0-4.3-1-18-2.6-40.8c-1.7-23-2.4-36.7-2.4-40.8
		c0-4.6-0.7-8.4-2.2-11.5c0-1.7,1.4-5.8,4.1-12.2c0.2-0.7,0.7-1,1-1c0.2,0,0.5,0.2,1,1c0.7,1.9,2.6,6.5,5.5,13.9
		c2.9,7.7,4.6,12.5,5.3,14.4c0.2,1.4,0.5,2.4,0.5,3.1c0,2.2-2.2,0.7-6.2-4.1c-0.5-0.5-0.7-0.2-0.7,1c0,0.2,0.7,10.1,2.2,29.3
		c1.4,19,2.2,31,2.2,36c0,7.9-1.4,15.6-4.3,23C166.4,143.8,160.4,150.7,152.7,154.1L152.7,154.1L152.7,154.1L152.7,154.1z"/>
	<path class="st0" d="M107.4,167.5c5-5.8,11.8-10.8,20.2-15.4c4.8-2.6,13.2-6.5,25.2-11.5v13.2c-7.7,3.4-13.2,5.8-16.8,7.4
		c-7.4,3.6-12.5,6.2-15.1,8.4c-5,3.8-12.5,11.3-22.1,22.3C93,198.6,87.3,202,81.5,202c-4.8,0-9.1-2.2-12.7-6.7
		c-3.8-4.3-5.5-10.1-5.5-16.6c0-8.9,3.6-20.6,11-35.3c0.7-1.4,1.4-2.2,1.9-2.2c0,0,0.2,0.2,0.2,0.5c0,1.4-1.7,6.5-4.8,15.1
		c-3.4,8.9-5,15.6-5,20.6c0,3.8,1,7,2.9,9.1c1.9,2.6,4.6,3.8,7.9,3.8c6,0,12.2-3.1,18.2-9.1C99.7,176.9,103.5,172.1,107.4,167.5
		L107.4,167.5L107.4,167.5L107.4,167.5z"/>
	<path class="st0" d="M116.5,108.2c0,14.2-2.6,25.2-7.7,33.4c-4.3,6.7-9.4,10.3-15.1,10.3v-14.6c4.6,0,9.1-1.9,13.4-5.5
		c1.2-1,1.9-5,1.9-11.8c0-4.3-1-18-2.6-40.8c-1.7-23-2.4-36.7-2.4-40.8c0-4.6-1-8.4-2.4-11.5c0-1.7,1.4-5.8,4.3-12.2
		c0.2-0.7,0.5-1,0.7-1c0.5,0,0.7,0.2,1.2,1c0.7,1.9,2.6,6.5,5.3,13.9c3.1,7.7,4.8,12.5,5.5,14.4c0.2,1.4,0.5,2.4,0.5,3.1
		c0,2.2-2.2,0.7-6.2-4.1c-0.5-0.5-0.7-0.2-0.7,1c0,0.2,0.7,10.1,2.2,29.3C115.8,91.2,116.5,103.2,116.5,108.2L116.5,108.2
		L116.5,108.2L116.5,108.2z"/>
	<path class="st0" d="M93.7,151.9c-5,0-8.6-0.5-10.8-1c-4.8-1.4-8.6-4.6-11.8-9.4c-1.9-3.1-3.8-6.5-5.8-9.8
		c-1.9-2.9-3.6-4.1-5.3-4.1c-5.5,0-11.3,4.6-17.5,13.9c-1,1.7-2.9,6-5.8,13c-2.6,7-5,12-7.2,15.4c-3.1,4.8-6.7,7.2-10.3,7.2
		c-5.3,0-9.8-4.3-13.7-12.7c-3.4-7.4-4.8-15.1-4.8-23c0-9.6,1-17.5,2.9-23.3c0.5-1.9,1-2.9,1.4-2.9c0.7,0,1,1.2,0.5,3.6
		c-0.7,6.2-1,11.5-1,15.8c0,20.4,4.6,30.7,14.2,30.7c3.8,0,7.2-3.1,10.6-9.1c3.1-7.2,6.5-14.4,9.8-21.6c2.9-5.8,6.5-10.8,10.8-15.1
		c4.1-4.3,8.2-6.2,11.5-6.2c2.6,0,5.3,1.7,7.4,4.8c1.9,3.1,3.6,6.2,5.5,9.4c2.6,3.6,5.3,6.2,8.2,7.7c2.9,1.2,6.5,1.9,11,1.9v14.8
		H93.7L93.7,151.9z"/>
	<path class="st0" d="M133.3,116.2c-0.2-0.2-0.2-0.5,0-1l4.6-9.6c0.2-0.5,0.7-0.7,1-0.7c0.5,0,2.6,1.2,6.2,3.6
		c3.8,2.6,5.8,4.1,5.8,4.6c0,1.7-1.7,5-5,10.3c-0.5,0.7-0.7,1-1.2,0.7C141,121.2,137.1,118.6,133.3,116.2L133.3,116.2L133.3,116.2
		L133.3,116.2z"/>
	<path class="st0" d="M207.9,119.5c-0.2-0.2-0.2-0.5,0-1l4.6-9.6c0.2-0.5,0.7-0.7,1-0.7c0.5,0,2.6,1.2,6.2,3.6
		c3.8,2.6,5.8,4.1,5.8,4.6c0,1.7-1.7,5-5,10.3c-0.5,0.7-0.7,1-1.2,0.7C215.6,124.6,211.8,121.9,207.9,119.5L207.9,119.5L207.9,119.5
		L207.9,119.5z"/>
	<path class="st0" d="M55.3,81.1l3.8-7.9c0.2-0.5,0.5-0.7,1-0.7s2.4,1.2,6.2,3.8c3.6,2.4,5.5,3.8,5.5,4.3c0,1.7-1.7,5.3-4.8,10.6
		c-0.5,0.7-1,0.7-1.4,0.5c-3.1-2.4-6.7-4.8-10.8-7.4c-1.4,2.9-2.6,5.5-4.1,7.7c-0.2,0.7-0.7,1-1.2,0.7c-3.6-2.9-7.4-5.5-11.3-7.9
		c-0.2-0.2-0.2-0.5,0-1l4.6-9.6c0.2-0.5,0.7-1,1-1c0.5,0,2.2,1.2,5.3,3.4C52.2,78.5,54.3,80.2,55.3,81.1L55.3,81.1L55.3,81.1
		L55.3,81.1z"/>
	<path class="st0" d="M221.1,21.4c0-1.2-2.4-3.4-7.4-6.2c-1.7,2.9-2.4,5.5-2.4,7.9c0,1.4,0.7,2.4,2.2,2.4c1.2,0,2.6-0.5,4.3-1.4
		C219.5,23.3,220.7,22.3,221.1,21.4L221.1,21.4L221.1,21.4L221.1,21.4z M215.9,2.2c0.7-1.2,1.7-1.7,2.4-1.7c0.5,0,1,0.2,1,0.7
		c0,0-0.2,0.2-0.2,0.5c-1,2.2-1.9,4.6-2.6,7c5,3.6,7.4,7.4,7.2,11c-0.5,4.1-1,6.7-1.7,7.7c-2.4,2.9-5,4.6-8.4,4.6s-4.8-2.2-4.8-6
		c0-0.7,0-1.7,0.2-2.6C210.1,15.6,212.5,8.6,215.9,2.2L215.9,2.2L215.9,2.2L215.9,2.2z"/>
	<path class="st0" d="M184.7,100.6c18.5-6.7,37.7-13.9,57.8-21.4c0.7-0.2,1.2-0.5,1.4-0.2c0,0,0,0.5-0.2,1.2c-1,2.2-1.7,3.4-2.2,3.8
		c-16.8,6.2-36.7,13.9-59.3,23.3C182.7,105.1,183.5,103,184.7,100.6L184.7,100.6L184.7,100.6L184.7,100.6z"/>
	<path class="st0" d="M145.8,25c0-1.2-2.4-3.4-7.4-6.2c-1.7,2.9-2.4,5.5-2.4,7.9c0,1.4,0.7,2.4,2.2,2.4c1.2,0,2.6-0.5,4.3-1.4
		C144.1,26.9,145.3,25.9,145.8,25L145.8,25L145.8,25L145.8,25z M140.5,5.8c0.7-1.2,1.7-1.7,2.4-1.7c0.5,0,1,0.2,1,0.7
		c0,0-0.2,0.2-0.2,0.5c-1,2.2-1.9,4.6-2.6,7c5,3.6,7.4,7.4,7.2,11c-0.5,4.1-1,6.7-1.7,7.7c-2.4,2.9-5,4.6-8.4,4.6s-4.8-2.2-4.8-6
		c0-0.7,0-1.7,0.2-2.6C134.7,19.2,137.1,12.2,140.5,5.8L140.5,5.8L140.5,5.8L140.5,5.8z"/>
	<path class="st0" d="M122.3,89c9.6-3.4,19.9-7.2,31-11c1-0.2,1.2-0.5,1.4-0.2c0.2,0,0.2,0.5-0.2,1.2c-0.7,2.2-1.4,3.4-1.9,3.8
		c-9.6,3.4-20.4,7.4-32.6,13C120.3,93.6,121.1,91.4,122.3,89L122.3,89L122.3,89L122.3,89z"/>
	<path class="st0" d="M57.2,25.4c9.6-3.4,19.9-7.2,31-11c1-0.2,1.2-0.5,1.4-0.2c0.2,0,0.2,0.5-0.2,1.2c-0.7,2.2-1.4,3.4-1.9,3.8
		c-9.6,3.4-20.4,7.4-32.6,13C55.3,30,56,27.8,57.2,25.4L57.2,25.4L57.2,25.4L57.2,25.4z"/>
	<path class="st0" d="M24.3,183.4c9.6-3.4,19.9-7.2,31-11c1-0.2,1.2-0.5,1.4-0.2c0.2,0,0.2,0.5-0.2,1.2c-0.7,2.2-1.4,3.4-1.9,3.8
		c-9.6,3.4-20.4,7.4-32.6,13C22.4,187.9,23.1,185.8,24.3,183.4L24.3,183.4L24.3,183.4L24.3,183.4z"/>
	<path class="st0" d="M227.4,173.3c2.9,0,5.3,1.4,7.4,4.8c2.2,3.1,3.8,7.4,4.6,12.7c0.2,0.5,0.2,0.7,0.2,1h0.2c0-0.2,0.2-0.5,0.2-1
		c0.5-3.1,1.7-7.9,3.4-14.2c1.9-4.3,3.8-6.5,6-6.5c1.2,0,2.4,0.7,3.4,2.2c1,1.4,1.4,2.4,1.4,3.4c0,0.5,0,1.4-0.5,2.4
		c-0.5,1.4-1,2.2-1.4,2.2c-0.2,0-0.7-0.7-1.7-1.7c-0.7-1-1.7-1.4-2.6-1.4c-1.9,0-3.6,4.6-5.3,13.7c-0.7,4.1-1.7,7-2.4,8.6
		c-0.7,1-1.2,1.7-1.7,1.7s-0.5-0.7-0.7-1.7c0.2-1.7-0.7-4.8-2.6-9.4c-1.9-4.8-3.1-7-4.1-7c-0.5,0-0.7,0-1,0.5
		c-0.2,0.2-0.5,0.5-1.2,0.5c-1,0-1.9-0.7-3.4-1.9c-1.4-1.2-1.9-2.2-1.9-2.9c0-0.2,0.5-1.4,1.7-3.4
		C226.4,174,227.1,173.3,227.4,173.3L227.4,173.3L227.4,173.3L227.4,173.3z"/>
	<path class="st0" d="M10.7,105.6c0-0.2,0.2-0.5,0.2-0.5c0.2-0.2,0.2-0.2,0.2,0c0.2,0.2,0.2,0.5,0,0.7c-1.2,7.2-3.4,10.8-6.5,10.8
		S0,114,0,108.7c0-6.5,1.7-13.4,5.5-20.4c1-1.7,1.4-2.6,1.7-2.6l0,0c0,0.2-0.2,1.2-0.7,2.9c-2.4,7.4-3.6,12.5-3.6,15.6
		c0,3.8,1,6,3.1,6C7.5,110.2,9,108.5,10.7,105.6L10.7,105.6L10.7,105.6L10.7,105.6z"/>
	<path class="st0" d="M145.5,51.8c0,2.6-1.2,5.5-3.1,8.6c-2.2,3.1-4.8,6-8.2,8.4c-1.4,1-2.2,1.4-2.4,1.4V70c0-0.2,0.5-0.7,1.4-1.9
		c5.5-6,8.4-9.8,8.4-12c0-1.7-1-2.6-2.6-2.6c-1,0-1.9,0.2-2.6,0.7c-0.7,0.2-1,0.5-1.2,0.5c0,0-0.2,0-0.2-0.2c0,0,0-0.5,0.2-1.4
		c1-4.1,2.9-6,6.2-6C144.1,47,145.5,48.7,145.5,51.8L145.5,51.8L145.5,51.8L145.5,51.8z"/>
	<path class="st0" d="M198.8,49.2c2.9,0,5.3,1.4,7.4,4.8c2.2,3.1,3.8,7.4,4.6,12.7c0.2,0.5,0.2,0.7,0.2,1h0.2c0-0.2,0.2-0.5,0.2-1
		c0.5-3.1,1.7-7.9,3.4-14.2c1.9-4.3,3.8-6.5,6-6.5c1.2,0,2.4,0.7,3.4,2.2c1,1.4,1.4,2.4,1.4,3.4c0,0.5,0,1.4-0.5,2.4
		c-0.5,1.4-1,2.2-1.4,2.2c-0.2,0-0.7-0.7-1.7-1.7c-0.7-1-1.7-1.4-2.6-1.4c-1.9,0-3.6,4.6-5.3,13.7c-0.7,4.1-1.7,7-2.4,8.6
		c-0.7,1-1.2,1.7-1.7,1.7s-0.5-0.7-0.7-1.7c0.2-1.7-0.7-4.8-2.6-9.4c-1.9-4.8-3.1-7-4.1-7c-0.5,0-0.7,0-1,0.5
		c-0.2,0.2-0.5,0.5-1.2,0.5c-1,0-1.9-0.7-3.4-1.9c-1.4-1.2-1.9-2.2-1.9-2.9c0-0.2,0.5-1.4,1.7-3.4C197.9,49.9,198.6,49.2,198.8,49.2
		L198.8,49.2L198.8,49.2L198.8,49.2z"/>
	<path class="st0" d="M194.5,138.7c0,2.6-1.2,5.5-3.1,8.6c-2.2,3.1-4.8,6-8.2,8.4c-1.4,1-2.2,1.4-2.4,1.4v-0.2
		c0-0.2,0.5-0.7,1.4-1.9c5.5-6,8.4-9.8,8.4-12c0-1.7-1-2.6-2.6-2.6c-1,0-1.9,0.2-2.6,0.7c-0.7,0.2-1,0.5-1.2,0.5c0,0-0.2,0-0.2-0.2
		c0,0,0-0.5,0.2-1.4c1-4.1,2.9-6,6.2-6C193.1,133.9,194.5,135.6,194.5,138.7L194.5,138.7L194.5,138.7L194.5,138.7z"/>
	<path class="st0" d="M15.2,37.4c2.9,0,5.3,1.4,7.4,4.8c2.2,3.1,3.8,7.4,4.6,12.7c0.2,0.5,0.2,0.7,0.2,1h0.2c0-0.2,0.2-0.5,0.2-1
		c0.5-3.1,1.7-7.9,3.4-14.2c1.9-4.3,3.8-6.5,6-6.5c1.2,0,2.4,0.7,3.4,2.2c1,1.4,1.4,2.4,1.4,3.4c0,0.5,0,1.4-0.5,2.4
		c-0.5,1.4-1,2.2-1.4,2.2c-0.2,0-0.7-0.7-1.7-1.7c-0.7-1-1.7-1.4-2.6-1.4c-1.9,0-3.6,4.6-5.3,13.7c-0.7,4.1-1.7,7-2.4,8.6
		c-0.7,1-1.2,1.7-1.7,1.7s-0.5-0.7-0.7-1.7c0.2-1.7-0.7-4.8-2.6-9.4c-1.9-4.8-3.1-7-4.1-7c-0.5,0-0.7,0-1,0.5
		c-0.2,0.2-0.5,0.5-1.2,0.5c-1,0-1.9-0.7-3.4-1.9c-1.4-1.2-1.9-2.2-1.9-2.9c0-0.2,0.5-1.4,1.7-3.4C14.3,38.2,15,37.4,15.2,37.4
		L15.2,37.4L15.2,37.4L15.2,37.4z"/>
	<path class="st0" d="M85.5,46.6c0,2.6-1.2,5.5-3.1,8.6c-2.2,3.1-4.8,6-8.2,8.4c-1.4,1-2.2,1.4-2.4,1.4v-0.2c0-0.2,0.5-0.7,1.4-1.9
		c5.5-6,8.4-9.8,8.4-12c0-1.7-1-2.6-2.6-2.6c-1,0-1.9,0.2-2.6,0.7c-0.7,0.2-1,0.5-1.2,0.5c0,0-0.2,0-0.2-0.2c0,0,0-0.5,0.2-1.4
		c1-4.1,2.9-6,6.2-6C84.1,41.8,85.5,43.4,85.5,46.6L85.5,46.6L85.5,46.6L85.5,46.6z"/>
	<path class="st0" d="M455.4,110.4c1.2-1,2.2-1.4,2.9-1.4c0.5,0,0.7,0.5,0.7,1.4c0,0.7-0.2,2.2-0.7,4.1s-0.7,3.4-0.7,4.6
		c0,5.3,3.8,8.2,11.3,8.2c6,0,11-2.6,14.9-7.7c2.4-4.1,5-7.9,7.4-11.8c1-1,1.7-1.4,2.4-1.4c1,0,1.2,1,0.7,3.1c-1,4.1-1.7,6-1.7,5.5
		c0,1.7,1,3.4,2.9,4.8c1.7,1.4,4.1,2.4,6.7,2.4c3.4,0,5.5-1,6.5-2.6c0-0.2-1-2.2-3.1-5.8c0.2-1.9,1.2-5.3,2.6-9.8
		c0.2-1.4,0.7-2.2,1.2-2.2s1,0.2,1.7,1.2c1.9,2.9,3.1,6.2,3.1,10.1c0,6-1.4,11-4.1,15.4c-2.9,5.3-7.2,7.9-13,7.9
		c-3.8,0-7.4-3.1-10.6-8.9c-5.2,9.5-12.2,14.3-20.6,14.3c-10.1,0-14.9-5.8-14.9-16.8c-3.8,4.6-10.3,8.6-18.7,12.5v-13.2
		c6.2-3.1,10.3-5,11.5-5.8C447.7,116.6,451.5,113.8,455.4,110.4L455.4,110.4L455.4,110.4L455.4,110.4z"/>
	<path class="st0" d="M418.7,126.2c-3.6-4.6-6.7-6.7-9.6-6.7c-4.3,0-6.2,1-6.2,3.4c0,2.9,2.9,4.3,8.6,4.3
		C413.6,127.2,416,126.7,418.7,126.2L418.7,126.2L418.7,126.2L418.7,126.2z M426.1,143.8c0-1.4-0.5-3.1-1-4.8
		c-2.9,1-7.2,1.7-12.5,1.7c-11.5,0-17.3-4.1-17.3-12c0-6,1.7-11.3,5.5-16.1c3.6-4.1,7.4-6.2,11.5-6.2c3.1,0,6.2,1.9,9.8,5.5
		c3.1,3.6,6,7.7,8.4,12.7c0.2,0,0.7,0,1.7-0.5v13.2l-0.5,0.5c0,2.9-0.7,6.2-2.2,10.6c-1.7,5.5-4.3,10.1-7.4,13.7
		c-7.2,8.6-15.1,16.1-23.8,22.6c-13,9.6-24,14.6-33.6,14.6c-8.2,0-14.4-3.1-18.7-9.1c-3.8-5-5.8-11.8-5.8-19.7
		c0-10.1,2.2-20.4,6.2-31.2c1.2-2.4,1.7-3.4,2.2-3.4c0.2,0,0.2,0.2,0.2,0.7c0,0.7-0.2,1.9-0.5,3.4c-3.1,10.6-4.6,18.5-4.6,24
		c0,5,1.2,9.4,3.6,13c3.8,5,9.8,7.7,18.2,7.7c7.2,0,15.8-3.1,26.2-9.4c8.2-5,16.1-11,23.8-18.2C422.5,150.2,426.1,145.9,426.1,143.8
		L426.1,143.8L426.1,143.8L426.1,143.8z"/>
	<path class="st0" d="M360.6,107.5c-0.5-2.2-1.2-3.8-2.2-5c-0.7-1.4-1.2-2.2-1.4-2.6c0-0.5,0-2.2,0.5-5.5c0.5-3.1,0.7-5.3,1.2-6.5
		c0.2-1.2,0.5-1.7,1-1.7c0.2,0,0.5,0.2,1,0.7c3.4,3.8,7,7.7,11,11.8c1.7,1.7,2.4,2.6,2.4,3.1c0,0.2-0.2,0.5-0.7,0.5
		c-0.7,0-2.6-0.5-5.5-1.2c1.7,4.1,3.6,8.2,5.3,12c2.6,6.7,4.1,12.2,4.1,17.3c0,2.4-0.5,5.3-1.4,8.9c-1.2,4.1-2.6,7.2-4.6,9.4
		c-7,7.9-18.7,16.6-35.3,25.9c-14.4,8.4-22.8,12.5-25.4,12.5c-0.5,0-7.7,1.7-21.4,5c-14.4,3.4-23.5,5.5-27.1,6c-3.8,0.7-6.2,1-7.2,1
		c-0.5,0-0.5,0-0.5-0.2s2.6-1.7,7.9-4.1c1.9-1,13-5.8,33.4-14.4c14.2-6,25.9-11.5,35.3-16.6c14.2-7.7,25-14.4,32.4-19.9
		c5.5-4.3,8.4-7.4,8.4-9.4c0-0.5-1.4-3.8-4.3-10.1C364.2,117.4,361.8,111.6,360.6,107.5L360.6,107.5L360.6,107.5L360.6,107.5z"/>
	<path class="st0" d="M340.9,74.2c0,3.8-1.9,9.1-5.8,15.6c-2.4,4.1-6,9.6-10.8,16.8c4.8,5.5,8.2,10.6,9.8,14.9
		c1,3.1,1.7,7.2,1.7,11.8c0,1.9-0.5,4.3-1.4,7.4c-0.7,2.9-1.7,5-2.6,6.5c-1.9,2.9-5,5.8-9.8,8.6c-5,3.4-9.4,5-13,5
		c-5.8,0-8.6-4.3-8.6-13c0-5.8,1-11.5,2.9-16.8c1.9-4.6,5-10.6,10.1-18.5c-4.3-4.1-8.9-9.8-13.9-17c-0.5-0.7-1.7-1.9-3.6-3.8
		c-1-1-1.4-2.2-1.4-3.6c0-2.2,0.2-4.6,0.7-7.4c0.7-2.9,1.2-4.1,1.4-4.1c0.7,0,2.9,1.2,7,3.8c3.8,2.6,7,4.6,8.9,6.2
		c1.2,0.7,1.7,1.4,1.7,1.4v0.2c0,0.2-0.7,0.5-2.4,0.5c-3.1,0-4.8,0.2-4.8,0.5s0.5,0.7,1.4,1.9c3.8,4.8,7.7,8.4,11.8,11.3
		c1-1.4,4.3-6.2,9.6-14.4c4.6-7,7.2-11.8,8.4-14.6c1.2-2.9,1.9-4.1,2.4-4.1C340.7,69.4,340.9,70.8,340.9,74.2L340.9,74.2L340.9,74.2
		L340.9,74.2z M331.5,133.2c-2.6-5.3-7.2-10.8-13.4-16.1c-2.2,2.2-4.8,6.2-8.2,12c-3.8,6.5-5.5,10.6-5.5,12.7c0,2.9,1.9,4.3,6.2,4.3
		c1.9,0,4.3-0.7,7.4-1.9c4.3-1.9,8.4-4.6,11.8-7.9C331.3,134.9,331.8,133.9,331.5,133.2L331.5,133.2L331.5,133.2L331.5,133.2z"/>
	<path class="st0" d="M318.1,56.2l3.8-7.9c0.2-0.5,0.5-0.7,1-0.7s2.4,1.2,6.2,3.8c3.6,2.4,5.5,3.8,5.5,4.3c0,1.7-1.7,5.3-4.8,10.6
		c-0.5,0.7-1,0.7-1.4,0.5c-3.1-2.4-6.7-4.8-10.8-7.4c-1.4,2.9-2.6,5.5-4.1,7.7c-0.2,0.7-0.7,1-1.2,0.7c-3.6-2.9-7.4-5.5-11.3-7.9
		c-0.2-0.2-0.2-0.5,0-1l4.6-9.6c0.2-0.5,0.7-1,1-1c0.5,0,2.2,1.2,5.3,3.4C315,53.5,317.1,55.2,318.1,56.2L318.1,56.2L318.1,56.2
		L318.1,56.2z"/>
	<path class="st0" d="M444.6,190.1c-2.6,0.7-4.1,1.2-4.6,1.2v-0.2c0,0,1-0.7,2.9-1.9c1.9-1.2,4.8-3.1,8.9-6.2c1.9-1.9,4.8-5,8.4-9.4
		c2.4-2.9,5-5.5,7.9-7.4c3.6-2.6,7-3.8,10.6-3.8c0.7,0,1.9,0.2,3.4,0.7c1.2,0.5,2.4,0.7,3.4,0.7c1.9,0,3.4-0.7,4.6-2.2
		c0.7-1.4,1.7-2.6,2.6-4.1c0.5-1,1.2-1.4,1.7-1.4c0.2,0,0.2,0.2,0.2,0.7s-0.2,1.7-0.7,3.1c-0.5,0.7,1.4,1,5,1c0.5,0,0.7,0,0.7-0.2
		c0,0-0.2-1-0.7-2.6c-0.2-0.5,0-1.2,0.7-2.2c1-1.7,1.4-2.4,1.7-2.2c1,0.7,1.4,2.2,1.4,3.8c0,1.7-0.5,3.4-1.2,5.3
		c-0.7,2.2-1.4,3.4-1.9,3.8c-1.7,1-4.3,0.7-7.9-1c-2.9,2.9-5.8,4.6-8.6,4.6c-0.7,0-1.9-0.2-3.1-0.7c-1.2-0.5-2.2-0.7-2.9-0.7
		c-4.8,0-9.8,2.2-14.9,7c-3.6,3.6-7.2,7.2-10.8,10.8C449.1,188.2,447,189.4,444.6,190.1L444.6,190.1L444.6,190.1L444.6,190.1z"/>
	<path class="st0" d="M393.2,60.5c2.9,0,5.3,1.4,7.4,4.8c2.2,3.1,3.8,7.4,4.6,12.7c0.2,0.5,0.2,0.7,0.2,1h0.2c0-0.2,0.2-0.5,0.2-1
		c0.5-3.1,1.7-7.9,3.4-14.2c1.9-4.3,3.8-6.5,6-6.5c1.2,0,2.4,0.7,3.4,2.2c1,1.4,1.4,2.4,1.4,3.4c0,0.5,0,1.4-0.5,2.4
		c-0.5,1.4-1,2.2-1.4,2.2c-0.2,0-0.7-0.7-1.7-1.7c-0.7-1-1.7-1.4-2.6-1.4c-1.9,0-3.6,4.6-5.3,13.7c-0.7,4.1-1.7,7-2.4,8.6
		c-0.7,1-1.2,1.7-1.7,1.7s-0.5-0.7-0.7-1.7c0.2-1.7-0.7-4.8-2.6-9.4c-1.9-4.8-3.1-7-4.1-7c-0.5,0-0.7,0-1,0.5
		c-0.2,0.2-0.5,0.5-1.2,0.5c-1,0-1.9-0.7-3.4-1.9c-1.4-1.2-1.9-2.2-1.9-2.9c0-0.2,0.5-1.4,1.7-3.4C392.3,61.2,393,60.5,393.2,60.5
		L393.2,60.5L393.2,60.5L393.2,60.5z"/>
	<path class="st0" d="M352.4,57.4c24.2-9.1,49.4-18.2,75.4-27.8c0.7-0.2,1.2-0.5,1.2-0.2c0.2,0,0.2,0.5,0,1.2
		c-1,2.2-1.7,3.4-2.2,3.8c-0.2,0.2-12.5,4.8-36.2,13.7C366.4,57,352.7,62.5,350,64.2C350.5,61.9,351.2,59.8,352.4,57.4L352.4,57.4
		L352.4,57.4L352.4,57.4z"/>
	<path class="st0" d="M328.9,13.4c0.5-1.4,0.5-2.9,0.2-4.3c-0.2-1.4-1-2.2-2.2-2.2c-0.5,0-1.2,0.2-2.2,0.7s-1.4,1-1.4,1.4
		C323.4,10.3,325.3,11.8,328.9,13.4L328.9,13.4L328.9,13.4L328.9,13.4z M326,19.7c-4.6-2.4-6.7-4.8-6.7-7.4c0-3.1,1.4-6,4.3-8.4
		c2.9-2.6,5.3-3.6,7.2-2.9c1.7,0.5,2.4,2.2,2.4,5c0,2.6-0.5,5.5-1.7,8.9c2.4,1.2,3.8,2.4,4.3,3.4c0,1.2-1,3.4-3.1,6.2
		c-0.5-1-1.9-2.2-4.1-3.4c-2.6,3.6-5.8,6.7-9.6,9.6c-4.6,3.1-8.6,5.8-12.2,7.2c-1,0.5-5.3,2.2-13,5c-1.2,0.5-2.2,0.7-2.4,0.7
		c-0.2,0-0.2-0.2-0.2-0.2c0-0.2,0.5-1,1.9-1.7c5.8-3.6,11.5-7,17.5-10.3C317.6,27.1,322.7,23.3,326,19.7L326,19.7L326,19.7L326,19.7
		z"/>
	<path class="st0" d="M477.7,49.7c0.5-1.4,0.5-2.9,0.2-4.3c-0.2-1.4-1-2.2-2.2-2.2c-0.5,0-1.2,0.2-2.2,0.7s-1.4,1-1.4,1.4
		C472.2,46.6,474.1,48,477.7,49.7L477.7,49.7L477.7,49.7L477.7,49.7z M483,58.6c-2.4,5.8-3.6,10.3-3.6,13.7c0,4.1,1,6.2,3.1,6.2
		c1.2,0,2.6-1.7,4.3-4.6c0.2-0.2,0.2-0.5,0.5-0.7c0,0,0.2,0,0.2,0.2c0,0,0,0.2,0,0.7c-1.4,7.2-3.6,10.8-6.5,10.8
		c-3.1,0-4.6-2.6-4.6-7.9c0-2.6,0.5-6,1.9-10.3s2.2-6.5,2.2-6.7c0-0.5-1-1.4-3.1-2.6c-3.8,5-9.1,9.8-15.8,13.9
		c-4.6,2.6-9.1,5-13.9,7c-8.9,3.6-14.2,5.5-15.4,6.2c-1.2,0.5-1.9,0.7-2.4,0.7c-0.2,0-0.2-0.2-0.2-0.2c0-0.5,0.5-1,1.9-1.9
		c7.7-4.3,15.1-8.6,22.8-13c10.1-5.8,17-10.6,20.4-14.2c-4.6-2.4-6.7-4.8-6.7-7.4c0-3.1,1.4-6,4.3-8.6c2.9-2.4,5.3-3.4,7.2-2.6
		c1.4,0.5,2.4,2.2,2.4,5c0,2.6-0.5,5.5-1.7,8.6c2.4,1.4,3.4,2.9,3.4,4.3C483.7,55.9,483.5,57.1,483,58.6L483,58.6L483,58.6L483,58.6
		z"/>
	<path class="st0" d="M373.8,23.5c0-0.2,0.2-0.5,0.2-0.5c0.2-0.2,0.2-0.2,0.2,0c0.2,0.2,0.2,0.5,0,0.7c-1.2,7.2-3.4,10.8-6.5,10.8
		s-4.6-2.6-4.6-7.9c0-6.5,1.7-13.4,5.5-20.4c1-1.7,1.4-2.6,1.7-2.6l0,0c0,0.2-0.2,1.2-0.7,2.9c-2.4,7.4-3.6,12.5-3.6,15.6
		c0,3.8,1,6,3.1,6C370.7,28.1,372.1,26.4,373.8,23.5L373.8,23.5L373.8,23.5L373.8,23.5z"/>
</g>
</svg>
