<?xml version="1.0" encoding="utf-8"?>
<!-- Generator: Adobe Illustrator 24.0.0, SVG Export Plug-In . SVG Version: 6.00 Build 0)  -->
<svg version="1.1" id="Layer_1" xmlns="http://www.w3.org/2000/svg" xmlns:xlink="http://www.w3.org/1999/xlink" x="0px" y="0px"
	 viewBox="0 0 512 512" style="enable-background:new 0 0 512 512;" xml:space="preserve">
<g>
	<path d="M364.7,75.7c-4.3-13.9-19.7-21.6-33.9-16.8L107.3,99.5c-13.6,4.5-22.5,17.1-21.8,31l0,111.8l312.1-71.6L364.7,75.7z"/>
	<path d="M418.8,251.5c-0.6-6.7-1.5-13.6-2.8-20.4c-2.2-11.5-10.1-44.2-14.9-54.5L85.6,248.6c0,0-5.6,50,42.4,100.7
		c12.6,13.2,10.1,27.2,2.8,54.2c-7.3,27.1-7.3,27.1-4,39.7c1.8,6.6,5.5,10.4,12.2,11.2c0.9,0.2,2,0.2,2.8,0.3
		c58.6,7.3,117.5-3.5,176,4.3c1.7,0.3,3.7,0.6,5.7,0.3c5.6-0.4,7.9-3.4,6.5-8.8c-0.7-2.1-1.2-4-2.1-6.1c-2.6-6.7-5.4-13.1-5.6-20.3
		c0-5.7,1.7-10.2,5.7-13.4l44.1-8c18.2-3.3,31.4-18.7,32.1-37.2l-29.5-9.3l31.9-5.4l8.5-49.5l22.5,1.3L418.8,251.5z"/>
</g>
</svg>
