<?xml version="1.0" encoding="utf-8"?>
<!-- Generator: Adobe Illustrator 24.0.0, SVG Export Plug-In . SVG Version: 6.00 Build 0)  -->
<svg version="1.1" id="Layer_1" xmlns="http://www.w3.org/2000/svg" xmlns:xlink="http://www.w3.org/1999/xlink" x="0px" y="0px"
	 viewBox="0 0 547.4 201.9" style="enable-background:new 0 0 547.4 201.9;" xml:space="preserve">
<style type="text/css">
	.st0{fill:#C4692C;}
</style>
<g>
	<path class="st0" d="M290.9,126.9c5-2.4,8.4-4.6,9.8-7c0-1.4-1.9-5.3-6-11.8c-4.1-7-6.7-12.5-7.4-16.1c-0.2-1-1-1.7-2.2-2.2
		c-1-0.2-1.2-1-1.2-1.9l1.4-11.5c0.2-1.2,0.5-1.9,1-1.9s1,0.5,1.7,1l11.5,10.1c1.2,1.4,1.9,2.2,1.9,2.9c0,1.2-2.4,1.4-7,0.2
		c7.2,11.5,10.8,19.2,10.8,23.5c0,14.4-4.8,23.8-14.4,27.8v-13.1H290.9L290.9,126.9z"/>
	<path class="st0" d="M277.2,128.9c-3.6-4.6-6.7-6.7-9.6-6.7c-4.3,0-6.2,1-6.2,3.4c0,2.9,2.9,4.3,8.6,4.3
		C272.1,129.8,274.5,129.3,277.2,128.9L277.2,128.9L277.2,128.9L277.2,128.9z M284.6,146.4c0-1.4-0.5-3.1-1-4.8
		c-2.9,1-7.2,1.7-12.5,1.7c-11.5,0-17.3-4.1-17.3-12c0-6,1.7-11.3,5.5-16.1c3.6-4.1,7.4-6.2,11.5-6.2c3.1,0,6.2,1.9,9.8,5.5
		c3.1,3.6,6,7.7,8.4,12.7c0.2,0,0.7,0,1.7-0.5v13.2l-0.5,0.5c0,2.9-0.7,6.2-2.2,10.6c-1.7,5.5-4.3,10.1-7.4,13.7
		c-7.2,8.6-15.1,16.1-23.8,22.6c-13,9.6-24,14.6-33.6,14.6c-8.2,0-14.4-3.1-18.7-9.1c-3.8-5-5.8-11.8-5.8-19.7
		c0-10.1,2.2-20.4,6.2-31.2c1.2-2.4,1.7-3.4,2.2-3.4c0.2,0,0.2,0.2,0.2,0.7c0,0.7-0.2,1.9-0.5,3.4c-3.1,10.6-4.6,18.5-4.6,24
		c0,5,1.2,9.4,3.6,13c3.8,5,9.8,7.7,18.2,7.7c7.2,0,15.8-3.1,26.2-9.4c8.2-5,16.1-11,23.8-18.2C281,152.9,284.6,148.5,284.6,146.4
		L284.6,146.4L284.6,146.4L284.6,146.4z"/>
	<path class="st0" d="M198.2,142.1c-6.2,0-10.6-1.9-13.2-5.8c-1.4-2.4-2.4-6-2.6-10.6c0-0.5-0.2-0.7-0.7-1c-0.7,0.2-1.4,0.5-2.2,1.4
		c-5,5.8-8.2,9.1-9.6,10.3c-6.2,5.5-12.7,8.2-19.4,8.2V130c7.2,0,13.4-1.9,18.7-5.8c2.2-1.4,7-6,14.6-13.7c1-1,1.7-1.2,2.6-1.4
		c1.2,0.2,1.7,1,1.2,2.6c-0.7,1.9-1,3.6-1,5c0,3.4,1.4,6,4.1,7.9c2.6,1.7,6.2,2.6,10.3,2.6c6,0,11-2.6,15.1-7.7
		c2.4-3.8,5-7.7,7.4-11.5c1-1,1.7-1.4,2.2-1.4c0.7,0,1,0.5,1,1.4c0,0.5,0,1-0.2,1.7c-1,4.1-1.4,6-1.4,5.5c0,1.7,1.2,3.6,3.1,5
		c2.2,1.9,4.6,2.9,7.2,2.9c3.4,0,5.5-1,6.5-2.6c0-0.5-0.5-1-1.4-1.9c-1-0.7-1.4-1.4-1.4-1.9s1.2-4.1,3.1-10.3
		c0.5-1.2,0.7-1.7,1.2-1.7c1,0,1.9,1.4,2.9,4.1c0.7,2.2,1,3.8,1,5c0,6.2-1.2,11.3-3.6,15.6c-2.9,5.3-7.2,7.7-13.2,7.7
		c-4.1,0-7.9-3.1-11.5-9.4C213.8,137.3,206.9,142.1,198.2,142.1L198.2,142.1L198.2,142.1L198.2,142.1z"/>
	<path class="st0" d="M133.2,102.5c0-1.9-1.2-4.6-3.4-8.2c-2.2-4.1-4.3-6-6.2-6c-1.7,0-3.1,1-4.6,2.9c-1.4,1.7-2.2,3.8-2.2,6
		c0,1.4,0.7,3.8,1.9,7c1,3.4,2.2,5.8,3.4,7.4c1.9-1,4.1-2.6,6.7-4.6C131.7,104.9,133.2,103.4,133.2,102.5L133.2,102.5L133.2,102.5
		L133.2,102.5z M127.7,119.7c5,6.7,12.7,10.3,23,10.3v14.6c-6.7,0-12.2-1.2-16.8-3.8c-5.5-2.9-10.3-8.4-14.4-16.1
		c-7,4.3-16.8,9.1-29.3,13.9c-19.9,7.9-37.7,11.8-53.5,11.8C12.2,150.4,0,138.2,0,113.7c0-9.4,1.4-17.3,4.3-23.5
		c1.2-2.6,2.2-3.8,2.6-3.8c0,0,0.2,0.2,0.2,0.7c0,0.7-0.2,1.9-0.7,3.6c-1.9,7.9-3.1,13.2-3.1,15.8c0,10.3,4.3,18.2,12.7,23.5
		c6.5,3.8,14.2,5.8,23.3,5.8c15.6,0,32.4-3.4,50.4-9.8c10.6-3.8,19.2-7.7,26.2-11.8c-2.6-6.5-3.8-11.5-3.8-14.9c0-7,1.7-13,4.6-18.2
		c2.6-4.8,5.8-7.2,8.9-7.4c3.1,0.2,6.2,2.6,9.1,7.9c2.6,4.8,3.8,9.6,3.8,14.2C138.5,107,134.9,114.9,127.7,119.7L127.7,119.7
		L127.7,119.7L127.7,119.7z"/>
	<path class="st0" d="M308.1,163.2l3.8-7.9c0.2-0.5,0.5-0.7,1-0.7s2.4,1.2,6.2,3.8c3.6,2.4,5.5,3.8,5.5,4.3c0,1.7-1.7,5.3-4.8,10.6
		c-0.5,0.7-1,0.7-1.4,0.5c-3.1-2.4-6.7-4.8-10.8-7.4c-1.4,2.9-2.6,5.5-4.1,7.7c-0.2,0.7-0.7,1-1.2,0.7c-3.6-2.9-7.4-5.5-11.3-7.9
		c-0.2-0.2-0.2-0.5,0-1l4.6-9.6c0.2-0.5,0.7-1,1-1c0.5,0,2.2,1.2,5.3,3.4C305,160.5,307.2,162.2,308.1,163.2L308.1,163.2
		L308.1,163.2L308.1,163.2z"/>
	<path class="st0" d="M113.3,49.4c-0.2-0.2-0.2-0.5,0-1l4.6-9.6c0.2-0.5,0.7-0.7,1-0.7c0.5,0,2.6,1.2,6.2,3.6
		c3.8,2.6,5.8,4.1,5.8,4.6c0,1.7-1.7,5-5,10.3c-0.5,0.7-0.7,1-1.2,0.7C120.9,54.5,117.1,51.8,113.3,49.4L113.3,49.4L113.3,49.4
		L113.3,49.4z"/>
	<path class="st0" d="M13.9,76.1c0-0.2,0.2-0.5,0.2-0.5c0.2-0.2,0.2-0.2,0.2,0c0.2,0.2,0.2,0.5,0,0.7c-1.2,7.2-3.4,10.8-6.5,10.8
		c-3.1,0-4.6-2.6-4.6-7.9c0-6.5,1.7-13.4,5.5-20.4c1-1.7,1.4-2.6,1.7-2.6l0,0c0,0.2-0.2,1.2-0.7,2.9c-2.4,7.4-3.6,12.5-3.6,15.6
		c0,3.8,1,6,3.1,6C10.8,80.6,12.2,78.9,13.9,76.1L13.9,76.1L13.9,76.1L13.9,76.1z"/>
	<path class="st0" d="M123.1,198.9c-2.6,0.7-4.1,1.2-4.6,1.2v-0.2c0,0,1-0.7,2.9-1.9c1.9-1.2,4.8-3.1,8.9-6.2c1.9-1.9,4.8-5,8.4-9.4
		c2.4-2.9,5-5.5,7.9-7.4c3.6-2.6,7-3.8,10.6-3.8c0.7,0,1.9,0.2,3.4,0.7c1.2,0.5,2.4,0.7,3.4,0.7c1.9,0,3.4-0.7,4.6-2.2
		c0.7-1.4,1.7-2.6,2.6-4.1c0.5-1,1.2-1.4,1.7-1.4c0.2,0,0.2,0.2,0.2,0.7s-0.2,1.7-0.7,3.1c-0.5,0.7,1.4,1,5,1c0.5,0,0.7,0,0.7-0.2
		c0,0-0.2-1-0.7-2.6c-0.2-0.5,0-1.2,0.7-2.2c1-1.7,1.4-2.4,1.7-2.2c1,0.7,1.4,2.2,1.4,3.8c0,1.7-0.5,3.4-1.2,5.3
		c-0.7,2.2-1.4,3.4-1.9,3.8c-1.7,1-4.3,0.7-7.9-1c-2.9,2.9-5.8,4.6-8.6,4.6c-0.7,0-1.9-0.2-3.1-0.7s-2.2-0.7-2.9-0.7
		c-4.8,0-9.8,2.2-14.9,7c-3.6,3.6-7.2,7.2-10.8,10.8C127.7,197,125.5,198.2,123.1,198.9L123.1,198.9L123.1,198.9L123.1,198.9z"/>
	<path class="st0" d="M86.4,165.6c2.9,0,5.3,1.4,7.4,4.8c2.2,3.1,3.8,7.4,4.6,12.7c0.2,0.5,0.2,0.7,0.2,1h0.2c0-0.2,0.2-0.5,0.2-1
		c0.5-3.1,1.7-7.9,3.4-14.2c1.9-4.3,3.8-6.5,6-6.5c1.2,0,2.4,0.7,3.4,2.2c1,1.4,1.4,2.4,1.4,3.4c0,0.5,0,1.4-0.5,2.4
		c-0.5,1.4-1,2.2-1.4,2.2c-0.2,0-0.7-0.7-1.7-1.7c-0.7-1-1.7-1.4-2.6-1.4c-1.9,0-3.6,4.6-5.3,13.7c-0.7,4.1-1.7,7-2.4,8.6
		c-0.7,1-1.2,1.7-1.7,1.7s-0.5-0.7-0.7-1.7c0.2-1.7-0.7-4.8-2.6-9.4c-1.9-4.8-3.1-7-4.1-7c-0.5,0-0.7,0-1,0.5
		c-0.2,0.2-0.5,0.5-1.2,0.5c-1,0-1.9-0.7-3.4-1.9c-1.4-1.2-1.9-2.2-1.9-2.9c0-0.2,0.5-1.4,1.7-3.4C85.4,166.3,86.1,165.6,86.4,165.6
		L86.4,165.6L86.4,165.6L86.4,165.6z"/>
	<path class="st0" d="M56.6,175.7c0-0.2,0.2-0.5,0.2-0.5c0.2-0.2,0.2-0.2,0.2,0c0.2,0.2,0.2,0.5,0,0.7c-1.2,7.2-3.4,10.8-6.5,10.8
		s-4.6-2.6-4.6-7.9c0-6.5,1.7-13.4,5.5-20.4c1-1.7,1.4-2.6,1.7-2.6l0,0c0,0.2-0.2,1.2-0.7,2.9c-2.4,7.4-3.6,12.5-3.6,15.6
		c0,3.8,1,6,3.1,6C53.5,180.2,54.9,178.5,56.6,175.7L56.6,175.7L56.6,175.7L56.6,175.7z"/>
	<path class="st0" d="M291.1,12.7c0.5-1.4,0.5-2.9,0.2-4.3c-0.2-1.4-1-2.2-2.2-2.2c-0.5,0-1.2,0.2-2.2,0.7s-1.4,1-1.4,1.4
		C285.6,9.6,287.5,11,291.1,12.7L291.1,12.7L291.1,12.7L291.1,12.7z M296.4,21.6c-2.4,5.8-3.6,10.3-3.6,13.7c0,4.1,1,6.2,3.1,6.2
		c1.4,0,2.9-1.7,4.3-4.6c0.2-0.2,0.2-0.5,0.5-0.7c0.2,0,0.2,0,0.2,0.2c0,0,0,0.2,0,0.7c-1.2,7.2-3.4,10.8-6.5,10.8s-4.6-2.6-4.6-7.9
		c0-2.6,0.7-6,1.9-10.3c1.4-4.3,2.2-6.5,2.2-6.7c0-0.5-1-1.4-3.1-2.6c-2.6,3.6-5.8,6.7-9.6,9.6c-4.6,3.4-8.6,5.8-12.2,7.4
		c-1,0.2-5.3,1.9-13,4.8c-1.2,0.5-2.2,0.7-2.4,0.7c-0.2,0-0.2,0-0.2-0.2s0.5-0.7,1.9-1.7c5.8-3.4,11.5-7,17.5-10.3
		c7-4.3,12-8.2,15.4-11.8c-4.6-2.4-6.7-4.8-6.7-7.4c0-3.1,1.4-6,4.3-8.6c2.9-2.4,5.3-3.4,7.2-2.6c1.7,0.5,2.4,2.2,2.4,5
		c0,2.6-0.5,5.5-1.7,8.6c2.4,1.4,3.6,2.9,3.6,4.3C297.3,18.9,296.9,20.1,296.4,21.6L296.4,21.6L296.4,21.6L296.4,21.6z"/>
	<path class="st0" d="M192.2,54c0.5-1.4,0.5-2.9,0.2-4.3c-0.2-1.4-1-2.2-2.2-2.2c-0.5,0-1.2,0.2-2.2,0.7s-1.4,1-1.4,1.4
		C186.7,50.9,188.6,52.3,192.2,54L192.2,54L192.2,54L192.2,54z M197.5,62.9c-2.4,5.8-3.6,10.3-3.6,13.7c0,4.1,1,6.2,3.1,6.2
		c1.4,0,2.9-1.7,4.3-4.6c0.2-0.2,0.2-0.5,0.5-0.7c0.2,0,0.2,0,0.2,0.2c0,0,0,0.2,0,0.7c-1.2,7.2-3.4,10.8-6.5,10.8s-4.6-2.6-4.6-7.9
		c0-2.6,0.7-6,1.9-10.3c1.4-4.3,2.2-6.5,2.2-6.7c0-0.5-1-1.4-3.1-2.6c-2.6,3.6-5.8,6.7-9.6,9.6c-4.6,3.4-8.6,5.8-12.2,7.4
		c-1,0.2-5.3,1.9-13,4.8c-1.2,0.5-2.2,0.7-2.4,0.7c-0.2,0-0.2,0-0.2-0.2s0.5-0.7,1.9-1.7c5.8-3.4,11.5-7,17.5-10.3
		c7-4.3,12-8.2,15.4-11.8c-4.6-2.4-6.7-4.8-6.7-7.4c0-3.1,1.4-6,4.3-8.6c2.9-2.4,5.3-3.4,7.2-2.6c1.7,0.5,2.4,2.2,2.4,5
		c0,2.6-0.5,5.5-1.7,8.6c2.4,1.4,3.6,2.9,3.6,4.3C198.5,60.2,198,61.4,197.5,62.9L197.5,62.9L197.5,62.9L197.5,62.9z"/>
	<path class="st0" d="M221.3,3.6c2.9,0,5.3,1.4,7.4,4.8c2.2,3.1,3.8,7.4,4.6,12.7c0.2,0.5,0.2,0.7,0.2,1h0.2c0-0.2,0.2-0.5,0.2-1
		c0.5-3.1,1.7-7.9,3.4-14.2c1.9-4.3,3.8-6.5,6-6.5c1.2,0,2.4,0.7,3.4,2.2c1,1.4,1.4,2.4,1.4,3.4c0,0.5,0,1.4-0.5,2.4
		c-0.5,1.4-1,2.2-1.4,2.2c-0.2,0-0.7-0.7-1.7-1.7c-0.7-1-1.7-1.4-2.6-1.4c-1.9,0-3.6,4.6-5.3,13.7c-0.7,4.1-1.7,7-2.4,8.6
		c-0.7,1-1.2,1.7-1.7,1.7s-0.5-0.7-0.7-1.7c0.2-1.7-0.7-4.8-2.6-9.4c-1.9-4.8-3.1-7-4.1-7c-0.5,0-0.7,0-1,0.5
		c-0.2,0.2-0.5,0.5-1.2,0.5c-1,0-1.9-0.7-3.4-1.9c-1.4-1.2-1.9-2.2-1.9-2.9c0-0.2,0.5-1.4,1.7-3.4C220.3,4.3,221,3.6,221.3,3.6
		L221.3,3.6L221.3,3.6L221.3,3.6z"/>
	<path class="st0" d="M241.9,70.8c0-0.2,0.2-0.5,0.2-0.5c0.2-0.2,0.2-0.2,0.2,0c0.2,0.2,0.2,0.5,0,0.7c-1.2,7.2-3.4,10.8-6.5,10.8
		s-4.6-2.6-4.6-7.9c0-6.5,1.7-13.4,5.5-20.4c1-1.7,1.4-2.6,1.7-2.6l0,0c0,0.2-0.2,1.2-0.7,2.9c-2.4,7.4-3.6,12.5-3.6,15.6
		c0,3.8,1,6,3.1,6C238.8,75.3,240.2,73.7,241.9,70.8L241.9,70.8L241.9,70.8L241.9,70.8z"/>
	<path class="st0" d="M151.4,3.6c2.9,0,5.3,1.4,7.4,4.8c2.2,3.1,3.8,7.4,4.6,12.7c0.2,0.5,0.2,0.7,0.2,1h0.2c0-0.2,0.2-0.5,0.2-1
		c0.5-3.1,1.7-7.9,3.4-14.2c1.9-4.3,3.8-6.5,6-6.5c1.2,0,2.4,0.7,3.4,2.2c1,1.4,1.4,2.4,1.4,3.4c0,0.5,0,1.4-0.5,2.4
		c-0.5,1.4-1,2.2-1.4,2.2c-0.2,0-0.7-0.7-1.7-1.7c-0.7-1-1.7-1.4-2.6-1.4c-1.9,0-3.6,4.6-5.3,13.7c-0.7,4.1-1.7,7-2.4,8.6
		c-0.7,1-1.2,1.7-1.7,1.7s-0.5-0.7-0.7-1.7c0.2-1.7-0.7-4.8-2.6-9.4c-1.9-4.8-3.1-7-4.1-7c-0.5,0-0.7,0-1,0.5
		c-0.2,0.2-0.5,0.5-1.2,0.5c-1,0-1.9-0.7-3.4-1.9c-1.4-1.2-1.9-2.2-1.9-2.9c0-0.2,0.5-1.4,1.7-3.4C150.5,4.3,151.2,3.6,151.4,3.6
		L151.4,3.6L151.4,3.6L151.4,3.6z"/>
	<path class="st0" d="M87.3,64.1c0,0.5-0.2,1.4-0.7,2.4c-0.2,1.4-0.7,2.2-1.4,2.2c-0.2,0-0.7-0.7-1.7-1.7c-0.7-1-1.7-1.4-2.4-1.4
		c-1.9,0-3.8,4.6-5.5,13.7c-0.7,4.1-1.4,7-2.4,8.6c-0.7,1-1.2,1.7-1.7,1.7c-0.2,0-0.5-0.7-0.5-1.7c0-1.7-1-4.8-2.9-9.4
		c-1.9-4.8-3.1-7-3.8-7s-1,0-1.2,0.5c0,0.2-0.5,0.5-1.2,0.5c-1,0-1.9-0.7-3.4-1.9c-1.2-1.2-1.9-2.2-1.9-2.9c0-0.2,0.5-1.4,1.7-3.4
		c1.2-1.9,1.9-2.6,2.2-2.6c2.6,0,5,1.4,7.2,4.8c2.4,3.4,3.8,7.4,4.8,12.7c0,0.5,0,0.7,0,1c0.2,0.2,0.2,0.2,0.2,0s0.2-0.5,0.5-1
		c0.2-3.1,1.4-7.9,3.1-14.2c1.9-4.3,3.8-6.5,6-6.5c1.2,0,2.4,0.7,3.6,2.2C86.9,62.1,87.3,63.1,87.3,64.1L87.3,64.1L87.3,64.1
		L87.3,64.1z M71.5,91.7c-1.7,3.8-5,7.7-10.1,11.3c-4.6,3.4-8.6,5.8-12.2,7.4c-0.7,0.5-5,2.2-13,5c-1.2,0.5-1.9,0.7-2.4,0.7
		c-0.2,0-0.2-0.2-0.2-0.2c0-0.2,0.7-1,1.9-1.7c6.5-3.8,15.6-9.4,27.6-17.3c2.9-2.2,5-4.3,6.7-6.2c1.9-2.2,2.9-3.4,3.1-3.4
		c0,0,0,0,0,0.2C72.9,87.8,72.5,89.3,71.5,91.7L71.5,91.7L71.5,91.7L71.5,91.7z"/>
	<path class="st0" d="M46.8,48.9c0-0.2,0.2-0.5,0.2-0.5c0.2-0.2,0.2-0.2,0.2,0c0.2,0.2,0.2,0.5,0,0.7c-1.2,7.2-3.4,10.8-6.5,10.8
		s-4.6-2.6-4.6-7.9c0-6.5,1.7-13.4,5.5-20.4c1-1.7,1.4-2.6,1.7-2.6l0,0c0,0.2-0.2,1.2-0.7,2.9C40.2,39.3,39,44.4,39,47.5
		c0,3.8,1,6,3.1,6C43.7,53.5,45.1,51.8,46.8,48.9L46.8,48.9L46.8,48.9L46.8,48.9z"/>
	<path class="st0" d="M68.1,29.7c18.5-6.7,37.7-13.9,57.8-21.4c0.7-0.2,1.2-0.5,1.4-0.2c0,0,0,0.5-0.2,1.2c-1,2.2-1.7,3.4-2.2,3.8
		C108.1,19.3,88.2,27,65.6,36.4C66.2,34.3,66.9,32.1,68.1,29.7L68.1,29.7L68.1,29.7L68.1,29.7z"/>
	<path class="st0" d="M488.6,111.6c1.2-1,2.2-1.4,2.9-1.4c0.5,0,0.7,0.5,0.7,1.4c0,0.7-0.2,2.2-0.7,4.1s-0.7,3.4-0.7,4.6
		c0,5.3,3.8,8.2,11.3,8.2c6,0,11-2.6,14.9-7.7c2.4-4.1,5-7.9,7.4-11.8c1-1,1.7-1.4,2.4-1.4c1,0,1.2,1,0.7,3.1c-1,4.1-1.7,6-1.7,5.5
		c0,1.7,1,3.4,2.9,4.8c1.7,1.4,4.1,2.4,6.7,2.4c3.4,0,5.5-1,6.5-2.6c0-0.2-1-2.2-3.1-5.8c0.2-1.9,1.2-5.3,2.6-9.8
		c0.2-1.4,0.7-2.2,1.2-2.2s1,0.2,1.7,1.2c1.9,2.9,3.1,6.2,3.1,10.1c0,6-1.4,11-4.1,15.4c-2.9,5.3-7.2,7.9-13,7.9
		c-3.8,0-7.4-3.1-10.6-8.9c-5.3,9.6-12.2,14.4-20.6,14.4c-10.1,0-14.9-5.8-14.9-16.8c-3.8,4.6-10.3,8.6-18.7,12.5v-13.2
		c6.2-3.1,10.3-5,11.5-5.8C480.9,117.8,484.8,114.9,488.6,111.6L488.6,111.6L488.6,111.6L488.6,111.6z"/>
	<path class="st0" d="M451.9,127.4c-3.6-4.6-6.7-6.7-9.6-6.7c-4.3,0-6.2,1-6.2,3.4c0,2.9,2.9,4.3,8.6,4.3
		C446.9,128.4,449.3,127.9,451.9,127.4L451.9,127.4L451.9,127.4L451.9,127.4z M459.3,144.9c0-1.4-0.5-3.1-1-4.8
		c-2.9,1-7.2,1.7-12.5,1.7c-11.5,0-17.3-4.1-17.3-12c0-6,1.7-11.3,5.5-16.1c3.6-4.1,7.4-6.2,11.5-6.2c3.1,0,6.2,1.9,9.8,5.5
		c3.1,3.6,6,7.7,8.4,12.7c0.2,0,0.7,0,1.7-0.5v13.2l-0.5,0.5c0,2.9-0.7,6.2-2.2,10.6c-1.7,5.5-4.3,10.1-7.4,13.7
		c-7.2,8.6-15.1,16.1-23.8,22.6c-13,9.6-24,14.6-33.6,14.6c-8.2,0-14.4-3.1-18.7-9.1c-3.8-5-5.8-11.8-5.8-19.7
		c0-10.1,2.2-20.4,6.2-31.2c1.2-2.4,1.7-3.4,2.2-3.4c0.2,0,0.2,0.2,0.2,0.7c0,0.7-0.2,1.9-0.5,3.4c-3.1,10.6-4.6,18.5-4.6,24
		c0,5,1.2,9.4,3.6,13c3.8,5,9.8,7.7,18.2,7.7c7.2,0,15.8-3.1,26.2-9.4c8.2-5,16.1-11,23.8-18.2C455.7,151.4,459.3,147.1,459.3,144.9
		L459.3,144.9L459.3,144.9L459.3,144.9z"/>
	<path class="st0" d="M393.8,108.7c-0.5-2.2-1.2-3.8-2.2-5c-0.7-1.4-1.2-2.2-1.4-2.6c0-0.5,0-2.2,0.5-5.5c0.5-3.1,0.7-5.3,1.2-6.5
		c0.2-1.2,0.5-1.7,1-1.7c0.2,0,0.5,0.2,1,0.7c3.4,3.8,7,7.7,11,11.8c1.7,1.7,2.4,2.6,2.4,3.1c0,0.2-0.2,0.5-0.7,0.5
		c-0.7,0-2.6-0.5-5.5-1.2c1.7,4.1,3.6,8.2,5.3,12c2.6,6.7,4.1,12.2,4.1,17.3c0,2.4-0.5,5.3-1.4,8.9c-1.2,4.1-2.6,7.2-4.6,9.4
		c-7,7.9-18.7,16.6-35.3,25.9c-14.4,8.4-22.8,12.5-25.4,12.5c-0.5,0-7.7,1.7-21.4,5c-14.4,3.4-23.5,5.5-27.1,6c-3.8,0.7-6.2,1-7.2,1
		c-0.5,0-0.5,0-0.5-0.2s2.6-1.7,7.9-4.1c1.9-1,13-5.8,33.4-14.4c14.2-6,25.9-11.5,35.3-16.6c14.2-7.7,25-14.4,32.4-19.9
		c5.5-4.3,8.4-7.4,8.4-9.4c0-0.5-1.4-3.8-4.3-10.1C397.4,118.5,395,112.8,393.8,108.7L393.8,108.7L393.8,108.7L393.8,108.7z"/>
	<path class="st0" d="M374.4,75.3c0,3.8-1.9,9.1-5.8,15.6c-2.4,4.1-6,9.6-10.8,16.8c4.8,5.5,8.2,10.6,9.8,14.9
		c1,3.1,1.7,7.2,1.7,11.8c0,1.9-0.5,4.3-1.4,7.4c-0.7,2.9-1.7,5-2.6,6.5c-1.9,2.9-5,5.8-9.8,8.6c-5,3.4-9.4,5-13,5
		c-5.8,0-8.6-4.3-8.6-13c0-5.8,1-11.5,2.9-16.8c1.9-4.6,5-10.6,10.1-18.5c-4.3-4.1-8.9-9.8-13.9-17c-0.5-0.7-1.7-1.9-3.6-3.8
		c-1-1-1.4-2.2-1.4-3.6c0-2.2,0.2-4.6,0.7-7.4c0.7-2.9,1.2-4.1,1.4-4.1c0.7,0,2.9,1.2,7,3.8c3.8,2.6,7,4.6,8.9,6.2
		c1.2,0.7,1.7,1.4,1.7,1.4v0.2c0,0.2-0.7,0.5-2.4,0.5c-3.1,0-4.8,0.2-4.8,0.5c0,0.2,0.5,0.7,1.4,1.9c3.8,4.8,7.7,8.4,11.8,11.3
		c1-1.4,4.3-6.2,9.6-14.4c4.6-7,7.2-11.8,8.4-14.6c1.2-2.9,1.9-4.1,2.4-4.1C374.1,70.5,374.4,72,374.4,75.3L374.4,75.3L374.4,75.3
		L374.4,75.3z M365,134.4c-2.6-5.3-7.2-10.8-13.4-16.1c-2.2,2.2-4.8,6.2-8.2,12c-3.8,6.5-5.5,10.6-5.5,12.7c0,2.9,1.9,4.3,6.2,4.3
		c1.9,0,4.3-0.7,7.4-1.9c4.3-1.9,8.4-4.6,11.8-7.9C364.8,136.1,365.3,135.1,365,134.4L365,134.4L365,134.4L365,134.4z"/>
	<path class="st0" d="M351.6,57.1l3.8-7.9c0.2-0.5,0.5-0.7,1-0.7s2.4,1.2,6.2,3.8c3.6,2.4,5.5,3.8,5.5,4.3c0,1.7-1.7,5.3-4.8,10.6
		c-0.5,0.7-1,0.7-1.4,0.5c-3.1-2.4-6.7-4.8-10.8-7.4c-1.4,2.9-2.6,5.5-4.1,7.7c-0.2,0.7-0.7,1-1.2,0.7c-3.6-2.9-7.4-5.5-11.3-7.9
		c-0.2-0.2-0.2-0.5,0-1l4.6-9.6c0.2-0.5,0.7-1,1-1c0.5,0,2.2,1.2,5.3,3.4C348.5,54.5,350.6,56.1,351.6,57.1L351.6,57.1L351.6,57.1
		L351.6,57.1z"/>
	<path class="st0" d="M478.1,191c-2.6,0.7-4.1,1.2-4.6,1.2V192c0,0,1-0.7,2.9-1.9c1.9-1.2,4.8-3.1,8.9-6.2c1.9-1.9,4.8-5,8.4-9.4
		c2.4-2.9,5-5.5,7.9-7.4c3.6-2.6,7-3.8,10.6-3.8c0.7,0,1.9,0.2,3.4,0.7c1.2,0.5,2.4,0.7,3.4,0.7c1.9,0,3.4-0.7,4.6-2.2
		c0.7-1.4,1.7-2.6,2.6-4.1c0.5-1,1.2-1.4,1.7-1.4c0.2,0,0.2,0.2,0.2,0.7s-0.2,1.7-0.7,3.1c-0.5,0.7,1.4,1,5,1c0.5,0,0.7,0,0.7-0.2
		c0,0-0.2-1-0.7-2.6c-0.2-0.5,0-1.2,0.7-2.2c1-1.7,1.4-2.4,1.7-2.2c1,0.7,1.4,2.2,1.4,3.8c0,1.7-0.5,3.4-1.2,5.3
		c-0.7,2.2-1.4,3.4-1.9,3.8c-1.7,1-4.3,0.7-7.9-1c-2.9,2.9-5.8,4.6-8.6,4.6c-0.7,0-1.9-0.2-3.1-0.7s-2.2-0.7-2.9-0.7
		c-4.8,0-9.8,2.2-14.9,7c-3.6,3.6-7.2,7.2-10.8,10.8C482.6,189.1,480.5,190.3,478.1,191L478.1,191L478.1,191L478.1,191z"/>
	<path class="st0" d="M426.5,61.4c2.9,0,5.3,1.4,7.4,4.8c2.2,3.1,3.8,7.4,4.6,12.7c0.2,0.5,0.2,0.7,0.2,1h0.2c0-0.2,0.2-0.5,0.2-1
		c0.5-3.1,1.7-7.9,3.4-14.2c1.9-4.3,3.8-6.5,6-6.5c1.2,0,2.4,0.7,3.4,2.2c1,1.4,1.4,2.4,1.4,3.4c0,0.5,0,1.4-0.5,2.4
		c-0.5,1.4-1,2.2-1.4,2.2c-0.2,0-0.7-0.7-1.7-1.7c-0.7-1-1.7-1.4-2.6-1.4c-1.9,0-3.6,4.6-5.3,13.7c-0.7,4.1-1.7,7-2.4,8.6
		c-0.7,1-1.2,1.7-1.7,1.7s-0.5-0.7-0.7-1.7c0.2-1.7-0.7-4.8-2.6-9.4c-1.9-4.8-3.1-7-4.1-7c-0.5,0-0.7,0-1,0.5
		c-0.2,0.2-0.5,0.5-1.2,0.5c-1,0-1.9-0.7-3.4-1.9c-1.4-1.2-1.9-2.2-1.9-2.9c0-0.2,0.5-1.4,1.7-3.4C425.5,62.1,426.2,61.4,426.5,61.4
		L426.5,61.4L426.5,61.4L426.5,61.4z"/>
	<path class="st0" d="M385.7,58.3c24.2-9.1,49.4-18.2,75.4-27.8c0.7-0.2,1.2-0.5,1.2-0.2c0.2,0,0.2,0.5,0,1.2
		c-1,2.2-1.7,3.4-2.2,3.8c-0.2,0.2-12.5,4.8-36.2,13.7c-24.2,8.9-37.9,14.4-40.6,16.1C383.7,62.9,384.5,60.7,385.7,58.3L385.7,58.3
		L385.7,58.3L385.7,58.3z"/>
	<path class="st0" d="M362.1,14.6c0.5-1.4,0.5-2.9,0.2-4.3c-0.2-1.4-1-2.2-2.2-2.2c-0.5,0-1.2,0.2-2.2,0.7s-1.4,1-1.4,1.4
		C356.6,11.5,358.5,12.9,362.1,14.6L362.1,14.6L362.1,14.6L362.1,14.6z M359.3,20.9c-4.6-2.4-6.7-4.8-6.7-7.4c0-3.1,1.4-6,4.3-8.4
		c2.9-2.6,5.3-3.6,7.2-2.9c1.7,0.5,2.4,2.2,2.4,5c0,2.6-0.5,5.5-1.7,8.9c2.4,1.2,3.8,2.4,4.3,3.4c0,1.2-1,3.4-3.1,6.2
		c-0.5-1-1.9-2.2-4.1-3.4c-2.6,3.6-5.8,6.7-9.6,9.6c-4.6,3.1-8.6,5.8-12.2,7.2c-1,0.5-5.3,2.2-13,5c-1.2,0.5-2.2,0.7-2.4,0.7
		c-0.2,0-0.2-0.2-0.2-0.2c0-0.2,0.5-1,1.9-1.7c5.8-3.6,11.5-7,17.5-10.3C350.9,28.3,355.9,24.5,359.3,20.9L359.3,20.9L359.3,20.9
		L359.3,20.9z"/>
	<path class="st0" d="M510.9,50.6c0.5-1.4,0.5-2.9,0.2-4.3c-0.2-1.4-1-2.2-2.2-2.2c-0.5,0-1.2,0.2-2.2,0.7s-1.4,1-1.4,1.4
		C505.4,47.5,507.3,48.9,510.9,50.6L510.9,50.6L510.9,50.6L510.9,50.6z M516.2,59.5c-2.4,5.8-3.6,10.3-3.6,13.7c0,4.1,1,6.2,3.1,6.2
		c1.2,0,2.6-1.7,4.3-4.6c0.2-0.2,0.2-0.5,0.5-0.7c0,0,0.2,0,0.2,0.2c0,0,0,0.2,0,0.7c-1.4,7.2-3.6,10.8-6.5,10.8
		c-3.1,0-4.6-2.6-4.6-7.9c0-2.6,0.5-6,1.9-10.3c1.4-4.3,2.2-6.5,2.2-6.7c0-0.5-1-1.4-3.1-2.6c-3.8,5-9.1,9.8-15.8,13.9
		c-4.6,2.6-9.1,5-13.9,7c-8.9,3.6-14.2,5.5-15.4,6.2c-1.2,0.5-1.9,0.7-2.4,0.7c-0.2,0-0.2-0.2-0.2-0.2c0-0.5,0.5-1,1.9-1.9
		c7.7-4.3,15.1-8.6,22.8-13c10.1-5.8,17-10.6,20.4-14.2c-4.6-2.4-6.7-4.8-6.7-7.4c0-3.1,1.4-6,4.3-8.6c2.9-2.4,5.3-3.4,7.2-2.6
		c1.4,0.5,2.4,2.2,2.4,5c0,2.6-0.5,5.5-1.7,8.6c2.4,1.4,3.4,2.9,3.4,4.3C516.9,56.9,516.7,58.1,516.2,59.5L516.2,59.5L516.2,59.5
		L516.2,59.5z"/>
	<path class="st0" d="M403.9,28.1c0-0.2,0.2-0.5,0.2-0.5c0.2-0.2,0.2-0.2,0.2,0c0.2,0.2,0.2,0.5,0,0.7c-1.2,7.2-3.4,10.8-6.5,10.8
		s-4.6-2.6-4.6-7.9c0-6.5,1.7-13.4,5.5-20.4c1-1.7,1.4-2.6,1.7-2.6l0,0c0,0.2-0.2,1.2-0.7,2.9c-2.4,7.4-3.6,12.5-3.6,15.6
		c0,3.8,1,6,3.1,6C400.8,32.6,402.2,30.9,403.9,28.1L403.9,28.1L403.9,28.1L403.9,28.1z"/>
</g>
</svg>
