<?xml version="1.0" encoding="utf-8"?>
<!-- Generator: Adobe Illustrator 24.0.0, SVG Export Plug-In . SVG Version: 6.00 Build 0)  -->
<svg version="1.1" id="Layer_1" xmlns="http://www.w3.org/2000/svg" xmlns:xlink="http://www.w3.org/1999/xlink" x="0px" y="0px"
	 viewBox="0 0 521.8 205.3" style="enable-background:new 0 0 521.8 205.3;" xml:space="preserve">
<style type="text/css">
	.st0{fill:#C4692C;}
</style>
<g>
	<path class="st0" d="M274.3,25c0-4.8-0.7-8.6-2.2-11.8c0-1.7,1.2-5.8,4.1-12c0.2-0.7,0.5-1.2,0.7-1.2c0.5,0,0.7,0.5,1.2,1.2
		c0.7,1.7,2.4,6.2,5.3,13.7c3.1,7.9,4.8,12.7,5.3,14.6c0.5,1.2,0.5,2.4,0.5,2.9c0,2.2-1.9,1-6.2-3.8c-0.5-0.7-0.7-0.2-0.7,1
		c0,0.5,1.2,15.4,3.4,45.1c2.2,29.5,3.1,46.1,3.1,49.9c0,11.3-1.7,21.4-5,30c-1,1.7-1.4,2.9-1.9,3.8l0,0c-0.7,1.2-1,1.2-1.2,0.5
		c-0.2-1,0-2.9,0.2-5.5c0.5-4.1,0.7-8.6,0.7-13.7c0-4.8-1.2-24-3.6-57.8C275.5,48,274.3,29,274.3,25L274.3,25L274.3,25L274.3,25z"/>
	<path class="st0" d="M261.4,112.3c0,8.4-1.9,14.9-5.5,19.7c-3.1,4.1-6.7,6.2-10.8,6.2v-14.6c5.5,0,9.4-1.4,11-4.3
		c0-1.4-1-3.8-2.9-7c-1-1.4-1.2-2.9-1.2-4.3c0-0.7,1-4.1,2.6-10.3c0.5-1,1-1.7,1.2-1.7c0.5,0,1.2,1,1.9,2.4
		C260.2,103.4,261.4,108,261.4,112.3L261.4,112.3L261.4,112.3L261.4,112.3z"/>
	<path class="st0" d="M154.8,176.4c0-10.3,2.2-20.6,6.2-31.4c1-2.2,1.7-3.4,2.2-3.4c0.2,0,0.2,0.2,0.2,0.7c0,0.7-0.2,1.9-0.7,3.4
		c-2.9,10.6-4.3,18.5-4.3,24c0,4.8,1.4,9.4,4.6,13.4c3.6,5.3,8.4,7.7,13.9,7.7c6.7,0,15.1-2.6,25-7.9c7.9-4.3,15.6-9.6,23.5-15.8
		c6.7-5.8,10.8-9.6,11.8-11.8c0-8.2-2.4-16.8-7-25.9c-1-1.7-1.4-3.1-1.4-4.1c0-0.7,1-4.3,2.9-10.3c0.2-1.2,0.7-1.9,1.2-1.9
		s1,1,1.7,2.4c1.4,3.1,2.4,4.8,3.1,5.3c1.4,1.9,4.1,2.6,7.4,2.6V138c-1.7,0-2.9,0-3.6-0.5c0,17.8-2.6,29.8-7.9,35.8
		c-5.3,6.5-13.2,13-23.3,19.4c-12.7,8.2-23.8,12.2-32.9,12.2c-8.4,0-14.6-3.6-18.5-11C156,188.9,154.8,182.9,154.8,176.4
		L154.8,176.4L154.8,176.4L154.8,176.4z"/>
	<path class="st0" d="M205.9,26.4c0-4.8-0.7-8.6-2.2-11.8c0-1.7,1.2-5.8,4.1-12c0.2-0.7,0.5-1.2,0.7-1.2c0.5,0,0.7,0.5,1.2,1.2
		c0.7,1.7,2.4,6.2,5.3,13.7c3.1,7.9,4.8,12.7,5.3,14.6c0.5,1.2,0.5,2.4,0.5,2.9c0,2.2-1.9,1-6.2-3.8c-0.5-0.7-0.7-0.2-0.7,1
		c0,0.5,1.2,15.4,3.4,45.1c2.2,29.5,3.1,46.1,3.1,49.9c0,11.3-1.7,21.4-5,30c-1,1.7-1.4,2.9-1.9,3.8l0,0c-0.7,1.2-1,1.2-1.2,0.5
		c-0.2-1,0-2.9,0.2-5.5c0.5-4.1,0.7-8.6,0.7-13.7c0-4.8-1.2-24-3.6-57.8C207.1,49.4,205.9,30.5,205.9,26.4L205.9,26.4L205.9,26.4
		L205.9,26.4z"/>
	<path class="st0" d="M197.1,83.3c0,5.5-1.2,10.1-3.1,13.7c-1.4,2.4-3.1,4.1-4.6,5c-2.4,1.2-5.8,1.9-10.6,1.9
		c-7.4,0-14.9-1.2-22.1-3.4c-3.6,2.9-7.7,5.3-12.2,7.2c-5,2.2-9.1,3.4-12.7,3.4V96.5c4.8,0,8.9-1,12.2-2.4
		c-1.9-3.6-2.9-7.2-2.9-10.8c0-7.2,1.4-13.7,4.6-19.4c2.2-4.3,4.8-7.9,8.2-10.8c-0.5-2.6-0.2-6.2,0.7-10.8c0.2-1.4,0.5-1.9,1-1.9
		s1.2,0.2,2.6,1l13.9,7c1.7,1,2.4,1.7,2.4,2.4c0,1-1.2,1.4-3.6,1.4c-1,0-2.2-0.2-3.4-0.5c4.6,4.3,8.9,7.4,13,9.6
		c5.3,2.9,8.6,5.3,10.3,6.7C194.9,72,197.1,77,197.1,83.3L197.1,83.3L197.1,83.3L197.1,83.3z M190.8,83c-1-1.4-3.8-3.4-8.6-6.2
		c-5-2.9-8.6-5.3-10.6-7.2c0,5.3-1.2,11.5-4.1,19c5.8,1.7,11,2.4,15.8,2.4c6.2,0,9.4-1.2,9.4-3.1C192.7,86.6,192,85.2,190.8,83
		L190.8,83L190.8,83L190.8,83z M166.8,75.1c0-3.1-1.2-6.2-3.4-9.8c-1.9-3.1-3.6-4.8-5-4.8c-2.4,0-5,1.9-8.4,5.8
		c-3.4,3.8-4.8,7.4-4.8,10.6c0,2.6,1.4,4.8,4.6,6.7c2.4,1.7,5,2.6,8.2,3.1C163.7,83,166.8,79.2,166.8,75.1L166.8,75.1L166.8,75.1
		L166.8,75.1z"/>
	<path class="st0" d="M109.5,75.6c1.4,0,2.9,1.9,4.3,5.3c2.2,5,3.8,8.4,5.5,10.1c3.1,3.6,7.2,5.5,12.5,5.3v14.9
		c-6.2,0-11-1.9-14.9-5.5c-1.9-1.9-4.1-5.3-6-10.1c-1.7-3.4-3.1-5.3-4.3-5.3c-1.9,0-4.6,1.9-8.2,5.8c-4.1,4.1-6,7.4-6,10.3
		c0,2.6,1.2,5,3.6,7.7c0,0.7-0.7,1.4-2.2,2.2c-1.7,0.7-2.9,1.2-3.8,1.2c-0.5,0-0.7-0.2-0.7-0.2c-1.2-3.6-1.7-6.5-1.7-8.9
		c1-8.9,3.8-16.8,9.1-23.8C101.3,78.7,105.6,75.6,109.5,75.6L109.5,75.6L109.5,75.6L109.5,75.6z"/>
	<path class="st0" d="M18.5,177.8c-5,0-9.4-2.4-13-6.7C1.7,166.5,0,161,0,154.5c0-9.1,3.6-20.9,11-35.3c0.7-1.4,1.4-2.2,1.9-2.2
		c0.2,0,0.2,0,0.2,0.5c0,1.4-1.7,6.5-4.8,15.1c-3.4,8.6-4.8,15.6-4.8,20.6c0,3.8,0.7,7,2.6,9.4c1.9,2.4,4.6,3.6,7.9,3.6
		c5.5,0,10.8-1.9,15.6-5.5c6-5.3,12-10.3,18-15.6c9.8-7.9,19.2-14.2,28.1-18.7c6.7-3.1,11.8-4.8,15.1-4.8c-0.5-1-1-2.4-1.7-4.8
		c0-0.7,1-1.4,3.1-2.2c1.9-1,3.4-1.2,3.8-0.7c0.7,1.4,2.6,3.4,6,5.5c4.1,2.9,8.4,5,13.2,6.7c2.2,0.7,3.1,2.2,2.6,4.1l-1.7,9.6
		c-0.2,1.2-1.2,1.2-3.1,0c-5.3-2.9-11.8-4.3-19.4-4.3c-10.6,0-23,5.8-37.7,17.3c-7.7,6.2-15.1,12.5-22.6,18.5
		C27.9,175.7,22.8,177.8,18.5,177.8L18.5,177.8L18.5,177.8L18.5,177.8z"/>
	<path class="st0" d="M247.7,170.2c-0.2-0.2-0.2-0.5,0-1l4.6-9.6c0.2-0.5,0.7-0.7,1-0.7c0.5,0,2.6,1.2,6.2,3.6
		c3.8,2.6,5.8,4.1,5.8,4.6c0,1.7-1.7,5-5,10.3c-0.5,0.7-0.7,1-1.2,0.7C255.4,175.2,251.5,172.6,247.7,170.2L247.7,170.2L247.7,170.2
		L247.7,170.2z"/>
	<path class="st0" d="M296.7,171.8c-0.5,2.2-1,3.4-1.7,4.1c-2.6,1.7-8.6,5.5-17.8,11.8c-0.2,0.2-0.7,0.5-1.2,1
		c-0.2-0.2-0.2-0.2-0.2-0.7l0.5-3.1c0.2-0.7,1.7-2.2,4.6-4.3c-3.6-1.2-5.3-2.9-5.3-4.8c0-2.2,0.7-4.3,2.6-6.5
		c3.6-4.3,6.7-6.5,9.1-6.5c2.2,0,3.1,1.2,3.1,3.6c0,1.4-0.5,2.9-1.7,4.8c-0.2,0.5-0.5,0.5-1-0.2c-0.5-1.2-1.4-1.7-2.6-1.7
		c-0.7,0-1.7,0.2-2.9,1.2c-1.2,0.7-1.9,1.4-1.9,1.9c0,0.7,0.7,1.4,2.2,2.2c1.4,1,2.6,1.2,3.6,1.2c0.7,0,2.2-0.5,4.3-1.7
		c1.4-1,2.6-1.9,4.1-2.9c1.2-0.5,1.9-1,2.2-0.7C296.9,170.4,296.9,170.9,296.7,171.8L296.7,171.8L296.7,171.8L296.7,171.8z"/>
	<path class="st0" d="M253.5,73.9c0-1.2-2.4-3.4-7.4-6.2c-1.7,2.9-2.4,5.5-2.4,7.9c0,1.4,0.7,2.4,2.2,2.4c1.2,0,2.6-0.5,4.3-1.4
		C251.8,75.8,253,74.9,253.5,73.9L253.5,73.9L253.5,73.9L253.5,73.9z M248.2,54.7c0.7-1.2,1.7-1.7,2.4-1.7c0.5,0,1,0.2,1,0.7
		c0,0-0.2,0.2-0.2,0.5c-1,2.2-1.9,4.6-2.6,7c5,3.6,7.4,7.4,7.2,11c-0.5,4.1-1,6.7-1.7,7.7c-2.4,2.9-5,4.6-8.4,4.6s-4.8-2.2-4.8-6
		c0-0.7,0-1.7,0.2-2.6C242.4,68.2,244.8,61.2,248.2,54.7L248.2,54.7L248.2,54.7L248.2,54.7z"/>
	<path class="st0" d="M222.5,44.9c13.7-4.8,28.1-10.1,43.2-15.6c1-0.2,1.2-0.5,1.4-0.2c0.2,0,0.2,0.5-0.2,1.2
		c-0.7,2.2-1.4,3.4-1.9,3.8c-13,4.6-27.8,10.3-44.9,17.5C220.6,49.4,221.3,47.3,222.5,44.9L222.5,44.9L222.5,44.9L222.5,44.9z"/>
	<path class="st0" d="M167.8,125.5c9.6-3.4,19.9-7.2,31-11c1-0.2,1.2-0.5,1.4-0.2c0.2,0,0.2,0.5-0.2,1.2c-0.7,2.2-1.4,3.4-1.9,3.8
		c-9.6,3.4-20.4,7.4-32.6,13C165.9,130.1,166.6,127.9,167.8,125.5L167.8,125.5L167.8,125.5L167.8,125.5z"/>
	<path class="st0" d="M138,143c6.7,3.8,10.1,6.2,10.1,7.2c0,1.7-1.7,5-5,10.3c-0.5,0.7-0.7,1-1.2,0.7c-3.6-2.9-7.4-5.5-11.3-7.9
		c-0.2-0.2-0.2-0.5,0-1l4.6-9.6c-3.4-2.4-6.7-4.6-9.8-6.7c-0.2-0.2-0.2-0.5,0-1l4.6-9.6c0.2-0.5,0.7-0.7,1-0.7
		c0.5,0,2.6,1.2,6.2,3.6c3.8,2.6,5.8,4.1,5.8,4.6C142.8,134.6,141.1,137.8,138,143L138,143L138,143L138,143z"/>
	<path class="st0" d="M123.6,176.2c-1.2-2.9-3.4-4.8-6.5-6c0,2.6-0.2,4.8-1,6.5c0.5,0,2.9,0.5,7.2,1c0.2,0,0.5,0,0.5,0
		C124.1,177.4,124.1,176.9,123.6,176.2L123.6,176.2L123.6,176.2L123.6,176.2z M114,176.2c0.5-1.4,0.5-2.9,0-4.6s-1.2-2.4-2.4-2.4
		c-0.5,0-1.4,0.5-2.6,1.4c-1,1.2-1.7,2.2-1.7,2.6C107.3,174.7,109.5,175.7,114,176.2L114,176.2L114,176.2L114,176.2z M107.1,168.5
		c-1-3.1-0.7-5.3,0.5-6.5c1-1,2.2-1.4,3.4-1.4c1.4,0,2.9,0.2,4.6,1.2c5.8,3.1,9.6,7,11.5,11.5c0,0.2,0.2,0.7,0.2,1.2
		c0,1.7-0.5,3.4-1.7,5.5c-1,1.9-1.9,2.9-2.9,2.9c-0.2,0-2.9-0.2-7.9-0.7c-2.6,3.6-5.8,6.7-9.6,9.4c-4.3,3.4-8.4,5.8-12.2,7.4
		c-0.7,0.5-5,2.2-13,5c-1.2,0.5-1.9,0.7-2.4,0.7c-0.2,0-0.2-0.2-0.2-0.2c0-0.2,0.7-1,1.9-1.7c5.8-3.4,11.5-6.7,17.3-10.1
		c6.5-4.1,11.5-7.7,15.1-11c-4.3-1-6.5-3.1-6.5-6.2C105.1,173,105.6,170.6,107.1,168.5L107.1,168.5L107.1,168.5L107.1,168.5z"/>
	<path class="st0" d="M186.3,24.5c0-0.2,0.2-0.5,0.2-0.5c0.2-0.2,0.2-0.2,0.2,0c0.2,0.2,0.2,0.5,0,0.7c-1.2,7.2-3.4,10.8-6.5,10.8
		s-4.6-2.6-4.6-7.9c0-6.5,1.7-13.4,5.5-20.4c1-1.7,1.4-2.6,1.7-2.6l0,0c0,0.2-0.2,1.2-0.7,2.9c-2.4,7.4-3.6,12.5-3.6,15.6
		c0,3.8,1,6,3.1,6C183.1,29,184.6,27.4,186.3,24.5L186.3,24.5L186.3,24.5L186.3,24.5z"/>
	<path class="st0" d="M19,109.2c0-0.2,0.2-0.5,0.2-0.5c0.2-0.2,0.2-0.2,0.2,0c0.2,0.2,0.2,0.5,0,0.7c-1.2,7.2-3.4,10.8-6.5,10.8
		s-4.6-2.6-4.6-7.9c0-6.5,1.7-13.4,5.5-20.4c1-1.7,1.4-2.6,1.7-2.6l0,0c0,0.2-0.2,1.2-0.7,2.9c-2.4,7.4-3.6,12.5-3.6,15.6
		c0,3.8,1,6,3.1,6C15.9,113.8,17.3,112.1,19,109.2L19,109.2L19,109.2L19,109.2z"/>
	<path class="st0" d="M42.7,75.1c-0.5-2.9-1.7-6.2-3.4-10.3c-1.7-4.1-3.1-6.2-3.8-6.2c-0.5,0-0.7,0-1,0.5c-0.2,0.2-0.5,0.5-1.2,0.5
		c-1,0-1.9-0.7-3.4-1.9c-1.4-1.2-1.9-2.2-1.9-2.9c0-0.2,0.5-1.4,1.7-3.4c1-1.9,1.7-2.6,1.9-2.6c2.9,0,5.3,1.4,7.4,4.8
		c2.2,3.1,3.8,7.4,4.6,12.7c0.2,0.5,0.2,0.7,0.2,1H44c0-0.2,0.2-0.5,0.2-1c0.5-3.1,1.7-7.9,3.4-14.2c1.9-4.3,3.8-6.5,6-6.5
		c1.2,0,2.4,0.7,3.4,2.2c1,1.4,1.4,2.4,1.4,3.4c0,0.5,0,1.4-0.5,2.4c-0.5,1.4-1,2.2-1.4,2.2c-0.2,0-0.7-0.7-1.7-1.7
		c-0.7-1-1.7-1.4-2.6-1.4c-1.9,0-3.6,4.6-5.3,13.7c-0.7,3.6-1.4,6.5-2.6,8.6c1.7,0,3.6,1.2,6.2,3.1c2.4,2.2,3.8,3.8,4.1,5.3
		c0,0.5-0.2,1.4-1,3.1c-0.7,1.7-1.2,2.4-1.7,2.6c-2.4,0.7-4.8,1.2-7.2,1.9c-2.9,1-5,2.2-6.2,3.4c3.4,10.1,5,19.9,5,29.8
		c0,2.9-0.5,5.8-1,8.9c-0.2,1-0.5,1.4-0.7,1.7c-0.2,0-0.2-1.9-0.2-5.3c0-5.5-1-12.5-2.6-20.4c-1.4-7.9-2.4-12.5-2.4-13.7
		c0-4.1,1.2-7,3.4-8.9c1.2-0.7,3.1-1.7,6.2-2.6c-1.2-1.2-2.4-1.7-3.6-1.7c-0.5,0-1.2,0.7-2.2,1.9c-1.2,1.2-1.7,1.9-1.9,1.9
		s-0.2-0.5,0-1.7C39.1,79.2,40.6,76.1,42.7,75.1L42.7,75.1L42.7,75.1L42.7,75.1z"/>
	<path class="st0" d="M110.7,18.7c2.9,0,5.3,1.4,7.4,4.8c2.2,3.1,3.8,7.4,4.6,12.7c0.2,0.5,0.2,0.7,0.2,1h0.2c0-0.2,0.2-0.5,0.2-1
		c0.5-3.1,1.7-7.9,3.4-14.2c1.9-4.3,3.8-6.5,6-6.5c1.2,0,2.4,0.7,3.4,2.2c1,1.4,1.4,2.4,1.4,3.4c0,0.5,0,1.4-0.5,2.4
		c-0.5,1.4-1,2.2-1.4,2.2c-0.2,0-0.7-0.7-1.7-1.7c-0.7-1-1.7-1.4-2.6-1.4c-1.9,0-3.6,4.6-5.3,13.7c-0.7,4.1-1.7,7-2.4,8.6
		c-0.7,1-1.2,1.7-1.7,1.7s-0.5-0.7-0.7-1.7c0.2-1.7-0.7-4.8-2.6-9.4c-1.9-4.8-3.1-7-4.1-7c-0.5,0-0.7,0-1,0.5
		c-0.2,0.2-0.5,0.5-1.2,0.5c-1,0-1.9-0.7-3.4-1.9c-1.4-1.2-1.9-2.2-1.9-2.9c0-0.2,0.5-1.4,1.7-3.4C109.7,19.4,110.4,18.7,110.7,18.7
		L110.7,18.7L110.7,18.7L110.7,18.7z"/>
	<path class="st0" d="M75.1,181.2c0-0.2,0.2-0.5,0.2-0.5c0.2-0.2,0.2-0.2,0.2,0c0.2,0.2,0.2,0.5,0,0.7c-1.2,7.2-3.4,10.8-6.5,10.8
		s-4.6-2.6-4.6-7.9c0-6.5,1.7-13.4,5.5-20.4c1-1.7,1.4-2.6,1.7-2.6l0,0c0,0.2-0.2,1.2-0.7,2.9c-2.4,7.4-3.6,12.5-3.6,15.6
		c0,3.8,1,6,3.1,6C72,185.8,73.5,184.1,75.1,181.2L75.1,181.2L75.1,181.2L75.1,181.2z"/>
	<path class="st0" d="M72.3,56.4c9.6-3.4,19.9-7.2,31-11c1-0.2,1.2-0.5,1.4-0.2c0.2,0,0.2,0.5-0.2,1.2c-0.7,2.2-1.4,3.4-1.9,3.8
		c-9.6,3.4-20.4,7.4-32.6,13C70.3,61,71.1,58.8,72.3,56.4L72.3,56.4L72.3,56.4L72.3,56.4z"/>
	<path class="st0" d="M463,116.4c1.2-1,2.2-1.4,2.9-1.4c0.5,0,0.7,0.5,0.7,1.4c0,0.7-0.2,2.2-0.7,4.1s-0.7,3.4-0.7,4.6
		c0,5.3,3.8,8.2,11.3,8.2c6,0,11-2.6,14.9-7.7c2.4-4.1,5-7.9,7.4-11.8c1-1,1.7-1.4,2.4-1.4c1,0,1.2,1,0.7,3.1c-1,4.1-1.7,6-1.7,5.5
		c0,1.7,1,3.4,2.9,4.8c1.7,1.4,4.1,2.4,6.7,2.4c3.4,0,5.5-1,6.5-2.6c0-0.2-1-2.2-3.1-5.8c0.2-1.9,1.2-5.3,2.6-9.8
		c0.2-1.4,0.7-2.2,1.2-2.2s1,0.2,1.7,1.2c1.9,2.9,3.1,6.2,3.1,10.1c0,6-1.4,11-4.1,15.4c-2.9,5.3-7.2,7.9-13,7.9
		c-3.8,0-7.4-3.1-10.6-8.9c-5.3,9.6-12.2,14.4-20.6,14.4c-10.1,0-14.9-5.8-14.9-16.8c-3.8,4.6-10.3,8.6-18.7,12.5v-13.2
		c6.2-3.1,10.3-5,11.5-5.8C455.3,122.6,459.1,119.8,463,116.4L463,116.4L463,116.4L463,116.4z"/>
	<path class="st0" d="M426.3,132.2c-3.6-4.6-6.7-6.7-9.6-6.7c-4.3,0-6.2,1-6.2,3.4c0,2.9,2.9,4.3,8.6,4.3
		C421.2,133.2,423.6,132.7,426.3,132.2L426.3,132.2L426.3,132.2L426.3,132.2z M433.7,149.8c0-1.4-0.5-3.1-1-4.8
		c-2.9,1-7.2,1.7-12.5,1.7c-11.5,0-17.3-4.1-17.3-12c0-6,1.7-11.3,5.5-16.1c3.6-4.1,7.4-6.2,11.5-6.2c3.1,0,6.2,1.9,9.8,5.5
		c3.1,3.6,6,7.7,8.4,12.7c0.2,0,0.7,0,1.7-0.5v13.2l-0.5,0.5c0,2.9-0.7,6.2-2.2,10.6c-1.7,5.5-4.3,10.1-7.4,13.7
		c-7.2,8.6-15.1,16.1-23.8,22.6c-13,9.6-24,14.6-33.6,14.6c-8.2,0-14.4-3.1-18.7-9.1c-3.8-5-5.8-11.8-5.8-19.7
		c0-10.1,2.2-20.4,6.2-31.2c1.2-2.4,1.7-3.4,2.2-3.4c0.2,0,0.2,0.2,0.2,0.7c0,0.7-0.2,1.9-0.5,3.4c-3.1,10.6-4.6,18.5-4.6,24
		c0,5,1.2,9.4,3.6,13c3.8,5,9.8,7.7,18.2,7.7c7.2,0,15.8-3.1,26.2-9.4c8.2-5,16.1-11,23.8-18.2C430.1,156.2,433.7,151.9,433.7,149.8
		L433.7,149.8L433.7,149.8L433.7,149.8z"/>
	<path class="st0" d="M368.4,113.3c-0.5-2.2-1.2-3.8-2.2-5c-0.7-1.4-1.2-2.2-1.4-2.6c0-0.5,0-2.2,0.5-5.5c0.5-3.1,0.7-5.3,1.2-6.5
		c0.2-1.2,0.5-1.7,1-1.7c0.2,0,0.5,0.2,1,0.7c3.4,3.8,7,7.7,11,11.8c1.7,1.7,2.4,2.6,2.4,3.1c0,0.2-0.2,0.5-0.7,0.5
		c-0.7,0-2.6-0.5-5.5-1.2c1.7,4.1,3.6,8.2,5.3,12c2.6,6.7,4.1,12.2,4.1,17.3c0,2.4-0.5,5.3-1.4,8.9c-1.2,4.1-2.6,7.2-4.6,9.4
		c-7,7.9-18.7,16.6-35.3,25.9c-14.4,8.4-22.8,12.5-25.4,12.5c-0.5,0-7.7,1.7-21.4,5c-14.4,3.4-23.5,5.5-27.1,6c-3.8,0.7-6.2,1-7.2,1
		c-0.5,0-0.5,0-0.5-0.2s2.6-1.7,7.9-4.1c1.9-1,13-5.8,33.4-14.4c14.2-6,25.9-11.5,35.3-16.6c14.2-7.7,25-14.4,32.4-19.9
		c5.5-4.3,8.4-7.4,8.4-9.4c0-0.5-1.4-3.8-4.3-10.1C372,123.1,369.6,117.4,368.4,113.3L368.4,113.3L368.4,113.3L368.4,113.3z"/>
	<path class="st0" d="M348.5,79.9c0,3.8-1.9,9.1-5.8,15.6c-2.4,4.1-6,9.6-10.8,16.8c4.8,5.5,8.2,10.6,9.8,14.9
		c1,3.1,1.7,7.2,1.7,11.8c0,1.9-0.5,4.3-1.4,7.4c-0.7,2.9-1.7,5-2.6,6.5c-1.9,2.9-5,5.8-9.8,8.6c-5,3.4-9.4,5-13,5
		c-5.8,0-8.6-4.3-8.6-13c0-5.8,1-11.5,2.9-16.8c1.9-4.6,5-10.6,10.1-18.5c-4.3-4.1-8.9-9.8-13.9-17c-0.5-0.7-1.7-1.9-3.6-3.8
		c-1-1-1.4-2.2-1.4-3.6c0-2.2,0.2-4.6,0.7-7.4c0.7-2.9,1.2-4.1,1.4-4.1c0.7,0,2.9,1.2,7,3.8c3.8,2.6,7,4.6,8.9,6.2
		c1.2,0.7,1.7,1.4,1.7,1.4v0.2c0,0.2-0.7,0.5-2.4,0.5c-3.1,0-4.8,0.2-4.8,0.5c0,0.2,0.5,0.7,1.4,1.9c3.8,4.8,7.7,8.4,11.8,11.3
		c1-1.4,4.3-6.2,9.6-14.4c4.6-7,7.2-11.8,8.4-14.6c1.2-2.9,1.9-4.1,2.4-4.1C348.3,75.1,348.5,76.6,348.5,79.9L348.5,79.9L348.5,79.9
		L348.5,79.9z M339.1,139c-2.6-5.3-7.2-10.8-13.4-16.1c-2.2,2.2-4.8,6.2-8.2,12c-3.8,6.5-5.5,10.6-5.5,12.7c0,2.9,1.9,4.3,6.2,4.3
		c1.9,0,4.3-0.7,7.4-1.9c4.3-1.9,8.4-4.6,11.8-7.9C338.9,140.6,339.4,139.7,339.1,139L339.1,139L339.1,139L339.1,139z"/>
	<path class="st0" d="M325.9,61.9l3.8-7.9c0.2-0.5,0.5-0.7,1-0.7s2.4,1.2,6.2,3.8c3.6,2.4,5.5,3.8,5.5,4.3c0,1.7-1.7,5.3-4.8,10.6
		c-0.5,0.7-1,0.7-1.4,0.5c-3.1-2.4-6.7-4.8-10.8-7.4c-1.4,2.9-2.6,5.5-4.1,7.7c-0.2,0.7-0.7,1-1.2,0.7c-3.6-2.9-7.4-5.5-11.3-7.9
		c-0.2-0.2-0.2-0.5,0-1l4.6-9.6c0.2-0.5,0.7-1,1-1c0.5,0,2.2,1.2,5.3,3.4C322.8,59.3,325,61,325.9,61.9L325.9,61.9L325.9,61.9
		L325.9,61.9z"/>
	<path class="st0" d="M452.2,195.8c-2.6,0.7-4.1,1.2-4.6,1.2v-0.2c0,0,1-0.7,2.9-1.9c1.9-1.2,4.8-3.1,8.9-6.2c1.9-1.9,4.8-5,8.4-9.4
		c2.4-2.9,5-5.5,7.9-7.4c3.6-2.6,7-3.8,10.6-3.8c0.7,0,1.9,0.2,3.4,0.7c1.2,0.5,2.4,0.7,3.4,0.7c1.9,0,3.4-0.7,4.6-2.2
		c0.7-1.4,1.7-2.6,2.6-4.1c0.5-1,1.2-1.4,1.7-1.4c0.2,0,0.2,0.2,0.2,0.7s-0.2,1.7-0.7,3.1c-0.5,0.7,1.4,1,5,1c0.5,0,0.7,0,0.7-0.2
		c0,0-0.2-1-0.7-2.6c-0.2-0.5,0-1.2,0.7-2.2c1-1.7,1.4-2.4,1.7-2.2c1,0.7,1.4,2.2,1.4,3.8c0,1.7-0.5,3.4-1.2,5.3
		c-0.7,2.2-1.4,3.4-1.9,3.8c-1.7,1-4.3,0.7-7.9-1c-2.9,2.9-5.8,4.6-8.6,4.6c-0.7,0-1.9-0.2-3.1-0.7c-1.2-0.5-2.2-0.7-2.9-0.7
		c-4.8,0-9.8,2.2-14.9,7c-3.6,3.6-7.2,7.2-10.8,10.8C456.7,193.9,454.6,195.1,452.2,195.8L452.2,195.8L452.2,195.8L452.2,195.8z"/>
	<path class="st0" d="M400.8,66.2c2.9,0,5.3,1.4,7.4,4.8c2.2,3.1,3.8,7.4,4.6,12.7c0.2,0.5,0.2,0.7,0.2,1h0.2c0-0.2,0.2-0.5,0.2-1
		c0.5-3.1,1.7-7.9,3.4-14.2c1.9-4.3,3.8-6.5,6-6.5c1.2,0,2.4,0.7,3.4,2.2c1,1.4,1.4,2.4,1.4,3.4c0,0.5,0,1.4-0.5,2.4
		c-0.5,1.4-1,2.2-1.4,2.2c-0.2,0-0.7-0.7-1.7-1.7c-0.7-1-1.7-1.4-2.6-1.4c-1.9,0-3.6,4.6-5.3,13.7c-0.7,4.1-1.7,7-2.4,8.6
		c-0.7,1-1.2,1.7-1.7,1.7s-0.5-0.7-0.7-1.7c0.2-1.7-0.7-4.8-2.6-9.4c-1.9-4.8-3.1-7-4.1-7c-0.5,0-0.7,0-1,0.5
		c-0.2,0.2-0.5,0.5-1.2,0.5c-1,0-1.9-0.7-3.4-1.9c-1.4-1.2-1.9-2.2-1.9-2.9c0-0.2,0.5-1.4,1.7-3.4C399.9,67,400.6,66.2,400.8,66.2
		L400.8,66.2L400.8,66.2L400.8,66.2z"/>
	<path class="st0" d="M360,63.1c24.2-9.1,49.4-18.2,75.4-27.8c0.7-0.2,1.2-0.5,1.2-0.2c0.2,0,0.2,0.5,0,1.2c-1,2.2-1.7,3.4-2.2,3.8
		c-0.2,0.2-12.5,4.8-36.2,13.7c-24.2,8.9-37.9,14.4-40.6,16.1C358.1,67.7,358.8,65.5,360,63.1L360,63.1L360,63.1L360,63.1z"/>
	<path class="st0" d="M336.5,19.2c0.5-1.4,0.5-2.9,0.2-4.3c-0.2-1.4-1-2.2-2.2-2.2c-0.5,0-1.2,0.2-2.2,0.7s-1.4,1-1.4,1.4
		C331,16.1,332.9,17.5,336.5,19.2L336.5,19.2L336.5,19.2L336.5,19.2z M333.6,25.4c-4.6-2.4-6.7-4.8-6.7-7.4c0-3.1,1.4-6,4.3-8.4
		c2.9-2.6,5.3-3.6,7.2-2.9c1.7,0.5,2.4,2.2,2.4,5c0,2.6-0.5,5.5-1.7,8.9c2.4,1.2,3.8,2.4,4.3,3.4c0,1.2-1,3.4-3.1,6.2
		c-0.5-1-1.9-2.2-4.1-3.4c-2.6,3.6-5.8,6.7-9.6,9.6c-4.6,3.1-8.6,5.8-12.2,7.2c-1,0.5-5.3,2.2-13,5c-1.2,0.5-2.2,0.7-2.4,0.7
		c-0.2,0-0.2-0.2-0.2-0.2c0-0.2,0.5-1,1.9-1.7c5.8-3.6,11.5-7,17.5-10.3C325.2,32.9,330.3,29,333.6,25.4L333.6,25.4L333.6,25.4
		L333.6,25.4z"/>
	<path class="st0" d="M485.3,55.4c0.5-1.4,0.5-2.9,0.2-4.3c-0.2-1.4-1-2.2-2.2-2.2c-0.5,0-1.2,0.2-2.2,0.7s-1.4,1-1.4,1.4
		C479.8,52.3,481.7,53.8,485.3,55.4L485.3,55.4L485.3,55.4L485.3,55.4z M490.6,64.3c-2.4,5.8-3.6,10.3-3.6,13.7c0,4.1,1,6.2,3.1,6.2
		c1.2,0,2.6-1.7,4.3-4.6c0.2-0.2,0.2-0.5,0.5-0.7c0,0,0.2,0,0.2,0.2c0,0,0,0.2,0,0.7c-1.4,7.2-3.6,10.8-6.5,10.8
		c-3.1,0-4.6-2.6-4.6-7.9c0-2.6,0.5-6,1.9-10.3s2.2-6.5,2.2-6.7c0-0.5-1-1.4-3.1-2.6c-3.8,5-9.1,9.8-15.8,13.9
		c-4.6,2.6-9.1,5-13.9,7c-8.9,3.6-14.2,5.5-15.4,6.2c-1.2,0.5-1.9,0.7-2.4,0.7c-0.2,0-0.2-0.2-0.2-0.2c0-0.5,0.5-1,1.9-1.9
		c7.7-4.3,15.1-8.6,22.8-13c10.1-5.8,17-10.6,20.4-14.2c-4.6-2.4-6.7-4.8-6.7-7.4c0-3.1,1.4-6,4.3-8.6c2.9-2.4,5.3-3.4,7.2-2.6
		c1.4,0.5,2.4,2.2,2.4,5c0,2.6-0.5,5.5-1.7,8.6c2.4,1.4,3.4,2.9,3.4,4.3C491.3,61.7,491.1,62.9,490.6,64.3L490.6,64.3L490.6,64.3
		L490.6,64.3z"/>
	<path class="st0" d="M378.3,32.6c0-0.2,0.2-0.5,0.2-0.5c0.2-0.2,0.2-0.2,0.2,0c0.2,0.2,0.2,0.5,0,0.7c-1.2,7.2-3.4,10.8-6.5,10.8
		s-4.6-2.6-4.6-7.9c0-6.5,1.7-13.4,5.5-20.4c1-1.7,1.4-2.6,1.7-2.6l0,0c0,0.2-0.2,1.2-0.7,2.9c-2.4,7.4-3.6,12.5-3.6,15.6
		c0,3.8,1,6,3.1,6C375.1,37.2,376.6,35.5,378.3,32.6L378.3,32.6L378.3,32.6L378.3,32.6z"/>
</g>
</svg>
