<?xml version="1.0" encoding="utf-8"?>
<!-- Generator: Adobe Illustrator 24.0.0, SVG Export Plug-In . SVG Version: 6.00 Build 0)  -->
<svg version="1.1" id="Layer_1" xmlns="http://www.w3.org/2000/svg" xmlns:xlink="http://www.w3.org/1999/xlink" x="0px" y="0px"
	 viewBox="0 0 398.2 200.9" style="enable-background:new 0 0 398.2 200.9;" xml:space="preserve">
<style type="text/css">
	.st0{fill:#C4692C;}
</style>
<g>
	<path class="st0" d="M165.6,118.3c0-1.2-2.2-2.6-6-4.3c-4.1-1.9-7.4-2.9-9.8-2.9c-1.7,0-2.4,0.5-2.2,1.2c1,1.9,2.6,5.5,5,10.6
		C159.4,120.7,163.7,119,165.6,118.3L165.6,118.3L165.6,118.3L165.6,118.3z M108.7,147.1c13.4-10.6,26.4-17.8,38.6-21.8
		c-0.7-1.4-2.2-4.1-3.8-7.4c-0.7-1.7-1-3.6-1-6c0-3.8,1-7,2.6-9.6c2.4-3.1,5.8-4.8,10.3-4.8c3.6,0,8.6,2.2,15.1,6.7
		c7,4.8,10.3,8.6,10.3,11.8c-1,4.1-2.2,7.9-3.6,11.8c-5.5,1.7-12.2,3.6-20.2,6.2c0.2,4.3-0.2,6.7-1.4,6.7c-0.7,0-1.7-1.7-2.6-5
		c-3.6,1.2-8.9,3.4-15.4,6.2c-9.1,4.3-16.3,8.4-21.1,12.2c-7,5.5-15.1,12.7-24.2,21.8c-9.6,9.6-15.6,15.4-18.5,17.8
		c-6,4.8-11.3,7.2-15.8,7.2c-4.8,0-9.1-2.2-12.7-6.5c-3.8-4.6-5.5-10.1-5.5-16.6c0-9.1,3.6-20.9,11-35.3c0.7-1.7,1.4-2.4,1.9-2.4
		c0,0,0.2,0.2,0.2,0.7c0,1.4-1.7,6.5-4.8,15.1c-3.4,8.6-5,15.6-5,20.4c0,3.8,1,7,2.9,9.4s4.6,3.6,7.9,3.6c4.8,0,10.6-2.4,17.5-7.7
		c4.1-3.1,10.3-8.9,18.7-17.3C98.7,156,104.9,150.2,108.7,147.1L108.7,147.1L108.7,147.1L108.7,147.1z"/>
	<g>
		<path class="st0" d="M89.3,102c-2.6-8.2-4.6-16.3-5.5-24.5c-0.2-1.4-0.2-2.2-0.5-2.6c-0.2-1-1-2.2-1.9-3.4l3.4-8.2
			c0.5-1.2,1-1.9,1.4-1.9c0.2,0,1,0.7,1.7,1.9l8.4,13.4c1.2,1.9,1.7,3.4,1.7,4.1c0,0.5-0.2,1-0.7,1c-1.2,0-2.9-1-5.5-2.6
			c0.7,5.3,2.4,11.8,5,19.7c0,0.5-1,1.2-2.6,2.2c-1.7,0.7-3.1,1.2-4.1,1.2C89.5,102.2,89.3,102.2,89.3,102L89.3,102L89.3,102
			L89.3,102z"/>
	</g>
	<path class="st0" d="M18.5,162.7c-5,0-9.4-2.4-13-6.7C1.7,151.4,0,145.9,0,139.4c0-9.1,3.6-20.9,11-35.3c0.7-1.4,1.4-2.2,1.9-2.2
		c0.2,0,0.2,0,0.2,0.5c0,1.4-1.7,6.5-4.8,15.1c-3.4,8.6-4.8,15.6-4.8,20.6c0,3.8,0.7,7,2.6,9.4c1.9,2.4,4.6,3.6,7.9,3.6
		c5.5,0,10.8-1.9,15.6-5.5c6-5,12-10.3,18-15.6c9.8-7.9,19-14.2,27.8-18.5c6.5-3.4,11.5-5,14.6-5c-0.2-0.7-0.5-2.4-1-4.8
		c0-0.7,1.2-1.4,3.4-2.2c2.4-1,3.8-1.2,4.3-0.7c0.5,1.9,2.6,4.1,6,6.2c3.4,2.4,7.7,4.3,12.5,6c2.2,0.7,3.1,2.2,2.6,4.1l-1.7,9.6
		c-0.2,1.2-1.2,1.2-3.1,0c-5.3-2.9-11.8-4.3-19.4-4.3c-10.6,0-23,5.8-37.7,17.3c-7.7,6.2-15.1,12.5-22.6,18.5
		C27.9,160.5,22.8,162.7,18.5,162.7L18.5,162.7L18.5,162.7L18.5,162.7z"/>
	<path class="st0" d="M78.7,144.9l3.8-7.9c0.2-0.5,0.5-0.7,1-0.7s2.4,1.2,6.2,3.8c3.6,2.4,5.5,3.8,5.5,4.3c0,1.7-1.7,5.3-4.8,10.6
		c-0.5,0.7-1,0.7-1.4,0.5c-3.1-2.4-6.7-4.8-10.8-7.4c-1.4,2.9-2.6,5.5-4.1,7.7c-0.2,0.7-0.7,1-1.2,0.7c-3.6-2.9-7.4-5.5-11.3-7.9
		c-0.2-0.2-0.2-0.5,0-1l4.6-9.6c0.2-0.5,0.7-1,1-1c0.5,0,2.2,1.2,5.3,3.4C75.6,142.3,77.8,144,78.7,144.9L78.7,144.9L78.7,144.9
		L78.7,144.9z"/>
	<path class="st0" d="M113.1,83.7c18.5-6.7,37.7-13.9,57.8-21.4c0.7-0.2,1.2-0.5,1.4-0.2c0,0,0,0.5-0.2,1.2c-1,2.2-1.7,3.4-2.2,3.8
		c-16.8,6.2-36.7,13.9-59.3,23.3C111.1,88.3,111.9,86.1,113.1,83.7L113.1,83.7L113.1,83.7L113.1,83.7z"/>
	<path class="st0" d="M131.1,55.2c0-1.2-2.4-3.4-7.4-6.2c-1.7,2.9-2.4,5.5-2.4,7.9c0,1.4,0.7,2.4,2.2,2.4c1.2,0,2.6-0.5,4.3-1.4
		C129.4,57.1,130.6,56.1,131.1,55.2L131.1,55.2L131.1,55.2L131.1,55.2z M125.8,36c0.7-1.2,1.7-1.7,2.4-1.7c0.5,0,1,0.2,1,0.7
		c0,0-0.2,0.2-0.2,0.5c-1,2.2-1.9,4.6-2.6,7c5,3.6,7.4,7.4,7.2,11c-0.5,4.1-1,6.7-1.7,7.7c-2.4,2.9-5,4.6-8.4,4.6s-4.8-2.2-4.8-6
		c0-0.7,0-1.7,0.2-2.6C120,49.4,122.4,42.4,125.8,36L125.8,36L125.8,36L125.8,36z"/>
	<path class="st0" d="M77.1,32.8c18.5-6.7,37.7-13.9,57.8-21.4c0.7-0.2,1.2-0.5,1.4-0.2c0,0,0,0.5-0.2,1.2c-1,2.2-1.7,3.4-2.2,3.8
		c-16.8,6.2-36.7,13.9-59.3,23.3C75.1,37.4,75.9,35.2,77.1,32.8L77.1,32.8L77.1,32.8L77.1,32.8z"/>
	<path class="st0" d="M21.4,93.1c0-0.2,0.2-0.5,0.2-0.5c0.2-0.2,0.2-0.2,0.2,0c0.2,0.2,0.2,0.5,0,0.7c-1.2,7.2-3.4,10.8-6.5,10.8
		s-4.6-2.6-4.6-7.9c0-6.5,1.7-13.4,5.5-20.4c1-1.7,1.4-2.6,1.7-2.6l0,0c0,0.2-0.2,1.2-0.7,2.9c-2.4,7.4-3.6,12.5-3.6,15.6
		c0,3.8,1,6,3.1,6C18.3,97.6,19.7,96,21.4,93.1L21.4,93.1L21.4,93.1L21.4,93.1z"/>
	<path class="st0" d="M153.9,169.2c0-0.7-0.5-1.7-1.4-2.6c-0.7-1-1.7-1.4-2.4-1.4c-1.2,0-2.2,0.5-2.9,1.7c1.2,1.2,3.1,2.4,5.8,3.6
		c0.5,0.2,0.7,0.2,1,0C154.1,170.4,154.1,169.9,153.9,169.2L153.9,169.2L153.9,169.2L153.9,169.2z M143.3,164.8
		c0.5-0.7,1-0.7,1.4-0.2c1.9-3.6,3.8-5.5,6-5.5c1.4,0,2.9,0.7,4.1,2.6c1.4,1.7,1.9,3.8,1.9,6c0,1,0,1.7-0.2,2.6
		c-0.7,3.8-1.9,5.8-3.6,5.8c-1.4,0-3.4-1-5.5-2.4c-2.2-1.2-3.6-2.6-4.6-3.8c-1.4,4.1-3.1,7.4-5.3,9.8c-3.8,4.3-8.6,7.9-15.1,11.3
		c-4.8,2.9-7.9,4.1-9.4,4.1c0,0-2.9,0.7-8.4,1.9c-5.8,1.4-9.4,2.4-10.8,2.6c-2.2,0.2-3.1,0.2-3.1,0.2c0-0.2,1-0.7,3.1-1.7
		c6-2.4,15.1-6.5,27.6-12.5c8.9-4.8,14.6-9.1,17-12.7C139.7,170.8,141.1,168,143.3,164.8L143.3,164.8L143.3,164.8L143.3,164.8z"/>
	<path class="st0" d="M49.7,54.9c-0.5-2.9-1.7-6.2-3.4-10.3s-3.1-6.2-3.8-6.2c-0.5,0-0.7,0-1,0.5c-0.2,0.2-0.5,0.5-1.2,0.5
		c-1,0-1.9-0.7-3.4-1.9c-1.4-1.2-1.9-2.2-1.9-2.9c0-0.2,0.5-1.4,1.7-3.4c1-1.9,1.7-2.6,1.9-2.6c2.9,0,5.3,1.4,7.4,4.8
		c2.2,3.1,3.8,7.4,4.6,12.7c0.2,0.5,0.2,0.7,0.2,1H51c0-0.2,0.2-0.5,0.2-1c0.5-3.1,1.7-7.9,3.4-14.2c1.9-4.3,3.8-6.5,6-6.5
		c1.2,0,2.4,0.7,3.4,2.2c1,1.4,1.4,2.4,1.4,3.4c0,0.5,0,1.4-0.5,2.4c-0.5,1.4-1,2.2-1.4,2.2c-0.2,0-0.7-0.7-1.7-1.7
		c-0.7-1-1.7-1.4-2.6-1.4c-1.9,0-3.6,4.6-5.3,13.7c-0.7,3.6-1.4,6.5-2.6,8.6c1.7,0,3.6,1.2,6.2,3.1c2.4,2.2,3.8,3.8,4.1,5.3
		c0,0.5-0.2,1.4-1,3.1s-1.2,2.4-1.7,2.6c-2.4,0.7-4.8,1.2-7.2,1.9c-2.9,1-5,2.2-6.2,3.4c3.4,10.1,5,19.9,5,29.8c0,2.9-0.5,5.8-1,8.9
		c-0.2,1-0.5,1.4-0.7,1.7c-0.2,0-0.2-1.9-0.2-5.3c0-5.5-1-12.5-2.6-20.4c-1.4-7.9-2.4-12.5-2.4-13.7c0-4.1,1.2-7,3.4-8.9
		c1.2-0.7,3.1-1.7,6.2-2.6C52,62.5,50.8,62,49.6,62c-0.5,0-1.2,0.7-2.2,1.9c-1.2,1.2-1.7,1.9-1.9,1.9s-0.2-0.5,0-1.7
		C46.1,59,47.5,55.9,49.7,54.9L49.7,54.9L49.7,54.9L49.7,54.9z"/>
	<path class="st0" d="M164.9,19.9c0-0.2,0.2-0.5,0.2-0.5c0.2-0.2,0.2-0.2,0.2,0c0.2,0.2,0.2,0.5,0,0.7c-1.2,7.2-3.4,10.8-6.5,10.8
		s-4.6-2.6-4.6-7.9c0-6.5,1.7-13.4,5.5-20.4c1-1.7,1.4-2.6,1.7-2.6l0,0c0,0.2-0.2,1.2-0.7,2.9c-2.4,7.4-3.6,12.5-3.6,15.6
		c0,3.8,1,6,3.1,6C161.8,24.4,163.2,22.8,164.9,19.9L164.9,19.9L164.9,19.9L164.9,19.9z"/>
	<path class="st0" d="M339.4,110.6c1.2-1,2.2-1.4,2.9-1.4c0.5,0,0.7,0.5,0.7,1.4c0,0.7-0.2,2.2-0.7,4.1s-0.7,3.4-0.7,4.6
		c0,5.3,3.8,8.2,11.3,8.2c6,0,11-2.6,14.9-7.7c2.4-4.1,5-7.9,7.4-11.8c1-1,1.7-1.4,2.4-1.4c1,0,1.2,1,0.7,3.1c-1,4.1-1.7,6-1.7,5.5
		c0,1.7,1,3.4,2.9,4.8c1.7,1.4,4.1,2.4,6.7,2.4c3.4,0,5.5-1,6.5-2.6c0-0.2-1-2.2-3.1-5.8c0.2-1.9,1.2-5.3,2.6-9.8
		c0.2-1.4,0.7-2.2,1.2-2.2s1,0.2,1.7,1.2c1.9,2.9,3.1,6.2,3.1,10.1c0,6-1.4,11-4.1,15.4c-2.9,5.3-7.2,7.9-13,7.9
		c-3.8,0-7.4-3.1-10.6-8.9c-5.3,9.6-12.2,14.4-20.6,14.4c-10.1,0-14.9-5.8-14.9-16.8c-3.8,4.6-10.3,8.6-18.7,12.5v-13.2
		c6.2-3.1,10.3-5,11.5-5.8C331.7,116.8,335.5,114,339.4,110.6L339.4,110.6L339.4,110.6L339.4,110.6z"/>
	<path class="st0" d="M302.7,126.4c-3.6-4.6-6.7-6.7-9.6-6.7c-4.3,0-6.2,1-6.2,3.4c0,2.9,2.9,4.3,8.6,4.3
		C297.6,127.4,300,126.9,302.7,126.4L302.7,126.4L302.7,126.4L302.7,126.4z M310.1,144c0-1.4-0.5-3.1-1-4.8c-2.9,1-7.2,1.7-12.5,1.7
		c-11.5,0-17.3-4.1-17.3-12c0-6,1.7-11.3,5.5-16.1c3.6-4.1,7.4-6.2,11.5-6.2c3.1,0,6.2,1.9,9.8,5.5c3.1,3.6,6,7.7,8.4,12.7
		c0.2,0,0.7,0,1.7-0.5v13.2l-0.5,0.5c0,2.9-0.7,6.2-2.2,10.6c-1.7,5.5-4.3,10.1-7.4,13.7c-7.2,8.6-15.1,16.1-23.8,22.6
		c-13,9.6-24,14.6-33.6,14.6c-8.2,0-14.4-3.1-18.7-9.1c-3.8-5-5.8-11.8-5.8-19.7c0-10.1,2.2-20.4,6.2-31.2c1.2-2.4,1.7-3.4,2.2-3.4
		c0.2,0,0.2,0.2,0.2,0.7c0,0.7-0.2,1.9-0.5,3.4c-3.1,10.6-4.6,18.5-4.6,24c0,5,1.2,9.4,3.6,13c3.8,5,9.8,7.7,18.2,7.7
		c7.2,0,15.8-3.1,26.2-9.4c8.2-5,16.1-11,23.8-18.2C306.5,150.4,310.1,146.1,310.1,144L310.1,144L310.1,144L310.1,144z"/>
	<path class="st0" d="M244.6,107.7c-0.5-2.2-1.2-3.8-2.2-5c-0.7-1.4-1.2-2.2-1.4-2.6c0-0.5,0-2.2,0.5-5.5c0.5-3.1,0.7-5.3,1.2-6.5
		c0.2-1.2,0.5-1.7,1-1.7c0.2,0,0.5,0.2,1,0.7c3.4,3.8,7,7.7,11,11.8c1.7,1.7,2.4,2.6,2.4,3.1c0,0.2-0.2,0.5-0.7,0.5
		c-0.7,0-2.6-0.5-5.5-1.2c1.7,4.1,3.6,8.2,5.3,12c2.6,6.7,4.1,12.2,4.1,17.3c0,2.4-0.5,5.3-1.4,8.9c-1.2,4.1-2.6,7.2-4.6,9.4
		c-7,7.9-18.7,16.6-35.3,25.9c-14.4,8.4-22.8,12.5-25.4,12.5c-0.5,0-7.7,1.7-21.4,5c-14.4,3.4-23.5,5.5-27.1,6c-3.8,0.7-6.2,1-7.2,1
		c-0.5,0-0.5,0-0.5-0.2s2.6-1.7,7.9-4.1c1.9-1,13-5.8,33.4-14.4c14.2-6,25.9-11.5,35.3-16.6c14.2-7.7,25-14.4,32.4-19.9
		c5.5-4.3,8.4-7.4,8.4-9.4c0-0.5-1.4-3.8-4.3-10.1C248.2,117.6,245.8,111.8,244.6,107.7L244.6,107.7L244.6,107.7L244.6,107.7z"/>
	<path class="st0" d="M224.9,74.4c0,3.8-1.9,9.1-5.8,15.6c-2.4,4.1-6,9.6-10.8,16.8c4.8,5.5,8.2,10.6,9.8,14.9
		c1,3.1,1.7,7.2,1.7,11.8c0,1.9-0.5,4.3-1.4,7.4c-0.7,2.9-1.7,5-2.6,6.5c-1.9,2.9-5,5.8-9.8,8.6c-5,3.4-9.4,5-13,5
		c-5.8,0-8.6-4.3-8.6-13c0-5.8,1-11.5,2.9-16.8c1.9-4.6,5-10.6,10.1-18.5c-4.3-4.1-8.9-9.8-13.9-17c-0.5-0.7-1.7-1.9-3.6-3.8
		c-1-1-1.4-2.2-1.4-3.6c0-2.2,0.2-4.6,0.7-7.4c0.7-2.9,1.2-4.1,1.4-4.1c0.7,0,2.9,1.2,7,3.8c3.8,2.6,7,4.6,8.9,6.2
		c1.2,0.7,1.7,1.4,1.7,1.4v0.2c0,0.2-0.7,0.5-2.4,0.5c-3.1,0-4.8,0.2-4.8,0.5c0,0.2,0.5,0.7,1.4,1.9c3.8,4.8,7.7,8.4,11.8,11.3
		c1-1.4,4.3-6.2,9.6-14.4c4.6-7,7.2-11.8,8.4-14.6c1.2-2.9,1.9-4.1,2.4-4.1C224.7,69.6,224.9,71,224.9,74.4L224.9,74.4L224.9,74.4
		L224.9,74.4z M215.5,133.4c-2.6-5.3-7.2-10.8-13.4-16.1c-2.2,2.2-4.8,6.2-8.2,12c-3.8,6.5-5.5,10.6-5.5,12.7c0,2.9,1.9,4.3,6.2,4.3
		c1.9,0,4.3-0.7,7.4-1.9c4.3-1.9,8.4-4.6,11.8-7.9C215.3,135.1,215.8,134.1,215.5,133.4L215.5,133.4L215.5,133.4L215.5,133.4z"/>
	<path class="st0" d="M202.3,56.4l3.8-7.9c0.2-0.5,0.5-0.7,1-0.7s2.4,1.2,6.2,3.8c3.6,2.4,5.5,3.8,5.5,4.3c0,1.7-1.7,5.3-4.8,10.6
		c-0.5,0.7-1,0.7-1.4,0.5c-3.1-2.4-6.7-4.8-10.8-7.4c-1.4,2.9-2.6,5.5-4.1,7.7c-0.2,0.7-0.7,1-1.2,0.7c-3.6-2.9-7.4-5.5-11.3-7.9
		c-0.2-0.2-0.2-0.5,0-1l4.6-9.6c0.2-0.5,0.7-1,1-1c0.5,0,2.2,1.2,5.3,3.4C199.2,53.7,201.4,55.4,202.3,56.4L202.3,56.4L202.3,56.4
		L202.3,56.4z"/>
	<path class="st0" d="M328.6,190.3c-2.6,0.7-4.1,1.2-4.6,1.2v-0.2c0,0,1-0.7,2.9-1.9c1.9-1.2,4.8-3.1,8.9-6.2c1.9-1.9,4.8-5,8.4-9.4
		c2.4-2.9,5-5.5,7.9-7.4c3.6-2.6,7-3.8,10.6-3.8c0.7,0,1.9,0.2,3.4,0.7c1.2,0.5,2.4,0.7,3.4,0.7c1.9,0,3.4-0.7,4.6-2.2
		c0.7-1.4,1.7-2.6,2.6-4.1c0.5-1,1.2-1.4,1.7-1.4c0.2,0,0.2,0.2,0.2,0.7s-0.2,1.7-0.7,3.1c-0.5,0.7,1.4,1,5,1c0.5,0,0.7,0,0.7-0.2
		c0,0-0.2-1-0.7-2.6c-0.2-0.5,0-1.2,0.7-2.2c1-1.7,1.4-2.4,1.7-2.2c1,0.7,1.4,2.2,1.4,3.8c0,1.7-0.5,3.4-1.2,5.3
		c-0.7,2.2-1.4,3.4-1.9,3.8c-1.7,1-4.3,0.7-7.9-1c-2.9,2.9-5.8,4.6-8.6,4.6c-0.7,0-1.9-0.2-3.1-0.7c-1.2-0.5-2.2-0.7-2.9-0.7
		c-4.8,0-9.8,2.2-14.9,7c-3.6,3.6-7.2,7.2-10.8,10.8C333.1,188.4,331,189.6,328.6,190.3L328.6,190.3L328.6,190.3L328.6,190.3z"/>
	<path class="st0" d="M277.2,60.4c2.9,0,5.3,1.4,7.4,4.8c2.2,3.1,3.8,7.4,4.6,12.7c0.2,0.5,0.2,0.7,0.2,1h0.2c0-0.2,0.2-0.5,0.2-1
		c0.5-3.1,1.7-7.9,3.4-14.2c1.9-4.3,3.8-6.5,6-6.5c1.2,0,2.4,0.7,3.4,2.2c1,1.4,1.4,2.4,1.4,3.4c0,0.5,0,1.4-0.5,2.4
		c-0.5,1.4-1,2.2-1.4,2.2c-0.2,0-0.7-0.7-1.7-1.7c-0.7-1-1.7-1.4-2.6-1.4c-1.9,0-3.6,4.6-5.3,13.7c-0.7,4.1-1.7,7-2.4,8.6
		c-0.7,1-1.2,1.7-1.7,1.7s-0.5-0.7-0.7-1.7c0.2-1.7-0.7-4.8-2.6-9.4c-1.9-4.8-3.1-7-4.1-7c-0.5,0-0.7,0-1,0.5
		c-0.2,0.2-0.5,0.5-1.2,0.5c-1,0-1.9-0.7-3.4-1.9c-1.4-1.2-1.9-2.2-1.9-2.9c0-0.2,0.5-1.4,1.7-3.4C276.3,61.2,277,60.4,277.2,60.4
		L277.2,60.4L277.2,60.4L277.2,60.4z"/>
	<path class="st0" d="M236.4,57.6c24.2-9.1,49.4-18.2,75.4-27.8c0.7-0.2,1.2-0.5,1.2-0.2c0.2,0,0.2,0.5,0,1.2
		c-1,2.2-1.7,3.4-2.2,3.8c-0.2,0.2-12.5,4.8-36.2,13.7c-24.2,8.9-37.9,14.4-40.6,16.1C234.5,62.1,235.2,60,236.4,57.6L236.4,57.6
		L236.4,57.6L236.4,57.6z"/>
	<path class="st0" d="M212.9,13.6c0.5-1.4,0.5-2.9,0.2-4.3c-0.2-1.4-1-2.2-2.2-2.2c-0.5,0-1.2,0.2-2.2,0.7s-1.4,1-1.4,1.4
		C207.4,10.5,209.3,12,212.9,13.6L212.9,13.6L212.9,13.6L212.9,13.6z M210,19.9c-4.6-2.4-6.7-4.8-6.7-7.4c0-3.1,1.4-6,4.3-8.4
		c2.9-2.6,5.3-3.6,7.2-2.9c1.7,0.5,2.4,2.2,2.4,5c0,2.6-0.5,5.5-1.7,8.9c2.4,1.2,3.8,2.4,4.3,3.4c0,1.2-1,3.4-3.1,6.2
		c-0.5-1-1.9-2.2-4.1-3.4c-2.6,3.6-5.8,6.7-9.6,9.6c-4.6,3.1-8.6,5.8-12.2,7.2c-1,0.5-5.3,2.2-13,5c-1.2,0.5-2.2,0.7-2.4,0.7
		c-0.2,0-0.2-0.2-0.2-0.2c0-0.2,0.5-1,1.9-1.7c5.8-3.6,11.5-7,17.5-10.3C201.6,27.3,206.7,23.5,210,19.9L210,19.9L210,19.9L210,19.9
		z"/>
	<path class="st0" d="M361.7,49.9c0.5-1.4,0.5-2.9,0.2-4.3c-0.2-1.4-1-2.2-2.2-2.2c-0.5,0-1.2,0.2-2.2,0.7s-1.4,1-1.4,1.4
		C356.2,46.8,358.1,48.2,361.7,49.9L361.7,49.9L361.7,49.9L361.7,49.9z M367,58.8c-2.4,5.8-3.6,10.3-3.6,13.7c0,4.1,1,6.2,3.1,6.2
		c1.2,0,2.6-1.7,4.3-4.6c0.2-0.2,0.2-0.5,0.5-0.7c0,0,0.2,0,0.2,0.2c0,0,0,0.2,0,0.7c-1.4,7.2-3.6,10.8-6.5,10.8
		c-3.1,0-4.6-2.6-4.6-7.9c0-2.6,0.5-6,1.9-10.3s2.2-6.5,2.2-6.7c0-0.5-1-1.4-3.1-2.6c-3.8,5-9.1,9.8-15.8,13.9
		c-4.6,2.6-9.1,5-13.9,7c-8.9,3.6-14.2,5.5-15.4,6.2c-1.2,0.5-1.9,0.7-2.4,0.7c-0.2,0-0.2-0.2-0.2-0.2c0-0.5,0.5-1,1.9-1.9
		c7.7-4.3,15.1-8.6,22.8-13c10.1-5.8,17-10.6,20.4-14.2c-4.6-2.4-6.7-4.8-6.7-7.4c0-3.1,1.4-6,4.3-8.6c2.9-2.4,5.3-3.4,7.2-2.6
		c1.4,0.5,2.4,2.2,2.4,5c0,2.6-0.5,5.5-1.7,8.6c2.4,1.4,3.4,2.9,3.4,4.3C367.7,56.1,367.5,57.3,367,58.8L367,58.8L367,58.8L367,58.8
		z"/>
	<path class="st0" d="M254.7,27.1c0-0.2,0.2-0.5,0.2-0.5c0.2-0.2,0.2-0.2,0.2,0c0.2,0.2,0.2,0.5,0,0.7c-1.2,7.2-3.4,10.8-6.5,10.8
		s-4.6-2.6-4.6-7.9c0-6.5,1.7-13.4,5.5-20.4c1-1.7,1.4-2.6,1.7-2.6l0,0c0,0.2-0.2,1.2-0.7,2.9c-2.4,7.4-3.6,12.5-3.6,15.6
		c0,3.8,1,6,3.1,6C251.5,31.6,253,30,254.7,27.1L254.7,27.1L254.7,27.1L254.7,27.1z"/>
</g>
</svg>
