<?xml version="1.0" encoding="utf-8"?>
<!-- Generator: Adobe Illustrator 24.0.0, SVG Export Plug-In . SVG Version: 6.00 Build 0)  -->
<svg version="1.1" id="Layer_1" xmlns="http://www.w3.org/2000/svg" xmlns:xlink="http://www.w3.org/1999/xlink" x="0px" y="0px"
	 viewBox="0 0 524.8 201.9" style="enable-background:new 0 0 524.8 201.9;" xml:space="preserve">
<style type="text/css">
	.st0{fill:#C4692C;}
</style>
<g>
	<path class="st0" d="M279.6,25.2c0-4.8-0.7-8.6-2.2-11.8c0-1.7,1.2-5.8,4.1-12c0.2-0.7,0.5-1.2,0.7-1.2c0.5,0,0.7,0.5,1.2,1.2
		c0.7,1.7,2.4,6.2,5.3,13.7c3.1,7.9,4.8,12.7,5.3,14.6c0.5,1.2,0.5,2.4,0.5,2.9c0,2.2-1.9,1-6.2-3.8c-0.5-0.7-0.7-0.2-0.7,1
		c0,0.5,1.2,15.4,3.4,45.1c2.2,29.5,3.1,46.1,3.1,49.9c0,11.3-1.7,21.4-5,30c-1,1.7-1.4,2.9-1.9,3.8l0,0c-0.7,1.2-1,1.2-1.2,0.5
		c-0.2-1,0-2.9,0.2-5.5c0.5-4.1,0.7-8.6,0.7-13.7c0-4.8-1.2-24-3.6-57.8C280.8,48.2,279.6,29.3,279.6,25.2L279.6,25.2L279.6,25.2
		L279.6,25.2z"/>
	<path class="st0" d="M268.3,114.7c0,14.2-2.6,25.2-7.7,33.4c-4.3,6.7-9.4,10.3-15.1,10.3v-14.6c4.6,0,9.1-1.9,13.4-5.5
		c1.2-1,1.9-5,1.9-11.8c0-4.1-1.2-20.6-3.4-49.4c-2.2-28.8-3.1-45.8-3.1-51.1c0-4.6-0.7-8.4-2.2-11.5c0-1.7,1.4-5.8,4.1-12.2
		c0.2-0.7,0.5-1,1-1c0.2,0,0.5,0.2,1,1.2c0.7,1.7,2.6,6.2,5.5,13.7c2.9,7.9,4.6,12.7,5.3,14.4c0.2,1.4,0.5,2.6,0.5,3.1
		c0,2.2-2.2,1-6.2-3.8c-0.5-0.5-0.7-0.2-0.7,1c0,0.2,1,13.2,2.9,38.6C267.3,94.5,268.3,109.7,268.3,114.7L268.3,114.7L268.3,114.7
		L268.3,114.7z"/>
	<path class="st0" d="M245,158.1c-3.8,0-7.4-1-10.3-2.9c-3.8-2.6-6-7-6.7-12.5c-1.7,3.1-4.3,6.5-8.4,10.1c-6,5-12.2,7.7-18.7,7.7
		v-14.6c8.2,0,15.1-2.4,20.6-6.7c0.5-0.5,2.6-2.6,6.5-7c3.6-4.1,5.5-6,6-6s1,0.5,1,1.4c0,0.5-0.2,1.2-0.5,1.7
		c-0.5,1.9-0.7,3.6-0.7,5.3c0,6,3.8,8.9,11.3,8.9L245,158.1L245,158.1L245,158.1z"/>
	<path class="st0" d="M200.8,160.5c-5.5,0-11-2.4-16.8-7.2c-2.9-2.4-5.3-5.3-7-8.2l-16.1,7v-13.2l11.8-5c-1.7-4.8-2.4-9.6-2.4-14.4
		c0-7.2,1-13.2,3.1-17.5c2.2-4.6,5-6.7,8.6-6.7c3.1,0,6.2,2.6,8.9,7.9c2.6,4.6,3.8,8.9,3.8,12.7c0,9.6-2.9,17.5-8.4,23.8
		c3.8,4.1,8.6,6.2,14.4,6.2v14.6H200.8L200.8,160.5z M191,122.1c0-1.7-1.2-4.1-3.6-7.4c-2.6-3.6-5-5.5-7.2-5.5c-1.4,0-2.9,1-4.3,2.9
		c-1.7,1.9-2.4,3.6-2.4,5.3c0,1.4,1,3.8,2.4,7.4c1.4,3.1,2.6,5,3.4,6.2c2.2-1,4.3-2.4,7-4.3C189.6,124.5,191,123.1,191,122.1
		L191,122.1L191,122.1L191,122.1z"/>
	<path class="st0" d="M115.6,165.6c5-5.8,11.8-10.8,20.2-15.4c4.8-2.6,13.2-6.5,25.2-11.5v13.2c-7.7,3.4-13.2,5.8-16.8,7.4
		c-7.4,3.6-12.5,6.2-15.1,8.4c-5,3.8-12.5,11.3-22.1,22.3c-5.8,6.7-11.5,10.1-17.3,10.1c-4.8,0-9.1-2.2-12.7-6.7
		c-3.8-4.3-5.5-10.1-5.5-16.6c0-8.9,3.6-20.6,11-35.3c0.7-1.4,1.4-2.2,1.9-2.2c0,0,0.2,0.2,0.2,0.5c0,1.4-1.7,6.5-4.8,15.1
		c-3.4,8.9-5,15.6-5,20.6c0,3.8,1,7,2.9,9.1c1.9,2.6,4.6,3.8,7.9,3.8c6,0,12.2-3.1,18.2-9.1C108,174.9,111.8,170.1,115.6,165.6
		L115.6,165.6L115.6,165.6L115.6,165.6z"/>
	<path class="st0" d="M121.9,59c0,3.8-1.9,9.1-5.8,15.6c-2.4,4.1-6,9.6-10.8,16.8c4.8,5.5,8.2,10.6,9.8,14.9c1,3.1,1.7,7.2,1.7,11.8
		c0,1.9-0.5,4.3-1.4,7.4c-0.7,2.9-1.7,5-2.6,6.5c-1.9,2.9-5,5.8-9.8,8.6c-5,3.4-9.4,5-13,5c-5.8,0-8.6-4.3-8.6-13
		c0-5.8,1-11.5,2.9-16.8c1.9-4.6,5-10.6,10.1-18.5c-4.3-4.1-8.9-9.8-13.9-17c-0.5-0.7-1.7-1.9-3.6-3.8c-1-1-1.4-2.2-1.4-3.6
		c0-2.2,0.2-4.6,0.7-7.4c0.7-2.9,1.2-4.1,1.4-4.1c0.7,0,2.9,1.2,7,3.8c3.8,2.6,7,4.6,8.9,6.2c1.2,0.7,1.7,1.4,1.7,1.4V73
		c0,0.2-0.7,0.5-2.4,0.5c-3.1,0-4.8,0.2-4.8,0.5c0,0.2,0.5,0.7,1.4,1.9c3.8,4.8,7.7,8.4,11.8,11.3c1-1.4,4.3-6.2,9.6-14.4
		c4.6-7,7.2-11.8,8.4-14.6c1.2-2.9,1.9-4.1,2.4-4.1C121.6,54.2,121.9,55.7,121.9,59L121.9,59L121.9,59L121.9,59z M112.5,118.1
		c-2.6-5.3-7.2-10.8-13.4-16.1c-2.2,2.2-4.8,6.2-8.2,12c-3.8,6.5-5.5,10.6-5.5,12.7c0,2.9,1.9,4.3,6.2,4.3c1.9,0,4.3-0.7,7.4-1.9
		c4.3-1.9,8.4-4.6,11.8-7.9C112.3,119.7,112.8,118.8,112.5,118.1L112.5,118.1L112.5,118.1L112.5,118.1z"/>
	<path class="st0" d="M220.3,193.4c-0.2-0.2-0.2-0.5,0-1l4.6-9.6c0.2-0.5,0.7-0.7,1-0.7c0.5,0,2.6,1.2,6.2,3.6
		c3.8,2.6,5.8,4.1,5.8,4.6c0,1.7-1.7,5-5,10.3c-0.5,0.7-0.7,1-1.2,0.7C228,198.5,224.1,195.8,220.3,193.4L220.3,193.4L220.3,193.4
		L220.3,193.4z"/>
	<path class="st0" d="M177.6,74.6l3.8-7.9c0.2-0.5,0.5-0.7,1-0.7s2.4,1.2,6.2,3.8c3.6,2.4,5.5,3.8,5.5,4.3c0,1.7-1.7,5.3-4.8,10.6
		c-0.5,0.7-1,0.7-1.4,0.5c-3.1-2.4-6.7-4.8-10.8-7.4c-1.4,2.9-2.6,5.5-4.1,7.7c-0.2,0.7-0.7,1-1.2,0.7c-3.6-2.9-7.4-5.5-11.3-7.9
		c-0.2-0.2-0.2-0.5,0-1l4.6-9.6c0.2-0.5,0.7-1,1-1c0.5,0,2.2,1.2,5.3,3.4C174.4,72,176.6,73.7,177.6,74.6L177.6,74.6L177.6,74.6
		L177.6,74.6z"/>
	<path class="st0" d="M93.8,37.4l3.8-7.9c0.2-0.5,0.5-0.7,1-0.7s2.4,1.2,6.2,3.8c3.6,2.4,5.5,3.8,5.5,4.3c0,1.7-1.7,5.3-4.8,10.6
		c-0.5,0.7-1,0.7-1.4,0.5c-3.1-2.4-6.7-4.8-10.8-7.4c-1.4,2.9-2.6,5.5-4.1,7.7C89,49,88.5,49.3,88,49c-3.6-2.9-7.4-5.5-11.3-7.9
		c-0.2-0.2-0.2-0.5,0-1l4.6-9.6c0.2-0.5,0.7-1,1-1c0.5,0,2.2,1.2,5.3,3.4C90.7,34.8,92.8,36.5,93.8,37.4L93.8,37.4L93.8,37.4
		L93.8,37.4z"/>
	<path class="st0" d="M233.7,20.9c0-1.2-2.4-3.4-7.4-6.2c-1.7,2.9-2.4,5.5-2.4,7.9c0,1.4,0.7,2.4,2.2,2.4c1.2,0,2.6-0.5,4.3-1.4
		C232,22.8,233.2,21.8,233.7,20.9L233.7,20.9L233.7,20.9L233.7,20.9z M228.4,1.7c0.7-1.2,1.7-1.7,2.4-1.7c0.5,0,1,0.2,1,0.7
		c0,0-0.2,0.2-0.2,0.5c-1,2.2-1.9,4.6-2.6,7c5,3.6,7.4,7.4,7.2,11c-0.5,4.1-1,6.7-1.7,7.7c-2.4,2.9-5,4.6-8.4,4.6s-4.8-2.2-4.8-6
		c0-0.7,0-1.7,0.2-2.6C222.7,15.1,225.1,8.1,228.4,1.7L228.4,1.7L228.4,1.7L228.4,1.7z"/>
	<path class="st0" d="M137.5,56.4c18.5-6.7,37.7-13.9,57.8-21.4c0.7-0.2,1.2-0.5,1.4-0.2c0,0,0,0.5-0.2,1.2c-1,2.2-1.7,3.4-2.2,3.8
		C177.5,46,157.6,53.7,135,63.1C135.6,60.9,136.3,58.8,137.5,56.4L137.5,56.4L137.5,56.4L137.5,56.4z"/>
	<path class="st0" d="M152.6,28.5c18.5-6.7,37.7-13.9,57.8-21.4c0.7-0.2,1.2-0.5,1.4-0.2c0,0,0,0.5-0.2,1.2c-1,2.2-1.7,3.4-2.2,3.8
		c-16.8,6.2-36.7,13.9-59.3,23.3C150.7,33.1,151.4,30.9,152.6,28.5L152.6,28.5L152.6,28.5L152.6,28.5z"/>
	<path class="st0" d="M89.7,157.2c9.6-3.4,19.9-7.2,31-11c1-0.2,1.2-0.5,1.4-0.2c0.2,0,0.2,0.5-0.2,1.2c-0.7,2.2-1.4,3.4-1.9,3.8
		c-9.6,3.4-20.4,7.4-32.6,13C87.8,161.7,88.5,159.6,89.7,157.2L89.7,157.2L89.7,157.2L89.7,157.2z"/>
	<path class="st0" d="M128.6,89c2.9,0,5.3,1.4,7.4,4.8c2.2,3.1,3.8,7.4,4.6,12.7c0.2,0.5,0.2,0.7,0.2,1h0.2c0-0.2,0.2-0.5,0.2-1
		c0.5-3.1,1.7-7.9,3.4-14.2c1.9-4.3,3.8-6.5,6-6.5c1.2,0,2.4,0.7,3.4,2.2c1,1.4,1.4,2.4,1.4,3.4c0,0.5,0,1.4-0.5,2.4
		c-0.5,1.4-1,2.2-1.4,2.2c-0.2,0-0.7-0.7-1.7-1.7c-0.7-1-1.7-1.4-2.6-1.4c-1.9,0-3.6,4.6-5.3,13.7c-0.7,4.1-1.7,7-2.4,8.6
		c-0.7,1-1.2,1.7-1.7,1.7s-0.5-0.7-0.7-1.7c0.2-1.7-0.7-4.8-2.6-9.4c-1.9-4.8-3.1-7-4.1-7c-0.5,0-0.7,0-1,0.5
		c-0.2,0.2-0.5,0.5-1.2,0.5c-1,0-1.9-0.7-3.4-1.9c-1.4-1.2-1.9-2.2-1.9-2.9c0-0.2,0.5-1.4,1.7-3.4C127.6,89.7,128.4,89,128.6,89
		L128.6,89L128.6,89L128.6,89z"/>
	<path class="st0" d="M228.2,67.7c0-0.2,0.2-0.5,0.2-0.5c0.2-0.2,0.2-0.2,0.2,0c0.2,0.2,0.2,0.5,0,0.7c-1.2,7.2-3.4,10.8-6.5,10.8
		s-4.6-2.6-4.6-7.9c0-6.5,1.7-13.4,5.5-20.4c1-1.7,1.4-2.6,1.7-2.6l0,0c0,0.2-0.2,1.2-0.7,2.9c-2.4,7.4-3.6,12.5-3.6,15.6
		c0,3.8,1,6,3.1,6C225.1,72.2,226.5,70.5,228.2,67.7L228.2,67.7L228.2,67.7L228.2,67.7z"/>
	<path class="st0" d="M37.9,134.4c2.9,0,5.3,1.4,7.4,4.8c2.2,3.1,3.8,7.4,4.6,12.7c0.2,0.5,0.2,0.7,0.2,1h0.2c0-0.2,0.2-0.5,0.2-1
		c0.5-3.1,1.7-7.9,3.4-14.2c1.9-4.3,3.8-6.5,6-6.5c1.2,0,2.4,0.7,3.4,2.2c1,1.4,1.4,2.4,1.4,3.4c0,0.5,0,1.4-0.5,2.4
		c-0.5,1.4-1,2.2-1.4,2.2c-0.2,0-0.7-0.7-1.7-1.7c-0.7-1-1.7-1.4-2.6-1.4c-1.9,0-3.6,4.6-5.3,13.7c-0.7,4.1-1.7,7-2.4,8.6
		c-0.7,1-1.2,1.7-1.7,1.7s-0.5-0.7-0.7-1.7c0.2-1.7-0.7-4.8-2.6-9.4c-1.9-4.8-3.1-7-4.1-7c-0.5,0-0.7,0-1,0.5
		c-0.2,0.2-0.5,0.5-1.2,0.5c-1,0-1.9-0.7-3.4-1.9c-1.4-1.2-1.9-2.2-1.9-2.9c0-0.2,0.5-1.4,1.7-3.4C36.9,135.1,37.6,134.4,37.9,134.4
		L37.9,134.4L37.9,134.4L37.9,134.4z"/>
	<path class="st0" d="M272.1,169.7c0,2.6-1.2,5.5-3.1,8.6c-2.2,3.1-4.8,6-8.2,8.4c-1.4,1-2.2,1.4-2.4,1.4v-0.2
		c0-0.2,0.5-0.7,1.4-1.9c5.5-6,8.4-9.8,8.4-12c0-1.7-1-2.6-2.6-2.6c-1,0-1.9,0.2-2.6,0.7c-0.7,0.2-1,0.5-1.2,0.5c0,0-0.2,0-0.2-0.2
		c0,0,0-0.5,0.2-1.4c1-4.1,2.9-6,6.2-6C270.7,164.9,272.1,166.5,272.1,169.7L272.1,169.7L272.1,169.7L272.1,169.7z"/>
	<path class="st0" d="M159.3,173c2.9,0,5.3,1.4,7.4,4.8c2.2,3.1,3.8,7.4,4.6,12.7c0.2,0.5,0.2,0.7,0.2,1h0.2c0-0.2,0.2-0.5,0.2-1
		c0.5-3.1,1.7-7.9,3.4-14.2c1.9-4.3,3.8-6.5,6-6.5c1.2,0,2.4,0.7,3.4,2.2c1,1.4,1.4,2.4,1.4,3.4c0,0.5,0,1.4-0.5,2.4
		c-0.5,1.4-1,2.2-1.4,2.2c-0.2,0-0.7-0.7-1.7-1.7c-0.7-1-1.7-1.4-2.6-1.4c-1.9,0-3.6,4.6-5.3,13.7c-0.7,4.1-1.7,7-2.4,8.6
		c-0.7,1-1.2,1.7-1.7,1.7s-0.5-0.7-0.7-1.7c0.2-1.7-0.7-4.8-2.6-9.4c-1.9-4.8-3.1-7-4.1-7c-0.5,0-0.7,0-1,0.5
		c-0.2,0.2-0.5,0.5-1.2,0.5c-1,0-1.9-0.7-3.4-1.9c-1.4-1.2-1.9-2.2-1.9-2.9c0-0.2,0.5-1.4,1.7-3.4C158.4,173.7,159.1,173,159.3,173
		L159.3,173L159.3,173L159.3,173z"/>
	<path class="st0" d="M69.3,89.3c0,0.5-0.2,1.4-0.5,2.4c-0.5,1.4-1,2.2-1.7,2.2c-0.2,0-0.7-0.7-1.7-1.7c-0.7-1-1.7-1.4-2.4-1.4
		c-1.9,0-3.8,4.6-5.5,13.7c-0.7,4.1-1.4,6.7-2.4,8.4c-0.7,1.2-1.2,1.7-1.7,1.7c-0.2,0-0.5-0.5-0.5-1.4c0-1.7-1-4.8-2.9-9.4
		c-1.7-4.8-3.1-7-3.8-7c-0.5,0-1,0-1,0.5c-0.2,0.2-0.7,0.5-1.4,0.5c-1,0-2.2-0.7-3.6-1.9c-1.4-1.4-1.9-2.4-1.7-2.9
		c2.2-4.1,3.4-6,3.8-6c2.6,0,5.3,1.4,7.4,4.8c2.2,3.1,3.6,7.4,4.6,12.5c0,0.7,0,1,0,1c0.2,0.2,0.2,0.2,0.2,0c0,0,0.2-0.2,0.5-1
		c0.5-2.9,1.4-7.7,3.1-13.9c1.9-4.3,3.8-6.5,6.2-6.5c1,0,2.2,0.7,3.4,2.2C68.8,87.3,69.3,88.3,69.3,89.3L69.3,89.3L69.3,89.3
		L69.3,89.3z M38.6,92.9c0.5-1,1-1.4,1.2-1.4c0,0,0.2,0.2,0,0.2c0.2,0.7-0.5,2.4-1.9,5c-2.4,4.6-5.8,8.2-10.1,11.3
		c-4.6,3.4-8.6,5.8-12.2,7.4c-0.7,0.5-5,2.2-13,5c-1.2,0.5-1.9,0.7-2.4,0.7c-0.2,0-0.2-0.2-0.2-0.2c0-0.2,0.7-1,1.9-1.7
		c6.7-3.6,15.8-9.4,27.6-17.3C34.3,98.4,37.2,95.3,38.6,92.9L38.6,92.9L38.6,92.9L38.6,92.9z"/>
	<path class="st0" d="M141.3,24.2c0,2.6-1.2,5.5-3.1,8.6c-2.2,3.1-4.8,6-8.2,8.4c-1.4,1-2.2,1.4-2.4,1.4v-0.2c0-0.2,0.5-0.7,1.4-1.9
		c5.5-6,8.4-9.8,8.4-12c0-1.7-1-2.6-2.6-2.6c-1,0-1.9,0.2-2.6,0.7c-0.7,0.2-1,0.5-1.2,0.5c0,0-0.2,0-0.2-0.2c0,0,0-0.5,0.2-1.4
		c1-4.1,2.9-6,6.2-6C139.9,19.4,141.3,21.1,141.3,24.2L141.3,24.2L141.3,24.2L141.3,24.2z"/>
	<path class="st0" d="M59.7,54.2c0,2.6-1.2,5.5-3.1,8.6c-2.2,3.1-4.8,6-8.2,8.4c-1.4,1-2.2,1.4-2.4,1.4v-0.2c0-0.2,0.5-0.7,1.4-1.9
		c5.5-6,8.4-9.8,8.4-12c0-1.7-1-2.6-2.6-2.6c-1,0-1.9,0.2-2.6,0.7c-0.7,0.2-1,0.5-1.2,0.5c0,0-0.2,0-0.2-0.2c0,0,0-0.5,0.2-1.4
		c1-4.1,2.9-6,6.2-6C58.3,49.4,59.7,51.1,59.7,54.2L59.7,54.2L59.7,54.2L59.7,54.2z"/>
	<path class="st0" d="M466,113c1.2-1,2.2-1.4,2.9-1.4c0.5,0,0.7,0.5,0.7,1.4c0,0.7-0.2,2.2-0.7,4.1s-0.7,3.4-0.7,4.6
		c0,5.3,3.8,8.2,11.3,8.2c6,0,11-2.6,14.9-7.7c2.4-4.1,5-7.9,7.4-11.8c1-1,1.7-1.4,2.4-1.4c1,0,1.2,1,0.7,3.1c-1,4.1-1.7,6-1.7,5.5
		c0,1.7,1,3.4,2.9,4.8c1.7,1.4,4.1,2.4,6.7,2.4c3.4,0,5.5-1,6.5-2.6c0-0.2-1-2.2-3.1-5.8c0.2-1.9,1.2-5.3,2.6-9.8
		c0.2-1.4,0.7-2.2,1.2-2.2s1,0.2,1.7,1.2c1.9,2.9,3.1,6.2,3.1,10.1c0,6-1.4,11-4.1,15.4c-2.9,5.3-7.2,7.9-13,7.9
		c-3.8,0-7.4-3.1-10.6-8.9c-5.3,9.6-12.2,14.4-20.6,14.4c-10.1,0-14.9-5.8-14.9-16.8c-3.8,4.6-10.3,8.6-18.7,12.5v-13.3
		c6.2-3.1,10.3-5,11.5-5.8C458.4,119.3,462.2,116.4,466,113L466,113L466,113L466,113z"/>
	<path class="st0" d="M429.3,128.9c-3.6-4.6-6.7-6.7-9.6-6.7c-4.3,0-6.2,1-6.2,3.4c0,2.9,2.9,4.3,8.6,4.3
		C424.3,129.8,426.7,129.3,429.3,128.9L429.3,128.9L429.3,128.9L429.3,128.9z M436.8,146.4c0-1.4-0.5-3.1-1-4.8
		c-2.9,1-7.2,1.7-12.5,1.7c-11.5,0-17.3-4.1-17.3-12c0-6,1.7-11.3,5.5-16.1c3.6-4.1,7.4-6.2,11.5-6.2c3.1,0,6.2,1.9,9.8,5.5
		c3.1,3.6,6,7.7,8.4,12.7c0.2,0,0.7,0,1.7-0.5v13.2l-0.5,0.5c0,2.9-0.7,6.2-2.2,10.6c-1.7,5.5-4.3,10.1-7.4,13.7
		c-7.2,8.6-15.1,16.1-23.8,22.6c-13,9.6-24,14.6-33.6,14.6c-8.2,0-14.4-3.1-18.7-9.1c-3.8-5-5.8-11.8-5.8-19.7
		c0-10.1,2.2-20.4,6.2-31.2c1.2-2.4,1.7-3.4,2.2-3.4c0.2,0,0.2,0.2,0.2,0.7c0,0.7-0.2,1.9-0.5,3.4c-3.1,10.6-4.6,18.5-4.6,24
		c0,5,1.2,9.4,3.6,13c3.8,5,9.8,7.7,18.2,7.7c7.2,0,15.8-3.1,26.2-9.4c8.2-5,16.1-11,23.8-18.2C433.2,152.9,436.8,148.5,436.8,146.4
		L436.8,146.4L436.8,146.4L436.8,146.4z"/>
	<path class="st0" d="M371.2,109.9c-0.5-2.2-1.2-3.8-2.2-5c-0.7-1.4-1.2-2.2-1.4-2.6c0-0.5,0-2.2,0.5-5.5c0.5-3.1,0.7-5.3,1.2-6.5
		c0.2-1.2,0.5-1.7,1-1.7c0.2,0,0.5,0.2,1,0.7c3.4,3.8,7,7.7,11,11.8c1.7,1.7,2.4,2.6,2.4,3.1c0,0.2-0.2,0.5-0.7,0.5
		c-0.7,0-2.6-0.5-5.5-1.2c1.7,4.1,3.6,8.2,5.3,12c2.6,6.7,4.1,12.2,4.1,17.3c0,2.4-0.5,5.3-1.4,8.9c-1.2,4.1-2.6,7.2-4.6,9.4
		c-7,7.9-18.7,16.6-35.3,25.9c-14.4,8.4-22.8,12.5-25.4,12.5c-0.5,0-7.7,1.7-21.4,5c-14.4,3.4-23.5,5.5-27.1,6c-3.8,0.7-6.2,1-7.2,1
		c-0.5,0-0.5,0-0.5-0.2s2.6-1.7,7.9-4.1c1.9-1,13-5.8,33.4-14.4c14.2-6,25.9-11.5,35.3-16.6c14.2-7.7,25-14.4,32.4-19.9
		c5.5-4.3,8.4-7.4,8.4-9.4c0-0.5-1.4-3.8-4.3-10.1C374.8,119.7,372.4,114,371.2,109.9L371.2,109.9L371.2,109.9L371.2,109.9z"/>
	<path class="st0" d="M351.6,76.5c0,3.8-1.9,9.1-5.8,15.6c-2.4,4.1-6,9.6-10.8,16.8c4.8,5.5,8.2,10.6,9.8,14.9
		c1,3.1,1.7,7.2,1.7,11.8c0,1.9-0.5,4.3-1.4,7.4c-0.7,2.9-1.7,5-2.6,6.5c-1.9,2.9-5,5.8-9.8,8.6c-5,3.4-9.4,5-13,5
		c-5.8,0-8.6-4.3-8.6-13c0-5.8,1-11.5,2.9-16.8c1.9-4.6,5-10.6,10.1-18.5c-4.3-4.1-8.9-9.8-13.9-17c-0.5-0.7-1.7-1.9-3.6-3.8
		c-1-1-1.4-2.2-1.4-3.6c0-2.2,0.2-4.6,0.7-7.4c0.7-2.9,1.2-4.1,1.4-4.1c0.7,0,2.9,1.2,7,3.8c3.8,2.6,7,4.6,8.9,6.2
		c1.2,0.7,1.7,1.4,1.7,1.4v0.2c0,0.2-0.7,0.5-2.4,0.5c-3.1,0-4.8,0.2-4.8,0.5c0,0.2,0.5,0.7,1.4,1.9c3.8,4.8,7.7,8.4,11.8,11.3
		c1-1.4,4.3-6.2,9.6-14.4c4.6-7,7.2-11.8,8.4-14.6c1.2-2.9,1.9-4.1,2.4-4.1C351.3,71.7,351.6,73.2,351.6,76.5L351.6,76.5L351.6,76.5
		L351.6,76.5z M342.2,135.6c-2.6-5.3-7.2-10.8-13.4-16.1c-2.2,2.2-4.8,6.2-8.2,12c-3.8,6.5-5.5,10.6-5.5,12.7c0,2.9,1.9,4.3,6.2,4.3
		c1.9,0,4.3-0.7,7.4-1.9c4.3-1.9,8.4-4.6,11.8-7.9C342,137.3,342.4,136.3,342.2,135.6L342.2,135.6L342.2,135.6L342.2,135.6z"/>
	<path class="st0" d="M328.8,58.5l3.8-7.9c0.2-0.5,0.5-0.7,1-0.7s2.4,1.2,6.2,3.8c3.6,2.4,5.5,3.8,5.5,4.3c0,1.7-1.7,5.3-4.8,10.6
		c-0.5,0.7-1,0.7-1.4,0.5c-3.1-2.4-6.7-4.8-10.8-7.4c-1.4,2.9-2.6,5.5-4.1,7.7c-0.2,0.7-0.7,1-1.2,0.7c-3.6-2.9-7.4-5.5-11.3-7.9
		c-0.2-0.2-0.2-0.5,0-1l4.6-9.6c0.2-0.5,0.7-1,1-1c0.5,0,2.2,1.2,5.3,3.4C325.6,55.9,327.8,57.6,328.8,58.5L328.8,58.5L328.8,58.5
		L328.8,58.5z"/>
	<path class="st0" d="M455.2,192.5c-2.6,0.7-4.1,1.2-4.6,1.2v-0.2c0,0,1-0.7,2.9-1.9c1.9-1.2,4.8-3.1,8.9-6.2c1.9-1.9,4.8-5,8.4-9.4
		c2.4-2.9,5-5.5,7.9-7.4c3.6-2.6,7-3.8,10.6-3.8c0.7,0,1.9,0.2,3.4,0.7c1.2,0.5,2.4,0.7,3.4,0.7c1.9,0,3.4-0.7,4.6-2.2
		c0.7-1.4,1.7-2.6,2.6-4.1c0.5-1,1.2-1.4,1.7-1.4c0.2,0,0.2,0.2,0.2,0.7s-0.2,1.7-0.7,3.1c-0.5,0.7,1.4,1,5,1c0.5,0,0.7,0,0.7-0.2
		c0,0-0.2-1-0.7-2.6c-0.2-0.5,0-1.2,0.7-2.2c1-1.7,1.4-2.4,1.7-2.2c1,0.7,1.4,2.2,1.4,3.8c0,1.7-0.5,3.4-1.2,5.3
		c-0.7,2.2-1.4,3.4-1.9,3.8c-1.7,1-4.3,0.7-7.9-1c-2.9,2.9-5.8,4.6-8.6,4.6c-0.7,0-1.9-0.2-3.1-0.7c-1.2-0.5-2.2-0.7-2.9-0.7
		c-4.8,0-9.8,2.2-14.9,7c-3.6,3.6-7.2,7.2-10.8,10.8C459.8,190.5,457.6,191.7,455.2,192.5L455.2,192.5L455.2,192.5L455.2,192.5z"/>
	<path class="st0" d="M403.9,62.9c2.9,0,5.3,1.4,7.4,4.8c2.2,3.1,3.8,7.4,4.6,12.7c0.2,0.5,0.2,0.7,0.2,1h0.2c0-0.2,0.2-0.5,0.2-1
		c0.5-3.1,1.7-7.9,3.4-14.2c1.9-4.3,3.8-6.5,6-6.5c1.2,0,2.4,0.7,3.4,2.2c1,1.4,1.4,2.4,1.4,3.4c0,0.5,0,1.4-0.5,2.4
		c-0.5,1.4-1,2.2-1.4,2.2c-0.2,0-0.7-0.7-1.7-1.7c-0.7-1-1.7-1.4-2.6-1.4c-1.9,0-3.6,4.6-5.3,13.7c-0.7,4.1-1.7,7-2.4,8.6
		c-0.7,1-1.2,1.7-1.7,1.7s-0.5-0.7-0.7-1.7c0.2-1.7-0.7-4.8-2.6-9.4c-1.9-4.8-3.1-7-4.1-7c-0.5,0-0.7,0-1,0.5
		c-0.2,0.2-0.5,0.5-1.2,0.5c-1,0-1.9-0.7-3.4-1.9s-1.9-2.2-1.9-2.9c0-0.2,0.5-1.4,1.7-3.4C402.9,63.6,403.6,62.9,403.9,62.9
		L403.9,62.9L403.9,62.9L403.9,62.9z"/>
	<path class="st0" d="M363.1,59.7c24.2-9.1,49.4-18.2,75.4-27.8c0.7-0.2,1.2-0.5,1.2-0.2c0.2,0,0.2,0.5,0,1.2
		c-1,2.2-1.7,3.4-2.2,3.8c-0.2,0.2-12.5,4.8-36.2,13.7c-24.2,8.9-37.9,14.4-40.6,16.1C361.2,64.3,361.9,62.1,363.1,59.7L363.1,59.7
		L363.1,59.7L363.1,59.7z"/>
	<path class="st0" d="M339.6,15.8c0.5-1.4,0.5-2.9,0.2-4.3c-0.2-1.4-1-2.2-2.2-2.2c-0.5,0-1.2,0.2-2.2,0.7s-1.4,1-1.4,1.4
		C334,12.7,336,14.1,339.6,15.8L339.6,15.8L339.6,15.8L339.6,15.8z M336.7,22.1c-4.6-2.4-6.7-4.8-6.7-7.4c0-3.1,1.4-6,4.3-8.4
		c2.9-2.6,5.3-3.6,7.2-2.9c1.7,0.5,2.4,2.2,2.4,5c0,2.6-0.5,5.5-1.7,8.9c2.4,1.2,3.8,2.4,4.3,3.4c0,1.2-1,3.4-3.1,6.2
		c-0.5-1-1.9-2.2-4.1-3.4c-2.6,3.6-5.8,6.7-9.6,9.6c-4.6,3.1-8.6,5.8-12.2,7.2c-1,0.5-5.3,2.2-13,5c-1.2,0.5-2.2,0.7-2.4,0.7
		c-0.2,0-0.2-0.2-0.2-0.2c0-0.2,0.5-1,1.9-1.7c5.8-3.6,11.5-7,17.5-10.3C328.3,29.5,333.3,25.7,336.7,22.1L336.7,22.1L336.7,22.1
		L336.7,22.1z"/>
	<path class="st0" d="M488.4,52.1c0.5-1.4,0.5-2.9,0.2-4.3c-0.2-1.4-1-2.2-2.2-2.2c-0.5,0-1.2,0.2-2.2,0.7s-1.4,1-1.4,1.4
		C482.8,48.9,484.8,50.4,488.4,52.1L488.4,52.1L488.4,52.1L488.4,52.1z M493.6,60.9c-2.4,5.8-3.6,10.3-3.6,13.7c0,4.1,1,6.2,3.1,6.2
		c1.2,0,2.6-1.7,4.3-4.6c0.2-0.2,0.2-0.5,0.5-0.7c0,0,0.2,0,0.2,0.2c0,0,0,0.2,0,0.7c-1.4,7.2-3.6,10.8-6.5,10.8
		c-3.1,0-4.6-2.6-4.6-7.9c0-2.6,0.5-6,1.9-10.3s2.2-6.5,2.2-6.7c0-0.5-1-1.4-3.1-2.6c-3.8,5-9.1,9.8-15.8,13.9
		c-4.6,2.6-9.1,5-13.9,7c-8.9,3.6-14.2,5.5-15.4,6.2c-1.2,0.5-1.9,0.7-2.4,0.7c-0.2,0-0.2-0.2-0.2-0.2c0-0.5,0.5-1,1.9-1.9
		c7.7-4.3,15.1-8.6,22.8-13c10.1-5.8,17-10.6,20.4-14.2c-4.6-2.4-6.7-4.8-6.7-7.4c0-3.1,1.4-6,4.3-8.6c2.9-2.4,5.3-3.4,7.2-2.6
		c1.4,0.5,2.4,2.2,2.4,5c0,2.6-0.5,5.5-1.7,8.6c2.4,1.4,3.4,2.9,3.4,4.3C494.4,58.3,494.1,59.5,493.6,60.9L493.6,60.9L493.6,60.9
		L493.6,60.9z"/>
	<path class="st0" d="M381.3,29.3c0-0.2,0.2-0.5,0.2-0.5c0.2-0.2,0.2-0.2,0.2,0c0.2,0.2,0.2,0.5,0,0.7c-1.2,7.2-3.4,10.8-6.5,10.8
		s-4.6-2.6-4.6-7.9c0-6.5,1.7-13.4,5.5-20.4c1-1.7,1.4-2.6,1.7-2.6l0,0c0,0.2-0.2,1.2-0.7,2.9c-2.4,7.4-3.6,12.5-3.6,15.6
		c0,3.8,1,6,3.1,6C378.2,33.8,379.6,32.1,381.3,29.3L381.3,29.3L381.3,29.3L381.3,29.3z"/>
	<path class="st0" d="M202.8,102c13.7-4.8,28.1-10.1,43.2-15.6c1-0.2,1.2-0.5,1.4-0.2c0.2,0,0.2,0.5-0.2,1.2
		c-0.7,2.2-1.4,3.4-1.9,3.8c-13,4.6-27.8,10.3-44.9,17.5C200.8,106.5,201.6,104.4,202.8,102L202.8,102L202.8,102L202.8,102z"/>
</g>
</svg>
