<?xml version="1.0" encoding="utf-8"?>
<!-- Generator: Adobe Illustrator 24.0.0, SVG Export Plug-In . SVG Version: 6.00 Build 0)  -->
<svg version="1.1" id="Layer_1" xmlns="http://www.w3.org/2000/svg" xmlns:xlink="http://www.w3.org/1999/xlink" x="0px" y="0px"
	 viewBox="0 0 474.2 201.1" style="enable-background:new 0 0 474.2 201.1;" xml:space="preserve">
<style type="text/css">
	.st0{fill:#C4692C;}
</style>
<g>
	<path class="st0" d="M143.2,160.5c-5.3,0-10.8-1.4-16.6-3.8v-14.4c4.8,2.2,11,3.4,18.5,3.4c7.4,0,15.1-1.7,23.3-5
		c7.4-2.9,13.9-6.7,19.7-11.3c1-0.7,1.9-1.2,2.4-1.2c1.2,0,1.4,1,0.7,2.9c-0.7,2.2-1.2,4.3-1.2,6c0,5.3,4.1,7.9,12,7.9
		c6,0,11-2.6,14.9-7.7c2.6-3.8,5-7.7,7.4-11.5c1-1,1.7-1.4,2.4-1.7c1,0.2,1.2,1.2,0.7,3.1c-1,4.1-1.4,6-1.4,5.8c0,1.7,1,3.4,3.1,5
		c2.2,1.7,4.6,2.6,7.2,2.6c3.1,0,5.3-1,6.5-2.6c0-0.2-0.5-1-1.4-1.7c-1-1-1.4-1.7-1.4-2.2s1-3.8,2.9-10.1c0.5-1,0.7-1.4,1.2-1.4
		c1,0,1.7,1.2,2.6,3.6c1,2.4,1.4,4.3,1.4,5.3c0,6.2-1.2,11.3-3.6,15.4c-3.1,5.3-7.4,7.9-13.2,7.9c-4.3,0-8.2-3.1-11.5-9.4
		c-5.3,9.6-12.2,14.4-20.6,14.4c-9.6,0-14.6-5-15.1-15.1c0-0.5-0.2-0.7-0.7-0.7s-1.2,0.5-2.4,1.2c-4.6,3.8-9.6,7-15.6,9.6
		C157.4,158.5,150.2,160.5,143.2,160.5L143.2,160.5L143.2,160.5L143.2,160.5z"/>
	<path class="st0" d="M126.7,142v14.6c-6.7-2.6-11.8-5.5-14.9-8.4c-3.8-3.4-6.7-8.2-8.9-14.2c-0.2-0.7-0.7-0.7-1.2,0
		c-2.9,4.8-5.8,9.6-8.9,14.4c-4.6,6.7-10.1,10.1-16.1,10.1v-14.6c6.5,0,12-2.9,16.3-8.2c3.8-5.3,7.4-10.6,11.3-16.1
		c1-0.7,1.7-1.2,2.2-1.2c1,0,1.2,0.7,1.2,2.6c0,4.6,1.2,8.2,3.6,10.8C114,135,119,138.4,126.7,142L126.7,142L126.7,142L126.7,142z"
		/>
	<path class="st0" d="M61.9,128.8c1.2,6.7,3.6,11.3,7,13.4c1.7,1,4.3,1.7,7.9,1.7v14.6c-5.3,0-9.4-1.2-12.2-3.4
		c-4.3-3.1-7-8.6-8.4-17c-1-4.6-1.7-15.4-2.2-32.4c-0.5-19.2-1.4-34.3-2.4-45.1c-1.2-9.8-3.1-19.4-5.8-28.3c0-2.4,1-6,2.9-10.8
		c0.5-1.2,0.7-1.7,1.2-1.7c0.2,0,0.7,0.5,1.2,1.4c3.1,6,5.3,16.3,7,31c1,9.4,1.9,24.2,2.4,44.6C60.9,115.6,61.7,126.1,61.9,128.8
		L61.9,128.8L61.9,128.8L61.9,128.8z"/>
	<path class="st0" d="M42,116.5c0,0.7-1.2,3.1-3.4,7.2c-1.7,1.2-5.8,3.6-12.2,7.2c-8.4,4.6-15.8,8.9-22.1,12.7
		c-2.2,1.2-3.4,1.9-3.8,1.9c-0.5,0-0.5-0.2-0.5-0.7c0-1.2,1-4.1,3.4-8.6c1-1,3.6-2.9,7.4-5.5c-2.6-1.7-4.3-2.6-5-3.4
		c-1.9-1.7-2.9-3.8-2.9-6.2c0-4.1,2.9-8.9,8.6-14.2c5.3-5,9.6-7.7,12.7-7.7c1.7,0,3.1,0.7,4.3,2.2c1,1.2,1.7,3.1,1.7,5.3
		c0,1.9-0.7,3.8-2.2,6c-1.2,1.7-2.4,2.6-3.4,2.6c-0.2,0-1-0.7-1.7-2.6s-1.7-2.6-2.9-2.6c-1.7,0-3.8,0.5-6.5,1.9
		c-2.9,1.4-4.3,2.4-4.3,2.9c0,1.2,1.4,2.6,4.6,4.3c3.6,1.9,7.2,2.9,10.6,2.9c2.2-0.2,5.3-1.7,9.6-3.6c3.6-1.9,6-2.9,6.7-2.9
		C41.5,115.6,42,115.8,42,116.5L42,116.5L42,116.5L42,116.5z"/>
	<path class="st0" d="M96.7,191.6c-0.2-0.2-0.2-0.5,0-1l4.6-9.6c0.2-0.5,0.7-0.7,1-0.7c0.5,0,2.6,1.2,6.2,3.6
		c3.8,2.6,5.8,4.1,5.8,4.6c0,1.7-1.7,5-5,10.3c-0.5,0.7-0.7,1-1.2,0.7C104.4,196.7,100.5,194,96.7,191.6L96.7,191.6L96.7,191.6
		L96.7,191.6z"/>
	<path class="st0" d="M7.4,149.2c2.6-1.2,8.2-3.6,17-7.2c7.7-3.1,12.2-5,13.4-5.5c1-0.2,1.4-0.5,1.4-0.2c0.2,0,0.2,0.2,0,1
		c-0.7,1.7-1.2,2.9-1.7,3.4c-3.1,1.2-8.2,3.1-15.1,6c-4.6,2.2-10.3,4.6-17,7.7C6,152.5,6.7,150.8,7.4,149.2L7.4,149.2L7.4,149.2
		L7.4,149.2z M5.7,156.1c2.6-1.2,8.4-3.6,17.3-7.2c7.4-3.1,12-4.8,13.4-5.3c0.7-0.2,1.2-0.5,1.2-0.5c0.2,0.2,0.2,0.5,0,1.2
		c-0.7,1.7-1.2,2.6-1.7,3.1c-3.1,1.2-8.2,3.1-15.1,6c-4.6,2.2-10.3,4.6-16.8,7.7C4.3,159.5,5,158,5.7,156.1L5.7,156.1L5.7,156.1
		L5.7,156.1z"/>
	<path class="st0" d="M223.9,100.9c0,1.9-0.5,4.1-1.4,6c-1.2,2.6-2.6,4.1-4.3,4.1c-2.9,0-4.8-1.9-6-5.8c-1.4,4.8-3.8,7.4-7.4,7.4
		c-1.2,0-2.4-0.7-3.4-2.2c-1.2-1.4-1.7-3.6-1.7-6v-6.2c0-0.5-0.5-0.7-1-1c-0.7-0.2-1-0.7-1-1.4c0-1.4,0.5-2.6,1.4-3.8
		c1-1.2,1.7-1.7,2.2-1.7c0.7,0,1.2,1.2,1.2,3.8c0,1.4-0.2,2.6-0.2,3.6c-0.2,1-0.2,1.7-0.2,2.4c0,1.4,0.2,2.9,0.7,4.1
		c0.7,1.4,1.7,2.4,2.6,2.4c1.4,0,2.6-0.7,3.8-1.9c1.2-1.2,1.9-2.6,1.9-4.3c0-1-0.5-2.4-1-4.8c-0.7-2.2-1-3.6-1-4.1s0.2-1.2,0.7-2.4
		c0.5-1,1-1.4,1.2-1.4c0.5,0,1,1.4,1.7,4.3c0.7,3.1,1.2,5.3,1.2,6.7c0,4.1,1.4,6.2,4.6,6.2c1.4,0,2.4-0.7,2.6-2.2
		c-2.6-4.8-4.1-8.4-4.1-11c0-1.4,0.2-2.6,1.2-3.8c0.5-0.7,0.7-1.2,1-1.2c0.2,0,0.5,0.5,0.5,1.4c0.2,1.2,0.5,2.4,0.7,3.4
		c0,0,0.7,1.7,1.9,5C223.4,98.5,223.9,100,223.9,100.9L223.9,100.9L223.9,100.9L223.9,100.9z"/>
	<path class="st0" d="M121.2,107.4C161.8,92,203,76.7,245.3,60.8c0.7-0.2,1.2-0.5,1.2-0.2c0.2,0,0.2,0.5,0,1.2
		c-1,2.2-1.7,3.4-2.2,3.8c-38.6,14.4-80.6,30.5-125.5,48.5C119.2,112,120,109.8,121.2,107.4L121.2,107.4L121.2,107.4L121.2,107.4z"
		/>
	<path class="st0" d="M270,1.3c-1,2.4-1.7,3.8-2.2,4.1c-0.7,0.7-29.3,11.8-85.7,32.9c-9.8,3.6-26.4,10.1-49.9,19.4
		C108,67.3,94.5,72.8,92.1,74c-3.6,1.9-5.3,3.4-5.3,3.8c0,0.5,0.5,1,1.7,1.7c1.2,0.5,3.1,1.2,5.5,2.2c0.5,0.2,0.7,1.2,0.7,2.9
		c0,1.4,0,2.4-0.2,2.6c0,0.2-0.7,0.2-1.4,0.2c-6-1.2-8.9-3.4-8.9-6.2c0-1.9,0.7-4.1,2.4-6.7s3.4-4.6,5-5.8c1.2-0.7,11.8-5,31.2-13
		c22.1-8.9,41.8-16.6,59.3-23l86.6-32.4c1-0.2,1.4-0.5,1.7-0.2C270.5,0.1,270.5,0.6,270,1.3L270,1.3L270,1.3L270,1.3z"/>
	<path class="st0" d="M158.8,78.1c-2.6,0.7-4.1,1.2-4.6,1.2v-0.2c0,0,1-0.7,2.9-1.9c1.9-1.2,4.8-3.1,8.9-6.2c1.9-1.9,4.8-5,8.4-9.4
		c2.4-2.9,5-5.5,7.9-7.4c3.6-2.6,7-3.8,10.6-3.8c0.7,0,1.9,0.2,3.4,0.7c1.2,0.5,2.4,0.7,3.4,0.7c1.9,0,3.4-0.7,4.6-2.2
		c0.7-1.4,1.7-2.6,2.6-4.1c0.5-1,1.2-1.4,1.7-1.4c0.2,0,0.2,0.2,0.2,0.7s-0.2,1.7-0.7,3.1c-0.5,0.7,1.4,1,5,1c0.5,0,0.7,0,0.7-0.2
		c0,0-0.2-1-0.7-2.6c-0.2-0.5,0-1.2,0.7-2.2c1-1.7,1.4-2.4,1.7-2.2c1,0.7,1.4,2.2,1.4,3.8c0,1.7-0.5,3.4-1.2,5.3
		c-0.7,2.2-1.4,3.4-1.9,3.8c-1.7,1-4.3,0.7-7.9-1c-2.9,2.9-5.8,4.6-8.6,4.6c-0.7,0-1.9-0.2-3.1-0.7s-2.2-0.7-2.9-0.7
		c-4.8,0-9.8,2.2-14.9,7c-3.6,3.6-7.2,7.2-10.8,10.8C163.4,76.2,161.2,77.4,158.8,78.1L158.8,78.1L158.8,78.1L158.8,78.1z"/>
	<path class="st0" d="M137.7,74.5c0,2.6-1.2,5.5-3.1,8.6c-2.2,3.1-4.8,6-8.2,8.4c-1.4,1-2.2,1.4-2.4,1.4v-0.2c0-0.2,0.5-0.7,1.4-1.9
		c5.5-6,8.4-9.8,8.4-12c0-1.7-1-2.6-2.6-2.6c-1,0-1.9,0.2-2.6,0.7c-0.7,0.2-1,0.5-1.2,0.5c0,0-0.2,0-0.2-0.2c0,0,0-0.5,0.2-1.4
		c1-4.1,2.9-6,6.2-6C136.3,69.7,137.7,71.4,137.7,74.5L137.7,74.5L137.7,74.5L137.7,74.5z"/>
	<path class="st0" d="M165.3,172c2.9,0,5.3,1.4,7.4,4.8c2.2,3.1,3.8,7.4,4.6,12.7c0.2,0.5,0.2,0.7,0.2,1h0.2c0-0.2,0.2-0.5,0.2-1
		c0.5-3.1,1.7-7.9,3.4-14.2c1.9-4.3,3.8-6.5,6-6.5c1.2,0,2.4,0.7,3.4,2.2c1,1.4,1.4,2.4,1.4,3.4c0,0.5,0,1.4-0.5,2.4
		c-0.5,1.4-1,2.2-1.4,2.2c-0.2,0-0.7-0.7-1.7-1.7c-0.7-1-1.7-1.4-2.6-1.4c-1.9,0-3.6,4.6-5.3,13.7c-0.7,4.1-1.7,7-2.4,8.6
		c-0.7,1-1.2,1.7-1.7,1.7s-0.5-0.7-0.7-1.7c0.2-1.7-0.7-4.8-2.6-9.4c-1.9-4.8-3.1-7-4.1-7c-0.5,0-0.7,0-1,0.5
		c-0.2,0.2-0.5,0.5-1.2,0.5c-1,0-1.9-0.7-3.4-1.9c-1.4-1.2-1.9-2.2-1.9-2.9c0-0.2,0.5-1.4,1.7-3.4C164.4,172.7,165.1,172,165.3,172
		L165.3,172L165.3,172L165.3,172z"/>
	<path class="st0" d="M59.5,177.5c0-0.2,0.2-0.5,0.2-0.5c0.2-0.2,0.2-0.2,0.2,0c0.2,0.2,0.2,0.5,0,0.7c-1.2,7.2-3.4,10.8-6.5,10.8
		s-4.6-2.6-4.6-7.9c0-6.5,1.7-13.4,5.5-20.4c1-1.7,1.4-2.6,1.7-2.6l0,0c0,0.2-0.2,1.2-0.7,2.9c-2.4,7.4-3.6,12.5-3.6,15.6
		c0,3.8,1,6,3.1,6C56.4,182,57.8,180.4,59.5,177.5L59.5,177.5L59.5,177.5L59.5,177.5z"/>
	<path class="st0" d="M19.9,69.7c0-0.2,0.2-0.5,0.2-0.5c0.2-0.2,0.2-0.2,0.2,0c0.2,0.2,0.2,0.5,0,0.7c-1.2,7.2-3.4,10.8-6.5,10.8
		s-4.6-2.6-4.6-7.9c0-6.5,1.7-13.4,5.5-20.4c1-1.7,1.4-2.6,1.7-2.6l0,0c0,0.2-0.2,1.2-0.7,2.9c-2.4,7.4-3.6,12.5-3.6,15.6
		c0,3.8,1,6,3.1,6C16.8,74.3,18.2,72.6,19.9,69.7L19.9,69.7L19.9,69.7L19.9,69.7z"/>
	<path class="st0" d="M183.6,6.1c0,0.5-0.2,1.4-0.5,2.4c-0.5,1.4-1,2.2-1.7,2.2c-0.2,0-0.7-0.7-1.7-1.7c-0.7-1-1.7-1.4-2.4-1.4
		c-1.9,0-3.8,4.6-5.5,13.7c-0.7,4.1-1.4,6.7-2.4,8.4c-0.7,1.2-1.2,1.7-1.7,1.7c-0.2,0-0.5-0.5-0.5-1.4c0-1.7-1-4.8-2.9-9.4
		c-1.7-4.8-3.1-7-3.8-7c-0.5,0-1,0-1,0.5c-0.2,0.2-0.7,0.5-1.4,0.5c-1,0-2.2-0.7-3.6-1.9c-1.4-1.4-1.9-2.4-1.7-2.9
		c2.2-4.1,3.4-6,3.8-6c2.6,0,5.3,1.4,7.4,4.8c2.2,3.1,3.6,7.4,4.6,12.5c0,0.7,0,1,0,1c0.2,0.2,0.2,0.2,0.2,0c0,0,0.2-0.2,0.5-1
		c0.5-2.9,1.4-7.7,3.1-13.9c1.9-4.3,3.8-6.5,6.2-6.5c1,0,2.2,0.7,3.4,2.2C183.1,4.2,183.6,5.2,183.6,6.1L183.6,6.1L183.6,6.1
		L183.6,6.1z M152.8,9.7c0.5-1,1-1.4,1.2-1.4c0,0,0.2,0.2,0,0.2c0.2,0.7-0.5,2.4-1.9,5c-2.4,4.6-5.8,8.2-10.1,11.3
		c-4.6,3.4-8.6,5.8-12.2,7.4c-0.7,0.5-5,2.2-13,5c-1.2,0.5-1.9,0.7-2.4,0.7c-0.2,0-0.2-0.2-0.2-0.2c0-0.2,0.7-1,1.9-1.7
		c6.7-3.6,15.8-9.4,27.6-17.3C148.5,15.3,151.4,12.1,152.8,9.7L152.8,9.7L152.8,9.7L152.8,9.7z"/>
	<path class="st0" d="M93.6,47.2c-0.7,1.2-1,1.9-1.4,1.9c-0.5,0-0.5-1-0.2-2.4c0.2-1.2,0.5-3.1,0.5-5c0-7-3.8-13.7-11.8-20.6
		c-0.5-0.2-0.5-1,0-1.4l2.2-3.8c0.2-0.5,0.5-0.5,1,0c7.7,5.5,11.5,13.2,11.5,22.8C95.2,41.6,94.5,44.5,93.6,47.2L93.6,47.2
		L93.6,47.2L93.6,47.2z"/>
	<path class="st0" d="M415.4,112.2c1.2-1,2.2-1.4,2.9-1.4c0.5,0,0.7,0.5,0.7,1.4c0,0.7-0.2,2.2-0.7,4.1s-0.7,3.4-0.7,4.6
		c0,5.3,3.8,8.2,11.3,8.2c6,0,11-2.6,14.9-7.7c2.4-4.1,5-7.9,7.4-11.8c1-1,1.7-1.4,2.4-1.4c1,0,1.2,1,0.7,3.1c-1,4.1-1.7,6-1.7,5.5
		c0,1.7,1,3.4,2.9,4.8c1.7,1.4,4.1,2.4,6.7,2.4c3.4,0,5.5-1,6.5-2.6c0-0.2-1-2.2-3.1-5.8c0.2-1.9,1.2-5.3,2.6-9.8
		c0.2-1.4,0.7-2.2,1.2-2.2s1,0.2,1.7,1.2c1.9,2.9,3.1,6.2,3.1,10.1c0,6-1.4,11-4.1,15.4c-2.9,5.3-7.2,7.9-13,7.9
		c-3.8,0-7.4-3.1-10.6-8.9c-5.3,9.6-12.2,14.4-20.6,14.4c-10.1,0-14.9-5.8-14.9-16.8c-3.8,4.6-10.3,8.6-18.7,12.5v-13.2
		c6.2-3.1,10.3-5,11.5-5.8C407.7,118.5,411.6,115.6,415.4,112.2L415.4,112.2L415.4,112.2L415.4,112.2z"/>
	<path class="st0" d="M378.7,128c-3.6-4.6-6.7-6.7-9.6-6.7c-4.3,0-6.2,1-6.2,3.4c0,2.9,2.9,4.3,8.6,4.3
		C373.7,129,376,128.5,378.7,128L378.7,128L378.7,128L378.7,128z M386.1,145.6c0-1.4-0.5-3.1-1-4.8c-2.9,1-7.2,1.7-12.5,1.7
		c-11.5,0-17.3-4.1-17.3-12c0-6,1.7-11.3,5.5-16.1c3.6-4.1,7.4-6.2,11.5-6.2c3.1,0,6.2,1.9,9.8,5.5c3.1,3.6,6,7.7,8.4,12.7
		c0.2,0,0.7,0,1.7-0.5v13.2l-0.5,0.5c0,2.9-0.7,6.2-2.2,10.6c-1.7,5.5-4.3,10.1-7.4,13.7c-7.2,8.6-15.1,16.1-23.8,22.6
		c-13,9.6-24,14.6-33.6,14.6c-8.2,0-14.4-3.1-18.7-9.1c-3.8-5-5.8-11.8-5.8-19.7c0-10.1,2.2-20.4,6.2-31.2c1.2-2.4,1.7-3.4,2.2-3.4
		c0.2,0,0.2,0.2,0.2,0.7c0,0.7-0.2,1.9-0.5,3.4c-3.1,10.6-4.6,18.5-4.6,24c0,5,1.2,9.4,3.6,13c3.8,5,9.8,7.7,18.2,7.7
		c7.2,0,15.8-3.1,26.2-9.4c8.2-5,16.1-11,23.8-18.2C382.5,152,386.1,147.7,386.1,145.6L386.1,145.6L386.1,145.6L386.1,145.6z"/>
	<path class="st0" d="M320.6,109.3c-0.5-2.2-1.2-3.8-2.2-5c-0.7-1.4-1.2-2.2-1.4-2.6c0-0.5,0-2.2,0.5-5.5c0.5-3.1,0.7-5.3,1.2-6.5
		c0.2-1.2,0.5-1.7,1-1.7c0.2,0,0.5,0.2,1,0.7c3.4,3.8,7,7.7,11,11.8c1.7,1.7,2.4,2.6,2.4,3.1c0,0.2-0.2,0.5-0.7,0.5
		c-0.7,0-2.6-0.5-5.5-1.2c1.7,4.1,3.6,8.2,5.3,12c2.6,6.7,4.1,12.2,4.1,17.3c0,2.4-0.5,5.3-1.4,8.9c-1.2,4.1-2.6,7.2-4.6,9.4
		c-7,7.9-18.7,16.6-35.3,25.9c-14.4,8.4-22.8,12.5-25.4,12.5c-0.5,0-7.7,1.7-21.4,5c-14.4,3.4-23.5,5.5-27.1,6c-3.8,0.7-6.2,1-7.2,1
		c-0.5,0-0.5,0-0.5-0.2s2.6-1.7,7.9-4.1c1.9-1,13-5.8,33.4-14.4c14.2-6,25.9-11.5,35.3-16.6c14.2-7.7,25-14.4,32.4-19.9
		c5.5-4.3,8.4-7.4,8.4-9.4c0-0.5-1.4-3.8-4.3-10.1C324.2,119.2,321.8,113.4,320.6,109.3L320.6,109.3L320.6,109.3L320.6,109.3z"/>
	<path class="st0" d="M300.9,76c0,3.8-1.9,9.1-5.8,15.6c-2.4,4.1-6,9.6-10.8,16.8c4.8,5.5,8.2,10.6,9.8,14.9c1,3.1,1.7,7.2,1.7,11.8
		c0,1.9-0.5,4.3-1.4,7.4c-0.7,2.9-1.7,5-2.6,6.5c-1.9,2.9-5,5.8-9.8,8.6c-5,3.4-9.4,5-13,5c-5.8,0-8.6-4.3-8.6-13
		c0-5.8,1-11.5,2.9-16.8c1.9-4.6,5-10.6,10.1-18.5c-4.3-4.1-8.9-9.8-13.9-17c-0.5-0.7-1.7-1.9-3.6-3.8c-1-1-1.4-2.2-1.4-3.6
		c0-2.2,0.2-4.6,0.7-7.4c0.7-2.9,1.2-4.1,1.4-4.1c0.7,0,2.9,1.2,7,3.8c3.8,2.6,7,4.6,8.9,6.2c1.2,0.7,1.7,1.4,1.7,1.4V90
		c0,0.2-0.7,0.5-2.4,0.5c-3.1,0-4.8,0.2-4.8,0.5c0,0.2,0.5,0.7,1.4,1.9c3.8,4.8,7.7,8.4,11.8,11.3c1-1.4,4.3-6.2,9.6-14.4
		c4.6-7,7.2-11.8,8.4-14.6c1.2-2.9,1.9-4.1,2.4-4.1C300.7,71.2,300.9,72.6,300.9,76L300.9,76L300.9,76L300.9,76z M291.6,135
		c-2.6-5.3-7.2-10.8-13.4-16.1c-2.2,2.2-4.8,6.2-8.2,12c-3.8,6.5-5.5,10.6-5.5,12.7c0,2.9,1.9,4.3,6.2,4.3c1.9,0,4.3-0.7,7.4-1.9
		c4.3-1.9,8.4-4.6,11.8-7.9C291.3,136.7,291.8,135.7,291.6,135L291.6,135L291.6,135L291.6,135z"/>
	<path class="st0" d="M278.1,58l3.8-7.9c0.2-0.5,0.5-0.7,1-0.7s2.4,1.2,6.2,3.8c3.6,2.4,5.5,3.8,5.5,4.3c0,1.7-1.7,5.3-4.8,10.6
		c-0.5,0.7-1,0.7-1.4,0.5c-3.1-2.4-6.7-4.8-10.8-7.4c-1.4,2.9-2.6,5.5-4.1,7.7c-0.2,0.7-0.7,1-1.2,0.7c-3.6-2.9-7.4-5.5-11.3-7.9
		c-0.2-0.2-0.2-0.5,0-1l4.6-9.6c0.2-0.5,0.7-1,1-1c0.5,0,2.2,1.2,5.3,3.4C275,55.3,277.2,57,278.1,58L278.1,58L278.1,58L278.1,58z"
		/>
	<path class="st0" d="M404.6,191.9c-2.6,0.7-4.1,1.2-4.6,1.2v-0.2c0,0,1-0.7,2.9-1.9c1.9-1.2,4.8-3.1,8.9-6.2c1.9-1.9,4.8-5,8.4-9.4
		c2.4-2.9,5-5.5,7.9-7.4c3.6-2.6,7-3.8,10.6-3.8c0.7,0,1.9,0.2,3.4,0.7c1.2,0.5,2.4,0.7,3.4,0.7c1.9,0,3.4-0.7,4.6-2.2
		c0.7-1.4,1.7-2.6,2.6-4.1c0.5-1,1.2-1.4,1.7-1.4c0.2,0,0.2,0.2,0.2,0.7s-0.2,1.7-0.7,3.1c-0.5,0.7,1.4,1,5,1c0.5,0,0.7,0,0.7-0.2
		c0,0-0.2-1-0.7-2.6c-0.2-0.5,0-1.2,0.7-2.2c1-1.7,1.4-2.4,1.7-2.2c1,0.7,1.4,2.2,1.4,3.8c0,1.7-0.5,3.4-1.2,5.3
		c-0.7,2.2-1.4,3.4-1.9,3.8c-1.7,1-4.3,0.7-7.9-1c-2.9,2.9-5.8,4.6-8.6,4.6c-0.7,0-1.9-0.2-3.1-0.7c-1.2-0.5-2.2-0.7-2.9-0.7
		c-4.8,0-9.8,2.2-14.9,7c-3.6,3.6-7.2,7.2-10.8,10.8C409.2,190,407,191.2,404.6,191.9L404.6,191.9L404.6,191.9L404.6,191.9z"/>
	<path class="st0" d="M353,62.3c2.9,0,5.3,1.4,7.4,4.8c2.2,3.1,3.8,7.4,4.6,12.7c0.2,0.5,0.2,0.7,0.2,1h0.2c0-0.2,0.2-0.5,0.2-1
		c0.5-3.1,1.7-7.9,3.4-14.2c1.9-4.3,3.8-6.5,6-6.5c1.2,0,2.4,0.7,3.4,2.2c1,1.4,1.4,2.4,1.4,3.4c0,0.5,0,1.4-0.5,2.4
		c-0.5,1.4-1,2.2-1.4,2.2c-0.2,0-0.7-0.7-1.7-1.7c-0.7-1-1.7-1.4-2.6-1.4c-1.9,0-3.6,4.6-5.3,13.7c-0.7,4.1-1.7,7-2.4,8.6
		c-0.7,1-1.2,1.7-1.7,1.7s-0.5-0.7-0.7-1.7c0.2-1.7-0.7-4.8-2.6-9.4c-1.9-4.8-3.1-7-4.1-7c-0.5,0-0.7,0-1,0.5
		c-0.2,0.2-0.5,0.5-1.2,0.5c-1,0-1.9-0.7-3.4-1.9c-1.4-1.2-1.9-2.2-1.9-2.9c0-0.2,0.5-1.4,1.7-3.4C352,63,352.8,62.3,353,62.3
		L353,62.3L353,62.3L353,62.3z"/>
	<path class="st0" d="M312.5,59.2c24.2-9.1,49.4-18.2,75.4-27.8c0.7-0.2,1.2-0.5,1.2-0.2c0.2,0,0.2,0.5,0,1.2
		c-1,2.2-1.7,3.4-2.2,3.8c-0.2,0.2-12.5,4.8-36.2,13.7c-24.2,8.9-37.9,14.4-40.6,16.1C310.5,63.7,311.2,61.6,312.5,59.2L312.5,59.2
		L312.5,59.2L312.5,59.2z"/>
	<path class="st0" d="M288.9,15.3c0.5-1.4,0.5-2.9,0.2-4.3c-0.2-1.4-1-2.2-2.2-2.2c-0.5,0-1.2,0.2-2.2,0.7s-1.4,1-1.4,1.4
		C283.4,12.1,285.3,13.6,288.9,15.3L288.9,15.3L288.9,15.3L288.9,15.3z M286,21.5c-4.6-2.4-6.7-4.8-6.7-7.4c0-3.1,1.4-6,4.3-8.4
		c2.9-2.6,5.3-3.6,7.2-2.9c1.7,0.5,2.4,2.2,2.4,5c0,2.6-0.5,5.5-1.7,8.9c2.4,1.2,3.8,2.4,4.3,3.4c0,1.2-1,3.4-3.1,6.2
		c-0.5-1-1.9-2.2-4.1-3.4c-2.6,3.6-5.8,6.7-9.6,9.6c-4.6,3.1-8.6,5.8-12.2,7.2c-1,0.5-5.3,2.2-13,5c-1.2,0.5-2.2,0.7-2.4,0.7
		c-0.2,0-0.2-0.2-0.2-0.2c0-0.2,0.5-1,1.9-1.7c5.8-3.6,11.5-7,17.5-10.3C277.7,28.9,282.7,25.1,286,21.5L286,21.5L286,21.5L286,21.5
		z"/>
	<path class="st0" d="M437.7,51.5c0.5-1.4,0.5-2.9,0.2-4.3c-0.2-1.4-1-2.2-2.2-2.2c-0.5,0-1.2,0.2-2.2,0.7s-1.4,1-1.4,1.4
		C432.2,48.4,434.1,49.8,437.7,51.5L437.7,51.5L437.7,51.5L437.7,51.5z M443,60.4c-2.4,5.8-3.6,10.3-3.6,13.7c0,4.1,1,6.2,3.1,6.2
		c1.2,0,2.6-1.7,4.3-4.6c0.2-0.2,0.2-0.5,0.5-0.7c0,0,0.2,0,0.2,0.2c0,0,0,0.2,0,0.7c-1.4,7.2-3.6,10.8-6.5,10.8
		c-3.1,0-4.6-2.6-4.6-7.9c0-2.6,0.5-6,1.9-10.3s2.2-6.5,2.2-6.7c0-0.5-1-1.4-3.1-2.6c-3.8,5-9.1,9.8-15.8,13.9
		c-4.6,2.6-9.1,5-13.9,7c-8.9,3.6-14.2,5.5-15.4,6.2c-1.2,0.5-1.9,0.7-2.4,0.7c-0.2,0-0.2-0.2-0.2-0.2c0-0.5,0.5-1,1.9-1.9
		c7.7-4.3,15.1-8.6,22.8-13c10.1-5.8,17-10.6,20.4-14.2c-4.6-2.4-6.7-4.8-6.7-7.4c0-3.1,1.4-6,4.3-8.6c2.9-2.4,5.3-3.4,7.2-2.6
		c1.4,0.5,2.4,2.2,2.4,5c0,2.6-0.5,5.5-1.7,8.6c2.4,1.4,3.4,2.9,3.4,4.3C443.7,57.7,443.5,58.9,443,60.4L443,60.4L443,60.4L443,60.4
		z"/>
	<path class="st0" d="M330.5,28.7c0-0.2,0.2-0.5,0.2-0.5c0.2-0.2,0.2-0.2,0.2,0c0.2,0.2,0.2,0.5,0,0.7c-1.2,7.2-3.4,10.8-6.5,10.8
		s-4.6-2.6-4.6-7.9c0-6.5,1.7-13.4,5.5-20.4c1-1.7,1.4-2.6,1.7-2.6l0,0c0,0.2-0.2,1.2-0.7,2.9c-2.4,7.4-3.6,12.5-3.6,15.6
		c0,3.8,1,6,3.1,6C327.3,33.3,328.8,31.6,330.5,28.7L330.5,28.7L330.5,28.7L330.5,28.7z"/>
</g>
</svg>
