<?xml version="1.0" encoding="utf-8"?>
<!-- Generator: Adobe Illustrator 24.0.0, SVG Export Plug-In . SVG Version: 6.00 Build 0)  -->
<svg version="1.1" id="Layer_1" xmlns="http://www.w3.org/2000/svg" xmlns:xlink="http://www.w3.org/1999/xlink" x="0px" y="0px"
	 viewBox="0 0 602.9 202.5" style="enable-background:new 0 0 602.9 202.5;" xml:space="preserve">
<style type="text/css">
	.st0{fill:#C4692C;}
</style>
<g>
	<path class="st0" d="M357.6,25c0-4.8-0.7-8.6-2.2-11.8c0-1.7,1.2-5.8,4.1-12c0.2-0.7,0.5-1.2,0.7-1.2c0.5,0,0.7,0.5,1.2,1.2
		c0.7,1.7,2.4,6.2,5.3,13.7c3.1,7.9,4.8,12.7,5.3,14.6c0.5,1.2,0.5,2.4,0.5,2.9c0,2.2-1.9,1-6.2-3.8c-0.5-0.7-0.7-0.2-0.7,1
		c0,0.5,1.2,15.4,3.4,45.1c2.2,29.5,3.1,46.1,3.1,49.9c0,11.3-1.7,21.4-5,30c-1,1.7-1.4,2.9-1.9,3.8l0,0c-0.7,1.2-1,1.2-1.2,0.5
		c-0.2-1,0-2.9,0.2-5.5c0.5-4.1,0.7-8.6,0.7-13.7c0-4.8-1.2-24-3.6-57.8C358.8,48.1,357.6,29.1,357.6,25L357.6,25L357.6,25L357.6,25
		z"/>
	<path class="st0" d="M333.9,34.4c0-1.9-0.5-4.3-1.4-7c-1-2.6-1.4-4.1-1.4-4.3c0-0.5,0.5-2.4,1.4-5.8c1-3.4,1.4-5.3,1.7-5.8
		c0.5-1,0.7-1.2,1-1.2c0.2,0,0.7,0.2,1.2,1c1,2.2,3.1,6.2,6.2,12.7c3.4,7.2,5.5,12,6.2,14.2c0.5,1.7,0.7,2.6,0.7,3.4
		c0,1.9-2.2,0.7-6.2-4.1c-0.5-0.5-0.7,0-0.7,1.2c0,4.3,1.4,19.9,4.6,46.6c3.1,26.6,4.8,43.9,4.8,51.4c0,16.1-3.8,29.5-11.3,39.8
		c-6,8.4-12.7,14.2-20.2,17.5c-2.9,1.4-7.9,2.9-14.9,4.8c-7.2,1.9-12.5,2.9-15.8,3.4c-1.2,0-1.9,0-1.9-0.5c0-0.2,0.5-1,1.9-1.9
		c6.5-3.6,17-9.8,31.7-19c4.8-2.9,9.4-7,14.2-12.2c6.2-6.7,9.6-12.5,9.6-17c0-9.8-1.9-30.7-5.8-62.6
		C335.5,56.7,333.9,38.7,333.9,34.4L333.9,34.4L333.9,34.4L333.9,34.4z M243.6,44.5c-1.2-1.7-2.4-3.1-3.8-3.8c-0.7-0.5-1-1.2-1-2.4
		v-9.6c0-1.9,0.2-2.9,1-2.9c0.5,0,1.4,0.5,2.6,1.2l18.5,14.4c1.4,1,2.2,1.9,2.2,2.4s-0.5,0.7-1.7,0.7c-1.4,0-4.1-0.5-7.7-1.4
		c2.2,3.8,21.6,24,58.3,60.7c17.3,17.3,25.9,32.4,25.9,45.1c0,1,0,2.2-0.2,3.4c-1,8.9-1.7,13.2-2.2,13.2s-1.2-3.6-2.2-11
		c-1.9-11.8-10.8-25.4-26.6-40.8c-25.4-24-43.4-42.7-54-55.9c-2.2-2.6-4.1-5.3-5.8-7.9C246,48.1,244.8,46.4,243.6,44.5L243.6,44.5
		L243.6,44.5L243.6,44.5z"/>
	<g>
		<path class="st0" d="M213.9,159v-14.6c5.3,0,12.7-1.7,22.1-5c4.1-1.4,12.5-4.6,25.7-9.8l-27.6-8.4c-1-0.2-1.9,0.2-2.9,1.2
			c-0.7,0.7-1.9,1-3.4,1c-4.6-0.2-10.8-0.7-18.7-1.2c-1.4-0.2-2.4-0.7-2.4-1.4c0-0.5,0.2-1.2,1-2.4l4.6-8.6c0.7-1.4,1.7-2.2,2.6-2.2
			c5.8-1,12.5-1.4,20.2-1.4c0.2,0,6,1.9,16.8,5.5c12,3.8,20.4,6.5,25.2,7.4c4.8,1.2,12,2.4,21.6,4.1c8.9,1.4,13.9,2.2,15.1,2.2
			c0.7,0,1,0,1.2,0c0.5,0.2,0.5,1-0.2,1.9l-5,9.4c-0.5,1-1.2,1.4-2.4,1.4c-1,0-3.4-0.2-7-0.7c-3.4-0.5-6.5-0.7-9.4-0.7
			c-8.4,0-18,1.9-28.6,5.8c-8.6,3.6-17.3,7.2-25.7,10.8C227.1,157,219.6,159,213.9,159L213.9,159L213.9,159L213.9,159z"/>
	</g>
	<path class="st0" d="M213.9,158.7c-12.5,0-21.6-1.7-27.1-5c-7,5-13.2,7.7-18.5,7.7v-14.6c3.6,0,7-1,10.3-2.4
		c-1.7-2.9-2.4-6.7-2.4-11.5c0-6.7,2.6-13.7,7.7-20.4c4.8-6.2,8.6-9.6,12-9.6c3.1,0,5.8,2.4,7.4,7c1.2,3.6,1.9,7.4,1.9,11.3
		c0,9.4-2.2,16.8-6.2,22.1c2.6,0.7,7.7,1,14.9,1V158.7L213.9,158.7L213.9,158.7z M199.7,130.6c0-1.9-0.7-4.8-2.2-8.2
		c-1.7-3.8-3.1-5.8-4.3-5.8c-1.4,0-3.8,1.7-7,5c-3.1,3.4-5,6.2-6.2,8.9c0.5,1.4,1.7,3.1,3.4,4.8c1.7,1.9,3.6,3.1,5.5,3.8
		C194.2,136.6,197.8,133.8,199.7,130.6L199.7,130.6L199.7,130.6L199.7,130.6z"/>
	<path class="st0" d="M153.4,131.6c1.2,6.7,3.6,11.3,6.7,13.4c1.9,1,4.6,1.7,8.2,1.7v14.6c-5.3,0-9.4-1.2-12.2-3.4
		c-4.3-3.1-7-8.6-8.4-17c-1-5.3-1.9-20.4-2.6-45.8c-1-27.4-1.7-44.2-2.2-50.4c-1.2-10.1-3.1-19.4-5.8-28.6c0-2.4,1-5.8,2.9-10.6
		c0.5-1.2,0.7-1.9,1.2-1.9c0.2,0,0.7,0.7,1.2,1.7c3.1,6,5.3,16.3,7,30.7c1,9.1,1.9,27.1,2.6,54C152.4,115.3,153.1,129.2,153.4,131.6
		L153.4,131.6L153.4,131.6L153.4,131.6z"/>
	<path class="st0" d="M122.4,104.7c-3.6-5.3-7.4-7.9-11.8-7.9c-3.4,0-4.8,1.2-4.8,3.1c0,2.4,1.9,3.6,5.8,4.1
		C114,104.2,117.6,104.5,122.4,104.7L122.4,104.7L122.4,104.7L122.4,104.7z M46.1,153.9c15.6,0,33.6-3.6,53.5-10.6
		c15.1-5.3,26.4-10.3,33.8-15.1c0-3.1-1.7-5.5-5-7.4c-2.9-1.7-6.2-2.6-10.3-2.6h-9.8c-3.6,0-6.5-1.2-8.4-3.6
		c-2.2-2.2-3.4-5.3-3.4-8.9c0-5,1.9-10.1,5.3-15.1c3.6-5,7.2-7.7,10.8-7.7c6,0,11.8,3.4,16.8,10.1c5.8,7.4,8.6,16.3,8.6,26.4
		c0,5.5-0.5,9.6-1.4,11.8c-1,2.9-3.4,6-7.2,9.8c-4.6,4.6-16.1,10.1-34.3,16.6c-21.1,7.4-39.4,11-55,11c-15.4,0-26.2-4.1-33.1-12
		c-4.8-5.8-7-13-7-21.6c0-9.1,2.2-17.5,6.5-25.4c1.4-2.4,2.4-3.8,2.9-3.8c0,0.2,0.2,0.2,0.2,0.7c0,0.7-0.5,2.2-1.2,4.3
		c-1,2.9-2.2,5.5-3.1,8.4c-1.2,3.6-1.7,7.4-1.7,11.5c0,5.3,2.4,9.8,7.7,13.9C18.7,150.8,30.3,153.9,46.1,153.9L46.1,153.9
		L46.1,153.9L46.1,153.9z"/>
	<path class="st0" d="M98.7,61.8c-0.2-0.2-0.2-0.5,0-1l4.6-9.6c0.2-0.5,0.7-0.7,1-0.7c0.5,0,2.6,1.2,6.2,3.6
		c3.8,2.6,5.8,4.1,5.8,4.6c0,1.7-1.7,5-5,10.3c-0.5,0.7-0.7,1-1.2,0.7C106.3,66.8,102.5,64.2,98.7,61.8L98.7,61.8L98.7,61.8
		L98.7,61.8z"/>
	<path class="st0" d="M187.9,76.6l3.8-7.9c0.2-0.5,0.5-0.7,1-0.7s2.4,1.2,6.2,3.8c3.6,2.4,5.5,3.8,5.5,4.3c0,1.7-1.7,5.3-4.8,10.6
		c-0.5,0.7-1,0.7-1.4,0.5c-3.1-2.4-6.7-4.8-10.8-7.4c-1.4,2.9-2.6,5.5-4.1,7.7c-0.2,0.7-0.7,1-1.2,0.7c-3.6-2.9-7.4-5.5-11.3-7.9
		c-0.2-0.2-0.2-0.5,0-1l4.6-9.6c0.2-0.5,0.7-1,1-1c0.5,0,2.2,1.2,5.3,3.4C184.8,74,187,75.7,187.9,76.6L187.9,76.6L187.9,76.6
		L187.9,76.6z"/>
	<path class="st0" d="M242.2,10.4c-0.5,2.2-1,3.4-1.7,4.1c-2.6,1.7-8.6,5.5-17.8,11.8c-0.2,0.2-0.7,0.5-1.2,1
		c-0.2-0.2-0.2-0.2-0.2-0.7l0.5-3.1c0.2-0.7,1.7-2.2,4.6-4.3c-3.6-1.2-5.3-2.9-5.3-4.8c0-2.2,0.7-4.3,2.6-6.5
		c3.6-4.3,6.7-6.5,9.1-6.5c2.2,0,3.1,1.2,3.1,3.6c0,1.4-0.5,2.9-1.7,4.8c-0.2,0.5-0.5,0.5-1-0.2c-0.5-1.2-1.4-1.7-2.6-1.7
		c-0.7,0-1.7,0.2-2.9,1.2c-1.2,0.7-1.9,1.4-1.9,1.9c0,0.7,0.7,1.4,2.2,2.2c1.4,1,2.6,1.2,3.6,1.2c0.7,0,2.2-0.5,4.3-1.7
		c1.4-1,2.6-1.9,4.1-2.9c1.2-0.5,1.9-1,2.2-0.7C242.4,9,242.4,9.4,242.2,10.4L242.2,10.4L242.2,10.4L242.2,10.4z"/>
	<path class="st0" d="M303.6,22.4c0-1.2-2.4-3.4-7.4-6.2c-1.7,2.9-2.4,5.5-2.4,7.9c0,1.4,0.7,2.4,2.2,2.4c1.2,0,2.6-0.5,4.3-1.4
		C301.9,24.3,303.1,23.4,303.6,22.4L303.6,22.4L303.6,22.4L303.6,22.4z M298.3,3.2c0.7-1.2,1.7-1.7,2.4-1.7c0.5,0,1,0.2,1,0.7
		c0,0-0.2,0.2-0.2,0.5c-1,2.2-1.9,4.6-2.6,7c5,3.6,7.4,7.4,7.2,11c-0.5,4.1-1,6.7-1.7,7.7c-2.4,2.9-5,4.6-8.4,4.6s-4.8-2.2-4.8-6
		c0-0.7,0-1.7,0.2-2.6C292.6,16.6,295,9.7,298.3,3.2L298.3,3.2L298.3,3.2L298.3,3.2z"/>
	<path class="st0" d="M316.8,69.9c0-0.2,0.2-0.5,0.2-0.5c0.2-0.2,0.2-0.2,0.2,0c0.2,0.2,0.2,0.5,0,0.7c-1.2,7.2-3.4,10.8-6.5,10.8
		s-4.6-2.6-4.6-7.9c0-6.5,1.7-13.4,5.5-20.4c1-1.7,1.4-2.6,1.7-2.6l0,0c0,0.2-0.2,1.2-0.7,2.9c-2.4,7.4-3.6,12.5-3.6,15.6
		c0,3.8,1,6,3.1,6C313.7,74.5,315.1,72.8,316.8,69.9L316.8,69.9L316.8,69.9L316.8,69.9z"/>
	<path class="st0" d="M294.5,178.2c-4.8,4.3-11.3,6.7-19,6.7c-2.2,0-4.3-0.7-5.8-1.9c-1.4-1.2-2.2-2.9-2.2-4.8
		c0-3.4,1.2-6.7,4.1-10.1c2.9-3.1,5.8-6,8.4-9.1c0.7-0.5,0.5-1-0.5-1.4c-1.9-0.7-4.3-1-6.7-1c-1.2,0-2.6,0.2-4.3,1.2
		c-0.2,0-0.5,0.2-0.7,0c0,0,0-0.2,0.2-0.7c1-2.4,1.9-4.1,2.9-4.8c1.2-1,3.1-1.4,5.8-1.4c5.8,0,8.4,1.2,8.4,4.1c0,2.2-1.7,5-5.3,9.1
		c-2.6,2.6-5.3,5.3-7.9,7.9c-1,1.4-1.4,2.9-1.4,3.8c0,2.4,2.6,3.6,7.7,3.6s10.1-1,15.8-2.6c1.4-0.5,2.2-0.5,2.2-0.2
		C296.2,176.5,295.7,177.2,294.5,178.2L294.5,178.2L294.5,178.2L294.5,178.2z"/>
	<path class="st0" d="M15.6,96.8c0-0.2,0.2-0.5,0.2-0.5c0.2-0.2,0.2-0.2,0.2,0c0.2,0.2,0.2,0.5,0,0.7c-1.2,7.2-3.4,10.8-6.5,10.8
		s-4.6-2.6-4.6-7.9c0-6.5,1.7-13.4,5.5-20.4c1-1.7,1.4-2.6,1.7-2.6l0,0c0,0.2-0.2,1.2-0.7,2.9C9,87.2,7.8,92.3,7.8,95.4
		c0,3.8,1,6,3.1,6C12.5,101.4,13.9,99.7,15.6,96.8L15.6,96.8L15.6,96.8L15.6,96.8z"/>
	<path class="st0" d="M80.4,77.8c0,0.5-0.2,1.4-0.7,2.4c-0.2,1.4-0.7,2.2-1.4,2.2c-0.2,0-0.7-0.7-1.7-1.7c-0.7-1-1.7-1.4-2.4-1.4
		c-1.9,0-3.8,4.6-5.5,13.7c-0.7,4.1-1.4,7-2.4,8.6c-0.7,1-1.2,1.7-1.7,1.7c-0.2,0-0.5-0.7-0.5-1.7c0-1.7-1-4.8-2.9-9.4
		c-1.9-4.8-3.1-7-3.8-7c-0.7,0-1,0-1.2,0.5c0,0.2-0.5,0.5-1.2,0.5c-1,0-1.9-0.7-3.4-1.9c-1.2-1.2-1.9-2.2-1.9-2.9
		c0-0.2,0.5-1.4,1.7-3.4s1.9-2.6,2.2-2.6c2.6,0,5,1.4,7.2,4.8c2.4,3.4,3.8,7.4,4.8,12.7c0,0.5,0,0.7,0,1c0.2,0.2,0.2,0.2,0.2,0
		s0.2-0.5,0.5-1c0.2-3.1,1.4-7.9,3.1-14.2c1.9-4.3,3.8-6.5,6-6.5c1.2,0,2.4,0.7,3.6,2.2C79.9,75.9,80.4,76.9,80.4,77.8L80.4,77.8
		L80.4,77.8L80.4,77.8z M64.6,105.4c-1.7,3.8-5,7.7-10.1,11.3c-4.6,3.4-8.6,5.8-12.2,7.4c-0.7,0.5-5,2.2-13,5
		c-1.2,0.5-1.9,0.7-2.4,0.7c-0.2,0-0.2-0.2-0.2-0.2c0-0.2,0.7-1,1.9-1.7c6.5-3.8,15.6-9.4,27.6-17.3c2.9-2.2,5-4.3,6.7-6.2
		c1.9-2.2,2.9-3.4,3.1-3.4c0,0,0,0,0,0.2C66,101.6,65.5,103,64.6,105.4L64.6,105.4L64.6,105.4L64.6,105.4z"/>
	<path class="st0" d="M121.2,174.6c2.9,0,5.3,1.4,7.4,4.8c2.2,3.1,3.8,7.4,4.6,12.7c0.2,0.5,0.2,0.7,0.2,1h0.2c0-0.2,0.2-0.5,0.2-1
		c0.5-3.1,1.7-7.9,3.4-14.2c1.9-4.3,3.8-6.5,6-6.5c1.2,0,2.4,0.7,3.4,2.2c1,1.4,1.4,2.4,1.4,3.4c0,0.5,0,1.4-0.5,2.4
		c-0.5,1.4-1,2.2-1.4,2.2c-0.2,0-0.7-0.7-1.7-1.7c-0.7-1-1.7-1.4-2.6-1.4c-1.9,0-3.6,4.6-5.3,13.7c-0.7,4.1-1.7,7-2.4,8.6
		c-0.7,1-1.2,1.7-1.7,1.7s-0.5-0.7-0.7-1.7c0.2-1.7-0.7-4.8-2.6-9.4c-1.9-4.8-3.1-7-4.1-7c-0.5,0-0.7,0-1,0.5
		c-0.2,0.2-0.5,0.5-1.2,0.5c-1,0-1.9-0.7-3.4-1.9c-1.4-1.2-1.9-2.2-1.9-2.9c0-0.2,0.5-1.4,1.7-3.4
		C120.3,175.3,121,174.6,121.2,174.6L121.2,174.6L121.2,174.6L121.2,174.6z"/>
	<path class="st0" d="M187.5,190.9c0-0.2,0.2-0.5,0.2-0.5c0.2-0.2,0.2-0.2,0.2,0c0.2,0.2,0.2,0.5,0,0.7c-1.2,7.2-3.4,10.8-6.5,10.8
		s-4.6-2.6-4.6-7.9c0-6.5,1.7-13.4,5.5-20.4c1-1.7,1.4-2.6,1.7-2.6l0,0c0,0.2-0.2,1.2-0.7,2.9c-2.4,7.4-3.6,12.5-3.6,15.6
		c0,3.8,1,6,3.1,6C184.3,195.4,185.8,193.8,187.5,190.9L187.5,190.9L187.5,190.9L187.5,190.9z"/>
	<path class="st0" d="M219.9,173.8c2.9,0,5.3,1.4,7.4,4.8c2.2,3.1,3.8,7.4,4.6,12.7c0.2,0.5,0.2,0.7,0.2,1h0.2c0-0.2,0.2-0.5,0.2-1
		c0.5-3.1,1.7-7.9,3.4-14.2c1.9-4.3,3.8-6.5,6-6.5c1.2,0,2.4,0.7,3.4,2.2c1,1.4,1.4,2.4,1.4,3.4c0,0.5,0,1.4-0.5,2.4
		c-0.5,1.4-1,2.2-1.4,2.2c-0.2,0-0.7-0.7-1.7-1.7c-0.7-1-1.7-1.4-2.6-1.4c-1.9,0-3.6,4.6-5.3,13.7c-0.7,4.1-1.7,7-2.4,8.6
		c-0.7,1-1.2,1.7-1.7,1.7s-0.5-0.7-0.7-1.7c0.2-1.7-0.7-4.8-2.6-9.4c-1.9-4.8-3.1-7-4.1-7c-0.5,0-0.7,0-1,0.5
		c-0.2,0.2-0.5,0.5-1.2,0.5c-1,0-1.9-0.7-3.4-1.9c-1.4-1.2-1.9-2.2-1.9-2.9c0-0.2,0.5-1.4,1.7-3.4
		C218.9,174.6,219.6,173.8,219.9,173.8L219.9,173.8L219.9,173.8L219.9,173.8z"/>
	<path class="st0" d="M66,182.7c9.6-3.4,19.9-7.2,31-11c1-0.2,1.2-0.5,1.4-0.2c0.2,0,0.2,0.5-0.2,1.2c-0.7,2.2-1.4,3.4-1.9,3.8
		c-9.6,3.4-20.4,7.4-32.6,13C64.1,187.3,64.8,185.1,66,182.7L66,182.7L66,182.7L66,182.7z"/>
	<path class="st0" d="M242.4,78.6c0-1.2-2.4-3.4-7.4-6.2c-1.7,2.9-2.4,5.5-2.4,7.9c0,1.4,0.7,2.4,2.2,2.4c1.2,0,2.6-0.5,4.3-1.4
		C240.7,80.5,241.9,79.5,242.4,78.6L242.4,78.6L242.4,78.6L242.4,78.6z M237.1,59.4c0.7-1.2,1.7-1.7,2.4-1.7c0.5,0,1,0.2,1,0.7
		c0,0-0.2,0.2-0.2,0.5c-1,2.2-1.9,4.6-2.6,7c5,3.6,7.4,7.4,7.2,11c-0.5,4.1-1,6.7-1.7,7.7c-2.4,2.9-5,4.6-8.4,4.6s-4.8-2.2-4.8-6
		c0-0.7,0-1.7,0.2-2.6C231.4,72.8,233.8,65.8,237.1,59.4L237.1,59.4L237.1,59.4L237.1,59.4z"/>
	<path class="st0" d="M167.3,53.4c13.7-4.8,28.1-10.1,43.2-15.6c1-0.2,1.2-0.5,1.4-0.2c0.2,0,0.2,0.5-0.2,1.2
		c-0.7,2.2-1.4,3.4-1.9,3.8c-13,4.6-27.8,10.3-44.9,17.5C165.4,57.9,166.1,55.8,167.3,53.4L167.3,53.4L167.3,53.4L167.3,53.4z"/>
	<path class="st0" d="M168.7,5.6c2.9,0,5.3,1.4,7.4,4.8c2.2,3.1,3.8,7.4,4.6,12.7c0.2,0.5,0.2,0.7,0.2,1h0.2c0-0.2,0.2-0.5,0.2-1
		c0.5-3.1,1.7-7.9,3.4-14.2c1.9-4.3,3.8-6.5,6-6.5c1.2,0,2.4,0.7,3.4,2.2c1,1.4,1.4,2.4,1.4,3.4c0,0.5,0,1.4-0.5,2.4
		c-0.5,1.4-1,2.2-1.4,2.2c-0.2,0-0.7-0.7-1.7-1.7c-0.7-1-1.7-1.4-2.6-1.4c-1.9,0-3.6,4.6-5.3,13.7c-0.7,4.1-1.7,7-2.4,8.6
		c-0.7,1-1.2,1.7-1.7,1.7s-0.5-0.7-0.7-1.7c0.2-1.7-0.7-4.8-2.6-9.4c-1.9-4.8-3.1-7-4.1-7c-0.5,0-0.7,0-1,0.5
		c-0.2,0.2-0.5,0.5-1.2,0.5c-1,0-1.9-0.7-3.4-1.9c-1.4-1.2-1.9-2.2-1.9-2.9c0-0.2,0.5-1.4,1.7-3.4C167.8,6.3,168.5,5.6,168.7,5.6
		L168.7,5.6L168.7,5.6L168.7,5.6z"/>
	<path class="st0" d="M112.3,24.8c0-0.2,0.2-0.5,0.2-0.5c0.2-0.2,0.2-0.2,0.2,0c0.2,0.2,0.2,0.5,0,0.7c-1.2,7.2-3.4,10.8-6.5,10.8
		s-4.6-2.6-4.6-7.9c0-6.5,1.7-13.4,5.5-20.4c1-1.7,1.4-2.6,1.7-2.6l0,0c0,0.2-0.2,1.2-0.7,2.9c-2.4,7.4-3.6,12.5-3.6,15.6
		c0,3.8,1,6,3.1,6C109.2,29.4,110.7,27.7,112.3,24.8L112.3,24.8L112.3,24.8L112.3,24.8z"/>
	<path class="st0" d="M39.9,35.1c2.9,0,5.3,1.4,7.4,4.8c2.2,3.1,3.8,7.4,4.6,12.7c0.2,0.5,0.2,0.7,0.2,1h0.2c0-0.2,0.2-0.5,0.2-1
		c0.5-3.1,1.7-7.9,3.4-14.2c1.9-4.3,3.8-6.5,6-6.5c1.2,0,2.4,0.7,3.4,2.2c1,1.4,1.4,2.4,1.4,3.4c0,0.5,0,1.4-0.5,2.4
		c-0.5,1.4-1,2.2-1.4,2.2c-0.2,0-0.7-0.7-1.7-1.7c-0.7-1-1.7-1.4-2.6-1.4c-1.9,0-3.6,4.6-5.3,13.7c-0.7,4.1-1.7,7-2.4,8.6
		c-0.7,1-1.2,1.7-1.7,1.7s-0.5-0.7-0.7-1.7c0.2-1.7-0.7-4.8-2.6-9.4c-1.9-4.8-3.1-7-4.1-7c-0.5,0-0.7,0-1,0.5
		c-0.2,0.2-0.5,0.5-1.2,0.5c-1,0-1.9-0.7-3.4-1.9c-1.4-1.2-1.9-2.2-1.9-2.9c0-0.2,0.5-1.4,1.7-3.4C38.9,35.8,39.6,35.1,39.9,35.1
		L39.9,35.1L39.9,35.1L39.9,35.1z"/>
	<path class="st0" d="M544.1,112.6c1.2-1,2.2-1.4,2.9-1.4c0.5,0,0.7,0.5,0.7,1.4c0,0.7-0.2,2.2-0.7,4.1s-0.7,3.4-0.7,4.6
		c0,5.3,3.8,8.2,11.3,8.2c6,0,11-2.6,14.9-7.7c2.4-4.1,5-7.9,7.4-11.8c1-1,1.7-1.4,2.4-1.4c1,0,1.2,1,0.7,3.1c-1,4.1-1.7,6-1.7,5.5
		c0,1.7,1,3.4,2.9,4.8c1.7,1.4,4.1,2.4,6.7,2.4c3.4,0,5.5-1,6.5-2.6c0-0.2-1-2.2-3.1-5.8c0.2-1.9,1.2-5.3,2.6-9.8
		c0.2-1.4,0.7-2.2,1.2-2.2s1,0.2,1.7,1.2c1.9,2.9,3.1,6.2,3.1,10.1c0,6-1.4,11-4.1,15.4c-2.9,5.3-7.2,7.9-13,7.9
		c-3.8,0-7.4-3.1-10.6-8.9c-5.3,9.6-12.2,14.4-20.6,14.4c-10.1,0-14.9-5.8-14.9-16.8c-3.8,4.6-10.3,8.6-18.7,12.5v-13.2
		c6.2-3.1,10.3-5,11.5-5.8C536.4,118.9,540.3,116,544.1,112.6L544.1,112.6L544.1,112.6L544.1,112.6z"/>
	<path class="st0" d="M507.4,128.5c-3.6-4.6-6.7-6.7-9.6-6.7c-4.3,0-6.2,1-6.2,3.4c0,2.9,2.9,4.3,8.6,4.3
		C502.3,129.4,504.7,129,507.4,128.5L507.4,128.5L507.4,128.5L507.4,128.5z M514.8,146c0-1.4-0.5-3.1-1-4.8c-2.9,1-7.2,1.7-12.5,1.7
		c-11.5,0-17.3-4.1-17.3-12c0-6,1.7-11.3,5.5-16.1c3.6-4.1,7.4-6.2,11.5-6.2c3.1,0,6.2,1.9,9.8,5.5c3.1,3.6,6,7.7,8.4,12.7
		c0.2,0,0.7,0,1.7-0.5v13.2l-0.5,0.5c0,2.9-0.7,6.2-2.2,10.6c-1.7,5.5-4.3,10.1-7.4,13.7c-7.2,8.6-15.1,16.1-23.8,22.6
		c-13,9.6-24,14.6-33.6,14.6c-8.2,0-14.4-3.1-18.7-9.1c-3.8-5-5.8-11.8-5.8-19.7c0-10.1,2.2-20.4,6.2-31.2c1.2-2.4,1.7-3.4,2.2-3.4
		c0.2,0,0.2,0.2,0.2,0.7c0,0.7-0.2,1.9-0.5,3.4c-3.1,10.6-4.6,18.5-4.6,24c0,5,1.2,9.4,3.6,13c3.8,5,9.8,7.7,18.2,7.7
		c7.2,0,15.8-3.1,26.2-9.4c8.2-5,16.1-11,23.8-18.2C511.2,152.5,514.8,148.2,514.8,146L514.8,146L514.8,146L514.8,146z"/>
	<path class="st0" d="M449.3,109.8c-0.5-2.2-1.2-3.8-2.2-5c-0.7-1.4-1.2-2.2-1.4-2.6c0-0.5,0-2.2,0.5-5.5c0.5-3.1,0.7-5.3,1.2-6.5
		c0.2-1.2,0.5-1.7,1-1.7c0.2,0,0.5,0.2,1,0.7c3.4,3.8,7,7.7,11,11.8c1.7,1.7,2.4,2.6,2.4,3.1c0,0.2-0.2,0.5-0.7,0.5
		c-0.7,0-2.6-0.5-5.5-1.2c1.7,4.1,3.6,8.2,5.3,12c2.6,6.7,4.1,12.2,4.1,17.3c0,2.4-0.5,5.3-1.4,8.9c-1.2,4.1-2.6,7.2-4.6,9.4
		c-7,7.9-18.7,16.6-35.3,25.9c-14.4,8.4-22.8,12.5-25.4,12.5c-0.5,0-7.7,1.7-21.4,5c-14.4,3.4-23.5,5.5-27.1,6c-3.8,0.7-6.2,1-7.2,1
		c-0.5,0-0.5,0-0.5-0.2s2.6-1.7,7.9-4.1c1.9-1,13-5.8,33.4-14.4c14.2-6,25.9-11.5,35.3-16.6c14.2-7.7,25-14.4,32.4-19.9
		c5.5-4.3,8.4-7.4,8.4-9.4c0-0.5-1.4-3.8-4.3-10.1C452.9,119.6,450.5,113.8,449.3,109.8L449.3,109.8L449.3,109.8L449.3,109.8z"/>
	<path class="st0" d="M429.6,76.4c0,3.8-1.9,9.1-5.8,15.6c-2.4,4.1-6,9.6-10.8,16.8c4.8,5.5,8.2,10.6,9.8,14.9
		c1,3.1,1.7,7.2,1.7,11.8c0,1.9-0.5,4.3-1.4,7.4c-0.7,2.9-1.7,5-2.6,6.5c-1.9,2.9-5,5.8-9.8,8.6c-5,3.4-9.4,5-13,5
		c-5.8,0-8.6-4.3-8.6-13c0-5.8,1-11.5,2.9-16.8c1.9-4.6,5-10.6,10.1-18.5c-4.3-4.1-8.9-9.8-13.9-17c-0.5-0.7-1.7-1.9-3.6-3.8
		c-1-1-1.4-2.2-1.4-3.6c0-2.2,0.2-4.6,0.7-7.4c0.7-2.9,1.2-4.1,1.4-4.1c0.7,0,2.9,1.2,7,3.8c3.8,2.6,7,4.6,8.9,6.2
		c1.2,0.7,1.7,1.4,1.7,1.4v0.2c0,0.2-0.7,0.5-2.4,0.5c-3.1,0-4.8,0.2-4.8,0.5c0,0.2,0.5,0.7,1.4,1.9c3.8,4.8,7.7,8.4,11.8,11.3
		c1-1.4,4.3-6.2,9.6-14.4c4.6-7,7.2-11.8,8.4-14.6c1.2-2.9,1.9-4.1,2.4-4.1C429.4,71.6,429.6,73,429.6,76.4L429.6,76.4L429.6,76.4
		L429.6,76.4z M420.3,135.4c-2.6-5.3-7.2-10.8-13.4-16.1c-2.2,2.2-4.8,6.2-8.2,12c-3.8,6.5-5.5,10.6-5.5,12.7c0,2.9,1.9,4.3,6.2,4.3
		c1.9,0,4.3-0.7,7.4-1.9c4.3-1.9,8.4-4.6,11.8-7.9C420,137.1,420.5,136.2,420.3,135.4L420.3,135.4L420.3,135.4L420.3,135.4z"/>
	<path class="st0" d="M406.8,58.4l3.8-7.9c0.2-0.5,0.5-0.7,1-0.7s2.4,1.2,6.2,3.8c3.6,2.4,5.5,3.8,5.5,4.3c0,1.7-1.7,5.3-4.8,10.6
		c-0.5,0.7-1,0.7-1.4,0.5c-3.1-2.4-6.7-4.8-10.8-7.4c-1.4,2.9-2.6,5.5-4.1,7.7c-0.2,0.7-0.7,1-1.2,0.7c-3.6-2.9-7.4-5.5-11.3-7.9
		c-0.2-0.2-0.2-0.5,0-1l4.6-9.6c0.2-0.5,0.7-1,1-1c0.5,0,2.2,1.2,5.3,3.4C403.7,55.8,405.9,57.4,406.8,58.4L406.8,58.4L406.8,58.4
		L406.8,58.4z"/>
	<path class="st0" d="M533.3,192.3c-2.6,0.7-4.1,1.2-4.6,1.2v-0.2c0,0,1-0.7,2.9-1.9c1.9-1.2,4.8-3.1,8.9-6.2c1.9-1.9,4.8-5,8.4-9.4
		c2.4-2.9,5-5.5,7.9-7.4c3.6-2.6,7-3.8,10.6-3.8c0.7,0,1.9,0.2,3.4,0.7c1.2,0.5,2.4,0.7,3.4,0.7c1.9,0,3.4-0.7,4.6-2.2
		c0.7-1.4,1.7-2.6,2.6-4.1c0.5-1,1.2-1.4,1.7-1.4c0.2,0,0.2,0.2,0.2,0.7s-0.2,1.7-0.7,3.1c-0.5,0.7,1.4,1,5,1c0.5,0,0.7,0,0.7-0.2
		c0,0-0.2-1-0.7-2.6c-0.2-0.5,0-1.2,0.7-2.2c1-1.7,1.4-2.4,1.7-2.2c1,0.7,1.4,2.2,1.4,3.8c0,1.7-0.5,3.4-1.2,5.3
		c-0.7,2.2-1.4,3.4-1.9,3.8c-1.7,1-4.3,0.7-7.9-1c-2.9,2.9-5.8,4.6-8.6,4.6c-0.7,0-1.9-0.2-3.1-0.7c-1.2-0.5-2.2-0.7-2.9-0.7
		c-4.8,0-9.8,2.2-14.9,7c-3.6,3.6-7.2,7.2-10.8,10.8C537.9,190.4,535.7,191.6,533.3,192.3L533.3,192.3L533.3,192.3L533.3,192.3z"/>
	<path class="st0" d="M481.9,62.5c2.9,0,5.3,1.4,7.4,4.8c2.2,3.1,3.8,7.4,4.6,12.7c0.2,0.5,0.2,0.7,0.2,1h0.2c0-0.2,0.2-0.5,0.2-1
		c0.5-3.1,1.7-7.9,3.4-14.2c1.9-4.3,3.8-6.5,6-6.5c1.2,0,2.4,0.7,3.4,2.2c1,1.4,1.4,2.4,1.4,3.4c0,0.5,0,1.4-0.5,2.4
		c-0.5,1.4-1,2.2-1.4,2.2c-0.2,0-0.7-0.7-1.7-1.7c-0.7-1-1.7-1.4-2.6-1.4c-1.9,0-3.6,4.6-5.3,13.7c-0.7,4.1-1.7,7-2.4,8.6
		c-0.7,1-1.2,1.7-1.7,1.7s-0.5-0.7-0.7-1.7c0.2-1.7-0.7-4.8-2.6-9.4c-1.9-4.8-3.1-7-4.1-7c-0.5,0-0.7,0-1,0.5
		c-0.2,0.2-0.5,0.5-1.2,0.5c-1,0-1.9-0.7-3.4-1.9c-1.4-1.2-1.9-2.2-1.9-2.9c0-0.2,0.5-1.4,1.7-3.4C481,63.2,481.7,62.5,481.9,62.5
		L481.9,62.5L481.9,62.5L481.9,62.5z"/>
	<path class="st0" d="M441.1,59.6c24.2-9.1,49.4-18.2,75.4-27.8c0.7-0.2,1.2-0.5,1.2-0.2c0.2,0,0.2,0.5,0,1.2
		c-1,2.2-1.7,3.4-2.2,3.8c-0.2,0.2-12.5,4.8-36.2,13.7c-24.2,8.9-37.9,14.4-40.6,16.1C439.2,64.2,439.9,62,441.1,59.6L441.1,59.6
		L441.1,59.6L441.1,59.6z"/>
	<path class="st0" d="M417.6,15.7c0.5-1.4,0.5-2.9,0.2-4.3c-0.2-1.4-1-2.2-2.2-2.2c-0.5,0-1.2,0.2-2.2,0.7s-1.4,1-1.4,1.4
		C412.1,12.6,414,14,417.6,15.7L417.6,15.7L417.6,15.7L417.6,15.7z M414.7,21.9c-4.6-2.4-6.7-4.8-6.7-7.4c0-3.1,1.4-6,4.3-8.4
		c2.9-2.6,5.3-3.6,7.2-2.9c1.7,0.5,2.4,2.2,2.4,5c0,2.6-0.5,5.5-1.7,8.9c2.4,1.2,3.8,2.4,4.3,3.4c0,1.2-1,3.4-3.1,6.2
		c-0.5-1-1.9-2.2-4.1-3.4c-2.6,3.6-5.8,6.7-9.6,9.6c-4.6,3.1-8.6,5.8-12.2,7.2c-1,0.5-5.3,2.2-13,5c-1.2,0.5-2.2,0.7-2.4,0.7
		c-0.2,0-0.2-0.2-0.2-0.2c0-0.2,0.5-1,1.9-1.7c5.8-3.6,11.5-7,17.5-10.3C406.3,29.4,411.4,25.5,414.7,21.9L414.7,21.9L414.7,21.9
		L414.7,21.9z"/>
	<path class="st0" d="M566.4,51.9c0.5-1.4,0.5-2.9,0.2-4.3c-0.2-1.4-1-2.2-2.2-2.2c-0.5,0-1.2,0.2-2.2,0.7s-1.4,1-1.4,1.4
		C560.9,48.8,562.8,50.2,566.4,51.9L566.4,51.9L566.4,51.9L566.4,51.9z M571.7,60.8c-2.4,5.8-3.6,10.3-3.6,13.7c0,4.1,1,6.2,3.1,6.2
		c1.2,0,2.6-1.7,4.3-4.6c0.2-0.2,0.2-0.5,0.5-0.7c0,0,0.2,0,0.2,0.2c0,0,0,0.2,0,0.7c-1.4,7.2-3.6,10.8-6.5,10.8
		c-3.1,0-4.6-2.6-4.6-7.9c0-2.6,0.5-6,1.9-10.3s2.2-6.5,2.2-6.7c0-0.5-1-1.4-3.1-2.6c-3.8,5-9.1,9.8-15.8,13.9
		c-4.6,2.6-9.1,5-13.9,7c-8.9,3.6-14.2,5.5-15.4,6.2c-1.2,0.5-1.9,0.7-2.4,0.7c-0.2,0-0.2-0.2-0.2-0.2c0-0.5,0.5-1,1.9-1.9
		c7.7-4.3,15.1-8.6,22.8-13c10.1-5.8,17-10.6,20.4-14.2c-4.6-2.4-6.7-4.8-6.7-7.4c0-3.1,1.4-6,4.3-8.6c2.9-2.4,5.3-3.4,7.2-2.6
		c1.4,0.5,2.4,2.2,2.4,5c0,2.6-0.5,5.5-1.7,8.6c2.4,1.4,3.4,2.9,3.4,4.3C572.4,58.2,572.2,59.4,571.7,60.8L571.7,60.8L571.7,60.8
		L571.7,60.8z"/>
	<path class="st0" d="M462.5,25.8c0-0.2,0.2-0.5,0.2-0.5c0.2-0.2,0.2-0.2,0.2,0c0.2,0.2,0.2,0.5,0,0.7c-1.2,7.2-3.4,10.8-6.5,10.8
		s-4.6-2.6-4.6-7.9c0-6.5,1.7-13.4,5.5-20.4c1-1.7,1.4-2.6,1.7-2.6l0,0c0,0.2-0.2,1.2-0.7,2.9c-2.4,7.4-3.6,12.5-3.6,15.6
		c0,3.8,1,6,3.1,6C459.4,30.3,460.8,28.6,462.5,25.8L462.5,25.8L462.5,25.8L462.5,25.8z"/>
</g>
</svg>
