<?xml version="1.0" encoding="utf-8"?>
<!-- Generator: Adobe Illustrator 24.0.0, SVG Export Plug-In . SVG Version: 6.00 Build 0)  -->
<svg version="1.1" id="Layer_1" xmlns="http://www.w3.org/2000/svg" xmlns:xlink="http://www.w3.org/1999/xlink" x="0px" y="0px"
	 viewBox="0 0 514 204" style="enable-background:new 0 0 514 204;" xml:space="preserve">
<style type="text/css">
	.st0{fill:#C4692C;}
</style>
<g>
	<path class="st0" d="M268.8,26.9c0-4.8-0.7-8.6-2.2-11.8c0-1.7,1.2-5.8,4.1-12c0.2-0.7,0.5-1.2,0.7-1.2c0.5,0,0.7,0.5,1.2,1.2
		c0.7,1.7,2.4,6.2,5.3,13.7c3.1,7.9,4.8,12.7,5.3,14.6c0.5,1.2,0.5,2.4,0.5,2.9c0,2.2-1.9,1-6.2-3.8c-0.5-0.7-0.7-0.2-0.7,1
		c0,0.5,1.2,15.4,3.4,45.1c2.2,29.5,3.1,46.1,3.1,49.9c0,11.3-1.7,21.4-5,30c-1,1.7-1.4,2.9-1.9,3.8l0,0c-0.7,1.2-1,1.2-1.2,0.5
		c-0.2-1,0-2.9,0.2-5.5c0.5-4.1,0.7-8.6,0.7-13.7c0-4.8-1.2-24-3.6-57.8C270,49.9,268.8,31,268.8,26.9L268.8,26.9L268.8,26.9
		L268.8,26.9z"/>
	<path class="st0" d="M247.2,36.2c0-1.9-0.5-4.3-1.4-7c-1-2.6-1.4-4.1-1.4-4.3c0-0.5,0.5-2.4,1.4-5.8c1-3.4,1.4-5.3,1.7-5.8
		c0.5-1,0.7-1.2,1-1.2c0.2,0,0.7,0.2,1.2,1c1,2.2,3.1,6.2,6.2,12.7c3.4,7.2,5.5,12,6.2,14.2c0.5,1.7,0.7,2.6,0.7,3.4
		c0,1.9-2.2,0.7-6.2-4.1c-0.5-0.5-0.7,0-0.7,1.2c0,4.3,1.4,19.9,4.6,46.6c3.1,26.6,4.8,43.9,4.8,51.4c0,16.1-3.8,29.5-11.3,39.8
		c-6,8.4-12.7,14.2-20.2,17.5c-2.9,1.4-7.9,2.9-14.9,4.8c-7.2,1.9-12.5,2.9-15.8,3.4c-1.2,0-1.9,0-1.9-0.5c0-0.2,0.5-1,1.9-1.9
		c6.5-3.6,17-9.8,31.7-19c4.8-2.9,9.4-7,14.2-12.2c6.2-6.7,9.6-12.5,9.6-17c0-9.8-1.9-30.7-5.8-62.6
		C248.8,58.6,247.2,40.6,247.2,36.2L247.2,36.2L247.2,36.2L247.2,36.2z M156.9,46.3c-1.2-1.7-2.4-3.1-3.8-3.8c-0.7-0.5-1-1.2-1-2.4
		v-9.6c0-1.9,0.2-2.9,1-2.9c0.5,0,1.4,0.5,2.6,1.2l18.5,14.4c1.4,1,2.2,1.9,2.2,2.4s-0.5,0.7-1.7,0.7c-1.4,0-4.1-0.5-7.7-1.4
		c2.2,3.8,21.6,24,58.3,60.7c17.3,17.3,25.9,32.4,25.9,45.1c0,1,0,2.2-0.2,3.4c-1,8.9-1.7,13.2-2.2,13.2s-1.2-3.6-2.2-11
		c-1.9-11.8-10.8-25.4-26.6-40.8c-25.4-24-43.4-42.7-54-55.9c-2.2-2.6-4.1-5.3-5.8-7.9C159.3,49.9,158.1,48.2,156.9,46.3L156.9,46.3
		L156.9,46.3L156.9,46.3z"/>
	<path class="st0" d="M170.4,202.3v-14.6c3.8,0,8.4-1.4,13.2-3.8c4.6-2.4,7.4-4.6,8.9-6.7c0.2-0.2,0.2-1,0-1.7
		c-2.2-3.6-4.3-7.4-6.5-11.3c-3.6-6-5.8-11-6.7-14.6c-0.2-1-0.7-1.7-1.9-2.2c-1-0.2-1.4-1-1.2-1.9l1.4-11.5c0.2-1.2,0.5-1.9,1-1.9
		s1,0.5,1.7,1l11.3,10.1c1.4,1.2,2.2,2.2,2.2,2.9c0,1.2-2.4,1.2-7,0c7.2,11.5,10.8,19.4,10.8,23.8c0,11.5-3.6,20.2-10.8,26.2
		C181.4,200.2,175.9,202.3,170.4,202.3L170.4,202.3L170.4,202.3L170.4,202.3z"/>
	<path class="st0" d="M153.8,167.3c-2.6-1.9-7.9-2.9-15.4-3.1c-2.6,0.2-5.3,0.2-7.4,0.7c4.8,3.1,8.2,6,10.3,8.4
		C145.2,171.1,149.5,169,153.8,167.3L153.8,167.3L153.8,167.3L153.8,167.3z M137.7,187.7c-9.4,6.2-14.9,9.8-17,10.8
		c-4.6,2.6-9.4,3.8-14.2,3.8v-14.6c6.7,0,14.4-2.6,22.8-7.9c-2.6-2.9-6-5.3-9.8-7.4c-3.4-1.9-6-2.9-7.7-2.9c-3.6,0-6.2,0.5-7.9,1.7
		c-0.7,0.2-1.2,0.5-1.7,0.5s-0.7-0.2-0.7-1c0-0.5,0-1,0.5-1.7l4.3-10.1c0.7-1.9,5-3.6,13-5.5c7.4-1.7,14.6-2.4,21.4-2.4
		c13.2,0,23.8,2.9,31.4,8.6c1.9,1.4,2.9,2.4,2.9,3.1c0,0.2-0.2,1.2-0.7,2.2l-4.6,8.4c-4.6,1.7-10.8,4.3-19,7.7
		c4.6,4.6,11.3,6.7,19.7,6.7v14.6c-6.5,0-11.5-0.7-15.1-2.4C150.9,198.2,145.2,194.2,137.7,187.7L137.7,187.7L137.7,187.7
		L137.7,187.7z"/>
	<path class="st0" d="M91.6,172.6c1.2,6.7,3.6,11.3,6.7,13.4c1.9,1,4.6,1.7,8.2,1.7v14.6c-5.3,0-9.4-1.2-12.2-3.4
		c-4.3-3.1-7-8.6-8.4-17c-1-5.3-1.9-23.5-3.1-55.2c-1-33.8-1.9-53.8-2.4-60c-1.2-9.8-3.1-19.4-5.8-28.3c0-2.4,1-6,2.9-10.8
		c0.5-1.2,0.7-1.7,1.2-1.7c0.2,0,0.7,0.5,1.2,1.4c3.1,6,5.3,16.3,7,31c1,9.1,1.9,30,2.9,63.4C90.7,153.1,91.4,170.2,91.6,172.6
		L91.6,172.6L91.6,172.6L91.6,172.6z"/>
	<path class="st0" d="M118.3,81.4c0-1-2.2-2.6-6.7-4.6c-4.6-1.9-7.9-2.6-10.1-2.2c-1,0.2-1.2,0.5-1,0.7c0.7,2.2,2.4,5.8,5,10.8
		C112.3,84,116.4,82.6,118.3,81.4L118.3,81.4L118.3,81.4L118.3,81.4z M61.6,110.4C75,99.8,87.8,92.6,100.2,88.6
		c-1-1.4-2.2-4.1-3.8-7.4c-1-1.7-1.2-3.6-1.2-6c0-3.8,1-7,2.9-9.6c2.2-3.4,5.5-4.8,10.1-4.8c3.6,0,8.6,2.2,15.1,6.7
		c7,4.8,10.6,8.6,10.6,11.8c-1.2,4.1-2.4,7.9-3.8,11.5c-5.5,1.7-12.2,3.8-20.2,6.2c0.2,4.6-0.2,7-1.4,7c-0.7,0-1.7-1.7-2.6-5.3
		c-3.6,1.4-8.6,3.6-15.1,6.5c-9.4,4.3-16.6,8.4-21.4,12.2c-7.2,5.8-14.6,12.7-22.3,21.1c-8.6,9.4-13.4,14.6-14.9,15.8
		c-4.8,4.3-9.4,6.5-13.7,6.5c-5,0-9.4-2.4-13-6.7C1.7,149.5,0,144,0,137.5c0-9.1,3.6-20.9,11-35.3c0.7-1.4,1.4-2.4,1.9-2.4
		c0.2,0,0.2,0.2,0.2,0.7c0,1.4-1.7,6.5-4.8,15.1c-3.4,8.6-4.8,15.6-4.8,20.6c0,3.8,0.7,7,2.6,9.4c1.9,2.4,4.6,3.6,7.9,3.6
		c4.8,0,9.8-2.4,15.4-7c3.1-2.4,8.2-7.7,15.1-15.6C51.6,119.3,57.1,113.8,61.6,110.4L61.6,110.4L61.6,110.4L61.6,110.4z"/>
	<path class="st0" d="M212.6,20.9c0-1.2-2.4-3.4-7.4-6.2c-1.7,2.9-2.4,5.5-2.4,7.9c0,1.4,0.7,2.4,2.2,2.4c1.2,0,2.6-0.5,4.3-1.4
		C210.9,22.8,212.1,21.8,212.6,20.9L212.6,20.9L212.6,20.9L212.6,20.9z M207.3,1.7C208,0.5,209,0,209.7,0c0.5,0,1,0.2,1,0.7
		c0,0-0.2,0.2-0.2,0.5c-1,2.2-1.9,4.6-2.6,7c5,3.6,7.4,7.4,7.2,11c-0.5,4.1-1,6.7-1.7,7.7c-2.4,2.9-5,4.6-8.4,4.6s-4.8-2.2-4.8-6
		c0-0.7,0-1.7,0.2-2.6C201.6,15.1,204,8.2,207.3,1.7L207.3,1.7L207.3,1.7L207.3,1.7z"/>
	<path class="st0" d="M222.2,66.2c0-0.2,0.2-0.5,0.2-0.5c0.2-0.2,0.2-0.2,0.2,0c0.2,0.2,0.2,0.5,0,0.7c-1.2,7.2-3.4,10.8-6.5,10.8
		s-4.6-2.6-4.6-7.9c0-6.5,1.7-13.4,5.5-20.4c1-1.7,1.4-2.6,1.7-2.6l0,0c0,0.2-0.2,1.2-0.7,2.9c-2.4,7.4-3.6,12.5-3.6,15.6
		c0,3.8,1,6,3.1,6C219.1,70.8,220.5,69.1,222.2,66.2L222.2,66.2L222.2,66.2L222.2,66.2z"/>
	<path class="st0" d="M163.6,107c-0.2-0.2-0.2-0.5,0-1l4.6-9.6c0.2-0.5,0.7-0.7,1-0.7c0.5,0,2.6,1.2,6.2,3.6
		c3.8,2.6,5.8,4.1,5.8,4.6c0,1.7-1.7,5-5,10.3c-0.5,0.7-0.7,1-1.2,0.7C171.3,112.1,167.5,109.4,163.6,107L163.6,107L163.6,107
		L163.6,107z"/>
	<path class="st0" d="M157.9,13.4c-0.5,2.2-1,3.4-1.7,4.1c-2.6,1.7-8.6,5.5-17.8,11.8c-0.2,0.2-0.7,0.5-1.2,1
		c-0.2-0.2-0.2-0.2-0.2-0.7l0.5-3.1c0.2-0.7,1.7-2.2,4.6-4.3c-3.6-1.2-5.3-2.9-5.3-4.8c0-2.2,0.7-4.3,2.6-6.5
		c3.6-4.3,6.7-6.5,9.1-6.5c2.2,0,3.1,1.2,3.1,3.6c0,1.4-0.5,2.9-1.7,4.8c-0.2,0.5-0.5,0.5-1-0.2c-0.5-1.2-1.4-1.7-2.6-1.7
		c-0.7,0-1.7,0.2-2.9,1.2c-1.2,0.7-1.9,1.4-1.9,1.9c0,0.7,0.7,1.4,2.2,2.2c1.4,1,2.6,1.2,3.6,1.2c0.7,0,2.2-0.5,4.3-1.7
		c1.4-1,2.6-1.9,4.1-2.9c1.2-0.5,1.9-1,2.2-0.7C158.1,12,158.1,12.5,157.9,13.4L157.9,13.4L157.9,13.4L157.9,13.4z"/>
	<path class="st0" d="M157.6,78.2c0-1.2-2.4-3.4-7.4-6.2c-1.7,2.9-2.4,5.5-2.4,7.9c0,1.4,0.7,2.4,2.2,2.4c1.2,0,2.6-0.5,4.3-1.4
		C156,80.2,157.2,79.2,157.6,78.2L157.6,78.2L157.6,78.2L157.6,78.2z M152.4,59c0.7-1.2,1.7-1.7,2.4-1.7c0.5,0,1,0.2,1,0.7
		c0,0-0.2,0.2-0.2,0.5c-1,2.2-1.9,4.6-2.6,7c5,3.6,7.4,7.4,7.2,11c-0.5,4.1-1,6.7-1.7,7.7c-2.4,2.9-5,4.6-8.4,4.6s-4.8-2.2-4.8-6
		c0-0.7,0-1.7,0.2-2.6C146.6,72.5,149,65.5,152.4,59L152.4,59L152.4,59L152.4,59z"/>
	<path class="st0" d="M99.3,138.7c18.5-6.7,37.7-13.9,57.8-21.4c0.7-0.2,1.2-0.5,1.4-0.2c0,0,0,0.5-0.2,1.2c-1,2.2-1.7,3.4-2.2,3.8
		c-16.8,6.2-36.7,13.9-59.3,23.3C97.4,143.3,98.1,141.1,99.3,138.7L99.3,138.7L99.3,138.7L99.3,138.7z"/>
	<path class="st0" d="M33.8,182.4c9.6-3.4,19.9-7.2,31-11c1-0.2,1.2-0.5,1.4-0.2c0.2,0,0.2,0.5-0.2,1.2c-0.7,2.2-1.4,3.4-1.9,3.8
		c-9.6,3.4-20.4,7.4-32.6,13C31.9,187,32.6,184.8,33.8,182.4L33.8,182.4L33.8,182.4L33.8,182.4z"/>
	<path class="st0" d="M72.9,139.4c0,2.6-1.2,5.5-3.1,8.6c-2.2,3.1-4.8,6-8.2,8.4c-1.4,1-2.2,1.4-2.4,1.4v-0.2c0-0.2,0.5-0.7,1.4-1.9
		c5.5-6,8.4-9.8,8.4-12c0-1.7-1-2.6-2.6-2.6c-1,0-1.9,0.2-2.6,0.7c-0.7,0.2-1,0.5-1.2,0.5c0,0-0.2,0-0.2-0.2c0,0,0-0.5,0.2-1.4
		c1-4.1,2.9-6,6.2-6C71.5,134.6,72.9,136.3,72.9,139.4L72.9,139.4L72.9,139.4L72.9,139.4z"/>
	<path class="st0" d="M217.6,147.4c0-0.2,0.2-0.5,0.2-0.5c0.2-0.2,0.2-0.2,0.2,0c0.2,0.2,0.2,0.5,0,0.7c-1.2,7.2-3.4,10.8-6.5,10.8
		s-4.6-2.6-4.6-7.9c0-6.5,1.7-13.4,5.5-20.4c1-1.7,1.4-2.6,1.7-2.6l0,0c0,0.2-0.2,1.2-0.7,2.9c-2.4,7.4-3.6,12.5-3.6,15.6
		c0,3.8,1,6,3.1,6C214.5,151.9,216,150.2,217.6,147.4L217.6,147.4L217.6,147.4L217.6,147.4z"/>
	<path class="st0" d="M109.6,42.5c4.8,0,9.8-1,15.6-2.6c1.4-0.5,2.2-0.5,2.2-0.2c0,0.2-0.5,0.7-1.7,1.7c-4.8,4.3-11.3,6.7-19,6.7
		c-2.2,0-4.3-0.7-5.8-1.9c-1.4-1.2-2.2-2.9-2.2-4.8c0-5,2.2-10.3,6.5-15.8c-3.8-1.2-5.8-3.1-5.8-6c0-2.6,1.4-5.5,4.6-8.9
		c3.1-3.4,5.5-5,7.4-5c0.5,0,1,0.2,1.4,1.2c0.5,0.7,0.7,1.4,0.7,2.4c0,0.5-0.5,1.4-1.4,2.9c-1,1.4-1.7,1.9-1.7,1.7
		c-0.5-1.4-1.2-2.2-2.6-2.2c-0.7,0-1.4,0.5-2.4,1.7c-1.2,1.2-1.7,2.2-1.7,2.9c1.2,1.9,3.4,3.1,6.2,3.1c1,0,2.6-1,4.6-2.9
		c1.4-1,2.6-2.2,3.8-3.4c0.5-0.2,0.7,0,0.7,1c0,2.4-1,4.6-2.4,7c-6.5,4.3-11.3,9.4-14.4,14.9c-0.5,1.2-0.7,2.2-0.7,2.9
		C101.7,41,104.4,42.5,109.6,42.5L109.6,42.5L109.6,42.5L109.6,42.5z"/>
	<path class="st0" d="M17.5,94.1c0-0.2,0.2-0.5,0.2-0.5c0.2-0.2,0.2-0.2,0.2,0c0.2,0.2,0.2,0.5,0,0.7c-1.2,7.2-3.4,10.8-6.5,10.8
		s-4.6-2.6-4.6-7.9c0-6.5,1.7-13.4,5.5-20.4c1-1.7,1.4-2.6,1.7-2.6l0,0c0,0.2-0.2,1.2-0.7,2.9c-2.4,7.4-3.6,12.5-3.6,15.6
		c0,3.8,1,6,3.1,6C14.4,98.6,15.8,97,17.5,94.1L17.5,94.1L17.5,94.1L17.5,94.1z"/>
	<path class="st0" d="M46,41.8c1.7,0,3.6,1,6.2,3.1c2.6,1.9,4.1,3.8,4.3,5.3c0.2,0.5-0.2,1.4-1,3.1c-0.7,1.7-1.2,2.4-1.4,2.4
		c-2.4,0.7-4.8,1.4-7.2,2.2c-3.1,1-5,2.2-6.2,3.4c3.4,10.1,5,19.9,5,29.8c0,2.9-0.5,5.8-1,8.9c-0.2,1-0.5,1.4-0.7,1.7
		c-0.2,0-0.2-1.9-0.2-5.3c0-5.5-1-12.5-2.6-20.4c-1.7-7.9-2.4-12.7-2.4-13.7c0-4.1,1-7,3.4-8.9c1-0.7,3.1-1.7,6-2.6
		c-1.2-1.2-2.4-1.7-3.6-1.7c-0.5,0-1.2,0.5-2.2,1.7c-1,1.4-1.7,1.9-1.7,1.9c-0.2,0-0.5-0.5-0.2-1.4C41.2,44.9,43.2,41.8,46,41.8
		L46,41.8L46,41.8L46,41.8z"/>
	<path class="st0" d="M455.2,114.7c1.2-1,2.2-1.4,2.9-1.4c0.5,0,0.7,0.5,0.7,1.4c0,0.7-0.2,2.2-0.7,4.1s-0.7,3.4-0.7,4.6
		c0,5.3,3.8,8.2,11.3,8.2c6,0,11-2.6,14.9-7.7c2.4-4.1,5-7.9,7.4-11.8c1-1,1.7-1.4,2.4-1.4c1,0,1.2,1,0.7,3.1c-1,4.1-1.7,6-1.7,5.5
		c0,1.7,1,3.4,2.9,4.8c1.7,1.4,4.1,2.4,6.7,2.4c3.4,0,5.5-1,6.5-2.6c0-0.2-1-2.2-3.1-5.8c0.2-1.9,1.2-5.3,2.6-9.8
		c0.2-1.4,0.7-2.2,1.2-2.2s1,0.2,1.7,1.2c1.9,2.9,3.1,6.2,3.1,10.1c0,6-1.4,11-4.1,15.4c-2.9,5.3-7.2,7.9-13,7.9
		c-3.8,0-7.4-3.1-10.6-8.9c-5.3,9.6-12.2,14.4-20.6,14.4c-10.1,0-14.9-5.8-14.9-16.8c-3.8,4.6-10.3,8.6-18.7,12.5v-13.2
		c6.2-3.1,10.3-5,11.5-5.8C447.6,121,451.4,118.1,455.2,114.7L455.2,114.7L455.2,114.7L455.2,114.7z"/>
	<path class="st0" d="M418.5,130.6c-3.6-4.6-6.7-6.7-9.6-6.7c-4.3,0-6.2,1-6.2,3.4c0,2.9,2.9,4.3,8.6,4.3
		C413.5,131.5,415.9,131,418.5,130.6L418.5,130.6L418.5,130.6L418.5,130.6z M426,148.1c0-1.4-0.5-3.1-1-4.8c-2.9,1-7.2,1.7-12.5,1.7
		c-11.5,0-17.3-4.1-17.3-12c0-6,1.7-11.3,5.5-16.1c3.6-4.1,7.4-6.2,11.5-6.2c3.1,0,6.2,1.9,9.8,5.5c3.1,3.6,6,7.7,8.4,12.7
		c0.2,0,0.7,0,1.7-0.5v13.2l-0.5,0.5c0,2.9-0.7,6.2-2.2,10.6c-1.7,5.5-4.3,10.1-7.4,13.7c-7.2,8.6-15.1,16.1-23.8,22.6
		c-13,9.6-24,14.6-33.6,14.6c-8.2,0-14.4-3.1-18.7-9.1c-3.8-5-5.8-11.8-5.8-19.7c0-10.1,2.2-20.4,6.2-31.2c1.2-2.4,1.7-3.4,2.2-3.4
		c0.2,0,0.2,0.2,0.2,0.7c0,0.7-0.2,1.9-0.5,3.4c-3.1,10.6-4.6,18.5-4.6,24c0,5,1.2,9.4,3.6,13c3.8,5,9.8,7.7,18.2,7.7
		c7.2,0,15.8-3.1,26.2-9.4c8.2-5,16.1-11,23.8-18.2C422.4,154.6,426,150.2,426,148.1L426,148.1L426,148.1L426,148.1z"/>
	<path class="st0" d="M360.4,111.6c-0.5-2.2-1.2-3.8-2.2-5c-0.7-1.4-1.2-2.2-1.4-2.6c0-0.5,0-2.2,0.5-5.5c0.5-3.1,0.7-5.3,1.2-6.5
		c0.2-1.2,0.5-1.7,1-1.7c0.2,0,0.5,0.2,1,0.7c3.4,3.8,7,7.7,11,11.8c1.7,1.7,2.4,2.6,2.4,3.1c0,0.2-0.2,0.5-0.7,0.5
		c-0.7,0-2.6-0.5-5.5-1.2c1.7,4.1,3.6,8.2,5.3,12c2.6,6.7,4.1,12.2,4.1,17.3c0,2.4-0.5,5.3-1.4,8.9c-1.2,4.1-2.6,7.2-4.6,9.4
		c-7,7.9-18.7,16.6-35.3,25.9c-14.4,8.4-22.8,12.5-25.4,12.5c-0.5,0-7.7,1.7-21.4,5c-14.4,3.4-23.5,5.5-27.1,6c-3.8,0.7-6.2,1-7.2,1
		c-0.5,0-0.5,0-0.5-0.2s2.6-1.7,7.9-4.1c1.9-1,13-5.8,33.4-14.4c14.2-6,25.9-11.5,35.3-16.6c14.2-7.7,25-14.4,32.4-19.9
		c5.5-4.3,8.4-7.4,8.4-9.4c0-0.5-1.4-3.8-4.3-10.1C364,121.4,361.6,115.7,360.4,111.6L360.4,111.6L360.4,111.6L360.4,111.6z"/>
	<path class="st0" d="M340.8,78.2c0,3.8-1.9,9.1-5.8,15.6c-2.4,4.1-6,9.6-10.8,16.8c4.8,5.5,8.2,10.6,9.8,14.9
		c1,3.1,1.7,7.2,1.7,11.8c0,1.9-0.5,4.3-1.4,7.4c-0.7,2.9-1.7,5-2.6,6.5c-1.9,2.9-5,5.8-9.8,8.6c-5,3.4-9.4,5-13,5
		c-5.8,0-8.6-4.3-8.6-13c0-5.8,1-11.5,2.9-16.8c1.9-4.6,5-10.6,10.1-18.5c-4.3-4.1-8.9-9.8-13.9-17c-0.5-0.7-1.7-1.9-3.6-3.8
		c-1-1-1.4-2.2-1.4-3.6c0-2.2,0.2-4.6,0.7-7.4c0.7-2.9,1.2-4.1,1.4-4.1c0.7,0,2.9,1.2,7,3.8c3.8,2.6,7,4.6,8.9,6.2
		c1.2,0.7,1.7,1.4,1.7,1.4v0.2c0,0.2-0.7,0.5-2.4,0.5c-3.1,0-4.8,0.2-4.8,0.5c0,0.2,0.5,0.7,1.4,1.9c3.8,4.8,7.7,8.4,11.8,11.3
		c1-1.4,4.3-6.2,9.6-14.4c4.6-7,7.2-11.8,8.4-14.6c1.2-2.9,1.9-4.1,2.4-4.1C340.5,73.4,340.8,74.9,340.8,78.2L340.8,78.2L340.8,78.2
		L340.8,78.2z M331.4,137.3c-2.6-5.3-7.2-10.8-13.4-16.1c-2.2,2.2-4.8,6.2-8.2,12c-3.8,6.5-5.5,10.6-5.5,12.7c0,2.9,1.9,4.3,6.2,4.3
		c1.9,0,4.3-0.7,7.4-1.9c4.3-1.9,8.4-4.6,11.8-7.9C331.2,139,331.6,138,331.4,137.3L331.4,137.3L331.4,137.3L331.4,137.3z"/>
	<path class="st0" d="M318,60.2l3.8-7.9c0.2-0.5,0.5-0.7,1-0.7s2.4,1.2,6.2,3.8c3.6,2.4,5.5,3.8,5.5,4.3c0,1.7-1.7,5.3-4.8,10.6
		c-0.5,0.7-1,0.7-1.4,0.5c-3.1-2.4-6.7-4.8-10.8-7.4c-1.4,2.9-2.6,5.5-4.1,7.7c-0.2,0.7-0.7,1-1.2,0.7c-3.6-2.9-7.4-5.5-11.3-7.9
		c-0.2-0.2-0.2-0.5,0-1l4.6-9.6c0.2-0.5,0.7-1,1-1c0.5,0,2.2,1.2,5.3,3.4C314.8,57.6,317,59.3,318,60.2L318,60.2L318,60.2L318,60.2z
		"/>
	<path class="st0" d="M444.4,194.2c-2.6,0.7-4.1,1.2-4.6,1.2v-0.2c0,0,1-0.7,2.9-1.9c1.9-1.2,4.8-3.1,8.9-6.2c1.9-1.9,4.8-5,8.4-9.4
		c2.4-2.9,5-5.5,7.9-7.4c3.6-2.6,7-3.8,10.6-3.8c0.7,0,1.9,0.2,3.4,0.7c1.2,0.5,2.4,0.7,3.4,0.7c1.9,0,3.4-0.7,4.6-2.2
		c0.7-1.4,1.7-2.6,2.6-4.1c0.5-1,1.2-1.4,1.7-1.4c0.2,0,0.2,0.2,0.2,0.7s-0.2,1.7-0.7,3.1c-0.5,0.7,1.4,1,5,1c0.5,0,0.7,0,0.7-0.2
		c0,0-0.2-1-0.7-2.6c-0.2-0.5,0-1.2,0.7-2.2c1-1.7,1.4-2.4,1.7-2.2c1,0.7,1.4,2.2,1.4,3.8c0,1.7-0.5,3.4-1.2,5.3
		c-0.7,2.2-1.4,3.4-1.9,3.8c-1.7,1-4.3,0.7-7.9-1c-2.9,2.9-5.8,4.6-8.6,4.6c-0.7,0-1.9-0.2-3.1-0.7c-1.2-0.5-2.2-0.7-2.9-0.7
		c-4.8,0-9.8,2.2-14.9,7c-3.6,3.6-7.2,7.2-10.8,10.8C449,192.2,446.8,193.4,444.4,194.2L444.4,194.2L444.4,194.2L444.4,194.2z"/>
	<path class="st0" d="M393.1,64.6c2.9,0,5.3,1.4,7.4,4.8c2.2,3.1,3.8,7.4,4.6,12.7c0.2,0.5,0.2,0.7,0.2,1h0.2c0-0.2,0.2-0.5,0.2-1
		c0.5-3.1,1.7-7.9,3.4-14.2c1.9-4.3,3.8-6.5,6-6.5c1.2,0,2.4,0.7,3.4,2.2c1,1.4,1.4,2.4,1.4,3.4c0,0.5,0,1.4-0.5,2.4
		c-0.5,1.4-1,2.2-1.4,2.2c-0.2,0-0.7-0.7-1.7-1.7c-0.7-1-1.7-1.4-2.6-1.4c-1.9,0-3.6,4.6-5.3,13.7c-0.7,4.1-1.7,7-2.4,8.6
		c-0.7,1-1.2,1.7-1.7,1.7s-0.5-0.7-0.7-1.7c0.2-1.7-0.7-4.8-2.6-9.4c-1.9-4.8-3.1-7-4.1-7c-0.5,0-0.7,0-1,0.5
		c-0.2,0.2-0.5,0.5-1.2,0.5c-1,0-1.9-0.7-3.4-1.9c-1.4-1.2-1.9-2.2-1.9-2.9c0-0.2,0.5-1.4,1.7-3.4C392.1,65.3,392.8,64.6,393.1,64.6
		L393.1,64.6L393.1,64.6L393.1,64.6z"/>
	<path class="st0" d="M352.3,61.4c24.2-9.1,49.4-18.2,75.4-27.8c0.7-0.2,1.2-0.5,1.2-0.2c0.2,0,0.2,0.5,0,1.2
		c-1,2.2-1.7,3.4-2.2,3.8c-0.2,0.2-12.5,4.8-36.2,13.7c-24.2,8.9-37.9,14.4-40.6,16.1C350.4,66,351.1,63.8,352.3,61.4L352.3,61.4
		L352.3,61.4L352.3,61.4z"/>
	<path class="st0" d="M328.8,17.5c0.5-1.4,0.5-2.9,0.2-4.3c-0.2-1.4-1-2.2-2.2-2.2c-0.5,0-1.2,0.2-2.2,0.7s-1.4,1-1.4,1.4
		C323.2,14.4,325.2,15.8,328.8,17.5L328.8,17.5L328.8,17.5L328.8,17.5z M325.9,23.8c-4.6-2.4-6.7-4.8-6.7-7.4c0-3.1,1.4-6,4.3-8.4
		c2.9-2.6,5.3-3.6,7.2-2.9c1.7,0.5,2.4,2.2,2.4,5c0,2.6-0.5,5.5-1.7,8.9c2.4,1.2,3.8,2.4,4.3,3.4c0,1.2-1,3.4-3.1,6.2
		c-0.5-1-1.9-2.2-4.1-3.4c-2.6,3.6-5.8,6.7-9.6,9.6c-4.6,3.1-8.6,5.8-12.2,7.2c-1,0.5-5.3,2.2-13,5c-1.2,0.5-2.2,0.7-2.4,0.7
		s-0.2-0.2-0.2-0.2c0-0.2,0.5-1,1.9-1.7c5.8-3.6,11.5-7,17.5-10.3C317.5,31.2,322.5,27.4,325.9,23.8L325.9,23.8L325.9,23.8
		L325.9,23.8z"/>
	<path class="st0" d="M477.6,53.8c0.5-1.4,0.5-2.9,0.2-4.3c-0.2-1.4-1-2.2-2.2-2.2c-0.5,0-1.2,0.2-2.2,0.7s-1.4,1-1.4,1.4
		C472,50.6,474,52.1,477.6,53.8L477.6,53.8L477.6,53.8L477.6,53.8z M482.8,62.6c-2.4,5.8-3.6,10.3-3.6,13.7c0,4.1,1,6.2,3.1,6.2
		c1.2,0,2.6-1.7,4.3-4.6c0.2-0.2,0.2-0.5,0.5-0.7c0,0,0.2,0,0.2,0.2c0,0,0,0.2,0,0.7c-1.4,7.2-3.6,10.8-6.5,10.8
		c-3.1,0-4.6-2.6-4.6-7.9c0-2.6,0.5-6,1.9-10.3s2.2-6.5,2.2-6.7c0-0.5-1-1.4-3.1-2.6c-3.8,5-9.1,9.8-15.8,13.9
		c-4.6,2.6-9.1,5-13.9,7c-8.9,3.6-14.2,5.5-15.4,6.2c-1.2,0.5-1.9,0.7-2.4,0.7c-0.2,0-0.2-0.2-0.2-0.2c0-0.5,0.5-1,1.9-1.9
		c7.7-4.3,15.1-8.6,22.8-13c10.1-5.8,17-10.6,20.4-14.2c-4.6-2.4-6.7-4.8-6.7-7.4c0-3.1,1.4-6,4.3-8.6c2.9-2.4,5.3-3.4,7.2-2.6
		c1.4,0.5,2.4,2.2,2.4,5c0,2.6-0.5,5.5-1.7,8.6c2.4,1.4,3.4,2.9,3.4,4.3C483.6,60,483.3,61.2,482.8,62.6L482.8,62.6L482.8,62.6
		L482.8,62.6z"/>
	<path class="st0" d="M370.5,31c0-0.2,0.2-0.5,0.2-0.5c0.2-0.2,0.2-0.2,0.2,0c0.2,0.2,0.2,0.5,0,0.7c-1.2,7.2-3.4,10.8-6.5,10.8
		c-3.1,0-4.6-2.6-4.6-7.9c0-6.5,1.7-13.4,5.5-20.4c1-1.7,1.4-2.6,1.7-2.6l0,0c0,0.2-0.2,1.2-0.7,2.9c-2.4,7.4-3.6,12.5-3.6,15.6
		c0,3.8,1,6,3.1,6C367.4,35.5,368.8,33.8,370.5,31L370.5,31L370.5,31L370.5,31z"/>
</g>
</svg>
