<?xml version="1.0" encoding="utf-8"?>
<!-- Generator: Adobe Illustrator 24.0.0, SVG Export Plug-In . SVG Version: 6.00 Build 0)  -->
<svg version="1.1" id="Layer_1" xmlns="http://www.w3.org/2000/svg" xmlns:xlink="http://www.w3.org/1999/xlink" x="0px" y="0px"
	 viewBox="0 0 589.1 208.9" style="enable-background:new 0 0 589.1 208.9;" xml:space="preserve">
<style type="text/css">
	.st0{fill:#C4692C;}
</style>
<g>
	<path class="st0" d="M347.6,30.5c0-4.8-0.7-8.6-2.2-11.8c0-1.7,1.2-5.8,4.1-12c0.2-0.7,0.5-1.2,0.7-1.2c0.5,0,0.7,0.5,1.2,1.2
		c0.7,1.7,2.4,6.2,5.3,13.7c3.1,7.9,4.8,12.7,5.3,14.6c0.5,1.2,0.5,2.4,0.5,2.9c0,2.2-1.9,1-6.2-3.8c-0.5-0.7-0.7-0.2-0.7,1
		c0,0.5,1.2,15.4,3.4,45.1c2.2,29.5,3.1,46.1,3.1,49.9c0,11.3-1.7,21.4-5,30c-1,1.7-1.4,2.9-1.9,3.8l0,0c-0.7,1.2-1,1.2-1.2,0.5
		c-0.2-1,0-2.9,0.2-5.5c0.5-4.1,0.7-8.6,0.7-13.7c0-4.8-1.2-24-3.6-57.8C348.8,53.5,347.6,34.5,347.6,30.5L347.6,30.5L347.6,30.5
		L347.6,30.5z"/>
	<path class="st0" d="M316.9,134.9l-12-13.4c11.5-2.2,19-3.8,22.8-5.5c1.9-1,3.1-4.1,3.1-9.6c0-1.2-0.2-3.8-0.2-7.4
		c-0.2-3.8-0.2-7-0.2-9.4c0-5-0.7-15.6-1.9-32.2c-1.2-16.3-1.7-26.6-1.7-30.7c0-4.6-0.7-8.4-2.2-11.5c0-1.7,1.4-5.8,4.1-12.2
		c0.2-0.7,0.7-1,1-1c0.2,0,0.5,0.2,1,1.2c0.7,1.7,2.4,6.2,5.5,13.7c2.9,7.9,4.6,12.7,5,14.2c0.5,1.7,0.7,2.9,0.7,3.4
		c0,2.2-2.2,1-6.2-3.8c-0.5-0.7-0.7-0.2-0.7,1c0,0.2,0.5,7,1.4,19.7c1,13,1.4,21.8,1.4,26.6c0,19.4-1.9,33.6-5.8,42
		C329.4,126,324.3,131,316.9,134.9L316.9,134.9L316.9,134.9L316.9,134.9z"/>
	<path class="st0" d="M321.2,145.2c-2.6-4.1-7.4-6.5-14.2-7.7c-1.7-0.2-2.6,0-2.6,0.5c0,0.2,0.2,0.7,0.7,1.4c5,6,9.8,9.1,14.9,9.1
		c1.4,0,2.2-0.5,2.2-1C322.2,147.1,321.9,146.4,321.2,145.2L321.2,145.2L321.2,145.2L321.2,145.2z M297,127.9c1-1.7,1.9-2.4,2.6-2.4
		c0.5,0,1,0.2,1.4,0.5c0.5-0.7,0.7-1.4,1-2.4c0.7-1.2,1.7-1.9,2.9-2.4c0.7,0,3.4,0.7,8.2,2.2c4.6,1.4,7.7,2.9,9.4,3.8
		c6.7,4.6,10.1,11,10.1,19.4c0,3.6-1.4,7.2-4.1,10.8c-2.9,4.1-6,6-9.6,6c-3.8,0-8.2-1.9-13-6c-5-4.6-8.4-9.8-10.1-15.8
		c-4.3,13.9-11.8,21.1-22.6,21.1v-14.6c5,0,9.6-1.4,13.2-4.3c2.6-1.9,5-4.8,7.2-8.6C294.8,132.7,296,130.3,297,127.9L297,127.9
		L297,127.9L297,127.9z"/>
	<path class="st0" d="M273.5,162.5c0.7,2.2,1.2,5,1.2,8.2c0,3.8-0.7,7.2-1.9,10.1c-0.7,1.4-1.2,2.4-1.9,2.4c-1,0-2.2-0.7-4.1-1.7
		c-5.8-3.4-9.8-7.4-12-12.2c-1.2-2.6-2.2-7.2-2.6-13c-0.2-1-0.2-1.7-0.5-1.7c-0.5,0-1,0.7-1.4,1.7c-2.4,2.6-4.8,5.5-7.2,8.6
		c-4.3,3.8-9.1,6-14.6,6V156c7,0,12.5-1.7,17-5c1-0.7,3.4-3.4,7-7.4c1.4-1.9,2.6-2.6,3.6-2.6c0.5,0,1.2,0.2,2.2,1
		c2.9,2.4,4.8,3.8,5.8,4.3c2.4,1.2,5.5,1.7,9.6,1.7v14.5H273.5L273.5,162.5z"/>
	<g>
		<path class="st0" d="M228.3,170.6c-9.8,0-17.5-1.4-23-4.6c-7.7-4.3-12.5-11.8-14.6-22.8c-0.5-3.4-1.7-13.2-3.6-29.8
			c-1.2-11.8-2.4-17.5-3.8-17.5s-2.9,1.9-4.8,6.2c-2.6,6.5-5,11.3-7.2,14.6c-4.1,6.5-9.4,12-15.8,16.3h-25.4c0.5-0.7,5-3.6,13.9-8.6
			c9.6-5.5,16.8-10.8,21.8-16.3c3.8-4.3,7.9-10.6,12.5-18.5c3.1-5.8,5.8-8.4,7.7-8.6c2.2,0.2,3.8,3.6,5.3,10.8
			c1,4.6,1.9,12.2,3.1,23.3c1,11,1.9,18.2,2.6,22.1c1.2,6.5,5.3,11.5,12.2,14.9c5.5,2.6,11.8,3.8,19.2,3.8v14.7H228.3L228.3,170.6z"
			/>
	</g>
	<g>
		<path class="st0" d="M227.9,142.3l-5,10.1c-0.7,1.2-1.2,1.7-2.2,1.7c-16.3,0-30.5,2.4-42.5,7.4c-2.9,1.2-10.3,4.8-22.8,11.3
			c-8.4,4.3-14.2,6.5-17.5,6.5v-14.6c7.2,0,19.4-4.8,36.5-14.4c-15.4-2.4-30.5-4.1-45.4-5.3c-2.9-0.2-4.3-0.7-4.3-1.2
			c0-0.2,0-0.5,0.2-0.7c1.2-2.4,2.9-5.8,5-10.1h25.2c3.4,0.7,12,1.9,26.2,3.8c17.8,2.4,32.2,3.4,43,3.4c2.6,0,4.1,0.2,4.1,1
			C228.3,141.3,228.3,141.8,227.9,142.3L227.9,142.3L227.9,142.3L227.9,142.3z"/>
	</g>
	<path class="st0" d="M137.6,179c-3.8,0-7.4-1-10.3-2.9c-3.8-2.6-6-7-6.7-12.5c-1.7,3.1-4.3,6.5-8.4,10.1c-6,5-12.2,7.7-18.7,7.7
		v-14.6c8.2,0,15.1-2.4,20.6-6.7c0.5-0.5,2.6-2.6,6.5-7c3.6-4.1,5.5-6,6-6s1,0.5,1,1.4c0,0.5-0.2,1.2-0.5,1.7
		c-0.5,1.9-0.7,3.6-0.7,5.3c0,6,3.8,8.9,11.3,8.9V179H137.6L137.6,179z"/>
	<path class="st0" d="M93.7,181.4c-5,0-8.6-0.5-10.8-1c-4.8-1.4-8.6-4.6-11.8-9.4c-1.9-3.1-3.8-6.5-5.8-9.8
		c-1.9-2.9-3.6-4.1-5.3-4.1c-5.5,0-11.3,4.6-17.5,13.9c-1,1.7-2.9,6-5.8,13c-2.6,7-5,12-7.2,15.4c-3.1,4.8-6.7,7.2-10.3,7.2
		c-5.3,0-9.8-4.3-13.7-12.7c-3.4-7.4-4.8-15.1-4.8-23c0-9.6,1-17.5,2.9-23.3c0.5-1.9,1-2.9,1.4-2.9c0.7,0,1,1.2,0.5,3.6
		c-0.7,6.2-1,11.5-1,15.8c0,20.4,4.6,30.7,14.2,30.7c3.8,0,7.2-3.1,10.6-9.1c3.1-7.2,6.5-14.4,9.8-21.6c2.9-5.8,6.5-10.8,10.8-15.1
		c4.1-4.3,8.2-6.2,11.5-6.2c2.6,0,5.3,1.7,7.4,4.8c1.9,3.1,3.6,6.2,5.5,9.4c2.6,3.6,5.3,6.2,8.2,7.7c2.9,1.2,6.5,1.9,11,1.9v14.8
		H93.7L93.7,181.4z"/>
	<path class="st0" d="M181.8,58.3l3.8-7.9c0.2-0.5,0.5-0.7,1-0.7s2.4,1.2,6.2,3.8c3.6,2.4,5.5,3.8,5.5,4.3c0,1.7-1.7,5.3-4.8,10.6
		c-0.5,0.7-1,0.7-1.4,0.5c-3.1-2.4-6.7-4.8-10.8-7.4c-1.4,2.9-2.6,5.5-4.1,7.7c-0.2,0.7-0.7,1-1.2,0.7c-3.6-2.9-7.4-5.5-11.3-7.9
		c-0.2-0.2-0.2-0.5,0-1l4.6-9.6c0.2-0.5,0.7-1,1-1c0.5,0,2.2,1.2,5.3,3.4C178.7,55.7,180.8,57.3,181.8,58.3L181.8,58.3L181.8,58.3
		L181.8,58.3z"/>
	<path class="st0" d="M110.5,112.3c-0.2-0.2-0.2-0.5,0-1l4.6-9.6c0.2-0.5,0.7-0.7,1-0.7c0.5,0,2.6,1.2,6.2,3.6
		c3.8,2.6,5.8,4.1,5.8,4.6c0,1.7-1.7,5-5,10.3c-0.5,0.7-0.7,1-1.2,0.7C118.2,117.3,114.3,114.7,110.5,112.3L110.5,112.3L110.5,112.3
		L110.5,112.3z"/>
	<path class="st0" d="M307.3,20.9c0-1.2-2.4-3.4-7.4-6.2c-1.7,2.9-2.4,5.5-2.4,7.9c0,1.4,0.7,2.4,2.2,2.4c1.2,0,2.6-0.5,4.3-1.4
		C305.6,22.8,306.8,21.8,307.3,20.9L307.3,20.9L307.3,20.9L307.3,20.9z M302,1.7c0.7-1.2,1.7-1.7,2.4-1.7c0.5,0,1,0.2,1,0.7
		c0,0-0.2,0.2-0.2,0.5c-1,2.2-1.9,4.6-2.6,7c5,3.6,7.4,7.4,7.2,11c-0.5,4.1-1,6.7-1.7,7.7c-2.4,2.9-5,4.6-8.4,4.6
		c-3.4,0-4.8-2.2-4.8-6c0-0.7,0-1.7,0.2-2.6C296.3,15.1,298.7,8.1,302,1.7L302,1.7L302,1.7L302,1.7z"/>
	<path class="st0" d="M247.1,120.9c0-1.2-2.4-3.4-7.4-6.2c-1.7,2.9-2.4,5.5-2.4,7.9c0,1.4,0.7,2.4,2.2,2.4c1.2,0,2.6-0.5,4.3-1.4
		C245.4,122.9,246.6,121.9,247.1,120.9L247.1,120.9L247.1,120.9L247.1,120.9z M241.8,101.7c0.7-1.2,1.7-1.7,2.4-1.7
		c0.5,0,1,0.2,1,0.7c0,0-0.2,0.2-0.2,0.5c-1,2.2-1.9,4.6-2.6,7c5,3.6,7.4,7.4,7.2,11c-0.5,4.1-1,6.7-1.7,7.7c-2.4,2.9-5,4.6-8.4,4.6
		s-4.8-2.2-4.8-6c0-0.7,0-1.7,0.2-2.6C236,115.2,238.4,108.2,241.8,101.7L241.8,101.7L241.8,101.7L241.8,101.7z"/>
	<path class="st0" d="M50,73.7c7.2-3.4,32.2-13.2,75.1-29.5c33.4-12.2,67-25,101.3-37.7c1-0.2,1.2-0.5,1.4-0.2c0,0,0,0.5-0.2,1.2
		c-1,1.9-1.7,3.1-2.4,3.8C207.9,18,175,30.5,126.3,49c-47,18-73.4,28.6-78.7,31.7C48.1,78.5,48.8,76.1,50,73.7L50,73.7L50,73.7
		L50,73.7z"/>
	<path class="st0" d="M77.4,89.5c24.2-9.1,49.4-18.2,75.4-27.8c0.7-0.2,1.2-0.5,1.2-0.2c0.2,0,0.2,0.5,0,1.2c-1,2.2-1.7,3.4-2.2,3.8
		c-0.2,0.2-12.5,4.8-36.2,13.7C91.4,89.1,77.7,94.6,75,96.3C75.5,94.1,76.2,91.9,77.4,89.5L77.4,89.5L77.4,89.5L77.4,89.5z"/>
	<path class="st0" d="M34.4,55.7C75,40.3,116.2,25,158.5,9.1c0.7-0.2,1.2-0.5,1.2-0.2c0.2,0,0.2,0.5,0,1.2c-1,2.2-1.7,3.4-2.2,3.8
		C118.9,28.3,76.9,44.4,32,62.4C32.5,60.2,33.2,58.1,34.4,55.7L34.4,55.7L34.4,55.7L34.4,55.7z"/>
	<path class="st0" d="M53.4,116.4l3.8-7.9c0.2-0.5,0.5-0.7,1-0.7s2.4,1.2,6.2,3.8c3.6,2.4,5.5,3.8,5.5,4.3c0,1.7-1.7,5.3-4.8,10.6
		c-0.5,0.7-1,0.7-1.4,0.5c-3.1-2.4-6.7-4.8-10.8-7.4c-1.4,2.9-2.6,5.5-4.1,7.7c-0.2,0.7-0.7,1-1.2,0.7c-3.6-2.9-7.4-5.5-11.3-7.9
		c-0.2-0.2-0.2-0.5,0-1l4.6-9.6c0.2-0.5,0.7-1,1-1c0.5,0,2.2,1.2,5.3,3.4C50.3,113.7,52.4,115.4,53.4,116.4L53.4,116.4L53.4,116.4
		L53.4,116.4z"/>
	<path class="st0" d="M40.7,197c9.6-3.4,19.9-7.2,31-11c1-0.2,1.2-0.5,1.4-0.2c0.2,0,0.2,0.5-0.2,1.2c-0.7,2.2-1.4,3.4-1.9,3.8
		c-9.6,3.4-20.4,7.4-32.6,13C38.7,201.6,39.5,199.4,40.7,197L40.7,197L40.7,197L40.7,197z"/>
	<path class="st0" d="M203.6,199.7c-4.8,4.3-11.3,6.7-19,6.7c-2.2,0-4.3-0.7-5.8-1.9c-1.4-1.2-2.2-2.9-2.2-4.8
		c0-3.4,1.2-6.7,4.1-10.1c2.9-3.1,5.8-6,8.4-9.1c0.7-0.5,0.5-1-0.5-1.4c-1.9-0.7-4.3-1-6.7-1c-1.2,0-2.6,0.2-4.3,1.2
		c-0.2,0-0.5,0.2-0.7,0c0,0,0-0.2,0.2-0.7c1-2.4,1.9-4.1,2.9-4.8c1.2-1,3.1-1.4,5.8-1.4c5.8,0,8.4,1.2,8.4,4.1c0,2.2-1.7,5-5.3,9.1
		c-2.6,2.6-5.3,5.3-7.9,7.9c-1,1.4-1.4,2.9-1.4,3.8c0,2.4,2.6,3.6,7.7,3.6c5,0,10.1-1,15.8-2.6c1.4-0.5,2.2-0.5,2.2-0.2
		C205.3,198,204.8,198.7,203.6,199.7L203.6,199.7L203.6,199.7L203.6,199.7z"/>
	<path class="st0" d="M340.7,174.9c0-0.7-0.5-1.7-1.4-2.6c-0.7-1-1.7-1.4-2.4-1.4c-1.2,0-2.2,0.5-2.9,1.7c1.2,1.2,3.1,2.4,5.8,3.6
		c0.5,0.2,0.7,0.2,1,0C340.9,176.1,340.9,175.7,340.7,174.9L340.7,174.9L340.7,174.9L340.7,174.9z M330.1,170.6
		c0.5-0.7,1-0.7,1.4-0.2c1.9-3.6,3.8-5.5,6-5.5c1.4,0,2.9,0.7,4.1,2.6c1.4,1.7,1.9,3.8,1.9,6c0,1,0,1.7-0.2,2.6
		c-0.7,3.8-1.9,5.8-3.6,5.8c-1.4,0-3.4-1-5.5-2.4c-2.2-1.2-3.6-2.6-4.6-3.8c-1.4,4.1-3.1,7.4-5.3,9.8c-3.8,4.3-8.6,7.9-15.1,11.3
		c-4.8,2.9-7.9,4.1-9.4,4.1c0,0-2.9,0.7-8.4,1.9c-5.8,1.4-9.4,2.4-10.8,2.6c-2.2,0.2-3.1,0.2-3.1,0.2c0-0.2,1-0.7,3.1-1.7
		c6-2.4,15.1-6.5,27.6-12.5c8.9-4.8,14.6-9.1,17-12.7C326.5,176.6,327.9,173.7,330.1,170.6L330.1,170.6L330.1,170.6L330.1,170.6z"/>
	<path class="st0" d="M257.1,34.1c-0.5-2.9-1.7-6.2-3.4-10.3c-1.7-4.1-3.1-6.2-3.8-6.2c-0.5,0-0.7,0-1,0.5c-0.2,0.2-0.5,0.5-1.2,0.5
		c-1,0-1.9-0.7-3.4-1.9c-1.4-1.2-1.9-2.2-1.9-2.9c0-0.2,0.5-1.4,1.7-3.4c1-1.9,1.7-2.6,1.9-2.6c2.9,0,5.3,1.4,7.4,4.8
		c2.2,3.1,3.8,7.4,4.6,12.7c0.2,0.5,0.2,0.7,0.2,1h0.2c0-0.2,0.2-0.5,0.2-1c0.5-3.1,1.7-7.9,3.4-14.2c1.9-4.3,3.8-6.5,6-6.5
		c1.2,0,2.4,0.7,3.4,2.2c1,1.4,1.4,2.4,1.4,3.4c0,0.5,0,1.4-0.5,2.4c-0.5,1.4-1,2.2-1.4,2.2c-0.2,0-0.7-0.7-1.7-1.7
		c-0.7-1-1.7-1.4-2.6-1.4c-1.9,0-3.6,4.6-5.3,13.7c-0.7,3.6-1.4,6.5-2.6,8.6c1.7,0,3.6,1.2,6.2,3.1c2.4,2.2,3.8,3.8,4.1,5.3
		c0,0.5-0.2,1.4-1,3.1c-0.7,1.7-1.2,2.4-1.7,2.6c-2.4,0.7-4.8,1.2-7.2,1.9c-2.9,1-5,2.2-6.2,3.4c3.4,10.1,5,19.9,5,29.8
		c0,2.9-0.5,5.8-1,8.9c-0.2,1-0.5,1.4-0.7,1.7c-0.2,0-0.2-1.9-0.2-5.3c0-5.5-1-12.5-2.6-20.4c-1.4-7.9-2.4-12.5-2.4-13.7
		c0-4.1,1.2-7,3.4-8.9c1.2-0.7,3.1-1.7,6.2-2.6c-1.2-1.2-2.4-1.7-3.6-1.7c-0.5,0-1.2,0.7-2.2,1.9c-1.2,1.2-1.7,1.9-1.9,1.9
		c-0.2,0-0.2-0.5,0-1.7C253.5,38.1,255,35,257.1,34.1L257.1,34.1L257.1,34.1L257.1,34.1z"/>
	<path class="st0" d="M292.7,56.6c0,2.6-1.2,5.5-3.1,8.6c-2.2,3.1-4.8,6-8.2,8.4c-1.4,1-2.2,1.4-2.4,1.4v-0.1c0-0.2,0.5-0.7,1.4-1.9
		c5.5-6,8.4-9.8,8.4-12c0-1.7-1-2.6-2.6-2.6c-1,0-1.9,0.2-2.6,0.7c-0.7,0.2-1,0.5-1.2,0.5c0,0-0.2,0-0.2-0.2c0,0,0-0.5,0.2-1.4
		c1-4.1,2.9-6,6.2-6C291.2,51.8,292.7,53.5,292.7,56.6L292.7,56.6L292.7,56.6L292.7,56.6z"/>
	<path class="st0" d="M245.6,186.7c0,2.6-1.2,5.5-3.1,8.6c-2.2,3.1-4.8,6-8.2,8.4c-1.4,1-2.2,1.4-2.4,1.4v-0.2
		c0-0.2,0.5-0.7,1.4-1.9c5.5-6,8.4-9.8,8.4-12c0-1.7-1-2.6-2.6-2.6c-1,0-1.9,0.2-2.6,0.7c-0.7,0.2-1,0.5-1.2,0.5c0,0-0.2,0-0.2-0.2
		c0,0,0-0.5,0.2-1.4c1-4.1,2.9-6,6.2-6C244.2,181.9,245.6,183.6,245.6,186.7L245.6,186.7L245.6,186.7L245.6,186.7z"/>
	<path class="st0" d="M231.2,56.6c0-0.2,0.2-0.5,0.2-0.5c0.2-0.2,0.2-0.2,0.2,0c0.2,0.2,0.2,0.5,0,0.7c-1.2,7.2-3.4,10.8-6.5,10.8
		s-4.6-2.6-4.6-7.9c0-6.5,1.7-13.4,5.5-20.4c1-1.7,1.4-2.6,1.7-2.6l0,0c0,0.2-0.2,1.2-0.7,2.9c-2.4,7.4-3.6,12.5-3.6,15.6
		c0,3.8,1,6,3.1,6C228.1,61.2,229.5,59.5,231.2,56.6L231.2,56.6L231.2,56.6L231.2,56.6z"/>
	<path class="st0" d="M99.7,125.3c0,2.6-1.2,5.5-3.1,8.6c-2.2,3.1-4.8,6-8.2,8.4c-1.4,1-2.2,1.4-2.4,1.4v-0.2c0-0.2,0.5-0.7,1.4-1.9
		c5.5-6,8.4-9.8,8.4-12c0-1.7-1-2.6-2.6-2.6c-1,0-1.9,0.2-2.6,0.7c-0.7,0.2-1,0.5-1.2,0.5c0,0-0.2,0-0.2-0.2c0,0,0-0.5,0.2-1.4
		c1-4.1,2.9-6,6.2-6C98.3,120.5,99.7,122.1,99.7,125.3L99.7,125.3L99.7,125.3L99.7,125.3z"/>
	<path class="st0" d="M10.7,135.8c0-0.2,0.2-0.5,0.2-0.5c0.2-0.2,0.2-0.2,0.2,0c0.2,0.2,0.2,0.5,0,0.7c-1.2,7.2-3.4,10.8-6.5,10.8
		S0,144.2,0,138.9c0-6.5,1.7-13.4,5.5-20.4c1-1.7,1.4-2.6,1.7-2.6l0,0c0,0.2-0.2,1.2-0.7,2.9c-2.4,7.4-3.6,12.5-3.6,15.6
		c0,3.8,1,6,3.1,6C7.5,140.4,9,138.7,10.7,135.8L10.7,135.8L10.7,135.8L10.7,135.8z"/>
	<path class="st0" d="M7.3,82.8c2.9,0,5.3,1.4,7.4,4.8c2.2,3.1,3.8,7.4,4.6,12.7c0.2,0.5,0.2,0.7,0.2,1h0.2c0-0.2,0.2-0.5,0.2-1
		c0.5-3.1,1.7-7.9,3.4-14.2c1.9-4.3,3.8-6.5,6-6.5c1.2,0,2.4,0.7,3.4,2.2c1,1.4,1.4,2.4,1.4,3.4c0,0.5,0,1.4-0.5,2.4
		c-0.5,1.4-1,2.2-1.4,2.2c-0.2,0-0.7-0.7-1.7-1.7c-0.7-1-1.7-1.4-2.6-1.4c-1.9,0-3.6,4.6-5.3,13.7c-0.7,4.1-1.7,7-2.4,8.6
		c-0.7,1-1.2,1.7-1.7,1.7S18,110,17.8,109c0.2-1.7-0.7-4.8-2.6-9.4c-1.9-4.8-3.1-7-4.1-7c-0.5,0-0.7,0-1,0.5
		c-0.2,0.2-0.5,0.5-1.2,0.5c-1,0-1.9-0.7-3.4-1.9c-1.4-1.2-1.9-2.2-1.9-2.9c0-0.2,0.5-1.4,1.7-3.4C6.3,83.5,7.1,82.8,7.3,82.8
		L7.3,82.8L7.3,82.8L7.3,82.8z"/>
	<path class="st0" d="M219.7,88.5c0,2.6-1.2,5.5-3.1,8.6c-2.2,3.1-4.8,6-8.2,8.4c-1.4,1-2.2,1.4-2.4,1.4v-0.2c0-0.2,0.5-0.7,1.4-1.9
		c5.5-6,8.4-9.8,8.4-12c0-1.7-1-2.6-2.6-2.6c-1,0-1.9,0.2-2.6,0.7c-0.7,0.2-1,0.5-1.2,0.5c0,0-0.2,0-0.2-0.2c0,0,0-0.5,0.2-1.4
		c1-4.1,2.9-6,6.2-6C218.3,83.7,219.7,85.4,219.7,88.5L219.7,88.5L219.7,88.5L219.7,88.5z"/>
	<path class="st0" d="M304.4,87.8c0.5-1.4,0.5-2.9,0.2-4.3c-0.2-1.4-1-2.2-2.2-2.2c-0.5,0-1.2,0.2-2.2,0.7s-1.4,1-1.4,1.4
		C298.9,84.7,300.8,86.1,304.4,87.8L304.4,87.8L304.4,87.8L304.4,87.8z M301.5,94.1c-4.6-2.4-6.7-4.8-6.7-7.4c0-3.1,1.4-6,4.3-8.4
		c2.9-2.6,5.3-3.6,7.2-2.9c1.7,0.5,2.4,2.2,2.4,5c0,2.6-0.5,5.5-1.7,8.9c2.4,1.2,3.8,2.4,4.3,3.4c0,1.2-1,3.4-3.1,6.2
		c-0.5-1-1.9-2.2-4.1-3.4c-2.6,3.6-5.8,6.7-9.6,9.6c-4.6,3.1-8.6,5.8-12.2,7.2c-1,0.5-5.3,2.2-13,5c-1.2,0.5-2.2,0.7-2.4,0.7
		c-0.2,0-0.2-0.2-0.2-0.2c0-0.2,0.5-1,1.9-1.7c5.8-3.6,11.5-7,17.5-10.3C293.1,101.5,298.2,97.7,301.5,94.1L301.5,94.1L301.5,94.1
		L301.5,94.1z"/>
	<path class="st0" d="M123.7,188.6c0,2.6-1.2,5.5-3.1,8.6c-2.2,3.1-4.8,6-8.2,8.4c-1.4,1-2.2,1.4-2.4,1.4v-0.1
		c0-0.2,0.5-0.7,1.4-1.9c5.5-6,8.4-9.8,8.4-12c0-1.7-1-2.6-2.6-2.6c-1,0-1.9,0.2-2.6,0.7c-0.7,0.2-1,0.5-1.2,0.5c0,0-0.2,0-0.2-0.2
		c0,0,0-0.5,0.2-1.4c1-4.1,2.9-6,6.2-6C122.3,183.8,123.7,185.5,123.7,188.6L123.7,188.6L123.7,188.6L123.7,188.6z"/>
	<path class="st0" d="M530.3,120c1.2-1,2.2-1.4,2.9-1.4c0.5,0,0.7,0.5,0.7,1.4c0,0.7-0.2,2.2-0.7,4.1s-0.7,3.4-0.7,4.6
		c0,5.3,3.8,8.2,11.3,8.2c6,0,11-2.6,14.9-7.7c2.4-4.1,5-7.9,7.4-11.8c1-1,1.7-1.4,2.4-1.4c1,0,1.2,1,0.7,3.1c-1,4.1-1.7,6-1.7,5.5
		c0,1.7,1,3.4,2.9,4.8c1.7,1.4,4.1,2.4,6.7,2.4c3.4,0,5.5-1,6.5-2.6c0-0.2-1-2.2-3.1-5.8c0.2-1.9,1.2-5.3,2.6-9.8
		c0.2-1.4,0.7-2.2,1.2-2.2s1,0.2,1.7,1.2c1.9,2.9,3.1,6.2,3.1,10.1c0,6-1.4,11-4.1,15.4c-2.9,5.3-7.2,7.9-13,7.9
		c-3.8,0-7.4-3.1-10.6-8.9c-5.3,9.6-12.2,14.4-20.6,14.4c-10.1,0-14.9-5.8-14.9-16.8c-3.8,4.6-10.3,8.6-18.7,12.5v-13.3
		c6.2-3.1,10.3-5,11.5-5.8C522.6,126.2,526.4,123.3,530.3,120L530.3,120L530.3,120L530.3,120z"/>
	<path class="st0" d="M493.5,135.8c-3.6-4.6-6.7-6.7-9.6-6.7c-4.3,0-6.2,1-6.2,3.4c0,2.9,2.9,4.3,8.6,4.3
		C488.5,136.8,490.9,136.3,493.5,135.8L493.5,135.8L493.5,135.8L493.5,135.8z M501,153.3c0-1.4-0.5-3.1-1-4.8
		c-2.9,1-7.2,1.7-12.5,1.7c-11.5,0-17.3-4.1-17.3-12c0-6,1.7-11.3,5.5-16.1c3.6-4.1,7.4-6.2,11.5-6.2c3.1,0,6.2,1.9,9.8,5.5
		c3.1,3.6,6,7.7,8.4,12.7c0.2,0,0.7,0,1.7-0.5v13.3l-0.5,0.5c0,2.9-0.7,6.2-2.2,10.6c-1.7,5.5-4.3,10.1-7.4,13.7
		c-7.2,8.6-15.1,16.1-23.8,22.6c-13,9.6-24,14.6-33.6,14.6c-8.2,0-14.4-3.1-18.7-9.1c-3.8-5-5.8-11.8-5.8-19.7
		c0-10.1,2.2-20.4,6.2-31.2c1.2-2.4,1.7-3.4,2.2-3.4c0.2,0,0.2,0.2,0.2,0.7c0,0.7-0.2,1.9-0.5,3.4c-3.1,10.6-4.6,18.5-4.6,24
		c0,5,1.2,9.4,3.6,13c3.8,5,9.8,7.7,18.2,7.7c7.2,0,15.8-3.1,26.2-9.4c8.2-5,16.1-11,23.8-18.2C497.4,159.8,501,155.5,501,153.3
		L501,153.3L501,153.3L501,153.3z"/>
	<path class="st0" d="M435.5,117.1c-0.5-2.2-1.2-3.8-2.2-5c-0.7-1.4-1.2-2.2-1.4-2.6c0-0.5,0-2.2,0.5-5.5c0.5-3.1,0.7-5.3,1.2-6.5
		c0.2-1.2,0.5-1.7,1-1.7c0.2,0,0.5,0.2,1,0.7c3.4,3.8,7,7.7,11,11.8c1.7,1.7,2.4,2.6,2.4,3.1c0,0.2-0.2,0.5-0.7,0.5
		c-0.7,0-2.6-0.5-5.5-1.2c1.7,4.1,3.6,8.2,5.3,12c2.6,6.7,4.1,12.2,4.1,17.3c0,2.4-0.5,5.3-1.4,8.9c-1.2,4.1-2.6,7.2-4.6,9.4
		c-7,7.9-18.7,16.6-35.3,25.9c-14.4,8.4-22.8,12.5-25.4,12.5c-0.5,0-7.7,1.7-21.4,5c-14.4,3.4-23.5,5.5-27.1,6c-3.8,0.7-6.2,1-7.2,1
		c-0.5,0-0.5,0-0.5-0.2s2.6-1.7,7.9-4.1c1.9-1,13-5.8,33.4-14.4c14.2-6,25.9-11.5,35.3-16.6c14.2-7.7,25-14.4,32.4-19.9
		c5.5-4.3,8.4-7.4,8.4-9.4c0-0.5-1.4-3.8-4.3-10.1C439.1,126.9,436.7,121.2,435.5,117.1L435.5,117.1L435.5,117.1L435.5,117.1z"/>
	<path class="st0" d="M415.8,83.7c0,3.8-1.9,9.1-5.8,15.6c-2.4,4.1-6,9.6-10.8,16.8c4.8,5.5,8.2,10.6,9.8,14.9
		c1,3.1,1.7,7.2,1.7,11.8c0,1.9-0.5,4.3-1.4,7.4c-0.7,2.9-1.7,5-2.6,6.5c-1.9,2.9-5,5.8-9.8,8.6c-5,3.4-9.4,5-13,5
		c-5.8,0-8.6-4.3-8.6-13c0-5.8,1-11.5,2.9-16.8c1.9-4.6,5-10.6,10.1-18.5c-4.3-4.1-8.9-9.8-13.9-17c-0.5-0.7-1.7-1.9-3.6-3.8
		c-1-1-1.4-2.2-1.4-3.6c0-2.2,0.2-4.6,0.7-7.4c0.7-2.9,1.2-4.1,1.4-4.1c0.7,0,2.9,1.2,7,3.8c3.8,2.6,7,4.6,8.9,6.2
		c1.2,0.7,1.7,1.4,1.7,1.4v0.2c0,0.2-0.7,0.5-2.4,0.5c-3.1,0-4.8,0.2-4.8,0.5c0,0.2,0.5,0.7,1.4,1.9c3.8,4.8,7.7,8.4,11.8,11.3
		c1-1.4,4.3-6.2,9.6-14.4c4.6-7,7.2-11.8,8.4-14.6c1.2-2.9,1.9-4.1,2.4-4.1C415.5,78.9,415.8,80.4,415.8,83.7L415.8,83.7L415.8,83.7
		L415.8,83.7z M406.4,142.8c-2.6-5.3-7.2-10.8-13.4-16.1c-2.2,2.2-4.8,6.2-8.2,12c-3.8,6.5-5.5,10.6-5.5,12.7c0,2.9,1.9,4.3,6.2,4.3
		c1.9,0,4.3-0.7,7.4-1.9c4.3-1.9,8.4-4.6,11.8-7.9C406.2,144.5,406.7,143.5,406.4,142.8L406.4,142.8L406.4,142.8L406.4,142.8z"/>
	<path class="st0" d="M393,65.5l3.8-7.9c0.2-0.5,0.5-0.7,1-0.7s2.4,1.2,6.2,3.8c3.6,2.4,5.5,3.8,5.5,4.3c0,1.7-1.7,5.3-4.8,10.6
		c-0.5,0.7-1,0.7-1.4,0.5c-3.1-2.4-6.7-4.8-10.8-7.4c-1.4,2.9-2.6,5.5-4.1,7.7c-0.2,0.7-0.7,1-1.2,0.7c-3.6-2.9-7.4-5.5-11.3-7.9
		c-0.2-0.2-0.2-0.5,0-1l4.6-9.6c0.2-0.5,0.7-1,1-1c0.5,0,2.2,1.2,5.3,3.4C389.9,62.9,392,64.5,393,65.5L393,65.5L393,65.5L393,65.5z
		"/>
	<path class="st0" d="M519.5,199.4c-2.6,0.7-4.1,1.2-4.6,1.2v-0.2c0,0,1-0.7,2.9-1.9c1.9-1.2,4.8-3.1,8.9-6.2c1.9-1.9,4.8-5,8.4-9.4
		c2.4-2.9,5-5.5,7.9-7.4c3.6-2.6,7-3.8,10.6-3.8c0.7,0,1.9,0.2,3.4,0.7c1.2,0.5,2.4,0.7,3.4,0.7c1.9,0,3.4-0.7,4.6-2.2
		c0.7-1.4,1.7-2.6,2.6-4.1c0.5-1,1.2-1.4,1.7-1.4c0.2,0,0.2,0.2,0.2,0.7s-0.2,1.7-0.7,3.1c-0.5,0.7,1.4,1,5,1c0.5,0,0.7,0,0.7-0.2
		c0,0-0.2-1-0.7-2.6c-0.2-0.5,0-1.2,0.7-2.2c1-1.7,1.4-2.4,1.7-2.2c1,0.7,1.4,2.2,1.4,3.8c0,1.7-0.5,3.4-1.2,5.3
		c-0.7,2.2-1.4,3.4-1.9,3.8c-1.7,1-4.3,0.7-7.9-1c-2.9,2.9-5.8,4.6-8.6,4.6c-0.7,0-1.9-0.2-3.1-0.7c-1.2-0.5-2.2-0.7-2.9-0.7
		c-4.8,0-9.8,2.2-14.9,7c-3.6,3.6-7.2,7.2-10.8,10.8C524,197.5,521.9,198.7,519.5,199.4L519.5,199.4L519.5,199.4L519.5,199.4z"/>
	<path class="st0" d="M467.9,69.8c2.9,0,5.3,1.4,7.4,4.8c2.2,3.1,3.8,7.4,4.6,12.7c0.2,0.5,0.2,0.7,0.2,1h0.2c0-0.2,0.2-0.5,0.2-1
		c0.5-3.1,1.7-7.9,3.4-14.2c1.9-4.3,3.8-6.5,6-6.5c1.2,0,2.4,0.7,3.4,2.2c1,1.4,1.4,2.4,1.4,3.4c0,0.5,0,1.4-0.5,2.4
		c-0.5,1.4-1,2.2-1.4,2.2c-0.2,0-0.7-0.7-1.7-1.7c-0.7-1-1.7-1.4-2.6-1.4c-1.9,0-3.6,4.6-5.3,13.7c-0.7,4.1-1.7,7-2.4,8.6
		c-0.7,1-1.2,1.7-1.7,1.7s-0.5-0.7-0.7-1.7c0.2-1.7-0.7-4.8-2.6-9.4c-1.9-4.8-3.1-7-4.1-7c-0.5,0-0.7,0-1,0.5
		c-0.2,0.2-0.5,0.5-1.2,0.5c-1,0-1.9-0.7-3.4-1.9c-1.4-1.2-1.9-2.2-1.9-2.9c0-0.2,0.5-1.4,1.7-3.4C466.9,70.5,467.6,69.8,467.9,69.8
		L467.9,69.8L467.9,69.8L467.9,69.8z"/>
	<path class="st0" d="M427.3,66.9c24.2-9.1,49.4-18.2,75.4-27.8c0.7-0.2,1.2-0.5,1.2-0.2c0.2,0,0.2,0.5,0,1.2
		c-1,2.2-1.7,3.4-2.2,3.8c-0.2,0.2-12.5,4.8-36.2,13.7c-24.2,8.9-37.9,14.4-40.6,16.1C425.4,71.5,426.1,69.3,427.3,66.9L427.3,66.9
		L427.3,66.9L427.3,66.9z"/>
	<path class="st0" d="M403.8,23c0.5-1.4,0.5-2.9,0.2-4.3c-0.2-1.4-1-2.2-2.2-2.2c-0.5,0-1.2,0.2-2.2,0.7s-1.4,1-1.4,1.4
		C398.3,19.9,400.2,21.3,403.8,23L403.8,23L403.8,23L403.8,23z M400.9,29.3c-4.6-2.4-6.7-4.8-6.7-7.4c0-3.1,1.4-6,4.3-8.4
		c2.9-2.6,5.3-3.6,7.2-2.9c1.7,0.5,2.4,2.2,2.4,5c0,2.6-0.5,5.5-1.7,8.9c2.4,1.2,3.8,2.4,4.3,3.4c0,1.2-1,3.4-3.1,6.2
		c-0.5-1-1.9-2.2-4.1-3.4c-2.6,3.6-5.8,6.7-9.6,9.6c-4.6,3.1-8.6,5.8-12.2,7.2c-1,0.5-5.3,2.2-13,5c-1.2,0.5-2.2,0.7-2.4,0.7
		c-0.2,0-0.2-0.2-0.2-0.2c0-0.2,0.5-1,1.9-1.7c5.8-3.6,11.5-7,17.5-10.3C392.5,36.7,397.5,32.9,400.9,29.3L400.9,29.3L400.9,29.3
		L400.9,29.3z"/>
	<path class="st0" d="M552.6,59c0.5-1.4,0.5-2.9,0.2-4.3c-0.2-1.4-1-2.2-2.2-2.2c-0.5,0-1.2,0.2-2.2,0.7s-1.4,1-1.4,1.4
		C547.1,55.9,549,57.3,552.6,59L552.6,59L552.6,59L552.6,59z M557.9,67.9c-2.4,5.8-3.6,10.3-3.6,13.7c0,4.1,1,6.2,3.1,6.2
		c1.2,0,2.6-1.7,4.3-4.6c0.2-0.2,0.2-0.5,0.5-0.7c0,0,0.2,0,0.2,0.2c0,0,0,0.2,0,0.7c-1.4,7.2-3.6,10.8-6.5,10.8
		c-3.1,0-4.6-2.6-4.6-7.9c0-2.6,0.5-6,1.9-10.3s2.2-6.5,2.2-6.7c0-0.5-1-1.4-3.1-2.6c-3.8,5-9.1,9.8-15.8,13.9
		c-4.6,2.6-9.1,5-13.9,7c-8.9,3.6-14.2,5.5-15.4,6.2c-1.2,0.5-1.9,0.7-2.4,0.7c-0.2,0-0.2-0.2-0.2-0.2c0-0.5,0.5-1,1.9-1.9
		c7.7-4.3,15.1-8.6,22.8-13c10.1-5.8,17-10.6,20.4-14.2c-4.6-2.4-6.7-4.8-6.7-7.4c0-3.1,1.4-6,4.3-8.6c2.9-2.4,5.3-3.4,7.2-2.6
		c1.4,0.5,2.4,2.2,2.4,5c0,2.6-0.5,5.5-1.7,8.6c2.4,1.4,3.4,2.9,3.4,4.3C558.6,65.3,558.3,66.5,557.9,67.9L557.9,67.9L557.9,67.9
		L557.9,67.9z"/>
	<path class="st0" d="M448.7,33.1c0-0.2,0.2-0.5,0.2-0.5c0.2-0.2,0.2-0.2,0.2,0c0.2,0.2,0.2,0.5,0,0.7c-1.2,7.2-3.4,10.8-6.5,10.8
		s-4.6-2.6-4.6-7.9c0-6.5,1.7-13.4,5.5-20.4c1-1.7,1.4-2.6,1.7-2.6l0,0c0,0.2-0.2,1.2-0.7,2.9c-2.4,7.4-3.6,12.5-3.6,15.6
		c0,3.8,1,6,3.1,6C445.5,37.7,447,36,448.7,33.1L448.7,33.1L448.7,33.1L448.7,33.1z"/>
</g>
</svg>
