<?xml version="1.0" encoding="utf-8"?>
<!-- Generator: Adobe Illustrator 24.0.0, SVG Export Plug-In . SVG Version: 6.00 Build 0)  -->
<svg version="1.1" id="Layer_1" xmlns="http://www.w3.org/2000/svg" xmlns:xlink="http://www.w3.org/1999/xlink" x="0px" y="0px"
	 viewBox="0 0 639 207.5" style="enable-background:new 0 0 639 207.5;" xml:space="preserve">
<style type="text/css">
	.st0{fill:#C4692C;}
</style>
<g>
	<path class="st0" d="M396.4,30.1c0-4.8-0.7-8.6-2.2-11.8c0-1.7,1.2-5.8,4.1-12c0.2-0.7,0.5-1.2,0.7-1.2c0.5,0,0.7,0.5,1.2,1.2
		c0.7,1.7,2.4,6.2,5.3,13.7c3.1,7.9,4.8,12.7,5.3,14.6c0.5,1.2,0.5,2.4,0.5,2.9c0,2.2-1.9,1-6.2-3.8c-0.5-0.7-0.7-0.2-0.7,1
		c0,0.5,1.2,15.4,3.4,45.1c2.2,29.5,3.1,46.1,3.1,49.9c0,11.3-1.7,21.4-5,30c-1,1.7-1.4,2.9-1.9,3.8l0,0c-0.7,1.2-1,1.2-1.2,0.5
		c-0.2-1,0-2.9,0.2-5.5c0.5-4.1,0.7-8.6,0.7-13.7c0-4.8-1.2-24-3.6-57.8C397.6,53.1,396.4,34.2,396.4,30.1L396.4,30.1L396.4,30.1
		L396.4,30.1z"/>
	<path class="st0" d="M386.8,120.8c0,14.2-2.6,25.2-7.7,33.4c-4.3,6.7-9.4,10.3-15.1,10.3v-14.6c4.6,0,9.1-1.9,13.4-5.5
		c1.2-1,1.9-5,1.9-11.8c0-4.1-1.2-20.6-3.4-49.4c-2.2-28.8-3.1-45.8-3.1-51.1c0-4.6-0.7-8.4-2.2-11.5c0-1.7,1.4-5.8,4.1-12.2
		c0.2-0.7,0.5-1,1-1c0.2,0,0.5,0.2,1,1.2c0.7,1.7,2.6,6.2,5.5,13.7c2.9,7.9,4.6,12.7,5.3,14.4c0.2,1.4,0.5,2.6,0.5,3.1
		c0,2.2-2.2,1-6.2-3.8c-0.5-0.5-0.7-0.2-0.7,1c0,0.2,1,13.2,2.9,38.6C385.8,100.6,386.8,115.8,386.8,120.8L386.8,120.8L386.8,120.8
		L386.8,120.8z"/>
	<path class="st0" d="M364,164.2c0.7,2.2,1.2,5,1.2,8.2c0,3.8-0.7,7.2-1.9,10.1c-0.7,1.4-1.2,2.4-1.9,2.4c-1,0-2.2-0.7-4.1-1.7
		c-5.8-3.4-9.8-7.4-12-12.2c-1.2-2.6-2.2-7.2-2.6-13c-0.2-1-0.2-1.7-0.5-1.7c-0.5,0-1,0.7-1.4,1.7c-2.4,2.6-4.8,5.5-7.2,8.6
		c-4.3,3.8-9.1,6-14.6,6v-14.9c7,0,12.5-1.7,17-5c1-0.7,3.4-3.4,7-7.4c1.4-1.9,2.6-2.6,3.6-2.6c0.5,0,1.2,0.2,2.2,1
		c2.9,2.4,4.8,3.8,5.8,4.3c2.4,1.2,5.5,1.7,9.6,1.7v14.5H364L364,164.2z M360.2,171.7c0-2.2-1-4.3-3.1-6.7c-2.2-2.4-4.6-3.8-6.7-4.6
		c0,2.4,1.2,4.8,3.6,7.2C356.1,170.2,358.2,171.7,360.2,171.7L360.2,171.7L360.2,171.7L360.2,171.7z"/>
	<path class="st0" d="M318.9,172.6c-8.6,0-13.2-5-13.7-15.1c0-0.5-0.2-0.7-0.7-1c-0.7,0.2-1.4,0.5-2.2,1.4c-5,5.8-8.2,9.1-9.6,10.3
		c-6.2,5.5-12.7,8.2-19.4,8.2v-14.6c7,0,13.2-1.9,18.7-5.8c2.2-1.4,7-6,14.6-13.7c0.7-0.7,1.7-1.2,2.6-1.2s1.2,0.5,1.2,1.4
		c0,0.5,0,1.2-0.2,2.2s-0.2,1.7-0.2,2.2c0,2.9,0.5,5.3,1.9,7.2c1.4,2.4,3.8,3.8,7,3.8L318.9,172.6L318.9,172.6L318.9,172.6z"/>
	<path class="st0" d="M258.4,146.7c1.2,6.7,3.6,11.3,6.7,13.4c1.9,1,4.6,1.7,8.2,1.7v14.6c-5.3,0-9.4-1.2-12.2-3.4
		c-4.3-3.1-7-8.6-8.4-17c-1-5.3-1.9-23.5-3.1-55.2c-1-33.8-1.9-53.8-2.4-60c-1.2-9.8-3.1-19.4-5.8-28.3c0-2.4,1-6,2.9-10.8
		c0.5-1.2,0.7-1.7,1.2-1.7c0.2,0,0.7,0.5,1.2,1.4c3.1,6,5.3,16.3,7,31c1,9.1,1.9,30,2.9,63.4C257.4,127.3,258.2,144.3,258.4,146.7
		L258.4,146.7L258.4,146.7L258.4,146.7z"/>
	<path class="st0" d="M244,117.4c0,9.1-2.9,16.6-8.4,22.3c-9.6,9.6-21.1,14.4-34.6,14.4v-14.6c5.8,0,12.5-1.4,20.2-4.3
		c8.2-2.9,14.2-6.2,18.5-10.3c0-2.4-1.7-4.6-5.3-6.2c-3.4-1.7-6.7-2.4-10.3-2.4h-9.6c-3.6,0-6.5-1.2-8.6-3.6
		c-2.2-2.4-3.1-5.3-3.1-8.9c0-5,1.7-10.1,5.3-15.4c3.4-5,7-7.4,10.6-7.4c6,0,11.8,3.4,17,10.1C241.1,98.5,244,107.1,244,117.4
		L244,117.4L244,117.4L244,117.4z M228.4,102.8c-3.4-5.3-7.4-7.9-11.8-7.9c-3.1,0-4.8,1-4.8,3.1c0,2.2,1.9,3.6,6,4.1
		C220,102.1,223.6,102.3,228.4,102.8L228.4,102.8L228.4,102.8L228.4,102.8z"/>
	<path class="st0" d="M201,154.2c-5.5,0-11-2.4-16.8-7.2c-2.9-2.4-5.3-5.3-7-8.2l-16.1,7v-13.2l11.8-5c-1.7-4.8-2.4-9.6-2.4-14.4
		c0-7.2,1-13.2,3.1-17.5c2.2-4.6,5-6.7,8.6-6.7c3.1,0,6.2,2.6,8.9,7.9c2.6,4.6,3.8,8.9,3.8,12.7c0,9.6-2.9,17.5-8.4,23.8
		c3.8,4.1,8.6,6.2,14.4,6.2v14.6H201L201,154.2z M191.2,115.8c0-1.7-1.2-4.1-3.6-7.4c-2.6-3.6-5-5.5-7.2-5.5c-1.4,0-2.9,1-4.3,2.9
		c-1.7,1.9-2.4,3.6-2.4,5.3c0,1.4,1,3.8,2.4,7.4c1.4,3.1,2.6,5,3.4,6.2c2.2-1,4.3-2.4,7-4.3C189.8,118.2,191.2,116.7,191.2,115.8
		L191.2,115.8L191.2,115.8L191.2,115.8z"/>
	<path class="st0" d="M147.5,134.5c-3.6-4.6-6.7-6.7-9.6-6.7c-4.3,0-6.2,1-6.2,3.4c0,2.9,2.9,4.3,8.6,4.3
		C142.5,135.4,144.9,135,147.5,134.5L147.5,134.5L147.5,134.5L147.5,134.5z M155,152c0-1.4-0.5-3.1-1-4.8c-2.9,1-7.2,1.7-12.5,1.7
		c-11.5,0-17.3-4.1-17.3-12c0-6,1.7-11.3,5.5-16.1c3.6-4.1,7.4-6.2,11.5-6.2c3.1,0,6.2,1.9,9.8,5.5c3.1,3.6,6,7.7,8.4,12.7
		c0.2,0,0.7,0,1.7-0.5v13.2l-0.5,0.5c0,2.9-0.7,6.2-2.2,10.6c-1.7,5.5-4.3,10.1-7.4,13.7c-7.2,8.6-15.1,16.1-23.8,22.6
		c-13,9.6-24,14.6-33.6,14.6c-8.2,0-14.4-3.1-18.7-9.1c-3.8-5-5.8-11.8-5.8-19.7c0-10.1,2.2-20.4,6.2-31.2c1.2-2.4,1.7-3.4,2.2-3.4
		c0.2,0,0.2,0.2,0.2,0.7c0,0.7-0.2,1.9-0.5,3.4c-3.1,10.6-4.6,18.5-4.6,24c0,5,1.2,9.4,3.6,13c3.8,5,9.8,7.7,18.2,7.7
		c7.2,0,15.8-3.1,26.2-9.4c8.2-5,16.1-11,23.8-18.2C151.4,158.5,155,154.2,155,152L155,152L155,152L155,152z"/>
	<path class="st0" d="M119,100.4c0,9.1-2.2,16.1-6.2,20.9c-6.5,7.4-16.1,14.6-28.6,21.8c-15.8,8.6-30.5,13.2-44.4,13.2
		c-18.2,0-31-9.1-37.9-27.1c-1.4-3.6-1.9-7.9-1.9-13.4c0-3.6,0.2-7.2,0.7-11c1-5.5,2.2-10.3,3.6-14.4C5,89.2,5.5,88.5,6,88.5
		s0.5,1,0.2,2.6c-0.7,2.4-1.2,5-1.7,7.4c-1,4.6-1.4,7.9-1.4,10.1c0,7.4,2.4,14.2,7.4,20.6c6.7,8.2,16.6,12.5,29.3,12.5
		c11.3,0,23.3-2.6,35.8-7.9c10.3-4.3,19.4-9.6,27.6-15.8c7.2-5.8,11-9.8,11-12.2c0-0.5-1.7-3.6-4.8-9.6c-3.6-7-6.2-13.9-7.9-20.6
		c-0.7-2.2-1.7-3.6-2.4-4.3c-1-1-1.4-1.7-1.4-2.6c0-0.7,0.7-4.3,1.9-10.8c0.2-1.2,0.5-1.7,1-1.7s1,0.2,1.4,0.7
		c1.9,2.2,6,6.2,12,12.2c1,1,1.4,1.7,1.4,2.4c0,0.7-0.5,1-1.7,1s-3.1-0.5-5.8-1.2c0.2,0.7,2.4,5,6.2,13
		C117.3,90.3,119,95.8,119,100.4L119,100.4L119,100.4L119,100.4z"/>
	<path class="st0" d="M209.2,58.9c-0.2-0.2-0.2-0.5,0-1l4.6-9.6c0.2-0.5,0.7-0.7,1-0.7c0.5,0,2.6,1.2,6.2,3.6
		c3.8,2.6,5.8,4.1,5.8,4.6c0,1.7-1.7,5-5,10.3c-0.5,0.7-0.7,1-1.2,0.7C216.9,63.9,213,61.3,209.2,58.9L209.2,58.9L209.2,58.9
		L209.2,58.9z"/>
	<path class="st0" d="M178,63l3.8-7.9c0.2-0.5,0.5-0.7,1-0.7s2.4,1.2,6.2,3.8c3.6,2.4,5.5,3.8,5.5,4.3c0,1.7-1.7,5.3-4.8,10.6
		c-0.5,0.7-1,0.7-1.4,0.5c-3.1-2.4-6.7-4.8-10.8-7.4c-1.4,2.9-2.6,5.5-4.1,7.7c-0.2,0.7-0.7,1-1.2,0.7c-3.6-2.9-7.4-5.5-11.3-7.9
		c-0.2-0.2-0.2-0.5,0-1l4.6-9.6c0.2-0.5,0.7-1,1-1c0.5,0,2.2,1.2,5.3,3.4C174.9,60.3,177,62,178,63L178,63L178,63L178,63z"/>
	<path class="st0" d="M41.4,57c-0.2-0.2-0.2-0.5,0-1l4.6-9.6c0.2-0.5,0.7-0.7,1-0.7c0.5,0,2.6,1.2,6.2,3.6c3.8,2.6,5.8,4.1,5.8,4.6
		c0,1.7-1.7,5-5,10.3c-0.5,0.7-0.7,1-1.2,0.7C49.1,62,45.3,59.4,41.4,57L41.4,57L41.4,57L41.4,57z"/>
	<path class="st0" d="M295.8,111c-0.2-0.2-0.2-0.5,0-1l4.6-9.6c0.2-0.5,0.7-0.7,1-0.7c0.5,0,2.6,1.2,6.2,3.6
		c3.8,2.6,5.8,4.1,5.8,4.6c0,1.7-1.7,5-5,10.3c-0.5,0.7-0.7,1-1.2,0.7C303.5,116,299.7,113.4,295.8,111L295.8,111L295.8,111
		L295.8,111z"/>
	<path class="st0" d="M12.9,79c0-0.2,0.2-0.5,0.2-0.5c0.2-0.2,0.2-0.2,0.2,0c0.2,0.2,0.2,0.5,0,0.7C12.1,86.4,9.9,90,6.8,90
		s-4.6-2.6-4.6-7.9c0-6.5,1.7-13.4,5.5-20.4c1-1.7,1.4-2.6,1.7-2.6l0,0c0,0.2-0.2,1.2-0.7,2.9c-2.4,7.4-3.6,12.5-3.6,15.6
		c0,3.8,1,6,3.1,6C9.8,83.6,11.2,81.9,12.9,79L12.9,79L12.9,79L12.9,79z"/>
	<path class="st0" d="M346,26.7c0-1.2-2.4-3.4-7.4-6.2c-1.7,2.9-2.4,5.5-2.4,7.9c0,1.4,0.7,2.4,2.2,2.4c1.2,0,2.6-0.5,4.3-1.4
		C344.3,28.6,345.5,27.7,346,26.7L346,26.7L346,26.7L346,26.7z M340.7,7.5c0.7-1.2,1.7-1.7,2.4-1.7c0.5,0,1,0.2,1,0.7
		c0,0-0.2,0.2-0.2,0.5c-1,2.2-1.9,4.6-2.6,7c5,3.6,7.4,7.4,7.2,11c-0.5,4.1-1,6.7-1.7,7.7c-2.4,2.9-5,4.6-8.4,4.6s-4.8-2.2-4.8-6
		c0-0.7,0-1.7,0.2-2.6C335,21,337.4,14,340.7,7.5L340.7,7.5L340.7,7.5L340.7,7.5z"/>
	<path class="st0" d="M354.9,96.8c0.5-1.4,0.5-2.9,0.2-4.3c-0.2-1.4-1-2.2-2.2-2.2c-0.5,0-1.2,0.2-2.2,0.7s-1.4,1-1.4,1.4
		C349.4,93.7,351.3,95.1,354.9,96.8L354.9,96.8L354.9,96.8L354.9,96.8z M352,103c-4.6-2.4-6.7-4.8-6.7-7.4c0-3.1,1.4-6,4.3-8.4
		c2.9-2.6,5.3-3.6,7.2-2.9c1.7,0.5,2.4,2.2,2.4,5c0,2.6-0.5,5.5-1.7,8.9c2.4,1.2,3.8,2.4,4.3,3.4c0,1.2-1,3.4-3.1,6.2
		c-0.5-1-1.9-2.2-4.1-3.4c-2.6,3.6-5.8,6.7-9.6,9.6c-4.6,3.1-8.6,5.8-12.2,7.2c-1,0.5-5.3,2.2-13,5c-1.2,0.5-2.2,0.7-2.4,0.7
		c-0.2,0-0.2-0.2-0.2-0.2c0-0.2,0.5-1,1.9-1.7c5.8-3.6,11.5-7,17.5-10.3C343.6,110.5,348.6,106.6,352,103L352,103L352,103L352,103z"
		/>
	<path class="st0" d="M305,194c0-0.2,0.2-0.5,0.2-0.5c0.2-0.2,0.2-0.2,0.2,0c0.2,0.2,0.2,0.5,0,0.7c-1.2,7.2-3.4,10.8-6.5,10.8
		s-4.6-2.6-4.6-7.9c0-6.5,1.7-13.4,5.5-20.4c1-1.7,1.4-2.6,1.7-2.6l0,0c0,0.2-0.2,1.2-0.7,2.9c-2.4,7.4-3.6,12.5-3.6,15.6
		c0,3.8,1,6,3.1,6C301.8,198.6,303.3,196.9,305,194L305,194L305,194L305,194z"/>
	<path class="st0" d="M277.4,8.2c2.9,0,5.3,1.4,7.4,4.8c2.2,3.1,3.8,7.4,4.6,12.7c0.2,0.5,0.2,0.7,0.2,1h0.2c0-0.2,0.2-0.5,0.2-1
		c0.5-3.1,1.7-7.9,3.4-14.2c1.9-4.3,3.8-6.5,6-6.5c1.2,0,2.4,0.7,3.4,2.2c1,1.4,1.4,2.4,1.4,3.4c0,0.5,0,1.4-0.5,2.4
		c-0.5,1.4-1,2.2-1.4,2.2c-0.2,0-0.7-0.7-1.7-1.7c-0.7-1-1.7-1.4-2.6-1.4c-1.9,0-3.6,4.6-5.3,13.7c-0.7,4.1-1.7,7-2.4,8.6
		c-0.7,1-1.2,1.7-1.7,1.7s-0.5-0.7-0.7-1.7c0.2-1.7-0.7-4.8-2.6-9.4c-1.9-4.8-3.1-7-4.1-7c-0.5,0-0.7,0-1,0.5
		c-0.2,0.2-0.5,0.5-1.2,0.5c-1,0-1.9-0.7-3.4-1.9c-1.4-1.2-1.9-2.2-1.9-2.9c0-0.2,0.5-1.4,1.7-3.4C276.4,9,277.1,8.2,277.4,8.2
		L277.4,8.2L277.4,8.2L277.4,8.2z"/>
	<path class="st0" d="M275.9,87.2c24.2-9.1,49.4-18.2,75.4-27.8c0.7-0.2,1.2-0.5,1.2-0.2c0.2,0,0.2,0.5,0,1.2
		c-1,2.2-1.7,3.4-2.2,3.8c-0.2,0.2-12.5,4.8-36.2,13.7c-24.2,8.9-37.9,14.4-40.6,16.1C274,91.8,274.7,89.6,275.9,87.2L275.9,87.2
		L275.9,87.2L275.9,87.2z"/>
	<path class="st0" d="M319.4,48.3c0-0.2,0.2-0.5,0.2-0.5c0.2-0.2,0.2-0.2,0.2,0c0.2,0.2,0.2,0.5,0,0.7c-1.2,7.2-3.4,10.8-6.5,10.8
		s-4.6-2.6-4.6-7.9c0-6.5,1.7-13.4,5.5-20.4c1-1.7,1.4-2.6,1.7-2.6l0,0c0,0.2-0.2,1.2-0.7,2.9c-2.4,7.4-3.6,12.5-3.6,15.6
		c0,3.8,1,6,3.1,6C316.2,52.9,317.7,51.2,319.4,48.3L319.4,48.3L319.4,48.3L319.4,48.3z"/>
	<path class="st0" d="M285,57.4c0,2.6-1.2,5.5-3.1,8.6c-2.2,3.1-4.8,6-8.2,8.4c-1.4,1-2.2,1.4-2.4,1.4v-0.2c0-0.2,0.5-0.7,1.4-1.9
		c5.5-6,8.4-9.8,8.4-12c0-1.7-1-2.6-2.6-2.6c-1,0-1.9,0.2-2.6,0.7c-0.7,0.2-1,0.5-1.2,0.5c0,0-0.2,0-0.2-0.2c0,0,0-0.5,0.2-1.4
		c1-4.1,2.9-6,6.2-6C283.6,52.6,285,54.3,285,57.4L285,57.4L285,57.4L285,57.4z"/>
	<path class="st0" d="M339.3,186.8c0,2.6-1.2,5.5-3.1,8.6c-2.2,3.1-4.8,6-8.2,8.4c-1.4,1-2.2,1.4-2.4,1.4V205c0-0.2,0.5-0.7,1.4-1.9
		c5.5-6,8.4-9.8,8.4-12c0-1.7-1-2.6-2.6-2.6c-1,0-1.9,0.2-2.6,0.7c-0.7,0.2-1,0.5-1.2,0.5c0,0-0.2,0-0.2-0.2c0,0,0-0.5,0.2-1.4
		c1-4.1,2.9-6,6.2-6C337.8,182,339.3,183.7,339.3,186.8L339.3,186.8L339.3,186.8L339.3,186.8z"/>
	<path class="st0" d="M209,200c13.7-4.8,28.1-10.1,43.2-15.6c1-0.2,1.2-0.5,1.4-0.2c0.2,0,0.2,0.5-0.2,1.2c-0.7,2.2-1.4,3.4-1.9,3.8
		c-13,4.6-27.8,10.3-44.9,17.5C207,204.6,207.8,202.4,209,200L209,200L209,200L209,200z"/>
	<path class="st0" d="M180.6,18.6c0.5-1.4,0.5-2.9,0.2-4.3c-0.2-1.4-1-2.2-2.2-2.2c-0.5,0-1.2,0.2-2.2,0.7s-1.4,1-1.4,1.4
		C175.1,15.4,177,16.9,180.6,18.6L180.6,18.6L180.6,18.6L180.6,18.6z M177.8,24.8c-4.6-2.4-6.7-4.8-6.7-7.4c0-3.1,1.4-6,4.3-8.4
		c2.9-2.6,5.3-3.6,7.2-2.9c1.7,0.5,2.4,2.2,2.4,5c0,2.6-0.5,5.5-1.7,8.9c2.4,1.2,3.8,2.4,4.3,3.4c0,1.2-1,3.4-3.1,6.2
		c-0.5-1-1.9-2.2-4.1-3.4c-2.6,3.6-5.8,6.7-9.6,9.6c-4.6,3.1-8.6,5.8-12.2,7.2c-1,0.5-5.3,2.2-13,5c-1.2,0.5-2.2,0.7-2.4,0.7
		c-0.2,0-0.2-0.2-0.2-0.2c0-0.2,0.5-1,1.9-1.7c5.8-3.6,11.5-7,17.5-10.3C169.4,32.2,174.4,28.4,177.8,24.8L177.8,24.8L177.8,24.8
		L177.8,24.8z"/>
	<path class="st0" d="M146.8,83.8c0-0.2,0.2-0.5,0.2-0.5c0.2-0.2,0.2-0.2,0.2,0c0.2,0.2,0.2,0.5,0,0.7c-1.2,7.2-3.4,10.8-6.5,10.8
		s-4.6-2.6-4.6-7.9c0-6.5,1.7-13.4,5.5-20.4c1-1.7,1.4-2.6,1.7-2.6l0,0c0,0.2-0.2,1.2-0.7,2.9c-2.4,7.4-3.6,12.5-3.6,15.6
		c0,3.8,1,6,3.1,6C143.7,88.4,145.1,86.7,146.8,83.8L146.8,83.8L146.8,83.8L146.8,83.8z"/>
	<path class="st0" d="M85.6,167.6c9.6-3.4,19.9-7.2,31-11c1-0.2,1.2-0.5,1.4-0.2c0.2,0,0.2,0.5-0.2,1.2c-0.7,2.2-1.4,3.4-1.9,3.8
		c-9.6,3.4-20.4,7.4-32.6,13C83.7,172.2,84.4,170,85.6,167.6L85.6,167.6L85.6,167.6L85.6,167.6z"/>
	<path class="st0" d="M47.9,89.8c2.9,0,5.3,1.4,7.4,4.8c2.2,3.1,3.8,7.4,4.6,12.7c0.2,0.5,0.2,0.7,0.2,1h0.2c0-0.2,0.2-0.5,0.2-1
		c0.5-3.1,1.7-7.9,3.4-14.2c1.9-4.3,3.8-6.5,6-6.5c1.2,0,2.4,0.7,3.4,2.2c1,1.4,1.4,2.4,1.4,3.4c0,0.5,0,1.4-0.5,2.4
		c-0.5,1.4-1,2.2-1.4,2.2c-0.2,0-0.7-0.7-1.7-1.7c-0.7-1-1.7-1.4-2.6-1.4c-1.9,0-3.6,4.6-5.3,13.7c-0.7,4.1-1.7,7-2.4,8.6
		c-0.7,1-1.2,1.7-1.7,1.7s-0.5-0.7-0.7-1.7c0.2-1.7-0.7-4.8-2.6-9.4c-1.9-4.8-3.1-7-4.1-7c-0.5,0-0.7,0-1,0.5
		c-0.2,0.2-0.5,0.5-1.2,0.5c-1,0-1.9-0.7-3.4-1.9c-1.4-1.2-1.9-2.2-1.9-2.9c0-0.2,0.5-1.4,1.7-3.4C47,90.6,47.7,89.8,47.9,89.8
		L47.9,89.8L47.9,89.8L47.9,89.8z"/>
	<path class="st0" d="M143.7,14c0,0.5-0.2,1.4-0.5,2.4c-0.5,1.4-1,2.2-1.7,2.2c-0.2,0-0.7-0.7-1.7-1.7c-0.7-1-1.7-1.4-2.4-1.4
		c-1.9,0-3.8,4.6-5.5,13.7c-0.7,4.1-1.4,6.7-2.4,8.4c-0.7,1.2-1.2,1.7-1.7,1.7c-0.2,0-0.5-0.5-0.5-1.4c0-1.7-1-4.8-2.9-9.4
		c-1.7-4.8-3.1-7-3.8-7c-0.5,0-1,0-1,0.5c-0.2,0.2-0.7,0.5-1.4,0.5c-1,0-2.2-0.7-3.6-1.9c-1.4-1.4-1.9-2.4-1.7-2.9
		c2.2-4.1,3.4-6,3.8-6c2.6,0,5.3,1.4,7.4,4.8c2.2,3.1,3.6,7.4,4.6,12.5c0,0.7,0,1,0,1c0.2,0.2,0.2,0.2,0.2,0c0,0,0.2-0.2,0.5-1
		c0.5-2.9,1.4-7.7,3.1-13.9c1.9-4.3,3.8-6.5,6.2-6.5c1,0,2.2,0.7,3.4,2.2C143.2,12.1,143.7,13,143.7,14L143.7,14L143.7,14L143.7,14z
		 M113,17.6c0.5-1,1-1.4,1.2-1.4c0,0,0.2,0.2,0,0.2c0.2,0.7-0.5,2.4-1.9,5c-2.4,4.6-5.8,8.2-10.1,11.3c-4.6,3.4-8.6,5.8-12.2,7.4
		c-0.7,0.5-5,2.2-13,5c-1.2,0.5-1.9,0.7-2.4,0.7c-0.2,0-0.2-0.2-0.2-0.2c0-0.2,0.7-1,1.9-1.7c6.7-3.6,15.8-9.4,27.6-17.3
		C108.6,23.1,111.5,20,113,17.6L113,17.6L113,17.6L113,17.6z"/>
	<path class="st0" d="M224.3,24.3c0-0.2,0.2-0.5,0.2-0.5c0.2-0.2,0.2-0.2,0.2,0c0.2,0.2,0.2,0.5,0,0.7c-1.2,7.2-3.4,10.8-6.5,10.8
		s-4.6-2.6-4.6-7.9c0-6.5,1.7-13.4,5.5-20.4c1-1.7,1.4-2.6,1.7-2.6l0,0c0,0.2-0.2,1.2-0.7,2.9c-2.4,7.4-3.6,12.5-3.6,15.6
		c0,3.8,1,6,3.1,6C221.2,28.9,222.6,27.2,224.3,24.3L224.3,24.3L224.3,24.3L224.3,24.3z"/>
	<path class="st0" d="M291.3,123.7c0,2.6-1.2,5.5-3.1,8.6c-2.2,3.1-4.8,6-8.2,8.4c-1.4,1-2.2,1.4-2.4,1.4v-0.2
		c0-0.2,0.5-0.7,1.4-1.9c5.5-6,8.4-9.8,8.4-12c0-1.7-1-2.6-2.6-2.6c-1,0-1.9,0.2-2.6,0.7c-0.7,0.2-1,0.5-1.2,0.5c0,0-0.2,0-0.2-0.2
		c0,0,0-0.5,0.2-1.4c1-4.1,2.9-6,6.2-6C289.8,118.9,291.3,120.6,291.3,123.7L291.3,123.7L291.3,123.7L291.3,123.7z"/>
	<path class="st0" d="M166.5,175c2.9,0,5.3,1.4,7.4,4.8c2.2,3.1,3.8,7.4,4.6,12.7c0.2,0.5,0.2,0.7,0.2,1h0.2c0-0.2,0.2-0.5,0.2-1
		c0.5-3.1,1.7-7.9,3.4-14.2c1.9-4.3,3.8-6.5,6-6.5c1.2,0,2.4,0.7,3.4,2.2c1,1.4,1.4,2.4,1.4,3.4c0,0.5,0,1.4-0.5,2.4
		c-0.5,1.4-1,2.2-1.4,2.2c-0.2,0-0.7-0.7-1.7-1.7c-0.7-1-1.7-1.4-2.6-1.4c-1.9,0-3.6,4.6-5.3,13.7c-0.7,4.1-1.7,7-2.4,8.6
		c-0.7,1-1.2,1.7-1.7,1.7s-0.5-0.7-0.7-1.7c0.2-1.7-0.7-4.8-2.6-9.4c-1.9-4.8-3.1-7-4.1-7c-0.5,0-0.7,0-1,0.5
		c-0.2,0.2-0.5,0.5-1.2,0.5c-1,0-1.9-0.7-3.4-1.9c-1.4-1.2-1.9-2.2-1.9-2.9c0-0.2,0.5-1.4,1.7-3.4C165.5,175.8,166.2,175,166.5,175
		L166.5,175L166.5,175L166.5,175z"/>
	<path class="st0" d="M231.3,166.4c0,2.6-1.2,5.5-3.1,8.6c-2.2,3.1-4.8,6-8.2,8.4c-1.4,1-2.2,1.4-2.4,1.4v-0.2
		c0-0.2,0.5-0.7,1.4-1.9c5.5-6,8.4-9.8,8.4-12c0-1.7-1-2.6-2.6-2.6c-1,0-1.9,0.2-2.6,0.7c-0.7,0.2-1,0.5-1.2,0.5c0,0-0.2,0-0.2-0.2
		c0,0,0-0.5,0.2-1.4c1-4.1,2.9-6,6.2-6C229.8,161.6,231.3,163.3,231.3,166.4L231.3,166.4L231.3,166.4L231.3,166.4z"/>
	<path class="st0" d="M580.2,117.2c1.2-1,2.2-1.4,2.9-1.4c0.5,0,0.7,0.5,0.7,1.4c0,0.7-0.2,2.2-0.7,4.1s-0.7,3.4-0.7,4.6
		c0,5.3,3.8,8.2,11.3,8.2c6,0,11-2.6,14.9-7.7c2.4-4.1,5-7.9,7.4-11.8c1-1,1.7-1.4,2.4-1.4c1,0,1.2,1,0.7,3.1c-1,4.1-1.7,6-1.7,5.5
		c0,1.7,1,3.4,2.9,4.8c1.7,1.4,4.1,2.4,6.7,2.4c3.4,0,5.5-1,6.5-2.6c0-0.2-1-2.2-3.1-5.8c0.2-1.9,1.2-5.3,2.6-9.8
		c0.2-1.4,0.7-2.2,1.2-2.2s1,0.2,1.7,1.2c1.9,2.9,3.1,6.2,3.1,10.1c0,6-1.4,11-4.1,15.4c-2.9,5.3-7.2,7.9-13,7.9
		c-3.8,0-7.4-3.1-10.6-8.9c-5.3,9.6-12.2,14.4-20.6,14.4c-10.1,0-14.9-5.8-14.9-16.8c-3.8,4.6-10.3,8.6-18.7,12.5v-13.2
		c6.2-3.1,10.3-5,11.5-5.8C572.6,123.4,576.4,120.6,580.2,117.2L580.2,117.2L580.2,117.2L580.2,117.2z"/>
	<path class="st0" d="M543.5,133c-3.6-4.6-6.7-6.7-9.6-6.7c-4.3,0-6.2,1-6.2,3.4c0,2.9,2.9,4.3,8.6,4.3
		C538.5,134,540.9,133.5,543.5,133L543.5,133L543.5,133L543.5,133z M551,150.6c0-1.4-0.5-3.1-1-4.8c-2.9,1-7.2,1.7-12.5,1.7
		c-11.5,0-17.3-4.1-17.3-12c0-6,1.7-11.3,5.5-16.1c3.6-4.1,7.4-6.2,11.5-6.2c3.1,0,6.2,1.9,9.8,5.5c3.1,3.6,6,7.7,8.4,12.7
		c0.2,0,0.7,0,1.7-0.5v13.2l-0.5,0.5c0,2.9-0.7,6.2-2.2,10.6c-1.7,5.5-4.3,10.1-7.4,13.7c-7.2,8.6-15.1,16.1-23.8,22.6
		c-13,9.6-24,14.6-33.6,14.6c-8.2,0-14.4-3.1-18.7-9.1c-3.8-5-5.8-11.8-5.8-19.7c0-10.1,2.2-20.4,6.2-31.2c1.2-2.4,1.7-3.4,2.2-3.4
		c0.2,0,0.2,0.2,0.2,0.7c0,0.7-0.2,1.9-0.5,3.4c-3.1,10.6-4.6,18.5-4.6,24c0,5,1.2,9.4,3.6,13c3.8,5,9.8,7.7,18.2,7.7
		c7.2,0,15.8-3.1,26.2-9.4c8.2-5,16.1-11,23.8-18.2C547.4,157,551,152.7,551,150.6L551,150.6L551,150.6L551,150.6z"/>
	<path class="st0" d="M485.4,114.3c-0.5-2.2-1.2-3.8-2.2-5c-0.7-1.4-1.2-2.2-1.4-2.6c0-0.5,0-2.2,0.5-5.5c0.5-3.1,0.7-5.3,1.2-6.5
		c0.2-1.2,0.5-1.7,1-1.7c0.2,0,0.5,0.2,1,0.7c3.4,3.8,7,7.7,11,11.8c1.7,1.7,2.4,2.6,2.4,3.1c0,0.2-0.2,0.5-0.7,0.5
		c-0.7,0-2.6-0.5-5.5-1.2c1.7,4.1,3.6,8.2,5.3,12c2.6,6.7,4.1,12.2,4.1,17.3c0,2.4-0.5,5.3-1.4,8.9c-1.2,4.1-2.6,7.2-4.6,9.4
		c-7,7.9-18.7,16.6-35.3,25.9c-14.4,8.4-22.8,12.5-25.4,12.5c-0.5,0-7.7,1.7-21.4,5c-14.4,3.4-23.5,5.5-27.1,6c-3.8,0.7-6.2,1-7.2,1
		c-0.5,0-0.5,0-0.5-0.2s2.6-1.7,7.9-4.1c1.9-1,13-5.8,33.4-14.4c14.2-6,25.9-11.5,35.3-16.6c14.2-7.7,25-14.4,32.4-19.9
		c5.5-4.3,8.4-7.4,8.4-9.4c0-0.5-1.4-3.8-4.3-10.1C489,124.2,486.6,118.4,485.4,114.3L485.4,114.3L485.4,114.3L485.4,114.3z"/>
	<path class="st0" d="M465.8,81c0,3.8-1.9,9.1-5.8,15.6c-2.4,4.1-6,9.6-10.8,16.8c4.8,5.5,8.2,10.6,9.8,14.9c1,3.1,1.7,7.2,1.7,11.8
		c0,1.9-0.5,4.3-1.4,7.4c-0.7,2.9-1.7,5-2.6,6.5c-1.9,2.9-5,5.8-9.8,8.6c-5,3.4-9.4,5-13,5c-5.8,0-8.6-4.3-8.6-13
		c0-5.8,1-11.5,2.9-16.8c1.9-4.6,5-10.6,10.1-18.5c-4.3-4.1-8.9-9.8-13.9-17c-0.5-0.7-1.7-1.9-3.6-3.8c-1-1-1.4-2.2-1.4-3.6
		c0-2.2,0.2-4.6,0.7-7.4c0.7-2.9,1.2-4.1,1.4-4.1c0.7,0,2.9,1.2,7,3.8c3.8,2.6,7,4.6,8.9,6.2c1.2,0.7,1.7,1.4,1.7,1.4V95
		c0,0.2-0.7,0.5-2.4,0.5c-3.1,0-4.8,0.2-4.8,0.5c0,0.2,0.5,0.7,1.4,1.9c3.8,4.8,7.7,8.4,11.8,11.3c1-1.4,4.3-6.2,9.6-14.4
		c4.6-7,7.2-11.8,8.4-14.6c1.2-2.9,1.9-4.1,2.4-4.1C465.5,76.2,465.8,77.6,465.8,81L465.8,81L465.8,81L465.8,81z M456.4,140
		c-2.6-5.3-7.2-10.8-13.4-16.1c-2.2,2.2-4.8,6.2-8.2,12c-3.8,6.5-5.5,10.6-5.5,12.7c0,2.9,1.9,4.3,6.2,4.3c1.9,0,4.3-0.7,7.4-1.9
		c4.3-1.9,8.4-4.6,11.8-7.9C456.2,141.7,456.6,140.7,456.4,140L456.4,140L456.4,140L456.4,140z"/>
	<path class="st0" d="M443,63l3.8-7.9c0.2-0.5,0.5-0.7,1-0.7s2.4,1.2,6.2,3.8c3.6,2.4,5.5,3.8,5.5,4.3c0,1.7-1.7,5.3-4.8,10.6
		c-0.5,0.7-1,0.7-1.4,0.5c-3.1-2.4-6.7-4.8-10.8-7.4c-1.4,2.9-2.6,5.5-4.1,7.7c-0.2,0.7-0.7,1-1.2,0.7c-3.6-2.9-7.4-5.5-11.3-7.9
		c-0.2-0.2-0.2-0.5,0-1l4.6-9.6c0.2-0.5,0.7-1,1-1c0.5,0,2.2,1.2,5.3,3.4C439.8,60.3,442,62,443,63L443,63L443,63L443,63z"/>
	<path class="st0" d="M569.4,196.6c-2.6,0.7-4.1,1.2-4.6,1.2v-0.2c0,0,1-0.7,2.9-1.9c1.9-1.2,4.8-3.1,8.9-6.2c1.9-1.9,4.8-5,8.4-9.4
		c2.4-2.9,5-5.5,7.9-7.4c3.6-2.6,7-3.8,10.6-3.8c0.7,0,1.9,0.2,3.4,0.7c1.2,0.5,2.4,0.7,3.4,0.7c1.9,0,3.4-0.7,4.6-2.2
		c0.7-1.4,1.7-2.6,2.6-4.1c0.5-1,1.2-1.4,1.7-1.4c0.2,0,0.2,0.2,0.2,0.7s-0.2,1.7-0.7,3.1c-0.5,0.7,1.4,1,5,1c0.5,0,0.7,0,0.7-0.2
		c0,0-0.2-1-0.7-2.6c-0.2-0.5,0-1.2,0.7-2.2c1-1.7,1.4-2.4,1.7-2.2c1,0.7,1.4,2.2,1.4,3.8c0,1.7-0.5,3.4-1.2,5.3
		c-0.7,2.2-1.4,3.4-1.9,3.8c-1.7,1-4.3,0.7-7.9-1c-2.9,2.9-5.8,4.6-8.6,4.6c-0.7,0-1.9-0.2-3.1-0.7c-1.2-0.5-2.2-0.7-2.9-0.7
		c-4.8,0-9.8,2.2-14.9,7c-3.6,3.6-7.2,7.2-10.8,10.8C574,194.7,571.8,195.9,569.4,196.6L569.4,196.6L569.4,196.6L569.4,196.6z"/>
	<path class="st0" d="M518.1,67c2.9,0,5.3,1.4,7.4,4.8c2.2,3.1,3.8,7.4,4.6,12.7c0.2,0.5,0.2,0.7,0.2,1h0.2c0-0.2,0.2-0.5,0.2-1
		c0.5-3.1,1.7-7.9,3.4-14.2c1.9-4.3,3.8-6.5,6-6.5c1.2,0,2.4,0.7,3.4,2.2c1,1.4,1.4,2.4,1.4,3.4c0,0.5,0,1.4-0.5,2.4
		c-0.5,1.4-1,2.2-1.4,2.2c-0.2,0-0.7-0.7-1.7-1.7c-0.7-1-1.7-1.4-2.6-1.4c-1.9,0-3.6,4.6-5.3,13.7c-0.7,4.1-1.7,7-2.4,8.6
		c-0.7,1-1.2,1.7-1.7,1.7s-0.5-0.7-0.7-1.7c0.2-1.7-0.7-4.8-2.6-9.4c-1.9-4.8-3.1-7-4.1-7c-0.5,0-0.7,0-1,0.5
		c-0.2,0.2-0.5,0.5-1.2,0.5c-1,0-1.9-0.7-3.4-1.9c-1.4-1.2-1.9-2.2-1.9-2.9c0-0.2,0.5-1.4,1.7-3.4C517.1,67.8,517.8,67,518.1,67
		L518.1,67L518.1,67L518.1,67z"/>
	<path class="st0" d="M477.3,64.2c24.2-9.1,49.4-18.2,75.4-27.8c0.7-0.2,1.2-0.5,1.2-0.2c0.2,0,0.2,0.5,0,1.2
		c-1,2.2-1.7,3.4-2.2,3.8c-0.2,0.2-12.5,4.8-36.2,13.7c-24.2,8.9-37.9,14.4-40.6,16.1C475.4,68.7,476.1,66.6,477.3,64.2L477.3,64.2
		L477.3,64.2L477.3,64.2z"/>
	<path class="st0" d="M453.8,20.2c0.5-1.4,0.5-2.9,0.2-4.3c-0.2-1.4-1-2.2-2.2-2.2c-0.5,0-1.2,0.2-2.2,0.7s-1.4,1-1.4,1.4
		C448.2,17.1,450.2,18.6,453.8,20.2L453.8,20.2L453.8,20.2L453.8,20.2z M450.9,26.5c-4.6-2.4-6.7-4.8-6.7-7.4c0-3.1,1.4-6,4.3-8.4
		c2.9-2.6,5.3-3.6,7.2-2.9c1.7,0.5,2.4,2.2,2.4,5c0,2.6-0.5,5.5-1.7,8.9c2.4,1.2,3.8,2.4,4.3,3.4c0,1.2-1,3.4-3.1,6.2
		c-0.5-1-1.9-2.2-4.1-3.4c-2.6,3.6-5.8,6.7-9.6,9.6c-4.6,3.1-8.6,5.8-12.2,7.2c-1,0.5-5.3,2.2-13,5c-1.2,0.5-2.2,0.7-2.4,0.7
		c-0.2,0-0.2-0.2-0.2-0.2c0-0.2,0.5-1,1.9-1.7c5.8-3.6,11.5-7,17.5-10.3C442.5,33.9,447.5,30.1,450.9,26.5L450.9,26.5L450.9,26.5
		L450.9,26.5z"/>
	<path class="st0" d="M602.6,56.2c0.5-1.4,0.5-2.9,0.2-4.3c-0.2-1.4-1-2.2-2.2-2.2c-0.5,0-1.2,0.2-2.2,0.7s-1.4,1-1.4,1.4
		C597,53.1,599,54.6,602.6,56.2L602.6,56.2L602.6,56.2L602.6,56.2z M607.8,65.1c-2.4,5.8-3.6,10.3-3.6,13.7c0,4.1,1,6.2,3.1,6.2
		c1.2,0,2.6-1.7,4.3-4.6c0.2-0.2,0.2-0.5,0.5-0.7c0,0,0.2,0,0.2,0.2c0,0,0,0.2,0,0.7c-1.4,7.2-3.6,10.8-6.5,10.8
		c-3.1,0-4.6-2.6-4.6-7.9c0-2.6,0.5-6,1.9-10.3s2.2-6.5,2.2-6.7c0-0.5-1-1.4-3.1-2.6c-3.8,5-9.1,9.8-15.8,13.9
		c-4.6,2.6-9.1,5-13.9,7c-8.9,3.6-14.2,5.5-15.4,6.2c-1.2,0.5-1.9,0.7-2.4,0.7c-0.2,0-0.2-0.2-0.2-0.2c0-0.5,0.5-1,1.9-1.9
		c7.7-4.3,15.1-8.6,22.8-13c10.1-5.8,17-10.6,20.4-14.2c-4.6-2.4-6.7-4.8-6.7-7.4c0-3.1,1.4-6,4.3-8.6c2.9-2.4,5.3-3.4,7.2-2.6
		c1.4,0.5,2.4,2.2,2.4,5c0,2.6-0.5,5.5-1.7,8.6c2.4,1.4,3.4,2.9,3.4,4.3C608.6,62.5,608.3,63.7,607.8,65.1L607.8,65.1L607.8,65.1
		L607.8,65.1z"/>
	<path class="st0" d="M498.6,30.3c0-0.2,0.2-0.5,0.2-0.5c0.2-0.2,0.2-0.2,0.2,0c0.2,0.2,0.2,0.5,0,0.7c-1.2,7.2-3.4,10.8-6.5,10.8
		s-4.6-2.6-4.6-7.9c0-6.5,1.7-13.4,5.5-20.4c1-1.7,1.4-2.6,1.7-2.6l0,0c0,0.2-0.2,1.2-0.7,2.9c-2.4,7.4-3.6,12.5-3.6,15.6
		c0,3.8,1,6,3.1,6C495.5,34.9,497,33.2,498.6,30.3L498.6,30.3L498.6,30.3L498.6,30.3z"/>
</g>
</svg>
