<?xml version="1.0" encoding="utf-8"?>
<!-- Generator: Adobe Illustrator 24.0.0, SVG Export Plug-In . SVG Version: 6.00 Build 0)  -->
<svg version="1.1" id="Layer_1" xmlns="http://www.w3.org/2000/svg" xmlns:xlink="http://www.w3.org/1999/xlink" x="0px" y="0px"
	 viewBox="0 0 519.1 203.2" style="enable-background:new 0 0 519.1 203.2;" xml:space="preserve">
<style type="text/css">
	.st0{fill:#C4692C;}
</style>
<g>
	<path class="st0" d="M274.8,27.8c0-4.8-0.7-8.6-2.2-11.8c0-1.7,1.2-5.8,4.1-12c0.2-0.7,0.5-1.2,0.7-1.2c0.5,0,0.7,0.5,1.2,1.2
		c0.7,1.7,2.4,6.2,5.3,13.7c3.1,7.9,4.8,12.7,5.3,14.6c0.5,1.2,0.5,2.4,0.5,2.9c0,2.2-1.9,1-6.2-3.8c-0.5-0.7-0.7-0.2-0.7,1
		c0,0.5,1.2,15.4,3.4,45.1c2.2,29.5,3.1,46.1,3.1,49.9c0,11.3-1.7,21.4-5,30c-1,1.7-1.4,2.9-1.9,3.8l0,0c-0.7,1.2-1,1.2-1.2,0.5
		c-0.2-1,0-2.9,0.2-5.5c0.5-4.1,0.7-8.6,0.7-13.7c0-4.8-1.2-24-3.6-57.8C276,50.8,274.8,31.8,274.8,27.8L274.8,27.8L274.8,27.8
		L274.8,27.8z"/>
	<path class="st0" d="M266.9,132.2c0,14.2-2.6,25.2-7.7,33.4c-4.3,6.7-9.4,10.3-15.1,10.3v-14.6c4.6,0,9.1-1.9,13.4-5.5
		c1.2-1,1.9-5,1.9-11.8c0-4.1-1.4-23.8-3.8-58.8C253.2,49.9,252,30,252,24.7c0-4.6-1-8.4-2.4-11.5c0-1.7,1.4-5.8,4.1-12.2
		c0.5-0.7,0.7-1,1-1c0.2,0,0.7,0.2,1,1c0.7,1.9,2.6,6.5,5.5,13.9c2.9,7.7,4.6,12.7,5,14.4c0.5,1.4,0.7,2.4,0.7,3.1
		c0,2.2-2.2,1-6.2-3.8c-0.2-0.7-0.5-0.5-0.5,0.7c0,0.2,1,16.3,3.4,48C265.7,108.9,266.9,127.1,266.9,132.2L266.9,132.2L266.9,132.2
		L266.9,132.2z"/>
	<path class="st0" d="M244.1,175.8c-8.6,0-13.2-5-13.7-15.1c0-0.5-0.2-0.7-0.7-1c-0.7,0.2-1.4,0.5-2.2,1.4c-5,5.8-8.2,9.1-9.6,10.3
		c-6.2,5.5-12.7,8.2-19.4,8.2V165c7,0,13.2-1.9,18.7-5.8c2.2-1.4,7-6,14.6-13.7c0.7-0.7,1.7-1.2,2.6-1.2s1.2,0.5,1.2,1.4
		c0,0.5,0,1.2-0.2,2.2s-0.2,1.7-0.2,2.2c0,2.9,0.5,5.3,1.9,7.2c1.4,2.4,3.8,3.8,7,3.8L244.1,175.8L244.1,175.8L244.1,175.8z"/>
	<path class="st0" d="M198.5,165v14.6c-7.9,0-13-3.1-15.4-9.4c-1-2.2-1.2-4.8-1.2-8.2c0-2.2,0.2-4.6,0.7-7.4c0.5-4.1,1.2-6,2.4-6
		c0.5,0,0.7,1,1,3.1c0,1.2,0,2.6,0,3.8c0.5,3.4,1.4,5.8,3.4,7.2C191,164.3,194.2,165,198.5,165L198.5,165L198.5,165L198.5,165z"/>
	<path class="st0" d="M250.8,113.4l-3.4,9.8c-0.5,1.2-0.7,1.9-1,2.2c-0.2,0.5-0.7,0.7-1.2,0.7c-19.9,4.8-39.6,11-59.3,18.7
		c0.2,2.9,0.5,5.3,0.5,7c0,2.4-0.5,3.6-1.2,3.6c-1,0-3.1-2.6-6.2-8.4c-3.6,1.2-9.8,3.8-18.7,7.7v-13.2c2.6-1.2,6.5-2.9,11-5
		c-0.5-0.5-3.8-3.4-10.3-8.6c-5.5-4.3-8.9-7.9-10.3-10.3c-1.4-2.2-2.2-4.8-2.2-7.4c0-4.6,1.9-8.4,5.5-11.5c3.6-3.4,8.2-5,13.7-5
		c9.8,0,25.9,2.9,47.5,8.2c1,0.2,12.5,3.4,34.6,9.4C251,111.3,251.3,112.2,250.8,113.4L250.8,113.4L250.8,113.4L250.8,113.4z
		 M226.1,119.4c-5.3-1.9-13.7-4.6-25-7.2c-14.6-3.6-26.2-5.3-35-5.3c-7,0-10.6,0.5-10.6,1.7c0,0.5,1.2,1.7,3.1,3.6
		c4.1,3.1,8.2,6.5,12,9.8c6,4.8,9.6,8.4,11.3,10.6C197.8,127.1,212.4,122.6,226.1,119.4L226.1,119.4L226.1,119.4L226.1,119.4z"/>
	<path class="st0" d="M115,168.2c5-5.8,11.8-10.8,20.2-15.4c4.8-2.6,13.2-6.5,25.2-11.5v13.2c-7.7,3.4-13.2,5.8-16.8,7.4
		c-7.4,3.6-12.5,6.2-15.1,8.4c-5,3.8-12.5,11.3-22.1,22.3c-5.8,6.7-11.5,10.1-17.3,10.1c-4.8,0-9.1-2.2-12.7-6.7
		c-3.8-4.3-5.5-10.1-5.5-16.6c0-8.9,3.6-20.6,11-35.3c0.7-1.4,1.4-2.2,1.9-2.2c0,0,0.2,0.2,0.2,0.5c0,1.4-1.7,6.5-4.8,15.1
		c-3.4,8.9-5,15.6-5,20.6c0,3.8,1,7,2.9,9.1c1.9,2.6,4.6,3.8,7.9,3.8c6,0,12.2-3.1,18.2-9.1C107.3,177.5,111.1,172.7,115,168.2
		L115,168.2L115,168.2L115,168.2z"/>
	<g>
		<path class="st0" d="M89.3,100c-2.6-8.2-4.6-16.3-5.5-24.5c-0.2-1.4-0.2-2.2-0.5-2.6c-0.2-1-1-2.2-1.9-3.4l3.4-8.2
			c0.5-1.2,1-1.9,1.4-1.9c0.2,0,1,0.7,1.7,1.9l8.4,13.4c1.2,1.9,1.7,3.4,1.7,4.1c0,0.5-0.2,1-0.7,1c-1.2,0-2.9-1-5.5-2.6
			c0.7,5.3,2.4,11.8,5,19.7c0,0.5-1,1.2-2.6,2.2c-1.7,0.7-3.1,1.2-4.1,1.2C89.5,100.2,89.3,100.2,89.3,100L89.3,100L89.3,100
			L89.3,100z"/>
	</g>
	<path class="st0" d="M18.5,160.7c-5,0-9.4-2.4-13-6.7C1.7,149.4,0,143.9,0,137.4c0-9.1,3.6-20.9,11-35.3c0.7-1.4,1.4-2.2,1.9-2.2
		c0.2,0,0.2,0,0.2,0.5c0,1.4-1.7,6.5-4.8,15.1c-3.4,8.6-4.8,15.6-4.8,20.6c0,3.8,0.7,7,2.6,9.4c1.9,2.4,4.6,3.6,7.9,3.6
		c5.5,0,10.8-1.9,15.6-5.5c6-5,12-10.3,18-15.6c9.8-7.9,19-14.2,27.8-18.5c6.5-3.4,11.5-5,14.6-5c-0.2-0.7-0.5-2.4-1-4.8
		c0-0.7,1.2-1.4,3.4-2.2c2.4-1,3.8-1.2,4.3-0.7c0.5,1.9,2.6,4.1,6,6.2c3.4,2.4,7.7,4.3,12.5,6c2.2,0.7,3.1,2.2,2.6,4.1l-1.7,9.6
		c-0.2,1.2-1.2,1.2-3.1,0c-5.3-2.9-11.8-4.3-19.4-4.3c-10.6,0-23,5.8-37.7,17.3c-7.7,6.2-15.1,12.5-22.6,18.5
		C27.8,158.6,22.8,160.7,18.5,160.7L18.5,160.7L18.5,160.7L18.5,160.7z"/>
	<path class="st0" d="M97.2,142l3.8-7.9c0.2-0.5,0.5-0.7,1-0.7s2.4,1.2,6.2,3.8c3.6,2.4,5.5,3.8,5.5,4.3c0,1.7-1.7,5.3-4.8,10.6
		c-0.5,0.7-1,0.7-1.4,0.5c-3.1-2.4-6.7-4.8-10.8-7.4c-1.4,2.9-2.6,5.5-4.1,7.7c-0.2,0.7-0.7,1-1.2,0.7c-3.6-2.9-7.4-5.5-11.3-7.9
		c-0.2-0.2-0.2-0.5,0-1l4.6-9.6c0.2-0.5,0.7-1,1-1c0.5,0,2.2,1.2,5.3,3.4C94.1,139.4,96.2,141,97.2,142L97.2,142L97.2,142L97.2,142z
		"/>
	<path class="st0" d="M224.6,77l3.8-7.9c0.2-0.5,0.5-0.7,1-0.7s2.4,1.2,6.2,3.8c3.6,2.4,5.5,3.8,5.5,4.3c0,1.7-1.7,5.3-4.8,10.6
		c-0.5,0.7-1,0.7-1.4,0.5c-3.1-2.4-6.7-4.8-10.8-7.4c-1.4,2.9-2.6,5.5-4.1,7.7c-0.2,0.7-0.7,1-1.2,0.7c-3.6-2.9-7.4-5.5-11.3-7.9
		c-0.2-0.2-0.2-0.5,0-1l4.6-9.6c0.2-0.5,0.7-1,1-1c0.5,0,2.2,1.2,5.3,3.4C221.5,74.3,223.7,76,224.6,77L224.6,77L224.6,77L224.6,77z
		"/>
	<path class="st0" d="M225.4,39.5c0,1.9-0.5,4.1-1.4,6c-1.2,2.6-2.6,4.1-4.3,4.1c-2.9,0-4.8-1.9-6-5.8c-1.4,4.8-3.8,7.4-7.4,7.4
		c-1.2,0-2.4-0.7-3.4-2.2c-1.2-1.4-1.7-3.6-1.7-6v-6.2c0-0.5-0.5-0.7-1-1c-0.7-0.2-1-0.7-1-1.4c0-1.4,0.5-2.6,1.4-3.8
		c1-1.2,1.7-1.7,2.2-1.7c0.7,0,1.2,1.2,1.2,3.8c0,1.4-0.2,2.6-0.2,3.6c-0.2,1-0.2,1.7-0.2,2.4c0,1.4,0.2,2.9,0.7,4.1
		c0.7,1.4,1.7,2.4,2.6,2.4c1.4,0,2.6-0.7,3.8-1.9c1.2-1.2,1.9-2.6,1.9-4.3c0-1-0.5-2.4-1-4.8c-0.7-2.2-1-3.6-1-4.1s0.2-1.2,0.7-2.4
		c0.5-1,1-1.4,1.2-1.4c0.5,0,1,1.4,1.7,4.3c0.7,3.1,1.2,5.3,1.2,6.7c0,4.1,1.4,6.2,4.6,6.2c1.4,0,2.4-0.7,2.6-2.2
		c-2.6-4.8-4.1-8.4-4.1-11c0-1.4,0.2-2.6,1.2-3.8c0.5-0.7,0.7-1.2,1-1.2c0.2,0,0.5,0.5,0.5,1.4c0.2,1.2,0.5,2.4,0.7,3.4
		c0,0,0.7,1.7,1.9,5C224.9,37.1,225.4,38.6,225.4,39.5L225.4,39.5L225.4,39.5L225.4,39.5z"/>
	<path class="st0" d="M170.6,22c18.5-6.7,37.7-13.9,57.8-21.4c0.7-0.2,1.2-0.5,1.4-0.2c0,0,0,0.5-0.2,1.2c-1,2.2-1.7,3.4-2.2,3.8
		c-16.8,6.2-36.7,13.9-59.3,23.3C168.7,26.6,169.4,24.4,170.6,22L170.6,22L170.6,22L170.6,22z"/>
	<path class="st0" d="M177.1,60.2c0-1.2-2.4-3.4-7.4-6.2c-1.7,2.9-2.4,5.5-2.4,7.9c0,1.4,0.7,2.4,2.2,2.4c1.2,0,2.6-0.5,4.3-1.4
		C175.4,62.1,176.6,61.1,177.1,60.2L177.1,60.2L177.1,60.2L177.1,60.2z M171.8,41c0.7-1.2,1.7-1.7,2.4-1.7c0.5,0,1,0.2,1,0.7
		c0,0-0.2,0.2-0.2,0.5c-1,2.2-1.9,4.6-2.6,7c5,3.6,7.4,7.4,7.2,11c-0.5,4.1-1,6.7-1.7,7.7c-2.4,2.9-5,4.6-8.4,4.6s-4.8-2.2-4.8-6
		c0-0.7,0-1.7,0.2-2.6C166.1,54.4,168.5,47.4,171.8,41L171.8,41L171.8,41L171.8,41z"/>
	<path class="st0" d="M125.3,196.5c13.7-4.8,28.1-10.1,43.2-15.6c1-0.2,1.2-0.5,1.4-0.2c0.2,0,0.2,0.5-0.2,1.2
		c-0.7,2.2-1.4,3.4-1.9,3.8c-13,4.6-27.8,10.3-44.9,17.5C123.4,201,124.1,198.9,125.3,196.5L125.3,196.5L125.3,196.5L125.3,196.5z"
		/>
	<path class="st0" d="M32.2,173.2c9.6-3.4,19.9-7.2,31-11c1-0.2,1.2-0.5,1.4-0.2c0.2,0,0.2,0.5-0.2,1.2c-0.7,2.2-1.4,3.4-1.9,3.8
		c-9.6,3.4-20.4,7.4-32.6,13C30.2,177.8,31,175.6,32.2,173.2L32.2,173.2L32.2,173.2L32.2,173.2z"/>
	<path class="st0" d="M21.6,91.6c0-0.2,0.2-0.5,0.2-0.5c0.2-0.2,0.2-0.2,0.2,0c0.2,0.2,0.2,0.5,0,0.7c-1.2,7.2-3.4,10.8-6.5,10.8
		s-4.6-2.6-4.6-7.9c0-6.5,1.7-13.4,5.5-20.4c1-1.7,1.4-2.6,1.7-2.6l0,0c0,0.2-0.2,1.2-0.7,2.9C15,82,13.8,87.1,13.8,90.2
		c0,3.8,1,6,3.1,6C18.5,96.2,19.9,94.5,21.6,91.6L21.6,91.6L21.6,91.6L21.6,91.6z"/>
	<path class="st0" d="M146.4,77.7c-4.8,4.3-11.3,6.7-19,6.7c-2.2,0-4.3-0.7-5.8-1.9c-1.4-1.2-2.2-2.9-2.2-4.8
		c0-3.4,1.2-6.7,4.1-10.1c2.9-3.1,5.8-6,8.4-9.1c0.7-0.5,0.5-1-0.5-1.4c-1.9-0.7-4.3-1-6.7-1c-1.2,0-2.6,0.2-4.3,1.2
		c-0.2,0-0.5,0.2-0.7,0c0,0,0-0.2,0.2-0.7c1-2.4,1.9-4.1,2.9-4.8c1.2-1,3.1-1.4,5.8-1.4c5.8,0,8.4,1.2,8.4,4.1c0,2.2-1.7,5-5.3,9.1
		c-2.6,2.6-5.3,5.3-7.9,7.9c-1,1.4-1.4,2.9-1.4,3.8c0,2.4,2.6,3.6,7.7,3.6s10.1-1,15.8-2.6c1.4-0.5,2.2-0.5,2.2-0.2
		C148.1,76,147.6,76.7,146.4,77.7L146.4,77.7L146.4,77.7L146.4,77.7z"/>
	<path class="st0" d="M52.8,51.8c-0.5-2.9-1.7-6.2-3.4-10.3s-3.1-6.2-3.8-6.2c-0.5,0-0.7,0-1,0.5c-0.2,0.2-0.5,0.5-1.2,0.5
		c-1,0-1.9-0.7-3.4-1.9c-1.4-1.2-1.9-2.2-1.9-2.9c0-0.2,0.5-1.4,1.7-3.4c1-1.9,1.7-2.6,1.9-2.6c2.9,0,5.3,1.4,7.4,4.8
		c2.2,3.1,3.8,7.4,4.6,12.7c0.2,0.5,0.2,0.7,0.2,1h0.2c0-0.2,0.2-0.5,0.2-1c0.5-3.1,1.7-7.9,3.4-14.2c1.9-4.3,3.8-6.5,6-6.5
		c1.2,0,2.4,0.7,3.4,2.2c1,1.4,1.4,2.4,1.4,3.4c0,0.5,0,1.4-0.5,2.4c-0.5,1.4-1,2.2-1.4,2.2c-0.2,0-0.7-0.7-1.7-1.7
		c-0.7-1-1.7-1.4-2.6-1.4c-1.9,0-3.6,4.6-5.3,13.7c-0.7,3.6-1.4,6.5-2.6,8.6c1.7,0,3.6,1.2,6.2,3.1c2.4,2.2,3.8,3.8,4.1,5.3
		c0,0.5-0.2,1.4-1,3.1c-0.7,1.7-1.2,2.4-1.7,2.6c-2.4,0.7-4.8,1.2-7.2,1.9c-2.9,1-5,2.2-6.2,3.4c3.4,10.1,5,19.9,5,29.8
		c0,2.9-0.5,5.8-1,8.9c-0.2,1-0.5,1.4-0.7,1.7c-0.2,0-0.2-1.9-0.2-5.3c0-5.5-1-12.5-2.6-20.4c-1.4-7.9-2.4-12.5-2.4-13.7
		c0-4.1,1.2-7,3.4-8.9c1.2-0.7,3.1-1.7,6.2-2.6c-1.2-1.2-2.4-1.7-3.6-1.7c-0.5,0-1.2,0.7-2.2,1.9c-1.2,1.2-1.7,1.9-1.9,1.9
		s-0.2-0.5,0-1.7C49.2,55.8,50.6,52.7,52.8,51.8L52.8,51.8L52.8,51.8L52.8,51.8z"/>
	<path class="st0" d="M135.8,4.7c2.9,0,5.3,1.4,7.4,4.8c2.2,3.1,3.8,7.4,4.6,12.7c0.2,0.5,0.2,0.7,0.2,1h0.2c0-0.2,0.2-0.5,0.2-1
		c0.5-3.1,1.7-7.9,3.4-14.2c1.9-4.3,3.8-6.5,6-6.5c1.2,0,2.4,0.7,3.4,2.2c1,1.4,1.4,2.4,1.4,3.4c0,0.5,0,1.4-0.5,2.4
		c-0.5,1.4-1,2.2-1.4,2.2c-0.2,0-0.7-0.7-1.7-1.7c-0.7-1-1.7-1.4-2.6-1.4c-1.9,0-3.6,4.6-5.3,13.7c-0.7,4.1-1.7,7-2.4,8.6
		c-0.7,1-1.2,1.7-1.7,1.7s-0.5-0.7-0.7-1.7c0.2-1.7-0.7-4.8-2.6-9.4c-1.9-4.8-3.1-7-4.1-7c-0.5,0-0.7,0-1,0.5
		c-0.2,0.2-0.5,0.5-1.2,0.5c-1,0-1.9-0.7-3.4-1.9c-1.4-1.2-1.9-2.2-1.9-2.9c0-0.2,0.5-1.4,1.7-3.4C134.9,5.4,135.6,4.7,135.8,4.7
		L135.8,4.7L135.8,4.7L135.8,4.7z"/>
	<path class="st0" d="M108.7,28.2c0-0.2,0.2-0.5,0.2-0.5c0.2-0.2,0.2-0.2,0.2,0c0.2,0.2,0.2,0.5,0,0.7c-1.2,7.2-3.4,10.8-6.5,10.8
		S98,36.6,98,31.3c0-6.5,1.7-13.4,5.5-20.4c1-1.7,1.4-2.6,1.7-2.6l0,0c0,0.2-0.2,1.2-0.7,2.9c-2.4,7.4-3.6,12.5-3.6,15.6
		c0,3.8,1,6,3.1,6C105.6,32.8,107,31.1,108.7,28.2L108.7,28.2L108.7,28.2L108.7,28.2z"/>
	<path class="st0" d="M231.4,184.7c0,2.6-1.2,5.5-3.1,8.6c-2.2,3.1-4.8,6-8.2,8.4c-1.4,1-2.2,1.4-2.4,1.4V203c0-0.2,0.5-0.7,1.4-1.9
		c5.5-6,8.4-9.8,8.4-12c0-1.7-1-2.6-2.6-2.6c-1,0-1.9,0.2-2.6,0.7c-0.7,0.2-1,0.5-1.2,0.5c0,0-0.2,0-0.2-0.2c0,0,0-0.5,0.2-1.4
		c1-4.1,2.9-6,6.2-6C229.9,179.9,231.4,181.6,231.4,184.7L231.4,184.7L231.4,184.7L231.4,184.7z"/>
	<path class="st0" d="M460.3,113.4c1.2-1,2.2-1.4,2.9-1.4c0.5,0,0.7,0.5,0.7,1.4c0,0.7-0.2,2.2-0.7,4.1s-0.7,3.4-0.7,4.6
		c0,5.3,3.8,8.2,11.3,8.2c6,0,11-2.6,14.9-7.7c2.4-4.1,5-7.9,7.4-11.8c1-1,1.7-1.4,2.4-1.4c1,0,1.2,1,0.7,3.1c-1,4.1-1.7,6-1.7,5.5
		c0,1.7,1,3.4,2.9,4.8c1.7,1.4,4.1,2.4,6.7,2.4c3.4,0,5.5-1,6.5-2.6c0-0.2-1-2.2-3.1-5.8c0.2-1.9,1.2-5.3,2.6-9.8
		c0.2-1.4,0.7-2.2,1.2-2.2s1,0.2,1.7,1.2c1.9,2.9,3.1,6.2,3.1,10.1c0,6-1.4,11-4.1,15.4c-2.9,5.3-7.2,7.9-13,7.9
		c-3.8,0-7.4-3.1-10.6-8.9c-5.3,9.6-12.2,14.4-20.6,14.4c-10.1,0-14.9-5.8-14.9-16.8c-3.8,4.6-10.3,8.6-18.7,12.5v-13.2
		c6.2-3.1,10.3-5,11.5-5.8C452.6,119.7,456.5,116.8,460.3,113.4L460.3,113.4L460.3,113.4L460.3,113.4z"/>
	<path class="st0" d="M423.6,129.3c-3.6-4.6-6.7-6.7-9.6-6.7c-4.3,0-6.2,1-6.2,3.4c0,2.9,2.9,4.3,8.6,4.3
		C418.6,130.2,421,129.8,423.6,129.3L423.6,129.3L423.6,129.3L423.6,129.3z M431,146.8c0-1.4-0.5-3.1-1-4.8c-2.9,1-7.2,1.7-12.5,1.7
		c-11.5,0-17.3-4.1-17.3-12c0-6,1.7-11.3,5.5-16.1c3.6-4.1,7.4-6.2,11.5-6.2c3.1,0,6.2,1.9,9.8,5.5c3.1,3.6,6,7.7,8.4,12.7
		c0.2,0,0.7,0,1.7-0.5v13.2l-0.5,0.5c0,2.9-0.7,6.2-2.2,10.6c-1.7,5.5-4.3,10.1-7.4,13.7c-7.2,8.6-15.1,16.1-23.8,22.6
		c-13,9.6-24,14.6-33.6,14.6c-8.2,0-14.4-3.1-18.7-9.1c-3.8-5-5.8-11.8-5.8-19.7c0-10.1,2.2-20.4,6.2-31.2c1.2-2.4,1.7-3.4,2.2-3.4
		c0.2,0,0.2,0.2,0.2,0.7c0,0.7-0.2,1.9-0.5,3.4c-3.1,10.6-4.6,18.5-4.6,24c0,5,1.2,9.4,3.6,13c3.8,5,9.8,7.7,18.2,7.7
		c7.2,0,15.8-3.1,26.2-9.4c8.2-5,16.1-11,23.8-18.2C427.4,153.3,431,149,431,146.8L431,146.8L431,146.8L431,146.8z"/>
	<path class="st0" d="M365.5,110.3c-0.5-2.2-1.2-3.8-2.2-5c-0.7-1.4-1.2-2.2-1.4-2.6c0-0.5,0-2.2,0.5-5.5c0.5-3.1,0.7-5.3,1.2-6.5
		c0.2-1.2,0.5-1.7,1-1.7c0.2,0,0.5,0.2,1,0.7c3.4,3.8,7,7.7,11,11.8c1.7,1.7,2.4,2.6,2.4,3.1c0,0.2-0.2,0.5-0.7,0.5
		c-0.7,0-2.6-0.5-5.5-1.2c1.7,4.1,3.6,8.2,5.3,12c2.6,6.7,4.1,12.2,4.1,17.3c0,2.4-0.5,5.3-1.4,8.9c-1.2,4.1-2.6,7.2-4.6,9.4
		c-7,7.9-18.7,16.6-35.3,25.9c-14.4,8.4-22.8,12.5-25.4,12.5c-0.5,0-7.7,1.7-21.4,5c-14.4,3.4-23.5,5.5-27.1,6c-3.8,0.7-6.2,1-7.2,1
		c-0.5,0-0.5,0-0.5-0.2s2.6-1.7,7.9-4.1c1.9-1,13-5.8,33.4-14.4c14.2-6,25.9-11.5,35.3-16.6c14.2-7.7,25-14.4,32.4-19.9
		c5.5-4.3,8.4-7.4,8.4-9.4c0-0.5-1.4-3.8-4.3-10.1C369.1,120.2,366.7,114.4,365.5,110.3L365.5,110.3L365.5,110.3L365.5,110.3z"/>
	<path class="st0" d="M345.8,77c0,3.8-1.9,9.1-5.8,15.6c-2.4,4.1-6,9.6-10.8,16.8c4.8,5.5,8.2,10.6,9.8,14.9c1,3.1,1.7,7.2,1.7,11.8
		c0,1.9-0.5,4.3-1.4,7.4c-0.7,2.9-1.7,5-2.6,6.5c-1.9,2.9-5,5.8-9.8,8.6c-5,3.4-9.4,5-13,5c-5.8,0-8.6-4.3-8.6-13
		c0-5.8,1-11.5,2.9-16.8c1.9-4.6,5-10.6,10.1-18.5c-4.3-4.1-8.9-9.8-13.9-17c-0.5-0.7-1.7-1.9-3.6-3.8c-1-1-1.4-2.2-1.4-3.6
		c0-2.2,0.2-4.6,0.7-7.4c0.7-2.9,1.2-4.1,1.4-4.1c0.7,0,2.9,1.2,7,3.8c3.8,2.6,7,4.6,8.9,6.2c1.2,0.7,1.7,1.4,1.7,1.4V91
		c0,0.2-0.7,0.5-2.4,0.5c-3.1,0-4.8,0.2-4.8,0.5c0,0.2,0.5,0.7,1.4,1.9c3.8,4.8,7.7,8.4,11.8,11.3c1-1.4,4.3-6.2,9.6-14.4
		c4.6-7,7.2-11.8,8.4-14.6c1.2-2.9,1.9-4.1,2.4-4.1C345.6,72.2,345.8,73.6,345.8,77L345.8,77L345.8,77L345.8,77z M336.5,136
		c-2.6-5.3-7.2-10.8-13.4-16.1c-2.2,2.2-4.8,6.2-8.2,12c-3.8,6.5-5.5,10.6-5.5,12.7c0,2.9,1.9,4.3,6.2,4.3c1.9,0,4.3-0.7,7.4-1.9
		c4.3-1.9,8.4-4.6,11.8-7.9C336.2,137.7,336.7,136.7,336.5,136L336.5,136L336.5,136L336.5,136z"/>
	<path class="st0" d="M323,59l3.8-7.9c0.2-0.5,0.5-0.7,1-0.7s2.4,1.2,6.2,3.8c3.6,2.4,5.5,3.8,5.5,4.3c0,1.7-1.7,5.3-4.8,10.6
		c-0.5,0.7-1,0.7-1.4,0.5c-3.1-2.4-6.7-4.8-10.8-7.4c-1.4,2.9-2.6,5.5-4.1,7.7c-0.2,0.7-0.7,1-1.2,0.7c-3.6-2.9-7.4-5.5-11.3-7.9
		c-0.2-0.2-0.2-0.5,0-1l4.6-9.6c0.2-0.5,0.7-1,1-1c0.5,0,2.2,1.2,5.3,3.4C319.9,56.3,322.1,58,323,59L323,59L323,59L323,59z"/>
	<path class="st0" d="M449.5,192.9c-2.6,0.7-4.1,1.2-4.6,1.2v-0.2c0,0,1-0.7,2.9-1.9c1.9-1.2,4.8-3.1,8.9-6.2c1.9-1.9,4.8-5,8.4-9.4
		c2.4-2.9,5-5.5,7.9-7.4c3.6-2.6,7-3.8,10.6-3.8c0.7,0,1.9,0.2,3.4,0.7c1.2,0.5,2.4,0.7,3.4,0.7c1.9,0,3.4-0.7,4.6-2.2
		c0.7-1.4,1.7-2.6,2.6-4.1c0.5-1,1.2-1.4,1.7-1.4c0.2,0,0.2,0.2,0.2,0.7s-0.2,1.7-0.7,3.1c-0.5,0.7,1.4,1,5,1c0.5,0,0.7,0,0.7-0.2
		c0,0-0.2-1-0.7-2.6c-0.2-0.5,0-1.2,0.7-2.2c1-1.7,1.4-2.4,1.7-2.2c1,0.7,1.4,2.2,1.4,3.8s-0.5,3.4-1.2,5.3
		c-0.7,2.2-1.4,3.4-1.9,3.8c-1.7,1-4.3,0.7-7.9-1c-2.9,2.9-5.8,4.6-8.6,4.6c-0.7,0-1.9-0.2-3.1-0.7c-1.2-0.5-2.2-0.7-2.9-0.7
		c-4.8,0-9.8,2.2-14.9,7c-3.6,3.6-7.2,7.2-10.8,10.8C454.1,191,451.9,192.2,449.5,192.9L449.5,192.9L449.5,192.9L449.5,192.9z"/>
	<path class="st0" d="M397.9,63.3c2.9,0,5.3,1.4,7.4,4.8c2.2,3.1,3.8,7.4,4.6,12.7c0.2,0.5,0.2,0.7,0.2,1h0.2c0-0.2,0.2-0.5,0.2-1
		c0.5-3.1,1.7-7.9,3.4-14.2c1.9-4.3,3.8-6.5,6-6.5c1.2,0,2.4,0.7,3.4,2.2c1,1.4,1.4,2.4,1.4,3.4c0,0.5,0,1.4-0.5,2.4
		c-0.5,1.4-1,2.2-1.4,2.2c-0.2,0-0.7-0.7-1.7-1.7c-0.7-1-1.7-1.4-2.6-1.4c-1.9,0-3.6,4.6-5.3,13.7c-0.7,4.1-1.7,7-2.4,8.6
		c-0.7,1-1.2,1.7-1.7,1.7s-0.5-0.7-0.7-1.7c0.2-1.7-0.7-4.8-2.6-9.4c-1.9-4.8-3.1-7-4.1-7c-0.5,0-0.7,0-1,0.5
		c-0.2,0.2-0.5,0.5-1.2,0.5c-1,0-1.9-0.7-3.4-1.9c-1.4-1.2-1.9-2.2-1.9-2.9c0-0.2,0.5-1.4,1.7-3.4C397,64,397.7,63.3,397.9,63.3
		L397.9,63.3L397.9,63.3L397.9,63.3z"/>
	<path class="st0" d="M357.4,60.2c24.2-9.1,49.4-18.2,75.4-27.8c0.7-0.2,1.2-0.5,1.2-0.2c0.2,0,0.2,0.5,0,1.2
		c-1,2.2-1.7,3.4-2.2,3.8c-0.2,0.2-12.5,4.8-36.2,13.7C371.4,59.8,357.7,65.3,355,67C355.4,64.7,356.2,62.6,357.4,60.2L357.4,60.2
		L357.4,60.2L357.4,60.2z"/>
	<path class="st0" d="M333.8,16.2c0.5-1.4,0.5-2.9,0.2-4.3c-0.2-1.4-1-2.2-2.2-2.2c-0.5,0-1.2,0.2-2.2,0.7s-1.4,1-1.4,1.4
		C328.3,13.1,330.2,14.6,333.8,16.2L333.8,16.2L333.8,16.2L333.8,16.2z M331,22.5c-4.6-2.4-6.7-4.8-6.7-7.4c0-3.1,1.4-6,4.3-8.4
		c2.9-2.6,5.3-3.6,7.2-2.9c1.7,0.5,2.4,2.2,2.4,5c0,2.6-0.5,5.5-1.7,8.9c2.4,1.2,3.8,2.4,4.3,3.4c0,1.2-1,3.4-3.1,6.2
		c-0.5-1-1.9-2.2-4.1-3.4c-2.6,3.6-5.8,6.7-9.6,9.6c-4.6,3.1-8.6,5.8-12.2,7.2c-1,0.5-5.3,2.2-13,5c-1.2,0.5-2.2,0.7-2.4,0.7
		c-0.2,0-0.2-0.2-0.2-0.2c0-0.2,0.5-1,1.9-1.7c5.8-3.6,11.5-7,17.5-10.3C322.6,29.9,327.6,26.1,331,22.5L331,22.5L331,22.5L331,22.5
		z"/>
	<path class="st0" d="M482.6,52.5c0.5-1.4,0.5-2.9,0.2-4.3c-0.2-1.4-1-2.2-2.2-2.2c-0.5,0-1.2,0.2-2.2,0.7s-1.4,1-1.4,1.4
		C477.1,49.4,479,50.8,482.6,52.5L482.6,52.5L482.6,52.5L482.6,52.5z M487.9,61.4c-2.4,5.8-3.6,10.3-3.6,13.7c0,4.1,1,6.2,3.1,6.2
		c1.2,0,2.6-1.7,4.3-4.6c0.2-0.2,0.2-0.5,0.5-0.7c0,0,0.2,0,0.2,0.2c0,0,0,0.2,0,0.7c-1.4,7.2-3.6,10.8-6.5,10.8
		c-3.1,0-4.6-2.6-4.6-7.9c0-2.6,0.5-6,1.9-10.3s2.2-6.5,2.2-6.7c0-0.5-1-1.4-3.1-2.6c-3.8,5-9.1,9.8-15.8,13.9
		c-4.6,2.6-9.1,5-13.9,7c-8.9,3.6-14.2,5.5-15.4,6.2c-1.2,0.5-1.9,0.7-2.4,0.7c-0.2,0-0.2-0.2-0.2-0.2c0-0.5,0.5-1,1.9-1.9
		c7.7-4.3,15.1-8.6,22.8-13c10.1-5.8,17-10.6,20.4-14.2c-4.6-2.4-6.7-4.8-6.7-7.4c0-3.1,1.4-6,4.3-8.6c2.9-2.4,5.3-3.4,7.2-2.6
		c1.4,0.5,2.4,2.2,2.4,5c0,2.6-0.5,5.5-1.7,8.6c2.4,1.4,3.4,2.9,3.4,4.3C488.6,58.7,488.4,59.9,487.9,61.4L487.9,61.4L487.9,61.4
		L487.9,61.4z"/>
	<path class="st0" d="M378.7,26.6c0-0.2,0.2-0.5,0.2-0.5c0.2-0.2,0.2-0.2,0.2,0c0.2,0.2,0.2,0.5,0,0.7c-1.2,7.2-3.4,10.8-6.5,10.8
		S368,35,368,29.7c0-6.5,1.7-13.4,5.5-20.4c1-1.7,1.4-2.6,1.7-2.6l0,0c0,0.2-0.2,1.2-0.7,2.9c-2.4,7.4-3.6,12.5-3.6,15.6
		c0,3.8,1,6,3.1,6C375.6,31.1,377,29.4,378.7,26.6L378.7,26.6L378.7,26.6L378.7,26.6z"/>
</g>
</svg>
