<?xml version="1.0" encoding="utf-8"?>
<!-- Generator: Adobe Illustrator 24.0.0, SVG Export Plug-In . SVG Version: 6.00 Build 0)  -->
<svg version="1.1" id="Layer_1" xmlns="http://www.w3.org/2000/svg" xmlns:xlink="http://www.w3.org/1999/xlink" x="0px" y="0px"
	 viewBox="0 0 587 213.7" style="enable-background:new 0 0 587 213.7;" xml:space="preserve">
<style type="text/css">
	.st0{fill:#C4692C;}
</style>
<g>
	<path class="st0" d="M345.1,28.6c0-4.8-0.7-8.6-2.2-11.8c0-1.9,1.2-6,4.1-12c0.5-1.4,1.2-1.4,1.9,0c0.7,1.7,2.4,6.2,5.3,13.7
		c3.1,7.9,4.8,12.7,5.3,14.6c0.5,1.2,0.7,2.4,0.7,2.9c0,2.2-2.2,1-6.2-3.8c-0.5-0.7-0.7-0.2-0.7,1c0,0.5,1.2,17,3.8,49.7
		c2.6,32.6,4.1,50.9,4.1,54.7c0,11.3-1.9,21.4-5.5,30c-0.7,1.7-1.2,2.9-1.7,3.8l0,0c-0.7,1-1.2,1.2-1.2,0.5c-0.2-1-0.2-2.6,0.2-5.5
		c0.5-4.1,0.7-8.4,0.7-13.7c0-4.6-1.4-25.4-4.3-62.4C346.5,53.1,345.1,32.7,345.1,28.6L345.1,28.6L345.1,28.6L345.1,28.6z"/>
	<path class="st0" d="M309.6,142.3c-3.1-12-5.8-33.4-7.9-63.8c-1.4-18.5-2.2-35-2.2-49.4c0-4.6-0.7-8.4-2.2-11.5
		c0-1.7,1.2-5.8,4.1-12.2c0.2-0.7,0.7-1,1-1c0.2,0,0.5,0.2,1,1.2c0.7,1.7,2.6,6.2,5.5,13.7c2.9,7.9,4.6,12.7,5,14.2
		c0.5,1.7,0.7,2.9,0.7,3.4c0,2.2-2.2,1-6.2-3.8c-0.5-0.7-0.7-0.2-0.7,1c0,6.2,0.7,21.6,2.2,45.6c1.7,31,4.3,50.9,7.4,59.8
		c0,0.5-1,1.2-2.9,2.2s-3.4,1.4-4.3,1.4C309.8,142.8,309.6,142.6,309.6,142.3L309.6,142.3L309.6,142.3L309.6,142.3z"/>
	<path class="st0" d="M333.8,157c1.9,0,2.9-0.5,2.9-1.7c0-1.4-1.4-2.6-4.1-3.8c-2.2-1-5.5-1-9.6,0C325.2,155.1,328.8,157,333.8,157
		L333.8,157L333.8,157L333.8,157z M309.3,142.3c0.5-0.5,2.9-1.7,6.7-3.1c5.8-1.9,10.6-3.1,14.9-3.1c4.1,0,7.4,1.9,9.8,5.3
		c2.4,3.6,3.6,8.2,3.6,13.9c0,4.6-1,8.6-3.1,11.8c-1.9,2.9-4.8,4.6-8.2,4.6c-4.3,0-8.6-2.2-12.7-6c-3.4-3.4-6-7.2-7.9-11.5h9.4
		L309.3,142.3L309.3,142.3L309.3,142.3z"/>
	<path class="st0" d="M243.8,213.4c-4.8,0-9.1-2.2-12.7-6.5c-3.8-4.6-5.5-10.1-5.5-16.8c0-8.9,3.6-20.6,11-35.3
		c0.7-1.4,1.4-2.2,1.9-2.2c0,0,0.2,0.2,0.2,0.5c0,1.4-1.7,6.7-4.8,15.4c-3.4,8.6-5,15.4-5,20.4c0,3.8,1,7,2.9,9.4s4.6,3.6,7.9,3.6
		c5.3,0,11.8-3.8,19.4-12c6.5-7.4,13-15.1,19.4-22.6c16.3-18.7,30.7-28.1,43.2-28.1v14.6c-10.6,0-22.3,7-35.8,20.4
		c-4.1,4.3-9.4,10.6-16.1,18.7c-5.8,7.2-10.1,12-13,14.4C252.5,211.5,248.1,213.4,243.8,213.4L243.8,213.4L243.8,213.4L243.8,213.4z
		"/>
	<path class="st0" d="M241.7,161.5c-6.2,0-10.6-1.9-13.2-5.8c-1.4-2.4-2.4-6-2.6-10.6c0-0.5-0.2-0.7-0.7-1c-0.7,0.2-1.4,0.5-2.2,1.4
		c-5,5.8-8.2,9.1-9.6,10.3c-6.2,5.5-12.7,8.2-19.4,8.2v-14.6c7.2,0,13.4-1.9,18.7-5.8c2.2-1.4,7-6,14.6-13.7c1-1,1.7-1.2,2.6-1.4
		c1.2,0.2,1.7,1,1.2,2.6c-0.7,1.9-1,3.6-1,5c0,3.4,1.4,6,4.1,7.9c2.6,1.7,6.2,2.6,10.3,2.6c6,0,11-2.6,15.1-7.7
		c2.4-3.8,5-7.7,7.4-11.5c1-1,1.7-1.4,2.2-1.4c0.7,0,1,0.5,1,1.4c0,0.5,0,1-0.2,1.7c-1,4.1-1.4,6-1.4,5.5c0,1.7,1.2,3.6,3.1,5
		c2.2,1.9,4.6,2.9,7.2,2.9c3.4,0,5.5-1,6.5-2.6c0-0.5-0.5-1-1.4-1.9c-1-0.7-1.4-1.4-1.4-1.9s1.2-4.1,3.1-10.3
		c0.5-1.2,0.7-1.7,1.2-1.7c1,0,1.9,1.4,2.9,4.1c0.7,2.2,1,3.8,1,5c0,6.2-1.2,11.3-3.6,15.6c-2.9,5.3-7.2,7.7-13.2,7.7
		c-4.1,0-7.9-3.1-11.5-9.4C257.3,156.7,250.3,161.5,241.7,161.5L241.7,161.5L241.7,161.5L241.7,161.5z"/>
	<path class="st0" d="M162.9,138.5c-1,9.1-1.7,13.7-2.2,13.7s-1.2-3.8-2.2-11.3c-1.9-12-10.8-25.7-26.6-41
		c-19.7-18.5-33.8-33.4-43-44.4c-2.4-3.4-5.5-7.7-9.4-13.4c-1.2-1.9-2.6-3.1-4.1-3.8c-0.7-0.5-1-1.4-1-2.4v-9.8c0-1.9,0.2-2.9,1-2.9
		c0.5,0,1.4,0.5,2.6,1.4l18.5,14.2c1.4,1.2,2.2,1.9,2.2,2.4s-0.5,0.7-1.7,0.7c-1.4,0-4.1-0.5-7.7-1.2c3.1,4.1,10.3,12.2,22.1,24
		c8.6,8.6,17,17,25.7,25.4c17.3,17.5,25.9,32.6,25.9,45.1C163.2,136.3,163.2,137.3,162.9,138.5L162.9,138.5L162.9,138.5L162.9,138.5
		z M167.5,49.2c-0.7-6.5-1.9-16.1-4.1-28.3c1.2-7,1.9-11.3,2.4-12.7c0.5-1,1-1.4,1.2-1.4s0.5,0.5,1,1.4c3.4,10.6,5.8,23.8,7.7,39.8
		c1.4,10.6,2.4,27.4,3.1,49.9c0.5,20.4,1.2,33.1,2.2,37.9c1.2,5.8,3.1,9.4,5.5,11.5c1.7,1.4,4.3,2.2,7.4,2.2v14.6
		c-7.2,0-12.5-2.9-15.8-8.6c-2.2-3.6-3.6-9.6-4.3-18c-2.6,13.2-5.5,21.8-7.9,25.4c-5.8,8.2-12.5,14.2-19.9,17.5
		c-3.1,1.2-8.2,2.9-15.1,4.8c-7.2,1.7-12.5,2.9-15.8,3.4c-1.2,0-1.9-0.2-1.9-0.5c0-0.5,0.5-1,1.9-1.9c6.5-3.6,17.3-10.1,31.7-19
		c16.6-10.8,24.7-26.4,24.7-47.3C171.3,92.9,170.1,69.4,167.5,49.2L167.5,49.2L167.5,49.2L167.5,49.2z"/>
	<path class="st0" d="M46.1,164.7c15.8,0,33.6-3.4,54-9.6c16.3-5.3,26.9-9.6,31.7-13.2c0.5-0.2,0.5-0.7,0.5-1.4
		c0-1.9-2.9-7-9.1-14.6c-1.2-1.4-1.7-3.1-1.2-4.8c0.7-3.4,1.7-6.2,2.9-8.6c0.7-1.7,1.4-2.6,1.9-2.6c0.2,0,1.2,0.7,2.4,2.2
		c1.7,1.7,3.4,4.3,5,8.2c2.6,4.6,3.8,8.6,3.8,12c0,11.3-3.6,19.7-11,24.7c-4.8,3.6-15.6,7.9-32.2,13c-20.9,6.5-38.9,9.6-54.7,9.6
		c-15.4,0-26.2-4.1-33.1-12.2c-4.8-5.5-7-12.7-7-21.4c0-9.1,2.2-17.5,6.5-25.4c1.4-2.4,2.4-3.8,2.9-3.8c0,0,0.2,0.2,0.2,0.7
		c0,0.7-0.5,2.2-1.2,4.3c-1,2.9-2.2,5.5-3.1,8.4c-1.2,3.6-1.7,7.4-1.7,11.5c0,5.3,2.4,9.8,7.7,13.9
		C18.7,161.5,30.2,164.7,46.1,164.7L46.1,164.7L46.1,164.7L46.1,164.7z"/>
	<path class="st0" d="M68.9,90.5l3.8-7.9c0.2-0.5,0.5-0.7,1-0.7s2.4,1.2,6.2,3.8c3.6,2.4,5.5,3.8,5.5,4.3c0,1.7-1.7,5.3-4.8,10.6
		c-0.5,0.7-1,0.7-1.4,0.5c-3.1-2.4-6.7-4.8-10.8-7.4c-1.4,2.9-2.6,5.5-4.1,7.7c-0.2,0.7-0.7,1-1.2,0.7c-3.6-2.9-7.4-5.5-11.3-7.9
		c-0.2-0.2-0.2-0.5,0-1l4.6-9.6c0.2-0.5,0.7-1,1-1c0.5,0,2.2,1.2,5.3,3.4C65.7,87.9,67.9,89.5,68.9,90.5L68.9,90.5L68.9,90.5
		L68.9,90.5z"/>
	<path class="st0" d="M16.8,107.8c0-0.2,0.2-0.5,0.2-0.5c0.2-0.2,0.2-0.2,0.2,0c0.2,0.2,0.2,0.5,0,0.7c-1.2,7.2-3.4,10.8-6.5,10.8
		s-4.6-2.6-4.6-7.9c0-6.5,1.7-13.4,5.5-20.4c1-1.7,1.4-2.6,1.7-2.6l0,0c0,0.2-0.2,1.2-0.7,2.9C10.2,98.2,9,103.3,9,106.4
		c0,3.8,1,6,3.1,6C13.7,112.3,15.1,110.7,16.8,107.8L16.8,107.8L16.8,107.8L16.8,107.8z"/>
	<path class="st0" d="M194.6,53.1c0.5-3.4,1.7-7.2,3.6-12c1.4-3.6,2.2-7.2,2.2-10.8c0-7-3.4-13.4-9.8-19.9c-0.5-0.5-0.5-1,0-1.4
		l2.2-3.8c0.2-0.5,0.5-0.5,1,0c6.2,5,9.6,12.5,9.6,22.3c0,4.6-1.2,9.6-3.1,14.6c-2.2,5.3-3.1,8.9-3.1,10.8c0,4.1,1,6.2,3.1,6.2
		c1.4,0,2.9-1.7,4.6-4.6c0-0.2,0.2-0.5,0.2-0.5c0.2-0.2,0.2-0.2,0.2,0c0,0,0,0.5,0,0.7c-1.2,7.2-3.4,10.8-6.5,10.8
		c-2.9,0-4.6-3.1-4.6-8.9C194.1,55.5,194.4,54.3,194.6,53.1L194.6,53.1L194.6,53.1L194.6,53.1z"/>
	<path class="st0" d="M159.8,209.1c-2.6,0.7-4.1,1.2-4.6,1.2v-0.2c0,0,1-0.7,2.9-1.9c1.9-1.2,4.8-3.1,8.9-6.2c1.9-1.9,4.8-5,8.4-9.4
		c2.4-2.9,5-5.5,7.9-7.4c3.6-2.6,7-3.8,10.6-3.8c0.7,0,1.9,0.2,3.4,0.7c1.2,0.5,2.4,0.7,3.4,0.7c1.9,0,3.4-0.7,4.6-2.2
		c0.7-1.4,1.7-2.6,2.6-4.1c0.5-1,1.2-1.4,1.7-1.4c0.2,0,0.2,0.2,0.2,0.7s-0.2,1.7-0.7,3.1c-0.5,0.7,1.4,1,5,1c0.5,0,0.7,0,0.7-0.2
		c0,0-0.2-1-0.7-2.6c-0.2-0.5,0-1.2,0.7-2.2c1-1.7,1.4-2.4,1.7-2.2c1,0.7,1.4,2.2,1.4,3.8c0,1.7-0.5,3.4-1.2,5.3
		c-0.7,2.2-1.4,3.4-1.9,3.8c-1.7,1-4.3,0.7-7.9-1c-2.9,2.9-5.8,4.6-8.6,4.6c-0.7,0-1.9-0.2-3.1-0.7s-2.2-0.7-2.9-0.7
		c-4.8,0-9.8,2.2-14.9,7c-3.6,3.6-7.2,7.2-10.8,10.8C164.4,207.1,162.2,208.3,159.8,209.1L159.8,209.1L159.8,209.1L159.8,209.1z"/>
	<path class="st0" d="M237.1,0c1.7,0,3.6,1,6.2,3.1c2.6,1.9,4.1,3.8,4.3,5.3c0.2,0.5-0.2,1.4-1,3.1c-0.7,1.7-1.2,2.4-1.4,2.4
		c-2.4,0.7-4.8,1.4-7.2,2.2c-3.1,1-5,2.2-6.2,3.4c3.4,10.1,5,19.9,5,29.8c0,2.9-0.5,5.8-1,8.9c-0.2,1-0.5,1.4-0.7,1.7
		c-0.2,0-0.2-1.9-0.2-5.3c0-5.5-1-12.5-2.6-20.4c-1.7-7.9-2.4-12.7-2.4-13.7c0-4.1,1-7,3.4-8.9c1-0.7,3.1-1.7,6-2.6
		c-1.2-1.2-2.4-1.7-3.6-1.7c-0.5,0-1.2,0.5-2.2,1.7c-1,1.4-1.7,1.9-1.7,1.9c-0.2,0-0.5-0.5-0.2-1.4C232.3,3.1,234.2,0,237.1,0
		L237.1,0L237.1,0L237.1,0z"/>
	<path class="st0" d="M275.5,25.5c0-1.2-2.4-3.4-7.4-6.2c-1.7,2.9-2.4,5.5-2.4,7.9c0,1.4,0.7,2.4,2.2,2.4c1.2,0,2.6-0.5,4.3-1.4
		C273.8,27.4,275,26.4,275.5,25.5L275.5,25.5L275.5,25.5L275.5,25.5z M270.2,6.3c0.7-1.2,1.7-1.7,2.4-1.7c0.5,0,1,0.2,1,0.7
		c0,0-0.2,0.2-0.2,0.5c-1,2.2-1.9,4.6-2.6,7c5,3.6,7.4,7.4,7.2,11c-0.5,4.1-1,6.7-1.7,7.7c-2.4,2.9-5,4.6-8.4,4.6s-4.8-2.2-4.8-6
		c0-0.7,0-1.7,0.2-2.6C264.5,19.7,266.9,12.7,270.2,6.3L270.2,6.3L270.2,6.3L270.2,6.3z"/>
	<path class="st0" d="M328.3,71.3c0.5-1.4,0.5-2.9,0.2-4.3c-0.2-1.4-1-2.2-2.2-2.2c-0.5,0-1.2,0.2-2.2,0.7s-1.4,1-1.4,1.4
		C322.8,68.2,324.7,69.6,328.3,71.3L328.3,71.3L328.3,71.3L328.3,71.3z M325.4,77.5c-4.6-2.4-6.7-4.8-6.7-7.4c0-3.1,1.4-6,4.3-8.4
		c2.9-2.6,5.3-3.6,7.2-2.9c1.7,0.5,2.4,2.2,2.4,5c0,2.6-0.5,5.5-1.7,8.9c2.4,1.2,3.8,2.4,4.3,3.4c0,1.2-1,3.4-3.1,6.2
		c-0.5-1-1.9-2.2-4.1-3.4c-2.6,3.6-5.8,6.7-9.6,9.6c-4.6,3.1-8.6,5.8-12.2,7.2c-1,0.5-5.3,2.2-13,5c-1.2,0.5-2.2,0.7-2.4,0.7
		c-0.2,0-0.2-0.2-0.2-0.2c0-0.2,0.5-1,1.9-1.7c5.8-3.6,11.5-7,17.5-10.3C317,85,322.1,81.1,325.4,77.5L325.4,77.5L325.4,77.5
		L325.4,77.5z"/>
	<path class="st0" d="M277.9,103.7c0-1.2-2.4-3.4-7.4-6.2c-1.7,2.9-2.4,5.5-2.4,7.9c0,1.4,0.7,2.4,2.2,2.4c1.2,0,2.6-0.5,4.3-1.4
		C276.2,105.6,277.4,104.7,277.9,103.7L277.9,103.7L277.9,103.7L277.9,103.7z M272.6,84.5c0.7-1.2,1.7-1.7,2.4-1.7
		c0.5,0,1,0.2,1,0.7c0,0-0.2,0.2-0.2,0.5c-1,2.2-1.9,4.6-2.6,7c5,3.6,7.4,7.4,7.2,11c-0.5,4.1-1,6.7-1.7,7.7c-2.4,2.9-5,4.6-8.4,4.6
		s-4.8-2.2-4.8-6c0-0.7,0-1.7,0.2-2.6C266.9,97.9,269.3,91,272.6,84.5L272.6,84.5L272.6,84.5L272.6,84.5z"/>
	<path class="st0" d="M205.4,82.1c24.2-9.1,49.4-18.2,75.4-27.8c0.7-0.2,1.2-0.5,1.2-0.2c0.2,0,0.2,0.5,0,1.2
		c-1,2.2-1.7,3.4-2.2,3.8c-0.2,0.2-12.5,4.8-36.2,13.7c-24.2,8.9-37.9,14.4-40.6,16.1C203.5,86.7,204.2,84.5,205.4,82.1L205.4,82.1
		L205.4,82.1L205.4,82.1z"/>
	<path class="st0" d="M292.8,185.5c2.9,0,5.3,1.4,7.4,4.8c2.2,3.1,3.8,7.4,4.6,12.7c0.2,0.5,0.2,0.7,0.2,1h0.2c0-0.2,0.2-0.5,0.2-1
		c0.5-3.1,1.7-7.9,3.4-14.2c1.9-4.3,3.8-6.5,6-6.5c1.2,0,2.4,0.7,3.4,2.2c1,1.4,1.4,2.4,1.4,3.4c0,0.5,0,1.4-0.5,2.4
		c-0.5,1.4-1,2.2-1.4,2.2c-0.2,0-0.7-0.7-1.7-1.7c-0.7-1-1.7-1.4-2.6-1.4c-1.9,0-3.6,4.6-5.3,13.7c-0.7,4.1-1.7,7-2.4,8.6
		c-0.7,1-1.2,1.7-1.7,1.7s-0.5-0.7-0.7-1.7c0.2-1.7-0.7-4.8-2.6-9.4c-1.9-4.8-3.1-7-4.1-7c-0.5,0-0.7,0-1,0.5
		c-0.2,0.2-0.5,0.5-1.2,0.5c-1,0-1.9-0.7-3.4-1.9c-1.4-1.2-1.9-2.2-1.9-2.9c0-0.2,0.5-1.4,1.7-3.4
		C291.8,186.3,292.5,185.5,292.8,185.5L292.8,185.5L292.8,185.5L292.8,185.5z"/>
	<path class="st0" d="M208.1,117.4c0-0.2,0.2-0.5,0.2-0.5c0.2-0.2,0.2-0.2,0.2,0c0.2,0.2,0.2,0.5,0,0.7c-1.2,7.2-3.4,10.8-6.5,10.8
		s-4.6-2.6-4.6-7.9c0-6.5,1.7-13.4,5.5-20.4c1-1.7,1.4-2.6,1.7-2.6l0,0c0,0.2-0.2,1.2-0.7,2.9c-2.4,7.4-3.6,12.5-3.6,15.6
		c0,3.8,1,6,3.1,6C204.9,121.9,206.4,120.3,208.1,117.4L208.1,117.4L208.1,117.4L208.1,117.4z"/>
	<path class="st0" d="M250.8,98.2c0,2.6-1.2,5.5-3.1,8.6c-2.2,3.1-4.8,6-8.2,8.4c-1.4,1-2.2,1.4-2.4,1.4v-0.2c0-0.2,0.5-0.7,1.4-1.9
		c5.5-6,8.4-9.8,8.4-12c0-1.7-1-2.6-2.6-2.6c-1,0-1.9,0.2-2.6,0.7c-0.7,0.2-1,0.5-1.2,0.5c0,0-0.2,0-0.2-0.2c0,0,0-0.5,0.2-1.4
		c1-4.1,2.9-6,6.2-6C249.3,93.4,250.8,95.1,250.8,98.2L250.8,98.2L250.8,98.2L250.8,98.2z"/>
	<path class="st0" d="M114.5,34.1c9.6-3.4,19.9-7.2,31-11c1-0.2,1.2-0.5,1.4-0.2c0.2,0,0.2,0.5-0.2,1.2c-0.7,2.2-1.4,3.4-1.9,3.8
		c-9.6,3.4-20.4,7.4-32.6,13C112.5,38.7,113.3,36.5,114.5,34.1L114.5,34.1L114.5,34.1L114.5,34.1z"/>
	<path class="st0" d="M66,204.3c9.6-3.4,19.9-7.2,31-11c1-0.2,1.2-0.5,1.4-0.2c0.2,0,0.2,0.5-0.2,1.2c-0.7,2.2-1.4,3.4-1.9,3.8
		c-9.6,3.4-20.4,7.4-32.6,13C64.1,208.8,64.8,206.7,66,204.3L66,204.3L66,204.3L66,204.3z"/>
	<path class="st0" d="M142.3,195.1c0,2.6-1.2,5.5-3.1,8.6c-2.2,3.1-4.8,6-8.2,8.4c-1.4,1-2.2,1.4-2.4,1.4v-0.2
		c0-0.2,0.5-0.7,1.4-1.9c5.5-6,8.4-9.8,8.4-12c0-1.7-1-2.6-2.6-2.6c-1,0-1.9,0.2-2.6,0.7c-0.7,0.2-1,0.5-1.2,0.5c0,0-0.2,0-0.2-0.2
		c0,0,0-0.5,0.2-1.4c1-4.1,2.9-6,6.2-6C140.9,190.3,142.3,192,142.3,195.1L142.3,195.1L142.3,195.1L142.3,195.1z"/>
	<path class="st0" d="M148.1,64.1c0-0.2,0.2-0.5,0.2-0.5c0.2-0.2,0.2-0.2,0.2,0c0.2,0.2,0.2,0.5,0,0.7c-1.2,7.2-3.4,10.8-6.5,10.8
		s-4.6-2.6-4.6-7.9c0-6.5,1.7-13.4,5.5-20.4c1-1.7,1.4-2.6,1.7-2.6l0,0c0,0.2-0.2,1.2-0.7,2.9c-2.4,7.4-3.6,12.5-3.6,15.6
		c0,3.8,1,6,3.1,6C144.9,68.7,146.4,67,148.1,64.1L148.1,64.1L148.1,64.1L148.1,64.1z"/>
	<path class="st0" d="M42,120c2.9,0,5.3,1.4,7.4,4.8c2.2,3.1,3.8,7.4,4.6,12.7c0.2,0.5,0.2,0.7,0.2,1h0.2c0-0.2,0.2-0.5,0.2-1
		c0.5-3.1,1.7-7.9,3.4-14.2c1.9-4.3,3.8-6.5,6-6.5c1.2,0,2.4,0.7,3.4,2.2c1,1.4,1.4,2.4,1.4,3.4c0,0.5,0,1.4-0.5,2.4
		c-0.5,1.4-1,2.2-1.4,2.2c-0.2,0-0.7-0.7-1.7-1.7c-0.7-1-1.7-1.4-2.6-1.4c-1.9,0-3.6,4.6-5.3,13.7c-0.7,4.1-1.7,7-2.4,8.6
		c-0.7,1-1.2,1.7-1.7,1.7s-0.5-0.7-0.7-1.7c0.2-1.7-0.7-4.8-2.6-9.4c-1.9-4.8-3.1-7-4.1-7c-0.5,0-0.7,0-1,0.5
		c-0.2,0.2-0.5,0.5-1.2,0.5c-1,0-1.9-0.7-3.4-1.9c-1.4-1.2-1.9-2.2-1.9-2.9c0-0.2,0.5-1.4,1.7-3.4C41,120.7,41.7,120,42,120L42,120
		L42,120L42,120z"/>
	<path class="st0" d="M104.6,130.1c0-0.2,0.2-0.5,0.2-0.5c0.2-0.2,0.2-0.2,0.2,0c0.2,0.2,0.2,0.5,0,0.7c-1.2,7.2-3.4,10.8-6.5,10.8
		s-4.6-2.6-4.6-7.9c0-6.5,1.7-13.4,5.5-20.4c1-1.7,1.4-2.6,1.7-2.6l0,0c0,0.2-0.2,1.2-0.7,2.9c-2.4,7.4-3.6,12.5-3.6,15.6
		c0,3.8,1,6,3.1,6C101.5,134.7,102.9,133,104.6,130.1L104.6,130.1L104.6,130.1L104.6,130.1z"/>
	<path class="st0" d="M52.1,50.9c0,2.6-1.2,5.5-3.1,8.6c-2.2,3.1-4.8,6-8.2,8.4c-1.4,1-2.2,1.4-2.4,1.4v-0.2c0-0.2,0.5-0.7,1.4-1.9
		c5.5-6,8.4-9.8,8.4-12c0-1.7-1-2.6-2.6-2.6c-1,0-1.9,0.2-2.6,0.7c-0.7,0.2-1,0.5-1.2,0.5c0,0-0.2,0-0.2-0.2c0,0,0-0.5,0.2-1.4
		c1-4.1,2.9-6,6.2-6C50.6,46.1,52.1,47.8,52.1,50.9L52.1,50.9L52.1,50.9L52.1,50.9z"/>
	<path class="st0" d="M528.2,124.8c1.2-1,2.2-1.4,2.9-1.4c0.5,0,0.7,0.5,0.7,1.4c0,0.7-0.2,2.2-0.7,4.1s-0.7,3.4-0.7,4.6
		c0,5.3,3.8,8.2,11.3,8.2c6,0,11-2.6,14.9-7.7c2.4-4.1,5-7.9,7.4-11.8c1-1,1.7-1.4,2.4-1.4c1,0,1.2,1,0.7,3.1c-1,4.1-1.7,6-1.7,5.5
		c0,1.7,1,3.4,2.9,4.8c1.7,1.4,4.1,2.4,6.7,2.4c3.4,0,5.5-1,6.5-2.6c0-0.2-1-2.2-3.1-5.8c0.2-1.9,1.2-5.3,2.6-9.8
		c0.2-1.4,0.7-2.2,1.2-2.2s1,0.2,1.7,1.2c1.9,2.9,3.1,6.2,3.1,10.1c0,6-1.4,11-4.1,15.4c-2.9,5.3-7.2,7.9-13,7.9
		c-3.8,0-7.4-3.1-10.6-8.9c-5.3,9.6-12.2,14.4-20.6,14.4c-10.1,0-14.9-5.8-14.9-16.8c-3.8,4.6-10.3,8.6-18.7,12.5v-13.2
		c6.2-3.1,10.3-5,11.5-5.8C520.5,131.1,524.4,128.2,528.2,124.8L528.2,124.8L528.2,124.8L528.2,124.8z"/>
	<path class="st0" d="M491.5,140.7c-3.6-4.6-6.7-6.7-9.6-6.7c-4.3,0-6.2,1-6.2,3.4c0,2.9,2.9,4.3,8.6,4.3
		C486.5,141.6,488.9,141.1,491.5,140.7L491.5,140.7L491.5,140.7L491.5,140.7z M498.9,158.2c0-1.4-0.5-3.1-1-4.8
		c-2.9,1-7.2,1.7-12.5,1.7c-11.5,0-17.3-4.1-17.3-12c0-6,1.7-11.3,5.5-16.1c3.6-4.1,7.4-6.2,11.5-6.2c3.1,0,6.2,1.9,9.8,5.5
		c3.1,3.6,6,7.7,8.4,12.7c0.2,0,0.7,0,1.7-0.5v13.2l-0.5,0.5c0,2.9-0.7,6.2-2.2,10.6c-1.7,5.5-4.3,10.1-7.4,13.7
		c-7.2,8.6-15.1,16.1-23.8,22.6c-13,9.6-24,14.6-33.6,14.6c-8.2,0-14.4-3.1-18.7-9.1c-3.8-5-5.8-11.8-5.8-19.7
		c0-10.1,2.2-20.4,6.2-31.2c1.2-2.4,1.7-3.4,2.2-3.4c0.2,0,0.2,0.2,0.2,0.7c0,0.7-0.2,1.9-0.5,3.4c-3.1,10.6-4.6,18.5-4.6,24
		c0,5,1.2,9.4,3.6,13c3.8,5,9.8,7.7,18.2,7.7c7.2,0,15.8-3.1,26.2-9.4c8.2-5,16.1-11,23.8-18.2C495.3,164.7,498.9,160.3,498.9,158.2
		L498.9,158.2L498.9,158.2L498.9,158.2z"/>
	<path class="st0" d="M433.4,121.9c-0.5-2.2-1.2-3.8-2.2-5c-0.7-1.4-1.2-2.2-1.4-2.6c0-0.5,0-2.2,0.5-5.5c0.5-3.1,0.7-5.3,1.2-6.5
		c0.2-1.2,0.5-1.7,1-1.7c0.2,0,0.5,0.2,1,0.7c3.4,3.8,7,7.7,11,11.8c1.7,1.7,2.4,2.6,2.4,3.1c0,0.2-0.2,0.5-0.7,0.5
		c-0.7,0-2.6-0.5-5.5-1.2c1.7,4.1,3.6,8.2,5.3,12c2.6,6.7,4.1,12.2,4.1,17.3c0,2.4-0.5,5.3-1.4,8.9c-1.2,4.1-2.6,7.2-4.6,9.4
		c-7,7.9-18.7,16.6-35.3,25.9c-14.4,8.4-22.8,12.5-25.4,12.5c-0.5,0-7.7,1.7-21.4,5c-14.4,3.4-23.5,5.5-27.1,6c-3.8,0.7-6.2,1-7.2,1
		c-0.5,0-0.5,0-0.5-0.2s2.6-1.7,7.9-4.1c1.9-1,13-5.8,33.4-14.4c14.2-6,25.9-11.5,35.3-16.6c14.2-7.7,25-14.4,32.4-19.9
		c5.5-4.3,8.4-7.4,8.4-9.4c0-0.5-1.4-3.8-4.3-10.1C437,131.8,434.6,126,433.4,121.9L433.4,121.9L433.4,121.9L433.4,121.9z"/>
	<path class="st0" d="M413.7,88.6c0,3.8-1.9,9.1-5.8,15.6c-2.4,4.1-6,9.6-10.8,16.8c4.8,5.5,8.2,10.6,9.8,14.9
		c1,3.1,1.7,7.2,1.7,11.8c0,1.9-0.5,4.3-1.4,7.4c-0.7,2.9-1.7,5-2.6,6.5c-1.9,2.9-5,5.8-9.8,8.6c-5,3.4-9.4,5-13,5
		c-5.8,0-8.6-4.3-8.6-13c0-5.8,1-11.5,2.9-16.8c1.9-4.6,5-10.6,10.1-18.5c-4.3-4.1-8.9-9.8-13.9-17c-0.5-0.7-1.7-1.9-3.6-3.8
		c-1-1-1.4-2.2-1.4-3.6c0-2.2,0.2-4.6,0.7-7.4c0.7-2.9,1.2-4.1,1.4-4.1c0.7,0,2.9,1.2,7,3.8c3.8,2.6,7,4.6,8.9,6.2
		c1.2,0.7,1.7,1.4,1.7,1.4v0.2c0,0.2-0.7,0.5-2.4,0.5c-3.1,0-4.8,0.2-4.8,0.5c0,0.2,0.5,0.7,1.4,1.9c3.8,4.8,7.7,8.4,11.8,11.3
		c1-1.4,4.3-6.2,9.6-14.4c4.6-7,7.2-11.8,8.4-14.6c1.2-2.9,1.9-4.1,2.4-4.1C413.5,83.8,413.7,85.2,413.7,88.6L413.7,88.6L413.7,88.6
		L413.7,88.6z M404.4,147.6c-2.6-5.3-7.2-10.8-13.4-16.1c-2.2,2.2-4.8,6.2-8.2,12c-3.8,6.5-5.5,10.6-5.5,12.7c0,2.9,1.9,4.3,6.2,4.3
		c1.9,0,4.3-0.7,7.4-1.9c4.3-1.9,8.4-4.6,11.8-7.9C404.1,149.3,404.6,148.3,404.4,147.6L404.4,147.6L404.4,147.6L404.4,147.6z"/>
	<path class="st0" d="M390.9,70.6l3.8-7.9c0.2-0.5,0.5-0.7,1-0.7s2.4,1.2,6.2,3.8c3.6,2.4,5.5,3.8,5.5,4.3c0,1.7-1.7,5.3-4.8,10.6
		c-0.5,0.7-1,0.7-1.4,0.5c-3.1-2.4-6.7-4.8-10.8-7.4c-1.4,2.9-2.6,5.5-4.1,7.7c-0.2,0.7-0.7,1-1.2,0.7c-3.6-2.9-7.4-5.5-11.3-7.9
		c-0.2-0.2-0.2-0.5,0-1l4.6-9.6c0.2-0.5,0.7-1,1-1c0.5,0,2.2,1.2,5.3,3.4C387.8,67.9,390,69.6,390.9,70.6L390.9,70.6L390.9,70.6
		L390.9,70.6z"/>
	<path class="st0" d="M517.4,204.5c-2.6,0.7-4.1,1.2-4.6,1.2v-0.2c0,0,1-0.7,2.9-1.9c1.9-1.2,4.8-3.1,8.9-6.2c1.9-1.9,4.8-5,8.4-9.4
		c2.4-2.9,5-5.5,7.9-7.4c3.6-2.6,7-3.8,10.6-3.8c0.7,0,1.9,0.2,3.4,0.7c1.2,0.5,2.4,0.7,3.4,0.7c1.9,0,3.4-0.7,4.6-2.2
		c0.7-1.4,1.7-2.6,2.6-4.1c0.5-1,1.2-1.4,1.7-1.4c0.2,0,0.2,0.2,0.2,0.7s-0.2,1.7-0.7,3.1c-0.5,0.7,1.4,1,5,1c0.5,0,0.7,0,0.7-0.2
		c0,0-0.2-1-0.7-2.6c-0.2-0.5,0-1.2,0.7-2.2c1-1.7,1.4-2.4,1.7-2.2c1,0.7,1.4,2.2,1.4,3.8c0,1.7-0.5,3.4-1.2,5.3
		c-0.7,2.2-1.4,3.4-1.9,3.8c-1.7,1-4.3,0.7-7.9-1c-2.9,2.9-5.8,4.6-8.6,4.6c-0.7,0-1.9-0.2-3.1-0.7c-1.2-0.5-2.2-0.7-2.9-0.7
		c-4.8,0-9.8,2.2-14.9,7c-3.6,3.6-7.2,7.2-10.8,10.8C522,202.6,519.8,203.8,517.4,204.5L517.4,204.5L517.4,204.5L517.4,204.5z"/>
	<path class="st0" d="M465.8,74.9c2.9,0,5.3,1.4,7.4,4.8c2.2,3.1,3.8,7.4,4.6,12.7c0.2,0.5,0.2,0.7,0.2,1h0.2c0-0.2,0.2-0.5,0.2-1
		c0.5-3.1,1.7-7.9,3.4-14.2c1.9-4.3,3.8-6.5,6-6.5c1.2,0,2.4,0.7,3.4,2.2c1,1.4,1.4,2.4,1.4,3.4c0,0.5,0,1.4-0.5,2.4
		c-0.5,1.4-1,2.2-1.4,2.2c-0.2,0-0.7-0.7-1.7-1.7c-0.7-1-1.7-1.4-2.6-1.4c-1.9,0-3.6,4.6-5.3,13.7c-0.7,4.1-1.7,7-2.4,8.6
		c-0.7,1-1.2,1.7-1.7,1.7s-0.5-0.7-0.7-1.7c0.2-1.7-0.7-4.8-2.6-9.4c-1.9-4.8-3.1-7-4.1-7c-0.5,0-0.7,0-1,0.5
		c-0.2,0.2-0.5,0.5-1.2,0.5c-1,0-1.9-0.7-3.4-1.9c-1.4-1.2-1.9-2.2-1.9-2.9c0-0.2,0.5-1.4,1.7-3.4C464.9,75.6,465.6,74.9,465.8,74.9
		L465.8,74.9L465.8,74.9L465.8,74.9z"/>
	<path class="st0" d="M425.3,71.8c24.2-9.1,49.4-18.2,75.4-27.8c0.7-0.2,1.2-0.5,1.2-0.2c0.2,0,0.2,0.5,0,1.2
		c-1,2.2-1.7,3.4-2.2,3.8c-0.2,0.2-12.5,4.8-36.2,13.7c-24.2,8.9-37.9,14.4-40.6,16.1C423.3,76.3,424.1,74.2,425.3,71.8L425.3,71.8
		L425.3,71.8L425.3,71.8z"/>
	<path class="st0" d="M401.7,27.9c0.5-1.4,0.5-2.9,0.2-4.3c-0.2-1.4-1-2.2-2.2-2.2c-0.5,0-1.2,0.2-2.2,0.7s-1.4,1-1.4,1.4
		C396.2,24.7,398.1,26.2,401.7,27.9L401.7,27.9L401.7,27.9L401.7,27.9z M398.9,34.1c-4.6-2.4-6.7-4.8-6.7-7.4c0-3.1,1.4-6,4.3-8.4
		c2.9-2.6,5.3-3.6,7.2-2.9c1.7,0.5,2.4,2.2,2.4,5c0,2.6-0.5,5.5-1.7,8.9c2.4,1.2,3.8,2.4,4.3,3.4c0,1.2-1,3.4-3.1,6.2
		c-0.5-1-1.9-2.2-4.1-3.4c-2.6,3.6-5.8,6.7-9.6,9.6c-4.6,3.1-8.6,5.8-12.2,7.2c-1,0.5-5.3,2.2-13,5c-1.2,0.5-2.2,0.7-2.4,0.7
		c-0.2,0-0.2-0.2-0.2-0.2c0-0.2,0.5-1,1.9-1.7c5.8-3.6,11.5-7,17.5-10.3C390.5,41.5,395.5,37.7,398.9,34.1L398.9,34.1L398.9,34.1
		L398.9,34.1z"/>
	<path class="st0" d="M550.5,64.1c0.5-1.4,0.5-2.9,0.2-4.3c-0.2-1.4-1-2.2-2.2-2.2c-0.5,0-1.2,0.2-2.2,0.7s-1.4,1-1.4,1.4
		C545,61,546.9,62.4,550.5,64.1L550.5,64.1L550.5,64.1L550.5,64.1z M555.8,73c-2.4,5.8-3.6,10.3-3.6,13.7c0,4.1,1,6.2,3.1,6.2
		c1.2,0,2.6-1.7,4.3-4.6c0.2-0.2,0.2-0.5,0.5-0.7c0,0,0.2,0,0.2,0.2c0,0,0,0.2,0,0.7c-1.4,7.2-3.6,10.8-6.5,10.8
		c-3.1,0-4.6-2.6-4.6-7.9c0-2.6,0.5-6,1.9-10.3s2.2-6.5,2.2-6.7c0-0.5-1-1.4-3.1-2.6c-3.8,5-9.1,9.8-15.8,13.9
		c-4.6,2.6-9.1,5-13.9,7c-8.9,3.6-14.2,5.5-15.4,6.2c-1.2,0.5-1.9,0.7-2.4,0.7c-0.2,0-0.2-0.2-0.2-0.2c0-0.5,0.5-1,1.9-1.9
		c7.7-4.3,15.1-8.6,22.8-13c10.1-5.8,17-10.6,20.4-14.2c-4.6-2.4-6.7-4.8-6.7-7.4c0-3.1,1.4-6,4.3-8.6c2.9-2.4,5.3-3.4,7.2-2.6
		c1.4,0.5,2.4,2.2,2.4,5c0,2.6-0.5,5.5-1.7,8.6c2.4,1.4,3.4,2.9,3.4,4.3C556.5,70.3,556.3,71.5,555.8,73L555.8,73L555.8,73L555.8,73
		z"/>
	<path class="st0" d="M446.6,37.9c0-0.2,0.2-0.5,0.2-0.5c0.2-0.2,0.2-0.2,0.2,0c0.2,0.2,0.2,0.5,0,0.7c-1.2,7.2-3.4,10.8-6.5,10.8
		s-4.6-2.6-4.6-7.9c0-6.5,1.7-13.4,5.5-20.4c1-1.7,1.4-2.6,1.7-2.6l0,0c0,0.2-0.2,1.2-0.7,2.9c-2.4,7.4-3.6,12.5-3.6,15.6
		c0,3.8,1,6,3.1,6C443.5,42.5,444.9,40.8,446.6,37.9L446.6,37.9L446.6,37.9L446.6,37.9z"/>
</g>
</svg>
