<?xml version="1.0" encoding="utf-8"?>
<!-- Generator: Adobe Illustrator 24.0.0, SVG Export Plug-In . SVG Version: 6.00 Build 0)  -->
<svg version="1.1" id="Layer_1" xmlns="http://www.w3.org/2000/svg" xmlns:xlink="http://www.w3.org/1999/xlink" x="0px" y="0px"
	 viewBox="0 0 649.1 206.3" style="enable-background:new 0 0 649.1 206.3;" xml:space="preserve">
<style type="text/css">
	.st0{fill:#C4692C;}
</style>
<g>
	<path class="st0" d="M404.7,31.8c0-4.8-0.7-8.6-2.2-11.8c0-1.7,1.2-5.8,4.1-12c0.2-0.7,0.5-1.2,0.7-1.2c0.5,0,0.7,0.5,1.2,1.2
		c0.7,1.7,2.4,6.2,5.3,13.7c3.1,7.9,4.8,12.7,5.3,14.6c0.5,1.2,0.5,2.4,0.5,2.9c0,2.2-1.9,1-6.2-3.8c-0.5-0.7-0.7-0.2-0.7,1
		c0,0.5,1.2,15.4,3.4,45.1c2.2,29.5,3.1,46.1,3.1,49.9c0,11.3-1.7,21.4-5,30c-1,1.7-1.4,2.9-1.9,3.8l0,0c-0.7,1.2-1,1.2-1.2,0.5
		c-0.2-1,0-2.9,0.2-5.5c0.5-4.1,0.7-8.6,0.7-13.7c0-4.8-1.2-24-3.6-57.8C405.9,54.8,404.7,35.9,404.7,31.8L404.7,31.8L404.7,31.8
		L404.7,31.8z"/>
	<path class="st0" d="M379.8,127.3c-1,8.9-1.7,13.2-2.2,13.2s-1.2-3.6-2.2-11c-1.9-12-10.8-25.4-26.6-40.8c-7-6.5-13.9-13-20.9-19.7
		c-7.4-7.2-13.2-13.2-17-18c-2.6-3.4-5.5-7.2-8.6-12c-1.7-3.1-3.4-6-5-8.6c-1.2-1.9-2.6-3.4-4.1-4.3c-0.7-0.2-1-1-1-2.2v-9.8
		c0-1.9,0.2-2.9,1-2.9c0.5,0,1.4,0.5,2.6,1.4l18.5,14.2c1.4,1.2,2.2,1.9,2.2,2.6c0,0.5-0.5,0.5-1.7,0.5c-1.4,0-4.1-0.2-7.7-1.2
		c2.4,4.6,9.4,12.7,20.9,24.2c8.6,8.6,17.3,17.3,26.2,25.9c17.3,17.3,25.9,32.4,25.9,45.1C380,124.9,380,126.1,379.8,127.3
		L379.8,127.3L379.8,127.3L379.8,127.3z M377.4,24.1c0-1.9-0.5-4.3-1.4-7c-1-2.6-1.4-4.1-1.4-4.3c0-0.5,0.5-2.4,1.4-5.8
		c1-3.4,1.4-5.3,1.7-5.8c0.5-1,0.7-1.2,1-1.2c0.2,0,0.7,0.2,1.2,1c1,2.2,3.1,6.2,6.2,12.7c3.4,7.2,5.5,12,6.2,14.2
		c0.5,1.7,0.7,2.6,0.7,3.4c0,1.9-2.2,0.7-6.2-4.1c-0.5-0.5-0.7,0-0.7,1.2c0,3.8,1.2,16.8,3.8,38.6c2.6,22.1,4.1,37,4.1,44.6
		c0,16.1-3.8,29.5-11.5,39.8c-5.8,8.4-12.5,14.2-19.9,17.5c-2.9,1.4-7.9,2.9-14.9,4.8c-7.2,1.9-12.5,2.9-15.8,3.4
		c-1.2,0-1.9,0-1.9-0.5c0-0.2,0.5-1,1.9-1.9c6.5-3.6,17-9.8,31.7-19c4.8-2.9,9.4-7,14.2-12.2c6.2-6.7,9.6-12.5,9.6-17
		c0-9.6-1.7-28.3-5-55.7C378.8,43.3,377.4,27.7,377.4,24.1L377.4,24.1L377.4,24.1L377.4,24.1z"/>
	<path class="st0" d="M320.5,152.7c0-1.4-1.2-4.3-3.6-8.9c-2.9-5.8-5-10.3-6.2-13.9c-2.4-7.7-4.1-14.6-5-21.1
		c-0.2-2.6-0.5-4.1-0.7-4.8c-0.2-1.2-1-2.6-1.9-4.1c0.7-2.2,1.7-5.3,3.1-9.4c0.7-1.2,1-1.7,1.4-1.7c0.2,0,1,0.5,1.9,1.7
		c3.8,5.3,7,10.3,9.6,14.4c1.2,1.9,1.7,3.1,1.7,3.8c0,0.5-0.2,0.7-0.7,0.7c-1,0-2.9-0.7-5.3-2.4c-0.2,0-0.5,0.2-0.7,0.5
		c1,3.1,2.4,7.7,4.3,13.2c4.6,12.5,6.7,21.6,6.7,27.4c0,4.8-1.4,9.8-3.8,14.9c-3.4,7-7.9,10.3-13.4,10.3v-14.6
		C314.5,158.7,318.8,156.6,320.5,152.7L320.5,152.7L320.5,152.7L320.5,152.7z"/>
	<path class="st0" d="M234.8,163.3c6,0,11.8-2.2,17.3-6.7c0.5-0.2,2.6-2.6,6.7-7c3.6-3.8,5.8-5.8,6-5.8c1,0,1,0.7,0.5,2.6
		c-1,2.2-1.2,3.6-1.2,4.3c0,1.7,0.7,3.6,2.2,5.8c1.7,2.9,4.3,4.3,7.2,4.3c8.2,0,14.9-5.8,20.6-17.3c0.7-1.2,1.2-1.9,2.2-1.9
		c0.5,0,1,0.7,1,1.7c0,0.5-0.2,1.2-0.2,1.9c-0.2,1-0.2,1.7-0.2,1.9c0,3.4,1.2,6.2,3.1,8.4c2.2,1.9,4.8,3.1,7.9,3.1v14.6
		c-7.2,0-12.5-4.8-15.8-14.2c-0.2-1.2-0.7-1.2-1.2,0c-4.3,10.8-10.3,16.3-18,16.3s-12.2-5-13.9-14.9c0-0.7-0.2-1.2-0.2-1.2
		c-0.2,0-0.5,0.5-1,1.2c-1.9,3.1-4.6,6.2-8.2,9.6c-6,5-11.8,7.7-17.5,7.7c-6.2,0-10.6-1.9-13.2-5.8c-1.4-2.4-2.4-6-2.6-10.6
		c0-0.5-0.2-0.7-0.7-1c-0.7,0.2-1.4,0.5-2.2,1.4c-5,5.8-8.2,9.1-9.6,10.3c-6.2,5.5-12.7,8.2-19.4,8.2v-14.6c7.2,0,13.4-1.9,18.7-5.8
		c2.2-1.4,7-6,14.6-13.7c1-1,1.7-1.2,2.6-1.4c1.2,0.2,1.7,1,1.2,2.6c-0.7,1.9-1,3.6-1,5c0,3.4,1.4,6,4.1,7.9
		C227.1,162.3,230.7,163.3,234.8,163.3L234.8,163.3L234.8,163.3L234.8,163.3z"/>
	<path class="st0" d="M170.3,140c0-1.7-1.2-4.3-3.6-8.2c-2.4-4.1-4.8-6.2-6.5-6.2s-3.1,1.2-4.6,3.1c-1.4,1.9-2.2,3.8-2.2,5.8
		c0,4.1,1.7,8.9,5,14.6C166.4,144.8,170.3,141.7,170.3,140L170.3,140L170.3,140L170.3,140z M97.1,179.4c-13.7,0-23-1-28.6-3.1v-14.6
		c4.6,2.2,14.2,3.1,29,3.1c10.3,0,21.4-1.4,33.4-4.8c10.3-2.9,17.8-5.8,22.8-8.6c-2.4-8.2-3.6-13.2-3.6-15.4c0-7.2,1.2-13,3.6-17.5
		c2.4-4.6,5.5-6.7,9.1-6.7c3.1,0,6.2,2.6,8.9,7.9c2.6,4.8,3.8,8.9,3.8,12.7c0,5.5-1.2,11-3.4,16.1c-2.2,4.8-4.6,8.2-7,9.8
		c3.4,5,9.8,7.7,19.2,7.7v14.6c-12,0-20.9-6-26.9-18c-7,3.8-15.1,7.2-24.5,10.3C119.9,177.2,107.9,179.4,97.1,179.4L97.1,179.4
		L97.1,179.4L97.1,179.4z"/>
	<path class="st0" d="M56.5,153c3.8,3.6,7.7,6.5,12,8.6v14.6c-5.8-2.4-10.1-4.8-13.2-7c-4.3-3.4-7.7-7.4-10.1-12.7
		c-2.6-5.8-4.6-20.6-5.3-44.6c-1.2-32.4-1.9-50.2-2.4-53.8c-1.2-11.8-3.1-20.4-5.5-26.2c0-2.2,1-6,3.4-11.5c0.5-1.2,1-1.9,1.2-1.9
		s0.7,0.7,1.2,1.7c2.9,5.5,5,15.4,6.5,29.3c0.7,5,1.2,15.6,1.7,31.2c0.2,10.1,0.5,20.2,1,30C47.9,133.5,51,147.7,56.5,153L56.5,153
		L56.5,153L56.5,153z"/>
	<path class="st0" d="M104.7,85.8c-3.4-5.3-7.4-7.9-11.8-7.9c-3.1,0-4.8,1-4.8,3.1c0,2.2,1.9,3.6,6,4.1
		C96.3,85.1,99.9,85.3,104.7,85.8L104.7,85.8L104.7,85.8L104.7,85.8z M0.8,109.3c1-5.8,2.2-10.3,3.6-14.4C4.9,93.5,5.6,93,6.1,93
		s0.5,0.7,0.2,2.4c-2.4,12.2-3.4,19-3.4,20.6c0,7.4,2.4,14.2,7.4,20.4c6.7,8.4,16.6,12.5,29.3,12.5c10.6,0,22.1-3.1,34.8-9.1
		c9.6-4.8,19.2-10.8,28.3-18c7.7-6,12-10.3,13.2-12.5c0-3.1-1.7-5.5-5-7.7c-3.1-1.7-6.5-2.4-10.6-2.4h-9.6c-3.6,0-6.5-1.2-8.6-3.6
		c-2.2-2.4-3.1-5.3-3.1-8.9c0-5,1.7-10.1,5.3-15.4c3.4-5,7-7.4,10.6-7.4c6,0,11.8,3.4,17,10.1c5.5,7.4,8.4,16.1,8.4,26.4
		c0,10.1-2.6,17.8-7.7,23.8c-6.7,7.9-16.1,15.8-27.8,23.3c-16.6,10.8-31.4,16.1-44.9,16.1c-14.6,0-25.4-5-32.2-14.9
		c-5.3-7.4-7.7-17-7.7-28.8C0.1,116.3,0.3,112.7,0.8,109.3L0.8,109.3L0.8,109.3L0.8,109.3z"/>
	<path class="st0" d="M92.3,37.1l3.8-7.9c0.2-0.5,0.5-0.7,1-0.7s2.4,1.2,6.2,3.8c3.6,2.4,5.5,3.8,5.5,4.3c0,1.7-1.7,5.3-4.8,10.6
		c-0.5,0.7-1,0.7-1.4,0.5c-3.1-2.4-6.7-4.8-10.8-7.4c-1.4,2.9-2.6,5.5-4.1,7.7c-0.2,0.7-0.7,1-1.2,0.7c-3.6-2.9-7.4-5.5-11.3-7.9
		c-0.2-0.2-0.2-0.5,0-1l4.6-9.6c0.2-0.5,0.7-1,1-1c0.5,0,2.2,1.2,5.3,3.4C89.1,34.4,91.3,36.1,92.3,37.1L92.3,37.1L92.3,37.1
		L92.3,37.1z"/>
	<path class="st0" d="M395.1,175.8c-0.5,2.2-1,3.4-1.7,4.1c-2.6,1.7-8.6,5.5-17.8,11.8c-0.2,0.2-0.7,0.5-1.2,1
		c-0.2-0.2-0.2-0.2-0.2-0.7l0.5-3.1c0.2-0.7,1.7-2.2,4.6-4.3c-3.6-1.2-5.3-2.9-5.3-4.8c0-2.2,0.7-4.3,2.6-6.5
		c3.6-4.3,6.7-6.5,9.1-6.5c2.2,0,3.1,1.2,3.1,3.6c0,1.4-0.5,2.9-1.7,4.8c-0.2,0.5-0.5,0.5-1-0.2c-0.5-1.2-1.4-1.7-2.6-1.7
		c-0.7,0-1.7,0.2-2.9,1.2c-1.2,0.7-1.9,1.4-1.9,1.9c0,0.7,0.7,1.4,2.2,2.2c1.4,1,2.6,1.2,3.6,1.2c0.7,0,2.2-0.5,4.3-1.7
		c1.4-1,2.6-1.9,4.1-2.9c1.2-0.5,1.9-1,2.2-0.7C395.4,174.3,395.4,174.8,395.1,175.8L395.1,175.8L395.1,175.8L395.1,175.8z"/>
	<path class="st0" d="M290.7,69.9c-0.2-0.2-0.2-0.5,0-1l4.6-9.6c0.2-0.5,0.7-0.7,1-0.7c0.5,0,2.6,1.2,6.2,3.6
		c3.8,2.6,5.8,4.1,5.8,4.6c0,1.7-1.7,5-5,10.3c-0.5,0.7-0.7,1-1.2,0.7C298.4,75,294.6,72.3,290.7,69.9L290.7,69.9L290.7,69.9
		L290.7,69.9z"/>
	<path class="st0" d="M259.5,117.5l3.8-7.7c0.2-0.7,0.5-1,1-1s2.4,1.2,6.2,3.8c3.6,2.6,5.5,4.1,5.5,4.6c0,1.7-1.7,5-4.8,10.3
		c-0.5,0.7-1,0.7-1.4,0.5c-3.1-2.4-6.7-4.8-10.8-7.4c-1.4,2.9-2.6,5.5-4.1,7.7c-0.2,0.7-0.7,1-1.2,0.7c-3.6-2.9-7.4-5.5-11.3-7.9
		c-0.2-0.2-0.2-0.5,0-1l4.6-9.6c0.2-0.5,0.7-1,1-1c0.5,0,2.2,1.2,5.3,3.4C256.4,114.8,258.6,116.5,259.5,117.5L259.5,117.5
		L259.5,117.5L259.5,117.5z M246.3,102.6c-0.2-0.2-0.2-0.5,0-1l4.8-9.6c0.2-0.5,0.5-0.7,1-0.7s2.4,1.2,6.2,3.6
		c3.6,2.6,5.5,4.1,5.5,4.6c0,1.7-1.7,5-4.8,10.3c-0.5,0.7-1,1-1.4,0.5C254,107.6,250.2,105,246.3,102.6L246.3,102.6L246.3,102.6
		L246.3,102.6z"/>
	<path class="st0" d="M153.5,92.5l3.8-7.9c0.2-0.5,0.5-0.7,1-0.7s2.4,1.2,6.2,3.8c3.6,2.4,5.5,3.8,5.5,4.3c0,1.7-1.7,5.3-4.8,10.6
		c-0.5,0.7-1,0.7-1.4,0.5c-3.1-2.4-6.7-4.8-10.8-7.4c-1.4,2.9-2.6,5.5-4.1,7.7c-0.2,0.7-0.7,1-1.2,0.7c-3.6-2.9-7.4-5.5-11.3-7.9
		c-0.2-0.2-0.2-0.5,0-1l4.6-9.6c0.2-0.5,0.7-1,1-1c0.5,0,2.2,1.2,5.3,3.4C150.3,89.9,152.5,91.5,153.5,92.5L153.5,92.5L153.5,92.5
		L153.5,92.5z"/>
	<path class="st0" d="M13.3,82.4c0-0.2,0.2-0.5,0.2-0.5c0.2-0.2,0.2-0.2,0.2,0c0.2,0.2,0.2,0.5,0,0.7c-1.2,7.2-3.4,10.8-6.5,10.8
		s-4.6-2.6-4.6-7.9c0-6.5,1.7-13.4,5.5-20.4c1-1.7,1.4-2.6,1.7-2.6l0,0c0,0.2-0.2,1.2-0.7,2.9C6.7,72.8,5.5,77.9,5.5,81
		c0,3.8,1,6,3.1,6C10.2,87,11.6,85.3,13.3,82.4L13.3,82.4L13.3,82.4L13.3,82.4z"/>
	<path class="st0" d="M57.9,99c0.5-3.4,1.7-7.2,3.6-12c1.4-3.6,2.2-7.2,2.2-10.8c0-7-3.4-13.4-9.8-19.9c-0.5-0.5-0.5-1,0-1.4
		l2.2-3.8c0.2-0.5,0.5-0.5,1,0c6.2,5,9.6,12.5,9.6,22.3c0,4.6-1.2,9.6-3.1,14.6c-2.2,5.3-3.1,8.9-3.1,10.8c0,4.1,1,6.2,3.1,6.2
		c1.4,0,2.9-1.7,4.6-4.6c0-0.2,0.2-0.5,0.2-0.5c0.2-0.2,0.2-0.2,0.2,0c0,0,0,0.5,0,0.7c-1.2,7.2-3.4,10.8-6.5,10.8
		c-2.9,0-4.6-3.1-4.6-8.9C57.5,101.4,57.7,100.2,57.9,99L57.9,99L57.9,99L57.9,99z"/>
	<path class="st0" d="M75.9,197.4c9.6-3.4,19.9-7.2,31-11c1-0.2,1.2-0.5,1.4-0.2c0.2,0,0.2,0.5-0.2,1.2c-0.7,2.2-1.4,3.4-1.9,3.8
		c-9.6,3.4-20.4,7.4-32.6,13C74,201.9,74.7,199.8,75.9,197.4L75.9,197.4L75.9,197.4L75.9,197.4z"/>
	<path class="st0" d="M278,24.8c0-1.2-2.4-3.4-7.4-6.2c-1.7,2.9-2.4,5.5-2.4,7.9c0,1.4,0.7,2.4,2.2,2.4c1.2,0,2.6-0.5,4.3-1.4
		C276.3,26.7,277.5,25.8,278,24.8L278,24.8L278,24.8L278,24.8z M272.7,5.6c0.7-1.2,1.7-1.7,2.4-1.7c0.5,0,1,0.2,1,0.7
		c0,0-0.2,0.2-0.2,0.5c-1,2.2-1.9,4.6-2.6,7c5,3.6,7.4,7.4,7.2,11c-0.5,4.1-1,6.7-1.7,7.7c-2.4,2.9-5,4.6-8.4,4.6s-4.8-2.2-4.8-6
		c0-0.7,0-1.7,0.2-2.6C267,19.1,269.4,12.1,272.7,5.6L272.7,5.6L272.7,5.6L272.7,5.6z"/>
	<path class="st0" d="M233.6,197.1c13.7-4.8,28.1-10.1,43.2-15.6c1-0.2,1.2-0.5,1.4-0.2c0.2,0,0.2,0.5-0.2,1.2
		c-0.7,2.2-1.4,3.4-1.9,3.8c-13,4.6-27.8,10.3-44.9,17.5C231.7,201.7,232.4,199.5,233.6,197.1L233.6,197.1L233.6,197.1L233.6,197.1z
		"/>
	<path class="st0" d="M126.1,59.9c40.6-15.4,81.8-30.7,124.1-46.6c0.7-0.2,1.2-0.5,1.2-0.2c0.2,0,0.2,0.5,0,1.2
		c-1,2.2-1.7,3.4-2.2,3.8c-38.6,14.4-80.6,30.5-125.5,48.5C124.2,64.4,124.9,62.3,126.1,59.9L126.1,59.9L126.1,59.9L126.1,59.9z"/>
	<path class="st0" d="M198.3,75.7c0-0.2,0.2-0.5,0.2-0.5c0.2-0.2,0.2-0.2,0.2,0c0.2,0.2,0.2,0.5,0,0.7c-1.2,7.2-3.4,10.8-6.5,10.8
		s-4.6-2.6-4.6-7.9c0-6.5,1.7-13.4,5.5-20.4c1-1.7,1.4-2.6,1.7-2.6l0,0c0,0.2-0.2,1.2-0.7,2.9c-2.4,7.4-3.6,12.5-3.6,15.6
		c0,3.8,1,6,3.1,6C195.2,80.3,196.7,78.6,198.3,75.7L198.3,75.7L198.3,75.7L198.3,75.7z"/>
	<path class="st0" d="M243.9,73.8c0,0.5-0.2,1.4-0.7,2.4c-0.2,1.4-0.7,2.2-1.4,2.2c-0.2,0-0.7-0.7-1.7-1.7c-0.7-1-1.7-1.4-2.4-1.4
		c-1.9,0-3.8,4.6-5.5,13.7c-0.7,4.1-1.4,7-2.4,8.6c-0.7,1-1.2,1.7-1.7,1.7c-0.2,0-0.5-0.7-0.5-1.7c0-1.7-1-4.8-2.9-9.4
		c-1.9-4.8-3.1-7-3.8-7c-0.7,0-1,0-1.2,0.5c0,0.2-0.5,0.5-1.2,0.5c-1,0-1.9-0.7-3.4-1.9c-1.2-1.2-1.9-2.2-1.9-2.9
		c0-0.2,0.5-1.4,1.7-3.4c1.2-1.9,1.9-2.6,2.2-2.6c2.6,0,5,1.4,7.2,4.8c2.4,3.4,3.8,7.4,4.8,12.7c0,0.5,0,0.7,0,1
		c0.2,0.2,0.2,0.2,0.2,0s0.2-0.5,0.5-1c0.2-3.1,1.4-7.9,3.1-14.2c1.9-4.3,3.8-6.5,6-6.5c1.2,0,2.4,0.7,3.6,2.2
		C243.5,71.9,243.9,72.8,243.9,73.8L243.9,73.8L243.9,73.8L243.9,73.8z M228.1,101.4c-1.7,3.8-5,7.7-10.1,11.3
		c-4.6,3.4-8.6,5.8-12.2,7.4c-0.7,0.5-5,2.2-13,5c-1.2,0.5-1.9,0.7-2.4,0.7c-0.2,0-0.2-0.2-0.2-0.2c0-0.2,0.7-1,1.9-1.7
		c6.5-3.8,15.6-9.4,27.6-17.3c2.9-2.2,5-4.3,6.7-6.2c1.9-2.2,2.9-3.4,3.1-3.4c0,0,0,0,0,0.2C229.5,97.5,229.1,99,228.1,101.4
		L228.1,101.4L228.1,101.4L228.1,101.4z"/>
	<path class="st0" d="M248,35.1c0,2.6-1.2,5.5-3.1,8.6c-2.2,3.1-4.8,6-8.2,8.4c-1.4,1-2.2,1.4-2.4,1.4v-0.2c0-0.2,0.5-0.7,1.4-1.9
		c5.5-6,8.4-9.8,8.4-12c0-1.7-1-2.6-2.6-2.6c-1,0-1.9,0.2-2.6,0.7c-0.7,0.2-1,0.5-1.2,0.5c0,0-0.2,0-0.2-0.2c0,0,0-0.5,0.2-1.4
		c1-4.1,2.9-6,6.2-6C246.6,30.3,248,32,248,35.1L248,35.1L248,35.1L248,35.1z"/>
	<path class="st0" d="M142.9,28.7c0-0.2,0.2-0.5,0.2-0.5c0.2-0.2,0.2-0.2,0.2,0c0.2,0.2,0.2,0.5,0,0.7c-1.2,7.2-3.4,10.8-6.5,10.8
		s-4.6-2.6-4.6-7.9c0-6.5,1.7-13.4,5.5-20.4c1-1.7,1.4-2.6,1.7-2.6l0,0c0,0.2-0.2,1.2-0.7,2.9c-2.4,7.4-3.6,12.5-3.6,15.6
		c0,3.8,1,6,3.1,6C139.8,33.2,141.2,31.5,142.9,28.7L142.9,28.7L142.9,28.7L142.9,28.7z"/>
	<path class="st0" d="M201.5,8c0,2.6-1.2,5.5-3.1,8.6c-2.2,3.1-4.8,6-8.2,8.4c-1.4,1-2.2,1.4-2.4,1.4v-0.2c0-0.2,0.5-0.7,1.4-1.9
		c5.5-6,8.4-9.8,8.4-12c0-1.7-1-2.6-2.6-2.6c-1,0-1.9,0.2-2.6,0.7c-0.7,0.2-1,0.5-1.2,0.5c0,0-0.2,0-0.2-0.2c0,0,0-0.5,0.2-1.4
		c1-4.1,2.9-6,6.2-6C200,3.2,201.5,4.9,201.5,8L201.5,8L201.5,8L201.5,8z"/>
	<path class="st0" d="M273,56.7c0,2.6-1.2,5.5-3.1,8.6c-2.2,3.1-4.8,6-8.2,8.4c-1.4,1-2.2,1.4-2.4,1.4v-0.2c0-0.2,0.5-0.7,1.4-1.9
		c5.5-6,8.4-9.8,8.4-12c0-1.7-1-2.6-2.6-2.6c-1,0-1.9,0.2-2.6,0.7c-0.7,0.2-1,0.5-1.2,0.5c0,0-0.2,0-0.2-0.2c0,0,0-0.5,0.2-1.4
		c1-4.1,2.9-6,6.2-6C271.5,51.9,273,53.6,273,56.7L273,56.7L273,56.7L273,56.7z"/>
	<path class="st0" d="M348.1,116.7c0,2.6-1.2,5.5-3.1,8.6c-2.2,3.1-4.8,6-8.2,8.4c-1.4,1-2.2,1.4-2.4,1.4v-0.2
		c0-0.2,0.5-0.7,1.4-1.9c5.5-6,8.4-9.8,8.4-12c0-1.7-1-2.6-2.6-2.6c-1,0-1.9,0.2-2.6,0.7c-0.7,0.2-1,0.5-1.2,0.5c0,0-0.2,0-0.2-0.2
		c0,0,0-0.5,0.2-1.4c1-4.1,2.9-6,6.2-6C346.7,111.9,348.1,113.6,348.1,116.7L348.1,116.7L348.1,116.7L348.1,116.7z"/>
	<path class="st0" d="M351.5,21.9c0-1.2-2.4-3.4-7.4-6.2c-1.7,2.9-2.4,5.5-2.4,7.9c0,1.4,0.7,2.4,2.2,2.4c1.2,0,2.6-0.5,4.3-1.4
		C349.8,23.9,351,22.9,351.5,21.9L351.5,21.9L351.5,21.9L351.5,21.9z M346.2,2.7c0.7-1.2,1.7-1.7,2.4-1.7c0.5,0,1,0.2,1,0.7
		c0,0-0.2,0.2-0.2,0.5c-1,2.2-1.9,4.6-2.6,7c5,3.6,7.4,7.4,7.2,11c-0.5,4.1-1,6.7-1.7,7.7c-2.4,2.9-5,4.6-8.4,4.6s-4.8-2.2-4.8-6
		c0-0.7,0-1.7,0.2-2.6C340.4,16.2,342.8,9.2,346.2,2.7L346.2,2.7L346.2,2.7L346.2,2.7z"/>
	<path class="st0" d="M322.4,185.1c0,2.6-1.2,5.5-3.1,8.6c-2.2,3.1-4.8,6-8.2,8.4c-1.4,1-2.2,1.4-2.4,1.4v-0.2
		c0-0.2,0.5-0.7,1.4-1.9c5.5-6,8.4-9.8,8.4-12c0-1.7-1-2.6-2.6-2.6c-1,0-1.9,0.2-2.6,0.7c-0.7,0.2-1,0.5-1.2,0.5c0,0-0.2,0-0.2-0.2
		c0,0,0-0.5,0.2-1.4c1-4.1,2.9-6,6.2-6C321,180.3,322.4,182,322.4,185.1L322.4,185.1L322.4,185.1L322.4,185.1z"/>
	<path class="st0" d="M161.1,186.6c0,2.6-1.2,5.5-3.1,8.6c-2.2,3.1-4.8,6-8.2,8.4c-1.4,1-2.2,1.4-2.4,1.4v-0.2
		c0-0.2,0.5-0.7,1.4-1.9c5.5-6,8.4-9.8,8.4-12c0-1.7-1-2.6-2.6-2.6c-1,0-1.9,0.2-2.6,0.7c-0.7,0.2-1,0.5-1.2,0.5c0,0-0.2,0-0.2-0.2
		c0,0,0-0.5,0.2-1.4c1-4.1,2.9-6,6.2-6C159.7,181.8,161.1,183.5,161.1,186.6L161.1,186.6L161.1,186.6L161.1,186.6z"/>
	<path class="st0" d="M590.3,117.5c1.2-1,2.2-1.4,2.9-1.4c0.5,0,0.7,0.5,0.7,1.4c0,0.7-0.2,2.2-0.7,4.1s-0.7,3.4-0.7,4.6
		c0,5.3,3.8,8.2,11.3,8.2c6,0,11-2.6,14.9-7.7c2.4-4.1,5-7.9,7.4-11.8c1-1,1.7-1.4,2.4-1.4c1,0,1.2,1,0.7,3.1c-1,4.1-1.7,6-1.7,5.5
		c0,1.7,1,3.4,2.9,4.8c1.7,1.4,4.1,2.4,6.7,2.4c3.4,0,5.5-1,6.5-2.6c0-0.2-1-2.2-3.1-5.8c0.2-1.9,1.2-5.3,2.6-9.8
		c0.2-1.4,0.7-2.2,1.2-2.2s1,0.2,1.7,1.2c1.9,2.9,3.1,6.2,3.1,10.1c0,6-1.4,11-4.1,15.4c-2.9,5.3-7.2,7.9-13,7.9
		c-3.8,0-7.4-3.1-10.6-8.9c-5.3,9.6-12.2,14.4-20.6,14.4c-10.1,0-14.9-5.8-14.9-16.8c-3.8,4.6-10.3,8.6-18.7,12.5v-13.2
		c6.2-3.1,10.3-5,11.5-5.8C582.6,123.7,586.4,120.8,590.3,117.5L590.3,117.5L590.3,117.5L590.3,117.5z"/>
	<path class="st0" d="M553.5,133.3c-3.6-4.6-6.7-6.7-9.6-6.7c-4.3,0-6.2,1-6.2,3.4c0,2.9,2.9,4.3,8.6,4.3
		C548.5,134.3,550.9,133.8,553.5,133.3L553.5,133.3L553.5,133.3L553.5,133.3z M561,150.8c0-1.4-0.5-3.1-1-4.8
		c-2.9,1-7.2,1.7-12.5,1.7c-11.5,0-17.3-4.1-17.3-12c0-6,1.7-11.3,5.5-16.1c3.6-4.1,7.4-6.2,11.5-6.2c3.1,0,6.2,1.9,9.8,5.5
		c3.1,3.6,6,7.7,8.4,12.7c0.2,0,0.7,0,1.7-0.5v13.2l-0.5,0.5c0,2.9-0.7,6.2-2.2,10.6c-1.7,5.5-4.3,10.1-7.4,13.7
		c-7.2,8.6-15.1,16.1-23.8,22.6c-13,9.6-24,14.6-33.6,14.6c-8.2,0-14.4-3.1-18.7-9.1c-3.8-5-5.8-11.8-5.8-19.7
		c0-10.1,2.2-20.4,6.2-31.2c1.2-2.4,1.7-3.4,2.2-3.4c0.2,0,0.2,0.2,0.2,0.7c0,0.7-0.2,1.9-0.5,3.4c-3.1,10.6-4.6,18.5-4.6,24
		c0,5,1.2,9.4,3.6,13c3.8,5,9.8,7.7,18.2,7.7c7.2,0,15.8-3.1,26.2-9.4c8.2-5,16.1-11,23.8-18.2C557.4,157.3,561,153,561,150.8
		L561,150.8L561,150.8L561,150.8z"/>
	<path class="st0" d="M495.5,114.6c-0.5-2.2-1.2-3.8-2.2-5c-0.7-1.4-1.2-2.2-1.4-2.6c0-0.5,0-2.2,0.5-5.5c0.5-3.1,0.7-5.3,1.2-6.5
		c0.2-1.2,0.5-1.7,1-1.7c0.2,0,0.5,0.2,1,0.7c3.4,3.8,7,7.7,11,11.8c1.7,1.7,2.4,2.6,2.4,3.1c0,0.2-0.2,0.5-0.7,0.5
		c-0.7,0-2.6-0.5-5.5-1.2c1.7,4.1,3.6,8.2,5.3,12c2.6,6.7,4.1,12.2,4.1,17.3c0,2.4-0.5,5.3-1.4,8.9c-1.2,4.1-2.6,7.2-4.6,9.4
		c-7,7.9-18.7,16.6-35.3,25.9c-14.4,8.4-22.8,12.5-25.4,12.5c-0.5,0-7.7,1.7-21.4,5c-14.4,3.4-23.5,5.5-27.1,6c-3.8,0.7-6.2,1-7.2,1
		c-0.5,0-0.5,0-0.5-0.2s2.6-1.7,7.9-4.1c1.9-1,13-5.8,33.4-14.4c14.2-6,25.9-11.5,35.3-16.6c14.2-7.7,25-14.4,32.4-19.9
		c5.5-4.3,8.4-7.4,8.4-9.4c0-0.5-1.4-3.8-4.3-10.1C499.1,124.4,496.7,118.7,495.5,114.6L495.5,114.6L495.5,114.6L495.5,114.6z"/>
	<path class="st0" d="M475.8,81.2c0,3.8-1.9,9.1-5.8,15.6c-2.4,4.1-6,9.6-10.8,16.8c4.8,5.5,8.2,10.6,9.8,14.9
		c1,3.1,1.7,7.2,1.7,11.8c0,1.9-0.5,4.3-1.4,7.4c-0.7,2.9-1.7,5-2.6,6.5c-1.9,2.9-5,5.8-9.8,8.6c-5,3.4-9.4,5-13,5
		c-5.8,0-8.6-4.3-8.6-13c0-5.8,1-11.5,2.9-16.8c1.9-4.6,5-10.6,10.1-18.5c-4.3-4.1-8.9-9.8-13.9-17c-0.5-0.7-1.7-1.9-3.6-3.8
		c-1-1-1.4-2.2-1.4-3.6c0-2.2,0.2-4.6,0.7-7.4c0.7-2.9,1.2-4.1,1.4-4.1c0.7,0,2.9,1.2,7,3.8c3.8,2.6,7,4.6,8.9,6.2
		c1.2,0.7,1.7,1.4,1.7,1.4v0.2c0,0.2-0.7,0.5-2.4,0.5c-3.1,0-4.8,0.2-4.8,0.5c0,0.2,0.5,0.7,1.4,1.9c3.8,4.8,7.7,8.4,11.8,11.3
		c1-1.4,4.3-6.2,9.6-14.4c4.6-7,7.2-11.8,8.4-14.6c1.2-2.9,1.9-4.1,2.4-4.1C475.5,76.4,475.8,77.9,475.8,81.2L475.8,81.2L475.8,81.2
		L475.8,81.2z M466.4,140.3c-2.6-5.3-7.2-10.8-13.4-16.1c-2.2,2.2-4.8,6.2-8.2,12c-3.8,6.5-5.5,10.6-5.5,12.7c0,2.9,1.9,4.3,6.2,4.3
		c1.9,0,4.3-0.7,7.4-1.9c4.3-1.9,8.4-4.6,11.8-7.9C466.2,141.9,466.7,141,466.4,140.3L466.4,140.3L466.4,140.3L466.4,140.3z"/>
	<path class="st0" d="M453,63l3.8-7.9c0.2-0.5,0.5-0.7,1-0.7s2.4,1.2,6.2,3.8c3.6,2.4,5.5,3.8,5.5,4.3c0,1.7-1.7,5.3-4.8,10.6
		c-0.5,0.7-1,0.7-1.4,0.5c-3.1-2.4-6.7-4.8-10.8-7.4c-1.4,2.9-2.6,5.5-4.1,7.7c-0.2,0.7-0.7,1-1.2,0.7c-3.6-2.9-7.4-5.5-11.3-7.9
		c-0.2-0.2-0.2-0.5,0-1l4.6-9.6c0.2-0.5,0.7-1,1-1c0.5,0,2.2,1.2,5.3,3.4C449.9,60.3,452,62,453,63L453,63L453,63L453,63z"/>
	<path class="st0" d="M579.5,196.9c-2.6,0.7-4.1,1.2-4.6,1.2v-0.2c0,0,1-0.7,2.9-1.9c1.9-1.2,4.8-3.1,8.9-6.2c1.9-1.9,4.8-5,8.4-9.4
		c2.4-2.9,5-5.5,7.9-7.4c3.6-2.6,7-3.8,10.6-3.8c0.7,0,1.9,0.2,3.4,0.7c1.2,0.5,2.4,0.7,3.4,0.7c1.9,0,3.4-0.7,4.6-2.2
		c0.7-1.4,1.7-2.6,2.6-4.1c0.5-1,1.2-1.4,1.7-1.4c0.2,0,0.2,0.2,0.2,0.7s-0.2,1.7-0.7,3.1c-0.5,0.7,1.4,1,5,1c0.5,0,0.7,0,0.7-0.2
		c0,0-0.2-1-0.7-2.6c-0.2-0.5,0-1.2,0.7-2.2c1-1.7,1.4-2.4,1.7-2.2c1,0.7,1.4,2.2,1.4,3.8c0,1.7-0.5,3.4-1.2,5.3
		c-0.7,2.2-1.4,3.4-1.9,3.8c-1.7,1-4.3,0.7-7.9-1c-2.9,2.9-5.8,4.6-8.6,4.6c-0.7,0-1.9-0.2-3.1-0.7s-2.2-0.7-2.9-0.7
		c-4.8,0-9.8,2.2-14.9,7c-3.6,3.6-7.2,7.2-10.8,10.8C584,195,581.9,196.2,579.5,196.9L579.5,196.9L579.5,196.9L579.5,196.9z"/>
	<path class="st0" d="M527.9,67.3c2.9,0,5.3,1.4,7.4,4.8c2.2,3.1,3.8,7.4,4.6,12.7c0.2,0.5,0.2,0.7,0.2,1h0.2c0-0.2,0.2-0.5,0.2-1
		c0.5-3.1,1.7-7.9,3.4-14.2c1.9-4.3,3.8-6.5,6-6.5c1.2,0,2.4,0.7,3.4,2.2c1,1.4,1.4,2.4,1.4,3.4c0,0.5,0,1.4-0.5,2.4
		c-0.5,1.4-1,2.2-1.4,2.2c-0.2,0-0.7-0.7-1.7-1.7c-0.7-1-1.7-1.4-2.6-1.4c-1.9,0-3.6,4.6-5.3,13.7c-0.7,4.1-1.7,7-2.4,8.6
		c-0.7,1-1.2,1.7-1.7,1.7s-0.5-0.7-0.7-1.7c0.2-1.7-0.7-4.8-2.6-9.4c-1.9-4.8-3.1-7-4.1-7c-0.5,0-0.7,0-1,0.5
		c-0.2,0.2-0.5,0.5-1.2,0.5c-1,0-1.9-0.7-3.4-1.9c-1.4-1.2-1.9-2.2-1.9-2.9c0-0.2,0.5-1.4,1.7-3.4C526.9,68,527.6,67.3,527.9,67.3
		L527.9,67.3L527.9,67.3L527.9,67.3z"/>
	<path class="st0" d="M487.3,64.2c24.2-9.1,49.4-18.2,75.4-27.8c0.7-0.2,1.2-0.5,1.2-0.2c0.2,0,0.2,0.5,0,1.2
		c-1,2.2-1.7,3.4-2.2,3.8c-0.2,0.2-12.5,4.8-36.2,13.7c-24.2,8.9-37.9,14.4-40.6,16.1C485.4,68.7,486.1,66.6,487.3,64.2L487.3,64.2
		L487.3,64.2L487.3,64.2z"/>
	<path class="st0" d="M463.8,20.5c0.5-1.4,0.5-2.9,0.2-4.3c-0.2-1.4-1-2.2-2.2-2.2c-0.5,0-1.2,0.2-2.2,0.7s-1.4,1-1.4,1.4
		C458.3,17.4,460.2,18.8,463.8,20.5L463.8,20.5L463.8,20.5L463.8,20.5z M460.9,26.7c-4.6-2.4-6.7-4.8-6.7-7.4c0-3.1,1.4-6,4.3-8.4
		c2.9-2.6,5.3-3.6,7.2-2.9c1.7,0.5,2.4,2.2,2.4,5c0,2.6-0.5,5.5-1.7,8.9c2.4,1.2,3.8,2.4,4.3,3.4c0,1.2-1,3.4-3.1,6.2
		c-0.5-1-1.9-2.2-4.1-3.4c-2.6,3.6-5.8,6.7-9.6,9.6c-4.6,3.1-8.6,5.8-12.2,7.2c-1,0.5-5.3,2.2-13,5c-1.2,0.5-2.2,0.7-2.4,0.7
		c-0.2,0-0.2-0.2-0.2-0.2c0-0.2,0.5-1,1.9-1.7c5.8-3.6,11.5-7,17.5-10.3C452.5,34.2,457.5,30.3,460.9,26.7L460.9,26.7L460.9,26.7
		L460.9,26.7z"/>
	<path class="st0" d="M612.6,56.5c0.5-1.4,0.5-2.9,0.2-4.3c-0.2-1.4-1-2.2-2.2-2.2c-0.5,0-1.2,0.2-2.2,0.7s-1.4,1-1.4,1.4
		C607.1,53.4,609,54.8,612.6,56.5L612.6,56.5L612.6,56.5L612.6,56.5z M617.9,65.4c-2.4,5.8-3.6,10.3-3.6,13.7c0,4.1,1,6.2,3.1,6.2
		c1.2,0,2.6-1.7,4.3-4.6c0.2-0.2,0.2-0.5,0.5-0.7c0,0,0.2,0,0.2,0.2c0,0,0,0.2,0,0.7c-1.4,7.2-3.6,10.8-6.5,10.8
		c-3.1,0-4.6-2.6-4.6-7.9c0-2.6,0.5-6,1.9-10.3s2.2-6.5,2.2-6.7c0-0.5-1-1.4-3.1-2.6c-3.8,5-9.1,9.8-15.8,13.9
		c-4.6,2.6-9.1,5-13.9,7c-8.9,3.6-14.2,5.5-15.4,6.2c-1.2,0.5-1.9,0.7-2.4,0.7c-0.2,0-0.2-0.2-0.2-0.2c0-0.5,0.5-1,1.9-1.9
		c7.7-4.3,15.1-8.6,22.8-13c10.1-5.8,17-10.6,20.4-14.2c-4.6-2.4-6.7-4.8-6.7-7.4c0-3.1,1.4-6,4.3-8.6c2.9-2.4,5.3-3.4,7.2-2.6
		c1.4,0.5,2.4,2.2,2.4,5c0,2.6-0.5,5.5-1.7,8.6c2.4,1.4,3.4,2.9,3.4,4.3C618.6,62.7,618.3,63.9,617.9,65.4L617.9,65.4L617.9,65.4
		L617.9,65.4z"/>
	<path class="st0" d="M508.7,30.6c0-0.2,0.2-0.5,0.2-0.5c0.2-0.2,0.2-0.2,0.2,0c0.2,0.2,0.2,0.5,0,0.7c-1.2,7.2-3.4,10.8-6.5,10.8
		S498,39,498,33.7c0-6.5,1.7-13.4,5.5-20.4c1-1.7,1.4-2.6,1.7-2.6l0,0c0,0.2-0.2,1.2-0.7,2.9c-2.4,7.4-3.6,12.5-3.6,15.6
		c0,3.8,1,6,3.1,6C505.5,35.1,507,33.5,508.7,30.6L508.7,30.6L508.7,30.6L508.7,30.6z"/>
</g>
</svg>
