<?xml version="1.0" encoding="utf-8"?>
<!-- Generator: Adobe Illustrator 24.0.0, SVG Export Plug-In . SVG Version: 6.00 Build 0)  -->
<svg version="1.1" id="Layer_1" xmlns="http://www.w3.org/2000/svg" xmlns:xlink="http://www.w3.org/1999/xlink" x="0px" y="0px"
	 viewBox="0 0 634 206.2" style="enable-background:new 0 0 634 206.2;" xml:space="preserve">
<style type="text/css">
	.st0{fill:#C4692C;}
</style>
<g>
	<path class="st0" d="M389.7,30.3c0-4.8-0.7-8.6-2.2-11.8c0-1.7,1.2-5.8,4.1-12c0.2-0.7,0.5-1.2,0.7-1.2c0.5,0,0.7,0.5,1.2,1.2
		c0.7,1.7,2.4,6.2,5.3,13.7c3.1,7.9,4.8,12.7,5.3,14.6c0.5,1.2,0.5,2.4,0.5,2.9c0,2.2-1.9,1-6.2-3.8c-0.5-0.7-0.7-0.2-0.7,1
		c0,0.5,1.2,15.4,3.4,45.1c2.2,29.5,3.1,46.1,3.1,49.9c0,11.3-1.7,21.4-5,30c-1,1.7-1.4,2.9-1.9,3.8l0,0c-0.7,1.2-1,1.2-1.2,0.5
		c-0.2-1,0-2.9,0.2-5.5c0.5-4.1,0.7-8.6,0.7-13.7c0-4.8-1.2-24-3.6-57.8C390.9,53.4,389.7,34.4,389.7,30.3L389.7,30.3L389.7,30.3
		L389.7,30.3z"/>
	<path class="st0" d="M377.7,118.6c0,14.2-2.6,25.2-7.7,33.4c-4.3,6.7-9.4,10.3-15.1,10.3v-14.6c4.6,0,9.1-1.9,13.4-5.5
		c1.2-1,1.9-5,1.9-11.8c0-4.1-1.2-20.6-3.4-49.4c-2.2-28.8-3.1-45.8-3.1-51.1c0-4.6-0.7-8.4-2.2-11.5c0-1.7,1.4-5.8,4.1-12.2
		c0.2-0.7,0.5-1,1-1c0.2,0,0.5,0.2,1,1.2c0.7,1.7,2.6,6.2,5.5,13.7c2.9,7.9,4.6,12.7,5.3,14.4c0.2,1.4,0.5,2.6,0.5,3.1
		c0,2.2-2.2,1-6.2-3.8c-0.5-0.5-0.7-0.2-0.7,1c0,0.2,1,13.2,2.9,38.6C376.7,98.5,377.7,113.6,377.7,118.6L377.7,118.6L377.7,118.6
		L377.7,118.6z"/>
	<path class="st0" d="M338.1,127.3c-2.6-1.9-7.9-2.9-15.4-3.1c-2.6,0.2-5.3,0.2-7.4,0.7c4.8,3.1,8.2,6,10.3,8.4
		C329.4,131.1,333.7,129,338.1,127.3L338.1,127.3L338.1,127.3L338.1,127.3z M322,147.7c-9.4,6.2-14.9,9.8-17,10.8
		c-4.6,2.6-9.4,3.8-14.2,3.8v-14.6c6.7,0,14.4-2.6,22.8-7.9c-2.6-2.9-6-5.3-9.8-7.4c-3.4-1.9-6-2.9-7.7-2.9c-3.6,0-6.2,0.5-7.9,1.7
		c-0.7,0.2-1.2,0.5-1.7,0.5s-0.7-0.2-0.7-1c0-0.5,0-1,0.5-1.7l4.3-10.1c0.7-1.9,5-3.6,13-5.5c7.4-1.7,14.6-2.4,21.4-2.4
		c13.2,0,23.8,2.9,31.4,8.6c1.9,1.4,2.9,2.4,2.9,3.1c0,0.2-0.2,1.2-0.7,2.2l-4.6,8.4c-4.6,1.7-10.8,4.3-19,7.7
		c4.6,4.6,11.3,6.7,19.7,6.7v14.6c-6.5,0-11.5-0.7-15.1-2.4C335.2,158.2,329.4,154.2,322,147.7L322,147.7L322,147.7L322,147.7z"/>
	<path class="st0" d="M275.9,132.6c1.2,6.7,3.6,11.3,6.7,13.4c1.9,1,4.6,1.7,8.2,1.7v14.6c-5.3,0-9.4-1.2-12.2-3.4
		c-4.3-3.1-7-8.6-8.4-17c-1-5.3-1.9-20.4-2.6-45.8c-1-27.4-1.7-44.2-2.2-50.4c-1.2-10.1-3.1-19.4-5.8-28.6c0-2.4,1-5.8,2.9-10.6
		c0.5-1.2,0.7-1.9,1.2-1.9c0.2,0,0.7,0.7,1.2,1.7c3.1,6,5.3,16.3,7,30.7c1,9.1,1.9,27.1,2.6,54C274.9,116.2,275.7,130.2,275.9,132.6
		L275.9,132.6L275.9,132.6L275.9,132.6z"/>
	<path class="st0" d="M155.4,164.7c-5.3,0-10.8-1.4-16.6-3.8v-14.4c4.8,2.2,11,3.4,18.5,3.4c7.4,0,15.1-1.7,23.3-5
		c7.4-2.9,13.9-6.7,19.7-11.3c1-0.7,1.9-1.2,2.4-1.2c1.2,0,1.4,1,0.7,2.9c-0.7,2.2-1.2,4.3-1.2,6c0,5.3,4.1,7.9,12,7.9
		c6,0,11-2.6,14.9-7.7c2.6-3.8,5-7.7,7.4-11.5c1-1,1.7-1.4,2.4-1.7c1,0.2,1.2,1.2,0.7,3.1c-1,4.1-1.4,6-1.4,5.8c0,1.7,1,3.4,3.1,5
		c2.2,1.7,4.6,2.6,7.2,2.6c3.1,0,5.3-1,6.5-2.6c0-0.2-0.5-1-1.4-1.7c-1-1-1.4-1.7-1.4-2.2s1-3.8,2.9-10.1c0.5-1,0.7-1.4,1.2-1.4
		c1,0,1.7,1.2,2.6,3.6c1,2.4,1.4,4.3,1.4,5.3c0,6.2-1.2,11.3-3.6,15.4c-3.1,5.3-7.4,7.9-13.2,7.9c-4.3,0-8.2-3.1-11.5-9.4
		c-5.3,9.6-12.2,14.4-20.6,14.4c-9.6,0-14.6-5-15.1-15.1c0-0.5-0.2-0.7-0.7-0.7s-1.2,0.5-2.4,1.2c-4.6,3.8-9.6,7-15.6,9.6
		C169.6,162.8,162.4,164.7,155.4,164.7L155.4,164.7L155.4,164.7L155.4,164.7z"/>
	<path class="st0" d="M120.9,143.6c-1.7,3.1-4.3,6.5-8.4,10.1c-6,5-12.2,7.7-18.7,7.7v-14.6c8.2,0,15.1-2.4,20.6-6.7
		c0.5-0.5,2.6-2.6,6.5-7c3.6-3.8,5.5-5.8,5.8-5.8c0.7,0,1,0.5,1,1.4c0,0.5,0,1.2-0.2,2.2s-0.2,1.7-0.2,2.2c0,5.3,3.8,9.6,11.8,13.2
		v14.6C130,157.3,124,151.5,120.9,143.6L120.9,143.6L120.9,143.6L120.9,143.6z"/>
	<path class="st0" d="M94,161.4c-5,0-8.6-0.5-10.8-1c-4.8-1.4-8.6-4.6-11.8-9.4c-1.9-3.1-3.8-6.5-5.8-9.8c-1.9-2.9-3.6-4.1-5.3-4.1
		c-5.5,0-11.3,4.6-17.5,13.9c-1,1.7-2.9,6-5.8,13c-2.6,7-5,12-7.2,15.4c-3.1,4.8-6.7,7.2-10.3,7.2c-5.3,0-9.8-4.3-13.7-12.7
		c-3.4-7.4-4.8-15.1-4.8-23c0-9.6,1-17.5,2.9-23.3c0.5-1.9,1-2.9,1.4-2.9c0.7,0,1,1.2,0.5,3.6c-0.7,6.2-1,11.5-1,15.8
		c0,20.4,4.6,30.7,14.2,30.7c3.8,0,7.2-3.1,10.6-9.1c3.1-7.2,6.5-14.4,9.8-21.6c2.9-5.8,6.5-10.8,10.8-15.1
		c4.1-4.3,8.2-6.2,11.5-6.2c2.6,0,5.3,1.7,7.4,4.8c1.9,3.1,3.6,6.2,5.5,9.4c2.6,3.6,5.3,6.2,8.2,7.7c2.9,1.2,6.5,1.9,11,1.9v14.8H94
		L94,161.4z"/>
	<path class="st0" d="M314.3,95.6c-0.2-0.2-0.2-0.5,0-1l4.6-9.6c0.2-0.5,0.7-0.7,1-0.7c0.5,0,2.6,1.2,6.2,3.6
		c3.8,2.6,5.8,4.1,5.8,4.6c0,1.7-1.7,5-5,10.3c-0.5,0.7-0.7,1-1.2,0.7C322,100.6,318.1,98,314.3,95.6L314.3,95.6L314.3,95.6
		L314.3,95.6z"/>
	<path class="st0" d="M228.4,104.7l3.8-7.7c0.2-0.7,0.5-1,1-1s2.4,1.2,6.2,3.8c3.6,2.6,5.5,4.1,5.5,4.6c0,1.7-1.7,5-4.8,10.3
		c-0.5,0.7-1,0.7-1.4,0.5c-3.1-2.4-6.7-4.8-10.8-7.4c-1.4,2.9-2.6,5.5-4.1,7.7c-0.2,0.7-0.7,1-1.2,0.7c-3.6-2.9-7.4-5.5-11.3-7.9
		c-0.2-0.2-0.2-0.5,0-1l4.6-9.6c0.2-0.5,0.7-1,1-1c0.5,0,2.2,1.2,5.3,3.4C225.3,102.1,227.4,103.8,228.4,104.7L228.4,104.7
		L228.4,104.7L228.4,104.7z M215.2,89.8c-0.2-0.2-0.2-0.5,0-1l4.8-9.6c0.2-0.5,0.5-0.7,1-0.7s2.4,1.2,6.2,3.6
		c3.6,2.6,5.5,4.1,5.5,4.6c0,1.7-1.7,5-4.8,10.3c-0.5,0.7-1,1-1.4,0.5C222.9,94.9,219,92.2,215.2,89.8L215.2,89.8L215.2,89.8
		L215.2,89.8z"/>
	<path class="st0" d="M115.1,194.5l3.8-7.9c0.2-0.5,0.5-0.7,1-0.7s2.4,1.2,6.2,3.8c3.6,2.4,5.5,3.8,5.5,4.3c0,1.7-1.7,5.3-4.8,10.6
		c-0.5,0.7-1,0.7-1.4,0.5c-3.1-2.4-6.7-4.8-10.8-7.4c-1.4,2.9-2.6,5.5-4.1,7.7c-0.2,0.7-0.7,1-1.2,0.7c-3.6-2.9-7.4-5.5-11.3-7.9
		c-0.2-0.2-0.2-0.5,0-1l4.6-9.6c0.2-0.5,0.7-1,1-1c0.5,0,2.2,1.2,5.3,3.4C112,191.8,114.1,193.5,115.1,194.5L115.1,194.5
		L115.1,194.5L115.1,194.5z"/>
	<path class="st0" d="M55.3,96.8l3.8-7.9c0.2-0.5,0.5-0.7,1-0.7s2.4,1.2,6.2,3.8c3.6,2.4,5.5,3.8,5.5,4.3c0,1.7-1.7,5.3-4.8,10.6
		c-0.5,0.7-1,0.7-1.4,0.5c-3.1-2.4-6.7-4.8-10.8-7.4c-1.4,2.9-2.6,5.5-4.1,7.7c-0.2,0.7-0.7,1-1.2,0.7c-3.6-2.9-7.4-5.5-11.3-7.9
		c-0.2-0.2-0.2-0.5,0-1l4.6-9.6c0.2-0.5,0.7-1,1-1c0.5,0,2.2,1.2,5.3,3.4C52.2,94.2,54.4,95.8,55.3,96.8L55.3,96.8L55.3,96.8
		L55.3,96.8z"/>
	<path class="st0" d="M339.7,23.4c0-1.2-2.4-3.4-7.4-6.2c-1.7,2.9-2.4,5.5-2.4,7.9c0,1.4,0.7,2.4,2.2,2.4c1.2,0,2.6-0.5,4.3-1.4
		C338.1,25.3,339.3,24.3,339.7,23.4L339.7,23.4L339.7,23.4L339.7,23.4z M334.5,4.2c0.7-1.2,1.7-1.7,2.4-1.7c0.5,0,1,0.2,1,0.7
		c0,0-0.2,0.2-0.2,0.5c-1,2.2-1.9,4.6-2.6,7c5,3.6,7.4,7.4,7.2,11c-0.5,4.1-1,6.7-1.7,7.7c-2.4,2.9-5,4.6-8.4,4.6s-4.8-2.2-4.8-6
		c0-0.7,0-1.7,0.2-2.6C328.7,17.6,331.1,10.6,334.5,4.2L334.5,4.2L334.5,4.2L334.5,4.2z"/>
	<path class="st0" d="M292.2,77.1c18.5-6.7,37.7-13.9,57.8-21.4c0.7-0.2,1.2-0.5,1.4-0.2c0,0,0,0.5-0.2,1.2c-1,2.2-1.7,3.4-2.2,3.8
		c-16.8,6.2-36.7,13.9-59.3,23.3C290.3,81.7,291,79.5,292.2,77.1L292.2,77.1L292.2,77.1L292.2,77.1z"/>
	<path class="st0" d="M293.4,48.3c0.5-3.4,1.7-7.2,3.6-12c1.4-3.6,2.2-7.2,2.2-10.8c0-7-3.4-13.4-9.8-19.9c-0.5-0.5-0.5-1,0-1.4
		l2.2-3.8c0.2-0.5,0.5-0.5,1,0c6.2,5,9.6,12.5,9.6,22.3c0,4.6-1.2,9.6-3.1,14.6c-2.2,5.3-3.1,8.9-3.1,10.8c0,4.1,1,6.2,3.1,6.2
		c1.4,0,2.9-1.7,4.6-4.6c0-0.2,0.2-0.5,0.2-0.5c0.2-0.2,0.2-0.2,0.2,0c0,0,0,0.5,0,0.7c-1.2,7.2-3.4,10.8-6.5,10.8
		c-2.9,0-4.6-3.1-4.6-8.9C292.9,50.7,293.2,49.5,293.4,48.3L293.4,48.3L293.4,48.3L293.4,48.3z"/>
	<path class="st0" d="M319.6,177.9c2.9,0,5.3,1.4,7.4,4.8c2.2,3.1,3.8,7.4,4.6,12.7c0.2,0.5,0.2,0.7,0.2,1h0.2c0-0.2,0.2-0.5,0.2-1
		c0.5-3.1,1.7-7.9,3.4-14.2c1.9-4.3,3.8-6.5,6-6.5c1.2,0,2.4,0.7,3.4,2.2c1,1.4,1.4,2.4,1.4,3.4c0,0.5,0,1.4-0.5,2.4
		c-0.5,1.4-1,2.2-1.4,2.2c-0.2,0-0.7-0.7-1.7-1.7c-0.7-1-1.7-1.4-2.6-1.4c-1.9,0-3.6,4.6-5.3,13.7c-0.7,4.1-1.7,7-2.4,8.6
		c-0.7,1-1.2,1.7-1.7,1.7s-0.5-0.7-0.7-1.7c0.2-1.7-0.7-4.8-2.6-9.4c-1.9-4.8-3.1-7-4.1-7c-0.5,0-0.7,0-1,0.5
		c-0.2,0.2-0.5,0.5-1.2,0.5c-1,0-1.9-0.7-3.4-1.9c-1.4-1.2-1.9-2.2-1.9-2.9c0-0.2,0.5-1.4,1.7-3.4
		C318.6,178.6,319.3,177.9,319.6,177.9L319.6,177.9L319.6,177.9L319.6,177.9z"/>
	<path class="st0" d="M275.9,194.2c0-0.2,0.2-0.5,0.2-0.5c0.2-0.2,0.2-0.2,0.2,0c0.2,0.2,0.2,0.5,0,0.7c-1.2,7.2-3.4,10.8-6.5,10.8
		s-4.6-2.6-4.6-7.9c0-6.5,1.7-13.4,5.5-20.4c1-1.7,1.4-2.6,1.7-2.6l0,0c0,0.2-0.2,1.2-0.7,2.9c-2.4,7.4-3.6,12.5-3.6,15.6
		c0,3.8,1,6,3.1,6C272.8,198.8,274.2,197.1,275.9,194.2L275.9,194.2L275.9,194.2L275.9,194.2z"/>
	<path class="st0" d="M21.5,51.2c2.9,0,5.3,1.4,7.4,4.8c2.2,3.1,3.8,7.4,4.6,12.7c0.2,0.5,0.2,0.7,0.2,1h0.2c0-0.2,0.2-0.5,0.2-1
		c0.5-3.1,1.7-7.9,3.4-14.2c1.9-4.3,3.8-6.5,6-6.5c1.2,0,2.4,0.7,3.4,2.2c1,1.4,1.4,2.4,1.4,3.4c0,0.5,0,1.4-0.5,2.4
		c-0.5,1.4-1,2.2-1.4,2.2c-0.2,0-0.7-0.7-1.7-1.7c-0.7-1-1.7-1.4-2.6-1.4c-1.9,0-3.6,4.6-5.3,13.7c-0.7,4.1-1.7,7-2.4,8.6
		c-0.7,1-1.2,1.7-1.7,1.7s-0.5-0.7-0.7-1.7c0.2-1.7-0.7-4.8-2.6-9.4c-1.9-4.8-3.1-7-4.1-7c-0.5,0-0.7,0-1,0.5
		c-0.2,0.2-0.5,0.5-1.2,0.5c-1,0-1.9-0.7-3.4-1.9c-1.4-1.2-1.9-2.2-1.9-2.9c0-0.2,0.5-1.4,1.7-3.4C20.5,51.9,21.3,51.2,21.5,51.2
		L21.5,51.2L21.5,51.2L21.5,51.2z"/>
	<path class="st0" d="M86.5,44.2c0-0.2,0.2-0.5,0.2-0.5c0.2-0.2,0.2-0.2,0.2,0c0.2,0.2,0.2,0.5,0,0.7c-1.2,7.2-3.4,10.8-6.5,10.8
		s-4.6-2.6-4.6-7.9c0-6.5,1.7-13.4,5.5-20.4c1-1.7,1.4-2.6,1.7-2.6l0,0c0,0.2-0.2,1.2-0.7,2.9c-2.4,7.4-3.6,12.5-3.6,15.6
		c0,3.8,1,6,3.1,6C83.4,48.8,84.9,47.1,86.5,44.2L86.5,44.2L86.5,44.2L86.5,44.2z"/>
	<path class="st0" d="M10.7,114.6c0-0.2,0.2-0.5,0.2-0.5c0.2-0.2,0.2-0.2,0.2,0c0.2,0.2,0.2,0.5,0,0.7c-1.2,7.2-3.4,10.8-6.5,10.8
		S0,123,0,117.7c0-6.5,1.7-13.4,5.5-20.4c1-1.7,1.4-2.6,1.7-2.6l0,0c0,0.2-0.2,1.2-0.7,2.9c-2.4,7.4-3.6,12.5-3.6,15.6
		c0,3.8,1,6,3.1,6C7.6,119.1,9,117.4,10.7,114.6L10.7,114.6L10.7,114.6L10.7,114.6z"/>
	<path class="st0" d="M193.3,198.3c18.5-6.7,37.7-13.9,57.8-21.4c0.7-0.2,1.2-0.5,1.4-0.2c0,0,0,0.5-0.2,1.2c-1,2.2-1.7,3.4-2.2,3.8
		c-16.8,6.2-36.7,13.9-59.3,23.3C191.4,202.9,192.1,200.7,193.3,198.3L193.3,198.3L193.3,198.3L193.3,198.3z"/>
	<path class="st0" d="M175.8,185.1c0,2.6-1.2,5.5-3.1,8.6c-2.2,3.1-4.8,6-8.2,8.4c-1.4,1-2.2,1.4-2.4,1.4v-0.2
		c0-0.2,0.5-0.7,1.4-1.9c5.5-6,8.4-9.8,8.4-12c0-1.7-1-2.6-2.6-2.6c-1,0-1.9,0.2-2.6,0.7c-0.7,0.2-1,0.5-1.2,0.5c0,0-0.2,0-0.2-0.2
		c0,0,0-0.5,0.2-1.4c1-4.1,2.9-6,6.2-6C174.4,180.3,175.8,182,175.8,185.1L175.8,185.1L175.8,185.1L175.8,185.1z"/>
	<path class="st0" d="M96.4,91.3c40.6-15.4,81.8-30.7,124.1-46.6c0.7-0.2,1.2-0.5,1.2-0.2c0.2,0,0.2,0.5,0,1.2
		c-1,2.2-1.7,3.4-2.2,3.8C180.9,63.9,138.9,80,94,98C94.5,95.8,95.2,93.7,96.4,91.3L96.4,91.3L96.4,91.3L96.4,91.3z"/>
	<path class="st0" d="M42.9,192.6c9.6-3.4,19.9-7.2,31-11c1-0.2,1.2-0.5,1.4-0.2c0.2,0,0.2,0.5-0.2,1.2c-0.7,2.2-1.4,3.4-1.9,3.8
		c-9.6,3.4-20.4,7.4-32.6,13C40.9,197.1,41.7,195,42.9,192.6L42.9,192.6L42.9,192.6L42.9,192.6z"/>
	<path class="st0" d="M147.5,16.4c0,0.5-0.2,1.4-0.7,2.4c-0.2,1.4-0.7,2.2-1.4,2.2c-0.2,0-0.7-0.7-1.7-1.7c-0.7-1-1.7-1.4-2.4-1.4
		c-1.9,0-3.8,4.6-5.5,13.7c-0.7,4.1-1.4,7-2.4,8.6c-0.7,1-1.2,1.7-1.7,1.7c-0.2,0-0.5-0.7-0.5-1.7c0-1.7-1-4.8-2.9-9.4
		c-1.9-4.8-3.1-7-3.8-7s-1,0-1.2,0.5c0,0.2-0.5,0.5-1.2,0.5c-1,0-1.9-0.7-3.4-1.9c-1.2-1.2-1.9-2.2-1.9-2.9c0-0.2,0.5-1.4,1.7-3.4
		c1.2-1.9,1.9-2.6,2.2-2.6c2.6,0,5,1.4,7.2,4.8c2.4,3.4,3.8,7.4,4.8,12.7c0,0.5,0,0.7,0,1c0.2,0.2,0.2,0.2,0.2,0s0.2-0.5,0.5-1
		c0.2-3.1,1.4-7.9,3.1-14.2c1.9-4.3,3.8-6.5,6-6.5c1.2,0,2.4,0.7,3.6,2.2C147,14.5,147.5,15.4,147.5,16.4L147.5,16.4L147.5,16.4
		L147.5,16.4z M131.7,44c-1.7,3.8-5,7.7-10.1,11.3c-4.6,3.4-8.6,5.8-12.2,7.4c-0.7,0.5-5,2.2-13,5c-1.2,0.5-1.9,0.7-2.4,0.7
		c-0.2,0-0.2-0.2-0.2-0.2c0-0.2,0.7-1,1.9-1.7c6.5-3.8,15.6-9.4,27.6-17.3c2.9-2.2,5-4.3,6.7-6.2c1.9-2.2,2.9-3.4,3.1-3.4
		c0,0,0,0,0,0.2C133.1,40.2,132.6,41.6,131.7,44L131.7,44L131.7,44L131.7,44z"/>
	<path class="st0" d="M163.6,91.8c0,0.5-0.2,1.4-0.5,2.4c-0.5,1.4-1,2.2-1.7,2.2c-0.2,0-0.7-0.7-1.7-1.7c-0.7-1-1.7-1.4-2.4-1.4
		c-1.9,0-3.8,4.6-5.5,13.7c-0.7,4.1-1.4,6.7-2.4,8.4c-0.7,1.2-1.2,1.7-1.7,1.7c-0.2,0-0.5-0.5-0.5-1.4c0-1.7-1-4.8-2.9-9.4
		c-1.7-4.8-3.1-7-3.8-7c-0.5,0-1,0-1,0.5c-0.2,0.2-0.7,0.5-1.4,0.5c-1,0-2.2-0.7-3.6-1.9c-1.4-1.4-1.9-2.4-1.7-2.9
		c2.2-4.1,3.4-6,3.8-6c2.6,0,5.3,1.4,7.4,4.8c2.2,3.1,3.6,7.4,4.6,12.5c0,0.7,0,1,0,1c0.2,0.2,0.2,0.2,0.2,0c0,0,0.2-0.2,0.5-1
		c0.5-2.9,1.4-7.7,3.1-13.9c1.9-4.3,3.8-6.5,6.2-6.5c1,0,2.2,0.7,3.4,2.2C163.1,89.8,163.6,90.8,163.6,91.8L163.6,91.8L163.6,91.8
		L163.6,91.8z M132.9,95.4c0.5-1,1-1.4,1.2-1.4c0,0,0.2,0.2,0,0.2c0.2,0.7-0.5,2.4-1.9,5c-2.4,4.6-5.8,8.2-10.1,11.3
		c-4.6,3.4-8.6,5.8-12.2,7.4c-0.7,0.5-5,2.2-13,5c-1.2,0.5-1.9,0.7-2.4,0.7c-0.2,0-0.2-0.2-0.2-0.2c0-0.2,0.7-1,1.9-1.7
		c6.7-3.6,15.8-9.4,27.6-17.3C128.5,100.9,131.4,97.8,132.9,95.4L132.9,95.4L132.9,95.4L132.9,95.4z"/>
	<path class="st0" d="M193.3,102.1c0-0.2,0.2-0.5,0.2-0.5c0.2-0.2,0.2-0.2,0.2,0c0.2,0.2,0.2,0.5,0,0.7c-1.2,7.2-3.4,10.8-6.5,10.8
		s-4.6-2.6-4.6-7.9c0-6.5,1.7-13.4,5.5-20.4c1-1.7,1.4-2.6,1.7-2.6l0,0c0,0.2-0.2,1.2-0.7,2.9c-2.4,7.4-3.6,12.5-3.6,15.6
		c0,3.8,1,6,3.1,6C190.2,106.6,191.7,105,193.3,102.1L193.3,102.1L193.3,102.1L193.3,102.1z"/>
	<path class="st0" d="M249.5,57c0-0.2,0.2-0.5,0.2-0.5c0.2-0.2,0.2-0.2,0.2,0c0.2,0.2,0.2,0.5,0,0.7c-1.2,7.2-3.4,10.8-6.5,10.8
		s-4.6-2.6-4.6-7.9c0-6.5,1.7-13.4,5.5-20.4c1-1.7,1.4-2.6,1.7-2.6l0,0c0,0.2-0.2,1.2-0.7,2.9c-2.4,7.4-3.6,12.5-3.6,15.6
		c0,3.8,1,6,3.1,6C246.4,61.5,247.8,59.8,249.5,57L249.5,57L249.5,57L249.5,57z"/>
	<path class="st0" d="M212.1,6.1c2.9,0,5.3,1.4,7.4,4.8c2.2,3.1,3.8,7.4,4.6,12.7c0.2,0.5,0.2,0.7,0.2,1h0.2c0-0.2,0.2-0.5,0.2-1
		c0.5-3.1,1.7-7.9,3.4-14.2c1.9-4.3,3.8-6.5,6-6.5c1.2,0,2.4,0.7,3.4,2.2c1,1.4,1.4,2.4,1.4,3.4c0,0.5,0,1.4-0.5,2.4
		c-0.5,1.4-1,2.2-1.4,2.2c-0.2,0-0.7-0.7-1.7-1.7c-0.7-1-1.7-1.4-2.6-1.4c-1.9,0-3.6,4.6-5.3,13.7c-0.7,4.1-1.7,7-2.4,8.6
		c-0.7,1-1.2,1.7-1.7,1.7s-0.5-0.7-0.7-1.7c0.2-1.7-0.7-4.8-2.6-9.4c-1.9-4.8-3.1-7-4.1-7c-0.5,0-0.7,0-1,0.5
		c-0.2,0.2-0.5,0.5-1.2,0.5c-1,0-1.9-0.7-3.4-1.9c-1.4-1.2-1.9-2.2-1.9-2.9c0-0.2,0.5-1.4,1.7-3.4C211.1,6.8,211.8,6.1,212.1,6.1
		L212.1,6.1L212.1,6.1L212.1,6.1z"/>
	<path class="st0" d="M181.8,30.1c0-0.2,0.2-0.5,0.2-0.5c0.2-0.2,0.2-0.2,0.2,0c0.2,0.2,0.2,0.5,0,0.7c-1.2,7.2-3.4,10.8-6.5,10.8
		s-4.6-2.6-4.6-7.9c0-6.5,1.7-13.4,5.5-20.4c1-1.7,1.4-2.6,1.7-2.6l0,0c0,0.2-0.2,1.2-0.7,2.9c-2.4,7.4-3.6,12.5-3.6,15.6
		c0,3.8,1,6,3.1,6C178.7,34.6,180.1,33,181.8,30.1L181.8,30.1L181.8,30.1L181.8,30.1z"/>
	<path class="st0" d="M575.2,116c1.2-1,2.2-1.4,2.9-1.4c0.5,0,0.7,0.5,0.7,1.4c0,0.7-0.2,2.2-0.7,4.1s-0.7,3.4-0.7,4.6
		c0,5.3,3.8,8.2,11.3,8.2c6,0,11-2.6,14.9-7.7c2.4-4.1,5-7.9,7.4-11.8c1-1,1.7-1.4,2.4-1.4c1,0,1.2,1,0.7,3.1c-1,4.1-1.7,6-1.7,5.5
		c0,1.7,1,3.4,2.9,4.8c1.7,1.4,4.1,2.4,6.7,2.4c3.4,0,5.5-1,6.5-2.6c0-0.2-1-2.2-3.1-5.8c0.2-1.9,1.2-5.3,2.6-9.8
		c0.2-1.4,0.7-2.2,1.2-2.2s1,0.2,1.7,1.2c1.9,2.9,3.1,6.2,3.1,10.1c0,6-1.4,11-4.1,15.4c-2.9,5.3-7.2,7.9-13,7.9
		c-3.8,0-7.4-3.1-10.6-8.9c-5.3,9.6-12.2,14.4-20.6,14.4c-10.1,0-14.9-5.8-14.9-16.8c-3.8,4.6-10.3,8.6-18.7,12.5V130
		c6.2-3.1,10.3-5,11.5-5.8C567.5,122.2,571.3,119.4,575.2,116L575.2,116L575.2,116L575.2,116z"/>
	<path class="st0" d="M538.5,131.8c-3.6-4.6-6.7-6.7-9.6-6.7c-4.3,0-6.2,1-6.2,3.4c0,2.9,2.9,4.3,8.6,4.3
		C533.4,132.8,535.8,132.3,538.5,131.8L538.5,131.8L538.5,131.8L538.5,131.8z M545.9,149.4c0-1.4-0.5-3.1-1-4.8
		c-2.9,1-7.2,1.7-12.5,1.7c-11.5,0-17.3-4.1-17.3-12c0-6,1.7-11.3,5.5-16.1c3.6-4.1,7.4-6.2,11.5-6.2c3.1,0,6.2,1.9,9.8,5.5
		c3.1,3.6,6,7.7,8.4,12.7c0.2,0,0.7,0,1.7-0.5v13.2l-0.5,0.5c0,2.9-0.7,6.2-2.2,10.6c-1.7,5.5-4.3,10.1-7.4,13.7
		c-7.2,8.6-15.1,16.1-23.8,22.6c-13,9.6-24,14.6-33.6,14.6c-8.2,0-14.4-3.1-18.7-9.1c-3.8-5-5.8-11.8-5.8-19.7
		c0-10.1,2.2-20.4,6.2-31.2c1.2-2.4,1.7-3.4,2.2-3.4c0.2,0,0.2,0.2,0.2,0.7c0,0.7-0.2,1.9-0.5,3.4c-3.1,10.6-4.6,18.5-4.6,24
		c0,5,1.2,9.4,3.6,13c3.8,5,9.8,7.7,18.2,7.7c7.2,0,15.8-3.1,26.2-9.4c8.2-5,16.1-11,23.8-18.2C542.3,155.8,545.9,151.5,545.9,149.4
		L545.9,149.4L545.9,149.4L545.9,149.4z"/>
	<path class="st0" d="M480.4,113.1c-0.5-2.2-1.2-3.8-2.2-5c-0.7-1.4-1.2-2.2-1.4-2.6c0-0.5,0-2.2,0.5-5.5c0.5-3.1,0.7-5.3,1.2-6.5
		c0.2-1.2,0.5-1.7,1-1.7c0.2,0,0.5,0.2,1,0.7c3.4,3.8,7,7.7,11,11.8c1.7,1.7,2.4,2.6,2.4,3.1c0,0.2-0.2,0.5-0.7,0.5
		c-0.7,0-2.6-0.5-5.5-1.2c1.7,4.1,3.6,8.2,5.3,12c2.6,6.7,4.1,12.2,4.1,17.3c0,2.4-0.5,5.3-1.4,8.9c-1.2,4.1-2.6,7.2-4.6,9.4
		c-7,7.9-18.7,16.6-35.3,25.9c-14.4,8.4-22.8,12.5-25.4,12.5c-0.5,0-7.7,1.7-21.4,5c-14.4,3.4-23.5,5.5-27.1,6c-3.8,0.7-6.2,1-7.2,1
		c-0.5,0-0.5,0-0.5-0.2s2.6-1.7,7.9-4.1c1.9-1,13-5.8,33.4-14.4c14.2-6,25.9-11.5,35.3-16.6c14.2-7.7,25-14.4,32.4-19.9
		c5.5-4.3,8.4-7.4,8.4-9.4c0-0.5-1.4-3.8-4.3-10.1C484,123,481.6,117.2,480.4,113.1L480.4,113.1L480.4,113.1L480.4,113.1z"/>
	<path class="st0" d="M460.7,79.8c0,3.8-1.9,9.1-5.8,15.6c-2.4,4.1-6,9.6-10.8,16.8c4.8,5.5,8.2,10.6,9.8,14.9
		c1,3.1,1.7,7.2,1.7,11.8c0,1.9-0.5,4.3-1.4,7.4c-0.7,2.9-1.7,5-2.6,6.5c-1.9,2.9-5,5.8-9.8,8.6c-5,3.4-9.4,5-13,5
		c-5.8,0-8.6-4.3-8.6-13c0-5.8,1-11.5,2.9-16.8c1.9-4.6,5-10.6,10.1-18.5c-4.3-4.1-8.9-9.8-13.9-17c-0.5-0.7-1.7-1.9-3.6-3.8
		c-1-1-1.4-2.2-1.4-3.6c0-2.2,0.2-4.6,0.7-7.4c0.7-2.9,1.2-4.1,1.4-4.1c0.7,0,2.9,1.2,7,3.8c3.8,2.6,7,4.6,8.9,6.2
		c1.2,0.7,1.7,1.4,1.7,1.4v0.2c0,0.2-0.7,0.5-2.4,0.5c-3.1,0-4.8,0.2-4.8,0.5c0,0.2,0.5,0.7,1.4,1.9c3.8,4.8,7.7,8.4,11.8,11.3
		c1-1.4,4.3-6.2,9.6-14.4c4.6-7,7.2-11.8,8.4-14.6c1.2-2.9,1.9-4.1,2.4-4.1C460.5,75,460.7,76.4,460.7,79.8L460.7,79.8L460.7,79.8
		L460.7,79.8z M451.3,138.8c-2.6-5.3-7.2-10.8-13.4-16.1c-2.2,2.2-4.8,6.2-8.2,12c-3.8,6.5-5.5,10.6-5.5,12.7c0,2.9,1.9,4.3,6.2,4.3
		c1.9,0,4.3-0.7,7.4-1.9c4.3-1.9,8.4-4.6,11.8-7.9C451.1,140.5,451.6,139.5,451.3,138.8L451.3,138.8L451.3,138.8L451.3,138.8z"/>
	<path class="st0" d="M437.9,61.8l3.8-7.9c0.2-0.5,0.5-0.7,1-0.7s2.4,1.2,6.2,3.8c3.6,2.4,5.5,3.8,5.5,4.3c0,1.7-1.7,5.3-4.8,10.6
		c-0.5,0.7-1,0.7-1.4,0.5c-3.1-2.4-6.7-4.8-10.8-7.4c-1.4,2.9-2.6,5.5-4.1,7.7c-0.2,0.7-0.7,1-1.2,0.7c-3.6-2.9-7.4-5.5-11.3-7.9
		c-0.2-0.2-0.2-0.5,0-1l4.6-9.6c0.2-0.5,0.7-1,1-1c0.5,0,2.2,1.2,5.3,3.4C434.8,59.1,436.9,60.8,437.9,61.8L437.9,61.8L437.9,61.8
		L437.9,61.8z"/>
	<path class="st0" d="M564.4,195.4c-2.6,0.7-4.1,1.2-4.6,1.2v-0.2c0,0,1-0.7,2.9-1.9c1.9-1.2,4.8-3.1,8.9-6.2c1.9-1.9,4.8-5,8.4-9.4
		c2.4-2.9,5-5.5,7.9-7.4c3.6-2.6,7-3.8,10.6-3.8c0.7,0,1.9,0.2,3.4,0.7c1.2,0.5,2.4,0.7,3.4,0.7c1.9,0,3.4-0.7,4.6-2.2
		c0.7-1.4,1.7-2.6,2.6-4.1c0.5-1,1.2-1.4,1.7-1.4c0.2,0,0.2,0.2,0.2,0.7s-0.2,1.7-0.7,3.1c-0.5,0.7,1.4,1,5,1c0.5,0,0.7,0,0.7-0.2
		c0,0-0.2-1-0.7-2.6c-0.2-0.5,0-1.2,0.7-2.2c1-1.7,1.4-2.4,1.7-2.2c1,0.7,1.4,2.2,1.4,3.8c0,1.7-0.5,3.4-1.2,5.3
		c-0.7,2.2-1.4,3.4-1.9,3.8c-1.7,1-4.3,0.7-7.9-1c-2.9,2.9-5.8,4.6-8.6,4.6c-0.7,0-1.9-0.2-3.1-0.7c-1.2-0.5-2.2-0.7-2.9-0.7
		c-4.8,0-9.8,2.2-14.9,7c-3.6,3.6-7.2,7.2-10.8,10.8C568.9,193.5,566.8,194.7,564.4,195.4L564.4,195.4L564.4,195.4L564.4,195.4z"/>
	<path class="st0" d="M512.8,65.8c2.9,0,5.3,1.4,7.4,4.8c2.2,3.1,3.8,7.4,4.6,12.7c0.2,0.5,0.2,0.7,0.2,1h0.2c0-0.2,0.2-0.5,0.2-1
		c0.5-3.1,1.7-7.9,3.4-14.2c1.9-4.3,3.8-6.5,6-6.5c1.2,0,2.4,0.7,3.4,2.2c1,1.4,1.4,2.4,1.4,3.4c0,0.5,0,1.4-0.5,2.4
		c-0.5,1.4-1,2.2-1.4,2.2c-0.2,0-0.7-0.7-1.7-1.7c-0.7-1-1.7-1.4-2.6-1.4c-1.9,0-3.6,4.6-5.3,13.7c-0.7,4.1-1.7,7-2.4,8.6
		c-0.7,1-1.2,1.7-1.7,1.7s-0.5-0.7-0.7-1.7c0.2-1.7-0.7-4.8-2.6-9.4c-1.9-4.8-3.1-7-4.1-7c-0.5,0-0.7,0-1,0.5
		c-0.2,0.2-0.5,0.5-1.2,0.5c-1,0-1.9-0.7-3.4-1.9c-1.4-1.2-1.9-2.2-1.9-2.9c0-0.2,0.5-1.4,1.7-3.4C511.8,66.6,512.5,65.8,512.8,65.8
		L512.8,65.8L512.8,65.8L512.8,65.8z"/>
	<path class="st0" d="M472.2,63c24.2-9.1,49.4-18.2,75.4-27.8c0.7-0.2,1.2-0.5,1.2-0.2c0.2,0,0.2,0.5,0,1.2c-1,2.2-1.7,3.4-2.2,3.8
		c-0.2,0.2-12.5,4.8-36.2,13.7c-24.2,8.9-37.9,14.4-40.6,16.1C470.3,67.5,471,65.4,472.2,63L472.2,63L472.2,63L472.2,63z"/>
	<path class="st0" d="M448.7,19c0.5-1.4,0.5-2.9,0.2-4.3c-0.2-1.4-1-2.2-2.2-2.2c-0.5,0-1.2,0.2-2.2,0.7s-1.4,1-1.4,1.4
		C443.2,15.9,445.1,17.4,448.7,19L448.7,19L448.7,19L448.7,19z M445.8,25.3c-4.6-2.4-6.7-4.8-6.7-7.4c0-3.1,1.4-6,4.3-8.4
		c2.9-2.6,5.3-3.6,7.2-2.9c1.7,0.5,2.4,2.2,2.4,5c0,2.6-0.5,5.5-1.7,8.9c2.4,1.2,3.8,2.4,4.3,3.4c0,1.2-1,3.4-3.1,6.2
		c-0.5-1-1.9-2.2-4.1-3.4c-2.6,3.6-5.8,6.7-9.6,9.6c-4.6,3.1-8.6,5.8-12.2,7.2c-1,0.5-5.3,2.2-13,5c-1.2,0.5-2.2,0.7-2.4,0.7
		S411,49,411,49c0-0.2,0.5-1,1.9-1.7c5.8-3.6,11.5-7,17.5-10.3C437.4,32.7,442.5,28.9,445.8,25.3L445.8,25.3L445.8,25.3L445.8,25.3z
		"/>
	<path class="st0" d="M597.5,55c0.5-1.4,0.5-2.9,0.2-4.3c-0.2-1.4-1-2.2-2.2-2.2c-0.5,0-1.2,0.2-2.2,0.7s-1.4,1-1.4,1.4
		C592,51.9,593.9,53.4,597.5,55L597.5,55L597.5,55L597.5,55z M602.8,63.9c-2.4,5.8-3.6,10.3-3.6,13.7c0,4.1,1,6.2,3.1,6.2
		c1.2,0,2.6-1.7,4.3-4.6c0.2-0.2,0.2-0.5,0.5-0.7c0,0,0.2,0,0.2,0.2c0,0,0,0.2,0,0.7c-1.4,7.2-3.6,10.8-6.5,10.8
		c-3.1,0-4.6-2.6-4.6-7.9c0-2.6,0.5-6,1.9-10.3s2.2-6.5,2.2-6.7c0-0.5-1-1.4-3.1-2.6c-3.8,5-9.1,9.8-15.8,13.9
		c-4.6,2.6-9.1,5-13.9,7c-8.9,3.6-14.2,5.5-15.4,6.2c-1.2,0.5-1.9,0.7-2.4,0.7c-0.2,0-0.2-0.2-0.2-0.2c0-0.5,0.5-1,1.9-1.9
		c7.7-4.3,15.1-8.6,22.8-13c10.1-5.8,17-10.6,20.4-14.2c-4.6-2.4-6.7-4.8-6.7-7.4c0-3.1,1.4-6,4.3-8.6c2.9-2.4,5.3-3.4,7.2-2.6
		c1.4,0.5,2.4,2.2,2.4,5c0,2.6-0.5,5.5-1.7,8.6c2.4,1.4,3.4,2.9,3.4,4.3C603.5,61.3,603.3,62.5,602.8,63.9L602.8,63.9L602.8,63.9
		L602.8,63.9z"/>
	<path class="st0" d="M493.6,29.1c0-0.2,0.2-0.5,0.2-0.5c0.2-0.2,0.2-0.2,0.2,0c0.2,0.2,0.2,0.5,0,0.7c-1.2,7.2-3.4,10.8-6.5,10.8
		s-4.6-2.6-4.6-7.9c0-6.5,1.7-13.4,5.5-20.4c1-1.7,1.4-2.6,1.7-2.6l0,0c0,0.2-0.2,1.2-0.7,2.9c-2.4,7.4-3.6,12.5-3.6,15.6
		c0,3.8,1,6,3.1,6C490.5,33.7,491.9,32,493.6,29.1L493.6,29.1L493.6,29.1L493.6,29.1z"/>
</g>
</svg>
